<?xml version="1.0" standalone="no"?>
<!DOCTYPE svg PUBLIC "-//W3C//DTD SVG 1.1//EN" "http://www.w3.org/Graphics/SVG/1.1/DTD/svg11.dtd" >
<svg>
<metadata>
Created by FontForge 20090914 at Sun Sep 22 22:58:18 2019
 By www-data
Copyright (c) 2018 by fontiran.com. All rights reserved.
</metadata>
<defs>
<font id="IRANYekan-ExtraBold" horiz-adv-x="0" >
  <font-face 
    font-family="IRANYekan ExtraBold"
    font-weight="800"
    font-stretch="normal"
    units-per-em="2200"
    panose-1="2 11 5 6 3 8 4 2 2 4"
    ascent="1760"
    descent="-440"
    x-height="1162"
    cap-height="1564"
    bbox="-501 -1310 3155 2778"
    underline-thickness="100"
    underline-position="-750"
    unicode-range="U+001D-U+FEFF"
  />
<missing-glyph horiz-adv-x="1229" 
d="M102 -362v1806h1024v-1806h-1024zM217 -248h795v1577h-795v-1577z" />
    <glyph glyph-name="allah" unicode="&#xfedf;&#xfee0;&#xfeea;" horiz-adv-x="2305" arabic-form="isolated" 
d="M2255 433c0 -65.333 -10.6758 -124.665 -32.0088 -177.998c-23.333 -57.333 -57 -106.666 -101 -147.999c-87.333 -81.333 -200.666 -122 -339.999 -122c-61.333 0 -119.666 10 -174.999 30c-46 16.667 -86 38.667 -120 66c-83.333 -64 -186.666 -96 -309.999 -96
c-146 0 -253.667 43.667 -323 131c-48 60 -93 171.333 -135 334l-34 129c-11.333 41.333 -27.333 103.666 -48 186.999c-28.667 -5.33301 -48.667 -10 -60 -14c-75.333 -20.667 -120.666 -68.667 -135.999 -144c-3.33301 -16.667 -5 -34 -5 -52c0 -12 0.666992 -24 2 -36
c0.666992 -12 2 -24 4 -36l6 -27l34 -134c8.66699 -34 17.334 -66 26.001 -96c2.66699 -11.333 5.66699 -22.333 9 -33c2 -8.66699 4.33301 -16.667 7 -24l5 -20l-315 -92l-3 9l-1 4c-0.666992 2.66699 -1.33398 5.66699 -2.00098 9c-2 8 -4.33301 16.333 -7 25
c-3.33301 11.333 -6.33301 23 -9 35l-62 238c-15.333 61.333 -23 120.333 -23 177c0 90 19.333 174 58 252c66 133.333 174.333 220.333 325 261c26 7.33301 70 17 132 29c22 4 44.333 8.33301 67 13c18 3.33301 32 5.66602 42 6.99902l188 -123
c16.667 -70 46.334 -187.333 89.001 -352l9 -36l9 -34l16 -63c12 -44.667 23 -79.334 33 -104.001c25.333 -61.333 59.333 -92 102 -92c62.667 0 105.334 15.667 128.001 47c8 10.667 13.333 23.667 16 39c0.666992 6 1.33398 12.333 2.00098 19v808l328 65v-858
c0 -80 43.667 -120 131 -120c62.667 0 105.334 15.667 128.001 47c8 10.667 13.333 23.667 16 39c0.666992 6 1.33398 12.333 2.00098 19v927l327 65v-977zM1235.99 1472c-34.667 34 -52 81 -52 141v93l111 19v-112c0 -54.667 28 -82 84 -82h8l10 2
c8.66699 2.66699 16.334 6.33398 23.001 11.001c19.333 14 29 37 29 69v92l112 24v-116c0 -55.333 28.333 -83 85 -83c6 0 12 1 18 3c8.66699 2.66699 16 6.66699 22 12c18 14 27 36.667 27 68c0 15.333 -3.66699 38.666 -11 69.999c-2 10 -5.33301 23 -10 39l-5 19l-4 18
l102 35c0 -1.33301 1 -4.33301 3 -9l2 -7l3 -9l13 -47c12 -46 18 -82.333 18 -109c0 -61.333 -19.333 -110 -58 -146c-34 -31.333 -74.667 -47 -122 -47c-60 0 -106.667 16 -140 48c-32 -31.333 -73.667 -47 -125 -47c-60.667 0 -108.334 17 -143.001 51zM1446.99 2119
l113 26v-286l-113 -27v287z" />
    <glyph glyph-name="riyal" unicode="&#x631;&#xfef3;&#xfe8e;&#x644;" horiz-adv-x="3305" arabic-form="isolated" 
d="M1323 50c0 -76 -4.99805 -142 -14.998 -198c-14.667 -79.333 -43 -148 -85 -206c-50 -69.333 -117.333 -120.333 -202 -153c-78 -31.333 -175 -47 -291 -47h-63c-103.333 0 -197.333 19.667 -282 59c-92 43.333 -164.667 107 -218 191c-57.333 91.333 -86 197 -86 317
c0 16 0.666992 32.333 2 49c8 138.667 51 289.334 129 452.001l296 -141c-52 -108.667 -83.667 -207 -95 -295c-2.66699 -22 -4 -43 -4 -63c0 -58 11.667 -106 35 -144c24 -37.333 60.333 -64 109 -80c19.333 -6.66699 39.666 -11.334 60.999 -14.001c17.333 -2 35 -3 53 -3
h63c51.333 0 95 4 131 12c47.333 10.667 79.666 28 96.999 52c14.667 20 25 51 31 93c4 30 6 69.667 6 119v1377h328v-1377zM3155 137c0 -208 -52.333 -371.333 -157 -490c-116.667 -132.667 -287.334 -199 -512 -199h-99v328h99c122.667 0 210 27.667 262 83
c52.667 55.333 79 148 79 278v539h328v-539zM2116 -600l-196 198l194 200l200 -200zM1694 -601l-196 198l193 200l200 -200zM1991 -15l-90.001 0.000976562c-74 0 -140.333 13 -199 39c-44.667 19.333 -83.667 45.666 -117 78.999s-59.666 72.333 -78.999 117
c-26 58.667 -39 125 -39 199v1008h327v-1008c0 -40.667 7.66699 -68.667 23 -84c14.667 -14.667 42.667 -22 84 -22h90v-328zM2650 493.001c5.33301 -32 8.00098 -62.665 8.00098 -91.998c0 -90.667 -26 -172 -78 -244c-83.333 -114.667 -219 -172 -407 -172h-214v328h207
c60 0 102.333 8 127 24c25.333 15.333 38 39.666 38 72.999c0 10 -1.33301 21 -4 33l-20 104c-2.66699 13.333 -5.33398 27.666 -8.00098 42.999l-4 19l-3 19c-10 54.667 -17.667 93.667 -23 117l313 95c20 -94 42.667 -209.667 68 -347z" />
    <glyph glyph-name="uni06440622.isol" unicode="&#xfedf;&#xfe82;" horiz-adv-x="1277" arabic-form="isolated" 
d="M1177 702c0 -105.333 -4.99805 -189 -14.998 -251c-14.667 -91.333 -42.334 -168.666 -83.001 -231.999c-52 -80 -125.333 -139.667 -220 -179c-88 -36.667 -197.333 -55 -328 -55h-431v328h431c82 0 145 6.66699 189 20c43.333 13.333 74.666 35.666 93.999 66.999
c17.333 27.333 28 67.333 32 120c2.66699 28 4 88.667 4 182v726h327v-726zM521.002 457l-327 -22l-65 952l327 22zM768.002 1548h-490c-39.333 0 -72.5 -1.16699 -99.5 -3.5s-50 -8.33301 -69 -18s-34.667 -23.667 -47 -42s-23.5 -43.5 -33.5 -75.5l-186 55
c17.333 60 41 109 71 147s66 67.667 108 89c36 17.333 75 28.833 117 34.5s88.333 8.5 139 8.5h490v-195z" />
    <glyph glyph-name="uni06440622.fina" unicode="&#xfee0;&#xfe82;" horiz-adv-x="1314" arabic-form="final" 
d="M1177 468c0 -62.667 10.666 -105 31.999 -127c18 -18.667 50.333 -28 97 -28h33v-328h-33c-74 0 -141 13.333 -201 40c-47.333 21.333 -89 50 -125 86c-32.667 -27.333 -73 -51 -121 -71c-89.333 -36.667 -198.666 -55 -327.999 -55h-431v328h431
c141.333 0 232 24 272 72c30.667 37.333 46 120 46 248v795h328v-960zM520.999 457l-327 -22l-65 952l327 22zM756.999 1553h-490c-39.333 0 -72.5 -1.16699 -99.5 -3.5s-50 -8.33301 -69 -18s-34.667 -23.667 -47 -42s-23.5 -43.5 -33.5 -75.5l-186 55
c17.333 60 41 109 71 147s66 67.667 108 89c36 17.333 75 28.833 117 34.5s88.333 8.5 139 8.5h490v-195z" />
    <glyph glyph-name="uni06440623.isol" unicode="&#xfedf;&#xfe84;" horiz-adv-x="1277" arabic-form="isolated" 
d="M1177 702c0 -105.333 -4.99805 -189 -14.998 -251c-14.667 -91.333 -42.334 -168.666 -83.001 -231.999c-52 -80 -125.333 -139.667 -220 -179c-88 -36.667 -197.333 -55 -328 -55h-431v328h431c82 0 145 6.66699 189 20c43.333 13.333 74.666 35.666 93.999 66.999
c17.333 27.333 28 67.333 32 120c2.66699 28 4 88.667 4 182v726h327v-726zM521.002 457l-327 -22l-65 952l327 22zM16.002 1464l-0.00585938 149.002l124 40c-20 20.667 -36.5 44 -49.5 70s-19.5 53.667 -19.5 83c0 22.667 4 45 12 67s19 42.333 33 61s30.5 35 49.5 49
s39.167 24 60.5 30c11.333 3.33301 22.833 5.83301 34.5 7.5s23.167 2.5 34.5 2.5c24 0 45.167 -2.83301 63.5 -8.5s35.5 -11.5 51.5 -17.5l17 -8l-30 -124c-9.33301 2 -19.666 4.66699 -30.999 8s-22.666 6 -33.999 8s-22.5 3.16699 -33.5 3.5
s-20.833 -0.833984 -29.5 -3.50098c-9.33301 -3.33301 -18.5 -8 -27.5 -14s-16.5 -12.833 -22.5 -20.5s-10 -16.5 -12 -26.5c-1.33301 -4 -2 -8 -2 -12c0 -6.66699 1.33301 -13.334 4 -20.001c5.33301 -17.333 17.833 -32 37.5 -44s47.167 -18 82.5 -18
c6.66699 0 13.834 0.333008 21.501 1s17.834 2.5 30.501 5.5s28.834 7.33301 48.501 13s44.834 13.5 75.501 23.5l8 -141z" />
    <glyph glyph-name="uni06440623.fina" unicode="&#xfee0;&#xfe84;" horiz-adv-x="1314" arabic-form="final" 
d="M1177 468c0 -62.667 10.666 -105 31.999 -127c18 -18.667 50.333 -28 97 -28h33v-328h-33c-74 0 -141 13.333 -201 40c-47.333 21.333 -89 50 -125 86c-32.667 -27.333 -73 -51 -121 -71c-89.333 -36.667 -198.666 -55 -327.999 -55h-431v328h431
c141.333 0 232 24 272 72c30.667 37.333 46 120 46 248v795h328v-960zM520.999 457l-327 -22l-65 952l327 22zM12.999 1467l-0.00585938 149.002l124 40c-20 20.667 -36.5 44 -49.5 70s-19.5 53.667 -19.5 83c0 22.667 4 45 12 67s19 42.333 33 61s30.5 35 49.5 49
s39.167 24 60.5 30c11.333 3.33301 22.833 5.83301 34.5 7.5s23.167 2.5 34.5 2.5c24 0 45.167 -2.83301 63.5 -8.5s35.5 -11.5 51.5 -17.5l17 -8l-30 -124c-9.33301 2 -19.666 4.66699 -30.999 8s-22.666 6 -33.999 8s-22.5 3.16699 -33.5 3.5
s-20.833 -0.833984 -29.5 -3.50098c-9.33301 -3.33301 -18.5 -8 -27.5 -14s-16.5 -12.833 -22.5 -20.5s-10 -16.5 -12 -26.5c-1.33301 -4 -2 -8 -2 -12c0 -6.66699 1.33301 -13.334 4 -20.001c5.33301 -17.333 17.833 -32 37.5 -44s47.167 -18 82.5 -18
c6.66699 0 13.834 0.333008 21.501 1s17.834 2.5 30.501 5.5s28.834 7.33301 48.501 13s44.834 13.5 75.501 23.5l8 -141z" />
    <glyph glyph-name="uni06440625.isol" unicode="&#xfedf;&#xfe88;" horiz-adv-x="1277" arabic-form="isolated" 
d="M1177 702c0 -105.333 -4.99805 -189 -14.998 -251c-14.667 -91.333 -42.334 -168.666 -83.001 -231.999c-52 -80 -125.333 -139.667 -220 -179c-88 -36.667 -197.333 -55 -328 -55h-431v328h431c82 0 145 6.66699 189 20c43.333 13.333 74.666 35.666 93.999 66.999
c17.333 27.333 28 67.333 32 120c2.66699 28 4 88.667 4 182v726h327v-726zM521.002 457l-327 -22l-65 952l327 22zM197.002 -686l-0.00585938 149.002l124 40c-20 20.667 -36.5 44 -49.5 70s-19.5 53.667 -19.5 83c0 22.667 4 45 12 67s19 42.333 33 61s30.5 35 49.5 49
s39.167 24 60.5 30c11.333 3.33301 22.833 5.83301 34.5 7.5s23.167 2.5 34.5 2.5c24 0 45.167 -2.83301 63.5 -8.5s35.5 -11.5 51.5 -17.5l17 -8l-30 -124c-9.33301 2 -19.666 4.66699 -30.999 8s-22.666 6 -33.999 8s-22.5 3.16699 -33.5 3.5
s-20.833 -0.833984 -29.5 -3.50098c-9.33301 -3.33301 -18.5 -8 -27.5 -14s-16.5 -12.833 -22.5 -20.5s-10 -16.5 -12 -26.5c-1.33301 -4 -2 -8 -2 -12c0 -6.66699 1.33301 -13.334 4 -20.001c5.33301 -17.333 17.833 -32 37.5 -44s47.167 -18 82.5 -18
c6.66699 0 13.834 0.333008 21.501 1s17.834 2.5 30.501 5.5s28.834 7.33301 48.501 13s44.834 13.5 75.501 23.5l8 -141z" />
    <glyph glyph-name="uni06440625.fina" unicode="&#xfee0;&#xfe88;" horiz-adv-x="1314" arabic-form="final" 
d="M1177 468c0 -62.667 10.666 -105 31.999 -127c18 -18.667 50.333 -28 97 -28h33v-328h-33c-74 0 -141 13.333 -201 40c-47.333 21.333 -89 50 -125 86c-32.667 -27.333 -73 -51 -121 -71c-89.333 -36.667 -198.666 -55 -327.999 -55h-431v328h431
c141.333 0 232 24 272 72c30.667 37.333 46 120 46 248v795h328v-960zM520.999 457l-327 -22l-65 952l327 22zM201.999 -685l-0.00585938 149.002l124 40c-20 20.667 -36.5 44 -49.5 70s-19.5 53.667 -19.5 83c0 22.667 4 45 12 67s19 42.333 33 61s30.5 35 49.5 49
s39.167 24 60.5 30c11.333 3.33301 22.833 5.83301 34.5 7.5s23.167 2.5 34.5 2.5c24 0 45.167 -2.83301 63.5 -8.5s35.5 -11.5 51.5 -17.5l17 -8l-30 -124c-9.33301 2 -19.666 4.66699 -30.999 8s-22.666 6 -33.999 8s-22.5 3.16699 -33.5 3.5
s-20.833 -0.833984 -29.5 -3.50098c-9.33301 -3.33301 -18.5 -8 -27.5 -14s-16.5 -12.833 -22.5 -20.5s-10 -16.5 -12 -26.5c-1.33301 -4 -2 -8 -2 -12c0 -6.66699 1.33301 -13.334 4 -20.001c5.33301 -17.333 17.833 -32 37.5 -44s47.167 -18 82.5 -18
c6.66699 0 13.834 0.333008 21.501 1s17.834 2.5 30.501 5.5s28.834 7.33301 48.501 13s44.834 13.5 75.501 23.5l8 -141z" />
    <glyph glyph-name="uni06440627.isol" unicode="&#xfedf;&#xfe8e;" horiz-adv-x="1277" arabic-form="isolated" 
d="M1177 702c0 -105.333 -4.99805 -189 -14.998 -251c-14.667 -91.333 -42.334 -168.666 -83.001 -231.999c-52 -80 -125.333 -139.667 -220 -179c-88 -36.667 -197.333 -55 -328 -55h-431v328h431c82 0 145 6.66699 189 20c43.333 13.333 74.666 35.666 93.999 66.999
c17.333 27.333 28 67.333 32 120c2.66699 28 4 88.667 4 182v726h327v-726zM521.002 457l-327 -22l-65 952l327 22z" />
    <glyph glyph-name="uni06440627.fina" unicode="&#xfee0;&#xfe8e;" horiz-adv-x="1314" arabic-form="final" 
d="M1177 468c0 -62.667 10.666 -105 31.999 -127c18 -18.667 50.333 -28 97 -28h33v-328h-33c-74 0 -141 13.333 -201 40c-47.333 21.333 -89 50 -125 86c-32.667 -27.333 -73 -51 -121 -71c-89.333 -36.667 -198.666 -55 -327.999 -55h-431v328h431
c141.333 0 232 24 272 72c30.667 37.333 46 120 46 248v795h328v-960zM520.999 457l-327 -22l-65 952l327 22z" />
    <glyph glyph-name="uni06440671.isol" unicode="&#xfedf;&#xfb51;" horiz-adv-x="1277" 
d="M1177 702c0 -105.333 -4.99805 -189 -14.998 -251c-14.667 -91.333 -42.334 -168.666 -83.001 -231.999c-52 -80 -125.333 -139.667 -220 -179c-88 -36.667 -197.333 -55 -328 -55h-431v328h431c82 0 145 6.66699 189 20c43.333 13.333 74.666 35.666 93.999 66.999
c17.333 27.333 28 67.333 32 120c2.66699 28 4 88.667 4 182v726h327v-726zM521.002 457l-327 -22l-65 952l327 22zM-23.998 1520l23.999 108.999h132l44 68l83 122c23.333 34.667 52 62.167 86 82.5s71 30.5 111 30.5c22.667 0 45.334 -4.33301 68.001 -13s43 -22 61 -40
s32.5 -40.667 43.5 -68s16.5 -59.666 16.5 -96.999c0 -36 -6 -66.333 -18 -91s-27.333 -44.667 -46 -60s-39.5 -26.333 -62.5 -33s-45.5 -10 -67.5 -10h-475zM456.001 1823c-18 0 -35.835 -6 -53.502 -18s-34.667 -27.333 -51 -46s-32.166 -39.5 -47.499 -62.5
s-29.666 -45.5 -42.999 -67.5h190c24 0 44 6.66699 60 20s24 35 24 65c0 35.333 -6.83301 62.333 -20.5 81s-33.167 28 -58.5 28z" />
    <glyph glyph-name="uni06440671.fina" unicode="&#xfee0;&#xfb51;" horiz-adv-x="1314" 
d="M1177 468c0 -62.667 10.666 -105 31.999 -127c18 -18.667 50.333 -28 97 -28h33v-328h-33c-74 0 -141 13.333 -201 40c-47.333 21.333 -89 50 -125 86c-32.667 -27.333 -73 -51 -121 -71c-89.333 -36.667 -198.666 -55 -327.999 -55h-431v328h431
c141.333 0 232 24 272 72c30.667 37.333 46 120 46 248v795h328v-960zM520.999 457l-327 -22l-65 952l327 22zM-47.001 1532l23.999 108.999h132l44 68l83 122c23.333 34.667 52 62.167 86 82.5s71 30.5 111 30.5c22.667 0 45.334 -4.33301 68.001 -13s43 -22 61 -40
s32.5 -40.667 43.5 -68s16.5 -59.666 16.5 -96.999c0 -36 -6 -66.333 -18 -91s-27.333 -44.667 -46 -60s-39.5 -26.333 -62.5 -33s-45.5 -10 -67.5 -10h-475zM432.998 1835c-18 0 -35.835 -6 -53.502 -18s-34.667 -27.333 -51 -46s-32.166 -39.5 -47.499 -62.5
s-29.666 -45.5 -42.999 -67.5h190c24 0 44 6.66699 60 20s24 35 24 65c0 35.333 -6.83301 62.333 -20.5 81s-33.167 28 -58.5 28z" />
    <glyph glyph-name="uni0621" unicode="&#x621;" horiz-adv-x="989" arabic-form="isolated" 
d="M727 840l18 -4.00098l-56 -240c-42 10.667 -75.667 18.334 -101 23.001c-36.667 7.33301 -67 11 -91 11c-20 0 -37 -2.33301 -51 -7c-31.333 -9.33301 -56.666 -28.333 -75.999 -57c-15.333 -22 -23 -44.667 -23 -68c0 -12 2 -24 6 -36c23.333 -76 92.333 -114 207 -114
c61.333 0 129.666 11.667 204.999 35l100 31l4 -256l-787 -238l2 256l141 44l-15 15c-6 6 -11 11.333 -15 16c-36 42.667 -61.667 89 -77 139c-11.333 38 -17 75 -17 111c0 64.667 18 126.667 54 186c52.667 86 125.667 143 219 171c38 12 79 18 123 18
c53.333 0 130 -12 230 -36z" />
    <glyph glyph-name="uni0622" unicode="&#x622;" horiz-adv-x="795" arabic-form="isolated" 
d="M535 -15h-328v1295h328v-1295zM800 1424h-490c-39.333 0 -72.5 -1.16699 -99.5 -3.5s-50 -8.33301 -69 -18s-34.667 -23.667 -47 -42s-23.5 -43.5 -33.5 -75.5l-186 55c17.333 60 41 109 71 147s66 67.667 108 89c36 17.333 75 28.833 117 34.5s88.333 8.5 139 8.5h490
v-195z" />
    <glyph glyph-name="uni0623" unicode="&#x623;" horiz-adv-x="528" arabic-form="isolated" 
d="M428 -15h-328v1295h328v-1295zM10 1349l-0.00585938 149.002l124 40c-20 20.667 -36.5 44 -49.5 70s-19.5 53.667 -19.5 83c0 22.667 4 45 12 67s19 42.333 33 61s30.5 35 49.5 49s39.167 24 60.5 30c11.333 3.33301 22.833 5.83301 34.5 7.5s23.167 2.5 34.5 2.5
c24 0 45.167 -2.83301 63.5 -8.5s35.5 -11.5 51.5 -17.5l17 -8l-30 -124c-9.33301 2 -19.666 4.66699 -30.999 8s-22.666 6 -33.999 8s-22.5 3.16699 -33.5 3.5s-20.833 -0.833984 -29.5 -3.50098c-9.33301 -3.33301 -18.5 -8 -27.5 -14s-16.5 -12.833 -22.5 -20.5
s-10 -16.5 -12 -26.5c-1.33301 -4 -2 -8 -2 -12c0 -6.66699 1.33301 -13.334 4 -20.001c5.33301 -17.333 17.833 -32 37.5 -44s47.167 -18 82.5 -18c6.66699 0 13.834 0.333008 21.501 1s17.834 2.5 30.501 5.5s28.834 7.33301 48.501 13s44.834 13.5 75.501 23.5l8 -141z
" />
    <glyph glyph-name="uni0624" unicode="&#x624;" horiz-adv-x="1057" arabic-form="isolated" 
d="M679 312l0.000976562 103c0 61.333 -13 110 -39 146c-26 35.333 -61.333 53 -106 53c-45.333 0 -81.333 -17.667 -108 -53c-24.667 -32.667 -37 -75 -37 -127c0 -6 0.333008 -12.333 1 -19c2 -35.333 17.667 -62 47 -80c25.333 -15.333 57.666 -23 96.999 -23h145z
M886.001 781c80.667 -98 121.001 -219.999 121.001 -365.999v-367c0 -232 -95.667 -397.667 -287 -497c-74 -38.667 -162 -66.667 -264 -84c-79.333 -14 -166 -21 -260 -21v328c166.667 0 292 23.333 376 70c68 37.333 102 84.333 102 141h-140
c-119.333 0 -220.333 32 -303 96c-100.667 77.333 -151 188.666 -151 333.999c0 138 33.333 255 100 351c81.333 117.333 199.333 176 354 176c147.333 0 264.666 -53.667 351.999 -161zM164.002 996.001l-0.00585938 149.002l124 40c-20 20.667 -36.5 44 -49.5 70
s-19.5 53.667 -19.5 83c0 22.667 4 45 12 67s19 42.333 33 61s30.5 35 49.5 49s39.167 24 60.5 30c11.333 3.33301 22.833 5.83301 34.5 7.5s23.167 2.5 34.5 2.5c24 0 45.167 -2.83301 63.5 -8.5s35.5 -11.5 51.5 -17.5l17 -8l-30 -124
c-9.33301 2 -19.666 4.66699 -30.999 8s-22.666 6 -33.999 8s-22.5 3.16699 -33.5 3.5s-20.833 -0.833984 -29.5 -3.50098c-9.33301 -3.33301 -18.5 -8 -27.5 -14s-16.5 -12.833 -22.5 -20.5s-10 -16.5 -12 -26.5c-1.33301 -4 -2 -8 -2 -12
c0 -6.66699 1.33301 -13.334 4 -20.001c5.33301 -17.333 17.833 -32 37.5 -44s47.167 -18 82.5 -18c6.66699 0 13.834 0.333008 21.501 1s17.834 2.5 30.501 5.5s28.834 7.33301 48.501 13s44.834 13.5 75.501 23.5l8 -141z" />
    <glyph glyph-name="uni0625" unicode="&#x625;" horiz-adv-x="528" arabic-form="isolated" 
d="M428 -15h-328v1442h328v-1442zM18 -701l-0.00585938 149.002l124 40c-20 20.667 -36.5 44 -49.5 70s-19.5 53.667 -19.5 83c0 22.667 4 45 12 67s19 42.333 33 61s30.5 35 49.5 49s39.167 24 60.5 30c11.333 3.33301 22.833 5.83301 34.5 7.5s23.167 2.5 34.5 2.5
c24 0 45.167 -2.83301 63.5 -8.5s35.5 -11.5 51.5 -17.5l17 -8l-30 -124c-9.33301 2 -19.666 4.66699 -30.999 8s-22.666 6 -33.999 8s-22.5 3.16699 -33.5 3.5s-20.833 -0.833984 -29.5 -3.50098c-9.33301 -3.33301 -18.5 -8 -27.5 -14s-16.5 -12.833 -22.5 -20.5
s-10 -16.5 -12 -26.5c-1.33301 -4 -2 -8 -2 -12c0 -6.66699 1.33301 -13.334 4 -20.001c5.33301 -17.333 17.833 -32 37.5 -44s47.167 -18 82.5 -18c6.66699 0 13.834 0.333008 21.501 1s17.834 2.5 30.501 5.5s28.834 7.33301 48.501 13s44.834 13.5 75.501 23.5l8 -141z
" />
    <glyph glyph-name="uni0626" unicode="&#x626;" horiz-adv-x="1642" arabic-form="isolated" 
d="M1581 913l-83.001 -317.002c-49.333 12.667 -96.333 20.334 -141 23.001c-4.66699 0.666992 -11.334 1 -20.001 1c-84.667 0 -156 -26.333 -214 -79c-58.667 -54 -88 -121 -88 -201c142.667 -40 249.667 -71 321 -93c51.333 -16 88.666 -31.333 111.999 -46
c40 -24.667 68.667 -55.334 86 -92.001c6.66699 -14 11.334 -28.667 14.001 -44c2.66699 -11.333 4 -23.333 4 -36c0.666992 -12 1 -24 1 -36c0 -364 -197.333 -546 -592 -546h-298c-166 0 -306 52.333 -420 157c-128.667 118 -193 279.333 -193 484
c0 186 52.333 385.333 157 598l294 -144c-82 -168.667 -123 -306.334 -123 -413.001c0 -44.667 2.33301 -82.667 7 -114c6.66699 -45.333 18.334 -83.666 35.001 -114.999c44.667 -83.333 125.667 -125 243 -125h298c52.667 0 97.667 4.33301 135 13
c48.667 11.333 81.334 30 98.001 56c16 24.667 25.333 58 28 100c-8 2.66699 -168.667 45.334 -482 128.001c-35.333 66.667 -53 154 -53 262c0 142.667 47.667 272.334 143 389.001c121.333 149.333 293 224 515 224c77.333 0 149.333 -11.333 216 -34zM90.999 736.998
l-0.00585938 149.002l124 40c-20 20.667 -36.5 44 -49.5 70s-19.5 53.667 -19.5 83c0 22.667 4 45 12 67s19 42.333 33 61s30.5 35 49.5 49s39.167 24 60.5 30c11.333 3.33301 22.833 5.83301 34.5 7.5s23.167 2.5 34.5 2.5c24 0 45.167 -2.83301 63.5 -8.5
s35.5 -11.5 51.5 -17.5l17 -8l-30 -124c-9.33301 2 -19.666 4.66699 -30.999 8s-22.666 6 -33.999 8s-22.5 3.16699 -33.5 3.5s-20.833 -0.833984 -29.5 -3.50098c-9.33301 -3.33301 -18.5 -8 -27.5 -14s-16.5 -12.833 -22.5 -20.5s-10 -16.5 -12 -26.5
c-1.33301 -4 -2 -8 -2 -12c0 -6.66699 1.33301 -13.334 4 -20.001c5.33301 -17.333 17.833 -32 37.5 -44s47.167 -18 82.5 -18c6.66699 0 13.834 0.333008 21.501 1s17.834 2.5 30.501 5.5s28.834 7.33301 48.501 13s44.834 13.5 75.501 23.5l8 -141z" />
    <glyph glyph-name="uni0627" unicode="&#x627;" horiz-adv-x="528" arabic-form="isolated" 
d="M428 -15h-328v1442h328v-1442z" />
    <glyph glyph-name="uni0628" unicode="&#x628;" horiz-adv-x="2074" arabic-form="isolated" 
d="M739 -26c-188 0 -308.332 4.66602 -360.999 13.999c-102.667 17.333 -181 67 -235 149c-34 51.333 -55.333 110 -64 176c-2.66699 24 -4 49 -4 75c0 28.667 1.66699 58.334 5 89.001c4.66699 41.333 17 100.333 37 177c6 24.667 12.667 49.667 20 75
c2.66699 8.66699 5 16.667 7 24c1.33301 6 2.33301 9.66699 3 11l315 -89c-34 -121.333 -56.667 -220.666 -68 -297.999c-0.666992 -5.33301 -1 -10.666 -1 -15.999c0 -12.667 2.33301 -23.667 7 -33c8 -17.333 22.333 -26 43 -26h1088c60 0 102.333 8 127 24
c25.333 15.333 38 39.666 38 72.999c0 10 -1.33301 21 -4 33l-20 104c-2.66699 13.333 -5.33398 27.666 -8.00098 42.999l-4 19l-3 19l-12 66l314 88l56 -289c5.33301 -32 8 -62.667 8 -92c0 -90.667 -26 -172 -78 -244c-83.333 -114.667 -219 -172 -407 -172h-799z
M849.001 -349.001l208 210l212 -212l-210 -210z" />
    <glyph glyph-name="uni0629" unicode="&#x629;" horiz-adv-x="1041" arabic-form="isolated" 
d="M623 308c36 25.333 54.001 63 54.001 113c0 30 -26 72.333 -78 127c-26 26.667 -52 50.667 -78 72c-94.667 -78 -142 -146 -142 -204c0 -49.333 18.667 -86.333 56 -111c14 -9.33301 30.333 -16.333 49 -21c15.333 -4 30.333 -6 45 -6c35.333 0 66.666 10 93.999 30z
M479.001 1135c1.33301 -0.666992 3 -1.99902 5 -3.99902l15 -17l62 -66l235 -255c26.667 -30 48.667 -56 66 -78c24.667 -30.667 45.667 -60.334 63 -89.001c44 -74.667 66 -149.334 66 -224.001c0 -75.333 -15 -142.666 -45 -201.999c-23.333 -44.667 -54.333 -83 -93 -115
c-82 -66.667 -190 -100 -324 -100s-241.667 33.667 -323 101c-38 31.333 -68.333 69 -91 113c-30 58 -45 124.333 -45 199c0 131.333 54 257 162 377l66 75l-59 63l239 224zM714.001 1180l-196 198l194 200l200 -200zM295.001 1179l-196 198l193 200l200 -200z" />
    <glyph glyph-name="uni062A" unicode="&#x62a;" horiz-adv-x="2074" arabic-form="isolated" 
d="M739 -26c-188 0 -308.332 4.66602 -360.999 13.999c-102.667 17.333 -181 67 -235 149c-34 51.333 -55.333 110 -64 176c-2.66699 24 -4 49 -4 75c0 28.667 1.66699 58.334 5 89.001c4.66699 41.333 17 100.333 37 177c6 24.667 12.667 49.667 20 75
c2.66699 8.66699 5 16.667 7 24c1.33301 6 2.33301 9.66699 3 11l315 -89c-34 -121.333 -56.667 -220.666 -68 -297.999c-0.666992 -5.33301 -1 -10.666 -1 -15.999c0 -12.667 2.33301 -23.667 7 -33c8 -17.333 22.333 -26 43 -26h1088c60 0 102.333 8 127 24
c25.333 15.333 38 39.666 38 72.999c0 10 -1.33301 21 -4 33l-20 104c-2.66699 13.333 -5.33398 27.666 -8.00098 42.999l-4 19l-3 19l-12 66l314 88l56 -289c5.33301 -32 8 -62.667 8 -92c0 -90.667 -26 -172 -78 -244c-83.333 -114.667 -219 -172 -407 -172h-799z
M1277 731.999l-196 198l194 200l200 -200zM858.001 730.999l-196 198l193 200l200 -200z" />
    <glyph glyph-name="uni062B" unicode="&#x62b;" horiz-adv-x="2074" arabic-form="isolated" 
d="M739 -26c-188 0 -308.332 4.66602 -360.999 13.999c-102.667 17.333 -181 67 -235 149c-34 51.333 -55.333 110 -64 176c-2.66699 24 -4 49 -4 75c0 28.667 1.66699 58.334 5 89.001c4.66699 41.333 17 100.333 37 177c6 24.667 12.667 49.667 20 75
c2.66699 8.66699 5 16.667 7 24c1.33301 6 2.33301 9.66699 3 11l315 -89c-34 -121.333 -56.667 -220.666 -68 -297.999c-0.666992 -5.33301 -1 -10.666 -1 -15.999c0 -12.667 2.33301 -23.667 7 -33c8 -17.333 22.333 -26 43 -26h1088c60 0 102.333 8 127 24
c25.333 15.333 38 39.666 38 72.999c0 10 -1.33301 21 -4 33l-20 104c-2.66699 13.333 -5.33398 27.666 -8.00098 42.999l-4 19l-3 19l-12 66l314 88l56 -289c5.33301 -32 8 -62.667 8 -92c0 -90.667 -26 -172 -78 -244c-83.333 -114.667 -219 -172 -407 -172h-799z
M1036 886.999l-198 -200l-198 198l198 200zM1470 889.999l-196 -198l-203 196l200 200zM1230 1148l-174 -174l-172 172l174 174z" />
    <glyph glyph-name="uni062C" unicode="&#x62c;" horiz-adv-x="1536" arabic-form="isolated" 
d="M645 1126c64 -8.66699 220.335 -68.999 469.002 -180.999l216 -98l62 -30l23 -11l21 -319l-6 -2c-5.33301 -2 -12.333 -4.33301 -21 -7l-95 -35l-497 -186l-48 -18c-169.333 -63.333 -271.333 -109.666 -306 -138.999c-8 -6 -14 -12 -18 -18c-2.66699 -4 -5 -9 -7 -15
c-2.66699 -7.33301 -4 -17 -4 -29c0 -16 1.66699 -34.667 5 -56c10 -60 25.667 -104.333 47 -133c8 -10.667 16.667 -19.334 26 -26.001c4 -2.66699 8 -5 12 -7c3.33301 -1.33301 7 -3 11 -5c51.333 -23.333 162.666 -35 333.999 -35h438v-328h-438
c-219.333 0 -376 21.667 -470 65c-154 69.333 -248.333 207.666 -283 414.999c-6 36.667 -9 71.667 -9 105c0 131.333 48.333 237.333 145 318c50 42 119 80.333 207 115c102.667 39.333 302 103.333 598 192l-443 138c-10 3.33301 -18.667 5 -26 5
c-18 0 -34.333 -8.66699 -49 -26c-12.667 -15.333 -28.334 -43 -47.001 -83l-308 81c31.333 118 88.333 209.667 171 275c70 54.667 148.333 82 235 82c20.667 0 39 -1.33301 55 -4zM678.002 32.001l208 210l212 -212l-210 -210z" />
    <glyph glyph-name="uni062D" unicode="&#x62d;" horiz-adv-x="1536" arabic-form="isolated" 
d="M645 1126c64 -8.66699 220.335 -68.999 469.002 -180.999l216 -98l62 -30l23 -11l21 -319l-6 -2c-5.33301 -2 -12.333 -4.33301 -21 -7l-95 -35l-497 -186l-48 -18c-169.333 -63.333 -271.333 -109.666 -306 -138.999c-8 -6 -14 -12 -18 -18c-2.66699 -4 -5 -9 -7 -15
c-2.66699 -7.33301 -4 -17 -4 -29c0 -16 1.66699 -34.667 5 -56c10 -60 25.667 -104.333 47 -133c8 -10.667 16.667 -19.334 26 -26.001c4 -2.66699 8 -5 12 -7c3.33301 -1.33301 7 -3 11 -5c51.333 -23.333 162.666 -35 333.999 -35h438v-328h-438
c-219.333 0 -376 21.667 -470 65c-154 69.333 -248.333 207.666 -283 414.999c-6 36.667 -9 71.667 -9 105c0 131.333 48.333 237.333 145 318c50 42 119 80.333 207 115c102.667 39.333 302 103.333 598 192l-443 138c-10 3.33301 -18.667 5 -26 5
c-18 0 -34.333 -8.66699 -49 -26c-12.667 -15.333 -28.334 -43 -47.001 -83l-308 81c31.333 118 88.333 209.667 171 275c70 54.667 148.333 82 235 82c20.667 0 39 -1.33301 55 -4z" />
    <glyph glyph-name="uni062E" unicode="&#x62e;" horiz-adv-x="1536" arabic-form="isolated" 
d="M645 1126c64 -8.66699 220.335 -68.999 469.002 -180.999l216 -98l62 -30l23 -11l21 -319l-6 -2c-5.33301 -2 -12.333 -4.33301 -21 -7l-95 -35l-497 -186l-48 -18c-169.333 -63.333 -271.333 -109.666 -306 -138.999c-8 -6 -14 -12 -18 -18c-2.66699 -4 -5 -9 -7 -15
c-2.66699 -7.33301 -4 -17 -4 -29c0 -16 1.66699 -34.667 5 -56c10 -60 25.667 -104.333 47 -133c8 -10.667 16.667 -19.334 26 -26.001c4 -2.66699 8 -5 12 -7c3.33301 -1.33301 7 -3 11 -5c51.333 -23.333 162.666 -35 333.999 -35h438v-328h-438
c-219.333 0 -376 21.667 -470 65c-154 69.333 -248.333 207.666 -283 414.999c-6 36.667 -9 71.667 -9 105c0 131.333 48.333 237.333 145 318c50 42 119 80.333 207 115c102.667 39.333 302 103.333 598 192l-443 138c-10 3.33301 -18.667 5 -26 5
c-18 0 -34.333 -8.66699 -49 -26c-12.667 -15.333 -28.334 -43 -47.001 -83l-308 81c31.333 118 88.333 209.667 171 275c70 54.667 148.333 82 235 82c20.667 0 39 -1.33301 55 -4zM364.002 1476l208 210l212 -212l-211 -210z" />
    <glyph glyph-name="uni062F" unicode="&#x62f;" horiz-adv-x="1111" arabic-form="isolated" 
d="M621 1135l18.002 -26.002c4 -6 7.66699 -11 11 -15c4.66699 -6.66699 9 -13.334 13 -20.001l36 -50l109 -157l170 -241c48 -69.333 75.333 -141.666 82 -216.999c1.33301 -13.333 2 -26.666 2 -39.999c0 -62.667 -14.333 -122 -43 -178
c-35.333 -67.333 -86 -119.666 -152 -156.999c-66.667 -38 -141.334 -57 -224.001 -57c-96 0 -221 20 -375 60c-46 12 -92.333 25.333 -139 40c-14.667 4 -28.667 8.33301 -42 13c-4.66699 1.33301 -8.66699 2.33301 -12 3l-3 2h-2l105 311c25.333 -8.66699 55 -18 89 -28
c42 -12 83.333 -23 124 -33c109.333 -26.667 194.333 -40 255 -40c43.333 0 71.666 12.333 84.999 37c4.66699 9.33301 7 19.333 7 30c0 19.333 -8.33301 41 -25 65l-170 242l-110 157c-53.333 75.333 -80 113.333 -80 114z" />
    <glyph glyph-name="uni0630" unicode="&#x630;" horiz-adv-x="1111" arabic-form="isolated" 
d="M621 1135l18.002 -26.002c4 -6 7.66699 -11 11 -15c4.66699 -6.66699 9 -13.334 13 -20.001l36 -50l109 -157l170 -241c48 -69.333 75.333 -141.666 82 -216.999c1.33301 -13.333 2 -26.666 2 -39.999c0 -62.667 -14.333 -122 -43 -178
c-35.333 -67.333 -86 -119.666 -152 -156.999c-66.667 -38 -141.334 -57 -224.001 -57c-96 0 -221 20 -375 60c-46 12 -92.333 25.333 -139 40c-14.667 4 -28.667 8.33301 -42 13c-4.66699 1.33301 -8.66699 2.33301 -12 3l-3 2h-2l105 311c25.333 -8.66699 55 -18 89 -28
c42 -12 83.333 -23 124 -33c109.333 -26.667 194.333 -40 255 -40c43.333 0 71.666 12.333 84.999 37c4.66699 9.33301 7 19.333 7 30c0 19.333 -8.33301 41 -25 65l-170 242l-110 157c-53.333 75.333 -80 113.333 -80 114zM294.002 1454l208 210l212 -212l-211 -210z" />
    <glyph glyph-name="uni0631" unicode="&#x631;" horiz-adv-x="836" arabic-form="isolated" 
d="M768 137c0 -208 -52.332 -371.333 -156.999 -490c-116.667 -132.667 -287.334 -199 -512.001 -199h-99v328h99c122.667 0 210 27.667 262 83c52.667 55.333 79 148 79 278v539h328v-539z" />
    <glyph glyph-name="uni0632" unicode="&#x632;" horiz-adv-x="836" arabic-form="isolated" 
d="M768 137c0 -208 -52.332 -371.333 -156.999 -490c-116.667 -132.667 -287.334 -199 -512.001 -199h-99v328h99c122.667 0 210 27.667 262 83c52.667 55.333 79 148 79 278v539h328v-539zM399.001 1099l208 210l212 -212l-211 -210z" />
    <glyph glyph-name="uni0633" unicode="&#x633;" horiz-adv-x="2757" arabic-form="isolated" 
d="M2688 506c6.66699 -28.667 10.002 -58.6689 10.002 -90.002c0 -25.333 -2.33301 -51.666 -7 -78.999c-11.333 -62 -33.666 -118.333 -67 -169c-79.333 -122 -195 -183 -347 -183c-68.667 0 -133 10.333 -193 31c-40.667 15.333 -77.667 35.333 -111 60
c-79.333 -60.667 -170.333 -91 -273 -91c-56.667 0 -108 6.33301 -154 19c-4.66699 -150 -48 -272.667 -130 -368c-54.667 -64 -125.334 -112 -212.001 -144c-86.667 -30.667 -185 -46 -295 -46h-227c-108 0 -206.333 24 -295 72c-88.667 47.333 -160 114.333 -214 201
c-36.667 60.667 -63 126.334 -79 197.001c-12.667 57.333 -19 118 -19 182c0 16 0.333008 32 1 48c10 167.333 62.333 345.666 157 534.999l293 -145c-75.333 -153.333 -116.333 -289.666 -123 -408.999c-0.666992 -12 -1 -23.667 -1 -35
c0 -80.667 16.667 -147.334 50 -200.001c27.333 -44 64.333 -75.667 111 -95c35.333 -15.333 75 -23 119 -23h227c125.333 0 209.666 20.667 252.999 62c38 36 57 102.667 57 200v640h327v-243c0 -80 44 -120 132 -120c36.667 0 65.667 7 87 21c30 19.333 45 52.333 45 99
v243h328v-243c0 -41.333 7.66699 -70.666 23 -87.999c18 -21.333 51 -32 99 -32c76 0 114 26.333 114 79c0 11.333 -1.66699 24 -5 38c-38 156.667 -62.667 261.667 -74 315l318 76z" />
    <glyph glyph-name="uni0634" unicode="&#x634;" horiz-adv-x="2757" arabic-form="isolated" 
d="M2688 506c6.66699 -28.667 10.002 -58.6689 10.002 -90.002c0 -25.333 -2.33301 -51.666 -7 -78.999c-11.333 -62 -33.666 -118.333 -67 -169c-79.333 -122 -195 -183 -347 -183c-68.667 0 -133 10.333 -193 31c-40.667 15.333 -77.667 35.333 -111 60
c-79.333 -60.667 -170.333 -91 -273 -91c-56.667 0 -108 6.33301 -154 19c-4.66699 -150 -48 -272.667 -130 -368c-54.667 -64 -125.334 -112 -212.001 -144c-86.667 -30.667 -185 -46 -295 -46h-227c-108 0 -206.333 24 -295 72c-88.667 47.333 -160 114.333 -214 201
c-36.667 60.667 -63 126.334 -79 197.001c-12.667 57.333 -19 118 -19 182c0 16 0.333008 32 1 48c10 167.333 62.333 345.666 157 534.999l293 -145c-75.333 -153.333 -116.333 -289.666 -123 -408.999c-0.666992 -12 -1 -23.667 -1 -35
c0 -80.667 16.667 -147.334 50 -200.001c27.333 -44 64.333 -75.667 111 -95c35.333 -15.333 75 -23 119 -23h227c125.333 0 209.666 20.667 252.999 62c38 36 57 102.667 57 200v640h327v-243c0 -80 44 -120 132 -120c36.667 0 65.667 7 87 21c30 19.333 45 52.333 45 99
v243h328v-243c0 -41.333 7.66699 -70.666 23 -87.999c18 -21.333 51 -32 99 -32c76 0 114 26.333 114 79c0 11.333 -1.66699 24 -5 38c-38 156.667 -62.667 261.667 -74 315l318 76zM1950 1109l-198 -200l-198 198l198 200zM2384 1112l-196 -198l-203 196l200 200z
M2144 1370l-174 -174l-172 172l174 174z" />
    <glyph glyph-name="uni0635" unicode="&#x635;" horiz-adv-x="2782" arabic-form="isolated" 
d="M921 -224c54.667 0 102.667 4.66895 144 14.002c53.333 12.667 92 32.667 116 60c33.333 38 50 99.333 50 184v642h327l1 -262c68.667 95.333 136 176 202 242c73.333 73.333 147.333 129.666 222 168.999c93.333 49.333 188.666 74 286 74
c179.333 0 308.333 -57 387 -171c28.667 -41.333 49.334 -89 62 -143c9.33301 -40 14 -80 14 -120c0 -197.333 -69 -335.333 -207 -414c-47.333 -26.667 -101 -45.334 -161 -56.001c-21.333 -4 -43.333 -6.66699 -66 -8l-26 -2h-599c-36.667 0 -74.667 4.33301 -114 13
c-5.33301 -148 -49 -269 -131 -363c-56 -64 -127 -111.333 -213 -142c-82.667 -30 -180.667 -45 -294 -45h-239c-108 0 -206.333 24 -295 72c-88.667 47.333 -160 114.333 -214 201c-36.667 60.667 -63 126.334 -79 197.001c-12.667 57.333 -19 118 -19 182
c0 16 0.333008 32 1 48c10 167.333 62.333 345.666 157 534.999l293 -145c-75.333 -153.333 -116.333 -289.666 -123 -408.999c-0.666992 -12 -1 -23.667 -1 -35c0 -80.667 16.667 -147.334 50 -200.001c27.333 -44 64.333 -75.667 111 -95c35.333 -15.333 75 -23 119 -23
h239zM2252 313.002c76 0 127 15.998 153 47.998c10 12.667 16.667 28.334 20 47.001c2.66699 12.667 4 30.334 4 53.001c0 74 -47.667 111 -143 111c-67.333 0 -153 -38.333 -257 -115c-36 -26.667 -71.333 -55.667 -106 -87c-27.333 -25.333 -46.333 -44.333 -57 -57h386z
" />
    <glyph glyph-name="uni0636" unicode="&#x636;" horiz-adv-x="2782" arabic-form="isolated" 
d="M921 -224c54.667 0 102.667 4.66895 144 14.002c53.333 12.667 92 32.667 116 60c33.333 38 50 99.333 50 184v642h327l1 -262c68.667 95.333 136 176 202 242c73.333 73.333 147.333 129.666 222 168.999c93.333 49.333 188.666 74 286 74
c179.333 0 308.333 -57 387 -171c28.667 -41.333 49.334 -89 62 -143c9.33301 -40 14 -80 14 -120c0 -197.333 -69 -335.333 -207 -414c-47.333 -26.667 -101 -45.334 -161 -56.001c-21.333 -4 -43.333 -6.66699 -66 -8l-26 -2h-599c-36.667 0 -74.667 4.33301 -114 13
c-5.33301 -148 -49 -269 -131 -363c-56 -64 -127 -111.333 -213 -142c-82.667 -30 -180.667 -45 -294 -45h-239c-108 0 -206.333 24 -295 72c-88.667 47.333 -160 114.333 -214 201c-36.667 60.667 -63 126.334 -79 197.001c-12.667 57.333 -19 118 -19 182
c0 16 0.333008 32 1 48c10 167.333 62.333 345.666 157 534.999l293 -145c-75.333 -153.333 -116.333 -289.666 -123 -408.999c-0.666992 -12 -1 -23.667 -1 -35c0 -80.667 16.667 -147.334 50 -200.001c27.333 -44 64.333 -75.667 111 -95c35.333 -15.333 75 -23 119 -23
h239zM2252 313.002c76 0 127 15.998 153 47.998c10 12.667 16.667 28.334 20 47.001c2.66699 12.667 4 30.334 4 53.001c0 74 -47.667 111 -143 111c-67.333 0 -153 -38.333 -257 -115c-36 -26.667 -71.333 -55.667 -106 -87c-27.333 -25.333 -46.333 -44.333 -57 -57h386z
M2049 1229l208 210l212 -212l-211 -210z" />
    <glyph glyph-name="uni0637" unicode="&#x637;" horiz-adv-x="1512" arabic-form="isolated" 
d="M982 313c76 0 127 15.998 153 47.998c10 12.667 16.667 28.334 20 47.001c2.66699 12.667 4 30.334 4 53.001c0 74 -47.667 111 -143 111c-67.333 0 -153 -38.333 -257 -115c-36 -26.667 -71.333 -55.667 -106 -87c-27.333 -25.333 -46.333 -44.333 -57 -57h386z
M647 817.998l-4.00098 -34.998c10.667 7.33301 22.334 14.666 35.001 21.999l35 20c93.333 49.333 188.666 74 285.999 74c180 0 309 -57 387 -171c28.667 -41.333 49.334 -89 62.001 -143c9.33301 -39.333 14 -79.333 14 -120c0 -197.333 -69 -335.333 -207 -414
c-47.333 -26.667 -101 -45.334 -161 -56.001c-21.333 -4 -43.333 -6.66699 -66 -8l-26 -2h-932v328h181l69 108v1007h327v-610z" />
    <glyph glyph-name="uni0638" unicode="&#x638;" horiz-adv-x="1512" arabic-form="isolated" 
d="M982 313c76 0 127 15.998 153 47.998c10 12.667 16.667 28.334 20 47.001c2.66699 12.667 4 30.334 4 53.001c0 74 -47.667 111 -143 111c-67.333 0 -153 -38.333 -257 -115c-36 -26.667 -71.333 -55.667 -106 -87c-27.333 -25.333 -46.333 -44.333 -57 -57h386z
M647 817.998l-4.00098 -34.998c10.667 7.33301 22.334 14.666 35.001 21.999l35 20c93.333 49.333 188.666 74 285.999 74c180 0 309 -57 387 -171c28.667 -41.333 49.334 -89 62.001 -143c9.33301 -39.333 14 -79.333 14 -120c0 -197.333 -69 -335.333 -207 -414
c-47.333 -26.667 -101 -45.334 -161 -56.001c-21.333 -4 -43.333 -6.66699 -66 -8l-26 -2h-932v328h181l69 108v1007h327v-610zM830.999 1287l208 210l212 -212l-211 -210z" />
    <glyph glyph-name="uni0639" unicode="&#x639;" horiz-adv-x="1355" arabic-form="isolated" 
d="M845 716c80.667 -28.667 186 -43 316 -43h128v-327h-579c-32 0 -65.333 -5.33301 -100 -16c-41.333 -12.667 -78 -31.667 -110 -57c-68 -52.667 -102 -123.334 -102 -212.001c0 -82.667 29.333 -150.667 88 -204c58.667 -54 133.334 -81 224.001 -81h569v-328h-569
c-180.667 0 -332.667 59 -456 177c-122.667 118.667 -184 264 -184 436c0 100.667 21.667 192.667 65 276c38.667 74.667 93 139.334 163 194.001c40 31.333 86.667 59.333 140 84c-6.66699 10.667 -12 20.667 -16 30c-32 62 -48 131 -48 207c0 140 49.333 256.333 148 349
c95.333 90 211.666 135 348.999 135c67.333 0 137.666 -14.667 210.999 -44c44 -18 106 -50 186 -96l19 -11l18 -11l-162 -285l-38 22c-112.667 65.333 -190.667 98 -234 98c-51.333 0 -92.666 -13.333 -123.999 -40c-30 -26 -45 -59.333 -45 -100v-10
c4 -63.333 51.667 -111 143 -143z" />
    <glyph glyph-name="uni063A" unicode="&#x63a;" horiz-adv-x="1355" arabic-form="isolated" 
d="M845 716c80.667 -28.667 186 -43 316 -43h128v-327h-579c-32 0 -65.333 -5.33301 -100 -16c-41.333 -12.667 -78 -31.667 -110 -57c-68 -52.667 -102 -123.334 -102 -212.001c0 -82.667 29.333 -150.667 88 -204c58.667 -54 133.334 -81 224.001 -81h569v-328h-569
c-180.667 0 -332.667 59 -456 177c-122.667 118.667 -184 264 -184 436c0 100.667 21.667 192.667 65 276c38.667 74.667 93 139.334 163 194.001c40 31.333 86.667 59.333 140 84c-6.66699 10.667 -12 20.667 -16 30c-32 62 -48 131 -48 207c0 140 49.333 256.333 148 349
c95.333 90 211.666 135 348.999 135c67.333 0 137.666 -14.667 210.999 -44c44 -18 106 -50 186 -96l19 -11l18 -11l-162 -285l-38 22c-112.667 65.333 -190.667 98 -234 98c-51.333 0 -92.666 -13.333 -123.999 -40c-30 -26 -45 -59.333 -45 -100v-10
c4 -63.333 51.667 -111 143 -143zM668 1617l208 210l212 -212l-211 -210z" />
    <glyph glyph-name="uni0641" unicode="&#x641;" horiz-adv-x="2097" arabic-form="isolated" 
d="M1955 992c61.333 -118 92.002 -271.003 92.002 -459.003c0 -202 -77.333 -350.333 -232 -445c-114 -69.333 -254.333 -104 -421 -104h-655c-188 0 -308.333 4.66699 -361 14c-102.667 17.333 -181 67 -235 149c-34 51.333 -55.333 110 -64 176c-2.66699 24 -4 49 -4 75
c0 28.667 1.66699 58.334 5 89.001c4.66699 41.333 17 100.333 37 177c6 24.667 12.667 49.667 20 75c2.66699 8.66699 5 16.667 7 24c1.33301 6 2.33301 9.66699 3 11l315 -89c-34 -121.333 -56.667 -220.666 -68 -297.999c-0.666992 -5.33301 -1 -10.666 -1 -15.999
c0 -12.667 2.33301 -23.667 7 -33c8 -17.333 22.333 -26 43 -26h951c111.333 0 193.666 7.33301 246.999 22c-152.667 0 -277.334 32.667 -374.001 98c-114.667 78 -172 192.667 -172 344c0 44.667 6.33301 90 19 136c15.333 56 39 105.667 71 149
c82 113.333 206.667 170 374 170c182 0 314 -79.667 396 -239zM1726 657.997l-2.00098 23c-2 16.667 -4 31.667 -6 45c-5.33301 35.333 -13 65 -23 89c-25.333 63.333 -70.333 98 -135 104c-4.66699 0.666992 -11 1 -19 1c-43.333 0 -77.666 -13 -102.999 -39
c-22.667 -24 -34 -54.333 -34 -91v-9c2.66699 -64.667 35.334 -106.667 98.001 -126c39.333 -12 114.666 -18 225.999 -18zM1355 1569l208 210l212 -212l-211 -210z" />
    <glyph glyph-name="uni0642" unicode="&#x642;" horiz-adv-x="1615" arabic-form="isolated" 
d="M1444 781c80.667 -98 121.003 -219.998 121.003 -365.998v-367c0 -163.333 -44 -299 -132 -407c-54.667 -62.667 -125.667 -110.334 -213 -143.001c-83.333 -30.667 -181.333 -46 -294 -46h-195c-114.667 0 -217.667 21 -309 63c-104 47.333 -185.667 117 -245 209
c-64 101.333 -96 220 -96 356c0 15.333 0.333008 31 1 47c8 155.333 55.667 327.666 143 516.999l298 -137c-70 -150.667 -108 -283 -114 -397c-0.666992 -9.33301 -1 -18.666 -1 -27.999c0 -74.667 15 -135 45 -181c29.333 -46.667 74.666 -80 135.999 -100
c23.333 -8 48.666 -13.667 75.999 -17c21.333 -2.66699 43.333 -4 66 -4h195c108 0 185.333 17.333 232 52c42 30.667 66.667 81.667 74 153h-140c-119.333 0 -220.333 32 -303 96c-100.667 77.333 -151 188.666 -151 333.999c0 138 33.333 255 100 351
c81.333 117.333 199.333 176 354 176c147.333 0 264.666 -53.667 351.999 -161zM1237 312.002l0.000976562 103c0 61.333 -13 110 -39 146c-26 35.333 -61.333 53 -106 53c-45.333 0 -81.333 -17.667 -108 -53c-24.667 -32.667 -37 -75 -37 -127
c0 -6 0.333008 -12.333 1 -19c2 -35.333 17.667 -62 47 -80c25.333 -15.333 57.666 -23 96.999 -23h145zM1298 1036l-196 198l194 200l200 -200zM879.004 1035l-196 198l193 200l200 -200z" />
    <glyph glyph-name="uni0643" unicode="&#x643;" horiz-adv-x="2089" arabic-form="isolated" 
d="M2039 511c0 -110 -3.66602 -186.002 -10.999 -228.002c-16.667 -95.333 -60 -167 -130 -215c-52 -35.333 -124.333 -58 -217 -68c-68 -8 -188 -12 -360 -12h-567c-188 0 -308.333 4.66699 -361 14c-102.667 17.333 -181 67 -235 149c-46 69.333 -69 153.333 -69 252
c0 28 2 57.333 6 88c9.33301 85.333 31.666 181 66.999 287l315 -89c-34 -121.333 -56.667 -220.666 -68 -297.999c-0.666992 -5.33301 -1 -10.666 -1 -15.999c0 -12.667 2.33301 -23.667 7 -33c8 -17.333 22.333 -26 43 -26h1181c48 0 72 22 72 66v1045h328v-916z
M1135 964.998c-40.667 -24 -74.6689 -46.666 -102.002 -67.999c-20 -16 -36 -31 -48 -45c12.667 0 27.667 0.666992 45 2l45 4c16 1.33301 30.667 2 44 2c16.667 0 31.334 -1 44.001 -3c38 -4.66699 68.333 -18 91 -40c9.33301 -8 17 -17.333 23 -28
c4.66699 -8.66699 8.33398 -17.334 11.001 -26.001c4.66699 -14 7 -28 7 -42c0 -23.333 -6.66699 -46.666 -20 -69.999c-27.333 -46 -78.333 -83.667 -153 -113c-30 -11.333 -64.333 -22 -103 -32c-27.333 -6.66699 -61 -14 -101 -22l-32 161
c16 3.33301 36.667 6.66602 62 9.99902l62 10c46.667 7.33301 77.667 14 93 20h-23c-16 0.666992 -31.333 1 -46 1c-45.333 0.666992 -75.333 2 -90 4c-35.333 4 -64.333 14.667 -87 32c-17.333 13.333 -30.333 30 -39 50c-8.66699 18.667 -13 38.334 -13 59.001
c0 11.333 1.33301 22.666 4 33.999c10 42 37.667 84.333 83 127c40.667 37.333 93.667 75.333 159 114z" />
    <glyph glyph-name="uni0644" unicode="&#x644;" horiz-adv-x="1373" arabic-form="isolated" 
d="M1323 50c0 -76 -4.99805 -142 -14.998 -198c-14.667 -79.333 -43 -148 -85 -206c-50 -69.333 -117.333 -120.333 -202 -153c-78 -31.333 -175 -47 -291 -47h-63c-103.333 0 -197.333 19.667 -282 59c-92 43.333 -164.667 107 -218 191c-57.333 91.333 -86 197 -86 317
c0 16 0.666992 32.333 2 49c8 138.667 51 289.334 129 452.001l296 -141c-52 -108.667 -83.667 -207 -95 -295c-2.66699 -22 -4 -43 -4 -63c0 -58 11.667 -106 35 -144c24 -37.333 60.333 -64 109 -80c19.333 -6.66699 39.666 -11.334 60.999 -14.001c17.333 -2 35 -3 53 -3
h63c51.333 0 95 4 131 12c47.333 10.667 79.666 28 96.999 52c14.667 20 25 51 31 93c4 30 6 69.667 6 119v1377h328v-1377z" />
    <glyph glyph-name="uni0645" unicode="&#x645;" horiz-adv-x="1451" arabic-form="isolated" 
d="M1077 261c14 36 21.001 79.001 21.001 129.001c0 57.333 -17.333 107.333 -52 150c-36.667 45.333 -82.334 68 -137.001 68c-40 0 -79.667 -32.667 -119 -98c-32.667 -54 -57.667 -116 -75 -186c120 -54.667 210.667 -94.334 272 -119.001
c6.66699 -3.33301 14.667 -5 24 -5c27.333 0 49.333 20.333 66 61zM1113 887.001c58.667 -30 110.331 -71.3311 154.998 -123.998c42.667 -50.667 75.334 -107 98.001 -169c23.333 -64 35 -129 35 -195c0 -138.667 -34.667 -256.334 -104 -353.001
c-76 -104.667 -175.667 -157 -299 -157c-62 0 -121 10 -177 30c-58.667 20.667 -163 68.667 -313 144l-57 29l-54 29v-880h-327v1189l215 125l148 -82c28.667 99.333 65.334 182.666 110.001 249.999c52.667 79.333 115.334 137 188.001 173
c55.333 26.667 114.666 40 177.999 40c70.667 0 138.667 -16.333 204 -49z" />
    <glyph glyph-name="uni0646" unicode="&#x646;" horiz-adv-x="1571" arabic-form="isolated" 
d="M1521 53c0 -176 -43.332 -314.334 -129.999 -415.001c-54.667 -62.667 -125.667 -110.334 -213 -143.001c-83.333 -30.667 -181.666 -46 -294.999 -46h-151c-114.667 0 -218 21 -310 63c-104.667 48 -186.334 117.667 -245.001 209c-63.333 101.333 -95 219 -95 353
c0 16.667 0.333008 33.334 1 50.001c8 155.333 55.667 327.666 143 516.999l298 -137c-70 -150.667 -108 -283 -114 -397c-0.666992 -11.333 -1 -22.666 -1 -33.999c0 -71.333 15 -129.666 45 -174.999c29.333 -46.667 74.666 -80 135.999 -100
c23.333 -8 48.666 -13.667 75.999 -17c21.333 -2.66699 43.333 -4 66 -4h151c124.667 0 209.334 23 254.001 69c38 39.333 57 108.333 57 207v623h327v-623zM642.001 754.999l208 210l212 -212l-211 -210z" />
    <glyph glyph-name="uni0647" unicode="&#x647;" horiz-adv-x="1041" arabic-form="isolated" 
d="M623 308c36 25.333 54.001 63 54.001 113c0 30 -26 72.333 -78 127c-26 26.667 -52 50.667 -78 72c-94.667 -78 -142 -146 -142 -204c0 -49.333 18.667 -86.333 56 -111c14 -9.33301 30.333 -16.333 49 -21c15.333 -4 30.333 -6 45 -6c35.333 0 66.666 10 93.999 30z
M479.001 1135c1.33301 -0.666992 3 -1.99902 5 -3.99902l15 -17l62 -66l235 -255c26.667 -30 48.667 -56 66 -78c24.667 -30.667 45.667 -60.334 63 -89.001c44 -74.667 66 -149.334 66 -224.001c0 -75.333 -15 -142.666 -45 -201.999c-23.333 -44.667 -54.333 -83 -93 -115
c-82 -66.667 -190 -100 -324 -100s-241.667 33.667 -323 101c-38 31.333 -68.333 69 -91 113c-30 58 -45 124.333 -45 199c0 131.333 54 257 162 377l66 75l-59 63l239 224z" />
    <glyph glyph-name="uni0648" unicode="&#x648;" horiz-adv-x="1057" arabic-form="isolated" 
d="M679 312l0.000976562 103c0 61.333 -13 110 -39 146c-26 35.333 -61.333 53 -106 53c-45.333 0 -81.333 -17.667 -108 -53c-24.667 -32.667 -37 -75 -37 -127c0 -6 0.333008 -12.333 1 -19c2 -35.333 17.667 -62 47 -80c25.333 -15.333 57.666 -23 96.999 -23h145z
M886.001 781c80.667 -98 121.001 -219.999 121.001 -365.999v-367c0 -232 -95.667 -397.667 -287 -497c-74 -38.667 -162 -66.667 -264 -84c-79.333 -14 -166 -21 -260 -21v328c166.667 0 292 23.333 376 70c68 37.333 102 84.333 102 141h-140
c-119.333 0 -220.333 32 -303 96c-100.667 77.333 -151 188.666 -151 333.999c0 138 33.333 255 100 351c81.333 117.333 199.333 176 354 176c147.333 0 264.666 -53.667 351.999 -161z" />
    <glyph glyph-name="uni0649" unicode="&#x649;" horiz-adv-x="1642" arabic-form="isolated" 
d="M1581 913l-83.001 -317.002c-49.333 12.667 -96.333 20.334 -141 23.001c-4.66699 0.666992 -11.334 1 -20.001 1c-84.667 0 -156 -26.333 -214 -79c-58.667 -54 -88 -121 -88 -201c142.667 -40 249.667 -71 321 -93c51.333 -16 88.666 -31.333 111.999 -46
c40 -24.667 68.667 -55.334 86 -92.001c6.66699 -14 11.334 -28.667 14.001 -44c2.66699 -11.333 4 -23.333 4 -36c0.666992 -12 1 -24 1 -36c0 -364 -197.333 -546 -592 -546h-298c-166 0 -306 52.333 -420 157c-128.667 118 -193 279.333 -193 484
c0 186 52.333 385.333 157 598l294 -144c-82 -168.667 -123 -306.334 -123 -413.001c0 -44.667 2.33301 -82.667 7 -114c6.66699 -45.333 18.334 -83.666 35.001 -114.999c44.667 -83.333 125.667 -125 243 -125h298c52.667 0 97.667 4.33301 135 13
c48.667 11.333 81.334 30 98.001 56c16 24.667 25.333 58 28 100c-8 2.66699 -168.667 45.334 -482 128.001c-35.333 66.667 -53 154 -53 262c0 142.667 47.667 272.334 143 389.001c121.333 149.333 293 224 515 224c77.333 0 149.333 -11.333 216 -34z" />
    <glyph glyph-name="uni064A" unicode="&#x64a;" horiz-adv-x="1642" arabic-form="isolated" 
d="M1581 913l-83.001 -317.002c-49.333 12.667 -96.333 20.334 -141 23.001c-4.66699 0.666992 -11.334 1 -20.001 1c-84.667 0 -156 -26.333 -214 -79c-58.667 -54 -88 -121 -88 -201c142.667 -40 249.667 -71 321 -93c51.333 -16 88.666 -31.333 111.999 -46
c40 -24.667 68.667 -55.334 86 -92.001c6.66699 -14 11.334 -28.667 14.001 -44c2.66699 -11.333 4 -23.333 4 -36c0.666992 -12 1 -24 1 -36c0 -364 -197.333 -546 -592 -546h-298c-166 0 -306 52.333 -420 157c-128.667 118 -193 279.333 -193 484
c0 186 52.333 385.333 157 598l294 -144c-82 -168.667 -123 -306.334 -123 -413.001c0 -44.667 2.33301 -82.667 7 -114c6.66699 -45.333 18.334 -83.666 35.001 -114.999c44.667 -83.333 125.667 -125 243 -125h298c52.667 0 97.667 4.33301 135 13
c48.667 11.333 81.334 30 98.001 56c16 24.667 25.333 58 28 100c-8 2.66699 -168.667 45.334 -482 128.001c-35.333 66.667 -53 154 -53 262c0 142.667 47.667 272.334 143 389.001c121.333 149.333 293 224 515 224c77.333 0 149.333 -11.333 216 -34zM1053 -1016
l-196 198l194 200l200 -200zM630.999 -1017l-196 198l193 200l200 -200z" />
    <glyph glyph-name="uni066E.init" unicode="&#x66e;" horiz-adv-x="750" 
d="M666 493c5.33301 -32 8.00098 -62.665 8.00098 -91.998c0 -90.667 -26 -172 -78 -244c-83.333 -114.667 -219 -172 -407 -172h-214v328h207c60 0 102.333 8 127 24c25.333 15.333 38 39.666 38 72.999c0 10 -1.33301 21 -4 33l-20 104
c-2.66699 13.333 -5.33398 27.666 -8.00098 42.999l-4 19l-3 19c-10 54.667 -17.667 93.667 -23 117l313 95c20 -94 42.667 -209.667 68 -347z" />
    <glyph glyph-name="uni066E.medi" unicode="&#x66e;" horiz-adv-x="770" 
d="M640 404c0 -32 7.66797 -54.666 23.001 -67.999c17.333 -15.333 48 -23 92 -23h40v-328h-40c-43.333 0 -84.333 4.66699 -123 14c-30.667 7.33301 -59.334 17.666 -86.001 30.999c-30.667 14.667 -53.667 29.334 -69 44.001c-15.333 -14.667 -40 -29.334 -74 -44.001
c-67.333 -30 -147.333 -45 -240 -45h-188v328h211c48 0 81.667 8 101 24c17.333 14 26 36.333 26 67v272h327v-272z" />
    <glyph glyph-name="uni066E.fina" unicode="&#x66e;" horiz-adv-x="2236" 
d="M462 675c-34 -121.333 -56.666 -220.668 -67.999 -298.001c-0.666992 -5.33301 -1 -10.666 -1 -15.999c0 -12.667 2.33301 -23.667 7 -33c8 -17.333 22.333 -26 43 -26h1181c48 0 72 22 72 66v309h328v-244c3.33301 -42.667 11.666 -72 24.999 -88
c17.333 -21.333 49.666 -32 97 -32h115v-328h-115c-120 0 -208 22.667 -264 68c-52 -34.667 -124.333 -57.334 -217 -68.001c-67.333 -7.33301 -187 -11 -359 -11h-567c-188 0 -308.333 4.66699 -361 14c-102.667 17.333 -181 67 -235 149c-34 51.333 -55.333 110 -64 176
c-2.66699 24 -4 49 -4 75c0 28.667 1.66699 58.334 5 89.001c4.66699 41.333 17 100.333 37 177c6 24.667 12.667 49.667 20 75c2.66699 8.66699 5 16.667 7 24c1.33301 6 2.33301 9.66699 3 11z" />
    <glyph glyph-name="uni066F.init" unicode="&#x66f;" horiz-adv-x="1105" 
d="M734 659l-2.00098 23c-2 16.667 -4 31.667 -6 45c-5.33301 35.333 -13 65 -23 89c-25.333 63.333 -70.333 98 -135 104l-10 1h-9c-43.333 0 -77.666 -13 -102.999 -39c-22.667 -24 -34 -54.333 -34 -91v-9c2.66699 -64.667 35.334 -106.667 98.001 -126
c39.333 -12 114.666 -18 225.999 -18zM962.999 993c61.333 -118 92.002 -271 92.002 -459c0 -202 -77.333 -350.333 -232 -445c-114 -69.333 -254.333 -104 -421 -104h-420v328h420c111.333 0 193.666 7.33301 246.999 22c-152.667 0 -277.334 32.667 -374.001 98
c-114.667 78 -172 192.667 -172 344c0 44.667 6.33301 90 19 136c15.333 56 39 105.667 71 149c82 113.333 206.667 170 374 170c182 0 314 -79.667 396 -239z" />
    <glyph glyph-name="uni066F.medi" unicode="&#x66f;" horiz-adv-x="1101" 
d="M693 422c20 26 30 58.333 30 97c0 46.667 -13.333 86.334 -40 119.001c-31.333 38.667 -75.333 58 -132 58s-100.667 -19.333 -132 -58c-26.667 -32.667 -40 -72.334 -40 -119.001c0 -38.667 10.333 -71 31 -97c27.333 -36 74.333 -63 141 -81c66.667 18 114 45 142 81z
M908 875c90.667 -96 136.001 -214.667 136.001 -356c0 -76 -14 -144.667 -42 -206h119v-328h-145c-162.667 0 -304.334 18.333 -425.001 55c-114 -36.667 -256 -55 -426 -55h-145v328h119c-28 61.333 -42 130 -42 206c0 141.333 45.333 260 136 356
c94 99.333 213.333 149 358 149s263.667 -49.667 357 -149z" />
    <glyph glyph-name="uni066F.fina" unicode="&#x66f;" horiz-adv-x="1644" 
d="M1444 781c80.667 -98 121.003 -219.998 121.003 -365.998v-102h105v-328h-110c-10 -139.333 -52.333 -254 -127 -344c-54.667 -62.667 -125.667 -110.334 -213 -143.001c-83.333 -30.667 -181.333 -46 -294 -46h-195c-114.667 0 -217.667 21 -309 63
c-104 47.333 -185.667 117 -245 209c-64 101.333 -96 220 -96 356c0 15.333 0.333008 31 1 47c8 155.333 55.667 327.666 143 516.999l298 -137c-70 -150.667 -108 -283 -114 -397c-0.666992 -9.33301 -1 -18.666 -1 -27.999c0 -74.667 15 -135 45 -181
c29.333 -46.667 74.666 -80 135.999 -100c23.333 -8 48.666 -13.667 75.999 -17c21.333 -2.66699 43.333 -4 66 -4h195c108 0 185.333 17.333 232 52c42 30.667 66.667 81.667 74 153h-140c-119.333 0 -220.333 32 -303 96c-100.667 77.333 -151 188.666 -151 333.999
c0 138 33.333 255 100 351c81.333 117.333 199.333 176 354 176c147.333 0 264.666 -53.667 351.999 -161zM1237 312.002l0.000976562 103c0 61.333 -13 110 -39 146c-26 35.333 -61.333 53 -106 53c-45.333 0 -81.333 -17.667 -108 -53c-24.667 -32.667 -37 -75 -37 -127
c0 -6 0.333008 -12.333 1 -19c2 -35.333 17.667 -62 47 -80c25.333 -15.333 57.666 -23 96.999 -23h145z" />
    <glyph glyph-name="uni0671" unicode="&#x671;" horiz-adv-x="528" arabic-form="isolated" 
d="M428 -15h-328v1295h328v-1295zM-29 1421l23.999 108.999h132l44 68l83 122c23.333 34.667 52 62.167 86 82.5s71 30.5 111 30.5c22.667 0 45.334 -4.33301 68.001 -13s43 -22 61 -40s32.5 -40.667 43.5 -68s16.5 -59.666 16.5 -96.999c0 -36 -6 -66.333 -18 -91
s-27.333 -44.667 -46 -60s-39.5 -26.333 -62.5 -33s-45.5 -10 -67.5 -10h-475zM450.999 1724c-18 0 -35.835 -6 -53.502 -18s-34.667 -27.333 -51 -46s-32.166 -39.5 -47.499 -62.5s-29.666 -45.5 -42.999 -67.5h190c24 0 44 6.66699 60 20s24 35 24 65
c0 35.333 -6.83301 62.333 -20.5 81s-33.167 28 -58.5 28z" />
    <glyph glyph-name="uni0679" unicode="&#x679;" horiz-adv-x="2074" arabic-form="isolated" 
d="M739 -26c-188 0 -308.332 4.66602 -360.999 13.999c-102.667 17.333 -181 67 -235 149c-34 51.333 -55.333 110 -64 176c-2.66699 24 -4 49 -4 75c0 28.667 1.66699 58.334 5 89.001c4.66699 41.333 17 100.333 37 177c6 24.667 12.667 49.667 20 75
c2.66699 8.66699 5 16.667 7 24c1.33301 6 2.33301 9.66699 3 11l315 -89c-34 -121.333 -56.667 -220.666 -68 -297.999c-0.666992 -5.33301 -1 -10.666 -1 -15.999c0 -12.667 2.33301 -23.667 7 -33c8 -17.333 22.333 -26 43 -26h1088c60 0 102.333 8 127 24
c25.333 15.333 38 39.666 38 72.999c0 10 -1.33301 21 -4 33l-20 104c-2.66699 13.333 -5.33398 27.666 -8.00098 42.999l-4 19l-3 19l-12 66l314 88l56 -289c5.33301 -32 8 -62.667 8 -92c0 -90.667 -26 -172 -78 -244c-83.333 -114.667 -219 -172 -407 -172h-799z
M776.001 657.999l-0.000976562 109h104c2 2.66699 3.83301 5.5 5.5 8.5s4 6.83301 7 11.5s7 10.5 12 17.5l18.5 26.5v488h107v-343c24 25.333 50.5 46.333 79.5 63s60.833 25 95.5 25c22.667 0 45.334 -4 68.001 -12s43 -20.5 61 -37.5s32.5 -39 43.5 -66
s16.5 -59.167 16.5 -96.5c0 -36 -6 -66.333 -18 -91s-27.333 -44.667 -46 -60s-39.5 -26.333 -62.5 -33s-45.5 -10 -67.5 -10h-424zM1205 954.999c-17.333 0 -34.667 -5.5 -52 -16.5s-34.333 -25.5 -51 -43.5s-32.667 -38.167 -48 -60.5s-30 -44.833 -44 -67.5h190
c24 0 44.667 6.66699 62 20s26 35 26 65c0 35.333 -7.5 61.333 -22.5 78s-35.167 25 -60.5 25z" />
    <glyph glyph-name="uni067E" unicode="&#x67e;" horiz-adv-x="2074" arabic-form="isolated" 
d="M739 -26c-188 0 -308.332 4.66602 -360.999 13.999c-102.667 17.333 -181 67 -235 149c-34 51.333 -55.333 110 -64 176c-2.66699 24 -4 49 -4 75c0 28.667 1.66699 58.334 5 89.001c4.66699 41.333 17 100.333 37 177c6 24.667 12.667 49.667 20 75
c2.66699 8.66699 5 16.667 7 24c1.33301 6 2.33301 9.66699 3 11l315 -89c-34 -121.333 -56.667 -220.666 -68 -297.999c-0.666992 -5.33301 -1 -10.666 -1 -15.999c0 -12.667 2.33301 -23.667 7 -33c8 -17.333 22.333 -26 43 -26h1088c60 0 102.333 8 127 24
c25.333 15.333 38 39.666 38 72.999c0 10 -1.33301 21 -4 33l-20 104c-2.66699 13.333 -5.33398 27.666 -8.00098 42.999l-4 19l-3 19l-12 66l314 88l56 -289c5.33301 -32 8 -62.667 8 -92c0 -90.667 -26 -172 -78 -244c-83.333 -114.667 -219 -172 -407 -172h-799z
M836.001 -568.001l-198 194l198 204l198 -204zM1267 -572.001l-200 198l203 198l196 -198zM1056 -803.001l-174 174l172 172l174 -174z" />
    <glyph glyph-name="uni0686" unicode="&#x686;" horiz-adv-x="1501" arabic-form="isolated" 
d="M626 1077c64 -8.66699 220.336 -69.001 469.003 -181.001l233 -107l75 -35c8 -4 15 -7.33301 21 -10c2 -1.33301 4 -2.33301 6 -3l2 -1l-15 -300v-2l-4 -1c-3.33301 -1.33301 -8 -3 -14 -5l-64 -23l-320 -120l-217 -81l-48 -18
c-170 -63.333 -272.333 -109.666 -307 -138.999c-13.333 -11.333 -21.333 -22.333 -24 -33c-2.66699 -7.33301 -4 -17 -4 -29c0 -16 1.66699 -34.667 5 -56l14 -94c20.667 -134.667 44 -215.667 70 -243c47.333 -49.333 162.666 -74 345.999 -74h440v-328h-440
c-277.333 0 -472 59 -584 177c-52 55.333 -90.333 125.666 -115 210.999c-8.66699 29.333 -16.667 63.333 -24 102l-9 53l-8 54c-5.33301 38.667 -10 68 -14 88c-6 36 -9 70.333 -9 103c0 132.667 48.667 239.334 146 320.001c62.667 52.667 196.667 117.667 402 195l48 18
l71 26l65 25l116 43c-119.333 53.333 -213.333 93 -282 119c-22.667 8 -41.334 14.333 -56.001 19c-5.33301 2 -10 3.33301 -14 4l-4 1l-2 1h-6c-18 0 -35 -10 -51 -30c-16.667 -20.667 -29.334 -48 -38.001 -82l-317 83c30.667 118 87.667 209.667 171 275
c70 54.667 148.333 82 235 82c20.667 0 39 -1.33301 55 -4zM749.481 -228.237l-177.396 174.025l177.396 182.994l177.395 -182.994zM1135.63 -231.825l-179.187 177.613l181.874 177.612l175.604 -177.612zM946.587 -439.04l-155.893 156.084l154.101 154.29
l155.893 -156.084z" />
    <glyph glyph-name="uni0688" unicode="&#x688;" horiz-adv-x="1111" arabic-form="isolated" 
d="M621 1135l18.002 -26.002c4 -6 7.66699 -11 11 -15c4.66699 -6.66699 9 -13.334 13 -20.001l36 -50l109 -157l170 -241c48 -69.333 75.333 -141.666 82 -216.999c1.33301 -13.333 2 -26.666 2 -39.999c0 -62.667 -14.333 -122 -43 -178
c-35.333 -67.333 -86 -119.666 -152 -156.999c-66.667 -38 -141.334 -57 -224.001 -57c-96 0 -221 20 -375 60c-46 12 -92.333 25.333 -139 40c-14.667 4 -28.667 8.33301 -42 13c-4.66699 1.33301 -8.66699 2.33301 -12 3l-3 2h-2l105 311c25.333 -8.66699 55 -18 89 -28
c42 -12 83.333 -23 124 -33c109.333 -26.667 194.333 -40 255 -40c43.333 0 71.666 12.333 84.999 37c4.66699 9.33301 7 19.333 7 30c0 19.333 -8.33301 41 -25 65l-170 242l-110 157c-53.333 75.333 -80 113.333 -80 114zM280.002 1271l-0.000976562 109h104
c2 2.66699 3.83301 5.5 5.5 8.5s4 6.83301 7 11.5s7 10.5 12 17.5l18.5 26.5v488h107v-343c24 25.333 50.5 46.333 79.5 63s60.833 25 95.5 25c22.667 0 45.334 -4 68.001 -12s43 -20.5 61 -37.5s32.5 -39 43.5 -66s16.5 -59.167 16.5 -96.5c0 -36 -6 -66.333 -18 -91
s-27.333 -44.667 -46 -60s-39.5 -26.333 -62.5 -33s-45.5 -10 -67.5 -10h-424zM709.001 1568c-17.333 0 -34.667 -5.5 -52 -16.5s-34.333 -25.5 -51 -43.5s-32.667 -38.167 -48 -60.5s-30 -44.833 -44 -67.5h190c24 0 44.667 6.66699 62 20s26 35 26 65
c0 35.333 -7.5 61.333 -22.5 78s-35.167 25 -60.5 25z" />
    <glyph glyph-name="uni0691" unicode="&#x691;" horiz-adv-x="836" arabic-form="isolated" 
d="M768 137c0 -208 -52.332 -371.333 -156.999 -490c-116.667 -132.667 -287.334 -199 -512.001 -199h-99v328h99c122.667 0 210 27.667 262 83c52.667 55.333 79 148 79 278v539h328v-539zM189.001 881l-0.000976562 109h104c2 2.66699 3.83301 5.5 5.5 8.5
s4 6.83301 7 11.5s7 10.5 12 17.5l18.5 26.5v488h107v-343c24 25.333 50.5 46.333 79.5 63s60.833 25 95.5 25c22.667 0 45.334 -4 68.001 -12s43 -20.5 61 -37.5s32.5 -39 43.5 -66s16.5 -59.167 16.5 -96.5c0 -36 -6 -66.333 -18 -91s-27.333 -44.667 -46 -60
s-39.5 -26.333 -62.5 -33s-45.5 -10 -67.5 -10h-424zM618 1178c-17.333 0 -34.667 -5.5 -52 -16.5s-34.333 -25.5 -51 -43.5s-32.667 -38.167 -48 -60.5s-30 -44.833 -44 -67.5h190c24 0 44.667 6.66699 62 20s26 35 26 65c0 35.333 -7.5 61.333 -22.5 78
s-35.167 25 -60.5 25z" />
    <glyph glyph-name="uni0692.fina" unicode="&#x692;" horiz-adv-x="904" 
d="M768 677l0.000976562 -273c0 -28.667 14.667 -51.667 44 -69c23.333 -14.667 47 -22 71 -22h46v-328h-46c-38.667 0 -79.667 6.33301 -123 19c-19.333 -147.333 -69 -266 -149 -356c-116.667 -132.667 -287.334 -199 -512.001 -199h-99v328h99
c122.667 0 210 27.667 262 83c52.667 55.333 79 148 79 278v539h328zM900.001 1281l-231 -413h-131l-234 413h171l126 -253l130 253h169z" />
    <glyph glyph-name="uni0695.fina" unicode="&#x695;" horiz-adv-x="904" 
d="M768 677l0.000976562 -273c0 -28.667 14.667 -51.667 44 -69c23.333 -14.667 47 -22 71 -22h46v-328h-46c-38.667 0 -79.667 6.33301 -123 19c-19.333 -147.333 -69 -266 -149 -356c-116.667 -132.667 -287.334 -199 -512.001 -199h-99v328h99
c122.667 0 210 27.667 262 83c52.667 55.333 79 148 79 278v539h328zM648.001 -679l-231 -413h-131l-234 413h171l126 -253l130 253h169z" />
    <glyph glyph-name="uni0698" unicode="&#x698;" horiz-adv-x="935" arabic-form="isolated" 
d="M768 137c0 -208 -52.332 -371.333 -156.999 -490c-116.667 -132.667 -287.334 -199 -512.001 -199h-99v328h99c122.667 0 210 27.667 262 83c52.667 55.333 79 148 79 278v539h328v-539zM522.001 1078l-198 -200l-198 198l198 200zM956.001 1081l-196 -198l-203 196
l200 200zM716.001 1339l-174 -174l-172 172l174 174z" />
    <glyph glyph-name="uni06A4.init" unicode="&#x6a4;" horiz-adv-x="1105" arabic-form="initial" 
d="M734 659l-2.00098 23c-2 16.667 -4 31.667 -6 45c-5.33301 35.333 -13 65 -23 89c-25.333 63.333 -70.333 98 -135 104l-10 1h-9c-43.333 0 -77.666 -13 -102.999 -39c-22.667 -24 -34 -54.333 -34 -91v-9c2.66699 -64.667 35.334 -106.667 98.001 -126
c39.333 -12 114.666 -18 225.999 -18zM962.999 993c61.333 -118 92.002 -271 92.002 -459c0 -202 -77.333 -350.333 -232 -445c-114 -69.333 -254.333 -104 -421 -104h-420v328h420c111.333 0 193.666 7.33301 246.999 22c-152.667 0 -277.334 32.667 -374.001 98
c-114.667 78 -172 192.667 -172 344c0 44.667 6.33301 90 19 136c15.333 56 39 105.667 71 149c82 113.333 206.667 170 374 170c182 0 314 -79.667 396 -239zM489.001 1526l-198 -200l-198 198l198 200zM923.001 1529l-196 -198l-203 196l200 200zM683.001 1787l-174 -174
l-172 172l174 174z" />
    <glyph glyph-name="uni06A4.medi" unicode="&#x6a4;" horiz-adv-x="1101" arabic-form="medial" 
d="M693 422c20 26 30 58.333 30 97c0 46.667 -13.333 86.334 -40 119.001c-31.333 38.667 -75.333 58 -132 58s-100.667 -19.333 -132 -58c-26.667 -32.667 -40 -72.334 -40 -119.001c0 -38.667 10.333 -71 31 -97c27.333 -36 74.333 -63 141 -81c66.667 18 114 45 142 81z
M908 875c90.667 -96 136.001 -214.667 136.001 -356c0 -76 -14 -144.667 -42 -206h119v-328h-145c-162.667 0 -304.334 18.333 -425.001 55c-114 -36.667 -256 -55 -426 -55h-145v328h119c-28 61.333 -42 130 -42 206c0 141.333 45.333 260 136 356
c94 99.333 213.333 149 358 149s263.667 -49.667 357 -149zM536.001 1332l-198 -200l-198 198l198 200zM970.001 1335l-196 -198l-203 196l200 200zM730.001 1593l-174 -174l-172 172l174 174z" />
    <glyph glyph-name="uni06A4.fina" unicode="&#x6a4;" horiz-adv-x="2105" arabic-form="final" 
d="M1915 875c90.667 -96 136.001 -214.67 136.001 -356.003c0 -76 -14 -144.667 -42 -206h119v-328h-145c-162.667 0 -304.334 18.333 -425.001 55c-114 -36.667 -256 -55 -426 -55h-393c-188 0 -308.333 4.66699 -361 14c-102.667 17.333 -181 67 -235 149
c-34 51.333 -55.333 110 -64 176c-2.66699 24 -4 49 -4 75c0 28.667 1.66699 58.334 5 89.001c4.66699 41.333 17 100.333 37 177c6 24.667 12.667 49.667 20 75c2.66699 8.66699 5 16.667 7 24c1.33301 6 2.33301 9.66699 3 11l315 -89
c-34 -121.333 -56.667 -220.666 -68 -297.999c-0.666992 -5.33301 -1 -10.666 -1 -15.999c0 -12.667 2.33301 -23.667 7 -33c8 -17.333 22.333 -26 43 -26h663c-28 61.333 -42 130 -42 206c0 141.333 45.333 260 136 356c94 99.333 213.333 149 358 149
s263.667 -49.667 357 -149zM1700 421.997c20 26 30 58.333 30 97c0 46.667 -13.333 86.334 -40 119.001c-31.333 38.667 -75.333 58 -132 58s-100.667 -19.333 -132 -58c-26.667 -32.667 -40 -72.334 -40 -119.001c0 -38.667 10.333 -71 31 -97
c27.333 -36 74.333 -63 141 -81c66.667 18 114 45 142 81zM1518 1336l-198 -200l-198 198l198 200zM1952 1339l-196 -198l-203 196l200 200zM1712 1597l-174 -174l-172 172l174 174z" />
    <glyph glyph-name="uni06A8.fina" unicode="&#x6a8;" horiz-adv-x="1644" 
d="M1444 781c80.667 -98 121.003 -219.998 121.003 -365.998v-102h105v-328h-110c-10 -139.333 -52.333 -254 -127 -344c-54.667 -62.667 -125.667 -110.334 -213 -143.001c-83.333 -30.667 -181.333 -46 -294 -46h-195c-114.667 0 -217.667 21 -309 63
c-104 47.333 -185.667 117 -245 209c-64 101.333 -96 220 -96 356c0 15.333 0.333008 31 1 47c8 155.333 55.667 327.666 143 516.999l298 -137c-70 -150.667 -108 -283 -114 -397c-0.666992 -9.33301 -1 -18.666 -1 -27.999c0 -74.667 15 -135 45 -181
c29.333 -46.667 74.666 -80 135.999 -100c23.333 -8 48.666 -13.667 75.999 -17c21.333 -2.66699 43.333 -4 66 -4h195c108 0 185.333 17.333 232 52c42 30.667 66.667 81.667 74 153h-140c-119.333 0 -220.333 32 -303 96c-100.667 77.333 -151 188.666 -151 333.999
c0 138 33.333 255 100 351c81.333 117.333 199.333 176 354 176c147.333 0 264.666 -53.667 351.999 -161zM1237 312.002l0.000976562 103c0 61.333 -13 110 -39 146c-26 35.333 -61.333 53 -106 53c-45.333 0 -81.333 -17.667 -108 -53c-24.667 -32.667 -37 -75 -37 -127
c0 -6 0.333008 -12.333 1 -19c2 -35.333 17.667 -62 47 -80c25.333 -15.333 57.666 -23 96.999 -23h145zM1085 1300l-198 -200l-198 198l198 200zM1519 1303l-196 -198l-203 196l200 200zM1279 1561l-174 -174l-172 172l174 174z" />
    <glyph glyph-name="uni06A9" unicode="&#x6a9;" horiz-adv-x="2008" arabic-form="isolated" 
d="M2008 1313l-655.002 -299.001l241 -248c88.667 -94.667 151 -183.667 187 -267c24.667 -57.333 37 -112.333 37 -165v-8c-0.666992 -42.667 -9 -82.334 -25 -119.001c-14.667 -34.667 -35.667 -65.667 -63 -93c-35.333 -36.667 -80 -65.334 -134 -86.001
c-74 -29.333 -165 -44 -273 -44h-552c-209.333 0 -340.333 4.66699 -393 14c-102.667 17.333 -181 67 -235 149c-34 51.333 -55.333 110 -64 176c-2.66699 24 -4 49 -4 75c0 28.667 1.66699 58.334 5 89.001c4.66699 41.333 17 100.333 37 177c6 24.667 12.667 49.667 20 75
c2.66699 8.66699 5 16.667 7 24c1.33301 6 2.33301 9.66699 3 11l315 -89c-34 -121.333 -56.667 -220.666 -68 -297.999c-0.666992 -5.33301 -1 -10.666 -1 -15.999c0 -12.667 2.33301 -23.667 7 -33c8 -17.333 22.333 -26 43 -26h880c104.667 0 166.334 5.66699 185.001 17
c-1.33301 6 -4.66602 14.667 -9.99902 26c-6.66699 12.667 -15.667 27.334 -27 44.001c-28.667 43.333 -67.334 90.666 -116.001 141.999c-116 123.333 -216.667 226.333 -302 309l-42 39c-10 10 -19.667 19 -29 27c-3.33301 3.33301 -6.66602 6.33301 -9.99902 9l-7 7l-3 2
l-1 2l-2 1l38 275l875 399z" />
    <glyph glyph-name="uni06AA.init" unicode="&#x6aa;" horiz-adv-x="1704" 
d="M1107 1087l-9.00488 -3c-6.66699 -2 -14.667 -4.66699 -24 -8l-84 -33c-91.333 -37.333 -174.666 -77.333 -249.999 -120c-79.333 -44 -142.666 -86.667 -189.999 -128h527c158.667 0 296.334 -58.333 413.001 -175c109.333 -108 164 -224.667 164 -350
c0 -82 -26.333 -149.333 -79 -202c-23.333 -23.333 -50.333 -41.666 -81 -54.999c-40 -18 -85 -27 -135 -27h-126l-1185 -2h-73v329h1338c-10 22.667 -25.667 45 -47 67c-8.66699 10 -18.334 19.333 -29.001 28c-13.333 10.667 -27 20 -41 28c-38 20.667 -77.667 31 -119 31
h-355c-89.333 0 -173 0.333008 -251 1h-199l-163 164c0 124.667 56.667 244.334 170 359.001c74 75.333 175.667 149 305 221c86.667 48 181.334 93 284.001 135c32.667 13.333 64.334 25.666 95.001 36.999c10 3.33301 19.333 6.66602 28 9.99902
c2.66699 0.666992 5.33398 1.66699 8.00098 3l3 1h1z" />
    <glyph glyph-name="uni06AA.medi" unicode="&#x6aa;" horiz-adv-x="1959" 
d="M1984 313l-0.00390625 -327.997h-58c-111.333 0 -213.333 25 -306 75l-19 11c-1.33301 -1.33301 -2.33301 -2 -3 -2c-23.333 -23.333 -50.333 -42 -81 -56c-40 -18 -85 -27 -135 -27h-126l-837 -1h-444v328h1280l81 1c-11.333 24 -27 46.333 -47 67
c-9.33301 9.33301 -19 18.333 -29 27c-13.333 10.667 -27 20.334 -41 29.001c-38 20.667 -77.667 31 -119 31c-226.667 0 -428.667 0.333008 -606 1h-199l-163 164c0 125.333 56.667 244.666 170 357.999c74 75.333 175.667 149 305 221
c86.667 48 181.334 93.333 284.001 136c32.667 13.333 64.334 25.666 95.001 36.999c10 3.33301 19.333 6.66602 28 9.99902c2.66699 0.666992 5.33398 1.66699 8.00098 3l3 1h1l104 -311l-9 -3c-6.66699 -2 -14.667 -4.66699 -24 -8l-84 -33
c-91.333 -37.333 -174.666 -77.333 -249.999 -120c-78.667 -44.667 -142 -87.334 -190 -128.001c86 -0.666992 261.667 -1 527 -1c158 0 295.667 -58 413 -174c27.333 -27.333 50.666 -55 69.999 -83l4 3c72.667 -101.333 133.334 -166.333 182.001 -195
c36 -22 88.333 -33 157 -33h58z" />
    <glyph glyph-name="uni06AA.fina" unicode="&#x6aa;" horiz-adv-x="2533" 
d="M2558 313l-0.00195312 -327.998h-58c-111.333 0 -213.333 25 -306 75l-19 11c-1.33301 -1.33301 -2.33301 -2 -3 -2c-23.333 -23.333 -50.333 -42 -81 -56c-40 -18 -85 -27 -135 -27h-126l-837 -1h-156c-258 0 -426.667 10.667 -506 32
c-88 22.667 -154.333 64.667 -199 126c-41.333 57.333 -62 131 -62 221c0 53.333 11.667 127.333 35 222c8 32.667 17 66 27 100c3.33301 12.667 7 24.667 11 36c2.66699 9.33301 5 17 7 23l312 -98c-16.667 -52 -31.334 -105.333 -44.001 -160
c-13.333 -58.667 -20 -99.667 -20 -123c0 -4.66699 0.333008 -10 1 -16v-10c4 -1.33301 9 -2.66602 15 -3.99902c6.66699 -2 14.667 -3.66699 24 -5c23.333 -4.66699 51.666 -8 84.999 -10c54.667 -4 148 -6 280 -6h189l837 1h81c-11.333 24 -27 46.333 -47 67
c-9.33301 9.33301 -19 18.333 -29 27c-13.333 10.667 -27 20.334 -41 29.001c-38 20.667 -77.667 31 -119 31h-355c-89.333 0 -173 0.333008 -251 1h-199l-163 164c0 125.333 56.667 244.666 170 357.999c74 75.333 175.667 149 305 221
c86.667 48 181.334 93.333 284.001 136c32.667 13.333 64.334 25.666 95.001 36.999c10 3.33301 19.333 6.66602 28 9.99902c2.66699 0.666992 5.33398 1.66699 8.00098 3l3 1h1l104 -311l-9 -3c-6.66699 -2 -14.667 -4.66699 -24 -8l-84 -33
c-91.333 -37.333 -174.666 -77.333 -249.999 -120c-78.667 -44.667 -142 -87.334 -190 -128.001c86 -0.666992 261.667 -1 527 -1c158 0 295.667 -58 413 -174c27.333 -27.333 50.666 -55 70 -83l4 3c72.667 -101.333 133.334 -166.333 182 -195c36 -22 88.333 -33 157 -33
h58z" />
    <glyph glyph-name="uni06AF" unicode="&#x6af;" horiz-adv-x="2008" arabic-form="isolated" 
d="M2008 1313l-655.002 -299.001l241 -248c88.667 -94.667 151 -183.667 187 -267c24.667 -57.333 37 -112.333 37 -165v-8c-0.666992 -42.667 -9 -82.334 -25 -119.001c-14.667 -34.667 -35.667 -65.667 -63 -93c-35.333 -36.667 -80 -65.334 -134 -86.001
c-74 -29.333 -165 -44 -273 -44h-552c-209.333 0 -340.333 4.66699 -393 14c-102.667 17.333 -181 67 -235 149c-34 51.333 -55.333 110 -64 176c-2.66699 24 -4 49 -4 75c0 28.667 1.66699 58.334 5 89.001c4.66699 41.333 17 100.333 37 177c6 24.667 12.667 49.667 20 75
c2.66699 8.66699 5 16.667 7 24c1.33301 6 2.33301 9.66699 3 11l315 -89c-34 -121.333 -56.667 -220.666 -68 -297.999c-0.666992 -5.33301 -1 -10.666 -1 -15.999c0 -12.667 2.33301 -23.667 7 -33c8 -17.333 22.333 -26 43 -26h880c104.667 0 166.334 5.66699 185.001 17
c-1.33301 6 -4.66602 14.667 -9.99902 26c-6.66699 12.667 -15.667 27.334 -27 44.001c-28.667 43.333 -67.334 90.666 -116.001 141.999c-116 123.333 -216.667 226.333 -302 309l-42 39c-10 10 -19.667 19 -29 27c-3.33301 3.33301 -6.66602 6.33301 -9.99902 9l-7 7l-3 2
l-1 2l-2 1l38 275l875 399zM1008.09 1484.17l764.15 333.461l54.1357 -114.562l-831.82 -364.148z" />
    <glyph glyph-name="uni06B5.init" unicode="&#x6b5;" horiz-adv-x="578" 
d="M528 433c0 -65.333 -10.6699 -124.668 -32.0029 -178.001c-23.333 -57.333 -57 -106.666 -101 -147.999c-87.333 -81.333 -200.666 -122 -339.999 -122h-80v328h80c62.667 0 105.334 15.667 128.001 47c8 10.667 13.333 23.667 16 39
c0.666992 6 1.33398 12.333 2.00098 19v1009h327v-994zM646.997 2022l-231 -413h-131l-234 413h171l126 -253l130 253h169z" />
    <glyph glyph-name="uni06B5.medi" unicode="&#x6b5;" horiz-adv-x="634" 
d="M528 433c0 -80 43.6631 -120 130.996 -120v-328c-61.333 0 -119.666 10 -174.999 30c-46 16.667 -86 38.667 -120 66c-83.333 -64 -186.666 -96 -309.999 -96h-79v328h79c62.667 0 105.334 15.667 128.001 47c8 10.667 13.333 23.667 16 39
c0.666992 6 1.33398 12.333 2.00098 19v1009h328v-994zM660.996 2013l-231 -413h-131l-234 413h171l126 -253l130 253h169z" />
    <glyph glyph-name="uni06B5.fina" unicode="&#x6b5;" horiz-adv-x="1438" 
d="M1463 313l0.00292969 -328.002h-25c-42 0 -80.667 4.66699 -116 14c-0.666992 -54 -5.33398 -102.667 -14.001 -146c-14.667 -80 -42.667 -148.667 -84 -206c-50 -68.667 -117.667 -119.667 -203 -153c-78 -31.333 -175 -47 -291 -47h-63
c-105.333 0 -199.333 19.667 -282 59c-92 42.667 -164.667 106 -218 190c-57.333 92 -86 198 -86 318c0 16 0.666992 32.333 2 49c8 138.667 51 289 129 451l296 -141c-52 -109.333 -83.333 -207.666 -94 -294.999c-2.66699 -22.667 -4 -44.334 -4 -65.001
c0 -57.333 11.667 -104.666 35 -141.999s59.333 -64 108 -80c19.333 -6 39.666 -10.667 60.999 -14c17.333 -2 35 -3 53 -3h63c51.333 0 95 4 131 12c47.333 10.667 79.666 28.334 96.999 53.001c24.667 33.333 37 100 37 200v1390h328v-996c0 -38 10.333 -67.333 31 -88
c20 -21.333 48 -32 84 -32h25zM1407 2013l-231 -413h-131l-234 413h171l126 -253l130 253h169z" />
    <glyph glyph-name="uni06BA" unicode="&#x6ba;" horiz-adv-x="1571" arabic-form="isolated" 
d="M1521 53c0 -176 -43.332 -314.334 -129.999 -415.001c-54.667 -62.667 -125.667 -110.334 -213 -143.001c-83.333 -30.667 -181.666 -46 -294.999 -46h-151c-114.667 0 -218 21 -310 63c-104.667 48 -186.334 117.667 -245.001 209c-63.333 101.333 -95 219 -95 353
c0 16.667 0.333008 33.334 1 50.001c8 155.333 55.667 327.666 143 516.999l298 -137c-70 -150.667 -108 -283 -114 -397c-0.666992 -11.333 -1 -22.666 -1 -33.999c0 -71.333 15 -129.666 45 -174.999c29.333 -46.667 74.666 -80 135.999 -100
c23.333 -8 48.666 -13.667 75.999 -17c21.333 -2.66699 43.333 -4 66 -4h151c124.667 0 209.334 23 254.001 69c38 39.333 57 108.333 57 207v623h327v-623z" />
    <glyph glyph-name="uni06BE" unicode="&#x6be;" horiz-adv-x="1947" arabic-form="isolated" 
d="M1012 480c0 53.333 -19.333 95.333 -58 126c-30 24 -62 36 -96 36c-15.333 0 -32 -2.66699 -50 -8c-20.667 -6 -39.334 -14.667 -56.001 -26c-44 -30.667 -66 -73.334 -66 -128.001c0 -36 17.667 -70.333 53 -103c34.667 -31.333 74.334 -50.666 119.001 -57.999
c102.667 35.333 154 89 154 161zM1739 714c91.333 -124 140.332 -251.669 146.999 -383.002c0.666992 -10.667 1 -21.667 1 -33c0 -118.667 -37.333 -221.334 -112 -308.001c-88.667 -103.333 -221.667 -155 -399 -155c-97.333 0 -217 26.333 -359 79
c-45.333 16.667 -92.333 36 -141 58c-8 4 -16.667 8 -26 12l-21 9l-25 12c-81.333 -21.333 -172 -32 -272 -32h-33c-149.333 2.66699 -292.333 29.334 -429 80.001l89 314c119.333 -32 202 -50 248 -54c-28.667 71.333 -43 127 -43 167
c0 120.667 37.667 226.334 113 317.001c91.333 108.667 218.333 163 381 163c142 0 258.667 -51.667 350 -155c83.333 -94 125 -202.333 125 -325c0 -72 -18.667 -142.667 -56 -212c-19.333 -34.667 -38.333 -62 -57 -82c53.333 -22 116 -33 188 -33
c38.667 0 71.334 9.66699 98.001 29c26.667 18.667 44.667 44.334 54 77.001c5.33301 17.333 8 35.333 8 54c0 59.333 -26.333 124 -79 194l-330 445l255 205z" />
    <glyph glyph-name="uni06C0" unicode="&#x6c0;" horiz-adv-x="1041" arabic-form="isolated" 
d="M623 308c36 25.333 54.001 63 54.001 113c0 30 -26 72.333 -78 127c-26 26.667 -52 50.667 -78 72c-94.667 -78 -142 -146 -142 -204c0 -49.333 18.667 -86.333 56 -111c14 -9.33301 30.333 -16.333 49 -21c15.333 -4 30.333 -6 45 -6c35.333 0 66.666 10 93.999 30z
M479.001 1135c1.33301 -0.666992 3 -1.99902 5 -3.99902l15 -17l62 -66l235 -255c26.667 -30 48.667 -56 66 -78c24.667 -30.667 45.667 -60.334 63 -89.001c44 -74.667 66 -149.334 66 -224.001c0 -75.333 -15 -142.666 -45 -201.999c-23.333 -44.667 -54.333 -83 -93 -115
c-82 -66.667 -190 -100 -324 -100s-241.667 33.667 -323 101c-38 31.333 -68.333 69 -91 113c-30 58 -45 124.333 -45 199c0 131.333 54 257 162 377l66 75l-59 63l239 224zM674.001 1838l-36.001 -137.997c-24 5.33301 -43.667 8 -59 8c-32 0 -57.667 -8.33301 -77 -25
c-18.667 -15.333 -31 -37 -37 -65c61.333 -10 103.666 -18 126.999 -24c23.333 -5.33301 41 -12.333 53 -21c24.667 -16.667 37 -40 37 -70v-11c0 -4.66699 -0.333008 -9.33398 -1 -14.001c-0.666992 -11.333 -2 -22.333 -4 -33c-5.33301 -30 -16 -56.667 -32 -80
c-43.333 -60.667 -115.666 -91 -216.999 -91h-109v143h109c8.66699 0 17 0.333008 25 1c10.667 0.666992 20.334 2 29.001 4c22 5.33301 37 13.666 45 24.999c2.66699 4 4.66699 8.33301 6 13c-14.667 3.33301 -36.667 7.33301 -66 12c-10.667 2 -24.667 4.33301 -42 7
l-23 4l-24 4l-55 9l-5 56c-0.666992 11.333 -1 22.333 -1 33c0 87.333 31 156.666 93 207.999c33.333 28 72.333 46 117 54c15.333 2.66699 32.333 4 51 4c32 0 64 -4.33301 96 -13z" />
    <glyph glyph-name="uni06C1" unicode="&#x6c1;" horiz-adv-x="1041" arabic-form="isolated" 
d="M623 308c36 25.333 54.001 63 54.001 113c0 30 -26 72.333 -78 127c-26 26.667 -52 50.667 -78 72c-94.667 -78 -142 -146 -142 -204c0 -49.333 18.667 -86.333 56 -111c14 -9.33301 30.333 -16.333 49 -21c15.333 -4 30.333 -6 45 -6c35.333 0 66.666 10 93.999 30z
M479.001 1135c1.33301 -0.666992 3 -1.99902 5 -3.99902l15 -17l62 -66l235 -255c26.667 -30 48.667 -56 66 -78c24.667 -30.667 45.667 -60.334 63 -89.001c44 -74.667 66 -149.334 66 -224.001c0 -75.333 -15 -142.666 -45 -201.999c-23.333 -44.667 -54.333 -83 -93 -115
c-82 -66.667 -190 -100 -324 -100s-241.667 33.667 -323 101c-38 31.333 -68.333 69 -91 113c-30 58 -45 124.333 -45 199c0 131.333 54 257 162 377l66 75l-59 63l239 224z" />
    <glyph glyph-name="uni06C2.fina" unicode="&#x6c2;" horiz-adv-x="1322" 
d="M919 986l81.999 -330.998l35 -131c18.667 -72 54.334 -126.667 107.001 -164c44 -31.333 93.667 -47 149 -47h58v-328h-58c-126.667 0 -241.334 37.333 -344.001 112c-114.667 82 -191 197 -229 345l-34 129c-11.333 41.333 -27.333 103.666 -48 186.999
c-28.667 -5.33301 -48.667 -10 -60 -14c-75.333 -20.667 -120.666 -68.667 -135.999 -144c-3.33301 -16.667 -5 -34 -5 -52c0 -12 0.666992 -24 2 -36c0.666992 -12 2 -24 4 -36l6 -27l34 -134c8.66699 -34 17.334 -66 26.001 -96c2.66699 -11.333 5.66699 -22.333 9 -33
c2 -8.66699 4.33301 -16.667 7 -24l5 -20l-315 -92l-3 9l-1 4c-0.666992 2.66699 -1.33398 5.66699 -2.00098 9c-2 8 -4.33301 16.333 -7 25c-3.33301 11.333 -6.33301 23 -9 35l-62 238c-15.333 61.333 -23 120.333 -23 177c0 90 19.333 174 58 252
c66 133.333 174.333 220.333 325 261c26 7.33301 70 17 132 29c22 4 44.333 8.33301 67 13c18 3.33301 32 5.66602 42 6.99902zM130.999 1126l-0.00585938 149.002l124 40c-20 20.667 -36.5 44 -49.5 70s-19.5 53.667 -19.5 83c0 22.667 4 45 12 67s19 42.333 33 61
s30.5 35 49.5 49s39.167 24 60.5 30c11.333 3.33301 22.833 5.83301 34.5 7.5s23.167 2.5 34.5 2.5c24 0 45.167 -2.83301 63.5 -8.5s35.5 -11.5 51.5 -17.5l17 -8l-30 -124c-9.33301 2 -19.666 4.66699 -30.999 8s-22.666 6 -33.999 8s-22.5 3.16699 -33.5 3.5
s-20.833 -0.833984 -29.5 -3.50098c-9.33301 -3.33301 -18.5 -8 -27.5 -14s-16.5 -12.833 -22.5 -20.5s-10 -16.5 -12 -26.5c-1.33301 -4 -2 -8 -2 -12c0 -6.66699 1.33301 -13.334 4 -20.001c5.33301 -17.333 17.833 -32 37.5 -44s47.167 -18 82.5 -18
c6.66699 0 13.834 0.333008 21.501 1s17.834 2.5 30.501 5.5s28.834 7.33301 48.501 13s44.834 13.5 75.501 23.5l8 -141z" />
    <glyph glyph-name="uni06C3.fina" unicode="&#x6c3;" horiz-adv-x="1322" 
d="M919 986l81.999 -330.998l35 -131c18.667 -72 54.334 -126.667 107.001 -164c44 -31.333 93.667 -47 149 -47h58v-328h-58c-126.667 0 -241.334 37.333 -344.001 112c-114.667 82 -191 197 -229 345l-34 129c-11.333 41.333 -27.333 103.666 -48 186.999
c-28.667 -5.33301 -48.667 -10 -60 -14c-75.333 -20.667 -120.666 -68.667 -135.999 -144c-3.33301 -16.667 -5 -34 -5 -52c0 -12 0.666992 -24 2 -36c0.666992 -12 2 -24 4 -36l6 -27l34 -134c8.66699 -34 17.334 -66 26.001 -96c2.66699 -11.333 5.66699 -22.333 9 -33
c2 -8.66699 4.33301 -16.667 7 -24l5 -20l-315 -92l-3 9l-1 4c-0.666992 2.66699 -1.33398 5.66699 -2.00098 9c-2 8 -4.33301 16.333 -7 25c-3.33301 11.333 -6.33301 23 -9 35l-62 238c-15.333 61.333 -23 120.333 -23 177c0 90 19.333 174 58 252
c66 133.333 174.333 220.333 325 261c26 7.33301 70 17 132 29c22 4 44.333 8.33301 67 13c18 3.33301 32 5.66602 42 6.99902zM747.999 1191l-196 198l194 200l200 -200zM328.999 1190l-196 198l193 200l200 -200z" />
    <glyph glyph-name="uni06C6.fina" unicode="&#x6c6;" horiz-adv-x="1080" arabic-form="final" 
d="M678 312v103c0 61.333 -13 110 -39 146c-26 35.333 -61.333 53 -106 53c-45.333 0 -81.333 -17.667 -108 -53c-24.667 -32.667 -37 -75 -37 -127c0 -6 0.333008 -12.333 1 -19c2 -35.333 18 -62 48 -80c25.333 -15.333 57.333 -23 96 -23h145zM885 781
c80.667 -98 121 -220 121 -366v-103h99v-327h-102c-16.667 -207.333 -118 -355.666 -304 -444.999c-72.667 -34.667 -157.667 -59.667 -255 -75c-76.667 -12.667 -159.667 -19 -249 -19v328c166.667 0 292 23.333 376 70c68 37.333 102 84.333 102 141h-140
c-118.667 0 -219.667 32 -303 96c-100 77.333 -150 188.666 -150 333.999c0 138 33.333 255 100 351c80.667 117.333 198.334 176 353.001 176c147.333 0 264.666 -53.667 351.999 -161zM831 1473l-231 -413h-131l-234 413h171l126 -253l130 253h169z" />
    <glyph glyph-name="uni06CC" unicode="&#x6cc;" horiz-adv-x="1642" arabic-form="isolated" 
d="M1581 913l-83.001 -317.002c-49.333 12.667 -96.333 20.334 -141 23.001c-4.66699 0.666992 -11.334 1 -20.001 1c-84.667 0 -156 -26.333 -214 -79c-58.667 -54 -88 -121 -88 -201c142.667 -40 249.667 -71 321 -93c51.333 -16 88.666 -31.333 111.999 -46
c40 -24.667 68.667 -55.334 86 -92.001c6.66699 -14 11.334 -28.667 14.001 -44c2.66699 -11.333 4 -23.333 4 -36c0.666992 -12 1 -24 1 -36c0 -364 -197.333 -546 -592 -546h-298c-166 0 -306 52.333 -420 157c-128.667 118 -193 279.333 -193 484
c0 186 52.333 385.333 157 598l294 -144c-82 -168.667 -123 -306.334 -123 -413.001c0 -44.667 2.33301 -82.667 7 -114c6.66699 -45.333 18.334 -83.666 35.001 -114.999c44.667 -83.333 125.667 -125 243 -125h298c52.667 0 97.667 4.33301 135 13
c48.667 11.333 81.334 30 98.001 56c16 24.667 25.333 58 28 100c-8 2.66699 -168.667 45.334 -482 128.001c-35.333 66.667 -53 154 -53 262c0 142.667 47.667 272.334 143 389.001c121.333 149.333 293 224 515 224c77.333 0 149.333 -11.333 216 -34z" />
    <glyph glyph-name="uni06CE.init" unicode="&#x6ce;" horiz-adv-x="927" 
d="M843 493c5.33301 -32 8.00098 -62.665 8.00098 -91.998c0 -90.667 -26 -172 -78 -244c-83.333 -114.667 -219 -172 -407 -172h-391v328h384c60 0 102.333 8 127 24c25.333 15.333 38 39.666 38 72.999c0 10 -1.33301 21 -4 33l-20 104
c-2.66699 13.333 -5.33398 27.666 -8.00098 42.999l-4 19l-3 19c-10 54.667 -17.667 93.667 -23 117l313 95c20 -94 42.667 -209.667 68 -347zM612.001 -539.998l-196 198l194 200l200 -200zM190.001 -540.998l-196 198l193 200l200 -200zM668.001 1437l-231 -413h-131
l-234 413h171l126 -253l130 253h169z" />
    <glyph glyph-name="uni06CE.medi" unicode="&#x6ce;" horiz-adv-x="1024" 
d="M788 404c0 -32 7.66797 -54.666 23.001 -67.999c17.333 -15.333 48 -23 92 -23h146v-328h-146c-43.333 0 -84.333 4.66699 -123 14c-30.667 7.33301 -59.334 17.666 -86.001 30.999c-30.667 14.667 -53.667 29.334 -69 44.001c-15.333 -14.667 -40 -29.334 -74 -44.001
c-67.333 -30 -147.333 -45 -240 -45h-336v328h359c48 0 81.667 8 101 24c17.333 14 26 36.333 26 67v272h327v-272zM681.001 -531.999l-196 198l194 200l200 -200zM259.001 -532.999l-196 198l193 200l200 -200zM941.001 1269l-231 -413h-131l-234 413h171l126 -253l130 253
h169z" />
    <glyph glyph-name="uni06CE.fina" unicode="&#x6ce;" horiz-adv-x="1811" 
d="M515 539c-77.333 -162.667 -115.998 -305.668 -115.998 -429.001c0 -12 0.333008 -24.667 1 -38c1.33301 -16.667 3.66602 -33 6.99902 -49c7.33301 -42 20 -79.333 38 -112c51.333 -92 137.333 -138 258 -138h276c138 0 235 18.333 291 55c28 18.667 42.333 37 43 55
c-94.667 55.333 -225 98.666 -391 129.999v300h914v-328h-241c14.667 -23.333 22 -56.333 22 -99c0 -15.333 -0.666992 -30.666 -2 -45.999c-2.66699 -21.333 -6.66699 -42 -12 -62c-14.667 -55.333 -40 -104.333 -76 -147c-104.667 -123.333 -287.334 -185 -548.001 -185
h-276c-222 0 -389.333 77.667 -502 233c-87.333 120.667 -131 264.334 -131 431.001c0 122.667 25 254.667 75 396c25.333 70.667 50.333 129 75 175zM1241 821.999l-231 -413h-131l-234 413h171l126 -253l130 253h169z" />
    <glyph glyph-name="uni06D2" unicode="&#x6d2;" horiz-adv-x="1651" arabic-form="isolated" 
d="M909 -15h-383c-39.333 0 -71 -9 -95 -27c-24.667 -18.667 -37 -44 -37 -76c0 -34 12 -60.333 36 -79c22.667 -18 54.667 -27 96 -27h1125v-328h-1125c-131.333 0 -241 42.333 -329 127c-87.333 86 -131 188.333 -131 307c0 123.333 44.333 226.333 133 309
c88 81.333 197 122 327 122h383v-328z" />
    <glyph glyph-name="uni06D3" unicode="&#x6d3;" horiz-adv-x="1651" arabic-form="isolated" 
d="M909 -15h-383c-39.333 0 -71 -9 -95 -27c-24.667 -18.667 -37 -44 -37 -76c0 -34 12 -60.333 36 -79c22.667 -18 54.667 -27 96 -27h1125v-328h-1125c-131.333 0 -241 42.333 -329 127c-87.333 86 -131 188.333 -131 307c0 123.333 44.333 226.333 133 309
c88 81.333 197 122 327 122h383v-328zM164 302l-0.00585938 149.002l124 40c-20 20.667 -36.5 44 -49.5 70s-19.5 53.667 -19.5 83c0 22.667 4 45 12 67s19 42.333 33 61s30.5 35 49.5 49s39.167 24 60.5 30c11.333 3.33301 22.833 5.83301 34.5 7.5s23.167 2.5 34.5 2.5
c24 0 45.167 -2.83301 63.5 -8.5s35.5 -11.5 51.5 -17.5l17 -8l-30 -124c-9.33301 2 -19.666 4.66699 -30.999 8s-22.666 6 -33.999 8s-22.5 3.16699 -33.5 3.5s-20.833 -0.833984 -29.5 -3.50098c-9.33301 -3.33301 -18.5 -8 -27.5 -14s-16.5 -12.833 -22.5 -20.5
s-10 -16.5 -12 -26.5c-1.33301 -4 -2 -8 -2 -12c0 -6.66699 1.33301 -13.334 4 -20.001c5.33301 -17.333 17.833 -32 37.5 -44s47.167 -18 82.5 -18c6.66699 0 13.834 0.333008 21.501 1s17.834 2.5 30.501 5.5s28.834 7.33301 48.501 13s44.834 13.5 75.501 23.5l8 -141z
" />
    <glyph glyph-name="uni0671.fina" unicode="&#x671;" horiz-adv-x="606" arabic-form="final" 
d="M624 -15l-90.001 0.000976562c-74 0 -140.333 13 -199 39c-44.667 19.333 -83.667 45.666 -117 78.999s-59.666 72.333 -78.999 117c-26 58.667 -39 125 -39 199v861h327v-861c0 -40.667 7.66699 -68.667 23 -84c14.667 -14.667 42.667 -22 84 -22h90v-328zM-29.001 1421
l23.999 108.999h132l44 68l83 122c23.333 34.667 52 62.167 86 82.5s71 30.5 111 30.5c22.667 0 45.334 -4.33301 68.001 -13s43 -22 61 -40s32.5 -40.667 43.5 -68s16.5 -59.666 16.5 -96.999c0 -36 -6 -66.333 -18 -91s-27.333 -44.667 -46 -60s-39.5 -26.333 -62.5 -33
s-45.5 -10 -67.5 -10h-475zM450.998 1724c-18 0 -35.835 -6 -53.502 -18s-34.667 -27.333 -51 -46s-32.166 -39.5 -47.499 -62.5s-29.666 -45.5 -42.999 -67.5h190c24 0 44 6.66699 60 20s24 35 24 65c0 35.333 -6.83301 62.333 -20.5 81s-33.167 28 -58.5 28z" />
    <glyph glyph-name="uni067E.fina" unicode="&#x67e;" horiz-adv-x="2236" arabic-form="final" 
d="M462 675c-34 -121.333 -56.666 -220.668 -67.999 -298.001c-0.666992 -5.33301 -1 -10.666 -1 -15.999c0 -12.667 2.33301 -23.667 7 -33c8 -17.333 22.333 -26 43 -26h1181c48 0 72 22 72 66v309h328v-244c3.33301 -42.667 11.666 -72 24.999 -88
c17.333 -21.333 49.666 -32 97 -32h115v-328h-115c-120 0 -208 22.667 -264 68c-52 -34.667 -124.333 -57.334 -217 -68.001c-67.333 -7.33301 -187 -11 -359 -11h-567c-188 0 -308.333 4.66699 -361 14c-102.667 17.333 -181 67 -235 149c-34 51.333 -55.333 110 -64 176
c-2.66699 24 -4 49 -4 75c0 28.667 1.66699 58.334 5 89.001c4.66699 41.333 17 100.333 37 177c6 24.667 12.667 49.667 20 75c2.66699 8.66699 5 16.667 7 24c1.33301 6 2.33301 9.66699 3 11zM845.001 -567.002l-198 194l198 204l198 -204zM1276 -571.002l-200 198
l203 198l196 -198zM1065 -802.002l-174 174l172 172l174 -174z" />
    <glyph glyph-name="uni067E.init" unicode="&#x67e;" horiz-adv-x="927" arabic-form="initial" 
d="M843 493c5.33301 -32 8.00098 -62.665 8.00098 -91.998c0 -90.667 -26 -172 -78 -244c-83.333 -114.667 -219 -172 -407 -172h-391v328h384c60 0 102.333 8 127 24c25.333 15.333 38 39.666 38 72.999c0 10 -1.33301 21 -4 33l-20 104
c-2.66699 13.333 -5.33398 27.666 -8.00098 42.999l-4 19l-3 19c-10 54.667 -17.667 93.667 -23 117l313 95c20 -94 42.667 -209.667 68 -347zM210.001 -569.998l-198 194l198 204l198 -204zM641.001 -573.998l-200 198l203 198l196 -198zM430.001 -804.998l-174 174
l172 172l174 -174z" />
    <glyph glyph-name="uni067E.medi" unicode="&#x67e;" horiz-adv-x="1024" arabic-form="medial" 
d="M788 404c0 -32 7.66797 -54.666 23.001 -67.999c17.333 -15.333 48 -23 92 -23h146v-328h-146c-43.333 0 -84.333 4.66699 -123 14c-30.667 7.33301 -59.334 17.666 -86.001 30.999c-30.667 14.667 -53.667 29.334 -69 44.001c-15.333 -14.667 -40 -29.334 -74 -44.001
c-67.333 -30 -147.333 -45 -240 -45h-336v328h359c48 0 81.667 8 101 24c17.333 14 26 36.333 26 67v272h327v-272zM269.001 -564.999l-198 194l198 204l198 -204zM700.001 -568.999l-200 198l203 198l196 -198zM489.001 -799.999l-174 174l172 172l174 -174z" />
    <glyph glyph-name="uni0679.fina" unicode="&#x679;" horiz-adv-x="2236" arabic-form="final" 
d="M462 675c-34 -121.333 -56.666 -220.668 -67.999 -298.001c-0.666992 -5.33301 -1 -10.666 -1 -15.999c0 -12.667 2.33301 -23.667 7 -33c8 -17.333 22.333 -26 43 -26h1181c48 0 72 22 72 66v309h328v-244c3.33301 -42.667 11.666 -72 24.999 -88
c17.333 -21.333 49.666 -32 97 -32h115v-328h-115c-120 0 -208 22.667 -264 68c-52 -34.667 -124.333 -57.334 -217 -68.001c-67.333 -7.33301 -187 -11 -359 -11h-567c-188 0 -308.333 4.66699 -361 14c-102.667 17.333 -181 67 -235 149c-34 51.333 -55.333 110 -64 176
c-2.66699 24 -4 49 -4 75c0 28.667 1.66699 58.334 5 89.001c4.66699 41.333 17 100.333 37 177c6 24.667 12.667 49.667 20 75c2.66699 8.66699 5 16.667 7 24c1.33301 6 2.33301 9.66699 3 11zM808.001 667.998l-0.000976562 109h104c2 2.66699 3.83301 5.5 5.5 8.5
s4 6.83301 7 11.5s7 10.5 12 17.5l18.5 26.5v488h107v-343c24 25.333 50.5 46.333 79.5 63s60.833 25 95.5 25c22.667 0 45.334 -4 68.001 -12s43 -20.5 61 -37.5s32.5 -39 43.5 -66s16.5 -59.167 16.5 -96.5c0 -36 -6 -66.333 -18 -91s-27.333 -44.667 -46 -60
s-39.5 -26.333 -62.5 -33s-45.5 -10 -67.5 -10h-424zM1237 964.998c-17.333 0 -34.667 -5.5 -52 -16.5s-34.333 -25.5 -51 -43.5s-32.667 -38.167 -48 -60.5s-30 -44.833 -44 -67.5h190c24 0 44.667 6.66699 62 20s26 35 26 65c0 35.333 -7.5 61.333 -22.5 78
s-35.167 25 -60.5 25z" />
    <glyph glyph-name="uni0679.init" unicode="&#x679;" horiz-adv-x="927" arabic-form="initial" 
d="M843 493c5.33301 -32 8.00098 -62.665 8.00098 -91.998c0 -90.667 -26 -172 -78 -244c-83.333 -114.667 -219 -172 -407 -172h-391v328h384c60 0 102.333 8 127 24c25.333 15.333 38 39.666 38 72.999c0 10 -1.33301 21 -4 33l-20 104
c-2.66699 13.333 -5.33398 27.666 -8.00098 42.999l-4 19l-3 19c-10 54.667 -17.667 93.667 -23 117l313 95c20 -94 42.667 -209.667 68 -347zM169.001 978.002l-0.000976562 109h104c2 2.66699 3.83301 5.5 5.5 8.5s4 6.83301 7 11.5s7 10.5 12 17.5l18.5 26.5v488h107
v-343c24 25.333 50.5 46.333 79.5 63s60.833 25 95.5 25c22.667 0 45.334 -4 68.001 -12s43 -20.5 61 -37.5s32.5 -39 43.5 -66s16.5 -59.167 16.5 -96.5c0 -36 -6 -66.333 -18 -91s-27.333 -44.667 -46 -60s-39.5 -26.333 -62.5 -33s-45.5 -10 -67.5 -10h-424zM598 1275
c-17.333 0 -34.667 -5.5 -52 -16.5s-34.333 -25.5 -51 -43.5s-32.667 -38.167 -48 -60.5s-30 -44.833 -44 -67.5h190c24 0 44.667 6.66699 62 20s26 35 26 65c0 35.333 -7.5 61.333 -22.5 78s-35.167 25 -60.5 25z" />
    <glyph glyph-name="uni0679.medi" unicode="&#x679;" horiz-adv-x="1024" arabic-form="medial" 
d="M788 404c0 -32 7.66797 -54.666 23.001 -67.999c17.333 -15.333 48 -23 92 -23h146v-328h-146c-43.333 0 -84.333 4.66699 -123 14c-30.667 7.33301 -59.334 17.666 -86.001 30.999c-30.667 14.667 -53.667 29.334 -69 44.001c-15.333 -14.667 -40 -29.334 -74 -44.001
c-67.333 -30 -147.333 -45 -240 -45h-336v328h359c48 0 81.667 8 101 24c17.333 14 26 36.333 26 67v272h327v-272zM134.001 844.001l-0.000976562 109h104c2 2.66699 3.83301 5.5 5.5 8.5s4 6.83301 7 11.5s7 10.5 12 17.5l18.5 26.5v488h107v-343
c24 25.333 50.5 46.333 79.5 63s60.833 25 95.5 25c22.667 0 45.334 -4 68.001 -12s43 -20.5 61 -37.5s32.5 -39 43.5 -66s16.5 -59.167 16.5 -96.5c0 -36 -6 -66.333 -18 -91s-27.333 -44.667 -46 -60s-39.5 -26.333 -62.5 -33s-45.5 -10 -67.5 -10h-424zM563 1141
c-17.333 0 -34.667 -5.5 -52 -16.5s-34.333 -25.5 -51 -43.5s-32.667 -38.167 -48 -60.5s-30 -44.833 -44 -67.5h190c24 0 44.667 6.66699 62 20s26 35 26 65c0 35.333 -7.5 61.333 -22.5 78s-35.167 25 -60.5 25z" />
    <glyph glyph-name="veh.isol" unicode="&#x6a4;" horiz-adv-x="2097" arabic-form="isolated" 
d="M1955 992c61.333 -118 92.002 -271.003 92.002 -459.003c0 -202 -77.333 -350.333 -232 -445c-114 -69.333 -254.333 -104 -421 -104h-655c-188 0 -308.333 4.66699 -361 14c-102.667 17.333 -181 67 -235 149c-34 51.333 -55.333 110 -64 176c-2.66699 24 -4 49 -4 75
c0 28.667 1.66699 58.334 5 89.001c4.66699 41.333 17 100.333 37 177c6 24.667 12.667 49.667 20 75c2.66699 8.66699 5 16.667 7 24c1.33301 6 2.33301 9.66699 3 11l315 -89c-34 -121.333 -56.667 -220.666 -68 -297.999c-0.666992 -5.33301 -1 -10.666 -1 -15.999
c0 -12.667 2.33301 -23.667 7 -33c8 -17.333 22.333 -26 43 -26h951c111.333 0 193.666 7.33301 246.999 22c-152.667 0 -277.334 32.667 -374.001 98c-114.667 78 -172 192.667 -172 344c0 44.667 6.33301 90 19 136c15.333 56 39 105.667 71 149
c82 113.333 206.667 170 374 170c182 0 314 -79.667 396 -239zM1726 657.997l-2.00098 23c-2 16.667 -4 31.667 -6 45c-5.33301 35.333 -13 65 -23 89c-25.333 63.333 -70.333 98 -135 104c-4.66699 0.666992 -11 1 -19 1c-43.333 0 -77.666 -13 -102.999 -39
c-22.667 -24 -34 -54.333 -34 -91v-9c2.66699 -64.667 35.334 -106.667 98.001 -126c39.333 -12 114.666 -18 225.999 -18zM1502 1514l-198 -200l-198 198l198 200zM1936 1517l-196 -198l-203 196l200 200zM1696 1775l-174 -174l-172 172l174 174z" />
    <glyph glyph-name="veh.fina" unicode="&#x6a4;" horiz-adv-x="2105" arabic-form="final" 
d="M1915 875c90.667 -96 136.001 -214.67 136.001 -356.003c0 -76 -14 -144.667 -42 -206h119v-328h-145c-162.667 0 -304.334 18.333 -425.001 55c-114 -36.667 -256 -55 -426 -55h-393c-188 0 -308.333 4.66699 -361 14c-102.667 17.333 -181 67 -235 149
c-34 51.333 -55.333 110 -64 176c-2.66699 24 -4 49 -4 75c0 28.667 1.66699 58.334 5 89.001c4.66699 41.333 17 100.333 37 177c6 24.667 12.667 49.667 20 75c2.66699 8.66699 5 16.667 7 24c1.33301 6 2.33301 9.66699 3 11l315 -89
c-34 -121.333 -56.667 -220.666 -68 -297.999c-0.666992 -5.33301 -1 -10.666 -1 -15.999c0 -12.667 2.33301 -23.667 7 -33c8 -17.333 22.333 -26 43 -26h663c-28 61.333 -42 130 -42 206c0 141.333 45.333 260 136 356c94 99.333 213.333 149 358 149
s263.667 -49.667 357 -149zM1700 421.997c20 26 30 58.333 30 97c0 46.667 -13.333 86.334 -40 119.001c-31.333 38.667 -75.333 58 -132 58s-100.667 -19.333 -132 -58c-26.667 -32.667 -40 -72.334 -40 -119.001c0 -38.667 10.333 -71 31 -97
c27.333 -36 74.333 -63 141 -81c66.667 18 114 45 142 81zM1582 1338l-198 -200l-198 198l198 200zM2016 1341l-196 -198l-203 196l200 200zM1776 1599l-174 -174l-172 172l174 174z" />
    <glyph glyph-name="veh.init" unicode="&#x6a4;" horiz-adv-x="1105" arabic-form="initial" 
d="M734 659l-2.00098 23c-2 16.667 -4 31.667 -6 45c-5.33301 35.333 -13 65 -23 89c-25.333 63.333 -70.333 98 -135 104l-10 1h-9c-43.333 0 -77.666 -13 -102.999 -39c-22.667 -24 -34 -54.333 -34 -91v-9c2.66699 -64.667 35.334 -106.667 98.001 -126
c39.333 -12 114.666 -18 225.999 -18zM962.999 993c61.333 -118 92.002 -271 92.002 -459c0 -202 -77.333 -350.333 -232 -445c-114 -69.333 -254.333 -104 -421 -104h-420v328h420c111.333 0 193.666 7.33301 246.999 22c-152.667 0 -277.334 32.667 -374.001 98
c-114.667 78 -172 192.667 -172 344c0 44.667 6.33301 90 19 136c15.333 56 39 105.667 71 149c82 113.333 206.667 170 374 170c182 0 314 -79.667 396 -239zM477.001 1510l-198 -200l-198 198l198 200zM911.001 1513l-196 -198l-203 196l200 200zM671.001 1771l-174 -174
l-172 172l174 174z" />
    <glyph glyph-name="veh.medi" unicode="&#x6a4;" horiz-adv-x="1101" arabic-form="medial" 
d="M693 422c20 26 30 58.333 30 97c0 46.667 -13.333 86.334 -40 119.001c-31.333 38.667 -75.333 58 -132 58s-100.667 -19.333 -132 -58c-26.667 -32.667 -40 -72.334 -40 -119.001c0 -38.667 10.333 -71 31 -97c27.333 -36 74.333 -63 141 -81c66.667 18 114 45 142 81z
M908 875c90.667 -96 136.001 -214.667 136.001 -356c0 -76 -14 -144.667 -42 -206h119v-328h-145c-162.667 0 -304.334 18.333 -425.001 55c-114 -36.667 -256 -55 -426 -55h-145v328h119c-28 61.333 -42 130 -42 206c0 141.333 45.333 260 136 356
c94 99.333 213.333 149 358 149s263.667 -49.667 357 -149zM531.001 1314l-198 -200l-198 198l198 200zM965.001 1317l-196 -198l-203 196l200 200zM725.001 1575l-174 -174l-172 172l174 174z" />
    <glyph glyph-name="uni0686.fina" unicode="&#x686;" horiz-adv-x="1575" arabic-form="final" 
d="M605 1112c64 -8.66699 220.332 -68.999 468.999 -180.999l233 -107l75 -35c8 -4 15 -7.33301 21 -10c2 -1.33301 4 -2.33301 6 -3l2 -1l-15 -300v-2l-9 -3c-7.33301 -2.66699 -17 -6 -29 -10l-131 -49c14.667 -30.667 28 -54 40 -70c4.66699 -6 9.33398 -11 14.001 -15
c2.66699 -2.66699 5.33398 -4.33398 8.00098 -5.00098c12.667 -6.66699 48.334 -10 107.001 -10h199v-328h-171c-127.333 0 -220.666 14.667 -279.999 44c-56.667 28.667 -106.667 73 -150 133c-26 37.333 -50.667 82.666 -74 135.999l5 2l-196 -73
c-170 -63.333 -272.333 -109.666 -307 -138.999c-13.333 -11.333 -21.333 -22.333 -24 -33c-2.66699 -7.33301 -4 -17 -4 -29c0 -16 1.66699 -34.667 5 -56l14 -94c20.667 -134.667 44 -215.667 70 -243c47.333 -49.333 162.666 -74 345.999 -74h440v-328h-440
c-277.333 0 -472 59 -584 177c-52 55.333 -90.333 125.666 -115 210.999c-8.66699 29.333 -16.667 63.333 -24 102l-9 53l-8 54c-5.33301 38.667 -10 68 -14 88c-6 36 -9 70.333 -9 103c0 132.667 48.667 239.334 146 320.001c62.667 52.667 196.667 117.667 402 195l48 18
l71 26l65 25l116 43c-119.333 53.333 -213.333 93 -282 119c-22.667 8 -41.334 14.333 -56.001 19c-5.33301 2 -10 3.33301 -14 4l-4 1l-2 1h-6c-18 0 -35 -10 -51 -30c-16.667 -20.667 -29.334 -48 -38.001 -82l-317 83c30.667 118 87.667 209.667 171 275
c70 54.667 148.333 82 235 82c20.667 0 39 -1.33301 55 -4zM616.001 -221.261l-165.914 162.621l165.914 171.005l165.915 -171.005zM977.158 -224.614l-167.59 165.975l170.104 165.976l164.238 -165.976zM800.351 -418.251l-145.804 145.856l144.128 144.18
l145.804 -145.856z" />
    <glyph glyph-name="uni0686.init" unicode="&#x686;" horiz-adv-x="1430" arabic-form="initial" 
d="M549 917c54.667 -8 190.668 -42.001 408.001 -102.001l241 -67l154 -45l51 -289c-258 -189.333 -452 -306.333 -582 -351c-153.333 -52 -435 -78 -845 -78v328c264.667 0 456 9.33301 574 28c142.667 22.667 270 69.667 382 141l-73 20l-70 20
c-57.333 16.667 -100.333 28.667 -129 36c-88 24 -143.333 36 -166 36c-18 0 -35 -10.333 -51 -31c-16.667 -20 -29.334 -47.333 -38.001 -82l-317 83c30.667 118.667 87.667 210.334 171 275.001c70.667 55.333 146.667 83 228 83c20 0 40.667 -1.66699 62 -5z
M468.001 -580.001l-198 194l198 204l198 -204zM899.001 -584.001l-200 198l203 198l196 -198zM688.001 -815.001l-174 174l172 172l174 -174z" />
    <glyph glyph-name="uni0686.medi" unicode="&#x686;" horiz-adv-x="1532" arabic-form="medial" 
d="M563 917c54.667 -8 190.67 -41.9971 408.003 -101.997l241 -67l154 -45l51 -289l-29 -22l-29 -20l-54 -40c34 -8.66699 82 -14.334 144 -17.001c22 -0.666992 45.667 -1.33398 71 -2.00098h52v-328c-204.667 0 -350.334 20.333 -437.001 61
c-50.667 23.333 -92.334 54.666 -125.001 93.999c-56 -30.667 -114.333 -56.334 -175 -77.001c-153.333 -52 -435 -78 -845 -78v328c264.667 0 456 9.33301 574 28c142.667 22.667 270 69.667 382 141l-73 20l-70 20c-57.333 16.667 -100.333 28.667 -129 36
c-88 24 -143.333 36 -166 36c-18 0 -35 -10.333 -51 -31c-16.667 -20 -29.334 -47.333 -38.001 -82l-317 83c30.667 118.667 87.667 210.334 171 275.001c70.667 55.333 146.667 83 228 83c20 0 40.667 -1.66699 62 -5zM477.003 -580.997l-198 194l198 204l198 -204z
M908.003 -584.997l-200 198l203 198l196 -198zM697.003 -815.997l-174 174l172 172l174 -174z" />
    <glyph glyph-name="uni0688.fina" unicode="&#x688;" horiz-adv-x="1268" arabic-form="final" 
d="M627 1090l70.0029 -104.001l281 -422c6 -9.33301 12.333 -18.666 19 -27.999l25 -36c23.333 -32 45.333 -60 66 -84c58.667 -69.333 103.667 -104 135 -104h70v-327h-95c-97.333 0 -190.333 39.667 -279 119c-28.667 -30.667 -61.334 -56 -98.001 -76
c-68 -38.667 -144.667 -58 -230 -58c-94 0 -210.667 15.667 -350 47c-44 10 -88 21 -132 33c-14.667 4 -28.334 8 -41.001 12c-4.66699 1.33301 -8.66699 2.33301 -12 3l-4 1l-2 1l97 313l80 -23c39.333 -10 77.666 -19 114.999 -27c102.667 -22 185.667 -33 249 -33
c50 0 83 15 99 45c5.33301 9.33301 8 19 8 29c0 17.333 -7 36.333 -21 57l-163 242l-107 159l-78 117l274 179zM273.003 1254l-0.000976562 109h104c2 2.66699 3.83301 5.5 5.5 8.5s4 6.83301 7 11.5s7 10.5 12 17.5l18.5 26.5v488h107v-343c24 25.333 50.5 46.333 79.5 63
s60.833 25 95.5 25c22.667 0 45.334 -4 68.001 -12s43 -20.5 61 -37.5s32.5 -39 43.5 -66s16.5 -59.167 16.5 -96.5c0 -36 -6 -66.333 -18 -91s-27.333 -44.667 -46 -60s-39.5 -26.333 -62.5 -33s-45.5 -10 -67.5 -10h-424zM702.002 1551c-17.333 0 -34.667 -5.5 -52 -16.5
s-34.333 -25.5 -51 -43.5s-32.667 -38.167 -48 -60.5s-30 -44.833 -44 -67.5h190c24 0 44.667 6.66699 62 20s26 35 26 65c0 35.333 -7.5 61.333 -22.5 78s-35.167 25 -60.5 25z" />
    <glyph glyph-name="uni0698.fina" unicode="&#x698;" horiz-adv-x="913" arabic-form="final" 
d="M768 677l0.000976562 -273c0 -28.667 14.667 -51.667 44 -69c23.333 -14.667 47 -22 71 -22h46v-328h-46c-38.667 0 -79.667 6.33301 -123 19c-19.333 -147.333 -69 -266 -149 -356c-116.667 -132.667 -287.334 -199 -512.001 -199h-99v328h99
c122.667 0 210 27.667 262 83c52.667 55.333 79 148 79 278v539h328zM522.001 1082l-198 -200l-198 198l198 200zM956.001 1085l-196 -198l-203 196l200 200zM716.001 1343l-174 -174l-172 172l174 174z" />
    <glyph glyph-name="uni0691.fina" unicode="&#x691;" horiz-adv-x="904" arabic-form="final" 
d="M768 677l0.000976562 -273c0 -28.667 14.667 -51.667 44 -69c23.333 -14.667 47 -22 71 -22h46v-328h-46c-38.667 0 -79.667 6.33301 -123 19c-19.333 -147.333 -69 -266 -149 -356c-116.667 -132.667 -287.334 -199 -512.001 -199h-99v328h99
c122.667 0 210 27.667 262 83c52.667 55.333 79 148 79 278v539h328zM226.001 875l-0.000976562 109h104c2 2.66699 3.83301 5.5 5.5 8.5s4 6.83301 7 11.5s7 10.5 12 17.5l18.5 26.5v488h107v-343c24 25.333 50.5 46.333 79.5 63s60.833 25 95.5 25
c22.667 0 45.334 -4 68.001 -12s43 -20.5 61 -37.5s32.5 -39 43.5 -66s16.5 -59.167 16.5 -96.5c0 -36 -6 -66.333 -18 -91s-27.333 -44.667 -46 -60s-39.5 -26.333 -62.5 -33s-45.5 -10 -67.5 -10h-424zM655 1172c-17.333 0 -34.667 -5.5 -52 -16.5
s-34.333 -25.5 -51 -43.5s-32.667 -38.167 -48 -60.5s-30 -44.833 -44 -67.5h190c24 0 44.667 6.66699 62 20s26 35 26 65c0 35.333 -7.5 61.333 -22.5 78s-35.167 25 -60.5 25z" />
    <glyph glyph-name="uni06A9.fina" unicode="&#x6a9;" horiz-adv-x="2023" arabic-form="final" 
d="M2033 -15c-156.667 0 -288.332 41.3301 -394.999 123.997c-29.333 23.333 -56 47.333 -80 72c-41.333 -54 -95.333 -98.333 -162 -133c-81.333 -42.667 -169.333 -64 -264 -64h-361c-209.333 0 -340.333 4.66699 -393 14c-102.667 17.333 -181 67 -235 149
c-34 51.333 -55.333 110 -64 176c-2.66699 24 -4 49 -4 75c0 28.667 1.66699 58.334 5 89.001c4.66699 41.333 17 100.333 37 177c6 24.667 12.667 49.667 20 75c2.66699 8.66699 5 16.667 7 24c1.33301 6 2.33301 9.66699 3 11l315 -89
c-34 -121.333 -56.667 -220.666 -68 -297.999c-0.666992 -5.33301 -1 -10.666 -1 -15.999c0 -12.667 2.33301 -23.667 7 -33c8 -17.333 22.333 -26 43 -26h689c37.333 0 73 8 107 24s56.667 35.333 68 58c5.33301 11.333 8 23.666 8 36.999
c0 34.667 -17.333 77.334 -52 128.001l-33 45l-175 220l-71 89c-18.667 24 -28.334 36.333 -29.001 37l58 249l867 418l142 -295l-683 -329l309 -402c86.667 -118 150 -192.333 190 -223c48 -36.667 113 -55 195 -55h15v-328h-15z" />
    <glyph glyph-name="uni06A9.init" unicode="&#x6a9;" horiz-adv-x="1190" arabic-form="initial" 
d="M1190 1313l-655.001 -297.999l241 -249c88.667 -95.333 151 -184 187 -266c24.667 -57.333 37 -112.333 37 -165v-8c-0.666992 -42.667 -9 -82.334 -25 -119.001c-14.667 -34.667 -35.667 -66 -63 -94c-35.333 -36 -80 -64.667 -134 -86
c-74.667 -28.667 -165.667 -43 -273 -43h-530v328h530c103.333 0 165 5.66699 185 17c-1.33301 6 -4.66602 14.667 -9.99902 26c-6.66699 12.667 -15.667 27.334 -27 44.001c-28.667 43.333 -67.334 90.666 -116.001 141.999c-116 123.333 -216.667 226.333 -302 309l-42 39
c-10 10 -19.667 19 -29 27c-3.33301 3.33301 -6.66602 6.33301 -9.99902 9l-7 7l-3 2l-1 2l-2 1l38 274l875 400z" />
    <glyph glyph-name="uni06A9.medi" unicode="&#x6a9;" horiz-adv-x="1239" arabic-form="medial" 
d="M1069 368c46.667 -36.667 111.668 -55.001 195.001 -55.001v-328c-156.667 0 -288.334 41.333 -395.001 124c-24 18 -51 42 -81 72c-41.333 -54.667 -95 -99 -161 -133c-80.667 -42 -169 -63 -265 -63h-387v328h387c38 0 74 7.66699 108 23c34 16 56.333 35.333 67 58
c5.33301 10.667 8 23 8 37c0 34 -17 76.667 -51 128l-34 45l-175 220l-70 89c-18.667 24 -28.334 36.333 -29.001 37l57 248l867 419l143 -295l-683 -330l308 -401c86.667 -117.333 150.334 -191.666 191.001 -222.999z" />
    <glyph glyph-name="uni06AF.fina" unicode="&#x6af;" horiz-adv-x="2023" arabic-form="final" 
d="M2033 -15c-156.667 0 -288.332 41.3301 -394.999 123.997c-29.333 23.333 -56 47.333 -80 72c-41.333 -54 -95.333 -98.333 -162 -133c-81.333 -42.667 -169.333 -64 -264 -64h-361c-209.333 0 -340.333 4.66699 -393 14c-102.667 17.333 -181 67 -235 149
c-34 51.333 -55.333 110 -64 176c-2.66699 24 -4 49 -4 75c0 28.667 1.66699 58.334 5 89.001c4.66699 41.333 17 100.333 37 177c6 24.667 12.667 49.667 20 75c2.66699 8.66699 5 16.667 7 24c1.33301 6 2.33301 9.66699 3 11l315 -89
c-34 -121.333 -56.667 -220.666 -68 -297.999c-0.666992 -5.33301 -1 -10.666 -1 -15.999c0 -12.667 2.33301 -23.667 7 -33c8 -17.333 22.333 -26 43 -26h689c37.333 0 73 8 107 24s56.667 35.333 68 58c5.33301 11.333 8 23.666 8 36.999
c0 34.667 -17.333 77.334 -52 128.001l-33 45l-175 220l-71 89c-18.667 24 -28.334 36.333 -29.001 37l58 249l867 418l142 -295l-683 -329l309 -402c86.667 -118 150 -192.333 190 -223c48 -36.667 113 -55 195 -55h15v-328h-15zM1033 1497l734 326l52 -112l-799 -356z" />
    <glyph glyph-name="uni06AF.init" unicode="&#x6af;" horiz-adv-x="1190" arabic-form="initial" 
d="M1190 1313l-655.001 -297.999l241 -249c88.667 -95.333 151 -184 187 -266c24.667 -57.333 37 -112.333 37 -165v-8c-0.666992 -42.667 -9 -82.334 -25 -119.001c-14.667 -34.667 -35.667 -66 -63 -94c-35.333 -36 -80 -64.667 -134 -86
c-74.667 -28.667 -165.667 -43 -273 -43h-530v328h530c103.333 0 165 5.66699 185 17c-1.33301 6 -4.66602 14.667 -9.99902 26c-6.66699 12.667 -15.667 27.334 -27 44.001c-28.667 43.333 -67.334 90.666 -116.001 141.999c-116 123.333 -216.667 226.333 -302 309l-42 39
c-10 10 -19.667 19 -29 27c-3.33301 3.33301 -6.66602 6.33301 -9.99902 9l-7 7l-3 2l-1 2l-2 1l38 274l875 400zM199.999 1504l734 326l52 -112l-799 -356z" />
    <glyph glyph-name="uni06AF.medi" unicode="&#x6af;" horiz-adv-x="1239" arabic-form="medial" 
d="M1069 368c46.667 -36.667 111.668 -55.001 195.001 -55.001v-328c-156.667 0 -288.334 41.333 -395.001 124c-24 18 -51 42 -81 72c-41.333 -54.667 -95 -99 -161 -133c-80.667 -42 -169 -63 -265 -63h-387v328h387c38 0 74 7.66699 108 23c34 16 56.333 35.333 67 58
c5.33301 10.667 8 23 8 37c0 34 -17 76.667 -51 128l-34 45l-175 220l-70 89c-18.667 24 -28.334 36.333 -29.001 37l57 248l867 419l143 -295l-683 -330l308 -401c86.667 -117.333 150.334 -191.666 191.001 -222.999zM259.001 1504l734 326l52 -112l-799 -356z" />
    <glyph glyph-name="uni06BA.fina" unicode="&#x6ba;" horiz-adv-x="1685" arabic-form="final" 
d="M1521 414c0 -31.333 10.668 -56.001 32.001 -74.001c20.667 -18 48 -27 82 -27h75v-328h-105l-31 2c-22.667 2 -41 6 -55 12c-8 -150.667 -50.667 -271 -128 -361c-54.667 -62.667 -125.667 -110.334 -213 -143.001c-83.333 -30.667 -181.666 -46 -294.999 -46h-151
c-114.667 0 -218 21 -310 63c-104.667 48 -186.334 117.667 -245.001 209c-63.333 101.333 -95 219 -95 353c0 16.667 0.333008 33.334 1 50.001c8 155.333 55.667 327.666 143 516.999l298 -137c-70 -150.667 -108 -283 -114 -397c-0.666992 -11.333 -1 -22.666 -1 -33.999
c0 -71.333 15 -129.666 45 -174.999c29.333 -46.667 74.666 -80 135.999 -100c23.333 -8 48.666 -13.667 75.999 -17c21.333 -2.66699 43.333 -4 66 -4h151c124.667 0 209.334 23 254.001 69c38 39.333 57 108.333 57 207v623h327v-262z" />
    <glyph glyph-name="uni06C0.fina" unicode="&#x6c0;" horiz-adv-x="1293" arabic-form="final" 
d="M635 414c36 29.333 53.999 67.999 53.999 115.999v5c-0.666992 20 -4.66699 46.667 -12 80c-2 10 -5.33301 25.333 -10 46l-6 26l-6 27c-106 -36.667 -176 -72 -210 -106c-31.333 -31.333 -47 -65.666 -47 -102.999v-7c2 -39.333 19.333 -71.333 52 -96
c20.667 -15.333 47.334 -23 80.001 -23c40.667 0 75.667 11.667 105 35zM976.999 771.999l20 -87l10 -41l9 -39c14 -60 27.333 -114 40 -162c14.667 -54 41 -89 79 -105c22.667 -10 51.667 -17 87 -21c24 -2.66699 56 -4 96 -4v-328c-60 0 -111.667 3 -155 9
c-60 8 -114 22.667 -162 44c-64 29.333 -117.333 69.333 -160 120l-12 14c-34 -30 -72.667 -54 -116 -72c-55.333 -22 -114 -33 -176 -33l-10 1h-11c-76 3.33301 -145 21.666 -207 54.999c-116 60.667 -187.333 156 -214 286c-7.33301 34.667 -11 69 -11 103
c0 44.667 6.33301 88.334 19 131.001c24.667 75.333 67.667 142.333 129 201c67.333 64.667 184.333 123.667 351 177l-19 88l320 73zM913.999 1916l-36.001 -137.997c-24 5.33301 -43.667 8 -59 8c-32 0 -57.667 -8.33301 -77 -25c-18.667 -15.333 -31 -37 -37 -65
c61.333 -10 103.666 -18 126.999 -24c23.333 -5.33301 41 -12.333 53 -21c24.667 -16.667 37 -40 37 -70v-11c0 -4.66699 -0.333008 -9.33398 -1 -14.001c-0.666992 -11.333 -2 -22.333 -4 -33c-5.33301 -30 -16 -56.667 -32 -80c-43.333 -60.667 -115.666 -91 -216.999 -91
h-109v143h109c8.66699 0 17 0.333008 25 1c10.667 0.666992 20.334 2 29.001 4c22 5.33301 37 13.666 45 24.999c2.66699 4 4.66699 8.33301 6 13c-14.667 3.33301 -36.667 7.33301 -66 12c-10.667 2 -24.667 4.33301 -42 7l-23 4l-24 4l-55 9l-5 56
c-0.666992 11.333 -1 22.333 -1 33c0 87.333 31 156.666 93 207.999c33.333 28 72.333 46 117 54c15.333 2.66699 32.333 4 51 4c32 0 64 -4.33301 96 -13z" />
    <glyph glyph-name="uni06C1.fina" unicode="&#x6c1;" horiz-adv-x="1322" arabic-form="final" 
d="M919 986l81.999 -330.998l35 -131c18.667 -72 54.334 -126.667 107.001 -164c44 -31.333 93.667 -47 149 -47h58v-328h-58c-126.667 0 -241.334 37.333 -344.001 112c-114.667 82 -191 197 -229 345l-34 129c-11.333 41.333 -27.333 103.666 -48 186.999
c-28.667 -5.33301 -48.667 -10 -60 -14c-75.333 -20.667 -120.666 -68.667 -135.999 -144c-3.33301 -16.667 -5 -34 -5 -52c0 -12 0.666992 -24 2 -36c0.666992 -12 2 -24 4 -36l6 -27l34 -134c8.66699 -34 17.334 -66 26.001 -96c2.66699 -11.333 5.66699 -22.333 9 -33
c2 -8.66699 4.33301 -16.667 7 -24l5 -20l-315 -92l-3 9l-1 4c-0.666992 2.66699 -1.33398 5.66699 -2.00098 9c-2 8 -4.33301 16.333 -7 25c-3.33301 11.333 -6.33301 23 -9 35l-62 238c-15.333 61.333 -23 120.333 -23 177c0 90 19.333 174 58 252
c66 133.333 174.333 220.333 325 261c26 7.33301 70 17 132 29c22 4 44.333 8.33301 67 13c18 3.33301 32 5.66602 42 6.99902z" />
    <glyph glyph-name="uni06C1.init" unicode="&#x6c1;" horiz-adv-x="750" arabic-form="initial" 
d="M666 493c5.33301 -32 8.00098 -62.665 8.00098 -91.998c0 -90.667 -26 -172 -78 -244c-83.333 -114.667 -219 -172 -407 -172h-214v328h207c60 0 102.333 8 127 24c25.333 15.333 38 39.666 38 72.999c0 10 -1.33301 21 -4 33l-20 104
c-2.66699 13.333 -5.33398 27.666 -8.00098 42.999l-4 19l-3 19c-10 54.667 -17.667 93.667 -23 117l313 95c20 -94 42.667 -209.667 68 -347zM395.001 -226.998c-7.33301 -5.33301 -17.001 -12.999 -29.001 -22.999c-15.333 -13.333 -29.666 -27 -42.999 -41
c-38 -40.667 -62 -78.334 -72 -113.001c15.333 3.33301 30 5 44 5c51.333 0 95 -18 131 -54s54 -79.667 54 -131c0 -50.667 -19.667 -94.334 -59 -131.001c-38.667 -36 -83.667 -54 -135 -54c-60.667 0 -113 20 -157 60c-52.667 48 -79 115.667 -79 203
c0 84.667 29 170.334 87 257.001c46 70 93.667 120 143 150z" />
    <glyph glyph-name="uni06C1.medi" unicode="&#x6c1;" horiz-adv-x="1181" arabic-form="medial" 
d="M1206 -15l-136.001 0.000976562c-52 0 -92 -21.667 -120 -65c-30.667 -46.667 -47.334 -106.334 -50.001 -179.001v-20c0 -65.333 12 -125 36 -179l-150 -230c-137.333 0 -255.666 31.333 -354.999 94c-88 56 -156.667 134.667 -206 236
c-46 93.333 -74.333 207.666 -85 342.999h-164v328h322l163 -164c0 -68.667 3.33301 -129 10 -181c9.33301 -74 25.666 -135 48.999 -183c14.667 -31.333 32.334 -56.666 53.001 -75.999v48c6 132 40 245.667 102 341c92.667 143.333 224.334 215 395.001 215h136v-328z" />
    <glyph glyph-name="uni06BE.fina" unicode="&#x6be;" horiz-adv-x="1901" arabic-form="final" 
d="M892 480c0 53.333 -19.333 95.333 -58 126c-30 24 -62 36 -96 36c-15.333 0 -32 -2.66699 -50 -8c-20.667 -6 -39.334 -14.667 -56.001 -26c-44 -30.667 -66 -73.334 -66 -128.001c0 -36 17.667 -70.333 53 -103c34.667 -31.333 74.334 -50.666 119.001 -57.999
c102.667 35.333 154 89 154 161zM1651 -15c-88.667 -100 -220.333 -150.002 -395 -150.002c-97.333 0 -217 26.333 -359 79c-45.333 16.667 -92.333 36 -141 58c-8 4 -16.667 8 -26 12l-21 9l-25 12c-108.667 -13.333 -236.334 -20 -383.001 -20h-198v328h184
c-28.667 71.333 -43 127 -43 167c0 120.667 37.667 226.334 113 317.001c91.333 108.667 218.333 163 381 163c142 0 258.667 -51.667 350 -155c83.333 -94 125 -202.333 125 -325c0 -72 -18.667 -142.667 -56 -212c-19.333 -34.667 -38.333 -62 -57 -82
c53.333 -22 116 -33 188 -33c38.667 0 71.334 9.66699 98.001 29c26.667 18.667 44.667 44.334 54 77.001c5.33301 17.333 8 35.333 8 54c0 59.333 -26.333 124 -79 194l-330 445l255 205l325 -443c91.333 -124 140.333 -251.667 147 -383c0.666992 -6 1 -12 1 -18h151
c27.333 0 41 -12.667 41 -38v-250c0 -26.667 -13.667 -40 -41 -40h-267z" />
    <glyph glyph-name="uni06BE.init" unicode="&#x6be;" horiz-adv-x="1727" arabic-form="initial" 
d="M772 480c0 53.333 -19.333 95.333 -58 126c-30 24 -62 36 -96 36c-15.333 0 -32 -2.66699 -50 -8c-20.667 -6 -39.334 -14.667 -56.001 -26c-44 -30.667 -66 -73.334 -66 -128.001c0 -36 17.667 -70.333 53 -103c34.667 -31.333 74.334 -50.666 119.001 -57.999
c102.667 35.333 154 89 154 161zM1499 714c91.333 -124 140.333 -251.668 147 -383.001c0.666992 -10.667 1 -21.667 1 -33c0 -118.667 -37.333 -221.334 -112 -308.001c-88.667 -103.333 -221.667 -155 -399 -155c-97.333 0 -217 26.333 -359 79
c-45.333 16.667 -92.333 36 -141 58c-8 4 -16.667 8 -26 12l-21 9l-25 12c-108.667 -13.333 -236.334 -20 -383.001 -20h-198v328h184c-28.667 71.333 -43 127 -43 167c0 120.667 37.667 226.334 113 317.001c91.333 108.667 218.333 163 381 163
c142 0 258.667 -51.667 350 -155c83.333 -94 125 -202.333 125 -325c0 -72 -18.667 -142.667 -56 -212c-19.333 -34.667 -38.333 -62 -57 -82c53.333 -22 116 -33 188 -33c38.667 0 71.334 9.66699 98.001 29c26.667 18.667 44.667 44.334 54 77.001
c5.33301 17.333 8 35.333 8 54c0 59.333 -26.333 124 -79 194l-330 445l255 205z" />
    <glyph glyph-name="uni06BE.medi" unicode="&#x6be;" horiz-adv-x="1264" arabic-form="medial" 
d="M725 -20c6.66699 28 15 55 25 81c3.33301 9.33301 6.66602 18 9.99902 26l4 8c0.666992 2 1.33398 3.33301 2.00098 4c-86 -44 -176 -69.667 -270 -77c9.33301 -53.333 40 -107.333 92 -162c44.667 -47.333 88.667 -80 132 -98c-8 28 -12 58.333 -12 91
c0 38.667 5.66699 81 17 127zM729 447c16 16 27.333 32.999 34 50.999c2 6.66699 3.33301 13.334 4 20.001l1 8v6c0 24.667 -8 45.667 -24 63c-18.667 19.333 -45 29 -79 29c-53.333 0 -98 -36.667 -134 -110c-12.667 -26 -24 -56 -34 -90c-4 -12.667 -7.33301 -26 -10 -40
c-2.66699 -10 -5 -20.333 -7 -31c120 16.667 203 48 249 94zM955 847.999c88.667 -72.667 133.001 -178 133.001 -316c0 -84 -21.667 -160.333 -65 -229c28.667 6.66699 55 10 79 10h187v-328h-165c-22.667 0 -43 -9.33301 -61 -28c-16.667 -18 -28.334 -41.667 -35.001 -71
c-4 -16 -6 -32 -6 -48c0 -48.667 19.333 -93.667 58 -135l-104 -267c-38.667 -5.33301 -74 -8 -106 -8c-206 0 -380 76 -522 228c-52 56 -95.667 118 -131 186c-29.333 55.333 -48 104 -56 146c-68 -2 -130 -3 -186 -3v328h81c32 0.666992 61.667 1.66699 89 3
c15.333 150 52 275 110 375c47.333 81.333 106 143.333 176 186c70.667 43.333 148.667 65 234 65c117.333 0 214 -31.333 290 -94z" />
    <glyph glyph-name="uni06D2.fina" unicode="&#x6d2;" horiz-adv-x="1314" arabic-form="final" 
d="M1342 -15h-816c-39.333 0 -71 -9.66699 -95 -29c-24.667 -19.333 -37 -45.333 -37 -78c0 -68.667 44 -103 132 -103h766v-328h-766c-131.333 0 -241 42.333 -329 127c-87.333 86 -131 187.333 -131 304c0 123.333 44.333 227 133 311c88.667 82.667 197.667 124 327 124
h816v-328z" />
    <glyph glyph-name="uni06D3.fina" unicode="&#x6d3;" horiz-adv-x="1314" arabic-form="final" 
d="M1342 -15h-816c-39.333 0 -71 -9.66699 -95 -29c-24.667 -19.333 -37 -45.333 -37 -78c0 -68.667 44 -103 132 -103h766v-328h-766c-131.333 0 -241 42.333 -329 127c-87.333 86 -131 187.333 -131 304c0 123.333 44.333 227 133 311c88.667 82.667 197.667 124 327 124
h816v-328zM166 304l-0.00585938 149.002l124 40c-20 20.667 -36.5 44 -49.5 70s-19.5 53.667 -19.5 83c0 22.667 4 45 12 67s19 42.333 33 61s30.5 35 49.5 49s39.167 24 60.5 30c11.333 3.33301 22.833 5.83301 34.5 7.5s23.167 2.5 34.5 2.5
c24 0 45.167 -2.83301 63.5 -8.5s35.5 -11.5 51.5 -17.5l17 -8l-30 -124c-9.33301 2 -19.666 4.66699 -30.999 8s-22.666 6 -33.999 8s-22.5 3.16699 -33.5 3.5s-20.833 -0.833984 -29.5 -3.50098c-9.33301 -3.33301 -18.5 -8 -27.5 -14s-16.5 -12.833 -22.5 -20.5
s-10 -16.5 -12 -26.5c-1.33301 -4 -2 -8 -2 -12c0 -6.66699 1.33301 -13.334 4 -20.001c5.33301 -17.333 17.833 -32 37.5 -44s47.167 -18 82.5 -18c6.66699 0 13.834 0.333008 21.501 1s17.834 2.5 30.501 5.5s28.834 7.33301 48.501 13s44.834 13.5 75.501 23.5l8 -141z
" />
    <glyph glyph-name="uni0649.init" unicode="&#x649;" horiz-adv-x="750" arabic-form="initial" 
d="M666 493c5.33301 -32 8.00098 -62.665 8.00098 -91.998c0 -90.667 -26 -172 -78 -244c-83.333 -114.667 -219 -172 -407 -172h-214v328h207c60 0 102.333 8 127 24c25.333 15.333 38 39.666 38 72.999c0 10 -1.33301 21 -4 33l-20 104
c-2.66699 13.333 -5.33398 27.666 -8.00098 42.999l-4 19l-3 19c-10 54.667 -17.667 93.667 -23 117l313 95c20 -94 42.667 -209.667 68 -347z" />
    <glyph glyph-name="uni0649.medi" unicode="&#x649;" horiz-adv-x="770" arabic-form="medial" 
d="M640 404c0 -32 7.66797 -54.666 23.001 -67.999c17.333 -15.333 48 -23 92 -23h40v-328h-40c-43.333 0 -84.333 4.66699 -123 14c-30.667 7.33301 -59.334 17.666 -86.001 30.999c-30.667 14.667 -53.667 29.334 -69 44.001c-15.333 -14.667 -40 -29.334 -74 -44.001
c-67.333 -30 -147.333 -45 -240 -45h-188v328h211c48 0 81.667 8 101 24c17.333 14 26 36.333 26 67v272h327v-272z" />
    <glyph glyph-name="uni06CC.fina" unicode="&#x6cc;" horiz-adv-x="1811" arabic-form="final" 
d="M515 539c-77.333 -162.667 -115.998 -305.668 -115.998 -429.001c0 -12 0.333008 -24.667 1 -38c1.33301 -16.667 3.66602 -33 6.99902 -49c7.33301 -42 20 -79.333 38 -112c51.333 -92 137.333 -138 258 -138h276c138 0 235 18.333 291 55c28 18.667 42.333 37 43 55
c-94.667 55.333 -225 98.666 -391 129.999v300h914v-328h-241c14.667 -23.333 22 -56.333 22 -99c0 -15.333 -0.666992 -30.666 -2 -45.999c-2.66699 -21.333 -6.66699 -42 -12 -62c-14.667 -55.333 -40 -104.333 -76 -147c-104.667 -123.333 -287.334 -185 -548.001 -185
h-276c-222 0 -389.333 77.667 -502 233c-87.333 120.667 -131 264.334 -131 431.001c0 122.667 25 254.667 75 396c25.333 70.667 50.333 129 75 175z" />
    <glyph glyph-name="uni06CC.init" unicode="&#x6cc;" horiz-adv-x="927" arabic-form="initial" 
d="M843 493c5.33301 -32 8.00098 -62.665 8.00098 -91.998c0 -90.667 -26 -172 -78 -244c-83.333 -114.667 -219 -172 -407 -172h-391v328h384c60 0 102.333 8 127 24c25.333 15.333 38 39.666 38 72.999c0 10 -1.33301 21 -4 33l-20 104
c-2.66699 13.333 -5.33398 27.666 -8.00098 42.999l-4 19l-3 19c-10 54.667 -17.667 93.667 -23 117l313 95c20 -94 42.667 -209.667 68 -347zM610.001 -586.998l-196 198l194 200l200 -200zM188.001 -587.998l-196 198l193 200l200 -200z" />
    <glyph glyph-name="uni06CC.medi" unicode="&#x6cc;" horiz-adv-x="1024" arabic-form="medial" 
d="M788 404c0 -32 7.66797 -54.666 23.001 -67.999c17.333 -15.333 48 -23 92 -23h146v-328h-146c-43.333 0 -84.333 4.66699 -123 14c-30.667 7.33301 -59.334 17.666 -86.001 30.999c-30.667 14.667 -53.667 29.334 -69 44.001c-15.333 -14.667 -40 -29.334 -74 -44.001
c-67.333 -30 -147.333 -45 -240 -45h-336v328h359c48 0 81.667 8 101 24c17.333 14 26 36.333 26 67v272h327v-272zM657.001 -592.999l-196 198l194 200l200 -200zM235.001 -593.999l-196 198l193 200l200 -200z" />
    <glyph glyph-name="uni0651064C" unicode="&#xfc5e;" arabic-form="isolated" 
d="M-130 1599c-61.333 0 -109.5 17.165 -144.5 51.498s-52.5 81.833 -52.5 142.5v108h115v-108c0 -28 6.5 -48.333 19.5 -61s33.833 -19 62.5 -19c4 0 9.83301 0.833008 17.5 2.5s15.167 5.16699 22.5 10.5s13.833 13.333 19.5 24s8.5 25 8.5 43v108h116v-108
c0 -28 6.5 -48.5 19.5 -61.5s34.167 -19.5 63.5 -19.5c4 0 9.66699 1 17 3s14.5 5.83301 21.5 11.5s13.167 13.834 18.5 24.501s8 24.667 8 42s-3.16699 38.666 -9.5 63.999l-20.5 79l109 37c2 -8.66699 5 -19.5 9 -32.5s8 -27.5 12 -43.5s7.5 -32.833 10.5 -50.5
s4.5 -35.5 4.5 -53.5c0 -33.333 -5.5 -62.166 -16.5 -86.499s-25.167 -44.5 -42.5 -60.5s-36.833 -28 -58.5 -36s-43.167 -12 -64.5 -12c-28.667 0 -55 4.33301 -79 13s-44.333 20.334 -61 35.001c-17.333 -16 -37 -27.833 -59 -35.5s-44 -11.5 -66 -11.5zM-217 2053
c2.66699 6 6.16699 13 10.5 21s8.33301 16.667 12 26s6.83398 19 9.50098 29s4 19.667 4 29c0 5.33301 -1.33301 11.5 -4 18.5s-5 12.833 -7 17.5c-9.33301 11.333 -21 17 -35 17c-12 0 -25 -3.16699 -39 -9.5s-25.667 -13.166 -35 -20.5l-72 71
c2 2.66699 7.16699 8.33398 15.5 17c8.33301 8.66699 19.166 17.334 32.499 26c13.333 8.66699 29 16.334 47 23c16 5.33301 33.667 8 53 8h7c24.667 -1.33301 47.167 -8.66602 67.5 -22c20.333 -13.333 36.5 -30.333 48.5 -51c7.33301 -14 12.833 -29.5 16.5 -46.5
s5.5 -33.167 5.5 -48.5c0 -8.66699 -0.333008 -17 -1 -25s-1.66699 -16 -3 -24c28 9.33301 57.5 20.166 88.5 32.5c31 12.333 58.833 26.166 83.5 41.5c-23.333 8.66699 -44.5 19.667 -63.5 33s-35.333 28 -49 44s-24.167 33.167 -31.5 51.5s-11 37.166 -11 56.5
c0 22 5.33301 43.667 16 65c8 16.667 18.667 32.5 32 47.5s28 28 44 39s33.167 19.667 51.5 26s36.5 9.5 54.5 9.5c22.667 0 43.667 -4.66699 63 -14c36.667 -17.333 63.167 -42.5 79.5 -75.5s24.5 -68.167 24.5 -105.5c0 -32 -5.16699 -64.5 -15.5 -97.5
s-24.5 -63.167 -42.5 -90.5c-14.667 -21.333 -34 -41.166 -58 -59.5c-24 -18.333 -49.833 -34.833 -77.5 -49.5s-56 -27.5 -85 -38.5s-55.667 -20.333 -80 -28s-45.333 -13.5 -63 -17.5s-29.167 -6.33301 -34.5 -7zM131 2439c-6.66699 0 -14.3301 -1.16699 -22.9971 -3.5
s-17.334 -5.5 -26.001 -9.5s-16.834 -9 -24.501 -15s-13.834 -12.667 -18.501 -20c0 -14 4.5 -27 13.5 -39s20 -22.667 33 -32s27 -17.5 42 -24.5s28.5 -12.833 40.5 -17.5c3.33301 12.667 6 25.834 8 39.5c2 13.667 3 27.5 3 41.5c0 16 -2.33301 30.667 -7 44
c-3.33301 9.33301 -8.5 17.666 -15.5 25c-7 7.33301 -15.5 11 -25.5 11z" />
    <glyph glyph-name="uni0651064D" unicode="&#xfc5f;" arabic-form="isolated" 
d="M-119 2201c-61.333 0 -109.5 17.167 -144.5 51.5s-52.5 81.833 -52.5 142.5v108h115v-108c0 -28 6.5 -48.333 19.5 -61s33.833 -19 62.5 -19c4 0 9.83301 0.833008 17.5 2.5s15.167 5.16699 22.5 10.5s13.833 13.333 19.5 24s8.5 25 8.5 43v108h116v-108
c0 -28 6.5 -48.5 19.5 -61.5s34.167 -19.5 63.5 -19.5c4 0 9.66699 1 17 3s14.5 5.83301 21.5 11.5s13.167 13.834 18.5 24.5c5.33301 10.667 8 24.667 8 42s-3.16699 38.666 -9.5 64l-20.5 79l109 37c2 -8.66699 5 -19.5 9 -32.5s8 -27.5 12 -43.5s7.5 -32.833 10.5 -50.5
s4.5 -35.5 4.5 -53.5c0 -33.333 -5.5 -62.166 -16.5 -86.5c-11 -24.333 -25.167 -44.5 -42.5 -60.5s-36.833 -28 -58.5 -36s-43.167 -12 -64.5 -12c-28.667 0 -55 4.33301 -79 13s-44.333 20.334 -61 35c-17.333 -16 -37 -27.833 -59 -35.5s-44 -11.5 -66 -11.5zM-249 1725
l504 187v-137l-504 -190v140zM-249 1966l504 188v-138l-504 -189v139z" />
    <glyph glyph-name="uni0651064E" unicode="&#xfc60;" arabic-form="isolated" 
d="M-130 1599c-61.333 0 -109.5 17.165 -144.5 51.498s-52.5 81.833 -52.5 142.5v108h115v-108c0 -28 6.5 -48.333 19.5 -61s33.833 -19 62.5 -19c4 0 9.83301 0.833008 17.5 2.5s15.167 5.16699 22.5 10.5s13.833 13.333 19.5 24s8.5 25 8.5 43v108h116v-108
c0 -28 6.5 -48.5 19.5 -61.5s34.167 -19.5 63.5 -19.5c4 0 9.66699 1 17 3s14.5 5.83301 21.5 11.5s13.167 13.834 18.5 24.501s8 24.667 8 42s-3.16699 38.666 -9.5 63.999l-20.5 79l109 37c2 -8.66699 5 -19.5 9 -32.5s8 -27.5 12 -43.5s7.5 -32.833 10.5 -50.5
s4.5 -35.5 4.5 -53.5c0 -33.333 -5.5 -62.166 -16.5 -86.499s-25.167 -44.5 -42.5 -60.5s-36.833 -28 -58.5 -36s-43.167 -12 -64.5 -12c-28.667 0 -55 4.33301 -79 13s-44.333 20.334 -61 35.001c-17.333 -16 -37 -27.833 -59 -35.5s-44 -11.5 -66 -11.5zM-280 2125
l504 187v-138l-504 -189v140z" />
    <glyph glyph-name="uni0651064F" unicode="&#xfc61;" arabic-form="isolated" 
d="M-130 1599c-61.333 0 -109.5 17.165 -144.5 51.498s-52.5 81.833 -52.5 142.5v108h115v-108c0 -28 6.5 -48.333 19.5 -61s33.833 -19 62.5 -19c4 0 9.83301 0.833008 17.5 2.5s15.167 5.16699 22.5 10.5s13.833 13.333 19.5 24s8.5 25 8.5 43v108h116v-108
c0 -28 6.5 -48.5 19.5 -61.5s34.167 -19.5 63.5 -19.5c4 0 9.66699 1 17 3s14.5 5.83301 21.5 11.5s13.167 13.834 18.5 24.501s8 24.667 8 42s-3.16699 38.666 -9.5 63.999l-20.5 79l109 37c2 -8.66699 5 -19.5 9 -32.5s8 -27.5 12 -43.5s7.5 -32.833 10.5 -50.5
s4.5 -35.5 4.5 -53.5c0 -33.333 -5.5 -62.166 -16.5 -86.499s-25.167 -44.5 -42.5 -60.5s-36.833 -28 -58.5 -36s-43.167 -12 -64.5 -12c-28.667 0 -55 4.33301 -79 13s-44.333 20.334 -61 35.001c-17.333 -16 -37 -27.833 -59 -35.5s-44 -11.5 -66 -11.5zM-298 2102
c22 6.66699 45.499 14.167 70.499 22.5s50 17.5 75 27.5s49.167 20.833 72.5 32.5s44.333 24.5 63 38.5c-24.667 8 -47.167 18.667 -67.5 32s-37.833 28.666 -52.5 46c-14.667 17.333 -26.167 35.833 -34.5 55.5s-12.5 40.167 -12.5 61.5c0 22 4.33301 42.667 13 62
c8 16.667 18.667 32.667 32 48s28.166 28.666 44.499 40c16.333 11.333 33.833 20.333 52.5 27s37.334 10 56.001 10c24 0 46.333 -5.66699 67 -17c38 -20.667 65 -46.834 81 -78.5c16 -31.667 24 -66.167 24 -103.5c0 -36 -6.5 -72.667 -19.5 -110s-30.833 -72 -53.5 -104
c-22 -31.333 -50.833 -58.833 -86.5 -82.5s-72.167 -43.834 -109.5 -60.5c-37.333 -16.667 -72.666 -30.167 -105.999 -40.5l-76 -23.5zM-77.001 2439c-1.33301 -2.66699 -2 -6 -2 -10c0 -5.33301 2.33301 -13 7 -23s13.5 -21.333 26.5 -34s28.5 -24.334 46.5 -35
c18 -10.667 37 -17.334 57 -20c4 10 7.5 22.667 10.5 38s4.5 31 4.5 47c0 20.667 -4.16699 39.334 -12.5 56c-8.33301 16.667 -23.5 26 -45.5 28c-14.667 0 -31.5 -3.83301 -50.5 -11.5s-32.833 -19.5 -41.5 -35.5z" />
    <glyph glyph-name="uni06510650" unicode="&#xfc62;" arabic-form="isolated" 
d="M-116 1932c-61.333 0 -109.5 17.166 -144.5 51.499s-52.5 81.833 -52.5 142.499v108h115v-108c0 -28 6.5 -48.333 19.5 -61s33.833 -19 62.5 -19c4 0 9.83301 0.833008 17.5 2.5s15.167 5.16699 22.5 10.5s13.833 13.333 19.5 24s8.5 25 8.5 43v108h116v-108
c0 -28 6.5 -48.5 19.5 -61.5s34.167 -19.5 63.5 -19.5c4 0 9.66699 1 17 3s14.5 5.83301 21.5 11.5s13.167 13.834 18.5 24.5c5.33301 10.667 8 24.667 8 42s-3.16699 38.666 -9.5 64l-20.5 79l109 37c2 -8.66699 5 -19.5 9 -32.5s8 -27.5 12 -43.5s7.5 -32.833 10.5 -50.5
s4.5 -35.5 4.5 -53.5c0 -33.333 -5.5 -62.166 -16.5 -86.499s-25.167 -44.5 -42.5 -60.5s-36.833 -28 -58.5 -36s-43.167 -12 -64.5 -12c-28.667 0 -55 4.33301 -79 13s-44.333 20.334 -61 35.001c-17.333 -16 -37 -27.833 -59 -35.5s-44 -11.5 -66 -11.5zM-239 1693
l504 188v-138l-504 -189v139z" />
    <glyph glyph-name="uniFC63" unicode="&#xfc63;" arabic-form="isolated" 
d="M-130 1599c-61.333 0 -109.5 17.165 -144.5 51.498s-52.5 81.833 -52.5 142.5v108h115v-108c0 -28 6.5 -48.333 19.5 -61s33.833 -19 62.5 -19c4 0 9.83301 0.833008 17.5 2.5s15.167 5.16699 22.5 10.5s13.833 13.333 19.5 24s8.5 25 8.5 43v108h116v-108
c0 -28 6.5 -48.5 19.5 -61.5s34.167 -19.5 63.5 -19.5c4 0 9.66699 1 17 3s14.5 5.83301 21.5 11.5s13.167 13.834 18.5 24.501s8 24.667 8 42s-3.16699 38.666 -9.5 63.999l-20.5 79l109 37c2 -8.66699 5 -19.5 9 -32.5s8 -27.5 12 -43.5s7.5 -32.833 10.5 -50.5
s4.5 -35.5 4.5 -53.5c0 -33.333 -5.5 -62.166 -16.5 -86.499s-25.167 -44.5 -42.5 -60.5s-36.833 -28 -58.5 -36s-43.167 -12 -64.5 -12c-28.667 0 -55 4.33301 -79 13s-44.333 20.334 -61 35.001c-17.333 -16 -37 -27.833 -59 -35.5s-44 -11.5 -66 -11.5zM-71 2432h140
v-408h-140v408z" />
    <glyph glyph-name="fathatan_01" unicode="&#xfe70;" arabic-form="isolated" 
d="M-252 1711l504 187v-138l-504 -189v140zM-252 1952l504 187v-137l-504 -189v139z" />
    <glyph glyph-name="dammatan_01" unicode="&#xfe72;" arabic-form="isolated" 
d="M-277 1664c2.66699 6 6.16699 12.9971 10.5 20.9971s8.33301 16.667 12 26s6.83398 19 9.50098 29s4 19.667 4 29c0 5.33301 -1.33301 11.5 -4 18.5s-5 12.833 -7 17.5c-9.33301 11.333 -21 17 -35 17c-12 0 -25 -3.16699 -39 -9.5s-25.667 -13.166 -35 -20.499l-72 71
c2 2.66699 7.16699 8.33398 15.5 17.001s19.166 17.334 32.499 26.001s29 16.334 47 23.001c16 5.33301 33.667 8 53 8h7c24.667 -1.33301 47.167 -8.66602 67.5 -21.999s36.5 -30.333 48.5 -51c7.33301 -14 12.833 -29.5 16.5 -46.5s5.5 -33.167 5.5 -48.5
c0 -8.66699 -0.333008 -17 -1 -25s-1.66699 -16 -3 -24c28 9.33301 57.5 20.166 88.5 32.499s58.833 26.166 83.5 41.499c-23.333 8.66699 -44.5 19.667 -63.5 33s-35.333 28 -49 44s-24.167 33.167 -31.5 51.5s-11 37.166 -11 56.499c0 22 5.33301 43.667 16 65
c8 16.667 18.667 32.5 32 47.5s28 28 44 39s33.167 19.667 51.5 26s36.5 9.5 54.5 9.5c22.667 0 43.667 -4.66699 63 -14c36.667 -17.333 63.167 -42.5 79.5 -75.5s24.5 -68.167 24.5 -105.5c0 -32 -5.16699 -64.5 -15.5 -97.5s-24.5 -63.167 -42.5 -90.5
c-14.667 -21.333 -34 -41.166 -58 -59.499s-49.833 -34.833 -77.5 -49.5s-56 -27.5 -85 -38.5s-55.667 -20.333 -80 -28s-45.333 -13.5 -63 -17.5s-29.167 -6.33301 -34.5 -7zM71 2050c-6.66699 0 -14.3301 -1.16699 -22.9971 -3.5s-17.334 -5.5 -26.001 -9.5
s-16.834 -9 -24.501 -15s-13.834 -12.667 -18.501 -20c0 -14 4.5 -27 13.5 -39s20 -22.667 33 -32s27 -17.5 42 -24.5s28.5 -12.833 40.5 -17.5c3.33301 12.667 6 25.834 8 39.501s3 27.5 3 41.5c0 16 -2.33301 30.667 -7 44c-3.33301 9.33301 -8.5 17.666 -15.5 24.999
s-15.5 11 -25.5 11z" />
    <glyph glyph-name="kasratan_01" unicode="&#xfe74;" arabic-form="isolated" 
d="M-252 -681l504 187v-137l-504 -190v140zM-252 -440l504 188v-138l-504 -189v139z" />
    <glyph glyph-name="fatha_01" unicode="&#xfe76;" arabic-form="isolated" 
d="M-252 1711l504 187v-138l-504 -189v140z" />
    <glyph glyph-name="damma_01" unicode="&#xfe78;" arabic-form="isolated" 
d="M-298 1635c22 6.66699 45.499 14.1699 70.499 22.5029s50 17.5 75 27.5s49.167 20.833 72.5 32.5s44.333 24.5 63 38.5c-24.667 8 -47.167 18.667 -67.5 32s-37.833 28.666 -52.5 45.999s-26.167 35.833 -34.5 55.5s-12.5 40.167 -12.5 61.5c0 22 4.33301 42.667 13 62
c8 16.667 18.667 32.667 32 48s28.166 28.666 44.499 40c16.333 11.333 33.833 20.333 52.5 27s37.334 10 56.001 10c24 0 46.333 -5.66699 67 -17c38 -20.667 65 -46.834 81 -78.501s24 -66.167 24 -103.5c0 -36 -6.5 -72.667 -19.5 -110s-30.833 -72 -53.5 -104
c-22 -31.333 -50.833 -58.833 -86.5 -82.5s-72.167 -43.834 -109.5 -60.501s-72.666 -30.167 -105.999 -40.5l-76 -23.5zM-77.001 1972c-1.33301 -2.66699 -2 -5.99902 -2 -9.99902c0 -5.33301 2.33301 -13 7 -23s13.5 -21.333 26.5 -34s28.5 -24.334 46.5 -35.001
s37 -17.334 57 -20.001c4 10 7.5 22.667 10.5 38s4.5 31 4.5 47c0 20.667 -4.16699 39.334 -12.5 56.001s-23.5 26 -45.5 28c-14.667 0 -31.5 -3.83301 -50.5 -11.5s-32.833 -19.5 -41.5 -35.5z" />
    <glyph glyph-name="kasra_01" unicode="&#xfe7a;" arabic-form="isolated" 
d="M-252 -440l504 188v-138l-504 -189v139z" />
    <glyph glyph-name="shadda_01" unicode="&#xfe7c;" arabic-form="isolated" 
d="M-130 1609c-61.333 0 -109.5 17.165 -144.5 51.498s-52.5 81.833 -52.5 142.5v108h115v-108c0 -28 6.5 -48.333 19.5 -61s33.833 -19 62.5 -19c4 0 9.83301 0.833008 17.5 2.5s15.167 5.16699 22.5 10.5s13.833 13.333 19.5 24s8.5 25 8.5 43v108h116v-108
c0 -28 6.5 -48.5 19.5 -61.5s34.167 -19.5 63.5 -19.5c4 0 9.66699 1 17 3s14.5 5.83301 21.5 11.5s13.167 13.834 18.5 24.501s8 24.667 8 42s-3.16699 38.666 -9.5 63.999l-20.5 79l109 37c2 -8.66699 5 -19.5 9 -32.5s8 -27.5 12 -43.5s7.5 -32.833 10.5 -50.5
s4.5 -35.5 4.5 -53.5c0 -33.333 -5.5 -62.166 -16.5 -86.499s-25.167 -44.5 -42.5 -60.5s-36.833 -28 -58.5 -36s-43.167 -12 -64.5 -12c-28.667 0 -55 4.33301 -79 13s-44.333 20.334 -61 35.001c-17.333 -16 -37 -27.833 -59 -35.5s-44 -11.5 -66 -11.5z" />
    <glyph glyph-name="sukun_01" unicode="&#xfe7e;" arabic-form="isolated" 
d="M-2 1599c-36 0 -68.332 5.33398 -96.999 16.001s-53.334 25.667 -74.001 45s-36.5 43 -47.5 71s-16.5 59.667 -16.5 95s5.5 67.333 16.5 96s26.833 53 47.5 73s45.5 35.333 74.5 46s61.167 16 96.5 16c34 0 65.833 -5.33301 95.5 -16s55.167 -26 76.5 -46
s38.166 -44.167 50.499 -72.5s18.5 -59.833 18.5 -94.5s-6 -66.334 -18 -95.001s-28.667 -53 -50 -73s-46.666 -35.333 -75.999 -46c-28 -10 -58.333 -15 -91 -15h-6zM-1.99902 1726c14.667 0 28.5 2.16797 41.5 6.50098s24.5 10.833 34.5 19.5s17.833 19.167 23.5 31.5
s8.5 26.5 8.5 42.5s-2.83301 30.5 -8.5 43.5s-13.5 24 -23.5 33s-21.5 16 -34.5 21s-26.833 7.5 -41.5 7.5c-30 0 -55.833 -9.33301 -77.5 -28s-32.5 -44.334 -32.5 -77.001c0 -34 9.83301 -59.167 29.5 -75.5s46.5 -24.5 80.5 -24.5z" />
    <glyph glyph-name="uni0622.fina" unicode="&#x622;" horiz-adv-x="656" arabic-form="final" 
d="M674 -15l-90.001 0.000976562c-74 0 -140.333 13 -199 39c-44.667 19.333 -83.667 45.666 -117 78.999s-59.666 72.333 -78.999 117c-26 58.667 -39 125 -39 199v861h327v-861c0 -40.667 7.66699 -68.667 23 -84c14.667 -14.667 42.667 -22 84 -22h90v-328zM792.999 1423
h-490c-39.333 0 -72.5 -1.16699 -99.5 -3.5s-50 -8.33301 -69 -18s-34.667 -23.667 -47 -42s-23.5 -43.5 -33.5 -75.5l-186 55c17.333 60 41 109 71 147s66 67.667 108 89c36 17.333 75 28.833 117 34.5s88.333 8.5 139 8.5h490v-195z" />
    <glyph glyph-name="uni0623.fina" unicode="&#x623;" horiz-adv-x="599" arabic-form="final" 
d="M624 -15l-90.001 0.000976562c-74 0 -140.333 13 -199 39c-44.667 19.333 -83.667 45.666 -117 78.999s-59.666 72.333 -78.999 117c-26 58.667 -39 125 -39 199v861h327v-861c0 -40.667 7.66699 -68.667 23 -84c14.667 -14.667 42.667 -22 84 -22h90v-328zM17.999 1355
l-0.00585938 149.002l124 40c-20 20.667 -36.5 44 -49.5 70s-19.5 53.667 -19.5 83c0 22.667 4 45 12 67s19 42.333 33 61s30.5 35 49.5 49s39.167 24 60.5 30c11.333 3.33301 22.833 5.83301 34.5 7.5s23.167 2.5 34.5 2.5c24 0 45.167 -2.83301 63.5 -8.5
s35.5 -11.5 51.5 -17.5l17 -8l-30 -124c-9.33301 2 -19.666 4.66699 -30.999 8s-22.666 6 -33.999 8s-22.5 3.16699 -33.5 3.5s-20.833 -0.833984 -29.5 -3.50098c-9.33301 -3.33301 -18.5 -8 -27.5 -14s-16.5 -12.833 -22.5 -20.5s-10 -16.5 -12 -26.5
c-1.33301 -4 -2 -8 -2 -12c0 -6.66699 1.33301 -13.334 4 -20.001c5.33301 -17.333 17.833 -32 37.5 -44s47.167 -18 82.5 -18c6.66699 0 13.834 0.333008 21.501 1s17.834 2.5 30.501 5.5s28.834 7.33301 48.501 13s44.834 13.5 75.501 23.5l8 -141z" />
    <glyph glyph-name="uni0624.fina" unicode="&#x624;" horiz-adv-x="1080" arabic-form="final" 
d="M678 312v103c0 61.333 -13 110 -39 146c-26 35.333 -61.333 53 -106 53c-45.333 0 -81.333 -17.667 -108 -53c-24.667 -32.667 -37 -75 -37 -127c0 -6 0.333008 -12.333 1 -19c2 -35.333 18 -62 48 -80c25.333 -15.333 57.333 -23 96 -23h145zM885 781
c80.667 -98 121 -220 121 -366v-103h99v-327h-102c-16.667 -207.333 -118 -355.666 -304 -444.999c-72.667 -34.667 -157.667 -59.667 -255 -75c-76.667 -12.667 -159.667 -19 -249 -19v328c166.667 0 292 23.333 376 70c68 37.333 102 84.333 102 141h-140
c-118.667 0 -219.667 32 -303 96c-100 77.333 -150 188.666 -150 333.999c0 138 33.333 255 100 351c80.667 117.333 198.334 176 353.001 176c147.333 0 264.666 -53.667 351.999 -161zM163 994l-0.00585938 149.002l124 40c-20 20.667 -36.5 44 -49.5 70
s-19.5 53.667 -19.5 83c0 22.667 4 45 12 67s19 42.333 33 61s30.5 35 49.5 49s39.167 24 60.5 30c11.333 3.33301 22.833 5.83301 34.5 7.5s23.167 2.5 34.5 2.5c24 0 45.167 -2.83301 63.5 -8.5s35.5 -11.5 51.5 -17.5l17 -8l-30 -124
c-9.33301 2 -19.666 4.66699 -30.999 8s-22.666 6 -33.999 8s-22.5 3.16699 -33.5 3.5s-20.833 -0.833984 -29.5 -3.50098c-9.33301 -3.33301 -18.5 -8 -27.5 -14s-16.5 -12.833 -22.5 -20.5s-10 -16.5 -12 -26.5c-1.33301 -4 -2 -8 -2 -12
c0 -6.66699 1.33301 -13.334 4 -20.001c5.33301 -17.333 17.833 -32 37.5 -44s47.167 -18 82.5 -18c6.66699 0 13.834 0.333008 21.501 1s17.834 2.5 30.501 5.5s28.834 7.33301 48.501 13s44.834 13.5 75.501 23.5l8 -141z" />
    <glyph glyph-name="uni0625.fina" unicode="&#x625;" horiz-adv-x="597" arabic-form="final" 
d="M624 -15l-90.001 0.000976562c-74 0 -140.333 13 -199 39c-44.667 19.333 -83.667 45.666 -117 78.999s-59.666 72.333 -78.999 117c-26 58.667 -39 125 -39 199v1008h327v-1008c0 -40.667 7.66699 -68.667 23 -84c14.667 -14.667 42.667 -22 84 -22h90v-328z
M71.999 -691.999l-0.00585938 149.002l124 40c-20 20.667 -36.5 44 -49.5 70s-19.5 53.667 -19.5 83c0 22.667 4 45 12 67s19 42.333 33 61s30.5 35 49.5 49s39.167 24 60.5 30c11.333 3.33301 22.833 5.83301 34.5 7.5s23.167 2.5 34.5 2.5c24 0 45.167 -2.83301 63.5 -8.5
s35.5 -11.5 51.5 -17.5l17 -8l-30 -124c-9.33301 2 -19.666 4.66699 -30.999 8s-22.666 6 -33.999 8s-22.5 3.16699 -33.5 3.5s-20.833 -0.833984 -29.5 -3.50098c-9.33301 -3.33301 -18.5 -8 -27.5 -14s-16.5 -12.833 -22.5 -20.5s-10 -16.5 -12 -26.5
c-1.33301 -4 -2 -8 -2 -12c0 -6.66699 1.33301 -13.334 4 -20.001c5.33301 -17.333 17.833 -32 37.5 -44s47.167 -18 82.5 -18c6.66699 0 13.834 0.333008 21.501 1s17.834 2.5 30.501 5.5s28.834 7.33301 48.501 13s44.834 13.5 75.501 23.5l8 -141z" />
    <glyph glyph-name="uni0626.fina" unicode="&#x626;" horiz-adv-x="1811" arabic-form="final" 
d="M515 539c-77.333 -162.667 -115.998 -305.668 -115.998 -429.001c0 -12 0.333008 -24.667 1 -38c1.33301 -16.667 3.66602 -33 6.99902 -49c7.33301 -42 20 -79.333 38 -112c51.333 -92 137.333 -138 258 -138h276c138 0 235 18.333 291 55c28 18.667 42.333 37 43 55
c-94.667 55.333 -225 98.666 -391 129.999v300h914v-328h-241c14.667 -23.333 22 -56.333 22 -99c0 -15.333 -0.666992 -30.666 -2 -45.999c-2.66699 -21.333 -6.66699 -42 -12 -62c-14.667 -55.333 -40 -104.333 -76 -147c-104.667 -123.333 -287.334 -185 -548.001 -185
h-276c-222 0 -389.333 77.667 -502 233c-87.333 120.667 -131 264.334 -131 431.001c0 122.667 25 254.667 75 396c25.333 70.667 50.333 129 75 175zM670.002 358.999l-0.00585938 149.002l124 40c-20 20.667 -36.5 44 -49.5 70s-19.5 53.667 -19.5 83c0 22.667 4 45 12 67
s19 42.333 33 61s30.5 35 49.5 49s39.167 24 60.5 30c11.333 3.33301 22.833 5.83301 34.5 7.5s23.167 2.5 34.5 2.5c24 0 45.167 -2.83301 63.5 -8.5s35.5 -11.5 51.5 -17.5l17 -8l-30 -124c-9.33301 2 -19.666 4.66699 -30.999 8s-22.666 6 -33.999 8
s-22.5 3.16699 -33.5 3.5s-20.833 -0.833984 -29.5 -3.50098c-9.33301 -3.33301 -18.5 -8 -27.5 -14s-16.5 -12.833 -22.5 -20.5s-10 -16.5 -12 -26.5c-1.33301 -4 -2 -8 -2 -12c0 -6.66699 1.33301 -13.334 4 -20.001c5.33301 -17.333 17.833 -32 37.5 -44
s47.167 -18 82.5 -18c6.66699 0 13.834 0.333008 21.501 1s17.834 2.5 30.501 5.5s28.834 7.33301 48.501 13s44.834 13.5 75.501 23.5l8 -141z" />
    <glyph glyph-name="uni0626.init" unicode="&#x626;" horiz-adv-x="927" arabic-form="initial" 
d="M843 493c5.33301 -32 8.00098 -62.665 8.00098 -91.998c0 -90.667 -26 -172 -78 -244c-83.333 -114.667 -219 -172 -407 -172h-391v328h384c60 0 102.333 8 127 24c25.333 15.333 38 39.666 38 72.999c0 10 -1.33301 21 -4 33l-20 104
c-2.66699 13.333 -5.33398 27.666 -8.00098 42.999l-4 19l-3 19c-10 54.667 -17.667 93.667 -23 117l313 95c20 -94 42.667 -209.667 68 -347zM112.001 841.002l-0.00585938 149.002l124 40c-20 20.667 -36.5 44 -49.5 70s-19.5 53.667 -19.5 83c0 22.667 4 45 12 67
s19 42.333 33 61s30.5 35 49.5 49s39.167 24 60.5 30c11.333 3.33301 22.833 5.83301 34.5 7.5s23.167 2.5 34.5 2.5c24 0 45.167 -2.83301 63.5 -8.5s35.5 -11.5 51.5 -17.5l17 -8l-30 -124c-9.33301 2 -19.666 4.66699 -30.999 8s-22.666 6 -33.999 8
s-22.5 3.16699 -33.5 3.5s-20.833 -0.833984 -29.5 -3.50098c-9.33301 -3.33301 -18.5 -8 -27.5 -14s-16.5 -12.833 -22.5 -20.5s-10 -16.5 -12 -26.5c-1.33301 -4 -2 -8 -2 -12c0 -6.66699 1.33301 -13.334 4 -20.001c5.33301 -17.333 17.833 -32 37.5 -44
s47.167 -18 82.5 -18c6.66699 0 13.834 0.333008 21.501 1s17.834 2.5 30.501 5.5s28.834 7.33301 48.501 13s44.834 13.5 75.501 23.5l8 -141z" />
    <glyph glyph-name="uni0626.medi" unicode="&#x626;" horiz-adv-x="1024" arabic-form="medial" 
d="M788 404c0 -32 7.66797 -54.666 23.001 -67.999c17.333 -15.333 48 -23 92 -23h146v-328h-146c-43.333 0 -84.333 4.66699 -123 14c-30.667 7.33301 -59.334 17.666 -86.001 30.999c-30.667 14.667 -53.667 29.334 -69 44.001c-15.333 -14.667 -40 -29.334 -74 -44.001
c-67.333 -30 -147.333 -45 -240 -45h-336v328h359c48 0 81.667 8 101 24c17.333 14 26 36.333 26 67v272h327v-272zM175.001 784.001l-0.00585938 149.002l124 40c-20 20.667 -36.5 44 -49.5 70s-19.5 53.667 -19.5 83c0 22.667 4 45 12 67s19 42.333 33 61s30.5 35 49.5 49
s39.167 24 60.5 30c11.333 3.33301 22.833 5.83301 34.5 7.5s23.167 2.5 34.5 2.5c24 0 45.167 -2.83301 63.5 -8.5s35.5 -11.5 51.5 -17.5l17 -8l-30 -124c-9.33301 2 -19.666 4.66699 -30.999 8s-22.666 6 -33.999 8s-22.5 3.16699 -33.5 3.5
s-20.833 -0.833984 -29.5 -3.50098c-9.33301 -3.33301 -18.5 -8 -27.5 -14s-16.5 -12.833 -22.5 -20.5s-10 -16.5 -12 -26.5c-1.33301 -4 -2 -8 -2 -12c0 -6.66699 1.33301 -13.334 4 -20.001c5.33301 -17.333 17.833 -32 37.5 -44s47.167 -18 82.5 -18
c6.66699 0 13.834 0.333008 21.501 1s17.834 2.5 30.501 5.5s28.834 7.33301 48.501 13s44.834 13.5 75.501 23.5l8 -141z" />
    <glyph glyph-name="uni0627.fina" unicode="&#x627;" horiz-adv-x="597" arabic-form="final" 
d="M624 -15l-90.001 0.000976562c-74 0 -140.333 13 -199 39c-44.667 19.333 -83.667 45.666 -117 78.999s-59.666 72.333 -78.999 117c-26 58.667 -39 125 -39 199v1008h327v-1008c0 -40.667 7.66699 -68.667 23 -84c14.667 -14.667 42.667 -22 84 -22h90v-328z" />
    <glyph glyph-name="uni0628.fina" unicode="&#x628;" horiz-adv-x="2236" arabic-form="final" 
d="M462 675c-34 -121.333 -56.666 -220.668 -67.999 -298.001c-0.666992 -5.33301 -1 -10.666 -1 -15.999c0 -12.667 2.33301 -23.667 7 -33c8 -17.333 22.333 -26 43 -26h1181c48 0 72 22 72 66v309h328v-244c3.33301 -42.667 11.666 -72 24.999 -88
c17.333 -21.333 49.666 -32 97 -32h115v-328h-115c-120 0 -208 22.667 -264 68c-52 -34.667 -124.333 -57.334 -217 -68.001c-67.333 -7.33301 -187 -11 -359 -11h-567c-188 0 -308.333 4.66699 -361 14c-102.667 17.333 -181 67 -235 149c-34 51.333 -55.333 110 -64 176
c-2.66699 24 -4 49 -4 75c0 28.667 1.66699 58.334 5 89.001c4.66699 41.333 17 100.333 37 177c6 24.667 12.667 49.667 20 75c2.66699 8.66699 5 16.667 7 24c1.33301 6 2.33301 9.66699 3 11zM870.001 -362.002l208 210l212 -212l-210 -210z" />
    <glyph glyph-name="uni0628.init" unicode="&#x628;" horiz-adv-x="750" arabic-form="initial" 
d="M666 493c5.33301 -32 8.00098 -62.665 8.00098 -91.998c0 -90.667 -26 -172 -78 -244c-83.333 -114.667 -219 -172 -407 -172h-214v328h207c60 0 102.333 8 127 24c25.333 15.333 38 39.666 38 72.999c0 10 -1.33301 21 -4 33l-20 104
c-2.66699 13.333 -5.33398 27.666 -8.00098 42.999l-4 19l-3 19c-10 54.667 -17.667 93.667 -23 117l313 95c20 -94 42.667 -209.667 68 -347zM93.001 -362.998l208 210l212 -212l-210 -210z" />
    <glyph glyph-name="uni0628.medi" unicode="&#x628;" horiz-adv-x="770" arabic-form="medial" 
d="M640 404c0 -32 7.66797 -54.666 23.001 -67.999c17.333 -15.333 48 -23 92 -23h40v-328h-40c-43.333 0 -84.333 4.66699 -123 14c-30.667 7.33301 -59.334 17.666 -86.001 30.999c-30.667 14.667 -53.667 29.334 -69 44.001c-15.333 -14.667 -40 -29.334 -74 -44.001
c-67.333 -30 -147.333 -45 -240 -45h-188v328h211c48 0 81.667 8 101 24c17.333 14 26 36.333 26 67v272h327v-272zM166.001 -373.999l208 210l212 -212l-210 -210z" />
    <glyph glyph-name="uni0629.fina" unicode="&#x629;" horiz-adv-x="1293" arabic-form="final" 
d="M635 414c36 29.333 53.999 67.999 53.999 115.999v5c-0.666992 20 -4.66699 46.667 -12 80c-2 10 -5.33301 25.333 -10 46l-6 26l-6 27c-106 -36.667 -176 -72 -210 -106c-31.333 -31.333 -47 -65.666 -47 -102.999v-7c2 -39.333 19.333 -71.333 52 -96
c20.667 -15.333 47.334 -23 80.001 -23c40.667 0 75.667 11.667 105 35zM976.999 771.999l20 -87l10 -41l9 -39c14 -60 27.333 -114 40 -162c14.667 -54 41 -89 79 -105c22.667 -10 51.667 -17 87 -21c24 -2.66699 56 -4 96 -4v-328c-60 0 -111.667 3 -155 9
c-60 8 -114 22.667 -162 44c-64 29.333 -117.333 69.333 -160 120l-12 14c-34 -30 -72.667 -54 -116 -72c-55.333 -22 -114 -33 -176 -33l-10 1h-11c-76 3.33301 -145 21.666 -207 54.999c-116 60.667 -187.333 156 -214 286c-7.33301 34.667 -11 69 -11 103
c0 44.667 6.33301 88.334 19 131.001c24.667 75.333 67.667 142.333 129 201c67.333 64.667 184.333 123.667 351 177l-19 88l320 73zM879.999 1290l-196 198l194 200l200 -200zM460.999 1289l-196 198l193 200l200 -200z" />
    <glyph glyph-name="uni062A.fina" unicode="&#x62a;" horiz-adv-x="2236" arabic-form="final" 
d="M462 675c-34 -121.333 -56.666 -220.668 -67.999 -298.001c-0.666992 -5.33301 -1 -10.666 -1 -15.999c0 -12.667 2.33301 -23.667 7 -33c8 -17.333 22.333 -26 43 -26h1181c48 0 72 22 72 66v309h328v-244c3.33301 -42.667 11.666 -72 24.999 -88
c17.333 -21.333 49.666 -32 97 -32h115v-328h-115c-120 0 -208 22.667 -264 68c-52 -34.667 -124.333 -57.334 -217 -68.001c-67.333 -7.33301 -187 -11 -359 -11h-567c-188 0 -308.333 4.66699 -361 14c-102.667 17.333 -181 67 -235 149c-34 51.333 -55.333 110 -64 176
c-2.66699 24 -4 49 -4 75c0 28.667 1.66699 58.334 5 89.001c4.66699 41.333 17 100.333 37 177c6 24.667 12.667 49.667 20 75c2.66699 8.66699 5 16.667 7 24c1.33301 6 2.33301 9.66699 3 11zM1277 731.998l-196 198l194 200l200 -200zM858.001 730.998l-196 198l193 200
l200 -200z" />
    <glyph glyph-name="uni062A.init" unicode="&#x62a;" horiz-adv-x="927" arabic-form="initial" 
d="M843 493c5.33301 -32 8.00098 -62.665 8.00098 -91.998c0 -90.667 -26 -172 -78 -244c-83.333 -114.667 -219 -172 -407 -172h-391v328h384c60 0 102.333 8 127 24c25.333 15.333 38 39.666 38 72.999c0 10 -1.33301 21 -4 33l-20 104
c-2.66699 13.333 -5.33398 27.666 -8.00098 42.999l-4 19l-3 19c-10 54.667 -17.667 93.667 -23 117l313 95c20 -94 42.667 -209.667 68 -347zM637.001 992.002l-196 198l194 200l200 -200zM218.001 991.002l-196 198l193 200l200 -200z" />
    <glyph glyph-name="uni062A.medi" unicode="&#x62a;" horiz-adv-x="1024" arabic-form="medial" 
d="M726 915l-196 198l194 200l200 -200zM307 914l-196 198l193 200l200 -200zM788 404c0 -32 7.66797 -54.666 23.001 -67.999c17.333 -15.333 48 -23 92 -23h146v-328h-146c-43.333 0 -84.333 4.66699 -123 14c-30.667 7.33301 -59.334 17.666 -86.001 30.999
c-30.667 14.667 -53.667 29.334 -69 44.001c-15.333 -14.667 -40 -29.334 -74 -44.001c-67.333 -30 -147.333 -45 -240 -45h-336v328h359c48 0 81.667 8 101 24c17.333 14 26 36.333 26 67v272h327v-272z" />
    <glyph glyph-name="uni062B.fina" unicode="&#x62b;" horiz-adv-x="2236" arabic-form="final" 
d="M462 675c-34 -121.333 -56.666 -220.668 -67.999 -298.001c-0.666992 -5.33301 -1 -10.666 -1 -15.999c0 -12.667 2.33301 -23.667 7 -33c8 -17.333 22.333 -26 43 -26h1181c48 0 72 22 72 66v309h328v-244c3.33301 -42.667 11.666 -72 24.999 -88
c17.333 -21.333 49.666 -32 97 -32h115v-328h-115c-120 0 -208 22.667 -264 68c-52 -34.667 -124.333 -57.334 -217 -68.001c-67.333 -7.33301 -187 -11 -359 -11h-567c-188 0 -308.333 4.66699 -361 14c-102.667 17.333 -181 67 -235 149c-34 51.333 -55.333 110 -64 176
c-2.66699 24 -4 49 -4 75c0 28.667 1.66699 58.334 5 89.001c4.66699 41.333 17 100.333 37 177c6 24.667 12.667 49.667 20 75c2.66699 8.66699 5 16.667 7 24c1.33301 6 2.33301 9.66699 3 11zM1056 886.998l-198 -200l-198 198l198 200zM1490 889.998l-196 -198l-203 196
l200 200zM1250 1148l-174 -174l-172 172l174 174z" />
    <glyph glyph-name="uni062B.init" unicode="&#x62b;" horiz-adv-x="927" arabic-form="initial" 
d="M843 493c5.33301 -32 8.00098 -62.665 8.00098 -91.998c0 -90.667 -26 -172 -78 -244c-83.333 -114.667 -219 -172 -407 -172h-391v328h384c60 0 102.333 8 127 24c25.333 15.333 38 39.666 38 72.999c0 10 -1.33301 21 -4 33l-20 104
c-2.66699 13.333 -5.33398 27.666 -8.00098 42.999l-4 19l-3 19c-10 54.667 -17.667 93.667 -23 117l313 95c20 -94 42.667 -209.667 68 -347zM410.001 1163l-198 -200l-198 198l198 200zM844.001 1166l-196 -198l-203 196l200 200zM604.001 1424l-174 -174l-172 172
l174 174z" />
    <glyph glyph-name="uni062B.medi" unicode="&#x62b;" horiz-adv-x="1024" arabic-form="medial" 
d="M788 404c0 -32 7.66797 -54.666 23.001 -67.999c17.333 -15.333 48 -23 92 -23h146v-328h-146c-43.333 0 -84.333 4.66699 -123 14c-30.667 7.33301 -59.334 17.666 -86.001 30.999c-30.667 14.667 -53.667 29.334 -69 44.001c-15.333 -14.667 -40 -29.334 -74 -44.001
c-67.333 -30 -147.333 -45 -240 -45h-336v328h359c48 0 81.667 8 101 24c17.333 14 26 36.333 26 67v272h327v-272zM469.001 1101l-198 -200l-198 198l198 200zM903.001 1104l-196 -198l-203 196l200 200zM663.001 1362l-174 -174l-172 172l174 174z" />
    <glyph glyph-name="uni062C.fina" unicode="&#x62c;" horiz-adv-x="1568" arabic-form="final" 
d="M645 1126c64 -8.66699 220.333 -68.998 469 -180.998l216 -98l62 -30l23 -11l21 -319c-0.666992 0 -15.334 -5.33301 -44.001 -16l-165 -61c14.667 -30 28 -53 40 -69c4.66699 -6 9.33398 -11 14.001 -15c2.66699 -2.66699 5.33398 -4.33398 8.00098 -5.00098
c12.667 -6.66699 48.334 -10 107.001 -10h199v-328h-171c-127.333 0 -220.666 14.667 -279.999 44c-56.667 28.667 -106.667 73 -150 133c-26.667 38.667 -51.334 83.667 -74.001 135l-103 -38l-48 -18c-169.333 -63.333 -271.333 -109.666 -306 -138.999
c-8 -6 -14 -12 -18 -18c-2.66699 -4 -5 -9 -7 -15c-2.66699 -7.33301 -4 -17 -4 -29c0 -16 1.66699 -34.667 5 -56c10 -60 25.667 -104.333 47 -133c8 -10.667 16.667 -19.334 26 -26.001c4 -2.66699 8 -5 12 -7c3.33301 -1.33301 7 -3 11 -5
c51.333 -23.333 162.666 -35 333.999 -35h438v-328h-438c-219.333 0 -376 21.667 -470 65c-154 69.333 -248.333 207.666 -283 414.999c-6 36.667 -9 71.667 -9 105c0 131.333 48.333 237.333 145 318c50 42 119 80.333 207 115c102.667 39.333 302 103.333 598 192
l-443 138c-10 3.33301 -18.667 5 -26 5c-18 0 -34.333 -8.66699 -49 -26c-12.667 -15.333 -28.334 -43 -47.001 -83l-308 81c31.333 118 88.333 209.667 171 275c70 54.667 148.333 82 235 82c20.667 0 39 -1.33301 55 -4zM641 10.002l208 210l212 -212l-210 -210z" />
    <glyph glyph-name="uni062C.init" unicode="&#x62c;" horiz-adv-x="1430" arabic-form="initial" 
d="M549 917c54.667 -8 190.668 -42.001 408.001 -102.001l241 -67l154 -45l51 -289c-258 -189.333 -452 -306.333 -582 -351c-153.333 -52 -435 -78 -845 -78v328c264.667 0 456 9.33301 574 28c142.667 22.667 270 69.667 382 141l-73 20l-70 20
c-57.333 16.667 -100.333 28.667 -129 36c-88 24 -143.333 36 -166 36c-18 0 -35 -10.333 -51 -31c-16.667 -20 -29.334 -47.333 -38.001 -82l-317 83c30.667 118.667 87.667 210.334 171 275.001c70.667 55.333 146.667 83 228 83c20 0 40.667 -1.66699 62 -5z
M464.001 -358.001l208 210l212 -212l-210 -210z" />
    <glyph glyph-name="uni062C.medi" unicode="&#x62c;" horiz-adv-x="1532" arabic-form="medial" 
d="M548 917c54.667 -8 190.67 -41.9971 408.003 -101.997l241 -67l154 -45l51 -289l-29 -22l-29 -20l-54 -40c34 -8.66699 82 -14.334 144 -17.001c22 -0.666992 45.667 -1.33398 71 -2.00098h52v-328c-204.667 0 -350.334 20.333 -437.001 61
c-50.667 23.333 -92.334 54.666 -125.001 93.999c-56 -30.667 -114.333 -56.334 -175 -77.001c-153.333 -52 -435 -78 -845 -78v328c264.667 0 456 9.33301 574 28c142.667 22.667 270 69.667 382 141l-73 20l-70 20c-57.333 16.667 -100.333 28.667 -129 36
c-88 24 -143.333 36 -166 36c-18 0 -35 -10.333 -51 -31c-16.667 -20 -29.334 -47.333 -38.001 -82l-317 83c30.667 118.667 87.667 210.334 171 275.001c70.667 55.333 146.667 83 228 83c20 0 40.667 -1.66699 62 -5zM481.003 -357.997l208 210l212 -212l-210 -210z" />
    <glyph glyph-name="uni062D.fina" unicode="&#x62d;" horiz-adv-x="1568" arabic-form="final" 
d="M645 1126c64 -8.66699 220.333 -68.998 469 -180.998l216 -98l62 -30l23 -11l21 -319c-0.666992 0 -15.334 -5.33301 -44.001 -16l-165 -61c14.667 -30 28 -53 40 -69c4.66699 -6 9.33398 -11 14.001 -15c2.66699 -2.66699 5.33398 -4.33398 8.00098 -5.00098
c12.667 -6.66699 48.334 -10 107.001 -10h199v-328h-171c-127.333 0 -220.666 14.667 -279.999 44c-56.667 28.667 -106.667 73 -150 133c-26.667 38.667 -51.334 83.667 -74.001 135l-103 -38l-48 -18c-169.333 -63.333 -271.333 -109.666 -306 -138.999
c-8 -6 -14 -12 -18 -18c-2.66699 -4 -5 -9 -7 -15c-2.66699 -7.33301 -4 -17 -4 -29c0 -16 1.66699 -34.667 5 -56c10 -60 25.667 -104.333 47 -133c8 -10.667 16.667 -19.334 26 -26.001c4 -2.66699 8 -5 12 -7c3.33301 -1.33301 7 -3 11 -5
c51.333 -23.333 162.666 -35 333.999 -35h438v-328h-438c-219.333 0 -376 21.667 -470 65c-154 69.333 -248.333 207.666 -283 414.999c-6 36.667 -9 71.667 -9 105c0 131.333 48.333 237.333 145 318c50 42 119 80.333 207 115c102.667 39.333 302 103.333 598 192
l-443 138c-10 3.33301 -18.667 5 -26 5c-18 0 -34.333 -8.66699 -49 -26c-12.667 -15.333 -28.334 -43 -47.001 -83l-308 81c31.333 118 88.333 209.667 171 275c70 54.667 148.333 82 235 82c20.667 0 39 -1.33301 55 -4z" />
    <glyph glyph-name="uni062D.init" unicode="&#x62d;" horiz-adv-x="1430" arabic-form="initial" 
d="M549 917c54.667 -8 190.668 -42.001 408.001 -102.001l241 -67l154 -45l51 -289c-258 -189.333 -452 -306.333 -582 -351c-153.333 -52 -435 -78 -845 -78v328c264.667 0 456 9.33301 574 28c142.667 22.667 270 69.667 382 141l-73 20l-70 20
c-57.333 16.667 -100.333 28.667 -129 36c-88 24 -143.333 36 -166 36c-18 0 -35 -10.333 -51 -31c-16.667 -20 -29.334 -47.333 -38.001 -82l-317 83c30.667 118.667 87.667 210.334 171 275.001c70.667 55.333 146.667 83 228 83c20 0 40.667 -1.66699 62 -5z" />
    <glyph glyph-name="uni062D.medi" unicode="&#x62d;" horiz-adv-x="1532" arabic-form="medial" 
d="M548 917c54.667 -8 190.67 -41.9971 408.003 -101.997l241 -67l154 -45l51 -289l-29 -22l-29 -20l-54 -40c34 -8.66699 82 -14.334 144 -17.001c22 -0.666992 45.667 -1.33398 71 -2.00098h52v-328c-204.667 0 -350.334 20.333 -437.001 61
c-50.667 23.333 -92.334 54.666 -125.001 93.999c-56 -30.667 -114.333 -56.334 -175 -77.001c-153.333 -52 -435 -78 -845 -78v328c264.667 0 456 9.33301 574 28c142.667 22.667 270 69.667 382 141l-73 20l-70 20c-57.333 16.667 -100.333 28.667 -129 36
c-88 24 -143.333 36 -166 36c-18 0 -35 -10.333 -51 -31c-16.667 -20 -29.334 -47.333 -38.001 -82l-317 83c30.667 118.667 87.667 210.334 171 275.001c70.667 55.333 146.667 83 228 83c20 0 40.667 -1.66699 62 -5z" />
    <glyph glyph-name="uni062E.fina" unicode="&#x62e;" horiz-adv-x="1568" arabic-form="final" 
d="M645 1126c64 -8.66699 220.333 -68.998 469 -180.998l216 -98l62 -30l23 -11l21 -319c-0.666992 0 -15.334 -5.33301 -44.001 -16l-165 -61c14.667 -30 28 -53 40 -69c4.66699 -6 9.33398 -11 14.001 -15c2.66699 -2.66699 5.33398 -4.33398 8.00098 -5.00098
c12.667 -6.66699 48.334 -10 107.001 -10h199v-328h-171c-127.333 0 -220.666 14.667 -279.999 44c-56.667 28.667 -106.667 73 -150 133c-26.667 38.667 -51.334 83.667 -74.001 135l-103 -38l-48 -18c-169.333 -63.333 -271.333 -109.666 -306 -138.999
c-8 -6 -14 -12 -18 -18c-2.66699 -4 -5 -9 -7 -15c-2.66699 -7.33301 -4 -17 -4 -29c0 -16 1.66699 -34.667 5 -56c10 -60 25.667 -104.333 47 -133c8 -10.667 16.667 -19.334 26 -26.001c4 -2.66699 8 -5 12 -7c3.33301 -1.33301 7 -3 11 -5
c51.333 -23.333 162.666 -35 333.999 -35h438v-328h-438c-219.333 0 -376 21.667 -470 65c-154 69.333 -248.333 207.666 -283 414.999c-6 36.667 -9 71.667 -9 105c0 131.333 48.333 237.333 145 318c50 42 119 80.333 207 115c102.667 39.333 302 103.333 598 192
l-443 138c-10 3.33301 -18.667 5 -26 5c-18 0 -34.333 -8.66699 -49 -26c-12.667 -15.333 -28.334 -43 -47.001 -83l-308 81c31.333 118 88.333 209.667 171 275c70 54.667 148.333 82 235 82c20.667 0 39 -1.33301 55 -4zM359 1485l208 210l212 -212l-211 -210z" />
    <glyph glyph-name="uni062E.init" unicode="&#x62e;" horiz-adv-x="1430" arabic-form="initial" 
d="M549 917c54.667 -8 190.668 -42.001 408.001 -102.001l241 -67l154 -45l51 -289c-258 -189.333 -452 -306.333 -582 -351c-153.333 -52 -435 -78 -845 -78v328c264.667 0 456 9.33301 574 28c142.667 22.667 270 69.667 382 141l-73 20l-70 20
c-57.333 16.667 -100.333 28.667 -129 36c-88 24 -143.333 36 -166 36c-18 0 -35 -10.333 -51 -31c-16.667 -20 -29.334 -47.333 -38.001 -82l-317 83c30.667 118.667 87.667 210.334 171 275.001c70.667 55.333 146.667 83 228 83c20 0 40.667 -1.66699 62 -5z
M278.001 1261l208 210l212 -212l-211 -210z" />
    <glyph glyph-name="uni062E.medi" unicode="&#x62e;" horiz-adv-x="1532" arabic-form="medial" 
d="M548 917c54.667 -8 190.67 -41.9971 408.003 -101.997l241 -67l154 -45l51 -289l-29 -22l-29 -20l-54 -40c34 -8.66699 82 -14.334 144 -17.001c22 -0.666992 45.667 -1.33398 71 -2.00098h52v-328c-204.667 0 -350.334 20.333 -437.001 61
c-50.667 23.333 -92.334 54.666 -125.001 93.999c-56 -30.667 -114.333 -56.334 -175 -77.001c-153.333 -52 -435 -78 -845 -78v328c264.667 0 456 9.33301 574 28c142.667 22.667 270 69.667 382 141l-73 20l-70 20c-57.333 16.667 -100.333 28.667 -129 36
c-88 24 -143.333 36 -166 36c-18 0 -35 -10.333 -51 -31c-16.667 -20 -29.334 -47.333 -38.001 -82l-317 83c30.667 118.667 87.667 210.334 171 275.001c70.667 55.333 146.667 83 228 83c20 0 40.667 -1.66699 62 -5zM283.003 1261l208 210l212 -212l-211 -210z" />
    <glyph glyph-name="uni062F.fina" unicode="&#x62f;" horiz-adv-x="1268" arabic-form="final" 
d="M627 1090l70.0029 -104.001l281 -422c6 -9.33301 12.333 -18.666 19 -27.999l25 -36c23.333 -32 45.333 -60 66 -84c58.667 -69.333 103.667 -104 135 -104h70v-327h-95c-97.333 0 -190.333 39.667 -279 119c-28.667 -30.667 -61.334 -56 -98.001 -76
c-68 -38.667 -144.667 -58 -230 -58c-94 0 -210.667 15.667 -350 47c-44 10 -88 21 -132 33c-14.667 4 -28.334 8 -41.001 12c-4.66699 1.33301 -8.66699 2.33301 -12 3l-4 1l-2 1l97 313l80 -23c39.333 -10 77.666 -19 114.999 -27c102.667 -22 185.667 -33 249 -33
c50 0 83 15 99 45c5.33301 9.33301 8 19 8 29c0 17.333 -7 36.333 -21 57l-163 242l-107 159l-78 117l274 179z" />
    <glyph glyph-name="uni0630.fina" unicode="&#x630;" horiz-adv-x="1268" arabic-form="final" 
d="M627 1090l70.0029 -104.001l281 -422c6 -9.33301 12.333 -18.666 19 -27.999l25 -36c23.333 -32 45.333 -60 66 -84c58.667 -69.333 103.667 -104 135 -104h70v-327h-95c-97.333 0 -190.333 39.667 -279 119c-28.667 -30.667 -61.334 -56 -98.001 -76
c-68 -38.667 -144.667 -58 -230 -58c-94 0 -210.667 15.667 -350 47c-44 10 -88 21 -132 33c-14.667 4 -28.334 8 -41.001 12c-4.66699 1.33301 -8.66699 2.33301 -12 3l-4 1l-2 1l97 313l80 -23c39.333 -10 77.666 -19 114.999 -27c102.667 -22 185.667 -33 249 -33
c50 0 83 15 99 45c5.33301 9.33301 8 19 8 29c0 17.333 -7 36.333 -21 57l-163 242l-107 159l-78 117l274 179zM323.003 1455l208 210l212 -212l-211 -210z" />
    <glyph glyph-name="uni0631.fina" unicode="&#x631;" horiz-adv-x="904" arabic-form="final" 
d="M768 677l0.000976562 -273c0 -28.667 14.667 -51.667 44 -69c23.333 -14.667 47 -22 71 -22h46v-328h-46c-38.667 0 -79.667 6.33301 -123 19c-19.333 -147.333 -69 -266 -149 -356c-116.667 -132.667 -287.334 -199 -512.001 -199h-99v328h99
c122.667 0 210 27.667 262 83c52.667 55.333 79 148 79 278v539h328z" />
    <glyph glyph-name="uni0632.fina" unicode="&#x632;" horiz-adv-x="904" arabic-form="final" 
d="M768 677l0.000976562 -273c0 -28.667 14.667 -51.667 44 -69c23.333 -14.667 47 -22 71 -22h46v-328h-46c-38.667 0 -79.667 6.33301 -123 19c-19.333 -147.333 -69 -266 -149 -356c-116.667 -132.667 -287.334 -199 -512.001 -199h-99v328h99
c122.667 0 210 27.667 262 83c52.667 55.333 79 148 79 278v539h328zM398.001 1081l208 210l212 -212l-211 -210z" />
    <glyph glyph-name="uni0633.fina" unicode="&#x633;" horiz-adv-x="2909" arabic-form="final" 
d="M2341 334c25.333 18.667 38.002 51.6641 38.002 98.9971v243h328v-243c0 -41.333 7.66699 -70.666 23 -87.999c18 -21.333 51 -32 99 -32h105v-328h-105c-137.333 0 -233 30.333 -287 91c-79.333 -60.667 -173.333 -91 -282 -91
c-64 0.666992 -116.667 6.33398 -158 17.001c-57.333 14.667 -100.333 39.334 -129 74.001c-79.333 -60.667 -170.333 -91 -273 -91c-56.667 0 -108 6.33301 -154 19c-4.66699 -148.667 -48 -270.667 -130 -366c-54.667 -64 -125.334 -112 -212.001 -144
c-86.667 -30.667 -185 -46 -295 -46h-227c-108 0 -206.333 24 -295 72c-88.667 47.333 -160 114.333 -214 201c-36.667 60.667 -63 126.334 -79 197.001c-12.667 57.333 -19 118 -19 182c0 16 0.333008 32 1 48c10 167.333 62.333 345.666 157 534.999l293 -145
c-75.333 -153.333 -116.333 -289.666 -123 -408.999c-0.666992 -12 -1 -23.667 -1 -35c0 -80.667 16.667 -147.334 50 -200.001c27.333 -44 64.333 -75.667 111 -95c35.333 -15.333 75 -23 119 -23h227c125.333 0 209.666 20.333 252.999 61
c38 35.333 57 101.666 57 198.999v640h327v-243c0 -80 44 -120 132 -120c36.667 0 65.667 7 87 21c30 19.333 45 52.333 45 99v243h328v-243c0 -41.333 7.66699 -70.666 23 -87.999c18 -21.333 51 -32 99 -32c35.333 0 62.333 7 81 21z" />
    <glyph glyph-name="uni0633.init" unicode="&#x633;" horiz-adv-x="1792" arabic-form="initial" 
d="M807 334c25.333 18.667 37.999 51.666 37.999 98.999v243h328v-243c0 -41.333 7.66699 -70.666 23 -87.999c18 -21.333 51 -32 99 -32c76 0 114 26.333 114 79c0 11.333 -1.66699 24 -5 38c-38 156.667 -62.667 261.667 -74 315l318 76l75 -315
c6.66699 -28.667 10 -58.667 10 -90c0 -25.333 -2.33301 -51.666 -7 -78.999c-11.333 -62 -33.666 -118.333 -66.999 -169c-79.333 -122 -195 -183 -347 -183c-68.667 0 -133 10.333 -193 31c-40.667 15.333 -77.667 35.333 -111 60c-79.333 -60.667 -170.333 -91 -273 -91
c-108 0 -201.667 30.333 -281 91c-54 -60.667 -149.667 -91 -287 -91h-192v328h192c48 0 81 10.667 99 32c15.333 17.333 23 46.666 23 87.999v243h328v-243c0 -47.333 11.333 -80.333 34 -99c16 -14 41 -21 75 -21c35.333 0 62.333 7 81 21z" />
    <glyph glyph-name="uni0633.medi" unicode="&#x633;" horiz-adv-x="1890" arabic-form="medial" 
d="M754 334c22.667 18.667 33.999 51.666 33.999 98.999v243h328v-243c0 -43.333 6 -72.666 18 -87.999c15.333 -21.333 46.666 -32 93.999 -32c34 0 59.333 7 76 21c22 18.667 33 51.667 33 99v243h328v-243c0 -41.333 7.66699 -70.666 23 -87.999
c18 -21.333 51 -32 99 -32h128v-328h-128c-137.333 0 -233 30.333 -287 91c-79.333 -60.667 -170 -91 -272 -91c-130.667 0 -223 30.333 -277 91c-79.333 -60.667 -168.666 -91 -267.999 -91c-105.333 0 -197.666 30.333 -276.999 91c-54 -60.667 -149.667 -91 -287 -91
h-144v328h144c48 0 81 10.667 99 32c15.333 17.333 23 46.666 23 87.999v243h328v-243c0 -47.333 11.333 -80.333 34 -99c16 -14 41 -21 75 -21s59.333 7 76 21z" />
    <glyph glyph-name="uni0634.fina" unicode="&#x634;" horiz-adv-x="2909" arabic-form="final" 
d="M2341 334c25.333 18.667 38.002 51.6641 38.002 98.9971v243h328v-243c0 -41.333 7.66699 -70.666 23 -87.999c18 -21.333 51 -32 99 -32h105v-328h-105c-137.333 0 -233 30.333 -287 91c-79.333 -60.667 -173.333 -91 -282 -91
c-64 0.666992 -116.667 6.33398 -158 17.001c-57.333 14.667 -100.333 39.334 -129 74.001c-79.333 -60.667 -170.333 -91 -273 -91c-56.667 0 -108 6.33301 -154 19c-4.66699 -148.667 -48 -270.667 -130 -366c-54.667 -64 -125.334 -112 -212.001 -144
c-86.667 -30.667 -185 -46 -295 -46h-227c-108 0 -206.333 24 -295 72c-88.667 47.333 -160 114.333 -214 201c-36.667 60.667 -63 126.334 -79 197.001c-12.667 57.333 -19 118 -19 182c0 16 0.333008 32 1 48c10 167.333 62.333 345.666 157 534.999l293 -145
c-75.333 -153.333 -116.333 -289.666 -123 -408.999c-0.666992 -12 -1 -23.667 -1 -35c0 -80.667 16.667 -147.334 50 -200.001c27.333 -44 64.333 -75.667 111 -95c35.333 -15.333 75 -23 119 -23h227c125.333 0 209.666 20.333 252.999 61
c38 35.333 57 101.666 57 198.999v640h327v-243c0 -80 44 -120 132 -120c36.667 0 65.667 7 87 21c30 19.333 45 52.333 45 99v243h328v-243c0 -41.333 7.66699 -70.666 23 -87.999c18 -21.333 51 -32 99 -32c35.333 0 62.333 7 81 21zM1963 1086l-198 -200l-198 198
l198 200zM2397 1089l-196 -198l-203 196l200 200zM2157 1347l-174 -174l-172 172l174 174z" />
    <glyph glyph-name="uni0634.init" unicode="&#x634;" horiz-adv-x="1792" arabic-form="initial" 
d="M807 334c25.333 18.667 37.999 51.666 37.999 98.999v243h328v-243c0 -41.333 7.66699 -70.666 23 -87.999c18 -21.333 51 -32 99 -32c76 0 114 26.333 114 79c0 11.333 -1.66699 24 -5 38c-38 156.667 -62.667 261.667 -74 315l318 76l75 -315
c6.66699 -28.667 10 -58.667 10 -90c0 -25.333 -2.33301 -51.666 -7 -78.999c-11.333 -62 -33.666 -118.333 -66.999 -169c-79.333 -122 -195 -183 -347 -183c-68.667 0 -133 10.333 -193 31c-40.667 15.333 -77.667 35.333 -111 60c-79.333 -60.667 -170.333 -91 -273 -91
c-108 0 -201.667 30.333 -281 91c-54 -60.667 -149.667 -91 -287 -91h-192v328h192c48 0 81 10.667 99 32c15.333 17.333 23 46.666 23 87.999v243h328v-243c0 -47.333 11.333 -80.333 34 -99c16 -14 41 -21 75 -21c35.333 0 62.333 7 81 21zM991.999 1118l-198 -200
l-198 198l198 200zM1426 1121l-196 -198l-203 196l200 200zM1186 1379l-174 -174l-172 172l174 174z" />
    <glyph glyph-name="uni0634.medi" unicode="&#x634;" horiz-adv-x="1890" arabic-form="medial" 
d="M754 334c22.667 18.667 33.999 51.666 33.999 98.999v243h328v-243c0 -43.333 6 -72.666 18 -87.999c15.333 -21.333 46.666 -32 93.999 -32c34 0 59.333 7 76 21c22 18.667 33 51.667 33 99v243h328v-243c0 -41.333 7.66699 -70.666 23 -87.999
c18 -21.333 51 -32 99 -32h128v-328h-128c-137.333 0 -233 30.333 -287 91c-79.333 -60.667 -170 -91 -272 -91c-130.667 0 -223 30.333 -277 91c-79.333 -60.667 -168.666 -91 -267.999 -91c-105.333 0 -197.666 30.333 -276.999 91c-54 -60.667 -149.667 -91 -287 -91
h-144v328h144c48 0 81 10.667 99 32c15.333 17.333 23 46.666 23 87.999v243h328v-243c0 -47.333 11.333 -80.333 34 -99c16 -14 41 -21 75 -21s59.333 7 76 21zM931.999 1090l-198 -200l-198 198l198 200zM1366 1093l-196 -198l-203 196l200 200zM1126 1351l-174 -174
l-172 172l174 174z" />
    <glyph glyph-name="uni0635.fina" unicode="&#x635;" horiz-adv-x="2809" arabic-form="final" 
d="M921 -224c54.667 0 102.667 4.66797 144 14.001c53.333 12.667 92 32.667 116 60c33.333 38 50 99.333 50 184v642h327l1 -262c68.667 95.333 136 176 202 242c73.333 73.333 147.333 129.666 222 168.999c93.333 49.333 188.666 74 286 74
c179.333 0 308.333 -57 387 -171c28.667 -41.333 49.334 -89 62 -143c9.33301 -40 14 -80 14 -120c0 -56 -5.66699 -106.667 -17 -152h119v-328h-1161c-36.667 0 -74.667 4.33301 -114 13c-5.33301 -148 -49 -269 -131 -363c-56 -64 -127 -111.333 -213 -142
c-82.667 -30 -180.667 -45 -294 -45h-239c-108 0 -206.333 24 -295 72c-88.667 47.333 -160 114.333 -214 201c-36.667 60.667 -63 126.334 -79 197.001c-12.667 57.333 -19 118 -19 182c0 16 0.333008 32 1 48c10 167.333 62.333 345.666 157 534.999l293 -145
c-75.333 -153.333 -116.333 -289.666 -123 -408.999c-0.666992 -12 -1 -23.667 -1 -35c0 -80.667 16.667 -147.334 50 -200.001c27.333 -44 64.333 -75.667 111 -95c35.333 -15.333 75 -23 119 -23h239zM2252 313.001c76 0 127 15.998 153 47.998
c10 12.667 16.667 28.334 20 47.001c2.66699 12.667 4 30.334 4 53.001c0 74 -47.667 111 -143 111c-67.333 0 -153 -38.333 -257 -115c-36 -26.667 -71.333 -55.667 -106 -87c-27.333 -25.333 -46.333 -44.333 -57 -57h386z" />
    <glyph glyph-name="uni0635.init" unicode="&#x635;" horiz-adv-x="1831" arabic-form="initial" 
d="M1301 313c76 0 127 15.998 153 47.998c10 12.667 16.667 28.334 20 47.001c2.66699 12.667 4 30.334 4 53.001c0 74 -47.667 111 -143 111c-67.333 0 -153 -38.333 -257 -115c-36 -26.667 -71.333 -55.667 -106 -87c-27.333 -25.333 -46.333 -44.333 -57 -57h386z
M1705 727.998c28.667 -41.333 49.333 -88.998 62 -142.998c9.33301 -40 14 -80 14 -120c0 -197.333 -69 -335.333 -207 -414c-47.333 -26.667 -101 -45.334 -161 -56.001c-21.333 -4 -43.333 -6.66699 -66 -8l-26 -2h-599c-106.667 0 -199 28.333 -277 85
c-82 -56.667 -186.667 -85 -314 -85h-156v328h156c68.667 0 113 10.667 133 32c6 6 10 14.667 12 26c2 8 3 17.333 3 28v278h328v-264c70.667 98 138.334 179 203.001 243c73.333 73.333 147.333 129.666 222 168.999c93.333 49.333 188.666 74 285.999 74
c179.333 0 308.333 -57 387 -171z" />
    <glyph glyph-name="uni0635.medi" unicode="&#x635;" horiz-adv-x="1901" arabic-form="medial" 
d="M1926 -15l-587.001 0.000976562v1c-6.66699 -0.666992 -13.667 -1 -21 -1h-596c-106.667 0 -199 28.333 -277 85c-82 -56.667 -186.667 -85 -314 -85h-156v328h156c68.667 0 113 10.667 133 32c6 6 10 14.667 12 26c2 8 3 17.333 3 28v278h328v-264
c70.667 98 138.334 179 203.001 243c73.333 73.333 147.333 129.666 222 168.999c93.333 49.333 188.666 74 285.999 74c179.333 0 308.333 -57 387 -171c28.667 -41.333 49.334 -89 62.001 -143c9.33301 -40 14 -80 14 -120c0 -56 -5.66699 -106.667 -17 -152h162v-328z
M1301 313.001c76 0 127 15.998 153 47.998c10 12.667 16.667 28.334 20 47.001c2.66699 12.667 4 30.334 4 53.001c0 74 -47.667 111 -143 111c-67.333 0 -153 -38.333 -257 -115c-36 -26.667 -71.333 -55.667 -106 -87c-27.333 -25.333 -46.333 -44.333 -57 -57h386z" />
    <glyph glyph-name="uni0636.fina" unicode="&#x636;" horiz-adv-x="2809" arabic-form="final" 
d="M921 -224c54.667 0 102.667 4.66797 144 14.001c53.333 12.667 92 32.667 116 60c33.333 38 50 99.333 50 184v642h327l1 -262c68.667 95.333 136 176 202 242c73.333 73.333 147.333 129.666 222 168.999c93.333 49.333 188.666 74 286 74
c179.333 0 308.333 -57 387 -171c28.667 -41.333 49.334 -89 62 -143c9.33301 -40 14 -80 14 -120c0 -56 -5.66699 -106.667 -17 -152h119v-328h-1161c-36.667 0 -74.667 4.33301 -114 13c-5.33301 -148 -49 -269 -131 -363c-56 -64 -127 -111.333 -213 -142
c-82.667 -30 -180.667 -45 -294 -45h-239c-108 0 -206.333 24 -295 72c-88.667 47.333 -160 114.333 -214 201c-36.667 60.667 -63 126.334 -79 197.001c-12.667 57.333 -19 118 -19 182c0 16 0.333008 32 1 48c10 167.333 62.333 345.666 157 534.999l293 -145
c-75.333 -153.333 -116.333 -289.666 -123 -408.999c-0.666992 -12 -1 -23.667 -1 -35c0 -80.667 16.667 -147.334 50 -200.001c27.333 -44 64.333 -75.667 111 -95c35.333 -15.333 75 -23 119 -23h239zM2252 313.001c76 0 127 15.998 153 47.998
c10 12.667 16.667 28.334 20 47.001c2.66699 12.667 4 30.334 4 53.001c0 74 -47.667 111 -143 111c-67.333 0 -153 -38.333 -257 -115c-36 -26.667 -71.333 -55.667 -106 -87c-27.333 -25.333 -46.333 -44.333 -57 -57h386zM2072 1243l208 210l212 -212l-211 -210z" />
    <glyph glyph-name="uni0636.init" unicode="&#x636;" horiz-adv-x="1831" arabic-form="initial" 
d="M1301 313c76 0 127 15.998 153 47.998c10 12.667 16.667 28.334 20 47.001c2.66699 12.667 4 30.334 4 53.001c0 74 -47.667 111 -143 111c-67.333 0 -153 -38.333 -257 -115c-36 -26.667 -71.333 -55.667 -106 -87c-27.333 -25.333 -46.333 -44.333 -57 -57h386z
M1705 727.998c28.667 -41.333 49.333 -88.998 62 -142.998c9.33301 -40 14 -80 14 -120c0 -197.333 -69 -335.333 -207 -414c-47.333 -26.667 -101 -45.334 -161 -56.001c-21.333 -4 -43.333 -6.66699 -66 -8l-26 -2h-599c-106.667 0 -199 28.333 -277 85
c-82 -56.667 -186.667 -85 -314 -85h-156v328h156c68.667 0 113 10.667 133 32c6 6 10 14.667 12 26c2 8 3 17.333 3 28v278h328v-264c70.667 98 138.334 179 203.001 243c73.333 73.333 147.333 129.666 222 168.999c93.333 49.333 188.666 74 285.999 74
c179.333 0 308.333 -57 387 -171zM1087 1238l208 210l212 -212l-211 -210z" />
    <glyph glyph-name="uni0636.medi" unicode="&#x636;" horiz-adv-x="1901" arabic-form="medial" 
d="M1926 -15l-587.001 0.000976562v1c-6.66699 -0.666992 -13.667 -1 -21 -1h-596c-106.667 0 -199 28.333 -277 85c-82 -56.667 -186.667 -85 -314 -85h-156v328h156c68.667 0 113 10.667 133 32c6 6 10 14.667 12 26c2 8 3 17.333 3 28v278h328v-264
c70.667 98 138.334 179 203.001 243c73.333 73.333 147.333 129.666 222 168.999c93.333 49.333 188.666 74 285.999 74c179.333 0 308.333 -57 387 -171c28.667 -41.333 49.334 -89 62.001 -143c9.33301 -40 14 -80 14 -120c0 -56 -5.66699 -106.667 -17 -152h162v-328z
M1301 313.001c76 0 127 15.998 153 47.998c10 12.667 16.667 28.334 20 47.001c2.66699 12.667 4 30.334 4 53.001c0 74 -47.667 111 -143 111c-67.333 0 -153 -38.333 -257 -115c-36 -26.667 -71.333 -55.667 -106 -87c-27.333 -25.333 -46.333 -44.333 -57 -57h386z
M1104 1243l208 210l212 -212l-211 -210z" />
    <glyph glyph-name="uni0637.fina" unicode="&#x637;" horiz-adv-x="1561" arabic-form="final" 
d="M644 818l-4 -35c16 10.667 39.333 24.667 70 42c93.333 49.333 188.666 74 285.999 74c180 0 309 -57 387 -171c28.667 -41.333 49.334 -89 62.001 -143c9.33301 -39.333 14 -79.333 14 -120c0 -56 -5.66699 -106.667 -17 -152h143c0.666992 0 1 -27.333 1 -82
s-0.333008 -136.667 -1 -246h-1515v328h178l69 108v1007h327v-610zM979 313c76 0 127 15.998 153 47.998c10 12.667 16.667 28.334 20 47.001c2.66699 12.667 4 30.334 4 53.001c0 74 -47.667 111 -143 111c-67.333 0 -153 -38.333 -257 -115
c-36 -26.667 -71.333 -55.667 -106 -87c-27.333 -25.333 -46.333 -44.333 -57 -57h386z" />
    <glyph glyph-name="uni0637.init" unicode="&#x637;" horiz-adv-x="1417" arabic-form="initial" 
d="M887 313c76 0 127 15.998 153 47.998c10 12.667 16.667 28.334 20 47.001c2.66699 12.667 4 30.334 4 53.001c0 74 -47.667 111 -143 111c-67.333 0 -153 -38.333 -257 -115c-36 -26.667 -71.333 -55.667 -106 -87c-27.333 -25.333 -46.333 -44.333 -57 -57h386z
M552 817.998l-4 -34.999c16 10.667 39.333 24.667 70 42c93.333 49.333 188.666 74 285.999 74c180 0 309 -57 387 -171c28.667 -41.333 49.334 -89 62.001 -143c9.33301 -39.333 14 -79.333 14 -120c0 -197.333 -69 -335.333 -207 -414
c-47.333 -26.667 -101 -45.334 -161 -56.001c-21.333 -4 -43.333 -6.66699 -66 -8l-26 -2h-932v328h181l69 108v1007h327v-610z" />
    <glyph glyph-name="uni0637.medi" unicode="&#x637;" horiz-adv-x="1465" arabic-form="medial" 
d="M552 818l-4 -35c16 10.667 39.333 24.667 70 42c93.333 49.333 188.666 74 285.999 74c180 0 309 -57 387 -171c28.667 -41.333 49.334 -89 62.001 -143c9.33301 -39.333 14 -79.333 14 -120c0 -56 -5.66699 -106.667 -17 -152h139c0.666992 0 1 -27.333 1 -82
s-0.333008 -136.667 -1 -246h-1514v328h181l69 108v1007h327v-610zM887 313c76 0 127 15.998 153 47.998c10 12.667 16.667 28.334 20 47.001c2.66699 12.667 4 30.334 4 53.001c0 74 -47.667 111 -143 111c-67.333 0 -153 -38.333 -257 -115
c-36 -26.667 -71.333 -55.667 -106 -87c-27.333 -25.333 -46.333 -44.333 -57 -57h386z" />
    <glyph glyph-name="uni0638.fina" unicode="&#x638;" horiz-adv-x="1561" arabic-form="final" 
d="M644 818l-4 -35c16 10.667 39.333 24.667 70 42c93.333 49.333 188.666 74 285.999 74c180 0 309 -57 387 -171c28.667 -41.333 49.334 -89 62.001 -143c9.33301 -39.333 14 -79.333 14 -120c0 -56 -5.66699 -106.667 -17 -152h143c0.666992 0 1 -27.333 1 -82
s-0.333008 -136.667 -1 -246h-1515v328h178l69 108v1007h327v-610zM979 313c76 0 127 15.998 153 47.998c10 12.667 16.667 28.334 20 47.001c2.66699 12.667 4 30.334 4 53.001c0 74 -47.667 111 -143 111c-67.333 0 -153 -38.333 -257 -115
c-36 -26.667 -71.333 -55.667 -106 -87c-27.333 -25.333 -46.333 -44.333 -57 -57h386zM821 1284l208 210l212 -212l-211 -210z" />
    <glyph glyph-name="uni0638.init" unicode="&#x638;" horiz-adv-x="1417" arabic-form="initial" 
d="M887 313c76 0 127 15.998 153 47.998c10 12.667 16.667 28.334 20 47.001c2.66699 12.667 4 30.334 4 53.001c0 74 -47.667 111 -143 111c-67.333 0 -153 -38.333 -257 -115c-36 -26.667 -71.333 -55.667 -106 -87c-27.333 -25.333 -46.333 -44.333 -57 -57h386z
M552 817.998l-4 -34.999c16 10.667 39.333 24.667 70 42c93.333 49.333 188.666 74 285.999 74c180 0 309 -57 387 -171c28.667 -41.333 49.334 -89 62.001 -143c9.33301 -39.333 14 -79.333 14 -120c0 -197.333 -69 -335.333 -207 -414
c-47.333 -26.667 -101 -45.334 -161 -56.001c-21.333 -4 -43.333 -6.66699 -66 -8l-26 -2h-932v328h181l69 108v1007h327v-610zM709 1282l208 210l212 -212l-211 -210z" />
    <glyph glyph-name="uni0638.medi" unicode="&#x638;" horiz-adv-x="1465" arabic-form="medial" 
d="M552 818l-4 -35c16 10.667 39.333 24.667 70 42c93.333 49.333 188.666 74 285.999 74c180 0 309 -57 387 -171c28.667 -41.333 49.334 -89 62.001 -143c9.33301 -39.333 14 -79.333 14 -120c0 -56 -5.66699 -106.667 -17 -152h139c0.666992 0 1 -27.333 1 -82
s-0.333008 -136.667 -1 -246h-1514v328h181l69 108v1007h327v-610zM887 313c76 0 127 15.998 153 47.998c10 12.667 16.667 28.334 20 47.001c2.66699 12.667 4 30.334 4 53.001c0 74 -47.667 111 -143 111c-67.333 0 -153 -38.333 -257 -115
c-36 -26.667 -71.333 -55.667 -106 -87c-27.333 -25.333 -46.333 -44.333 -57 -57h386zM730 1283l208 210l212 -212l-211 -210z" />
    <glyph glyph-name="uni0639.fina" unicode="&#x639;" horiz-adv-x="1382" arabic-form="final" 
d="M904 608c48.667 35.333 76.999 58.665 84.999 69.998c0 1.33301 -1 4 -3 8c-2.66699 4.66699 -6 9 -10 13c-10.667 12 -21.667 18 -33 18h-371c-17.333 0 -30.666 -4.33301 -39.999 -13c-3.33301 -3.33301 -6 -6.66602 -8 -9.99902l-3 -6v-1c18 -16 54.667 -47 110 -93
l31 -25c12 -9.33301 22 -17.666 30 -24.999l48 -41c55.333 31.333 110 66.333 164 105zM904.999 1030c70 0 134.668 -18 194.001 -54c58.667 -35.333 103.667 -82.333 135 -141c26.667 -50 40 -102.333 40 -157c0 -6.66699 -0.333008 -13 -1 -19
c-4 -61.333 -23.667 -118.666 -59 -171.999c-21.333 -31.333 -51.333 -63 -90 -95c-15.333 -13.333 -33 -27 -53 -41l-53 -38h389v-328h-364c-54.667 0 -109.334 11.333 -164.001 34c-38.667 16 -80.667 39.667 -126 71c-14 9.33301 -33 23 -57 41
c-107.333 -55.333 -182 -103.333 -224 -144c-48.667 -48 -73 -103.667 -73 -167c0 -67.333 24.333 -126 73 -176c48 -49.333 105 -74 171 -74h593v-327h-593c-79.333 0 -154 15.333 -224 46c-68.667 30 -129 71.667 -181 125c-52 52.667 -92.667 113.667 -122 183
c-30 73.333 -45 147.666 -45 222.999c0 169.333 67.333 312.333 202 429c44 38 95 74.333 153 109l-165 141l-58 125c0 40 4.66699 78.667 14 116c12 48.667 31.333 92.667 58 132c33.333 50 77 88.667 131 116c55.333 28 119 42 191 42h308z" />
    <glyph glyph-name="uni0639.init" unicode="&#x639;" horiz-adv-x="1135" arabic-form="initial" 
d="M830 927c44.667 -17.333 108.001 -50 190.001 -98l15 -8l-164 -284c-110 65.333 -196 101.333 -258 108l-28 2c-50 0 -88.667 -15.667 -116 -47c-24 -27.333 -36 -61 -36 -101c0 -56.667 35.667 -102 107 -136c69.333 -33.333 158 -50 266 -50h203v-328h-1038v329h170
c-24.667 59.333 -37 122 -37 188c0 122.667 39 228 117 316c92 102 219.667 153 383 153c77.333 0 152.666 -14.667 225.999 -44z" />
    <glyph glyph-name="uni0639.medi" unicode="&#x639;" horiz-adv-x="1280" arabic-form="medial" 
d="M718 493c20.667 22 40.332 44 58.999 66c49.333 59.333 74 97 74 113v1c-38.667 7.33301 -102 11 -190 11c-104 0 -179.333 -3.66699 -226 -11l32 -32l30 -29l36 -35c65.333 -62.667 113.333 -104.667 144 -126c8.66699 8 22.334 22 41.001 42zM815.998 992
c70.667 0 135.003 -17.0029 193.003 -51.0029s101.667 -80 131 -138c22.667 -45.333 34 -92.666 34 -141.999c0 -12.667 -0.666992 -25.667 -2 -39c-8 -64 -32.667 -123.667 -74 -179c-38.667 -51.333 -74.334 -94.666 -107.001 -129.999h304v-328h-376
c-67.333 0 -154 32 -260 96c-157.333 -64 -360.333 -96 -609 -96h-65v328h65c99.333 0 189.666 5.33301 270.999 16l-73 62l-58 51c-8 6 -15.667 12.667 -23 20l-17 15c-10.667 9.33301 -16.334 14.333 -17.001 15l-53 48v73c0 118.667 35 211.334 105 278.001
c69.333 67.333 167 101 293 101h338z" />
    <glyph glyph-name="uni063A.fina" unicode="&#x63a;" horiz-adv-x="1382" arabic-form="final" 
d="M904 608c48.667 35.333 76.999 58.665 84.999 69.998c0 1.33301 -1 4 -3 8c-2.66699 4.66699 -6 9 -10 13c-10.667 12 -21.667 18 -33 18h-371c-17.333 0 -30.666 -4.33301 -39.999 -13c-3.33301 -3.33301 -6 -6.66602 -8 -9.99902l-3 -6v-1c18 -16 54.667 -47 110 -93
l31 -25c12 -9.33301 22 -17.666 30 -24.999l48 -41c55.333 31.333 110 66.333 164 105zM904.999 1030c70 0 134.668 -18 194.001 -54c58.667 -35.333 103.667 -82.333 135 -141c26.667 -50 40 -102.333 40 -157c0 -6.66699 -0.333008 -13 -1 -19
c-4 -61.333 -23.667 -118.666 -59 -171.999c-21.333 -31.333 -51.333 -63 -90 -95c-15.333 -13.333 -33 -27 -53 -41l-53 -38h389v-328h-364c-54.667 0 -109.334 11.333 -164.001 34c-38.667 16 -80.667 39.667 -126 71c-14 9.33301 -33 23 -57 41
c-107.333 -55.333 -182 -103.333 -224 -144c-48.667 -48 -73 -103.667 -73 -167c0 -67.333 24.333 -126 73 -176c48 -49.333 105 -74 171 -74h593v-327h-593c-79.333 0 -154 15.333 -224 46c-68.667 30 -129 71.667 -181 125c-52 52.667 -92.667 113.667 -122 183
c-30 73.333 -45 147.666 -45 222.999c0 169.333 67.333 312.333 202 429c44 38 95 74.333 153 109l-165 141l-58 125c0 40 4.66699 78.667 14 116c12 48.667 31.333 92.667 58 132c33.333 50 77 88.667 131 116c55.333 28 119 42 191 42h308zM526 1326l208 210l212 -212
l-211 -210z" />
    <glyph glyph-name="uni063A.init" unicode="&#x63a;" horiz-adv-x="1135" arabic-form="initial" 
d="M830 927c44.667 -17.333 108.001 -50 190.001 -98l15 -8l-164 -284c-110 65.333 -196 101.333 -258 108l-28 2c-50 0 -88.667 -15.667 -116 -47c-24 -27.333 -36 -61 -36 -101c0 -56.667 35.667 -102 107 -136c69.333 -33.333 158 -50 266 -50h203v-328h-1038v329h170
c-24.667 59.333 -37 122 -37 188c0 122.667 39 228 117 316c92 102 219.667 153 383 153c77.333 0 152.666 -14.667 225.999 -44zM387.001 1274l208 210l212 -212l-211 -210z" />
    <glyph glyph-name="uni063A.medi" unicode="&#x63a;" horiz-adv-x="1280" arabic-form="medial" 
d="M718 493c20.667 22 40.332 44 58.999 66c49.333 59.333 74 97 74 113v1c-38.667 7.33301 -102 11 -190 11c-104 0 -179.333 -3.66699 -226 -11l32 -32l30 -29l36 -35c65.333 -62.667 113.333 -104.667 144 -126c8.66699 8 22.334 22 41.001 42zM815.998 992
c70.667 0 135.003 -17.0029 193.003 -51.0029s101.667 -80 131 -138c22.667 -45.333 34 -92.666 34 -141.999c0 -12.667 -0.666992 -25.667 -2 -39c-8 -64 -32.667 -123.667 -74 -179c-38.667 -51.333 -74.334 -94.666 -107.001 -129.999h304v-328h-376
c-67.333 0 -154 32 -260 96c-157.333 -64 -360.333 -96 -609 -96h-65v328h65c99.333 0 189.666 5.33301 270.999 16l-73 62l-58 51c-8 6 -15.667 12.667 -23 20l-17 15c-10.667 9.33301 -16.334 14.333 -17.001 15l-53 48v73c0 118.667 35 211.334 105 278.001
c69.333 67.333 167 101 293 101h338zM441.001 1292l208 210l212 -212l-211 -210z" />
    <glyph glyph-name="uni0641.fina" unicode="&#x641;" horiz-adv-x="2105" arabic-form="final" 
d="M1915 875c90.667 -96 136.001 -214.67 136.001 -356.003c0 -76 -14 -144.667 -42 -206h119v-328h-145c-162.667 0 -304.334 18.333 -425.001 55c-114 -36.667 -256 -55 -426 -55h-393c-188 0 -308.333 4.66699 -361 14c-102.667 17.333 -181 67 -235 149
c-34 51.333 -55.333 110 -64 176c-2.66699 24 -4 49 -4 75c0 28.667 1.66699 58.334 5 89.001c4.66699 41.333 17 100.333 37 177c6 24.667 12.667 49.667 20 75c2.66699 8.66699 5 16.667 7 24c1.33301 6 2.33301 9.66699 3 11l315 -89
c-34 -121.333 -56.667 -220.666 -68 -297.999c-0.666992 -5.33301 -1 -10.666 -1 -15.999c0 -12.667 2.33301 -23.667 7 -33c8 -17.333 22.333 -26 43 -26h663c-28 61.333 -42 130 -42 206c0 141.333 45.333 260 136 356c94 99.333 213.333 149 358 149
s263.667 -49.667 357 -149zM1700 421.997c20 26 30 58.333 30 97c0 46.667 -13.333 86.334 -40 119.001c-31.333 38.667 -75.333 58 -132 58s-100.667 -19.333 -132 -58c-26.667 -32.667 -40 -72.334 -40 -119.001c0 -38.667 10.333 -71 31 -97
c27.333 -36 74.333 -63 141 -81c66.667 18 114 45 142 81zM1353 1339l208 210l212 -212l-211 -210z" />
    <glyph glyph-name="uni0641.init" unicode="&#x641;" horiz-adv-x="1105" arabic-form="initial" 
d="M743 659l-2.00098 23c-2 16.667 -4 31.667 -6 45c-5.33301 35.333 -13 65 -23 89c-25.333 63.333 -70.333 98 -135 104l-10 1h-9c-43.333 0 -77.666 -13 -102.999 -39c-22.667 -24 -34 -54.333 -34 -91v-9c2.66699 -64.667 35.334 -106.667 98.001 -126
c39.333 -12 114.666 -18 225.999 -18zM971.999 993c61.333 -118 92.002 -271 92.002 -459c0 -202 -77.333 -350.333 -232 -445c-114 -69.333 -254.333 -104 -421 -104h-420v328h420c111.333 0 193.666 7.33301 246.999 22c-152.667 0 -277.334 32.667 -374.001 98
c-114.667 78 -172 192.667 -172 344c0 44.667 6.33301 90 19 136c15.333 56 39 105.667 71 149c82 113.333 206.667 170 374 170c182 0 314 -79.667 396 -239zM295.001 1560l208 210l212 -212l-211 -210z" />
    <glyph glyph-name="uni0641.medi" unicode="&#x641;" horiz-adv-x="1101" arabic-form="medial" 
d="M693 422c20 26 30 58.333 30 97c0 46.667 -13.333 86.334 -40 119.001c-31.333 38.667 -75.333 58 -132 58s-100.667 -19.333 -132 -58c-26.667 -32.667 -40 -72.334 -40 -119.001c0 -38.667 10.333 -71 31 -97c27.333 -36 74.333 -63 141 -81c66.667 18 114 45 142 81z
M908 875c90.667 -96 136.001 -214.667 136.001 -356c0 -76 -14 -144.667 -42 -206h119v-328h-145c-162.667 0 -304.334 18.333 -425.001 55c-114 -36.667 -256 -55 -426 -55h-145v328h119c-28 61.333 -42 130 -42 206c0 141.333 45.333 260 136 356
c94 99.333 213.333 149 358 149s263.667 -49.667 357 -149zM336.001 1330l208 210l212 -212l-211 -210z" />
    <glyph glyph-name="uni0642.fina" unicode="&#x642;" horiz-adv-x="1644" arabic-form="final" 
d="M1444 781c80.667 -98 121.003 -219.998 121.003 -365.998v-102h105v-328h-110c-10 -139.333 -52.333 -254 -127 -344c-54.667 -62.667 -125.667 -110.334 -213 -143.001c-83.333 -30.667 -181.333 -46 -294 -46h-195c-114.667 0 -217.667 21 -309 63
c-104 47.333 -185.667 117 -245 209c-64 101.333 -96 220 -96 356c0 15.333 0.333008 31 1 47c8 155.333 55.667 327.666 143 516.999l298 -137c-70 -150.667 -108 -283 -114 -397c-0.666992 -9.33301 -1 -18.666 -1 -27.999c0 -74.667 15 -135 45 -181
c29.333 -46.667 74.666 -80 135.999 -100c23.333 -8 48.666 -13.667 75.999 -17c21.333 -2.66699 43.333 -4 66 -4h195c108 0 185.333 17.333 232 52c42 30.667 66.667 81.667 74 153h-140c-119.333 0 -220.333 32 -303 96c-100.667 77.333 -151 188.666 -151 333.999
c0 138 33.333 255 100 351c81.333 117.333 199.333 176 354 176c147.333 0 264.666 -53.667 351.999 -161zM1237 312.002l0.000976562 103c0 61.333 -13 110 -39 146c-26 35.333 -61.333 53 -106 53c-45.333 0 -81.333 -17.667 -108 -53c-24.667 -32.667 -37 -75 -37 -127
c0 -6 0.333008 -12.333 1 -19c2 -35.333 17.667 -62 47 -80c25.333 -15.333 57.666 -23 96.999 -23h145zM1296 1043l-196 198l194 200l200 -200zM877.004 1042l-196 198l193 200l200 -200z" />
    <glyph glyph-name="uni0642.init" unicode="&#x642;" horiz-adv-x="1105" arabic-form="initial" 
d="M734 659l-2.00098 23c-2 16.667 -4 31.667 -6 45c-5.33301 35.333 -13 65 -23 89c-25.333 63.333 -70.333 98 -135 104l-10 1h-9c-43.333 0 -77.666 -13 -102.999 -39c-22.667 -24 -34 -54.333 -34 -91v-9c2.66699 -64.667 35.334 -106.667 98.001 -126
c39.333 -12 114.666 -18 225.999 -18zM962.999 993c61.333 -118 92.002 -271 92.002 -459c0 -202 -77.333 -350.333 -232 -445c-114 -69.333 -254.333 -104 -421 -104h-420v328h420c111.333 0 193.666 7.33301 246.999 22c-152.667 0 -277.334 32.667 -374.001 98
c-114.667 78 -172 192.667 -172 344c0 44.667 6.33301 90 19 136c15.333 56 39 105.667 71 149c82 113.333 206.667 170 374 170c182 0 314 -79.667 396 -239zM713.001 1336l-196 198l194 200l200 -200zM294.001 1335l-196 198l193 200l200 -200z" />
    <glyph glyph-name="uni0642.medi" unicode="&#x642;" horiz-adv-x="1101" arabic-form="medial" 
d="M693 422c20 26 30 58.333 30 97c0 46.667 -13.333 86.334 -40 119.001c-31.333 38.667 -75.333 58 -132 58s-100.667 -19.333 -132 -58c-26.667 -32.667 -40 -72.334 -40 -119.001c0 -38.667 10.333 -71 31 -97c27.333 -36 74.333 -63 141 -81c66.667 18 114 45 142 81z
M908 875c90.667 -96 136.001 -214.667 136.001 -356c0 -76 -14 -144.667 -42 -206h119v-328h-145c-162.667 0 -304.334 18.333 -425.001 55c-114 -36.667 -256 -55 -426 -55h-145v328h119c-28 61.333 -42 130 -42 206c0 141.333 45.333 260 136 356
c94 99.333 213.333 149 358 149s263.667 -49.667 357 -149zM756.001 1140l-196 198l194 200l200 -200zM337.001 1139l-196 198l193 200l200 -200z" />
    <glyph glyph-name="uni0643.fina" unicode="&#x643;" horiz-adv-x="2195" arabic-form="final" 
d="M1135 965c-40.667 -24 -74.6689 -46.666 -102.002 -67.999c-20 -16 -36 -31 -48 -45c12.667 0 27.667 0.666992 45 2l45 4c16 1.33301 30.667 2 44 2c16.667 0 31.334 -1 44.001 -3c38 -4.66699 68.333 -18 91 -40c9.33301 -8 17 -17.333 23 -28
c4.66699 -8.66699 8.33398 -17.334 11.001 -26.001c4.66699 -14 7 -28 7 -42c0 -23.333 -6.66699 -46.666 -20 -69.999c-27.333 -46 -78.333 -83.667 -153 -113c-30 -11.333 -64.333 -22 -103 -32c-27.333 -6.66699 -61 -14 -101 -22l-32 161
c16 3.33301 36.667 6.66602 62 9.99902l62 10c46.667 7.33301 77.667 14 93 20h-23c-16 0.666992 -31.333 1 -46 1c-45.333 0.666992 -75.333 2 -90 4c-35.333 4 -64.333 14.667 -87 32c-17.333 13.333 -30.333 30 -39 50c-8.66699 18.667 -13 38.334 -13 59.001
c0 11.333 1.33301 22.666 4 33.999c10 42 37.667 84.333 83 127c40.667 37.333 93.667 75.333 159 114zM1983 433.001c3.33301 -42.667 11.6689 -72.002 25.002 -88.002c17.333 -21.333 49.666 -32 96.999 -32h115v-328h-115c-137.333 0 -234.333 22 -291 66
c-52 -28 -113.333 -46 -184 -54c-54 -6 -157 -9 -309 -9h-567c-188 0 -308.333 4.66699 -361 14c-102.667 17.333 -181 67 -235 149c-46 69.333 -69 153.333 -69 252c0 28 2 57.333 6 88c9.33301 85.333 31.666 181 66.999 287l315 -89
c-34 -121.333 -56.667 -220.666 -68 -297.999c-0.666992 -5.33301 -1 -10.666 -1 -15.999c0 -12.667 2.33301 -23.667 7 -33c8 -17.333 22.333 -26 43 -26h1125c45.333 0 69.333 19.667 72 59v1052h328v-994z" />
    <glyph glyph-name="uni0643.init" unicode="&#x643;" horiz-adv-x="1190" arabic-form="initial" 
d="M1190 1313l-655.001 -297.999l241 -249c88.667 -95.333 151 -184 187 -266c24.667 -57.333 37 -112.333 37 -165v-8c-0.666992 -42.667 -9 -82.334 -25 -119.001c-14.667 -34.667 -35.667 -66 -63 -94c-35.333 -36 -80 -64.667 -134 -86
c-74.667 -28.667 -165.667 -43 -273 -43h-530v328h530c103.333 0 165 5.66699 185 17c-1.33301 6 -4.66602 14.667 -9.99902 26c-6.66699 12.667 -15.667 27.334 -27 44.001c-28.667 43.333 -67.334 90.666 -116.001 141.999c-116 123.333 -216.667 226.333 -302 309l-42 39
c-10 10 -19.667 19 -29 27c-3.33301 3.33301 -6.66602 6.33301 -9.99902 9l-7 7l-3 2l-1 2l-2 1l38 274l875 400z" />
    <glyph glyph-name="uni0643.medi" unicode="&#x643;" horiz-adv-x="1239" arabic-form="medial" 
d="M1069 368c46.667 -36.667 111.668 -55.001 195.001 -55.001v-328c-156.667 0 -288.334 41.333 -395.001 124c-24 18 -51 42 -81 72c-41.333 -54.667 -95 -99 -161 -133c-80.667 -42 -169 -63 -265 -63h-387v328h387c38 0 74 7.66699 108 23c34 16 56.333 35.333 67 58
c5.33301 10.667 8 23 8 37c0 34 -17 76.667 -51 128l-34 45l-175 220l-70 89c-18.667 24 -28.334 36.333 -29.001 37l57 248l867 419l143 -295l-683 -330l308 -401c86.667 -117.333 150.334 -191.666 191.001 -222.999z" />
    <glyph glyph-name="uni0644.fina" unicode="&#x644;" horiz-adv-x="1438" arabic-form="final" 
d="M1463 313l0.00292969 -328.002h-25c-42 0 -80.667 4.66699 -116 14c-0.666992 -54 -5.33398 -102.667 -14.001 -146c-14.667 -80 -42.667 -148.667 -84 -206c-50 -68.667 -117.667 -119.667 -203 -153c-78 -31.333 -175 -47 -291 -47h-63
c-105.333 0 -199.333 19.667 -282 59c-92 42.667 -164.667 106 -218 190c-57.333 92 -86 198 -86 318c0 16 0.666992 32.333 2 49c8 138.667 51 289 129 451l296 -141c-52 -109.333 -83.333 -207.666 -94 -294.999c-2.66699 -22.667 -4 -44.334 -4 -65.001
c0 -57.333 11.667 -104.666 35 -141.999s59.333 -64 108 -80c19.333 -6 39.666 -10.667 60.999 -14c17.333 -2 35 -3 53 -3h63c51.333 0 95 4 131 12c47.333 10.667 79.666 28.334 96.999 53.001c24.667 33.333 37 100 37 200v1390h328v-996c0 -38 10.333 -67.333 31 -88
c20 -21.333 48 -32 84 -32h25z" />
    <glyph glyph-name="uni0644.init" unicode="&#x644;" horiz-adv-x="578" arabic-form="initial" 
d="M528 433c0 -65.333 -10.6699 -124.668 -32.0029 -178.001c-23.333 -57.333 -57 -106.666 -101 -147.999c-87.333 -81.333 -200.666 -122 -339.999 -122h-80v328h80c62.667 0 105.334 15.667 128.001 47c8 10.667 13.333 23.667 16 39
c0.666992 6 1.33398 12.333 2.00098 19v1009h327v-994z" />
    <glyph glyph-name="uni0644.medi" unicode="&#x644;" horiz-adv-x="634" arabic-form="medial" 
d="M528 433c0 -80 43.6631 -120 130.996 -120v-328c-61.333 0 -119.666 10 -174.999 30c-46 16.667 -86 38.667 -120 66c-83.333 -64 -186.666 -96 -309.999 -96h-79v328h79c62.667 0 105.334 15.667 128.001 47c8 10.667 13.333 23.667 16 39
c0.666992 6 1.33398 12.333 2.00098 19v1009h328v-994z" />
    <glyph glyph-name="uni0645.fina" unicode="&#x645;" horiz-adv-x="1500" arabic-form="final" 
d="M1525 -15c-43.333 0 -82.0029 3.66699 -116.003 11c-48.667 10.667 -91.667 29 -129 55c-76 -108 -176.667 -162 -302 -162c-61.333 0 -120 10 -176 30c-59.333 20.667 -164 68.667 -314 144l-56 29l-54 29v-880h-328v1189l216 125l89 -50l30 -16l28 -16
c30.667 102 67.334 185.333 110.001 250c52.667 79.333 115.334 137 188.001 173c55.333 26.667 114.666 40 177.999 40c70 0 138.333 -16.333 205 -49c58 -30 109.333 -71.333 154 -124c42.667 -50.667 75.334 -107 98.001 -169c10.667 -27.333 18.334 -54 23.001 -80
c14.667 -70 33.667 -120.667 57 -152c24.667 -32.667 57.667 -49 99 -49v-328zM1051 248c18 37.333 27.001 84.668 27.001 142.001s-17.333 107.333 -52 150c-36.667 45.333 -82.334 68 -137.001 68c-40 0 -79.667 -32.667 -119 -98
c-32.667 -54.667 -57.667 -116.667 -75 -186c115.333 -52.667 206 -92.334 272 -119.001c8.66699 -4 17 -6 25 -6c23.333 0 43 16.333 59 49z" />
    <glyph glyph-name="uni0645.init" unicode="&#x645;" horiz-adv-x="1155" arabic-form="initial" 
d="M788 272c8.66699 24 13 50.001 13 78.001c0 7.33301 -0.333008 14.666 -1 21.999c-3.33301 51.333 -18.333 95.666 -45 132.999c-27.333 38 -59 57 -95 57c-49.333 0 -90 -29.333 -122 -88c-11.333 -20 -21.666 -44.667 -30.999 -74
c-3.33301 -9.33301 -7 -20.666 -11 -33.999l-4 -15l-4 -13c38.667 -33.333 88 -61 148 -83c49.333 -17.333 88.666 -26 117.999 -26c12 0 23.333 14.333 34 43zM1014 696.001c31.333 -50 54.998 -106.665 70.998 -169.998c13.333 -54 20 -105.333 20 -154
c0 -162 -40.667 -283.333 -122 -364c-30.667 -31.333 -66.667 -55.333 -108 -72c-33.333 -13.333 -67 -21 -101 -23c-6.66699 -0.666992 -16 -1 -28 -1c-83.333 0 -172 20.667 -266 62c-32 13.333 -66.333 30.333 -103 51l-22 12l-20 11
c-15.333 9.33301 -26.333 15.666 -33 18.999c-54.667 -54.667 -145.667 -82 -273 -82h-54v328h41c67.333 0 111.666 14 132.999 42c9.33301 12.667 28 62.667 56 150c2 6 4 11.667 6 17c2 7.33301 4.66699 14.666 8 21.999c6.66699 18.667 14.334 36.667 23.001 54
c22.667 48.667 49.334 91.667 80.001 129c88.667 108.667 201.334 163 338.001 163c154.667 0 272.667 -64.667 354 -194z" />
    <glyph glyph-name="uni0645.medi" unicode="&#x645;" horiz-adv-x="1198" arabic-form="medial" 
d="M1223 -15c-78.667 0 -148 15.0029 -208 45.0029c-32.667 -38.667 -71.667 -68.334 -117 -89.001c-36.667 -16 -74 -25.333 -112 -28c-8.66699 -0.666992 -17.334 -1 -26.001 -1c-80.667 0 -166.667 19.333 -258 58c-33.333 14 -69.666 31.667 -108.999 53l-23 13l-11 6
l-10 6c-16.667 9.33301 -28.334 15.666 -35.001 18.999c-72 -54 -174.333 -81 -307 -81h-32v327h32c69.333 0 117 14 143 42c19.333 20.667 41.666 70.667 66.999 150c2 6 4 11.667 6 17c2 7.33301 4.66699 14.666 8 21.999c6.66699 18.667 14.334 37 23.001 55
c22.667 48 49.334 91 80.001 129c88 108.667 200.667 163 338 163c152 0 268.667 -63 350 -189c31.333 -48.667 55.333 -104 72 -166c14 -52.667 21.667 -103.667 23 -153c0 -20.667 6.33301 -36.667 19 -48c16.667 -15.333 45.667 -23 87 -23v-327zM800 273.003
c8.66699 24 12.999 50 12.999 78c0 7.33301 -0.333008 14.666 -1 21.999c-3.33301 50.667 -18.333 94.667 -45 132c-27.333 38.667 -59 58 -95 58c-49.333 0 -90 -29.333 -122 -88c-11.333 -20 -21.666 -44.667 -30.999 -74c-3.33301 -9.33301 -7 -20.666 -11 -33.999
l-4 -15l-4 -13c38.667 -34 88 -61.667 148 -83c48.667 -17.333 88 -26 118 -26c12 0 23.333 14.333 34 43z" />
    <glyph glyph-name="uni0646.fina" unicode="&#x646;" horiz-adv-x="1685" arabic-form="final" 
d="M1521 414c0 -31.333 10.668 -56.001 32.001 -74.001c20.667 -18 48 -27 82 -27h75v-328h-105l-31 2c-22.667 2 -41 6 -55 12c-8 -150.667 -50.667 -271 -128 -361c-54.667 -62.667 -125.667 -110.334 -213 -143.001c-83.333 -30.667 -181.666 -46 -294.999 -46h-151
c-114.667 0 -218 21 -310 63c-104.667 48 -186.334 117.667 -245.001 209c-63.333 101.333 -95 219 -95 353c0 16.667 0.333008 33.334 1 50.001c8 155.333 55.667 327.666 143 516.999l298 -137c-70 -150.667 -108 -283 -114 -397c-0.666992 -11.333 -1 -22.666 -1 -33.999
c0 -71.333 15 -129.666 45 -174.999c29.333 -46.667 74.666 -80 135.999 -100c23.333 -8 48.666 -13.667 75.999 -17c21.333 -2.66699 43.333 -4 66 -4h151c124.667 0 209.334 23 254.001 69c38 39.333 57 108.333 57 207v623h327v-262zM641.001 750.999l208 210l212 -212
l-211 -210z" />
    <glyph glyph-name="uni0646.init" unicode="&#x646;" horiz-adv-x="750" arabic-form="initial" 
d="M666 493c5.33301 -32 8.00098 -62.665 8.00098 -91.998c0 -90.667 -26 -172 -78 -244c-83.333 -114.667 -219 -172 -407 -172h-214v328h207c60 0 102.333 8 127 24c25.333 15.333 38 39.666 38 72.999c0 10 -1.33301 21 -4 33l-20 104
c-2.66699 13.333 -5.33398 27.666 -8.00098 42.999l-4 19l-3 19c-10 54.667 -17.667 93.667 -23 117l313 95c20 -94 42.667 -209.667 68 -347zM100.001 1227l208 210l212 -212l-211 -210z" />
    <glyph glyph-name="uni0646.medi" unicode="&#x646;" horiz-adv-x="770" arabic-form="medial" 
d="M640 404c0 -32 7.66797 -54.666 23.001 -67.999c17.333 -15.333 48 -23 92 -23h40v-328h-40c-43.333 0 -84.333 4.66699 -123 14c-30.667 7.33301 -59.334 17.666 -86.001 30.999c-30.667 14.667 -53.667 29.334 -69 44.001c-15.333 -14.667 -40 -29.334 -74 -44.001
c-67.333 -30 -147.333 -45 -240 -45h-188v328h211c48 0 81.667 8 101 24c17.333 14 26 36.333 26 67v272h327v-272zM197.001 1137l208 210l212 -212l-211 -210z" />
    <glyph glyph-name="uni0647.fina" unicode="&#x647;" horiz-adv-x="1293" arabic-form="final" 
d="M635 414c36 29.333 53.999 67.999 53.999 115.999v5c-0.666992 20 -4.66699 46.667 -12 80c-2 10 -5.33301 25.333 -10 46l-6 26l-6 27c-106 -36.667 -176 -72 -210 -106c-31.333 -31.333 -47 -65.666 -47 -102.999v-7c2 -39.333 19.333 -71.333 52 -96
c20.667 -15.333 47.334 -23 80.001 -23c40.667 0 75.667 11.667 105 35zM976.999 771.999l20 -87l10 -41l9 -39c14 -60 27.333 -114 40 -162c14.667 -54 41 -89 79 -105c22.667 -10 51.667 -17 87 -21c24 -2.66699 56 -4 96 -4v-328c-60 0 -111.667 3 -155 9
c-60 8 -114 22.667 -162 44c-64 29.333 -117.333 69.333 -160 120l-12 14c-34 -30 -72.667 -54 -116 -72c-55.333 -22 -114 -33 -176 -33l-10 1h-11c-76 3.33301 -145 21.666 -207 54.999c-116 60.667 -187.333 156 -214 286c-7.33301 34.667 -11 69 -11 103
c0 44.667 6.33301 88.334 19 131.001c24.667 75.333 67.667 142.333 129 201c67.333 64.667 184.333 123.667 351 177l-19 88l320 73z" />
    <glyph glyph-name="uni0647.init" unicode="&#x647;" horiz-adv-x="1727" arabic-form="initial" 
d="M772 480c0 53.333 -19.333 95.333 -58 126c-30 24 -62 36 -96 36c-15.333 0 -32 -2.66699 -50 -8c-20.667 -6 -39.334 -14.667 -56.001 -26c-44 -30.667 -66 -73.334 -66 -128.001c0 -36 17.667 -70.333 53 -103c34.667 -31.333 74.334 -50.666 119.001 -57.999
c102.667 35.333 154 89 154 161zM1499 714c91.333 -124 140.333 -251.668 147 -383.001c0.666992 -10.667 1 -21.667 1 -33c0 -118.667 -37.333 -221.334 -112 -308.001c-88.667 -103.333 -221.667 -155 -399 -155c-97.333 0 -217 26.333 -359 79
c-45.333 16.667 -92.333 36 -141 58c-8 4 -16.667 8 -26 12l-21 9l-25 12c-108.667 -13.333 -236.334 -20 -383.001 -20h-198v328h184c-28.667 71.333 -43 127 -43 167c0 120.667 37.667 226.334 113 317.001c91.333 108.667 218.333 163 381 163
c142 0 258.667 -51.667 350 -155c83.333 -94 125 -202.333 125 -325c0 -72 -18.667 -142.667 -56 -212c-19.333 -34.667 -38.333 -62 -57 -82c53.333 -22 116 -33 188 -33c38.667 0 71.334 9.66699 98.001 29c26.667 18.667 44.667 44.334 54 77.001
c5.33301 17.333 8 35.333 8 54c0 59.333 -26.333 124 -79 194l-330 445l255 205z" />
    <glyph glyph-name="uni0647.medi" unicode="&#x647;" horiz-adv-x="1264" arabic-form="medial" 
d="M725 -20c6.66699 28 15 55 25 81c3.33301 9.33301 6.66602 18 9.99902 26l4 8c0.666992 2 1.33398 3.33301 2.00098 4c-86 -44 -176 -69.667 -270 -77c9.33301 -53.333 40 -107.333 92 -162c44.667 -47.333 88.667 -80 132 -98c-8 28 -12 58.333 -12 91
c0 38.667 5.66699 81 17 127zM729 447c16 16 27.333 32.999 34 50.999c2 6.66699 3.33301 13.334 4 20.001l1 8v6c0 24.667 -8 45.667 -24 63c-18.667 19.333 -45 29 -79 29c-53.333 0 -98 -36.667 -134 -110c-12.667 -26 -24 -56 -34 -90c-4 -12.667 -7.33301 -26 -10 -40
c-2.66699 -10 -5 -20.333 -7 -31c120 16.667 203 48 249 94zM955 847.999c88.667 -72.667 133.001 -178 133.001 -316c0 -84 -21.667 -160.333 -65 -229c28.667 6.66699 55 10 79 10h187v-328h-165c-22.667 0 -43 -9.33301 -61 -28c-16.667 -18 -28.334 -41.667 -35.001 -71
c-4 -16 -6 -32 -6 -48c0 -48.667 19.333 -93.667 58 -135l-104 -267c-38.667 -5.33301 -74 -8 -106 -8c-206 0 -380 76 -522 228c-52 56 -95.667 118 -131 186c-29.333 55.333 -48 104 -56 146c-68 -2 -130 -3 -186 -3v328h81c32 0.666992 61.667 1.66699 89 3
c15.333 150 52 275 110 375c47.333 81.333 106 143.333 176 186c70.667 43.333 148.667 65 234 65c117.333 0 214 -31.333 290 -94z" />
    <glyph glyph-name="uni0648.fina" unicode="&#x648;" horiz-adv-x="1080" arabic-form="final" 
d="M678 312v103c0 61.333 -13 110 -39 146c-26 35.333 -61.333 53 -106 53c-45.333 0 -81.333 -17.667 -108 -53c-24.667 -32.667 -37 -75 -37 -127c0 -6 0.333008 -12.333 1 -19c2 -35.333 18 -62 48 -80c25.333 -15.333 57.333 -23 96 -23h145zM885 781
c80.667 -98 121 -220 121 -366v-103h99v-327h-102c-16.667 -207.333 -118 -355.666 -304 -444.999c-72.667 -34.667 -157.667 -59.667 -255 -75c-76.667 -12.667 -159.667 -19 -249 -19v328c166.667 0 292 23.333 376 70c68 37.333 102 84.333 102 141h-140
c-118.667 0 -219.667 32 -303 96c-100 77.333 -150 188.666 -150 333.999c0 138 33.333 255 100 351c80.667 117.333 198.334 176 353.001 176c147.333 0 264.666 -53.667 351.999 -161z" />
    <glyph glyph-name="uni0649.fina" unicode="&#x649;" horiz-adv-x="1811" arabic-form="final" 
d="M515 539c-77.333 -162.667 -115.998 -305.668 -115.998 -429.001c0 -12 0.333008 -24.667 1 -38c1.33301 -16.667 3.66602 -33 6.99902 -49c7.33301 -42 20 -79.333 38 -112c51.333 -92 137.333 -138 258 -138h276c138 0 235 18.333 291 55c28 18.667 42.333 37 43 55
c-94.667 55.333 -225 98.666 -391 129.999v300h914v-328h-241c14.667 -23.333 22 -56.333 22 -99c0 -15.333 -0.666992 -30.666 -2 -45.999c-2.66699 -21.333 -6.66699 -42 -12 -62c-14.667 -55.333 -40 -104.333 -76 -147c-104.667 -123.333 -287.334 -185 -548.001 -185
h-276c-222 0 -389.333 77.667 -502 233c-87.333 120.667 -131 264.334 -131 431.001c0 122.667 25 254.667 75 396c25.333 70.667 50.333 129 75 175z" />
    <glyph glyph-name="uni064A.fina" unicode="&#x64a;" horiz-adv-x="1811" arabic-form="final" 
d="M515 539c-77.333 -162.667 -115.998 -305.668 -115.998 -429.001c0 -12 0.333008 -24.667 1 -38c1.33301 -16.667 3.66602 -33 6.99902 -49c7.33301 -42 20 -79.333 38 -112c51.333 -92 137.333 -138 258 -138h276c138 0 235 18.333 291 55c28 18.667 42.333 37 43 55
c-94.667 55.333 -225 98.666 -391 129.999v300h914v-328h-241c14.667 -23.333 22 -56.333 22 -99c0 -15.333 -0.666992 -30.666 -2 -45.999c-2.66699 -21.333 -6.66699 -42 -12 -62c-14.667 -55.333 -40 -104.333 -76 -147c-104.667 -123.333 -287.334 -185 -548.001 -185
h-276c-222 0 -389.333 77.667 -502 233c-87.333 120.667 -131 264.334 -131 431.001c0 122.667 25 254.667 75 396c25.333 70.667 50.333 129 75 175zM1067 -1050l-196 198l194 200l200 -200zM645.002 -1051l-196 198l193 200l200 -200z" />
    <glyph glyph-name="uni064A.init" unicode="&#x64a;" horiz-adv-x="927" arabic-form="initial" 
d="M843 493c5.33301 -32 8.00098 -62.665 8.00098 -91.998c0 -90.667 -26 -172 -78 -244c-83.333 -114.667 -219 -172 -407 -172h-391v328h384c60 0 102.333 8 127 24c25.333 15.333 38 39.666 38 72.999c0 10 -1.33301 21 -4 33l-20 104
c-2.66699 13.333 -5.33398 27.666 -8.00098 42.999l-4 19l-3 19c-10 54.667 -17.667 93.667 -23 117l313 95c20 -94 42.667 -209.667 68 -347zM621.001 -593.998l-196 198l194 200l200 -200zM199.001 -594.998l-196 198l193 200l200 -200z" />
    <glyph glyph-name="uni064A.medi" unicode="&#x64a;" horiz-adv-x="1024" arabic-form="medial" 
d="M788 404c0 -32 7.66797 -54.666 23.001 -67.999c17.333 -15.333 48 -23 92 -23h146v-328h-146c-43.333 0 -84.333 4.66699 -123 14c-30.667 7.33301 -59.334 17.666 -86.001 30.999c-30.667 14.667 -53.667 29.334 -69 44.001c-15.333 -14.667 -40 -29.334 -74 -44.001
c-67.333 -30 -147.333 -45 -240 -45h-336v328h359c48 0 81.667 8 101 24c17.333 14 26 36.333 26 67v272h327v-272zM669.001 -597.999l-196 198l194 200l200 -200zM247.001 -598.999l-196 198l193 200l200 -200z" />
    <glyph glyph-name=".notdef" horiz-adv-x="1229" 
d="M102 -362v1806h1024v-1806h-1024zM217 -248h795v1577h-795v-1577z" />
    <glyph glyph-name="NULL" unicode="&#xfeff;" 
 />
    <glyph glyph-name="NULL" 
 />
    <glyph glyph-name="space" unicode=" " horiz-adv-x="696" 
 />
    <glyph glyph-name="space" unicode="&#xa0;" horiz-adv-x="696" 
 />
    <glyph glyph-name="exclam" unicode="!" horiz-adv-x="620" 
d="M461 314h-293l-47 1190h386zM100 -12l208 210l212 -212l-210 -210z" />
    <glyph glyph-name="quotedbl" unicode="&#x22;" horiz-adv-x="697" 
d="M274 1502l-46 -461h-201v610h247v-149zM651 1502l-46 -461h-199v610h245v-149z" />
    <glyph glyph-name="numbersign" unicode="#" horiz-adv-x="1278" 
d="M657 440h-173l-71 -440h-214l72 440h-239v197h271l47 284h-237v196h269l75 447h212l-73 -447h173l74 447h214l-74 -447h248v-196h-280l-48 -284h246v-197h-278l-72 -440h-214zM517 637h173l47 284h-173z" />
    <glyph glyph-name="dollar" unicode="$" horiz-adv-x="1274" 
d="M816 415c0 56.667 -13.835 101 -41.502 133s-76.667 62.333 -147 91s-135.166 57.667 -194.499 87s-110.5 63.333 -153.5 102s-76 83.5 -99 134.5s-34.5 112.5 -34.5 184.5c0 121.333 40.833 221.166 122.5 299.499s190.5 123.833 326.5 136.5v227h171v-231
c131.333 -19.333 234.333 -73.166 309 -161.499s112 -200.5 112 -336.5h-363c0 74 -14.333 131.167 -43 171.5s-69.667 60.5 -123 60.5c-46.667 0 -83.167 -14.833 -109.5 -44.5s-39.5 -70.834 -39.5 -123.501s15 -94.667 45 -126s78.333 -61.166 145 -89.499
s129.5 -57.666 188.5 -87.999s110 -64.833 153 -103.5s76.667 -83.834 101 -135.501s36.5 -113.5 36.5 -185.5c0 -122.667 -38.833 -222.667 -116.5 -300s-183.5 -122.333 -317.5 -135v-216h-170v217c-156.667 16.667 -276.667 70.167 -360 160.5s-125 209.833 -125 358.5
h362c0 -82 18.167 -144.333 54.5 -187s87.833 -64 154.5 -64c48.667 0 86.834 14.5 114.501 43.5s41.5 69.167 41.5 120.5z" />
    <glyph glyph-name="percent" unicode="%" horiz-adv-x="1633" 
d="M97 1263c0 96.667 31.501 174.833 94.501 234.5s147.5 89.5 253.5 89.5c107.333 0 192.166 -29.667 254.499 -89s93.5 -139.333 93.5 -240v-77c0 -96.667 -31.167 -174.5 -93.5 -233.5s-146.5 -88.5 -252.5 -88.5c-105.333 0 -190 29.167 -254 87.5s-96 138.5 -96 240.5
v76zM330.001 1181c0 -37.333 10.332 -67.667 30.999 -91s49.334 -35 86.001 -35c75.333 0 113 48 113 144v64c0 37.333 -10 68 -30 92s-48.333 36 -85 36c-35.333 0 -63.333 -11.667 -84 -35s-31 -55 -31 -95v-80zM840 382.998c0 98 31.668 176.334 95.001 235.001
s147.666 88 252.999 88c106.667 0 191.5 -29 254.5 -87s94.5 -139 94.5 -243v-75c0 -97.333 -31.167 -175.333 -93.5 -234s-146.833 -88 -253.5 -88c-105.333 0 -190 29.167 -254 87.5s-96 138.166 -96 239.499v77zM1072 300.999c0 -34 11.5 -63.667 34.5 -89
s50.833 -38 83.5 -38c69.333 0 107 33 113 99l1 110c0 38 -10.333 68.667 -31 92s-49 35 -85 35c-34 0 -61.5 -10.833 -82.5 -32.5s-32.167 -51.167 -33.5 -88.5v-88zM516.001 116.999l-169 85l764 1222l168 -84z" />
    <glyph glyph-name="ampersand" unicode="&#x26;" horiz-adv-x="1482" 
d="M334 824c-42 60 -75 117.163 -99 171.496s-36 110.5 -36 168.5c0 126.667 40.833 228.834 122.5 306.501s188.167 116.5 319.5 116.5c118.667 0 216.667 -36 294 -108s116 -161.333 116 -268c0 -133.333 -73.667 -251.666 -221 -354.999l-81 -57l240 -276
c39.333 78.667 59 165 59 259h304c0 -211.333 -48.667 -380.666 -146 -507.999l239 -274h-404l-73 83c-60 -36 -121.333 -62.667 -184 -80s-133.667 -26 -213 -26c-154.667 0 -278.5 40.667 -371.5 122s-139.5 188.333 -139.5 321c0 72.667 18.5 138.334 55.5 197.001
s108.833 127 215.5 205zM595 256.996c63.333 0 123.667 14.667 181 44l-282 320l-10 -7c-40.667 -50 -61 -106.333 -61 -169c0 -52.667 16.5 -97.167 49.5 -133.5s73.833 -54.5 122.5 -54.5zM511.001 1169c0 -50 27.333 -111.001 82 -183.001l72 45
c32.667 21.333 56.5 43.5 71.5 66.5s22.5 52.167 22.5 87.5c0 32.667 -11.333 61.167 -34 85.5s-51 36.5 -85 36.5c-40 0 -71.5 -12.667 -94.5 -38s-34.5 -58.666 -34.5 -99.999z" />
    <glyph glyph-name="quotesingle" unicode="'" horiz-adv-x="339" 
d="M304 1476l-35 -444h-223v618h258v-174z" />
    </font>
</defs>
</svg>
