<?xml version="1.0" standalone="no"?>
<!DOCTYPE svg PUBLIC "-//W3C//DTD SVG 1.1//EN" "http://www.w3.org/Graphics/SVG/1.1/DTD/svg11.dtd" >
<svg>
<metadata>
Created by FontForge 20090914 at Sun Sep 22 22:58:41 2019
 By www-data
Copyright (c) 2019 by fontiran.com. All rights reserved.
</metadata>
<defs>
<font id="IRANYekan-Medium" horiz-adv-x="0" >
  <font-face 
    font-family="IRANYekan Medium"
    font-weight="500"
    font-stretch="normal"
    units-per-em="2200"
    panose-1="2 11 5 6 3 8 4 2 2 4"
    ascent="1760"
    descent="-440"
    x-height="1162"
    cap-height="1564"
    bbox="-492 -1106 3125 2698"
    underline-thickness="100"
    underline-position="-750"
    unicode-range="U+001D-U+FEFF"
  />
<missing-glyph horiz-adv-x="1229" 
d="M102 -362v1806h1024v-1806h-1024zM217 -248h795v1577h-795v-1577z" />
    <glyph glyph-name="allah" unicode="&#xfedf;&#xfee0;&#xfeea;" horiz-adv-x="2251" arabic-form="isolated" 
d="M1100 -15c-71.333 0 -131.669 9.1709 -181.002 27.5039s-90.166 44.166 -122.499 77.499s-57.333 73.333 -75 120s-30.5 98.667 -38.5 156l-60 426l-104 -22h1c-66.667 -17.333 -111.334 -46 -134.001 -86c-15.333 -26.667 -25.666 -55 -30.999 -85
c-4 -24.667 -6 -49.667 -6 -75c0 -6 0.333008 -18.833 1 -38.5s4.5 -46 11.5 -79s15 -65.667 24 -98s18.667 -63.833 29 -94.5s19.5 -59.667 27.5 -87l32 -106l-210 -59l-30 104l-33.5 119c-11.667 40.667 -22.334 81.5 -32.001 122.5s-17.167 82.167 -22.5 123.5
c-5.33301 37.333 -8 74.666 -8 111.999c0 4 0.166992 17.167 0.5 39.5s5 53.333 14 93s23.833 78.5 44.5 116.5c28 48 64.5 88 109.5 120s99.167 55.333 162.5 70h-1c13.333 3.33301 32.166 7.66602 56.499 12.999l73 15.5c24.333 5 45.833 9.16699 64.5 12.5s29 5 31 5
l120 -78l82 -532c7.33301 -47.333 18 -85 32 -113s30.167 -49.5 48.5 -64.5s38.333 -24.833 60 -29.5s43.834 -7 66.501 -7c49.333 0 88.5 6 117.5 18s51 27 66 45s24.667 37.833 29 59.5s6.5 42.5 6.5 62.5l-2 717l220 51v-768c0 -30.667 5.16699 -57.5 15.5 -80.5
s24.833 -42 43.5 -57s40.667 -26.5 66 -34.5s52.666 -12.333 81.999 -13h10c37.333 0 69 3.5 95 10.5s47.167 18 63.5 33s28.5 34.167 36.5 57.5s12.333 51 13 83l-49 841l218 107l49 -947c0 -23.333 -1.16699 -47.666 -3.5 -72.999s-7 -50.666 -14 -75.999
s-17.167 -50.333 -30.5 -75s-31 -48 -53 -70c-20 -18.667 -39.667 -34.834 -59 -48.501s-41.166 -25 -65.499 -34s-52.5 -15.833 -84.5 -20.5s-70.667 -7 -116 -7h-10c-26.667 0 -54.667 2.33301 -84 7s-58.166 11.5 -86.499 20.5s-55 20.167 -80 33.5
s-45.833 28.666 -62.5 45.999l-2 2v-1l-3 3c-19.333 -18.667 -39.166 -34.834 -59.499 -48.501s-43.333 -25.167 -69 -34.5s-54.5 -16.333 -86.5 -21s-69 -7 -111 -7h-2zM1311 1311c-59.333 0 -105.832 16.5039 -139.499 49.5039s-50.5 78.833 -50.5 137.5v95l101 17v-112
c0 -30.667 7 -52.834 21 -66.501s36.667 -20.5 68 -20.5c4.66699 0 11.167 0.833008 19.5 2.5s16.666 5.5 24.999 11.5s15.5 14.833 21.5 26.5s9 27.167 9 46.5v94l102 22v-116c0 -30.667 7 -53 21 -67s37 -21 69 -21c4.66699 0 11 1 19 3s16 6.16699 24 12.5
s14.833 15.166 20.5 26.499s8.5 26.666 8.5 45.999c0 10.667 -1.16699 23.167 -3.5 37.5s-5.16602 28.5 -8.49902 42.5s-6.66602 27.167 -9.99902 39.5s-6 21.833 -8 28.5l94 32c0.666992 -3.33301 3 -11.5 7 -24.5s8.33301 -28.333 13 -46s8.66699 -36.334 12 -56.001
s5 -37.5 5 -53.5c0 -32 -5.16699 -59.833 -15.5 -83.5s-23.833 -43.167 -40.5 -58.5s-35.5 -26.833 -56.5 -34.5s-41.833 -11.5 -62.5 -11.5c-60.667 0 -107.334 17 -140.001 51c-17.333 -17.333 -36.833 -30 -58.5 -38s-43.834 -12 -66.501 -12zM1384 1988.01l103 24v-288
l-103 -25v289z" />
    <glyph glyph-name="riyal" unicode="&#x631;&#xfef3;&#xfe8e;&#x644;" horiz-adv-x="3285" arabic-form="isolated" 
d="M744 -568c-45.333 0 -89.165 5.16699 -131.498 15.5s-82 25.5 -119 45.5s-71 44.167 -102 72.5s-58.167 60.5 -81.5 96.5c-10 16 -20 34.5 -30 55.5s-19 44.833 -27 71.5s-14.5 56.334 -19.5 89.001s-7.5 68 -7.5 106c0 32.667 2.33301 66.667 7 102s12.167 73 22.5 113
s24 82.667 41 128s38.167 94 63.5 146l197 -94c-38 -78.667 -66.5 -149.834 -85.5 -213.501s-28.5 -124.5 -28.5 -182.5c0 -78.667 17.333 -146.667 52 -204c13.333 -18.667 29.166 -35.834 47.499 -51.501s38.166 -29.167 59.499 -40.5s44 -20.166 68 -26.499
s48.667 -9.5 74 -9.5h46c73.333 0 133 7.66699 179 23s82 37 108 65s43.833 61.833 53.5 101.5s14.5 84.167 14.5 133.5v1452h216v-1452c0 -360 -190.333 -540.667 -571 -542h-46zM3125 32c-4 -89.333 -20.499 -170 -49.499 -242s-69.333 -133.333 -121 -184
s-113.834 -89.667 -186.5 -117c-72.667 -27.333 -155 -41 -247 -41h-138v219h138c66.667 0 124.167 7 172.5 21s88.166 36.167 119.5 66.5c31.333 30.333 54.666 70 69.999 119s23 108.5 23 178.5v624h219v-644zM2095 -557l-158 160l156 162l162 -162zM1714 -555l-158 160
l156 162l162 -162zM2007 -15c-69.333 0 -128.669 4.33203 -178.002 12.999s-90.833 21.667 -124.5 39s-60.667 39.166 -81 65.499s-35.833 57.333 -46.5 93s-17.667 75.834 -21 120.501s-5 94.334 -5 149.001v962h219v-962c0 -56 1.83301 -101.167 5.5 -135.5
s13.334 -60.833 29.001 -79.5s39.334 -31 71.001 -37s75.5 -9 131.5 -9v-219zM2535 817.999c1.33301 -4 3.99902 -14.833 7.99902 -32.5l14.5 -65.5c5.66699 -26 11.334 -54.667 17.001 -86s11 -62.833 16 -94.5s9.16699 -62.334 12.5 -92.001s5 -55.5 5 -77.5
c0 -66 -11 -123.333 -33 -172s-50.5 -88.667 -85.5 -120s-74.5 -54.666 -118.5 -69.999s-88 -23 -132 -23h-270v219h277c8.66699 0 21.5 1.33301 38.5 4s33.833 9.5 50.5 20.5s31.167 27.5 43.5 49.5s18.5 52.667 18.5 92c0 14.667 -1.33301 33 -4 55s-6 45.667 -10 71
s-8.66699 51.333 -14 78l-15.5 75c-5 23.333 -9.83301 44.333 -14.5 63l-11 43z" />
    <glyph glyph-name="uni06440622.isol" unicode="&#xfedf;&#xfe82;" horiz-adv-x="1396" arabic-form="isolated" 
d="M241 -13v219.002h414c80.667 0 145.667 6.83301 195 20.5s87.5 36.167 114.5 67.5s45 72.5 54 123.5s13.5 114.167 13.5 189.5v819h218v-819c0 -38.667 -1.16699 -78.334 -3.5 -119.001s-7.5 -80.834 -15.5 -120.501s-19.667 -77.667 -35 -114s-36 -69.833 -62 -100.5h1
c-47.333 -56.667 -110 -98.5 -188 -125.5s-175.333 -40.5 -292 -40.5h-414zM368 332.002l-71 1057l217 25l72 -1082h-218zM916 1555l-490 0.00195312c-40.667 0 -75 -1.66699 -103 -5s-51.5 -10 -70.5 -20s-34.833 -24.5 -47.5 -43.5s-23.667 -44.167 -33 -75.5l-172 51
c16.667 56.667 39.667 104.167 69 142.5s64 68.166 104 89.499c34.667 17.333 73 28.666 115 33.999s88 8 138 8h490v-181z" />
    <glyph glyph-name="uni06440622.fina" unicode="&#xfee0;&#xfe82;" horiz-adv-x="1492" arabic-form="final" 
d="M275 -13l0.00292969 218.999h414c80.667 0 145.667 6.83301 195 20.5s87.5 36.167 114.5 67.5s45 72.5 54 123.5s13.5 114.167 13.5 189.5v819h218v-1048c0 -25.333 4 -48.666 12 -69.999s19.167 -39.666 33.5 -54.999s31.666 -27.333 51.999 -36s42.5 -13 66.5 -13h65
v-219h-65c-64.667 0 -121.834 13.833 -171.501 41.5s-92.5 64.5 -128.5 110.5c-48 -48.667 -109.333 -85.834 -184 -111.501s-166.334 -38.5 -275.001 -38.5h-414zM397.003 331.999l-71 1057l217 25l72 -1082h-218zM916.003 1560l-490 0.00195312
c-40.667 0 -75 -1.66699 -103 -5s-51.5 -10 -70.5 -20s-34.833 -24.5 -47.5 -43.5s-23.667 -44.167 -33 -75.5l-172 51c16.667 56.667 39.667 104.167 69 142.5s64 68.166 104 89.499c34.667 17.333 73 28.666 115 33.999s88 8 138 8h490v-181z" />
    <glyph glyph-name="uni06440623.isol" unicode="&#xfedf;&#xfe84;" horiz-adv-x="1272" arabic-form="isolated" 
d="M135 -13v219.002h414c80.667 0 145.667 6.83301 195 20.5s87.5 36.167 114.5 67.5s45 72.5 54 123.5s13.5 114.167 13.5 189.5v819h218v-819c0 -38.667 -1.16699 -78.334 -3.5 -119.001s-7.5 -80.834 -15.5 -120.501s-19.667 -77.667 -35 -114s-36 -69.833 -62 -100.5h1
c-47.333 -56.667 -110 -98.5 -188 -125.5s-175.333 -40.5 -292 -40.5h-414zM262 332.002l-71 1057l217 25l72 -1082h-218zM3 1463l0.000976562 132.998l118 35c-22.667 20.667 -41.167 44.334 -55.5 71.001s-21.5 55.334 -21.5 86.001c0 22 3.83301 43.833 11.5 65.5
s18.167 41.5 31.5 59.5s29.333 33.5 48 46.5s38.667 22.5 60 28.5h-1c11.333 3.33301 22.5 5.83301 33.5 7.5s22.167 2.5 33.5 2.5c25.333 0 48.333 -3.5 69 -10.5s40.667 -14.167 60 -21.5l-27 -110c-17.333 4 -34.333 8.16699 -51 12.5s-33 6.5 -49 6.5
c-10 0 -20 -1.66699 -30 -5c-10 -4 -19.833 -9.16699 -29.5 -15.5s-17.834 -13.833 -24.501 -22.5s-11 -18.334 -13 -29.001c-1.33301 -4 -2 -8.33301 -2 -13c0 -7.33301 1.33301 -14.666 4 -21.999c6 -18.667 19.5 -34.5 40.5 -47.5s49.833 -19.5 86.5 -19.5
c6.66699 0 14.167 0.333008 22.5 1s19 2.5 32 5.5s29.167 7 48.5 12s43.333 12.167 72 21.5l8 -126z" />
    <glyph glyph-name="uni06440623.fina" unicode="&#xfee0;&#xfe84;" horiz-adv-x="1333" arabic-form="final" 
d="M116 -13l0.00292969 218.999h414c80.667 0 145.667 6.83301 195 20.5s87.5 36.167 114.5 67.5s45 72.5 54 123.5s13.5 114.167 13.5 189.5v819h218v-1048c0 -25.333 4 -48.666 12 -69.999s19.167 -39.666 33.5 -54.999s31.666 -27.333 51.999 -36s42.5 -13 66.5 -13h65
v-219h-65c-64.667 0 -121.834 13.833 -171.501 41.5s-92.5 64.5 -128.5 110.5c-48 -48.667 -109.333 -85.834 -184 -111.501s-166.334 -38.5 -275.001 -38.5h-414zM238.003 331.999l-71 1057l217 25l72 -1082h-218zM36.0029 1485l0.000976562 132.998l118 35
c-22.667 20.667 -41.167 44.334 -55.5 71.001s-21.5 55.334 -21.5 86.001c0 22 3.83301 43.833 11.5 65.5s18.167 41.5 31.5 59.5s29.333 33.5 48 46.5s38.667 22.5 60 28.5h-1c11.333 3.33301 22.5 5.83301 33.5 7.5s22.167 2.5 33.5 2.5c25.333 0 48.333 -3.5 69 -10.5
s40.667 -14.167 60 -21.5l-27 -110c-17.333 4 -34.333 8.16699 -51 12.5s-33 6.5 -49 6.5c-10 0 -20 -1.66699 -30 -5c-10 -4 -19.833 -9.16699 -29.5 -15.5s-17.834 -13.833 -24.501 -22.5s-11 -18.334 -13 -29.001c-1.33301 -4 -2 -8.33301 -2 -13
c0 -7.33301 1.33301 -14.666 4 -21.999c6 -18.667 19.5 -34.5 40.5 -47.5s49.833 -19.5 86.5 -19.5c6.66699 0 14.167 0.333008 22.5 1s19 2.5 32 5.5s29.167 7 48.5 12s43.333 12.167 72 21.5l8 -126z" />
    <glyph glyph-name="uni06440625.isol" unicode="&#xfedf;&#xfe88;" horiz-adv-x="1275" arabic-form="isolated" 
d="M115 -13v219.002h414c80.667 0 145.667 6.83301 195 20.5s87.5 36.167 114.5 67.5s45 72.5 54 123.5s13.5 114.167 13.5 189.5v819h218v-819c0 -38.667 -1.16699 -78.334 -3.5 -119.001s-7.5 -80.834 -15.5 -120.501s-19.667 -77.667 -35 -114s-36 -69.833 -62 -100.5h1
c-47.333 -56.667 -110 -98.5 -188 -125.5s-175.333 -40.5 -292 -40.5h-414zM242 332.002l-71 1057l217 25l72 -1082h-218zM278 -668.998l0.000976562 132.998l118 35c-22.667 20.667 -41.167 44.334 -55.5 71.001s-21.5 55.334 -21.5 86.001c0 22 3.83301 43.833 11.5 65.5
s18.167 41.5 31.5 59.5s29.333 33.5 48 46.5s38.667 22.5 60 28.5h-1c11.333 3.33301 22.5 5.83301 33.5 7.5s22.167 2.5 33.5 2.5c25.333 0 48.333 -3.5 69 -10.5s40.667 -14.167 60 -21.5l-27 -110c-17.333 4 -34.333 8.16699 -51 12.5s-33 6.5 -49 6.5
c-10 0 -20 -1.66699 -30 -5c-10 -4 -19.833 -9.16699 -29.5 -15.5s-17.834 -13.833 -24.501 -22.5s-11 -18.334 -13 -29.001c-1.33301 -4 -2 -8.33301 -2 -13c0 -7.33301 1.33301 -14.666 4 -21.999c6 -18.667 19.5 -34.5 40.5 -47.5s49.833 -19.5 86.5 -19.5
c6.66699 0 14.167 0.333008 22.5 1s19 2.5 32 5.5s29.167 7 48.5 12s43.333 12.167 72 21.5l8 -126z" />
    <glyph glyph-name="uni06440625.fina" unicode="&#xfee0;&#xfe88;" horiz-adv-x="1333" arabic-form="final" 
d="M116 -13l0.00292969 218.999h414c80.667 0 145.667 6.83301 195 20.5s87.5 36.167 114.5 67.5s45 72.5 54 123.5s13.5 114.167 13.5 189.5v819h218v-1048c0 -25.333 4 -48.666 12 -69.999s19.167 -39.666 33.5 -54.999s31.666 -27.333 51.999 -36s42.5 -13 66.5 -13h65
v-219h-65c-64.667 0 -121.834 13.833 -171.501 41.5s-92.5 64.5 -128.5 110.5c-48 -48.667 -109.333 -85.834 -184 -111.501s-166.334 -38.5 -275.001 -38.5h-414zM238.003 331.999l-71 1057l217 25l72 -1082h-218zM273.003 -668.001l0.000976562 132.998l118 35
c-22.667 20.667 -41.167 44.334 -55.5 71.001s-21.5 55.334 -21.5 86.001c0 22 3.83301 43.833 11.5 65.5s18.167 41.5 31.5 59.5s29.333 33.5 48 46.5s38.667 22.5 60 28.5h-1c11.333 3.33301 22.5 5.83301 33.5 7.5s22.167 2.5 33.5 2.5c25.333 0 48.333 -3.5 69 -10.5
s40.667 -14.167 60 -21.5l-27 -110c-17.333 4 -34.333 8.16699 -51 12.5s-33 6.5 -49 6.5c-10 0 -20 -1.66699 -30 -5c-10 -4 -19.833 -9.16699 -29.5 -15.5s-17.834 -13.833 -24.501 -22.5s-11 -18.334 -13 -29.001c-1.33301 -4 -2 -8.33301 -2 -13
c0 -7.33301 1.33301 -14.666 4 -21.999c6 -18.667 19.5 -34.5 40.5 -47.5s49.833 -19.5 86.5 -19.5c6.66699 0 14.167 0.333008 22.5 1s19 2.5 32 5.5s29.167 7 48.5 12s43.333 12.167 72 21.5l8 -126z" />
    <glyph glyph-name="uni06440627.isol" unicode="&#xfedf;&#xfe8e;" horiz-adv-x="1272" arabic-form="isolated" 
d="M123 -13v219.002h414c80.667 0 145.667 6.83301 195 20.5s87.5 36.167 114.5 67.5s45 72.5 54 123.5s13.5 114.167 13.5 189.5v819h218v-819c0 -38.667 -1.16699 -78.334 -3.5 -119.001s-7.5 -80.834 -15.5 -120.501s-19.667 -77.667 -35 -114s-36 -69.833 -62 -100.5h1
c-47.333 -56.667 -110 -98.5 -188 -125.5s-175.333 -40.5 -292 -40.5h-414zM250 332.002l-71 1057l217 25l72 -1082h-218z" />
    <glyph glyph-name="uni06440627.fina" unicode="&#xfee0;&#xfe8e;" horiz-adv-x="1333" arabic-form="final" 
d="M120 -13l0.00292969 218.999h414c80.667 0 145.667 6.83301 195 20.5s87.5 36.167 114.5 67.5s45 72.5 54 123.5s13.5 114.167 13.5 189.5v819h218v-1048c0 -25.333 4 -48.666 12 -69.999s19.167 -39.666 33.5 -54.999s31.666 -27.333 51.999 -36s42.5 -13 66.5 -13h65
v-219h-65c-64.667 0 -121.834 13.833 -171.501 41.5s-92.5 64.5 -128.5 110.5c-48 -48.667 -109.333 -85.834 -184 -111.501s-166.334 -38.5 -275.001 -38.5h-414zM242.003 331.999l-71 1057l217 25l72 -1082h-218z" />
    <glyph glyph-name="uni06440671.isol" unicode="&#xfedf;&#xfb51;" horiz-adv-x="1272" 
d="M123 -13v219.002h414c80.667 0 145.667 6.83301 195 20.5s87.5 36.167 114.5 67.5s45 72.5 54 123.5s13.5 114.167 13.5 189.5v819h218v-819c0 -38.667 -1.16699 -78.334 -3.5 -119.001s-7.5 -80.834 -15.5 -120.501s-19.667 -77.667 -35 -114s-36 -69.833 -62 -100.5h1
c-47.333 -56.667 -110 -98.5 -188 -125.5s-175.333 -40.5 -292 -40.5h-414zM250 332.002l-71 1057l217 25l72 -1082h-218zM-15 1527l20.999 94.999h130l46 71l83 122c23.333 34 51.333 60.833 84 80.5s68.334 29.5 107.001 29.5c22 0 44 -4.16699 66 -12.5
s41.5 -21.166 58.5 -38.499s30.833 -39.333 41.5 -66s16 -58 16 -94c0 -34.667 -5.83301 -64 -17.5 -88s-26.5 -43.333 -44.5 -58s-38 -25.167 -60 -31.5s-43.667 -9.5 -65 -9.5h-466zM455.999 1830c-20 0 -39.333 -6.5 -58 -19.5s-36.667 -29.5 -54 -49.5
s-34 -42.333 -50 -67l-45 -72h202c26 0 47.667 7.33301 65 22s26 38 26 70c0 37.333 -7.33301 66 -22 86s-36 30 -64 30z" />
    <glyph glyph-name="uni06440671.fina" unicode="&#xfee0;&#xfb51;" horiz-adv-x="1333" 
d="M120 -13l0.00292969 218.999h414c80.667 0 145.667 6.83301 195 20.5s87.5 36.167 114.5 67.5s45 72.5 54 123.5s13.5 114.167 13.5 189.5v819h218v-1048c0 -25.333 4 -48.666 12 -69.999s19.167 -39.666 33.5 -54.999s31.666 -27.333 51.999 -36s42.5 -13 66.5 -13h65
v-219h-65c-64.667 0 -121.834 13.833 -171.501 41.5s-92.5 64.5 -128.5 110.5c-48 -48.667 -109.333 -85.834 -184 -111.501s-166.334 -38.5 -275.001 -38.5h-414zM242.003 331.999l-71 1057l217 25l72 -1082h-218zM-27.9971 1529l20.999 94.999h130l46 71l83 122
c23.333 34 51.333 60.833 84 80.5s68.334 29.5 107.001 29.5c22 0 44 -4.16699 66 -12.5s41.5 -21.166 58.5 -38.499s30.833 -39.333 41.5 -66s16 -58 16 -94c0 -34.667 -5.83301 -64 -17.5 -88s-26.5 -43.333 -44.5 -58s-38 -25.167 -60 -31.5s-43.667 -9.5 -65 -9.5h-466z
M443.002 1832c-20 0 -39.333 -6.5 -58 -19.5s-36.667 -29.5 -54 -49.5s-34 -42.333 -50 -67l-45 -72h202c26 0 47.667 7.33301 65 22s26 38 26 70c0 37.333 -7.33301 66 -22 86s-36 30 -64 30z" />
    <glyph glyph-name="uni0621" unicode="&#x621;" horiz-adv-x="974" arabic-form="isolated" 
d="M93 -51l5.99805 213l188 50c-30 23.333 -56.5 48.333 -79.5 75s-39.833 57 -50.5 91c-10.667 32 -16 64.333 -16 97c0 20.667 4 49.667 12 87s28.167 77.333 60.5 120s73 77.334 122 104.001s102.5 40 160.5 40c16.667 0 33.334 -1 50.001 -3s34.667 -4.83301 54 -8.5
s40.333 -8.33398 63 -14.001l76 -18.5l-43 -180c-45.333 9.33301 -84.166 16 -116.499 20s-60.833 6 -85.5 6c-48.667 0 -88.167 -14 -118.5 -42s-50.166 -65 -59.499 -111c5.33301 -28 15.5 -52.167 30.5 -72.5s32.833 -37.333 53.5 -51s43.5 -23.667 68.5 -30
s50.5 -9.5 76.5 -9.5c23.333 0 48.666 2.83301 75.999 8.5s55 12.667 83 21s55.5 17.333 82.5 27l75.5 26.5l3 -214z" />
    <glyph glyph-name="uni0622" unicode="&#x622;" horiz-adv-x="916" arabic-form="isolated" 
d="M587 -15h-219v1292h219v-1292zM916 1431l-490 0.00195312c-40.667 0 -75 -1.66699 -103 -5s-51.5 -10 -70.5 -20s-34.833 -24.5 -47.5 -43.5s-23.667 -44.167 -33 -75.5l-172 51c16.667 56.667 39.667 104.167 69 142.5s64 68.166 104 89.499
c34.667 17.333 73 28.666 115 33.999s88 8 138 8h490v-181z" />
    <glyph glyph-name="uni0623" unicode="&#x623;" horiz-adv-x="599" arabic-form="isolated" 
d="M414 -15h-219v1292h219v-1292zM53 1367l0.000976562 132.998l118 35c-22.667 20.667 -41.167 44.334 -55.5 71.001s-21.5 55.334 -21.5 86.001c0 22 3.83301 43.833 11.5 65.5s18.167 41.5 31.5 59.5s29.333 33.5 48 46.5s38.667 22.5 60 28.5h-1
c11.333 3.33301 22.5 5.83301 33.5 7.5s22.167 2.5 33.5 2.5c25.333 0 48.333 -3.5 69 -10.5s40.667 -14.167 60 -21.5l-27 -110c-17.333 4 -34.333 8.16699 -51 12.5s-33 6.5 -49 6.5c-10 0 -20 -1.66699 -30 -5c-10 -4 -19.833 -9.16699 -29.5 -15.5
s-17.834 -13.833 -24.501 -22.5s-11 -18.334 -13 -29.001c-1.33301 -4 -2 -8.33301 -2 -13c0 -7.33301 1.33301 -14.666 4 -21.999c6 -18.667 19.5 -34.5 40.5 -47.5s49.833 -19.5 86.5 -19.5c6.66699 0 14.167 0.333008 22.5 1s19 2.5 32 5.5s29.167 7 48.5 12
s43.333 12.167 72 21.5l8 -126z" />
    <glyph glyph-name="uni0624" unicode="&#x624;" horiz-adv-x="1054" arabic-form="isolated" 
d="M179 -333c103.333 0 188 7.33594 254 22.0029s118 37.667 156 69c15.333 12.667 28.833 26.167 40.5 40.5s21.334 30.666 29.001 48.999s13.667 38.666 18 60.999s6.83301 47.833 7.5 76.5h-169c-48.667 0 -97.834 6.83301 -147.501 20.5s-94.667 36.5 -135 68.5
s-73.333 74.333 -99 127s-38.5 117.667 -38.5 195c0 45.333 3.83301 86 11.5 122s17.5 68.167 29.5 96.5s25.333 52.833 40 73.5s29 38.667 43 54c38 38 81.5 67.5 130.5 88.5s101.833 31.5 158.5 31.5c49.333 0 95.5 -7.66699 138.5 -23s81.5 -38.333 115.5 -69
c46 -43.333 80.833 -98 104.5 -164s35.5 -145 35.5 -237v-369c0 -48 -3.66699 -92.167 -11 -132.5s-18.166 -77.333 -32.499 -111s-32.5 -64.334 -54.5 -92.001s-48 -53.5 -78 -77.5c-30 -23.333 -63 -43.833 -99 -61.5s-76.333 -32.167 -121 -43.5
s-93.834 -19.833 -147.501 -25.5s-113.5 -8.5 -179.5 -8.5v219zM508 643.003c-61.333 0 -108.999 -21.1699 -142.999 -63.5029s-51 -103.5 -51 -183.5c0 -40 6 -72.333 18 -97s29.667 -44.667 53 -60c11.333 -7.33301 23.5 -13.166 36.5 -17.499s25.5 -7.83301 37.5 -10.5
s22.833 -4.5 32.5 -5.5s17.5 -1.5 23.5 -1.5h169v165c0 46.667 -3.33301 85.834 -10 117.501s-15.334 57.5 -26.001 77.5s-22.5 35.5 -35.5 46.5s-26 18.833 -39 23.5s-25.333 7.33398 -37 8.00098s-21.167 1 -28.5 1zM187.001 1014l0.000976562 132.998l118 35
c-22.667 20.667 -41.167 44.334 -55.5 71.001s-21.5 55.334 -21.5 86.001c0 22 3.83301 43.833 11.5 65.5s18.167 41.5 31.5 59.5s29.333 33.5 48 46.5s38.667 22.5 60 28.5h-1c11.333 3.33301 22.5 5.83301 33.5 7.5s22.167 2.5 33.5 2.5c25.333 0 48.333 -3.5 69 -10.5
s40.667 -14.167 60 -21.5l-27 -110c-17.333 4 -34.333 8.16699 -51 12.5s-33 6.5 -49 6.5c-10 0 -20 -1.66699 -30 -5c-10 -4 -19.833 -9.16699 -29.5 -15.5s-17.834 -13.833 -24.501 -22.5s-11 -18.334 -13 -29.001c-1.33301 -4 -2 -8.33301 -2 -13
c0 -7.33301 1.33301 -14.666 4 -21.999c6 -18.667 19.5 -34.5 40.5 -47.5s49.833 -19.5 86.5 -19.5c6.66699 0 14.167 0.333008 22.5 1s19 2.5 32 5.5s29.167 7 48.5 12s43.333 12.167 72 21.5l8 -126z" />
    <glyph glyph-name="uni0625" unicode="&#x625;" horiz-adv-x="599" arabic-form="isolated" 
d="M395 -15h-219v1442h219v-1442zM69 -684l0.000976562 132.998l118 35c-22.667 20.667 -41.167 44.334 -55.5 71.001s-21.5 55.334 -21.5 86.001c0 22 3.83301 43.833 11.5 65.5s18.167 41.5 31.5 59.5s29.333 33.5 48 46.5s38.667 22.5 60 28.5h-1
c11.333 3.33301 22.5 5.83301 33.5 7.5s22.167 2.5 33.5 2.5c25.333 0 48.333 -3.5 69 -10.5s40.667 -14.167 60 -21.5l-27 -110c-17.333 4 -34.333 8.16699 -51 12.5s-33 6.5 -49 6.5c-10 0 -20 -1.66699 -30 -5c-10 -4 -19.833 -9.16699 -29.5 -15.5
s-17.834 -13.833 -24.501 -22.5s-11 -18.334 -13 -29.001c-1.33301 -4 -2 -8.33301 -2 -13c0 -7.33301 1.33301 -14.666 4 -21.999c6 -18.667 19.5 -34.5 40.5 -47.5s49.833 -19.5 86.5 -19.5c6.66699 0 14.167 0.333008 22.5 1s19 2.5 32 5.5s29.167 7 48.5 12
s43.333 12.167 72 21.5l8 -126z" />
    <glyph glyph-name="uni0626" unicode="&#x626;" horiz-adv-x="1626" arabic-form="isolated" 
d="M903 -346c64 0 119.334 5.33203 166.001 15.999s85 27.667 115 51s52.167 53.666 66.5 90.999s21.5 82.666 21.5 135.999l-180 49l-79.5 21l-83 22.5l-81 21.5l-73.5 19c-26 64.667 -41 129 -45 193c-1.33301 15.333 -2 30.666 -2 45.999
c0 47.333 6.5 96.666 19.5 147.999s35.833 102 68.5 152s73.334 93.333 122.001 130s105 65.5 169 86.5s134.667 31.5 212 31.5c32 0 64 -2.33301 96 -7s66.333 -11.667 103 -21l-55 -211c-28 8 -53.833 13.833 -77.5 17.5s-47.5 5.5 -71.5 5.5
c-54.667 0 -105.5 -8.83301 -152.5 -26.5s-87.333 -43 -121 -76s-58.834 -72.833 -75.501 -119.5c-13.333 -36 -20 -75 -20 -117c0 -13.333 0.666992 -26.666 2 -39.999l81.5 -21.5l82 -21.5l90.5 -23l107 -26c60.667 -15.333 104.334 -40.666 131.001 -75.999
s40 -79.666 40 -132.999c0 -90 -10.333 -168.667 -31 -236s-54 -123.333 -100 -168s-105.5 -78.334 -178.5 -101.001s-161.833 -34 -266.5 -34h-211c-53.333 0 -104.5 6.16699 -153.5 18.5s-94.833 30 -137.5 53s-81.834 51 -117.501 84s-67.167 70.167 -94.5 111.5
c-64.667 104.667 -97 227 -97 367c0 86.667 13 177.334 39 272.001s65.667 197.334 119 308.001l194 -94c-44.667 -94.667 -78 -181.167 -100 -259.5s-33 -152.166 -33 -221.499c0 -99.333 22 -184 66 -254c32 -53.333 75.667 -94 131 -122s116.666 -42 183.999 -42h211z
M114.001 754.999l0.000976562 132.998l118 35c-22.667 20.667 -41.167 44.334 -55.5 71.001s-21.5 55.334 -21.5 86.001c0 22 3.83301 43.833 11.5 65.5s18.167 41.5 31.5 59.5s29.333 33.5 48 46.5s38.667 22.5 60 28.5h-1c11.333 3.33301 22.5 5.83301 33.5 7.5
s22.167 2.5 33.5 2.5c25.333 0 48.333 -3.5 69 -10.5s40.667 -14.167 60 -21.5l-27 -110c-17.333 4 -34.333 8.16699 -51 12.5s-33 6.5 -49 6.5c-10 0 -20 -1.66699 -30 -5c-10 -4 -19.833 -9.16699 -29.5 -15.5s-17.834 -13.833 -24.501 -22.5s-11 -18.334 -13 -29.001
c-1.33301 -4 -2 -8.33301 -2 -13c0 -7.33301 1.33301 -14.666 4 -21.999c6 -18.667 19.5 -34.5 40.5 -47.5s49.833 -19.5 86.5 -19.5c6.66699 0 14.167 0.333008 22.5 1s19 2.5 32 5.5s29.167 7 48.5 12s43.333 12.167 72 21.5l8 -126z" />
    <glyph glyph-name="uni0627" unicode="&#x627;" horiz-adv-x="599" arabic-form="isolated" 
d="M409 -15h-219v1442h219v-1442z" />
    <glyph glyph-name="uni0628" unicode="&#x628;" horiz-adv-x="1993" arabic-form="isolated" 
d="M1857 750l17.9951 -88.002c6.66699 -33.333 12.834 -67.666 18.501 -102.999s10.5 -69.666 14.5 -102.999s6 -62 6 -86c0 -66 -11 -123.333 -33 -172s-50.5 -88.667 -85.5 -120s-74.5 -54.666 -118.5 -69.999s-88 -23 -132 -23h-1109c-48.667 0 -94.667 8.33301 -138 25
s-82 40.667 -116 72c-13.333 12.667 -27.166 28 -41.499 46s-27.166 39.167 -38.499 63.5s-20.666 52 -27.999 83s-11 65.833 -11 104.5c0 34 3.5 71.167 10.5 111.5s14.667 78.666 23 114.999s16.5 67.666 24.5 93.999s13 42.5 15 48.5l209 -66
c-4.66699 -14 -10.5 -33.5 -17.5 -58.5s-13.833 -52 -20.5 -81s-12.5 -58.167 -17.5 -87.5s-7.5 -54.666 -7.5 -75.999c0 -40.667 6.5 -72.667 19.5 -96s28 -40.833 45 -52.5s34.167 -19 51.5 -22s30.666 -4.5 39.999 -4.5h1114c8.66699 0 21.5 1.33301 38.5 4
s33.833 9.5 50.5 20.5s31.167 27.5 43.5 49.5s18.5 52.667 18.5 92c0 16.667 -1.66699 38.5 -5 65.5s-7.66602 55.5 -12.999 85.5s-11.166 60 -17.499 90l-17.5 81zM841.995 -349.002l166 168l170 -170l-168 -168z" />
    <glyph glyph-name="uni0629" unicode="&#x629;" horiz-adv-x="1007" arabic-form="isolated" 
d="M508 -15c-62 0 -118.828 9.5 -170.495 28.5s-96.334 45.333 -134.001 79s-66.834 73.5 -87.501 119.5s-31 96.333 -31 151c0 55.333 7.16699 106 21.5 152s33.833 89.333 58.5 130s53.167 79.667 85.5 117l101.5 112l-63 70l162 147l51.5 -56.5l52.5 -56.5l139 -150.5
c45.333 -49.667 85.666 -99.334 120.999 -149.001s63.666 -99.5 84.999 -149.5c20.667 -49.333 31 -98.333 31 -147v-5c-0.666992 -56.667 -11.834 -109.167 -33.501 -157.5s-53.5 -91.5 -95.5 -129.5c-38.667 -33.333 -82.667 -59.166 -132 -77.499
s-103.333 -27.5 -162 -27.5zM496.005 738l-76.001 -89.002c-23.333 -28.667 -43.666 -58 -60.999 -88s-30.833 -61.167 -40.5 -93.5s-14.5 -67.166 -14.5 -104.499c0 -27.333 5.66699 -51 17 -71s26.5 -36.5 45.5 -49.5s40.833 -22.667 65.5 -29s50 -9.5 76 -9.5
c64 0 114 15.833 150 47.5s54 73.5 54 125.5c0 31.333 -6 62.333 -18 93s-28 61 -48 91s-43 59.833 -69 89.5s-53 58.834 -81 87.501zM697.004 1215l-158 160l156 162l162 -162zM295.004 1217l-158 160l155 162l162 -162z" />
    <glyph glyph-name="uni062A" unicode="&#x62a;" horiz-adv-x="1993" arabic-form="isolated" 
d="M1847 750l17.9951 -88.002c6.66699 -33.333 12.834 -67.666 18.501 -102.999s10.5 -69.666 14.5 -102.999s6 -62 6 -86c0 -66 -11 -123.333 -33 -172s-50.5 -88.667 -85.5 -120s-74.5 -54.666 -118.5 -69.999s-88 -23 -132 -23h-1109c-48.667 0 -94.667 8.33301 -138 25
s-82 40.667 -116 72c-13.333 12.667 -27.166 28 -41.499 46s-27.166 39.167 -38.499 63.5s-20.666 52 -27.999 83s-11 65.833 -11 104.5c0 34 3.5 71.167 10.5 111.5s14.667 78.666 23 114.999s16.5 67.666 24.5 93.999s13 42.5 15 48.5l209 -66
c-4.66699 -14 -10.5 -33.5 -17.5 -58.5s-13.833 -52 -20.5 -81s-12.5 -58.167 -17.5 -87.5s-7.5 -54.666 -7.5 -75.999c0 -40.667 6.5 -72.667 19.5 -96s28 -40.833 45 -52.5s34.167 -19 51.5 -22s30.666 -4.5 39.999 -4.5h1114c8.66699 0 21.5 1.33301 38.5 4
s33.833 9.5 50.5 20.5s31.167 27.5 43.5 49.5s18.5 52.667 18.5 92c0 16.667 -1.66699 38.5 -5 65.5s-7.66602 55.5 -12.999 85.5s-11.166 60 -17.499 90l-17.5 81zM1210 766.998l-158 160l156 162l162 -162zM807.995 768.998l-158 160l155 162l162 -162z" />
    <glyph glyph-name="uni062B" unicode="&#x62b;" horiz-adv-x="1993" arabic-form="isolated" 
d="M1847 750l17.9951 -88.002c6.66699 -33.333 12.834 -67.666 18.501 -102.999s10.5 -69.666 14.5 -102.999s6 -62 6 -86c0 -66 -11 -123.333 -33 -172s-50.5 -88.667 -85.5 -120s-74.5 -54.666 -118.5 -69.999s-88 -23 -132 -23h-1109c-48.667 0 -94.667 8.33301 -138 25
s-82 40.667 -116 72c-13.333 12.667 -27.166 28 -41.499 46s-27.166 39.167 -38.499 63.5s-20.666 52 -27.999 83s-11 65.833 -11 104.5c0 34 3.5 71.167 10.5 111.5s14.667 78.666 23 114.999s16.5 67.666 24.5 93.999s13 42.5 15 48.5l209 -66
c-4.66699 -14 -10.5 -33.5 -17.5 -58.5s-13.833 -52 -20.5 -81s-12.5 -58.167 -17.5 -87.5s-7.5 -54.666 -7.5 -75.999c0 -40.667 6.5 -72.667 19.5 -96s28 -40.833 45 -52.5s34.167 -19 51.5 -22s30.666 -4.5 39.999 -4.5h1114c8.66699 0 21.5 1.33301 38.5 4
s33.833 9.5 50.5 20.5s31.167 27.5 43.5 49.5s18.5 52.667 18.5 92c0 16.667 -1.66699 38.5 -5 65.5s-7.66602 55.5 -12.999 85.5s-11.166 60 -17.499 90l-17.5 81zM954.995 886.998l-160 -162l-160 160l160 162zM1384 890.998l-158 -160l-165 158l162 162zM1163 1173
l-150 -150l-148 148l150 150z" />
    <glyph glyph-name="uni062C" unicode="&#x62c;" horiz-adv-x="1460" arabic-form="isolated" 
d="M1359 583l-608.998 -238.999c-88 -33.333 -160.833 -62 -218.5 -86s-103.334 -47.833 -137.001 -71.5s-57.167 -49.334 -70.5 -77.001s-20 -61.5 -20 -101.5c0 -74.667 12.333 -134.334 37 -179.001s58.667 -79 102 -103s95 -39.833 155 -47.5s125.667 -11.5 197 -11.5
h474v-219h-474c-103.333 0 -198.166 9.83301 -284.499 29.5s-160.5 51.334 -222.5 95.001s-110.333 100.834 -145 171.501s-52 157 -52 259c0 79.333 15.5 147.333 46.5 204s73.167 105.834 126.5 147.501s115.333 77.167 186 106.5s145.667 56.666 225 81.999l432 133
l-502 175c-30 8.66699 -56.667 13.167 -80 13.5s-44 -3.83398 -62 -12.501s-33.667 -22.334 -47 -41.001s-25.333 -42.334 -36 -71.001l-202 61c14 44.667 33 87.334 57 128.001s53.667 74.834 89 102.501s76.666 46.167 123.999 55.5c14.667 2.66699 30 4 46 4
c35.333 0 74 -6.66699 116 -20c37.333 -12 71.166 -23.5 101.499 -34.5l89.5 -34l92.5 -37.5l112 -45.5l147.5 -58l199 -73.5zM681.002 42.001l166 168l170 -170l-168 -168z" />
    <glyph glyph-name="uni062D" unicode="&#x62d;" horiz-adv-x="1460" arabic-form="isolated" 
d="M1354 583l-608.998 -238.999c-88 -33.333 -160.833 -62 -218.5 -86s-103.334 -47.833 -137.001 -71.5s-57.167 -49.334 -70.5 -77.001s-20 -61.5 -20 -101.5c0 -74.667 12.333 -134.334 37 -179.001s58.667 -79 102 -103s95 -39.833 155 -47.5s125.667 -11.5 197 -11.5
h474v-219h-474c-103.333 0 -198.166 9.83301 -284.499 29.5s-160.5 51.334 -222.5 95.001s-110.333 100.834 -145 171.501s-52 157 -52 259c0 79.333 15.5 147.333 46.5 204s73.167 105.834 126.5 147.501s115.333 77.167 186 106.5s145.667 56.666 225 81.999l432 133
l-502 175c-30 8.66699 -56.667 13.167 -80 13.5s-44 -3.83398 -62 -12.501s-33.667 -22.334 -47 -41.001s-25.333 -42.334 -36 -71.001l-202 61c14 44.667 33 87.334 57 128.001s53.667 74.834 89 102.501s76.666 46.167 123.999 55.5c14.667 2.66699 30 4 46 4
c35.333 0 74 -6.66699 116 -20c37.333 -12 71.166 -23.5 101.499 -34.5l89.5 -34l92.5 -37.5l112 -45.5l147.5 -58l199 -73.5z" />
    <glyph glyph-name="uni062E" unicode="&#x62e;" horiz-adv-x="1460" arabic-form="isolated" 
d="M1369 583l-608.998 -238.999c-88 -33.333 -160.833 -62 -218.5 -86s-103.334 -47.833 -137.001 -71.5s-57.167 -49.334 -70.5 -77.001s-20 -61.5 -20 -101.5c0 -74.667 12.333 -134.334 37 -179.001s58.667 -79 102 -103s95 -39.833 155 -47.5s125.667 -11.5 197 -11.5
h474v-219h-474c-103.333 0 -198.166 9.83301 -284.499 29.5s-160.5 51.334 -222.5 95.001s-110.333 100.834 -145 171.501s-52 157 -52 259c0 79.333 15.5 147.333 46.5 204s73.167 105.834 126.5 147.501s115.333 77.167 186 106.5s145.667 56.666 225 81.999l432 133
l-502 175c-30 8.66699 -56.667 13.167 -80 13.5s-44 -3.83398 -62 -12.501s-33.667 -22.334 -47 -41.001s-25.333 -42.334 -36 -71.001l-202 61c14 44.667 33 87.334 57 128.001s53.667 74.834 89 102.501s76.666 46.167 123.999 55.5c14.667 2.66699 30 4 46 4
c35.333 0 74 -6.66699 116 -20c37.333 -12 71.166 -23.5 101.499 -34.5l89.5 -34l92.5 -37.5l112 -45.5l147.5 -58l199 -73.5zM326.002 1466l166 168l170 -170l-168 -168z" />
    <glyph glyph-name="uni062F" unicode="&#x62f;" horiz-adv-x="1112" arabic-form="isolated" 
d="M563 -24c-40.667 0 -80.3311 2 -118.998 6c-19.333 2 -40.333 4.66699 -63 8s-45.834 8 -69.501 14s-47.334 13.5 -71.001 22.5s-46.167 19.5 -67.5 31.5l-95 54l109 190l95 -54c22.667 -13.333 50.5 -24 83.5 -32s68.167 -13.667 105.5 -17
c30.667 -2.66699 61.667 -4 93 -4c6.66699 0 21 0.166992 43 0.5s49 2.83301 81 7.5c42.667 6.66699 74.5 15.167 95.5 25.5s33.167 20.166 36.5 29.499c2 4 3 9 3 15c0 8.66699 -2.33301 21.667 -7 39s-19 44 -43 80l-156 235.5l-94 141.5l-46 70
c-8 12.667 -12.333 19.334 -13 20.001l-60 92l183 120l60 -92l13 -19l46 -70l94 -142l156 -235c38 -57.333 63.667 -112.666 77 -165.999c6 -25.333 9 -50 9 -74c0 -36.667 -7.33301 -71.334 -22 -104.001c-23.333 -53.333 -63 -95.333 -119 -126
c-48.667 -27.333 -109 -46 -181 -56c-25.333 -4 -51 -6.83301 -77 -8.5s-52.667 -2.5 -80 -2.5z" />
    <glyph glyph-name="uni0630" unicode="&#x630;" horiz-adv-x="1112" arabic-form="isolated" 
d="M556 -24c-40.667 0 -80.3311 2 -118.998 6c-19.333 2 -40.333 4.66699 -63 8s-45.834 8 -69.501 14s-47.334 13.5 -71.001 22.5s-46.167 19.5 -67.5 31.5l-95 54l109 190l95 -54c22.667 -13.333 50.5 -24 83.5 -32s68.167 -13.667 105.5 -17
c30.667 -2.66699 61.667 -4 93 -4c6.66699 0 21 0.166992 43 0.5s49 2.83301 81 7.5c42.667 6.66699 74.5 15.167 95.5 25.5s33.167 20.166 36.5 29.499c2 4 3 9 3 15c0 8.66699 -2.33301 21.667 -7 39s-19 44 -43 80l-156 235.5l-94 141.5l-46 70
c-8 12.667 -12.333 19.334 -13 20.001l-60 92l183 120l60 -92l13 -19l46 -70l94 -142l156 -235c38 -57.333 63.667 -112.666 77 -165.999c6 -25.333 9 -50 9 -74c0 -36.667 -7.33301 -71.334 -22 -104.001c-23.333 -53.333 -63 -95.333 -119 -126
c-48.667 -27.333 -109 -46 -181 -56c-25.333 -4 -51 -6.83301 -77 -8.5s-52.667 -2.5 -80 -2.5zM369.003 1406l166 168l170 -170l-168 -168z" />
    <glyph glyph-name="uni0631" unicode="&#x631;" horiz-adv-x="802" arabic-form="isolated" 
d="M742 32c-4 -89.333 -20.4971 -170 -49.4971 -242s-69.333 -133.333 -121 -184s-113.834 -89.667 -186.501 -117s-155 -41 -247 -41h-138v219h138c66.667 0 124.167 7 172.5 21s88.166 36.167 119.499 66.5s54.666 70 69.999 119s23 108.5 23 178.5v624h219v-644z" />
    <glyph glyph-name="uni0632" unicode="&#x632;" horiz-adv-x="802" arabic-form="isolated" 
d="M742 32c-4 -89.333 -20.4971 -170 -49.4971 -242s-69.333 -133.333 -121 -184s-113.834 -89.667 -186.501 -117s-155 -41 -247 -41h-138v219h138c66.667 0 124.167 7 172.5 21s88.166 36.167 119.499 66.5s54.666 70 69.999 119s23 108.5 23 178.5v624h219v-644z
M461.003 1109l166 168l170 -170l-168 -168z" />
    <glyph glyph-name="uni0633" unicode="&#x633;" horiz-adv-x="2692" arabic-form="isolated" 
d="M2226 -15c-64 0 -120.999 9.16895 -170.999 27.502s-92.333 44.5 -127 78.5c-19.333 -20 -40 -36.833 -62 -50.5s-44.833 -24.667 -68.5 -33s-47.5 -14.166 -71.5 -17.499s-47.333 -5 -70 -5c-19.333 0 -38 0.666992 -56 2s-35.333 4 -52 8s-32.667 10 -48 18
s-30.333 18.667 -45 32v-73c0 -178.667 -48.167 -310.667 -144.5 -396s-239.5 -128 -429.5 -128h-195c-87.333 0 -167.333 14.333 -240 43s-135.5 69.5 -188.5 122.5s-94.167 117 -123.5 192s-44 159.5 -44 253.5c0 87.333 13.167 178.166 39.5 272.499
s65.5 196.166 117.5 305.499l197 -96c-46 -94 -82.333 -179.667 -109 -257s-40 -151.333 -40 -222c0 -55.333 9.5 -107 28.5 -155s45.833 -89.833 80.5 -125.5s76 -63.834 124 -84.501c46 -20 97 -30 153 -30h200c74 0 134.167 6.83301 180.5 20.5s82.333 33.5 108 59.5
s43.167 58 52.5 96s14 81 14 129v704h219v-195c0 -60.667 5.66699 -109.167 17 -145.5s26.5 -64.333 45.5 -84s40.5 -32.667 64.5 -39s48.667 -9.5 74 -9.5c15.333 0 32.833 2.66699 52.5 8s38.167 14.666 55.5 27.999s31.833 31 43.5 53s17.5 49.667 17.5 83v301h218v-311
c1.33301 -56 16.333 -97 44.999 -123c28.667 -26 74 -39 136 -39c10.667 0.666992 24.5 3 41.5 7s33.667 12 50 24s30.333 29.167 42 51.5s17.5 52.166 17.5 89.499c0 14.667 -1.33301 32.667 -4 54s-6 44.333 -10 69s-8.5 49.834 -13.5 75.501s-10 50 -15 73
s-9.83301 43.667 -14.5 62l-11 42.5l208 63c1.33301 -4 4.16602 -14.5 8.5 -31.5c4.33301 -17 9.16602 -38 14.5 -63l17 -83.5c6 -30.667 11.5 -61.667 16.5 -93s9.16699 -61.666 12.5 -90.999s5 -55 5 -77c0 -65.333 -10.667 -122.333 -32 -171s-49.166 -89 -83.5 -121
c-34.333 -32 -73.166 -56.167 -116.5 -72.5c-43.333 -16.333 -87 -24.833 -131 -25.5z" />
    <glyph glyph-name="uni0634" unicode="&#x634;" horiz-adv-x="2692" arabic-form="isolated" 
d="M2229 -15c-64 0 -120.999 9.16895 -170.999 27.502s-92.333 44.5 -127 78.5c-19.333 -20 -40 -36.833 -62 -50.5s-44.833 -24.667 -68.5 -33s-47.5 -14.166 -71.5 -17.499s-47.333 -5 -70 -5c-19.333 0 -38 0.666992 -56 2s-35.333 4 -52 8s-32.667 10 -48 18
s-30.333 18.667 -45 32v-73c0 -178.667 -48.167 -310.667 -144.5 -396s-239.5 -128 -429.5 -128h-195c-87.333 0 -167.333 14.333 -240 43s-135.5 69.5 -188.5 122.5s-94.167 117 -123.5 192s-44 159.5 -44 253.5c0 87.333 13.167 178.166 39.5 272.499
s65.5 196.166 117.5 305.499l197 -96c-46 -94 -82.333 -179.667 -109 -257s-40 -151.333 -40 -222c0 -55.333 9.5 -107 28.5 -155s45.833 -89.833 80.5 -125.5s76 -63.834 124 -84.501c46 -20 97 -30 153 -30h200c74 0 134.167 6.83301 180.5 20.5s82.333 33.5 108 59.5
s43.167 58 52.5 96s14 81 14 129v704h219v-195c0 -60.667 5.66699 -109.167 17 -145.5s26.5 -64.333 45.5 -84s40.5 -32.667 64.5 -39s48.667 -9.5 74 -9.5c15.333 0 32.833 2.66699 52.5 8s38.167 14.666 55.5 27.999s31.833 31 43.5 53s17.5 49.667 17.5 83v301h218v-311
c1.33301 -56 16.333 -97 44.999 -123c28.667 -26 74 -39 136 -39c10.667 0.666992 24.5 3 41.5 7s33.667 12 50 24s30.333 29.167 42 51.5s17.5 52.166 17.5 89.499c0 14.667 -1.33301 32.667 -4 54s-6 44.333 -10 69s-8.5 49.834 -13.5 75.501s-10 50 -15 73
s-9.83301 43.667 -14.5 62l-11 42.5l208 63c1.33301 -4 4.16602 -14.5 8.5 -31.5c4.33301 -17 9.16602 -38 14.5 -63l17 -83.5c6 -30.667 11.5 -61.667 16.5 -93s9.16699 -61.666 12.5 -90.999s5 -55 5 -77c0 -65.333 -10.667 -122.333 -32 -171s-49.166 -89 -83.5 -121
c-34.333 -32 -73.166 -56.167 -116.5 -72.5c-43.333 -16.333 -87 -24.833 -131 -25.5zM1899 1109l-160 -162l-160 160l160 162zM2328 1113l-158 -160l-165 158l162 162zM2107 1395l-150 -150l-148 148l150 150z" />
    <glyph glyph-name="uni0635" unicode="&#x635;" horiz-adv-x="2742" arabic-form="isolated" 
d="M687 -552c-52 0 -102.332 5.99609 -150.999 17.9961s-94.334 29.5 -137.001 52.5s-82 51 -118 84s-67.333 70.5 -94 112.5c-31.333 52 -55.333 106.833 -72 164.5s-25 120.834 -25 189.501c0 86 13 175.167 39 267.5s64.667 192.166 116 299.499l198 -94
c-44.667 -93.333 -78.334 -178.166 -101.001 -254.499s-34 -149.166 -34 -218.499c0 -49.333 5.33301 -92.666 16 -129.999s27.334 -73.666 50.001 -108.999c32 -52 75.333 -92.167 130 -120.5s115.667 -42.5 183 -42.5h219c73.333 0 133 7 179 21s81.833 34.333 107.5 61
s43.167 59.167 52.5 97.5s14 81.833 14 130.5v699h218v-334c0 -14.667 2.66699 -28.667 8 -42s12 -25.166 20 -35.499s17 -18.5 27 -24.5s20 -9 30 -9l99.5 159c33 52 66.833 101.167 101.5 147.5s70.5 89.166 107.5 128.499s75.667 73.333 116 102s82.5 51 126.5 67
s91 24 141 24c50.667 0 100.334 -8.5 149.001 -25.5s92.167 -44 130.5 -81s69.333 -84.333 93 -142s35.5 -127.167 35.5 -208.5c0 -76.667 -12.667 -141.5 -38 -194.5s-58 -96 -98 -129s-84.833 -56.833 -134.5 -71.5s-98.5 -22 -146.5 -22h-573c-14 0 -30 0.166992 -48 0.5
s-36 2 -54 5s-35.333 7.83301 -52 14.5s-30.334 16 -41.001 28v-56c0 -180 -47.667 -313.167 -143 -399.5s-238 -129.5 -428 -129.5h-219zM2245 203.996c5.33301 0 12.832 0.331055 22.499 0.998047s20.334 2 32 4c11.667 2 23.834 5.16699 36.501 9.5s24.667 10.5 36 18.5
c12 8 23.833 17.333 35.5 28s22 22.834 31 36.501s16.333 28.834 22 45.501s8.5 35 8.5 55c0 40 -5.5 74.833 -16.5 104.5s-26.333 54.334 -46 74.001s-42.5 34.5 -68.5 44.5s-54 15 -84 15c-42.667 0 -85 -13 -127 -39s-83 -59.833 -123 -101.5
s-78.167 -88.334 -114.5 -140.001s-70.5 -103.5 -102.5 -155.5h458z" />
    <glyph glyph-name="uni0636" unicode="&#x636;" horiz-adv-x="2742" arabic-form="isolated" 
d="M680 -552c-52 0 -102.332 5.99609 -150.999 17.9961s-94.334 29.5 -137.001 52.5s-82 51 -118 84s-67.333 70.5 -94 112.5c-31.333 52 -55.333 106.833 -72 164.5s-25 120.834 -25 189.501c0 86 13 175.167 39 267.5s64.667 192.166 116 299.499l198 -94
c-44.667 -93.333 -78.334 -178.166 -101.001 -254.499s-34 -149.166 -34 -218.499c0 -49.333 5.33301 -92.666 16 -129.999s27.334 -73.666 50.001 -108.999c32 -52 75.333 -92.167 130 -120.5s115.667 -42.5 183 -42.5h219c73.333 0 133 7 179 21s81.833 34.333 107.5 61
s43.167 59.167 52.5 97.5s14 81.833 14 130.5v699h218v-334c0 -14.667 2.66699 -28.667 8 -42s12 -25.166 20 -35.499s17 -18.5 27 -24.5s20 -9 30 -9l99.5 159c33 52 66.833 101.167 101.5 147.5s70.5 89.166 107.5 128.499s75.667 73.333 116 102s82.5 51 126.5 67
s91 24 141 24c50.667 0 100.334 -8.5 149.001 -25.5s92.167 -44 130.5 -81s69.333 -84.333 93 -142s35.5 -127.167 35.5 -208.5c0 -76.667 -12.667 -141.5 -38 -194.5s-58 -96 -98 -129s-84.833 -56.833 -134.5 -71.5s-98.5 -22 -146.5 -22h-573c-14 0 -30 0.166992 -48 0.5
s-36 2 -54 5s-35.333 7.83301 -52 14.5s-30.334 16 -41.001 28v-56c0 -180 -47.667 -313.167 -143 -399.5s-238 -129.5 -428 -129.5h-219zM2238 203.996c5.33301 0 12.832 0.331055 22.499 0.998047s20.334 2 32 4c11.667 2 23.834 5.16699 36.501 9.5s24.667 10.5 36 18.5
c12 8 23.833 17.333 35.5 28s22 22.834 31 36.501s16.333 28.834 22 45.501s8.5 35 8.5 55c0 40 -5.5 74.833 -16.5 104.5s-26.333 54.334 -46 74.001s-42.5 34.5 -68.5 44.5s-54 15 -84 15c-42.667 0 -85 -13 -127 -39s-83 -59.833 -123 -101.5
s-78.167 -88.334 -114.5 -140.001s-70.5 -103.5 -102.5 -155.5h458zM2071 1228.99l166 168l170 -170l-168 -168z" />
    <glyph glyph-name="uni0637" unicode="&#x637;" horiz-adv-x="1525" arabic-form="isolated" 
d="M87 -15l0.00195312 218.999h232l12 18l16 23.5l25 37c10 15 22.667 35.167 38 60.5v1083h218v-780c27.333 30.667 56.166 59 86.499 85s62 48.5 95 67.5s67.667 34 104 45s74.166 16.5 113.499 16.5c50.667 0 100.5 -9.16699 149.5 -27.5s92.667 -46.5 131 -84.5
s69.333 -86.333 93 -145s35.5 -128.667 35.5 -210c0 -77.333 -12.833 -142.166 -38.5 -194.499s-58.667 -94.333 -99 -126s-85.5 -54.167 -135.5 -67.5s-99 -20 -147 -20h-929zM1027 641.999c-42 0 -84.501 -12.998 -127.501 -38.998s-85 -60 -126 -102
s-80.333 -89 -118 -141s-72.167 -104 -103.5 -156h464c5.33301 0 13 0.5 23 1.5s21 2.66699 33 5s24.333 5.66602 37 9.99902s25 10.166 37 17.499c12 8 23.667 16.667 35 26s21.666 20.166 30.999 32.499s16.833 26.333 22.5 42s8.5 33.834 8.5 54.501
c0 40 -5.66699 75.333 -17 106s-26.666 56.667 -45.999 78s-42.166 37.5 -68.499 48.5s-54.5 16.5 -84.5 16.5z" />
    <glyph glyph-name="uni0638" unicode="&#x638;" horiz-adv-x="1525" arabic-form="isolated" 
d="M72 -15l0.00195312 218.999h232l12 18l16 23.5l25 37c10 15 22.667 35.167 38 60.5v1083h218v-780c27.333 30.667 56.166 59 86.499 85s62 48.5 95 67.5s67.667 34 104 45s74.166 16.5 113.499 16.5c50.667 0 100.5 -9.16699 149.5 -27.5s92.667 -46.5 131 -84.5
s69.333 -86.333 93 -145s35.5 -128.667 35.5 -210c0 -77.333 -12.833 -142.166 -38.5 -194.499s-58.667 -94.333 -99 -126s-85.5 -54.167 -135.5 -67.5s-99 -20 -147 -20h-929zM1012 641.999c-42 0 -84.501 -12.998 -127.501 -38.998s-85 -60 -126 -102
s-80.333 -89 -118 -141s-72.167 -104 -103.5 -156h464c5.33301 0 13 0.5 23 1.5s21 2.66699 33 5s24.333 5.66602 37 9.99902s25 10.166 37 17.499c12 8 23.667 16.667 35 26s21.666 20.166 30.999 32.499s16.833 26.333 22.5 42s8.5 33.834 8.5 54.501
c0 40 -5.66699 75.333 -17 106s-26.666 56.667 -45.999 78s-42.166 37.5 -68.499 48.5s-54.5 16.5 -84.5 16.5zM873.001 1287l166 168l170 -170l-168 -168z" />
    <glyph glyph-name="uni0639" unicode="&#x639;" horiz-adv-x="1373" arabic-form="isolated" 
d="M1204 -553l-465.003 -0.00292969c-82 0 -162.333 11 -241 33s-149 56 -211 102s-112 104.5 -150 175.5s-57 155.833 -57 254.5c0 83.333 16.5 160 49.5 230s80.167 131 141.5 183c36 30.667 74.333 56.5 115 77.5s83.667 36.833 129 47.5c-23.333 26 -42 51.833 -56 77.5
s-24.667 50.334 -32 74.001s-12.166 45.834 -14.499 66.501s-3.5 39 -3.5 55c0 56.667 11.333 109.834 34 159.501s53.334 92.834 92.001 129.501s83.334 65.667 134.001 87s104 32 160 32c36 0 70.667 -4.5 104 -13.5s65.666 -20.667 96.999 -35s62 -30.833 92 -49.5
l89 -57l-99 -176l-102 56c-28 14.667 -52.5 26.167 -73.5 34.5s-39.833 14 -56.5 17s-33.667 4.5 -51 4.5c-24 0 -48.167 -4.33301 -72.5 -13s-46 -21.167 -65 -37.5s-34.5 -36.166 -46.5 -59.499s-18 -49.666 -18 -78.999c0 -9.33301 1 -19.833 3 -31.5
s6 -24.334 12 -38.001s14.333 -27.667 25 -42s24.667 -28.833 42 -43.5c42 -32.667 97.5 -58 166.5 -76s149.167 -27 240.5 -27h127v-219h-605c-34 0 -71.5 -6.5 -112.5 -19.5s-79.167 -33 -114.5 -60s-64.833 -61.667 -88.5 -104s-35.5 -92.5 -35.5 -150.5
c0 -56 9.5 -103.5 28.5 -142.5s43.167 -71.167 72.5 -96.5s61.833 -45.333 97.5 -60s70.334 -25.334 104.001 -32.001s64 -10.834 91 -12.501s46.5 -2.5 58.5 -2.5h465v-219z" />
    <glyph glyph-name="uni063A" unicode="&#x63a;" horiz-adv-x="1373" arabic-form="isolated" 
d="M1214 -553l-465.003 -0.00292969c-82 0 -162.333 11 -241 33s-149 56 -211 102s-112 104.5 -150 175.5s-57 155.833 -57 254.5c0 83.333 16.5 160 49.5 230s80.167 131 141.5 183c36 30.667 74.333 56.5 115 77.5s83.667 36.833 129 47.5c-23.333 26 -42 51.833 -56 77.5
s-24.667 50.334 -32 74.001s-12.166 45.834 -14.499 66.501s-3.5 39 -3.5 55c0 56.667 11.333 109.834 34 159.501s53.334 92.834 92.001 129.501s83.334 65.667 134.001 87s104 32 160 32c36 0 70.667 -4.5 104 -13.5s65.666 -20.667 96.999 -35s62 -30.833 92 -49.5
l89 -57l-99 -176l-102 56c-28 14.667 -52.5 26.167 -73.5 34.5s-39.833 14 -56.5 17s-33.667 4.5 -51 4.5c-24 0 -48.167 -4.33301 -72.5 -13s-46 -21.167 -65 -37.5s-34.5 -36.166 -46.5 -59.499s-18 -49.666 -18 -78.999c0 -9.33301 1 -19.833 3 -31.5
s6 -24.334 12 -38.001s14.333 -27.667 25 -42s24.667 -28.833 42 -43.5c42 -32.667 97.5 -58 166.5 -76s149.167 -27 240.5 -27h127v-219h-605c-34 0 -71.5 -6.5 -112.5 -19.5s-79.167 -33 -114.5 -60s-64.833 -61.667 -88.5 -104s-35.5 -92.5 -35.5 -150.5
c0 -56 9.5 -103.5 28.5 -142.5s43.167 -71.167 72.5 -96.5s61.833 -45.333 97.5 -60s70.334 -25.334 104.001 -32.001s64 -10.834 91 -12.501s46.5 -2.5 58.5 -2.5h465v-219zM664.997 1590l166 168l170 -170l-168 -168z" />
    <glyph glyph-name="uni0641" unicode="&#x641;" horiz-adv-x="2074" arabic-form="isolated" 
d="M1411 204c66 0 120.16 4 162.493 12s76 18.5 101 31.5s42.833 27.333 53.5 43s17.667 31.167 21 46.5h-135c-32.667 0 -66 1.83301 -100 5.5s-67.167 10.5 -99.5 20.5s-62.666 23.5 -90.999 40.5s-53.166 38.833 -74.499 65.5s-38.166 58.834 -50.499 96.501
s-18.5 81.834 -18.5 132.501c0 56 9.5 107.667 28.5 155s45.667 88.166 80 122.499s75 61.333 122 81s98.5 29.5 154.5 29.5c51.333 0 96.833 -7.16699 136.5 -21.5s74.5 -34.333 104.5 -60s55.333 -56.167 76 -91.5s37.334 -73.833 50.001 -115.5s22 -85.667 28 -132
s9 -93.5 9 -141.5v-138c0 -78 -15.5 -142.833 -46.5 -194.5s-72.167 -93 -123.5 -124s-110.666 -52.5 -177.999 -64.5c-64 -12 -130.333 -18 -199 -18h-985c-48.667 0 -94.667 8.33301 -138 25s-82 40.667 -116 72c-13.333 12.667 -27.166 28 -41.499 46
s-27.166 39.167 -38.499 63.5s-20.666 52 -27.999 83s-11 65.833 -11 104.5c0 34 3.5 71.167 10.5 111.5s14.667 78.666 23 114.999s16.5 67.666 24.5 93.999s13 42.5 15 48.5l104 -33l105 -33c-4.66699 -14 -10.5 -33.5 -17.5 -58.5s-13.833 -52 -20.5 -81
s-12.5 -58.167 -17.5 -87.5s-7.5 -54.666 -7.5 -75.999c0 -40.667 6.5 -72.667 19.5 -96s28 -40.833 45 -52.5s34.167 -19 51.5 -22s30.666 -4.5 39.999 -4.5h972zM1564.99 867c-20.667 0 -42.001 -2.83203 -64.001 -8.49902s-42 -15.167 -60 -28.5
s-32.833 -30.833 -44.5 -52.5s-17.5 -48.167 -17.5 -79.5c0 -38.667 6.83301 -67.834 20.5 -87.501s31.5 -33.5 53.5 -41.5s47 -12.167 75 -12.5s56.667 -0.5 86 -0.5h138c-3.33301 40 -7.5 78.667 -12.5 116s-13.833 70.5 -26.5 99.5s-30.667 52.167 -54 69.5
s-54.666 26 -93.999 26zM1403.99 1472l166 168l170 -170l-168 -168z" />
    <glyph glyph-name="uni0642" unicode="&#x642;" horiz-adv-x="1598" arabic-form="isolated" 
d="M692 -552c-52 0 -102.335 5.99902 -151.002 17.999s-94.334 29.5 -137.001 52.5s-81.834 51 -117.501 84s-66.5 70.5 -92.5 112.5c-32 51.333 -56.5 105.333 -73.5 162s-25.5 119.334 -25.5 188.001c0 85.333 12 174 36 266s62.667 192 116 300l196 -93
c-45.333 -93.333 -78.333 -178.166 -99 -254.499s-31 -149.5 -31 -219.5c0 -48.667 5.5 -91.167 16.5 -127.5s27.5 -71.833 49.5 -106.5c32 -52 75.333 -92.167 130 -120.5s115.667 -42.5 183 -42.5h75c98.667 0 180 7.66699 244 23s115 38.666 153 69.999
c15.333 12.667 28.833 26.167 40.5 40.5s21.334 30.333 29.001 48s13.667 37.667 18 60s6.83301 47.833 7.5 76.5h-158c-48.667 0 -97.834 6.66699 -147.501 20s-94.667 35.833 -135 67.5s-73.333 73.667 -99 126s-38.5 117.166 -38.5 194.499c0 60 8.83301 118 26.5 174
s43.834 105.833 78.501 149.5s77.834 78.667 129.501 105s111.167 39.5 178.5 39.5c68 0 126.167 -13.833 174.5 -41.5s88 -64.5 119 -110.5s53.667 -98.667 68 -158s21.5 -121 21.5 -185v-366c0 -48 -3.66699 -92 -11 -132s-18.166 -76.667 -32.499 -110
s-32.5 -63.833 -54.5 -91.5s-48 -53.5 -78 -77.5c-29.333 -23.333 -61.666 -43.666 -96.999 -60.999s-74.333 -31.833 -117 -43.5s-89.5 -20.5 -140.5 -26.5s-107.5 -9.33301 -169.5 -10h-85zM1094 653.999c-30.667 0 -58.1689 -6.16699 -82.502 -18.5
s-45 -29.833 -62 -52.5s-30 -50 -39 -82s-13.5 -68 -13.5 -108s6.5 -71.833 19.5 -95.5s31.167 -43.167 54.5 -58.5c11.333 -7.33301 23.5 -13.166 36.5 -17.499s25.5 -7.83301 37.5 -10.5s22.833 -4.5 32.5 -5.5s17.5 -1.5 23.5 -1.5h158v162c0 46.667 -3 86.167 -9 118.5
s-13.833 59.166 -23.5 80.499s-20.5 38 -32.5 50s-24.167 20.833 -36.5 26.5s-24.166 9.16699 -35.499 10.5s-20.666 2 -27.999 2zM1271 1041l-158 160l156 162l162 -162zM868.996 1043l-158 160l155 162l162 -162z" />
    <glyph glyph-name="uni0643" unicode="&#x643;" horiz-adv-x="2082" arabic-form="isolated" 
d="M1104 935c-36.667 -21.333 -66.166 -40.498 -88.499 -57.498s-39.666 -31.5 -51.999 -43.5s-20.833 -22 -25.5 -30s-7.66699 -13.667 -9 -17c5.33301 -1.33301 14 -2.33301 26 -3h7c9.33301 0 19.5 0.333008 30.5 1s22.167 1.66699 33.5 3
c12 1.33301 24.167 2.33301 36.5 3s24.5 1 36.5 1c14 0 27.667 -1 41 -3c18 -2 33.333 -5.83301 46 -11.5s23.167 -12.334 31.5 -20.001s15 -15.667 20 -24s8.83301 -16.5 11.5 -24.5c3.33301 -11.333 5 -23 5 -35c0 -20 -5.66699 -40 -17 -60
c-23.333 -38 -69.333 -71.333 -138 -100c-28 -11.333 -59 -21.833 -93 -31.5s-71.333 -18.5 -112 -26.5l-24 121c38 7.33301 73.167 15.5 105.5 24.5s60.5 18.833 84.5 29.5c17.333 7.33301 31 14.166 41 20.499s17.333 11.5 22 15.5
c-2.66699 0.666992 -5.33398 1 -8.00098 1s-5.66699 0.333008 -9 1h-7c-9.33301 0 -19.333 -0.333008 -30 -1s-21.667 -1.66699 -33 -3c-12.667 -1.33301 -25.167 -2.33301 -37.5 -3s-24.5 -1 -36.5 -1c-6 0 -12.167 0.166992 -18.5 0.5s-12.166 0.833008 -17.499 1.5
c-34 4 -59.167 13.167 -75.5 27.5s-27.5 28.5 -33.5 42.5c-6 12.667 -9.66699 28.667 -11 48v8c0 17.333 5.33301 37 16 59c13.333 26.667 34.666 53.667 63.999 81c19.333 18 41.666 36.167 66.999 54.5s55 37.5 89 57.5zM464.001 -14.998
c-48.667 0 -94.6689 8.33301 -138.002 25s-82 40.667 -116 72c-13.333 12.667 -27.166 28 -41.499 46s-27.166 39.167 -38.499 63.5s-20.666 52 -27.999 83s-11 65.833 -11 104.5c0 34 3.5 71.167 10.5 111.5s14.667 78.666 23 114.999s16.5 67.666 24.5 93.999
s13 42.5 15 48.5l104 -33l105 -33c-4.66699 -14 -10.5 -33.5 -17.5 -58.5s-13.833 -52 -20.5 -81s-12.5 -58.167 -17.5 -87.5s-7.5 -54.666 -7.5 -75.999c0 -40.667 6.5 -72.667 19.5 -96s28 -40.833 45 -52.5s34.167 -19 51.5 -22s30.666 -4.5 39.999 -4.5h981
c64 0 114.333 4.16699 151 12.5s63.667 21.166 81 38.499c12 11.333 20.833 27.5 26.5 48.5s8.5 49.5 8.5 85.5v1041h218v-1041c0 -23.333 -1.16699 -47.666 -3.5 -72.999s-7 -50.666 -14 -75.999s-17.167 -50.333 -30.5 -75s-31 -48 -53 -70
c-39.333 -37.333 -89.333 -65 -150 -83s-138.667 -27 -234 -27h-983z" />
    <glyph glyph-name="uni0644" unicode="&#x644;" horiz-adv-x="1361" arabic-form="isolated" 
d="M594 -568c-45.333 0 -89.165 5.16699 -131.498 15.5s-82 25.5 -119 45.5s-71 44.167 -102 72.5s-58.167 60.5 -81.5 96.5c-10 16 -20 34.5 -30 55.5s-19 44.833 -27 71.5s-14.5 56.334 -19.5 89.001s-7.5 68 -7.5 106c0 32.667 2.33301 66.667 7 102s12.167 73 22.5 113
s24 82.667 41 128s38.167 94 63.5 146l197 -94c-38 -78.667 -66.5 -149.834 -85.5 -213.501s-28.5 -124.5 -28.5 -182.5c0 -78.667 17.333 -146.667 52 -204c13.333 -18.667 29.166 -35.834 47.499 -51.501s38.166 -29.167 59.499 -40.5s44 -20.166 68 -26.499
s48.667 -9.5 74 -9.5h46c73.333 0 133 7.66699 179 23s82 37 108 65s43.833 61.833 53.5 101.5s14.5 84.167 14.5 133.5v1452h216v-1452c0 -360 -190.333 -540.667 -571 -542h-46z" />
    <glyph glyph-name="uni0645" unicode="&#x645;" horiz-adv-x="1352" arabic-form="isolated" 
d="M940 197c6.66699 0 17.001 0.834961 31.001 2.50195s28.167 9.16699 42.5 22.5s26.833 35.166 37.5 65.499s16 74.166 16 131.499c0 6.66699 -1 17.334 -3 32.001s-5.5 30.834 -10.5 48.501s-12.167 36 -21.5 55s-21.333 36.167 -36 51.5s-32.5 28 -53.5 38
s-45.833 15 -74.5 15c-23.333 0 -45.166 -3.5 -65.499 -10.5s-39.333 -22.833 -57 -47.5s-33.834 -60.334 -48.501 -107.001s-28.334 -109.334 -41.001 -188.001l81.5 -42c27 -13.333 52.833 -25 77.5 -35s47.667 -17.833 69 -23.5s40 -8.5 56 -8.5zM864.001 878.002
c64.667 0 121.832 -12.4971 171.499 -37.4971s91.334 -58.667 125.001 -101s59.167 -91.166 76.5 -146.499s26 -113.333 26 -174c0 -66.667 -5.83301 -123.834 -17.5 -171.501s-26.667 -87.834 -45 -120.501s-39.333 -58.834 -63 -78.501s-47.334 -34.667 -71.001 -45
s-46.667 -17 -69 -20s-41.5 -4.5 -57.5 -4.5c-37.333 0 -81.666 9.66699 -132.999 29s-106.333 43.166 -165 71.499l-181 92c-62 33 -122.333 63.5 -181 91.5l2 -923h-211l-1 1024l219 133l174 -86c7.33301 38.667 16 77.167 26 115.5s22.333 74.833 37 109.5s32 67 52 97
s43.5 56 70.5 78s58.5 39 94.5 51c33.333 10.667 71 16 113 16h8z" />
    <glyph glyph-name="uni0646" unicode="&#x646;" horiz-adv-x="1561" arabic-form="isolated" 
d="M692 -553c-52 0 -102.168 6.00195 -150.501 18.002s-93.666 29.5 -135.999 52.5s-81.5 51 -117.5 84s-67.333 70.5 -94 112.5c-31.333 51.333 -55.5 108 -72.5 170s-25.5 127 -25.5 195c0 43.333 3 86.333 9 129s15 86.5 27 131.5s27.5 91.5 46.5 139.5s41.5 99 67.5 153
l197 -94c-22.667 -46.667 -42.167 -90.167 -58.5 -130.5s-29.833 -79 -40.5 -116s-18.5 -72.833 -23.5 -107.5s-7.5 -69.334 -7.5 -104.001c0 -98.667 22 -182.334 66 -251.001c33.333 -52 76.833 -92.167 130.5 -120.5s114.5 -42.5 182.5 -42.5h203
c74 0 134.167 7.66699 180.5 23s82.333 37.166 108 65.499s43.167 62.333 52.5 102s14 83.834 14 132.501v690h219v-690c0 -180 -48.167 -315.333 -144.5 -406s-239.5 -136 -429.5 -136h-203zM683.999 755.002l166 168l170 -170l-168 -168z" />
    <glyph glyph-name="uni0647" unicode="&#x647;" horiz-adv-x="1007" arabic-form="isolated" 
d="M503 -15c-62 0 -118.828 9.5 -170.495 28.5s-96.334 45.333 -134.001 79s-66.834 73.5 -87.501 119.5s-31 96.333 -31 151c0 55.333 7.16699 106 21.5 152s33.833 89.333 58.5 130s53.167 79.667 85.5 117l101.5 112l-63 70l162 147l51.5 -56.5l52.5 -56.5l139 -150.5
c45.333 -49.667 85.666 -99.334 120.999 -149.001s63.666 -99.5 84.999 -149.5c20.667 -49.333 31 -98.333 31 -147v-5c-0.666992 -56.667 -11.834 -109.167 -33.501 -157.5s-53.5 -91.5 -95.5 -129.5c-38.667 -33.333 -82.667 -59.166 -132 -77.499
s-103.333 -27.5 -162 -27.5zM491.005 738l-76.001 -89.002c-23.333 -28.667 -43.666 -58 -60.999 -88s-30.833 -61.167 -40.5 -93.5s-14.5 -67.166 -14.5 -104.499c0 -27.333 5.66699 -51 17 -71s26.5 -36.5 45.5 -49.5s40.833 -22.667 65.5 -29s50 -9.5 76 -9.5
c64 0 114 15.833 150 47.5s54 73.5 54 125.5c0 31.333 -6 62.333 -18 93s-28 61 -48 91s-43 59.833 -69 89.5s-53 58.834 -81 87.501z" />
    <glyph glyph-name="uni0648" unicode="&#x648;" horiz-adv-x="1054" arabic-form="isolated" 
d="M206 -333c103.333 0 188 7.33594 254 22.0029s118 37.667 156 69c15.333 12.667 28.833 26.167 40.5 40.5s21.334 30.666 29.001 48.999s13.667 38.666 18 60.999s6.83301 47.833 7.5 76.5h-169c-48.667 0 -97.834 6.83301 -147.501 20.5s-94.667 36.5 -135 68.5
s-73.333 74.333 -99 127s-38.5 117.667 -38.5 195c0 45.333 3.83301 86 11.5 122s17.5 68.167 29.5 96.5s25.333 52.833 40 73.5s29 38.667 43 54c38 38 81.5 67.5 130.5 88.5s101.833 31.5 158.5 31.5c49.333 0 95.5 -7.66699 138.5 -23s81.5 -38.333 115.5 -69
c46 -43.333 80.833 -98 104.5 -164s35.5 -145 35.5 -237v-369c0 -48 -3.66699 -92.167 -11 -132.5s-18.166 -77.333 -32.499 -111s-32.5 -64.334 -54.5 -92.001s-48 -53.5 -78 -77.5c-30 -23.333 -63 -43.833 -99 -61.5s-76.333 -32.167 -121 -43.5
s-93.834 -19.833 -147.501 -25.5s-113.5 -8.5 -179.5 -8.5v219zM535 643.003c-61.333 0 -108.999 -21.1699 -142.999 -63.5029s-51 -103.5 -51 -183.5c0 -40 6 -72.333 18 -97s29.667 -44.667 53 -60c11.333 -7.33301 23.5 -13.166 36.5 -17.499s25.5 -7.83301 37.5 -10.5
s22.833 -4.5 32.5 -5.5s17.5 -1.5 23.5 -1.5h169v165c0 46.667 -3.33301 85.834 -10 117.501s-15.334 57.5 -26.001 77.5s-22.5 35.5 -35.5 46.5s-26 18.833 -39 23.5s-25.333 7.33398 -37 8.00098s-21.167 1 -28.5 1z" />
    <glyph glyph-name="uni0649" unicode="&#x649;" horiz-adv-x="1626" arabic-form="isolated" 
d="M901 -346c64 0 119.334 5.33203 166.001 15.999s85 27.667 115 51s52.167 53.666 66.5 90.999s21.5 82.666 21.5 135.999l-180 49l-79.5 21l-83 22.5l-81 21.5l-73.5 19c-26 64.667 -41 129 -45 193c-1.33301 15.333 -2 30.666 -2 45.999
c0 47.333 6.5 96.666 19.5 147.999s35.833 102 68.5 152s73.334 93.333 122.001 130s105 65.5 169 86.5s134.667 31.5 212 31.5c32 0 64 -2.33301 96 -7s66.333 -11.667 103 -21l-55 -211c-28 8 -53.833 13.833 -77.5 17.5s-47.5 5.5 -71.5 5.5
c-54.667 0 -105.5 -8.83301 -152.5 -26.5s-87.333 -43 -121 -76s-58.834 -72.833 -75.501 -119.5c-13.333 -36 -20 -75 -20 -117c0 -13.333 0.666992 -26.666 2 -39.999l81.5 -21.5l82 -21.5l90.5 -23l107 -26c60.667 -15.333 104.334 -40.666 131.001 -75.999
s40 -79.666 40 -132.999c0 -90 -10.333 -168.667 -31 -236s-54 -123.333 -100 -168s-105.5 -78.334 -178.5 -101.001s-161.833 -34 -266.5 -34h-211c-53.333 0 -104.5 6.16699 -153.5 18.5s-94.833 30 -137.5 53s-81.834 51 -117.501 84s-67.167 70.167 -94.5 111.5
c-64.667 104.667 -97 227 -97 367c0 86.667 13 177.334 39 272.001s65.667 197.334 119 308.001l194 -94c-44.667 -94.667 -78 -181.167 -100 -259.5s-33 -152.166 -33 -221.499c0 -99.333 22 -184 66 -254c32 -53.333 75.667 -94 131 -122s116.666 -42 183.999 -42h211z
" />
    <glyph glyph-name="uni064A" unicode="&#x64a;" horiz-adv-x="1626" arabic-form="isolated" 
d="M903 -346c64 0 119.334 5.33203 166.001 15.999s85 27.667 115 51s52.167 53.666 66.5 90.999s21.5 82.666 21.5 135.999l-180 49l-79.5 21l-83 22.5l-81 21.5l-73.5 19c-26 64.667 -41 129 -45 193c-1.33301 15.333 -2 30.666 -2 45.999
c0 47.333 6.5 96.666 19.5 147.999s35.833 102 68.5 152s73.334 93.333 122.001 130s105 65.5 169 86.5s134.667 31.5 212 31.5c32 0 64 -2.33301 96 -7s66.333 -11.667 103 -21l-55 -211c-28 8 -53.833 13.833 -77.5 17.5s-47.5 5.5 -71.5 5.5
c-54.667 0 -105.5 -8.83301 -152.5 -26.5s-87.333 -43 -121 -76s-58.834 -72.833 -75.501 -119.5c-13.333 -36 -20 -75 -20 -117c0 -13.333 0.666992 -26.666 2 -39.999l81.5 -21.5l82 -21.5l90.5 -23l107 -26c60.667 -15.333 104.334 -40.666 131.001 -75.999
s40 -79.666 40 -132.999c0 -90 -10.333 -168.667 -31 -236s-54 -123.333 -100 -168s-105.5 -78.334 -178.5 -101.001s-161.833 -34 -266.5 -34h-211c-53.333 0 -104.5 6.16699 -153.5 18.5s-94.833 30 -137.5 53s-81.834 51 -117.501 84s-67.167 70.167 -94.5 111.5
c-64.667 104.667 -97 227 -97 367c0 86.667 13 177.334 39 272.001s65.667 197.334 119 308.001l194 -94c-44.667 -94.667 -78 -181.167 -100 -259.5s-33 -152.166 -33 -221.499c0 -99.333 22 -184 66 -254c32 -53.333 75.667 -94 131 -122s116.666 -42 183.999 -42h211z
M1032 -973.001l-158 160l156 162l162 -162zM651.001 -971.001l-158 160l156 162l162 -162z" />
    <glyph glyph-name="uni066E.init" unicode="&#x66e;" horiz-adv-x="679" 
d="M546 818c1.33301 -4 3.99902 -14.833 7.99902 -32.5l14.5 -65.5c5.66699 -26 11.334 -54.667 17.001 -86s11 -62.833 16 -94.5s9.16699 -62.334 12.5 -92.001s5 -55.5 5 -77.5c0 -66 -11 -123.333 -33 -172s-50.5 -88.667 -85.5 -120s-74.5 -54.666 -118.5 -69.999
s-88 -23 -132 -23h-270v219h277c8.66699 0 21.5 1.33301 38.5 4s33.833 9.5 50.5 20.5s31.167 27.5 43.5 49.5s18.5 52.667 18.5 92c0 14.667 -1.33301 33 -4 55s-6 45.667 -10 71s-8.66699 51.333 -14 78l-15.5 75c-5 23.333 -9.83301 44.333 -14.5 63l-11 43z" />
    <glyph glyph-name="uni066E.medi" unicode="&#x66e;" horiz-adv-x="796" 
d="M816 204l0.000976562 -219h-73c-58.667 0 -111.334 8.16699 -158.001 24.5s-85 40.5 -115 72.5c-36 -31.333 -79.833 -55.333 -131.5 -72s-110.167 -25 -175.5 -25h-183v219h183c44 0 79.167 4.33301 105.5 13s46.166 19.5 59.499 32.5s22 27.333 26 43
s6 30.834 6 45.501v339h218v-332c0 -22.667 3.5 -41.834 10.5 -57.501s15.833 -28.667 26.5 -39s22.334 -18.5 35.001 -24.5s25.167 -10.5 37.5 -13.5s23.5 -4.83301 33.5 -5.5s17.333 -1 22 -1h73z" />
    <glyph glyph-name="uni066E.fina" unicode="&#x66e;" horiz-adv-x="2161" 
d="M2182 204l-0.00488281 -218.998h-74c-24 0 -48.667 2 -74 6s-50.166 10 -74.499 18s-47.5 18.167 -69.5 30.5s-42 27.5 -60 45.5c-72.667 -66 -175 -99.333 -307 -100h-1070c-48.667 0 -94.667 8.33301 -138 25s-82 40.667 -116 72c-13.333 12.667 -27.166 28 -41.499 46
s-27.166 39.167 -38.499 63.5s-20.666 52 -27.999 83s-11 65.833 -11 104.5c0 34 3.5 71.167 10.5 111.5s14.667 78.666 23 114.999s16.5 67.666 24.5 93.999s13 42.5 15 48.5l104 -33l105 -33c-4.66699 -14 -10.5 -33.5 -17.5 -58.5s-13.833 -52 -20.5 -81
s-12.5 -58.167 -17.5 -87.5s-7.5 -54.666 -7.5 -75.999c0 -40.667 6.5 -72.667 19.5 -96s28 -40.833 45 -52.5s34.167 -19 51.5 -22s30.666 -4.5 39.999 -4.5h1061c50.667 0 89.834 5.33301 117.501 16s47.834 23.5 60.501 38.5s20 30.5 22 46.5s3 29.333 3 40v332h219v-327
c0 -34 7 -60.667 21 -80s30.333 -33.833 49 -43.5s37.5 -15.834 56.5 -18.501s33.5 -4 43.5 -4h74z" />
    <glyph glyph-name="uni066F.init" unicode="&#x66f;" horiz-adv-x="998" 
d="M-22 -15l-0.000976562 218.999h399c66 0 119.667 4.16699 161 12.5s74 19 98 32s41 27.333 51 43s16.667 31.167 20 46.5h-127c-62.667 0 -121.167 5.83301 -175.5 17.5s-101.666 31.334 -141.999 59.001s-72 64.334 -95 110.001s-34.5 102.5 -34.5 170.5
c0 54 10 105.333 30 154s47.667 91.334 83 128.001s77.333 65.334 126 86.001c43.333 18 90 27 140 27h19c52 -2 97.833 -11.5 137.5 -28.5s74 -39.333 103 -67s53.333 -59.834 73 -96.501s35.5 -75.834 47.5 -117.501s20.667 -85.167 26 -130.5s8.33301 -90.333 9 -135
v-138c0 -50 -7.16699 -94.333 -21.5 -133s-34 -72.667 -59 -102s-54.833 -53.833 -89.5 -73.5s-72.5 -35.834 -113.5 -48.501s-84 -21.667 -129 -27s-90.833 -8 -137.5 -8h-399zM530.999 870.999c-8 0.666992 -16 1.00195 -24 1.00195c-18 0 -36.833 -2.5 -56.5 -7.5
s-38.334 -14.833 -56.001 -29.5s-31.667 -33.5 -42 -56.5s-15.5 -50.167 -15.5 -81.5c0 -32 7.5 -57.833 22.5 -77.5s34.167 -34.834 57.5 -45.501s49.5 -17.834 78.5 -21.501s57.167 -5.5 84.5 -5.5h131c-1.33301 30 -3.16602 62.833 -5.49902 98.5s-9 69.5 -20 101.5
s-28.5 59.667 -52.5 83s-58 37 -102 41z" />
    <glyph glyph-name="uni066F.medi" unicode="&#x66f;" horiz-adv-x="1102" 
d="M564 864c60 0 113.499 -10.8311 160.499 -32.498s86.833 -50.334 119.5 -86.001s57.667 -76.334 75 -122.001s26 -92.5 26 -140.5c0 -59.333 -8 -110.166 -24 -152.499s-39.667 -83.166 -71 -122.499c10.667 -0.666992 24.167 -1.33398 40.5 -2.00098
s33.5 -1.16699 51.5 -1.5s35.5 -0.5 52.5 -0.5h43.5h84v-219h-84c-42.667 0 -86.334 1.5 -131.001 4.5s-88.167 7 -130.5 12s-82.5 11 -120.5 18s-71.667 14.5 -101 22.5c-60 -16.667 -127.667 -30.334 -203 -41.001s-161.666 -16 -258.999 -16h-113v219h113h47.5
c13.667 0 26.834 0.166992 39.501 0.5l37.5 1c12.333 0.333008 25.5 1.16602 39.5 2.49902c-16.667 20 -31.334 40 -44.001 60s-23.167 41 -31.5 63s-14.666 45.5 -18.999 70.5s-6.5 52.167 -6.5 81.5c0 50.667 10.667 99.167 32 145.5s50.5 86.833 87.5 121.5
s80.167 62.334 129.5 83.001s102.333 31 159 31zM361.999 482.002l0.00292969 -11.9951c0 -26 4.33301 -50.167 13 -72.5s21.667 -42.833 39 -61.5s38.166 -34.834 62.499 -48.501s51.166 -25.834 80.499 -36.501c27.333 10.667 52.666 22.667 75.999 36
s43.5 29.166 60.5 47.499s30.333 39.666 40 63.999s14.5 52.5 14.5 84.5c0 18 -5.33301 36.5 -16 55.5s-24.667 36.5 -42 52.5s-37 29 -59 39s-44.333 15 -67 15c-26 0 -51.167 -4.5 -75.5 -13.5s-45.833 -21.167 -64.5 -36.5s-33.667 -32.833 -45 -52.5
s-17 -39.834 -17 -60.501z" />
    <glyph glyph-name="uni066F.fina" unicode="&#x66f;" horiz-adv-x="1645" 
d="M687 -552c-52 0 -102.333 5.99902 -151 17.999s-94.334 29.5 -137.001 52.5s-81.834 51 -117.501 84s-66.5 70.5 -92.5 112.5c-32 51.333 -56.5 105.333 -73.5 162s-25.5 119.334 -25.5 188.001c0 85.333 12 174 36 266s62.667 192 116 300l196 -93
c-45.333 -93.333 -78.333 -178.166 -99 -254.499s-31 -149.5 -31 -219.5c0 -48.667 5.5 -91.167 16.5 -127.5s27.5 -71.833 49.5 -106.5c32 -52 75.333 -92.167 130 -120.5s115.667 -42.5 183 -42.5h75c98.667 0 180 7.66699 244 23s115 38.666 153 69.999
c15.333 12.667 28.833 26.167 40.5 40.5s21.334 30.333 29.001 48s13.667 37.667 18 60s6.83301 47.833 7.5 76.5h-158c-48.667 0 -97.834 6.66699 -147.501 20s-94.667 35.833 -135 67.5s-73.333 73.667 -99 126s-38.5 117.166 -38.5 194.499c0 60 8.83301 118 26.5 174
s43.834 105.833 78.501 149.5s77.834 78.667 129.501 105s111.167 39.5 178.5 39.5c68 0 126.167 -13.833 174.5 -41.5s88 -64.5 119 -110.5s53.667 -98.667 68 -158s21.5 -121 21.5 -185v-162h198v-219h-198c-0.666992 -46 -4.83398 -88.167 -12.501 -126.5
s-18.667 -73.5 -33 -105.5s-32.5 -61.5 -54.5 -88.5s-47.333 -52.167 -76 -75.5c-29.333 -23.333 -61.666 -43.666 -96.999 -60.999s-74.333 -31.833 -117 -43.5s-89.5 -20.5 -140.5 -26.5s-107.5 -9.33301 -169.5 -10h-85zM1089 653.999
c-30.667 0 -58.1689 -6.16699 -82.502 -18.5s-45 -29.833 -62 -52.5s-30 -50 -39 -82s-13.5 -68 -13.5 -108s6.5 -71.833 19.5 -95.5s31.167 -43.167 54.5 -58.5c11.333 -7.33301 23.5 -13.166 36.5 -17.499s25.5 -7.83301 37.5 -10.5s22.833 -4.5 32.5 -5.5
s17.5 -1.5 23.5 -1.5h158v162c0 46.667 -3 86.167 -9 118.5s-13.833 59.166 -23.5 80.499s-20.5 38 -32.5 50s-24.167 20.833 -36.5 26.5s-24.166 9.16699 -35.499 10.5s-20.666 2 -27.999 2z" />
    <glyph glyph-name="uni0671" unicode="&#x671;" horiz-adv-x="599" arabic-form="isolated" 
d="M394 -15h-219v1292h219v-1292zM-20 1428l20.999 94.999h130l46 71l83 122c23.333 34 51.333 60.833 84 80.5s68.334 29.5 107.001 29.5c22 0 44 -4.16699 66 -12.5s41.5 -21.166 58.5 -38.499s30.833 -39.333 41.5 -66s16 -58 16 -94c0 -34.667 -5.83301 -64 -17.5 -88
s-26.5 -43.333 -44.5 -58s-38 -25.167 -60 -31.5s-43.667 -9.5 -65 -9.5h-466zM450.999 1731c-20 0 -39.333 -6.5 -58 -19.5s-36.667 -29.5 -54 -49.5s-34 -42.333 -50 -67l-45 -72h202c26 0 47.667 7.33301 65 22s26 38 26 70c0 37.333 -7.33301 66 -22 86s-36 30 -64 30z
" />
    <glyph glyph-name="uni0679" unicode="&#x679;" horiz-adv-x="1993" arabic-form="isolated" 
d="M1847 750l17.9951 -88.002c6.66699 -33.333 12.834 -67.666 18.501 -102.999s10.5 -69.666 14.5 -102.999s6 -62 6 -86c0 -66 -11 -123.333 -33 -172s-50.5 -88.667 -85.5 -120s-74.5 -54.666 -118.5 -69.999s-88 -23 -132 -23h-1109c-48.667 0 -94.667 8.33301 -138 25
s-82 40.667 -116 72c-13.333 12.667 -27.166 28 -41.499 46s-27.166 39.167 -38.499 63.5s-20.666 52 -27.999 83s-11 65.833 -11 104.5c0 34 3.5 71.167 10.5 111.5s14.667 78.666 23 114.999s16.5 67.666 24.5 93.999s13 42.5 15 48.5l209 -66
c-4.66699 -14 -10.5 -33.5 -17.5 -58.5s-13.833 -52 -20.5 -81s-12.5 -58.167 -17.5 -87.5s-7.5 -54.666 -7.5 -75.999c0 -40.667 6.5 -72.667 19.5 -96s28 -40.833 45 -52.5s34.167 -19 51.5 -22s30.666 -4.5 39.999 -4.5h1114c8.66699 0 21.5 1.33301 38.5 4
s33.833 9.5 50.5 20.5s31.167 27.5 43.5 49.5s18.5 52.667 18.5 92c0 16.667 -1.66699 38.5 -5 65.5s-7.66602 55.5 -12.999 85.5s-11.166 60 -17.499 90l-17.5 81zM702.995 664.998l-0.000976562 94.998h102c7.33301 12 14.833 23.5 22.5 34.5s15.167 22.5 22.5 34.5v489
h93v-354c25.333 28.667 52.833 52.334 82.5 71.001s62.834 28 99.501 28c22 0 44 -4.16699 66 -12.5s41.5 -21.166 58.5 -38.499s30.833 -39.333 41.5 -66s16 -58 16 -94c0 -34.667 -5.83301 -64 -17.5 -88s-26.5 -43.333 -44.5 -58s-38 -25.167 -60 -31.5
s-43.667 -9.5 -65 -9.5h-417zM1124.99 967.996c-19.333 0 -38.332 -6.5 -56.999 -19.5s-36.834 -29.5 -54.501 -49.5s-34.5 -42.333 -50.5 -67l-45 -72h202c26 0 47.667 7.33301 65 22s26 38 26 70c0 37.333 -7.33301 66 -22 86s-36 30 -64 30z" />
    <glyph glyph-name="uni067E" unicode="&#x67e;" horiz-adv-x="1993" arabic-form="isolated" 
d="M1847 750l17.9951 -88.002c6.66699 -33.333 12.834 -67.666 18.501 -102.999s10.5 -69.666 14.5 -102.999s6 -62 6 -86c0 -66 -11 -123.333 -33 -172s-50.5 -88.667 -85.5 -120s-74.5 -54.666 -118.5 -69.999s-88 -23 -132 -23h-1109c-48.667 0 -94.667 8.33301 -138 25
s-82 40.667 -116 72c-13.333 12.667 -27.166 28 -41.499 46s-27.166 39.167 -38.499 63.5s-20.666 52 -27.999 83s-11 65.833 -11 104.5c0 34 3.5 71.167 10.5 111.5s14.667 78.666 23 114.999s16.5 67.666 24.5 93.999s13 42.5 15 48.5l209 -66
c-4.66699 -14 -10.5 -33.5 -17.5 -58.5s-13.833 -52 -20.5 -81s-12.5 -58.167 -17.5 -87.5s-7.5 -54.666 -7.5 -75.999c0 -40.667 6.5 -72.667 19.5 -96s28 -40.833 45 -52.5s34.167 -19 51.5 -22s30.666 -4.5 39.999 -4.5h1114c8.66699 0 21.5 1.33301 38.5 4
s33.833 9.5 50.5 20.5s31.167 27.5 43.5 49.5s18.5 52.667 18.5 92c0 16.667 -1.66699 38.5 -5 65.5s-7.66602 55.5 -12.999 85.5s-11.166 60 -17.499 90l-17.5 81zM621.995 -315.002l160 160l160 -162l-160 -160zM1039 -317.002l162 160l160 -162l-160 -160z
M839.995 -597.002l148 148l150 -150l-148 -148z" />
    <glyph glyph-name="uni0686" unicode="&#x686;" horiz-adv-x="1475" arabic-form="isolated" 
d="M1367 583l-644 -236.001c-88 -32.667 -159.667 -63 -215 -91s-98.5 -55.833 -129.5 -83.5s-52 -56.167 -63 -85.5s-16.5 -61.666 -16.5 -96.999c0 -17.333 0.833008 -35.666 2.5 -54.999s4.16699 -40 7.5 -62c10 -76 27.167 -140.167 51.5 -192.5
s55.833 -94.666 94.5 -126.999s84.167 -55.833 136.5 -70.5s111.166 -22 176.499 -22h500v-219h-500c-98 0 -185.667 11.167 -263 33.5s-144.166 57.666 -200.499 105.999s-102.333 110.666 -138 186.999s-60.5 168.166 -74.5 275.499c-6 46.667 -9 91 -9 133
c0 79.333 13.833 148.5 41.5 207.5s66.5 111 116.5 156s109.667 84.333 179 118s145.333 64.5 228 92.5l449 136c-58 22.667 -117.5 44.334 -178.5 65.001s-118 39.167 -171 55.5s-99.5 30 -139.5 41s-68 18.167 -84 21.5c-10 0 -20 -0.333008 -30 -1
s-20.167 -5.33398 -30.5 -14.001s-20.5 -23.167 -30.5 -43.5s-20 -49.833 -30 -88.5l-213 56c28 108.667 69.5 187.334 124.5 236.001s126.167 73 213.5 73c4.66699 0 10.334 -0.166992 17.001 -0.5s16.5 -2 29.5 -5s30.167 -7.66699 51.5 -14s48.666 -15.333 81.999 -27
l122 -44l171 -65.5l365 -154zM585.602 22.7246l151.846 152.012l151.846 -153.912l-151.846 -152.012zM981.35 20.8242l153.744 152.012l151.846 -153.912l-151.846 -152.012zM792.492 -245.196l140.457 140.611l142.355 -142.512l-140.458 -140.61z" />
    <glyph glyph-name="uni0688" unicode="&#x688;" horiz-adv-x="1112" arabic-form="isolated" 
d="M556 -24c-40.667 0 -80.3311 2 -118.998 6c-19.333 2 -40.333 4.66699 -63 8s-45.834 8 -69.501 14s-47.334 13.5 -71.001 22.5s-46.167 19.5 -67.5 31.5l-95 54l109 190l95 -54c22.667 -13.333 50.5 -24 83.5 -32s68.167 -13.667 105.5 -17
c30.667 -2.66699 61.667 -4 93 -4c6.66699 0 21 0.166992 43 0.5s49 2.83301 81 7.5c42.667 6.66699 74.5 15.167 95.5 25.5s33.167 20.166 36.5 29.499c2 4 3 9 3 15c0 8.66699 -2.33301 21.667 -7 39s-19 44 -43 80l-156 235.5l-94 141.5l-46 70
c-8 12.667 -12.333 19.334 -13 20.001l-60 92l183 120l60 -92l13 -19l46 -70l94 -142l156 -235c38 -57.333 63.667 -112.666 77 -165.999c6 -25.333 9 -50 9 -74c0 -36.667 -7.33301 -71.334 -22 -104.001c-23.333 -53.333 -63 -95.333 -119 -126
c-48.667 -27.333 -109 -46 -181 -56c-25.333 -4 -51 -6.83301 -77 -8.5s-52.667 -2.5 -80 -2.5zM257.003 1215l-0.000976562 94.998h102c7.33301 12 14.833 23.5 22.5 34.5s15.167 22.5 22.5 34.5v489h93v-354c25.333 28.667 52.833 52.334 82.5 71.001s62.834 28 99.501 28
c22 0 44 -4.16699 66 -12.5s41.5 -21.166 58.5 -38.499s30.833 -39.333 41.5 -66s16 -58 16 -94c0 -34.667 -5.83301 -64 -17.5 -88s-26.5 -43.333 -44.5 -58s-38 -25.167 -60 -31.5s-43.667 -9.5 -65 -9.5h-417zM679.002 1518c-19.333 0 -38.332 -6.5 -56.999 -19.5
s-36.834 -29.5 -54.501 -49.5s-34.5 -42.333 -50.5 -67l-45 -72h202c26 0 47.667 7.33301 65 22s26 38 26 70c0 37.333 -7.33301 66 -22 86s-36 30 -64 30z" />
    <glyph glyph-name="uni0691" unicode="&#x691;" horiz-adv-x="802" arabic-form="isolated" 
d="M742 32c-4 -89.333 -20.4971 -170 -49.4971 -242s-69.333 -133.333 -121 -184s-113.834 -89.667 -186.501 -117s-155 -41 -247 -41h-138v219h138c66.667 0 124.167 7 172.5 21s88.166 36.167 119.499 66.5s54.666 70 69.999 119s23 108.5 23 178.5v624h219v-644z
M190.003 888l-0.000976562 94.998h102c7.33301 12 14.833 23.5 22.5 34.5s15.167 22.5 22.5 34.5v489h93v-354c25.333 28.667 52.833 52.334 82.5 71.001s62.834 28 99.501 28c22 0 44 -4.16699 66 -12.5s41.5 -21.166 58.5 -38.499s30.833 -39.333 41.5 -66s16 -58 16 -94
c0 -34.667 -5.83301 -64 -17.5 -88s-26.5 -43.333 -44.5 -58s-38 -25.167 -60 -31.5s-43.667 -9.5 -65 -9.5h-417zM612.002 1191c-19.333 0 -38.332 -6.5 -56.999 -19.5s-36.834 -29.5 -54.501 -49.5s-34.5 -42.333 -50.5 -67l-45 -72h202c26 0 47.667 7.33301 65 22
s26 38 26 70c0 37.333 -7.33301 66 -22 86s-36 30 -64 30z" />
    <glyph glyph-name="uni0692.fina" unicode="&#x692;" horiz-adv-x="910" 
d="M925 -15h-20.999c-29.333 0 -57 2.33301 -83 7s-52.333 18 -79 40c-4 -89.333 -20.5 -170 -49.5 -242s-69.333 -133.333 -121 -184s-113.834 -89.667 -186.501 -117s-155 -41 -247 -41h-138v219h138c66.667 0 124.167 7 172.5 21s88.166 36.167 119.499 66.5
s54.666 70 69.999 119s23 108.5 23 178.5v624h219v-314c0 -34 7.16699 -61.333 21.5 -82s30.833 -36.667 49.5 -48s36.834 -18.833 54.501 -22.5s29.834 -5.5 36.501 -5.5h21v-219zM905.001 1281l-225 -408h-127l-228 408h160l129 -264l133 264h158z" />
    <glyph glyph-name="uni0695.fina" unicode="&#x695;" horiz-adv-x="910" 
d="M925 -15h-20.999c-29.333 0 -57 2.33301 -83 7s-52.333 18 -79 40c-4 -89.333 -20.5 -170 -49.5 -242s-69.333 -133.333 -121 -184s-113.834 -89.667 -186.501 -117s-155 -41 -247 -41h-138v219h138c66.667 0 124.167 7 172.5 21s88.166 36.167 119.499 66.5
s54.666 70 69.999 119s23 108.5 23 178.5v624h219v-314c0 -34 7.16699 -61.333 21.5 -82s30.833 -36.667 49.5 -48s36.834 -18.833 54.501 -22.5s29.834 -5.5 36.501 -5.5h21v-219zM653.001 -679l-225 -408h-127l-228 408h160l129 -264l133 264h158z" />
    <glyph glyph-name="uni0698" unicode="&#x698;" horiz-adv-x="1013" arabic-form="isolated" 
d="M742 32c-4 -89.333 -20.4971 -170 -49.4971 -242s-69.333 -133.333 -121 -184s-113.834 -89.667 -186.501 -117s-155 -41 -247 -41h-138v219h138c66.667 0 124.167 7 172.5 21s88.166 36.167 119.499 66.5s54.666 70 69.999 119s23 108.5 23 178.5v624h219v-644z
M555.003 1078l-160 -162l-160 160l160 162zM984.003 1082l-158 -160l-165 158l162 162zM763.003 1364l-150 -150l-148 148l150 150z" />
    <glyph glyph-name="uni06A4.init" unicode="&#x6a4;" horiz-adv-x="998" arabic-form="initial" 
d="M-22 -15l-0.000976562 218.999h399c66 0 119.667 4.16699 161 12.5s74 19 98 32s41 27.333 51 43s16.667 31.167 20 46.5h-127c-62.667 0 -121.167 5.83301 -175.5 17.5s-101.666 31.334 -141.999 59.001s-72 64.334 -95 110.001s-34.5 102.5 -34.5 170.5
c0 54 10 105.333 30 154s47.667 91.334 83 128.001s77.333 65.334 126 86.001c43.333 18 90 27 140 27h19c52 -2 97.833 -11.5 137.5 -28.5s74 -39.333 103 -67s53.333 -59.834 73 -96.501s35.5 -75.834 47.5 -117.501s20.667 -85.167 26 -130.5s8.33301 -90.333 9 -135
v-138c0 -50 -7.16699 -94.333 -21.5 -133s-34 -72.667 -59 -102s-54.833 -53.833 -89.5 -73.5s-72.5 -35.834 -113.5 -48.501s-84 -21.667 -129 -27s-90.833 -8 -137.5 -8h-399zM530.999 870.999c-8 0.666992 -16 1.00195 -24 1.00195c-18 0 -36.833 -2.5 -56.5 -7.5
s-38.334 -14.833 -56.001 -29.5s-31.667 -33.5 -42 -56.5s-15.5 -50.167 -15.5 -81.5c0 -32 7.5 -57.833 22.5 -77.5s34.167 -34.834 57.5 -45.501s49.5 -17.834 78.5 -21.501s57.167 -5.5 84.5 -5.5h131c-1.33301 30 -3.16602 62.833 -5.49902 98.5s-9 69.5 -20 101.5
s-28.5 59.667 -52.5 83s-58 37 -102 41zM438.999 1373l-160 -162l-160 160l160 162zM867.999 1377l-158 -160l-165 158l162 162zM646.999 1659l-150 -150l-148 148l150 150z" />
    <glyph glyph-name="uni06A4.medi" unicode="&#x6a4;" horiz-adv-x="1102" arabic-form="medial" 
d="M564 864c60 0 113.499 -10.8311 160.499 -32.498s86.833 -50.334 119.5 -86.001s57.667 -76.334 75 -122.001s26 -92.5 26 -140.5c0 -59.333 -8 -110.166 -24 -152.499s-39.667 -83.166 -71 -122.499c10.667 -0.666992 24.167 -1.33398 40.5 -2.00098
s33.5 -1.16699 51.5 -1.5s35.5 -0.5 52.5 -0.5h43.5h84v-219h-84c-42.667 0 -86.334 1.5 -131.001 4.5s-88.167 7 -130.5 12s-82.5 11 -120.5 18s-71.667 14.5 -101 22.5c-60 -16.667 -127.667 -30.334 -203 -41.001s-161.666 -16 -258.999 -16h-113v219h113h47.5
c13.667 0 26.834 0.166992 39.501 0.5l37.5 1c12.333 0.333008 25.5 1.16602 39.5 2.49902c-16.667 20 -31.334 40 -44.001 60s-23.167 41 -31.5 63s-14.666 45.5 -18.999 70.5s-6.5 52.167 -6.5 81.5c0 50.667 10.667 99.167 32 145.5s50.5 86.833 87.5 121.5
s80.167 62.334 129.5 83.001s102.333 31 159 31zM361.999 482.002l0.00292969 -11.9951c0 -26 4.33301 -50.167 13 -72.5s21.667 -42.833 39 -61.5s38.166 -34.834 62.499 -48.501s51.166 -25.834 80.499 -36.501c27.333 10.667 52.666 22.667 75.999 36
s43.5 29.166 60.5 47.499s30.333 39.666 40 63.999s14.5 52.5 14.5 84.5c0 18 -5.33301 36.5 -16 55.5s-24.667 36.5 -42 52.5s-37 29 -59 39s-44.333 15 -67 15c-26 0 -51.167 -4.5 -75.5 -13.5s-45.833 -21.167 -64.5 -36.5s-33.667 -32.833 -45 -52.5
s-17 -39.834 -17 -60.501zM487.002 1158.01l-160 -162l-160 160l160 162zM916.002 1162.01l-158 -160l-165 158l162 162zM695.002 1444.01l-150 -150l-148 148l150 150z" />
    <glyph glyph-name="uni06A4.fina" unicode="&#x6a4;" horiz-adv-x="2114" arabic-form="final" 
d="M426 -15c-48.667 0 -94.6709 8.33398 -138.004 25.001s-82 40.667 -116 72c-13.333 12.667 -27.166 28 -41.499 46s-27.166 39.167 -38.499 63.5s-20.666 52 -27.999 83s-11 65.833 -11 104.5c0 34 3.5 71.167 10.5 111.5s14.667 78.666 23 114.999
s16.5 67.666 24.5 93.999s13 42.5 15 48.5l104 -33l105 -33c-4.66699 -14 -10.5 -33.5 -17.5 -58.5s-13.833 -52 -20.5 -81s-12.5 -58.167 -17.5 -87.5s-7.5 -54.666 -7.5 -75.999c0 -40.667 6.5 -72.667 19.5 -96s28 -40.833 45 -52.5s34.167 -19 51.5 -22
s30.666 -4.5 39.999 -4.5h702h47.5c13.667 0 26.834 0.166992 39.501 0.5l37.5 1c12.333 0.333008 25.5 1.16602 39.5 2.49902c-16.667 20 -31.334 40.333 -44.001 61s-23.167 42.334 -31.5 65.001s-14.666 46.667 -18.999 72s-6.5 52.666 -6.5 81.999
c0 50.667 10.667 99 32 145s50.5 86.167 87.5 120.5s80.167 61.666 129.5 81.999s102.333 30.5 159 30.5c60 0 113.5 -10.667 160.5 -32s86.833 -49.666 119.5 -84.999s57.667 -75.666 75 -120.999s26 -92 26 -140c0 -59.333 -8 -111 -24 -155s-39.667 -85.667 -71 -125
c21.333 -1.33301 43.833 -2.33301 67.5 -3s47.5 -1 71.5 -1h82v-219h-82c-86 0 -165.167 3.83301 -237.5 11.5s-137.833 19.834 -196.5 36.501c-60 -16.667 -127.667 -28.834 -203 -36.501s-161.666 -11.5 -258.999 -11.5h-704zM1404 487.001v-12.0039
c0 -26 4 -49.833 12 -71.5s20.5 -41.334 37.5 -59.001s37.333 -33.167 61 -46.5s50.167 -25.333 79.5 -36c27.333 10.667 52.166 22.334 74.499 35.001s41.333 27.834 57 45.501s27.834 38.334 36.501 62.001s13 51.5 13 83.5c0 18 -4.83301 36.333 -14.5 55
s-22.5 35.834 -38.5 51.501s-34.5 28.334 -55.5 38.001s-42.833 14.5 -65.5 14.5c-26 0 -51 -4.33301 -75 -13s-45 -20.5 -63 -35.5s-32.333 -32.167 -43 -51.5s-16 -39.333 -16 -60zM1515 1168l-160 -162l-160 160l160 162zM1944 1172l-158 -160l-165 158l162 162z
M1723 1454l-150 -150l-148 148l150 150z" />
    <glyph glyph-name="uni06A8.fina" unicode="&#x6a8;" horiz-adv-x="1645" 
d="M692 -552c-52 0 -102.333 5.99902 -151 17.999s-94.334 29.5 -137.001 52.5s-81.834 51 -117.501 84s-66.5 70.5 -92.5 112.5c-32 51.333 -56.5 105.333 -73.5 162s-25.5 119.334 -25.5 188.001c0 85.333 12 174 36 266s62.667 192 116 300l196 -93
c-45.333 -93.333 -78.333 -178.166 -99 -254.499s-31 -149.5 -31 -219.5c0 -48.667 5.5 -91.167 16.5 -127.5s27.5 -71.833 49.5 -106.5c32 -52 75.333 -92.167 130 -120.5s115.667 -42.5 183 -42.5h75c98.667 0 180 7.66699 244 23s115 38.666 153 69.999
c15.333 12.667 28.833 26.167 40.5 40.5s21.334 30.333 29.001 48s13.667 37.667 18 60s6.83301 47.833 7.5 76.5h-158c-48.667 0 -97.834 6.66699 -147.501 20s-94.667 35.833 -135 67.5s-73.333 73.667 -99 126s-38.5 117.166 -38.5 194.499c0 60 8.83301 118 26.5 174
s43.834 105.833 78.501 149.5s77.834 78.667 129.501 105s111.167 39.5 178.5 39.5c68 0 126.167 -13.833 174.5 -41.5s88 -64.5 119 -110.5s53.667 -98.667 68 -158s21.5 -121 21.5 -185v-162h198v-219h-198c-0.666992 -46 -4.83398 -88.167 -12.501 -126.5
s-18.667 -73.5 -33 -105.5s-32.5 -61.5 -54.5 -88.5s-47.333 -52.167 -76 -75.5c-29.333 -23.333 -61.666 -43.666 -96.999 -60.999s-74.333 -31.833 -117 -43.5s-89.5 -20.5 -140.5 -26.5s-107.5 -9.33301 -169.5 -10h-85zM1094 653.999
c-30.667 0 -58.1689 -6.16699 -82.502 -18.5s-45 -29.833 -62 -52.5s-30 -50 -39 -82s-13.5 -68 -13.5 -108s6.5 -71.833 19.5 -95.5s31.167 -43.167 54.5 -58.5c11.333 -7.33301 23.5 -13.166 36.5 -17.499s25.5 -7.83301 37.5 -10.5s22.833 -4.5 32.5 -5.5
s17.5 -1.5 23.5 -1.5h158v162c0 46.667 -3 86.167 -9 118.5s-13.833 59.166 -23.5 80.499s-20.5 38 -32.5 50s-24.167 20.833 -36.5 26.5s-24.166 9.16699 -35.499 10.5s-20.666 2 -27.999 2zM1035 1177l-160 -162l-160 160l160 162zM1464 1181l-158 -160l-165 158l162 162z
M1243 1463l-150 -150l-148 148l150 150z" />
    <glyph glyph-name="uni06A9" unicode="&#x6a9;" horiz-adv-x="2012" arabic-form="isolated" 
d="M1400 204c22.667 0 44.1641 1.16602 64.4971 3.49902s38.666 5.5 54.999 9.5s29.833 9.16699 40.5 15.5s17.667 13.5 21 21.5c4.66699 8.66699 7 21 7 37c0 34 -13.333 76.5 -40 127.5s-68 107.5 -124 169.5c-62.667 70 -122.667 129.833 -180 179.5
s-108 90.5 -152 122.5s-79.167 55.5 -105.5 70.5s-39.833 22.5 -40.5 22.5l5 196l973 423l88 -200l-781 -338c48 -35.333 102.333 -80.666 163 -135.999s124.667 -120.666 192 -195.999c20.667 -24 40.167 -49.333 58.5 -76s35 -53.334 50 -80.001s28.333 -52.5 40 -77.5
s21.5 -47.5 29.5 -67.5c10.667 -28 18.167 -54.167 22.5 -78.5s6.5 -47.166 6.5 -68.499c0 -24 -2.66699 -45.833 -8 -65.5s-10.666 -36.167 -15.999 -49.5c-7.33301 -17.333 -19.166 -36.666 -35.499 -57.999s-38.833 -41.333 -67.5 -60s-64.667 -34.334 -108 -47.001
s-96 -19 -158 -19h-954c-48.667 0 -94.667 8.33301 -138 25s-82 40.667 -116 72c-13.333 12.667 -27.166 28 -41.499 46s-27.166 39.167 -38.499 63.5s-20.666 52 -27.999 83s-11 65.833 -11 104.5c0 34 3.5 71.167 10.5 111.5s14.667 78.666 23 114.999
s16.5 67.666 24.5 93.999s13 42.5 15 48.5l104 -33l105 -33c-4.66699 -14 -10.5 -33.5 -17.5 -58.5s-13.833 -52 -20.5 -81s-12.5 -58.167 -17.5 -87.5s-7.5 -54.666 -7.5 -75.999c0 -40.667 6.5 -72.667 19.5 -96s28 -40.833 45 -52.5s34.167 -19 51.5 -22
s30.666 -4.5 39.999 -4.5h952z" />
    <glyph glyph-name="uni06AA.init" unicode="&#x6aa;" horiz-adv-x="1702" 
d="M1522 -15l-1545 -0.00488281v219h1425c-4.66699 41.333 -13.334 78.333 -26.001 111s-31.5 60.334 -56.5 83.001s-57.167 40 -96.5 52s-87.666 18 -144.999 18c-112 0 -210.667 0.333008 -296 1s-160 2.16699 -224 4.5s-118.5 5.66602 -163.5 9.99902s-83 10.5 -114 18.5
s-56.333 18 -76 30s-36.167 26.333 -49.5 43c-12.667 16 -21.5 32.833 -26.5 50.5s-7.5 34.834 -7.5 51.501s1.66699 31.834 5 45.501s6.33301 24.5 9 32.5v-1c40 146.667 184.667 285.334 434 416.001c40 20 78 38 114 54s71.5 30.667 106.5 44l104 38
c34.333 12 69.833 23.667 106.5 35l67 -207l-36.5 -13l-59.5 -21.5l-74 -27.5l-80.5 -31.5l-79 -33.5c-25.667 -11.333 -48.834 -22.333 -69.501 -33c-88 -46 -159.5 -91.667 -214.5 -137s-90.833 -88.666 -107.5 -129.999c13.333 -2.66699 32.166 -5.16699 56.499 -7.5
s56.5 -4.16602 96.5 -5.49902c30.667 -2 65 -3.33301 103 -4s80.5 -1.33398 127.5 -2.00098s99.333 -1 157 -1h191.5c226.667 0 384.334 -78 473.001 -234c18 -33.333 32 -67.666 42 -102.999s17.333 -69.333 22 -102s7.33398 -63 8.00098 -91s1 -51.333 1 -70z" />
    <glyph glyph-name="uni06AA.medi" unicode="&#x6aa;" horiz-adv-x="1953" 
d="M-24 -15l-0.00390625 219h1409c21.333 0 36.166 2.5 44.499 7.5s12.5 12.167 12.5 21.5s-2 19.5 -6 30.5s-9.33301 23.167 -16 36.5v-1c-13.333 21.333 -31.166 42.166 -53.499 62.499s-48.166 38.333 -77.499 54s-61.833 28.334 -97.5 38.001s-73.5 14.5 -113.5 14.5
c-113.333 0 -213.166 0.333008 -299.499 1s-161.5 2 -225.5 4s-118.333 5.33301 -163 10s-82.334 11 -113.001 19s-55.667 17.833 -75 29.5s-35.666 26.167 -48.999 43.5c-13.333 18 -22 35.833 -26 53.5s-6 34.167 -6 49.5s0.833008 28.5 2.5 39.5s3.5 20.167 5.5 27.5
c0.666992 2 1.33398 4.33301 2.00098 7l1 2v-2c10 36.667 27.333 73.167 52 109.5s55.667 72 93 107s80.666 69.5 129.999 103.5s103.666 66.667 162.999 98c70 35.333 139.5 66.5 208.5 93.5s141.833 53.5 218.5 79.5l69 -206c-0.666992 0 -7.5 -2.33301 -20.5 -7
l-51.5 -18.5l-73.5 -27l-86 -33.5c-29.667 -12 -59 -24.5 -88 -37.5l-80.5 -37.5c-85.333 -45.333 -155.666 -91 -210.999 -137s-91.666 -89.333 -108.999 -130c13.333 -2.66699 32.333 -5.16699 57 -7.5s56.667 -4.16602 96 -5.49902c30.667 -2 64.834 -3.5 102.501 -4.5
s80.167 -1.83301 127.5 -2.5s99.833 -1.16699 157.5 -1.5s121.5 -0.5 191.5 -0.5c75.333 0 147.833 -12.5 217.5 -37.5s131.5 -61.5 185.5 -109.5c30 -28 56.667 -55.667 80 -83s44.333 -53.333 63 -78c18.667 -24 37.167 -46.5 55.5 -67.5s38.333 -39.5 60 -55.5
s45.834 -28.667 72.501 -38s58 -14 94 -14h68v-219h-68c-66.667 0 -125.167 9.16699 -175.5 27.5s-94.833 42.5 -133.5 72.5c-8.66699 -10.667 -19 -21.334 -31 -32.001c-25.333 -22 -54.833 -38.833 -88.5 -50.5s-70.834 -17.5 -111.501 -17.5h-1390z" />
    <glyph glyph-name="uni06AA.fina" unicode="&#x6aa;" horiz-adv-x="2511" 
d="M447 -15c-44.667 0 -89.002 7.66699 -133.002 23s-83.333 38.666 -118 69.999s-62.834 71.333 -84.501 120s-32.5 106 -32.5 172c0 22 1.5 45.833 4.5 71.5s6.83301 51.334 11.5 77.001s9.83398 50.5 15.501 74.5s11.167 45.833 16.5 65.5l13.5 49.5
c3.66699 13.333 6.16699 22 7.5 26l207 -66l-16 -58c-6.66699 -24.667 -13 -51 -19 -79s-11.167 -56.333 -15.5 -85s-6.5 -54 -6.5 -76c0 -38.667 6 -69.167 18 -91.5s26.333 -39 43 -50s33.167 -17.833 49.5 -20.5s29.166 -4 38.499 -4h1498
c21.333 0 36.166 2.5 44.499 7.5s12.5 12.167 12.5 21.5s-2 19.5 -6 30.5s-9.33301 23.167 -16 36.5c-13.333 21.333 -31.166 42 -53.499 62s-48.166 37.833 -77.499 53.5s-61.833 28.334 -97.5 38.001s-73.5 14.5 -113.5 14.5c-113.333 0 -213.166 0.333008 -299.499 1
s-161.5 2 -225.5 4s-118.333 5.33301 -163 10s-82.334 11 -113.001 19s-55.667 17.833 -75 29.5s-35.666 26.167 -48.999 43.5c-13.333 18 -22 35.833 -26 53.5s-6 34.167 -6 49.5s0.833008 28.5 2.5 39.5s3.5 20.167 5.5 27.5c9.33301 37.333 26.166 74.5 50.499 111.5
s55.5 73.333 93.5 109s82 70.667 132 105s105 67.5 165 99.5c34.667 18 69.334 34.667 104.001 50s69.5 30 104.5 44s70.667 27.333 107 40l112.5 39l69 -206l-83.5 -28.5l-99 -36.5c-35 -13.333 -71 -28 -108 -44s-73.833 -33.333 -110.5 -52
c-85.333 -45.333 -155.666 -91 -210.999 -137s-91.666 -89.333 -108.999 -130c40 -4 77.167 -7.16699 111.5 -9.5s68.166 -4.33301 101.499 -6s67.333 -3 102 -4s72.5 -1.66699 113.5 -2s86.167 -0.5 135.5 -0.5h168c75.333 0 147.833 -12.5 217.5 -37.5
s131.5 -61.5 185.5 -109.5c30 -28 56.667 -55.667 80 -83s44.333 -53.333 63 -78c18.667 -24 37.167 -46.5 55.5 -67.5s38.333 -39.5 60 -55.5s45.834 -28.667 72.501 -38s58 -14 94 -14h69v-219h-69c-66.667 0 -125.167 9.16699 -175.5 27.5s-94.833 42.5 -133.5 72.5
c-8.66699 -10.667 -19 -21.334 -31 -32.001c-25.333 -22 -54.833 -38.833 -88.5 -50.5s-70.834 -17.5 -111.501 -17.5h-1479z" />
    <glyph glyph-name="uni06AF" unicode="&#x6af;" horiz-adv-x="2012" arabic-form="isolated" 
d="M1398 204c22.667 0 44.1641 1.16602 64.4971 3.49902s38.666 5.5 54.999 9.5s29.833 9.16699 40.5 15.5s17.667 13.5 21 21.5c4.66699 8.66699 7 21 7 37c0 34 -13.333 76.5 -40 127.5s-68 107.5 -124 169.5c-62.667 70 -122.667 129.833 -180 179.5
s-108 90.5 -152 122.5s-79.167 55.5 -105.5 70.5s-39.833 22.5 -40.5 22.5l5 196l973 423l88 -200l-781 -338c48 -35.333 102.333 -80.666 163 -135.999s124.667 -120.666 192 -195.999c20.667 -24 40.167 -49.333 58.5 -76s35 -53.334 50 -80.001s28.333 -52.5 40 -77.5
s21.5 -47.5 29.5 -67.5c10.667 -28 18.167 -54.167 22.5 -78.5s6.5 -47.166 6.5 -68.499c0 -24 -2.66699 -45.833 -8 -65.5s-10.666 -36.167 -15.999 -49.5c-7.33301 -17.333 -19.166 -36.666 -35.499 -57.999s-38.833 -41.333 -67.5 -60s-64.667 -34.334 -108 -47.001
s-96 -19 -158 -19h-954c-48.667 0 -94.667 8.33301 -138 25s-82 40.667 -116 72c-13.333 12.667 -27.166 28 -41.499 46s-27.166 39.167 -38.499 63.5s-20.666 52 -27.999 83s-11 65.833 -11 104.5c0 34 3.5 71.167 10.5 111.5s14.667 78.666 23 114.999
s16.5 67.666 24.5 93.999s13 42.5 15 48.5l104 -33l105 -33c-4.66699 -14 -10.5 -33.5 -17.5 -58.5s-13.833 -52 -20.5 -81s-12.5 -58.167 -17.5 -87.5s-7.5 -54.666 -7.5 -75.999c0 -40.667 6.5 -72.667 19.5 -96s28 -40.833 45 -52.5s34.167 -19 51.5 -22
s30.666 -4.5 39.999 -4.5h952zM1036.23 1493.71l782.891 333.462l47.8887 -102.289l-843.271 -361.08z" />
    <glyph glyph-name="uni06B5.init" unicode="&#x6b5;" horiz-adv-x="617" 
d="M-18 204c64 0 114.333 4.16602 151 12.499s63.667 21.166 81 38.499c12 11.333 20.833 27.5 26.5 48.5s8.5 49.5 8.5 85.5v1041h218v-1041c0 -23.333 -1.16699 -47.666 -3.5 -72.999s-7 -50.666 -14 -75.999s-17.167 -50.333 -30.5 -75s-31 -48 -53 -70
c-39.333 -37.333 -89.333 -65 -150 -83s-138.667 -27 -234 -27v219zM639 2022l-225 -408h-127l-228 408h160l129 -264l133 264h158z" />
    <glyph glyph-name="uni06B5.medi" unicode="&#x6b5;" horiz-adv-x="650" 
d="M-20 204c70 0 124.165 6.00098 162.498 18.001s66.166 27 83.499 45s27.5 37.833 30.5 59.5s4.5 42.5 4.5 62.5v1040h218v-1040c0 -24 3.5 -46.833 10.5 -68.5s17.333 -40.834 31 -57.501s30.834 -30.167 51.501 -40.5s44.667 -16.5 72 -18.5h26v-219h-26
c-33.333 0.666992 -62 3.66699 -86 9s-46.167 13.166 -66.5 23.499s-40.166 22.833 -59.499 37.5l-64 51c-20 -19.333 -42.667 -36.5 -68 -51.5s-53.666 -27.667 -84.999 -38s-66.5 -18.166 -105.5 -23.499s-82.167 -8 -129.5 -8v219zM652.998 2013l-225 -408h-127l-228 408
h160l129 -264l133 264h158z" />
    <glyph glyph-name="uni06B5.fina" unicode="&#x6b5;" horiz-adv-x="1416" 
d="M595 -568c-45.333 0 -89.165 5.16699 -131.498 15.5s-82 25.5 -119 45.5s-71 44.167 -102 72.5s-58.167 60.5 -81.5 96.5c-10 16 -20 34.5 -30 55.5s-19 44.833 -27 71.5s-14.5 56.334 -19.5 89.001s-7.5 68 -7.5 106c0 32.667 2.33301 66.667 7 102s12.167 73 22.5 113
s24 82.667 41 128s38.167 94 63.5 146l197 -94c-38 -78.667 -66.5 -149.834 -85.5 -213.501s-28.5 -124.5 -28.5 -182.5c0 -78.667 17.333 -146.667 52 -204c13.333 -18.667 29.166 -35.834 47.499 -51.501s38.166 -29.167 59.499 -40.5s44 -20.166 68 -26.499
s48.667 -9.5 74 -9.5h46c73.333 0 133 7.66699 179 23s82 37 108 65s43.833 61.833 53.5 101.5s14.5 84.167 14.5 133.5v1453h216v-1075c4 -22.667 11.333 -43.167 22 -61.5s24 -33.833 40 -46.5s34 -22.5 54 -29.5s40.667 -10.5 62 -10.5h48v-219h-48
c-31.333 0 -62.833 3.5 -94.5 10.5s-59.5 18.5 -83.5 34.5v-56c0 -360 -190.333 -540.667 -571 -542h-46zM1399 2013l-225 -408h-127l-228 408h160l129 -264l133 264h158z" />
    <glyph glyph-name="uni06BA" unicode="&#x6ba;" horiz-adv-x="1561" arabic-form="isolated" 
d="M684 -553c-52 0 -102.168 6.00195 -150.501 18.002s-93.666 29.5 -135.999 52.5s-81.5 51 -117.5 84s-67.333 70.5 -94 112.5c-31.333 51.333 -55.5 108 -72.5 170s-25.5 127 -25.5 195c0 43.333 3 86.333 9 129s15 86.5 27 131.5s27.5 91.5 46.5 139.5s41.5 99 67.5 153
l197 -94c-22.667 -46.667 -42.167 -90.167 -58.5 -130.5s-29.833 -79 -40.5 -116s-18.5 -72.833 -23.5 -107.5s-7.5 -69.334 -7.5 -104.001c0 -98.667 22 -182.334 66 -251.001c33.333 -52 76.833 -92.167 130.5 -120.5s114.5 -42.5 182.5 -42.5h203
c74 0 134.167 7.66699 180.5 23s82.333 37.166 108 65.499s43.167 62.333 52.5 102s14 83.834 14 132.501v690h219v-690c0 -180 -48.167 -315.333 -144.5 -406s-239.5 -136 -429.5 -136h-203z" />
    <glyph glyph-name="uni06BE" unicode="&#x6be;" horiz-adv-x="1579" arabic-form="isolated" 
d="M1009 1073l210.004 -221.998l82 -89l76.5 -85.5l62.5 -73.5c18 -22 31.333 -39.333 40 -52c24.667 -40 43.334 -78.167 56.001 -114.5s19 -74.5 19 -114.5c0 -18 -2.33301 -39.333 -7 -64s-9.66699 -47.334 -15 -68.001c-12 -38.667 -30.333 -74.5 -55 -107.5
s-54 -61.5 -88 -85.5s-72.167 -42.667 -114.5 -56s-87.5 -20 -135.5 -20c-46.667 0 -95.167 6 -145.5 18s-101.5 31 -153.5 57c-13.333 5.33301 -26 11 -38 17c-10.667 4.66699 -21.5 9.66699 -32.5 15s-20.167 10 -27.5 14c-42 -12.667 -94.5 -25.334 -157.5 -38.001
s-132.833 -19 -209.5 -19c-42 0 -86.833 2.66699 -134.5 8s-97.5 14 -149.5 26l40 211c54 -9.33301 99.833 -16 137.5 -20s70.5 -6 98.5 -6c22 0 41.833 0.666992 59.5 2s34.167 3 49.5 5c-40 40.667 -70 85.5 -90 134.5s-30 104.167 -30 165.5
c0 52.667 9.66699 101.5 29 146.5s46.166 83.833 80.499 116.5s75 58.167 122 76.5s98.167 27.5 153.5 27.5c41.333 0 79.5 -5.83301 114.5 -17.5s66.667 -27.5 95 -47.5s53.166 -43 74.499 -69s39.166 -53 53.499 -81s25.166 -56.333 32.499 -85s11 -55.667 11 -81
c0 -66.667 -11.667 -127.167 -35 -181.5s-58 -102.5 -104 -144.5c24 -8.66699 49.667 -15.667 77 -21s53.666 -8 78.999 -8c18.667 0 37 1.66699 55 5s34.833 9.16602 50.5 17.499s30.167 19.333 43.5 33s25 30.5 35 50.5c8 16.667 12 34.334 12 53.001
c0 34 -11.333 71.667 -34 113s-52.5 84.5 -89.5 129.5s-78.833 91.5 -125.5 139.5l-143 144h1l-94 93zM563.004 511.002c0 -26.667 3.3291 -51 9.99609 -73s17.334 -42.833 32.001 -62.5s33.5 -38.334 56.5 -56.001s51.167 -35.167 84.5 -52.5
c22.667 10.667 43.834 23.834 63.501 39.501s36.834 33.334 51.501 53.001s26.334 41.167 35.001 64.5s13 47.666 13 72.999c0 30.667 -6.16699 56.5 -18.5 77.5s-27.333 38 -45 51s-36 22.333 -55 28s-35.167 8.5 -48.5 8.5c-24.667 0 -47.834 -3.66699 -69.501 -11
s-40.667 -17.833 -57 -31.5s-29.166 -29.667 -38.499 -48s-14 -38.5 -14 -60.5z" />
    <glyph glyph-name="uni06C0" unicode="&#x6c0;" horiz-adv-x="1007" arabic-form="isolated" 
d="M488 -15c-62 0 -118.828 9.5 -170.495 28.5s-96.334 45.333 -134.001 79s-66.834 73.5 -87.501 119.5s-31 96.333 -31 151c0 55.333 7.16699 106 21.5 152s33.833 89.333 58.5 130s53.167 79.667 85.5 117l101.5 112l-63 70l162 147l51.5 -56.5l52.5 -56.5l139 -150.5
c45.333 -49.667 85.666 -99.334 120.999 -149.001s63.666 -99.5 84.999 -149.5c20.667 -49.333 31 -98.333 31 -147v-5c-0.666992 -56.667 -11.834 -109.167 -33.501 -157.5s-53.5 -91.5 -95.5 -129.5c-38.667 -33.333 -82.667 -59.166 -132 -77.499
s-103.333 -27.5 -162 -27.5zM476.005 738l-76.001 -89.002c-23.333 -28.667 -43.666 -58 -60.999 -88s-30.833 -61.167 -40.5 -93.5s-14.5 -67.166 -14.5 -104.499c0 -27.333 5.66699 -51 17 -71s26.5 -36.5 45.5 -49.5s40.833 -22.667 65.5 -29s50 -9.5 76 -9.5
c64 0 114 15.833 150 47.5s54 73.5 54 125.5c0 31.333 -6 62.333 -18 93s-28 61 -48 91s-43 59.833 -69 89.5s-53 58.834 -81 87.501zM514.004 1839c13.333 0 27.6689 -0.829102 43.002 -2.49609s31.666 -4.83398 48.999 -9.50098l-29 -109
c-11.333 3.33301 -22.166 5.5 -32.499 6.5s-20.166 1.5 -29.499 1.5c-35.333 0 -64.333 -9.33301 -87 -28c-24.667 -20.667 -39.667 -50.334 -45 -89.001l89 -15.5c22 -3.66699 39.667 -7.16699 53 -10.5c11.333 -3.33301 20.666 -6.33301 27.999 -9s13.666 -6 18.999 -10
c20 -13.333 30 -32.666 30 -57.999c0 -6 -0.166992 -13.667 -0.5 -23s-1.5 -19.833 -3.5 -31.5s-5.33301 -23.834 -10 -36.501s-11.334 -25 -20.001 -37c-38.667 -56.667 -106.667 -85 -204 -85h-109v112h109c24 0 43.833 2 59.5 6s28 9.33301 37 16s15.5 14.167 19.5 22.5
s6.66699 16.833 8 25.5c-16.667 3.33301 -39.667 7.66602 -69 12.999l-103 18l-43 7l-4 43c-0.666992 8.66699 -1 17 -1 25c0 36.667 6.83301 73.167 20.5 109.5s36.167 67.833 67.5 94.5c16 13.333 36.833 25.666 62.5 36.999s57.5 17 95.5 17z" />
    <glyph glyph-name="uni06C1" unicode="&#x6c1;" horiz-adv-x="1007" arabic-form="isolated" 
d="M503 -15c-62 0 -118.828 9.5 -170.495 28.5s-96.334 45.333 -134.001 79s-66.834 73.5 -87.501 119.5s-31 96.333 -31 151c0 55.333 7.16699 106 21.5 152s33.833 89.333 58.5 130s53.167 79.667 85.5 117l101.5 112l-63 70l162 147l51.5 -56.5l52.5 -56.5l139 -150.5
c45.333 -49.667 85.666 -99.334 120.999 -149.001s63.666 -99.5 84.999 -149.5c20.667 -49.333 31 -98.333 31 -147v-5c-0.666992 -56.667 -11.834 -109.167 -33.501 -157.5s-53.5 -91.5 -95.5 -129.5c-38.667 -33.333 -82.667 -59.166 -132 -77.499
s-103.333 -27.5 -162 -27.5zM491.005 738l-76.001 -89.002c-23.333 -28.667 -43.666 -58 -60.999 -88s-30.833 -61.167 -40.5 -93.5s-14.5 -67.166 -14.5 -104.499c0 -27.333 5.66699 -51 17 -71s26.5 -36.5 45.5 -49.5s40.833 -22.667 65.5 -29s50 -9.5 76 -9.5
c64 0 114 15.833 150 47.5s54 73.5 54 125.5c0 31.333 -6 62.333 -18 93s-28 61 -48 91s-43 59.833 -69 89.5s-53 58.834 -81 87.501z" />
    <glyph glyph-name="uni06C2.fina" unicode="&#x6c2;" horiz-adv-x="1299" 
d="M1307 -15l-72.9971 0.00585938c-50 0 -101.833 6.66699 -155.5 20s-104.334 35 -152.001 65s-90.167 69.167 -127.5 117.5s-64.333 107.166 -81 176.499l-33.5 131.5l-31 115l-32 116.5c-11 40 -22.5 85.667 -34.5 137l-104 -22
c-66.667 -17.333 -111.334 -46 -134.001 -86c-10.667 -18.667 -18.334 -39.667 -23.001 -63s-7 -49 -7 -77c0 -22 2.83301 -49.833 8.5 -83.5s13.667 -71.834 24 -114.501s22.333 -88.834 36 -138.501l44.5 -156.5l-211 -59l-47 169c-14.667 53.333 -27.334 103 -38.001 149
s-19.167 88.667 -25.5 128s-9.5 74.666 -9.5 105.999c0 45.333 4.5 89 13.5 131s24.167 81 45.5 117c28 48 64.5 88 109.5 120s98.833 55.333 161.5 70c13.333 3.33301 32.166 7.66602 56.499 12.999l73 15.5c24.333 5 45.833 9.16699 64.5 12.5s29 5 31 5l120 -78
c14.667 -64 28.667 -122.167 42 -174.5l38.5 -148.5l36.5 -137.5l37 -141.5c12.667 -45.333 31.334 -82 56.001 -110s51.667 -49.833 81 -65.5s58.833 -26.334 88.5 -32.001s55.834 -8.5 78.501 -8.5h73v-219zM144.003 1144.01l0.000976562 132.998l118 35
c-22.667 20.667 -41.167 44.334 -55.5 71.001s-21.5 55.334 -21.5 86.001c0 22 3.83301 43.833 11.5 65.5s18.167 41.5 31.5 59.5s29.333 33.5 48 46.5s38.667 22.5 60 28.5h-1c11.333 3.33301 22.5 5.83301 33.5 7.5s22.167 2.5 33.5 2.5c25.333 0 48.333 -3.5 69 -10.5
s40.667 -14.167 60 -21.5l-27 -110c-17.333 4 -34.333 8.16699 -51 12.5s-33 6.5 -49 6.5c-10 0 -20 -1.66699 -30 -5c-10 -4 -19.833 -9.16699 -29.5 -15.5s-17.834 -13.833 -24.501 -22.5s-11 -18.334 -13 -29.001c-1.33301 -4 -2 -8.33301 -2 -13
c0 -7.33301 1.33301 -14.666 4 -21.999c6 -18.667 19.5 -34.5 40.5 -47.5s49.833 -19.5 86.5 -19.5c6.66699 0 14.167 0.333008 22.5 1s19 2.5 32 5.5s29.167 7 48.5 12s43.333 12.167 72 21.5l8 -126z" />
    <glyph glyph-name="uni06C3.fina" unicode="&#x6c3;" horiz-adv-x="1299" 
d="M1317 -15l-72.9971 0.00585938c-50 0 -101.833 6.66699 -155.5 20s-104.334 35 -152.001 65s-90.167 69.167 -127.5 117.5s-64.333 107.166 -81 176.499l-33.5 131.5l-31 115l-32 116.5c-11 40 -22.5 85.667 -34.5 137l-104 -22
c-66.667 -17.333 -111.334 -46 -134.001 -86c-10.667 -18.667 -18.334 -39.667 -23.001 -63s-7 -49 -7 -77c0 -22 2.83301 -49.833 8.5 -83.5s13.667 -71.834 24 -114.501s22.333 -88.834 36 -138.501l44.5 -156.5l-211 -59l-47 169c-14.667 53.333 -27.334 103 -38.001 149
s-19.167 88.667 -25.5 128s-9.5 74.666 -9.5 105.999c0 45.333 4.5 89 13.5 131s24.167 81 45.5 117c28 48 64.5 88 109.5 120s98.833 55.333 161.5 70c13.333 3.33301 32.166 7.66602 56.499 12.999l73 15.5c24.333 5 45.833 9.16699 64.5 12.5s29 5 31 5l120 -78
c14.667 -64 28.667 -122.167 42 -174.5l38.5 -148.5l36.5 -137.5l37 -141.5c12.667 -45.333 31.334 -82 56.001 -110s51.667 -49.833 81 -65.5s58.833 -26.334 88.5 -32.001s55.834 -8.5 78.501 -8.5h73v-219zM671.003 1216.01l-158 160l156 162l162 -162zM269.003 1218.01
l-158 160l155 162l162 -162z" />
    <glyph glyph-name="uni06C6.fina" unicode="&#x6c6;" horiz-adv-x="1093" arabic-form="final" 
d="M207 -333c103.333 0 188.001 7.33496 254.001 22.002s118 37.667 156 69c15.333 12.667 28.833 26.167 40.5 40.5s21.334 30.666 29.001 48.999s13.667 38.666 18 60.999s6.83301 47.833 7.5 76.5h-169c-48.667 0 -97.834 6.83301 -147.501 20.5s-94.667 36.5 -135 68.5
s-73.333 74.333 -99 127s-38.5 117.667 -38.5 195c0 45.333 3.83301 86 11.5 122s17.5 68.167 29.5 96.5s25.333 52.833 40 73.5s29 38.667 43 54c38 38 81.5 67.5 130.5 88.5s101.833 31.5 158.5 31.5c49.333 0 95.5 -7.66699 138.5 -23s81.5 -38.333 115.5 -69
c46 -43.333 80.833 -98 104.5 -164s35.5 -145 35.5 -237v-165h183v-219h-183c-1.33301 -92 -16.5 -169.667 -45.5 -233s-72.5 -118.333 -130.5 -165c-30 -23.333 -63 -43.833 -99 -61.5s-76.333 -32.167 -121 -43.5s-93.834 -19.833 -147.501 -25.5s-113.5 -8.5 -179.5 -8.5
v219zM536.001 643.002c-61.333 0 -108.999 -21.1699 -142.999 -63.5029s-51 -103.5 -51 -183.5c0 -40 6 -72.333 18 -97s29.667 -44.667 53 -60c11.333 -7.33301 23.5 -13.166 36.5 -17.499s25.5 -7.83301 37.5 -10.5s22.833 -4.5 32.5 -5.5s17.5 -1.5 23.5 -1.5h169v165
c0 46.667 -3.33301 85.834 -10 117.501s-15.334 57.5 -26.001 77.5s-22.5 35.5 -35.5 46.5s-26 18.833 -39 23.5s-25.333 7.33398 -37 8.00098s-21.167 1 -28.5 1zM823.002 1473l-225 -408h-127l-228 408h160l129 -264l133 264h158z" />
    <glyph glyph-name="uni06CC" unicode="&#x6cc;" horiz-adv-x="1626" arabic-form="isolated" 
d="M903 -346c64 0 119.334 5.33203 166.001 15.999s85 27.667 115 51s52.167 53.666 66.5 90.999s21.5 82.666 21.5 135.999l-180 49l-79.5 21l-83 22.5l-81 21.5l-73.5 19c-26 64.667 -41 129 -45 193c-1.33301 15.333 -2 30.666 -2 45.999
c0 47.333 6.5 96.666 19.5 147.999s35.833 102 68.5 152s73.334 93.333 122.001 130s105 65.5 169 86.5s134.667 31.5 212 31.5c32 0 64 -2.33301 96 -7s66.333 -11.667 103 -21l-55 -211c-28 8 -53.833 13.833 -77.5 17.5s-47.5 5.5 -71.5 5.5
c-54.667 0 -105.5 -8.83301 -152.5 -26.5s-87.333 -43 -121 -76s-58.834 -72.833 -75.501 -119.5c-13.333 -36 -20 -75 -20 -117c0 -13.333 0.666992 -26.666 2 -39.999l81.5 -21.5l82 -21.5l90.5 -23l107 -26c60.667 -15.333 104.334 -40.666 131.001 -75.999
s40 -79.666 40 -132.999c0 -90 -10.333 -168.667 -31 -236s-54 -123.333 -100 -168s-105.5 -78.334 -178.5 -101.001s-161.833 -34 -266.5 -34h-211c-53.333 0 -104.5 6.16699 -153.5 18.5s-94.833 30 -137.5 53s-81.834 51 -117.501 84s-67.167 70.167 -94.5 111.5
c-64.667 104.667 -97 227 -97 367c0 86.667 13 177.334 39 272.001s65.667 197.334 119 308.001l194 -94c-44.667 -94.667 -78 -181.167 -100 -259.5s-33 -152.166 -33 -221.499c0 -99.333 22 -184 66 -254c32 -53.333 75.667 -94 131 -122s116.666 -42 183.999 -42h211z
" />
    <glyph glyph-name="uni06CE.init" unicode="&#x6ce;" horiz-adv-x="892" 
d="M711 818c1.33301 -4 3.99902 -14.833 7.99902 -32.5l14.5 -65.5c5.66699 -26 11.334 -54.667 17.001 -86s11 -62.833 16 -94.5s9.16699 -62.334 12.5 -92.001s5 -55.5 5 -77.5c0 -66 -11 -123.333 -33 -172s-50.5 -88.667 -85.5 -120s-74.5 -54.666 -118.5 -69.999
s-88 -23 -132 -23h-445v219h452c8.66699 0 21.5 1.33301 38.5 4s33.833 9.5 50.5 20.5s31.167 27.5 43.5 49.5s18.5 52.667 18.5 92c0 14.667 -1.33301 33 -4 55s-6 45.667 -10 71s-8.66699 51.333 -14 78l-15.5 75c-5 23.333 -9.83301 44.333 -14.5 63l-11 43z
M590.999 -497l-158 160l156 162l162 -162zM209.999 -495l-158 160l156 162l162 -162zM659.999 1437l-225 -408h-127l-228 408h160l129 -264l133 264h158z" />
    <glyph glyph-name="uni06CE.medi" unicode="&#x6ce;" horiz-adv-x="1061" 
d="M1073 204l0.000976562 -219h-160c-58.667 0 -111.334 8.16699 -158.001 24.5s-85 40.5 -115 72.5c-36 -31.333 -79.833 -55.333 -131.5 -72s-110.167 -25 -175.5 -25h-361v219h361c44 0 79.167 4.33301 105.5 13s46.166 19.5 59.499 32.5s22 27.333 26 43
s6 30.834 6 45.501v339h218v-332c0 -22.667 3.5 -41.834 10.5 -57.501s15.833 -28.667 26.5 -39s22.334 -18.5 35.001 -24.5s25.167 -10.5 37.5 -13.5s23.5 -4.83301 33.5 -5.5s17.333 -1 22 -1h160zM640.001 -489l-158 160l156 162l162 -162zM259.001 -487l-158 160
l156 162l162 -162zM933.001 1269l-225 -408h-127l-228 408h160l129 -264l133 264h158z" />
    <glyph glyph-name="uni06CE.fina" unicode="&#x6ce;" horiz-adv-x="1786" 
d="M1502 -15c24 -25.333 41.8359 -51.8359 53.5029 -79.5029s17.5 -54.167 17.5 -79.5c0 -60 -16.5 -114.167 -49.5 -162.5s-77.833 -89.5 -134.5 -123.5s-122.667 -60.333 -198 -79s-155.333 -28 -240 -28h-256c-53.333 0 -104.5 6.16699 -153.5 18.5s-94.833 30 -137.5 53
s-81.834 51 -117.501 84s-67.167 70.167 -94.5 111.5c-64.667 104.667 -97 227 -97 367c0 86.667 11.833 176.334 35.5 269.001s62.167 194.334 115.5 305.001l194 -94c-22 -47.333 -41 -92.166 -57 -134.499s-29.167 -83 -39.5 -122s-17.833 -76.5 -22.5 -112.5
s-7 -71.333 -7 -106c0 -99.333 22 -184 66 -254c32 -53.333 75.667 -94 131 -122s116.666 -42 183.999 -42h256c53.333 0 103.666 5.33301 150.999 16s88.833 25 124.5 43s64.167 39.167 85.5 63.5s33 50.5 35 78.5c-19.333 22 -45 40.833 -77 56.5
s-67.833 28.5 -107.5 38.5s-82.167 17.833 -127.5 23.5s-91.333 9.5 -138 11.5l7 219h907v-219h-309zM1233 821.997l-225 -408h-127l-228 408h160l129 -264l133 264h158z" />
    <glyph glyph-name="uni06D2" unicode="&#x6d2;" horiz-adv-x="1681" arabic-form="isolated" 
d="M1664 -349l0.00195312 -218h-1160c-58 0 -112 9.33301 -162 28s-93.333 45.167 -130 79.5s-65.334 75.833 -86.001 124.5s-31 103 -31 163c0 52.667 11.333 102 34 148s52.834 85.833 90.501 119.5s81.167 60.167 130.5 79.5s100.666 29 153.999 29h418v-219h-410
c-26.667 0 -53.167 -4.16699 -79.5 -12.5s-49.833 -20 -70.5 -35s-37.334 -32.833 -50.001 -53.5s-19 -43.334 -19 -68.001s6.33301 -47.167 19 -67.5s29 -37.666 49 -51.999s42.5 -25.5 67.5 -33.5s50.167 -12 75.5 -12h1160z" />
    <glyph glyph-name="uni06D3" unicode="&#x6d3;" horiz-adv-x="1681" arabic-form="isolated" 
d="M1649 -349l0.00195312 -218h-1160c-58 0 -112 9.33301 -162 28s-93.333 45.167 -130 79.5s-65.334 75.833 -86.001 124.5s-31 103 -31 163c0 52.667 11.333 102 34 148s52.834 85.833 90.501 119.5s81.167 60.167 130.5 79.5s100.666 29 153.999 29h418v-219h-410
c-26.667 0 -53.167 -4.16699 -79.5 -12.5s-49.833 -20 -70.5 -35s-37.334 -32.833 -50.001 -53.5s-19 -43.334 -19 -68.001s6.33301 -47.167 19 -67.5s29 -37.666 49 -51.999s42.5 -25.5 67.5 -33.5s50.167 -12 75.5 -12h1160zM187.002 320l0.000976562 132.998l118 35
c-22.667 20.667 -41.167 44.334 -55.5 71.001s-21.5 55.334 -21.5 86.001c0 22 3.83301 43.833 11.5 65.5s18.167 41.5 31.5 59.5s29.333 33.5 48 46.5s38.667 22.5 60 28.5h-1c11.333 3.33301 22.5 5.83301 33.5 7.5s22.167 2.5 33.5 2.5c25.333 0 48.333 -3.5 69 -10.5
s40.667 -14.167 60 -21.5l-27 -110c-17.333 4 -34.333 8.16699 -51 12.5s-33 6.5 -49 6.5c-10 0 -20 -1.66699 -30 -5c-10 -4 -19.833 -9.16699 -29.5 -15.5s-17.834 -13.833 -24.501 -22.5s-11 -18.334 -13 -29.001c-1.33301 -4 -2 -8.33301 -2 -13
c0 -7.33301 1.33301 -14.666 4 -21.999c6 -18.667 19.5 -34.5 40.5 -47.5s49.833 -19.5 86.5 -19.5c6.66699 0 14.167 0.333008 22.5 1s19 2.5 32 5.5s29.167 7 48.5 12s43.333 12.167 72 21.5l8 -126z" />
    <glyph glyph-name="uni0671.fina" unicode="&#x671;" horiz-adv-x="676" arabic-form="final" 
d="M693 -15c-100 0 -182.498 10.501 -247.498 31.501s-117.5 54.5 -157.5 100.5c-21.333 24 -38.333 50.167 -51 78.5s-22.334 57.5 -29.001 87.5s-11 60.5 -13 91.5s-3 61.167 -3 90.5v812h219v-812c0 -56.667 3.16699 -101 9.5 -133s17.166 -56.667 32.499 -74
c16.667 -18.667 44.5 -32.334 83.5 -41.001s91.167 -13 156.5 -13v-219zM10.002 1428l20.999 94.999h130l46 71l83 122c23.333 34 51.333 60.833 84 80.5s68.334 29.5 107.001 29.5c22 0 44 -4.16699 66 -12.5s41.5 -21.166 58.5 -38.499s30.833 -39.333 41.5 -66
s16 -58 16 -94c0 -34.667 -5.83301 -64 -17.5 -88s-26.5 -43.333 -44.5 -58s-38 -25.167 -60 -31.5s-43.667 -9.5 -65 -9.5h-466zM481.001 1731c-20 0 -39.333 -6.5 -58 -19.5s-36.667 -29.5 -54 -49.5s-34 -42.333 -50 -67l-45 -72h202c26 0 47.667 7.33301 65 22
s26 38 26 70c0 37.333 -7.33301 66 -22 86s-36 30 -64 30z" />
    <glyph glyph-name="uni067E.fina" unicode="&#x67e;" horiz-adv-x="2161" arabic-form="final" 
d="M2185 204l-0.00488281 -218.998h-74c-24 0 -48.667 2 -74 6s-50.166 10 -74.499 18s-47.5 18.167 -69.5 30.5s-42 27.5 -60 45.5c-72.667 -66 -175 -99.333 -307 -100h-1070c-48.667 0 -94.667 8.33301 -138 25s-82 40.667 -116 72c-13.333 12.667 -27.166 28 -41.499 46
s-27.166 39.167 -38.499 63.5s-20.666 52 -27.999 83s-11 65.833 -11 104.5c0 34 3.5 71.167 10.5 111.5s14.667 78.666 23 114.999s16.5 67.666 24.5 93.999s13 42.5 15 48.5l104 -33l105 -33c-4.66699 -14 -10.5 -33.5 -17.5 -58.5s-13.833 -52 -20.5 -81
s-12.5 -58.167 -17.5 -87.5s-7.5 -54.666 -7.5 -75.999c0 -40.667 6.5 -72.667 19.5 -96s28 -40.833 45 -52.5s34.167 -19 51.5 -22s30.666 -4.5 39.999 -4.5h1061c50.667 0 89.834 5.33301 117.501 16s47.834 23.5 60.501 38.5s20 30.5 22 46.5s3 29.333 3 40v332h219v-327
c0 -34 7 -60.667 21 -80s30.333 -33.833 49 -43.5s37.5 -15.834 56.5 -18.501s33.5 -4 43.5 -4h74zM695.995 -330.998l160 160l160 -162l-160 -160zM1113 -332.998l162 160l160 -162l-160 -160zM913.995 -612.998l148 148l150 -150l-148 -148z" />
    <glyph glyph-name="uni067E.init" unicode="&#x67e;" horiz-adv-x="892" arabic-form="initial" 
d="M721 818c1.33301 -4 3.99902 -14.833 7.99902 -32.5l14.5 -65.5c5.66699 -26 11.334 -54.667 17.001 -86s11 -62.833 16 -94.5s9.16699 -62.334 12.5 -92.001s5 -55.5 5 -77.5c0 -66 -11 -123.333 -33 -172s-50.5 -88.667 -85.5 -120s-74.5 -54.666 -118.5 -69.999
s-88 -23 -132 -23h-445v219h452c8.66699 0 21.5 1.33301 38.5 4s33.833 9.5 50.5 20.5s31.167 27.5 43.5 49.5s18.5 52.667 18.5 92c0 14.667 -1.33301 33 -4 55s-6 45.667 -10 71s-8.66699 51.333 -14 78l-15.5 75c-5 23.333 -9.83301 44.333 -14.5 63l-11 43zM60.999 -344
l160 160l160 -162l-160 -160zM477.999 -346l162 160l160 -162l-160 -160zM278.999 -626l148 148l150 -150l-148 -148z" />
    <glyph glyph-name="uni067E.medi" unicode="&#x67e;" horiz-adv-x="1061" arabic-form="medial" 
d="M1083 204l0.000976562 -219h-160c-58.667 0 -111.334 8.16699 -158.001 24.5s-85 40.5 -115 72.5c-36 -31.333 -79.833 -55.333 -131.5 -72s-110.167 -25 -175.5 -25h-361v219h361c44 0 79.167 4.33301 105.5 13s46.166 19.5 59.499 32.5s22 27.333 26 43
s6 30.834 6 45.501v339h218v-332c0 -22.667 3.5 -41.834 10.5 -57.501s15.833 -28.667 26.5 -39s22.334 -18.5 35.001 -24.5s25.167 -10.5 37.5 -13.5s23.5 -4.83301 33.5 -5.5s17.333 -1 22 -1h160zM100.001 -349l160 160l160 -162l-160 -160zM517.001 -351l162 160
l160 -162l-160 -160zM318.001 -631l148 148l150 -150l-148 -148z" />
    <glyph glyph-name="uni0679.fina" unicode="&#x679;" horiz-adv-x="2161" arabic-form="final" 
d="M2185 204l-0.00488281 -218.998h-74c-24 0 -48.667 2 -74 6s-50.166 10 -74.499 18s-47.5 18.167 -69.5 30.5s-42 27.5 -60 45.5c-72.667 -66 -175 -99.333 -307 -100h-1070c-48.667 0 -94.667 8.33301 -138 25s-82 40.667 -116 72c-13.333 12.667 -27.166 28 -41.499 46
s-27.166 39.167 -38.499 63.5s-20.666 52 -27.999 83s-11 65.833 -11 104.5c0 34 3.5 71.167 10.5 111.5s14.667 78.666 23 114.999s16.5 67.666 24.5 93.999s13 42.5 15 48.5l104 -33l105 -33c-4.66699 -14 -10.5 -33.5 -17.5 -58.5s-13.833 -52 -20.5 -81
s-12.5 -58.167 -17.5 -87.5s-7.5 -54.666 -7.5 -75.999c0 -40.667 6.5 -72.667 19.5 -96s28 -40.833 45 -52.5s34.167 -19 51.5 -22s30.666 -4.5 39.999 -4.5h1061c50.667 0 89.834 5.33301 117.501 16s47.834 23.5 60.501 38.5s20 30.5 22 46.5s3 29.333 3 40v332h219v-327
c0 -34 7 -60.667 21 -80s30.333 -33.833 49 -43.5s37.5 -15.834 56.5 -18.501s33.5 -4 43.5 -4h74zM784.995 675.002l-0.000976562 94.998h102c7.33301 12 14.833 23.5 22.5 34.5s15.167 22.5 22.5 34.5v489h93v-354c25.333 28.667 52.833 52.334 82.5 71.001
s62.834 28 99.501 28c22 0 44 -4.16699 66 -12.5s41.5 -21.166 58.5 -38.499s30.833 -39.333 41.5 -66s16 -58 16 -94c0 -34.667 -5.83301 -64 -17.5 -88s-26.5 -43.333 -44.5 -58s-38 -25.167 -60 -31.5s-43.667 -9.5 -65 -9.5h-417zM1206.99 978
c-19.333 0 -38.332 -6.5 -56.999 -19.5s-36.834 -29.5 -54.501 -49.5s-34.5 -42.333 -50.5 -67l-45 -72h202c26 0 47.667 7.33301 65 22s26 38 26 70c0 37.333 -7.33301 66 -22 86s-36 30 -64 30z" />
    <glyph glyph-name="uni0679.init" unicode="&#x679;" horiz-adv-x="892" arabic-form="initial" 
d="M721 818c1.33301 -4 3.99902 -14.833 7.99902 -32.5l14.5 -65.5c5.66699 -26 11.334 -54.667 17.001 -86s11 -62.833 16 -94.5s9.16699 -62.334 12.5 -92.001s5 -55.5 5 -77.5c0 -66 -11 -123.333 -33 -172s-50.5 -88.667 -85.5 -120s-74.5 -54.666 -118.5 -69.999
s-88 -23 -132 -23h-445v219h452c8.66699 0 21.5 1.33301 38.5 4s33.833 9.5 50.5 20.5s31.167 27.5 43.5 49.5s18.5 52.667 18.5 92c0 14.667 -1.33301 33 -4 55s-6 45.667 -10 71s-8.66699 51.333 -14 78l-15.5 75c-5 23.333 -9.83301 44.333 -14.5 63l-11 43zM175.999 985
l-0.000976562 94.998h102c7.33301 12 14.833 23.5 22.5 34.5s15.167 22.5 22.5 34.5v489h93v-354c25.333 28.667 52.833 52.334 82.5 71.001s62.834 28 99.501 28c22 0 44 -4.16699 66 -12.5s41.5 -21.166 58.5 -38.499s30.833 -39.333 41.5 -66s16 -58 16 -94
c0 -34.667 -5.83301 -64 -17.5 -88s-26.5 -43.333 -44.5 -58s-38 -25.167 -60 -31.5s-43.667 -9.5 -65 -9.5h-417zM597.998 1288c-19.333 0 -38.332 -6.5 -56.999 -19.5s-36.834 -29.5 -54.501 -49.5s-34.5 -42.333 -50.5 -67l-45 -72h202c26 0 47.667 7.33301 65 22
s26 38 26 70c0 37.333 -7.33301 66 -22 86s-36 30 -64 30z" />
    <glyph glyph-name="uni0679.medi" unicode="&#x679;" horiz-adv-x="1061" arabic-form="medial" 
d="M1083 204l0.000976562 -219h-160c-58.667 0 -111.334 8.16699 -158.001 24.5s-85 40.5 -115 72.5c-36 -31.333 -79.833 -55.333 -131.5 -72s-110.167 -25 -175.5 -25h-361v219h361c44 0 79.167 4.33301 105.5 13s46.166 19.5 59.499 32.5s22 27.333 26 43
s6 30.834 6 45.501v339h218v-332c0 -22.667 3.5 -41.834 10.5 -57.501s15.833 -28.667 26.5 -39s22.334 -18.5 35.001 -24.5s25.167 -10.5 37.5 -13.5s23.5 -4.83301 33.5 -5.5s17.333 -1 22 -1h160zM141.001 851l-0.000976562 94.998h102c7.33301 12 14.833 23.5 22.5 34.5
s15.167 22.5 22.5 34.5v489h93v-354c25.333 28.667 52.833 52.334 82.5 71.001s62.834 28 99.501 28c22 0 44 -4.16699 66 -12.5s41.5 -21.166 58.5 -38.499s30.833 -39.333 41.5 -66s16 -58 16 -94c0 -34.667 -5.83301 -64 -17.5 -88s-26.5 -43.333 -44.5 -58
s-38 -25.167 -60 -31.5s-43.667 -9.5 -65 -9.5h-417zM563 1154c-19.333 0 -38.332 -6.5 -56.999 -19.5s-36.834 -29.5 -54.501 -49.5s-34.5 -42.333 -50.5 -67l-45 -72h202c26 0 47.667 7.33301 65 22s26 38 26 70c0 37.333 -7.33301 66 -22 86s-36 30 -64 30z" />
    <glyph glyph-name="veh.isol" unicode="&#x6a4;" horiz-adv-x="2074" arabic-form="isolated" 
d="M1411 204c66 0 120.16 4 162.493 12s76 18.5 101 31.5s42.833 27.333 53.5 43s17.667 31.167 21 46.5h-135c-32.667 0 -66 1.83301 -100 5.5s-67.167 10.5 -99.5 20.5s-62.666 23.5 -90.999 40.5s-53.166 38.833 -74.499 65.5s-38.166 58.834 -50.499 96.501
s-18.5 81.834 -18.5 132.501c0 56 9.5 107.667 28.5 155s45.667 88.166 80 122.499s75 61.333 122 81s98.5 29.5 154.5 29.5c51.333 0 96.833 -7.16699 136.5 -21.5s74.5 -34.333 104.5 -60s55.333 -56.167 76 -91.5s37.334 -73.833 50.001 -115.5s22 -85.667 28 -132
s9 -93.5 9 -141.5v-138c0 -78 -15.5 -142.833 -46.5 -194.5s-72.167 -93 -123.5 -124s-110.666 -52.5 -177.999 -64.5c-64 -12 -130.333 -18 -199 -18h-985c-48.667 0 -94.667 8.33301 -138 25s-82 40.667 -116 72c-13.333 12.667 -27.166 28 -41.499 46
s-27.166 39.167 -38.499 63.5s-20.666 52 -27.999 83s-11 65.833 -11 104.5c0 34 3.5 71.167 10.5 111.5s14.667 78.666 23 114.999s16.5 67.666 24.5 93.999s13 42.5 15 48.5l104 -33l105 -33c-4.66699 -14 -10.5 -33.5 -17.5 -58.5s-13.833 -52 -20.5 -81
s-12.5 -58.167 -17.5 -87.5s-7.5 -54.666 -7.5 -75.999c0 -40.667 6.5 -72.667 19.5 -96s28 -40.833 45 -52.5s34.167 -19 51.5 -22s30.666 -4.5 39.999 -4.5h972zM1564.99 867c-20.667 0 -42.001 -2.83203 -64.001 -8.49902s-42 -15.167 -60 -28.5
s-32.833 -30.833 -44.5 -52.5s-17.5 -48.167 -17.5 -79.5c0 -38.667 6.83301 -67.834 20.5 -87.501s31.5 -33.5 53.5 -41.5s47 -12.167 75 -12.5s56.667 -0.5 86 -0.5h138c-3.33301 40 -7.5 78.667 -12.5 116s-13.833 70.5 -26.5 99.5s-30.667 52.167 -54 69.5
s-54.666 26 -93.999 26zM1491.99 1362l-160 -162l-160 160l160 162zM1920.99 1366l-158 -160l-165 158l162 162zM1699.99 1648l-150 -150l-148 148l150 150z" />
    <glyph glyph-name="veh.fina" unicode="&#x6a4;" horiz-adv-x="2114" arabic-form="final" 
d="M456 -15c-48.667 0 -94.6709 8.33398 -138.004 25.001s-82 40.667 -116 72c-13.333 12.667 -27.166 28 -41.499 46s-27.166 39.167 -38.499 63.5s-20.666 52 -27.999 83s-11 65.833 -11 104.5c0 34 3.5 71.167 10.5 111.5s14.667 78.666 23 114.999
s16.5 67.666 24.5 93.999s13 42.5 15 48.5l104 -33l105 -33c-4.66699 -14 -10.5 -33.5 -17.5 -58.5s-13.833 -52 -20.5 -81s-12.5 -58.167 -17.5 -87.5s-7.5 -54.666 -7.5 -75.999c0 -40.667 6.5 -72.667 19.5 -96s28 -40.833 45 -52.5s34.167 -19 51.5 -22
s30.666 -4.5 39.999 -4.5h702h47.5c13.667 0 26.834 0.166992 39.501 0.5l37.5 1c12.333 0.333008 25.5 1.16602 39.5 2.49902c-16.667 20 -31.334 40.333 -44.001 61s-23.167 42.334 -31.5 65.001s-14.666 46.667 -18.999 72s-6.5 52.666 -6.5 81.999
c0 50.667 10.667 99 32 145s50.5 86.167 87.5 120.5s80.167 61.666 129.5 81.999s102.333 30.5 159 30.5c60 0 113.5 -10.667 160.5 -32s86.833 -49.666 119.5 -84.999s57.667 -75.666 75 -120.999s26 -92 26 -140c0 -59.333 -8 -111 -24 -155s-39.667 -85.667 -71 -125
c21.333 -1.33301 43.833 -2.33301 67.5 -3s47.5 -1 71.5 -1h82v-219h-82c-86 0 -165.167 3.83301 -237.5 11.5s-137.833 19.834 -196.5 36.501c-60 -16.667 -127.667 -28.834 -203 -36.501s-161.666 -11.5 -258.999 -11.5h-704zM1434 487.001v-12.0039
c0 -26 4 -49.833 12 -71.5s20.5 -41.334 37.5 -59.001s37.333 -33.167 61 -46.5s50.167 -25.333 79.5 -36c27.333 10.667 52.166 22.334 74.499 35.001s41.333 27.834 57 45.501s27.834 38.334 36.501 62.001s13 51.5 13 83.5c0 18 -4.83301 36.333 -14.5 55
s-22.5 35.834 -38.5 51.501s-34.5 28.334 -55.5 38.001s-42.833 14.5 -65.5 14.5c-26 0 -51 -4.33301 -75 -13s-45 -20.5 -63 -35.5s-32.333 -32.167 -43 -51.5s-16 -39.333 -16 -60zM1554 1179l-160 -162l-160 160l160 162zM1983 1183l-158 -160l-165 158l162 162z
M1762 1465l-150 -150l-148 148l150 150z" />
    <glyph glyph-name="veh.init" unicode="&#x6a4;" horiz-adv-x="998" arabic-form="initial" 
d="M-27 -15l-0.000976562 218.999h399c66 0 119.667 4.16699 161 12.5s74 19 98 32s41 27.333 51 43s16.667 31.167 20 46.5h-127c-62.667 0 -121.167 5.83301 -175.5 17.5s-101.666 31.334 -141.999 59.001s-72 64.334 -95 110.001s-34.5 102.5 -34.5 170.5
c0 54 10 105.333 30 154s47.667 91.334 83 128.001s77.333 65.334 126 86.001c43.333 18 90 27 140 27h19c52 -2 97.833 -11.5 137.5 -28.5s74 -39.333 103 -67s53.333 -59.834 73 -96.501s35.5 -75.834 47.5 -117.501s20.667 -85.167 26 -130.5s8.33301 -90.333 9 -135
v-138c0 -50 -7.16699 -94.333 -21.5 -133s-34 -72.667 -59 -102s-54.833 -53.833 -89.5 -73.5s-72.5 -35.834 -113.5 -48.501s-84 -21.667 -129 -27s-90.833 -8 -137.5 -8h-399zM525.999 870.999c-8 0.666992 -16 1.00195 -24 1.00195c-18 0 -36.833 -2.5 -56.5 -7.5
s-38.334 -14.833 -56.001 -29.5s-31.667 -33.5 -42 -56.5s-15.5 -50.167 -15.5 -81.5c0 -32 7.5 -57.833 22.5 -77.5s34.167 -34.834 57.5 -45.501s49.5 -17.834 78.5 -21.501s57.167 -5.5 84.5 -5.5h131c-1.33301 30 -3.16602 62.833 -5.49902 98.5s-9 69.5 -20 101.5
s-28.5 59.667 -52.5 83s-58 37 -102 41zM472.999 1381l-160 -162l-160 160l160 162zM901.999 1385l-158 -160l-165 158l162 162zM680.999 1667l-150 -150l-148 148l150 150z" />
    <glyph glyph-name="veh.medi" unicode="&#x6a4;" horiz-adv-x="1102" arabic-form="medial" 
d="M562 864c60 0 113.499 -10.8311 160.499 -32.498s86.833 -50.334 119.5 -86.001s57.667 -76.334 75 -122.001s26 -92.5 26 -140.5c0 -59.333 -8 -110.166 -24 -152.499s-39.667 -83.166 -71 -122.499c10.667 -0.666992 24.167 -1.33398 40.5 -2.00098
s33.5 -1.16699 51.5 -1.5s35.5 -0.5 52.5 -0.5h43.5h84v-219h-84c-42.667 0 -86.334 1.5 -131.001 4.5s-88.167 7 -130.5 12s-82.5 11 -120.5 18s-71.667 14.5 -101 22.5c-60 -16.667 -127.667 -30.334 -203 -41.001s-161.666 -16 -258.999 -16h-113v219h113h47.5
c13.667 0 26.834 0.166992 39.501 0.5l37.5 1c12.333 0.333008 25.5 1.16602 39.5 2.49902c-16.667 20 -31.334 40 -44.001 60s-23.167 41 -31.5 63s-14.666 45.5 -18.999 70.5s-6.5 52.167 -6.5 81.5c0 50.667 10.667 99.167 32 145.5s50.5 86.833 87.5 121.5
s80.167 62.334 129.5 83.001s102.333 31 159 31zM359.999 482.002l0.00292969 -11.9951c0 -26 4.33301 -50.167 13 -72.5s21.667 -42.833 39 -61.5s38.166 -34.834 62.499 -48.501s51.166 -25.834 80.499 -36.501c27.333 10.667 52.666 22.667 75.999 36
s43.5 29.166 60.5 47.499s30.333 39.666 40 63.999s14.5 52.5 14.5 84.5c0 18 -5.33301 36.5 -16 55.5s-24.667 36.5 -42 52.5s-37 29 -59 39s-44.333 15 -67 15c-26 0 -51.167 -4.5 -75.5 -13.5s-45.833 -21.167 -64.5 -36.5s-33.667 -32.833 -45 -52.5
s-17 -39.834 -17 -60.501zM499.002 1178.01l-160 -162l-160 160l160 162zM928.002 1182.01l-158 -160l-165 158l162 162zM707.002 1464.01l-150 -150l-148 148l150 150z" />
    <glyph glyph-name="uni0686.fina" unicode="&#x686;" horiz-adv-x="1565" arabic-form="final" 
d="M1184 477c0 -56.667 3.33496 -102.67 10.002 -138.003c6.66699 -36 16.5 -64 29.5 -84s28.833 -33.5 47.5 -40.5s40 -10.5 64 -10.5h249v-219h-249c-48.667 0 -94.667 6.83301 -138 20.5s-81.5 36.834 -114.5 69.501s-59.167 76.334 -78.5 131.001
c-18.667 53.333 -28.334 119.333 -29.001 198l-281 -99c-88 -32.667 -159.667 -63 -215 -91s-98.5 -55.833 -129.5 -83.5s-52 -56.167 -63 -85.5s-16.5 -61.666 -16.5 -96.999c0 -17.333 0.833008 -35.666 2.5 -54.999s4.16699 -40 7.5 -62
c10 -76 27.167 -140.167 51.5 -192.5s55.833 -94.666 94.5 -126.999s84.167 -55.833 136.5 -70.5s111.166 -22 176.499 -22h500v-219h-500c-98 0 -185.667 11.167 -263 33.5s-144.166 57.666 -200.499 105.999s-102.333 110.666 -138 186.999s-60.5 168.166 -74.5 275.499
c-6 46.667 -9 91 -9 133c0 79.333 13.833 148.5 41.5 207.5s66.5 111 116.5 156s109.667 84.333 179 118s145.333 64.5 228 92.5l441 137c-58 22.667 -117 44.334 -177 65.001s-116.167 39.167 -168.5 55.5s-98 29.833 -137 40.5s-66.5 17.667 -82.5 21
c-10 0 -20.333 -0.166992 -31 -0.5s-21.167 -4.83301 -31.5 -13.5s-20.833 -23 -31.5 -43s-21 -49.333 -31 -88l-213 56c28 108.667 70.167 187 126.5 235s128.166 72 215.499 72c4.66699 0 10.334 -0.166992 17.001 -0.5s16.5 -2 29.5 -5s30.167 -7.66699 51.5 -14
s48.666 -15.333 81.999 -27l122 -44l171 -65.5l366 -154l8 -202zM446.916 -101.629l147.764 147.881l147.764 -149.729l-147.764 -147.881zM832.025 -103.477l149.61 147.881l147.764 -149.729l-147.764 -147.881zM648.244 -362.269l136.682 136.79l138.528 -138.639
l-136.682 -136.79z" />
    <glyph glyph-name="uni0686.init" unicode="&#x686;" horiz-adv-x="1418" arabic-form="initial" 
d="M1353 379l-53.001 -34.501c-31.333 -20.333 -73 -45.166 -125 -74.499s-112.667 -60.666 -182 -93.999s-143.666 -64.166 -222.999 -92.499s-162.166 -51.833 -248.499 -70.5s-172.5 -28 -258.5 -28h-288v219h288c46.667 0 95 3.33301 145 10s99.833 15.834 149.5 27.501
s98.834 25.167 147.501 40.5s95.5 31.666 140.5 48.999s87.167 35.166 126.5 53.499s74.666 36.5 105.999 54.5l-499 175c-30 8.66699 -56.667 13.167 -80 13.5s-44 -3.83398 -62 -12.501s-33.667 -22.334 -47 -41.001s-25.333 -42.334 -36 -71.001l-202 61
c14 44.667 33 87.334 57 128.001s53.667 74.834 89 102.501s76.666 46.167 123.999 55.5c14.667 2.66699 30 4 46 4c35.333 0 74 -6.66699 116 -20l101.5 -33.5l89.5 -32l92.5 -35l112 -42.5l147.5 -55.5l199 -72.5zM318.999 -354.001l160 160l160 -162l-160 -160z
M735.999 -356.001l162 160l160 -162l-160 -160zM536.999 -636.001l148 148l150 -150l-148 -148z" />
    <glyph glyph-name="uni0686.medi" unicode="&#x686;" horiz-adv-x="1529" arabic-form="medial" 
d="M1199 285c7.33301 -20.667 18.332 -36.3311 32.999 -46.998c14.667 -11.333 30 -19.5 46 -24.5s31 -7.83301 45 -8.5s24 -1 30 -1h191v-219h-191c-51.333 0 -99 7.5 -143 22.5s-83.333 36.833 -118 65.5v1c-36 29.333 -64.667 65.666 -86 108.999
c-4.66699 -2 -9.66699 -4.33301 -15 -7c-69.333 -33.333 -143.666 -64.166 -222.999 -92.499s-162.166 -51.833 -248.499 -70.5s-172.5 -28 -258.5 -28h-288v219h288c46.667 0 95 3.33301 145 10s99.833 15.834 149.5 27.501s98.834 25.167 147.501 40.5
s95.5 31.666 140.5 48.999s87.167 35.166 126.5 53.499s74.666 36.5 105.999 54.5l-499 175c-30 8.66699 -56.667 13.167 -80 13.5s-44 -3.83398 -62 -12.501s-33.667 -22.334 -47 -41.001s-25.333 -42.334 -36 -71.001l-202 61c14 44.667 33 87.334 57 128.001
s53.667 74.834 89 102.501s76.666 46.167 123.999 55.5c14.667 2.66699 30 4 46 4c35.333 0 74 -6.66699 116 -20l101.5 -33.5l89.5 -32l92.5 -35l112 -42.5l147.5 -55.5l199 -72.5l27 -184l-53 -34c-26 -17.333 -59 -37.333 -99 -60zM327.999 -354.997l160 160l160 -162
l-160 -160zM744.999 -356.997l162 160l160 -162l-160 -160zM545.999 -636.997l148 148l150 -150l-148 -148z" />
    <glyph glyph-name="uni0688.fina" unicode="&#x688;" horiz-adv-x="1238" arabic-form="final" 
d="M1255 204v-219h-25c-98 0 -189.333 39.333 -274 118c-21.333 -25.333 -48 -47 -80 -65c-48.667 -27.333 -109.334 -46 -182.001 -56c-24.667 -4 -50.167 -6.83301 -76.5 -8.5s-53.166 -2.5 -80.499 -2.5c-40.667 0 -80.334 2 -119.001 6
c-19.333 2 -40.166 4.66699 -62.499 8s-45.5 8 -69.5 14s-47.833 13.5 -71.5 22.5s-46.167 19.5 -67.5 31.5l-95 54l109 190l95 -54c16 -9.33301 34.667 -17.333 56 -24s44.333 -12.167 69 -16.5s50.334 -7.5 77.001 -9.5s53.334 -3 80.001 -3
c48 0 91.167 2.16699 129.5 6.5s68.5 12.5 90.5 24.5s34.333 29 37 51v7c0 21.333 -10 48 -30 80l-143 219l-106 159.5l-63 93.5c-10.667 15.333 -16 23.333 -16 24l1 -1l-60 92l183 120l61 -92l24 -36l64 -98.5l97.5 -147.5l122.5 -184l65 -96
c24 -35.333 49.167 -68.333 75.5 -99s53.166 -56.5 80.499 -77.5s53.666 -31.5 78.999 -31.5h25zM257 1243l-0.000976562 94.998h102c7.33301 12 14.833 23.5 22.5 34.5s15.167 22.5 22.5 34.5v489h93v-354c25.333 28.667 52.833 52.334 82.5 71.001s62.834 28 99.501 28
c22 0 44 -4.16699 66 -12.5s41.5 -21.166 58.5 -38.499s30.833 -39.333 41.5 -66s16 -58 16 -94c0 -34.667 -5.83301 -64 -17.5 -88s-26.5 -43.333 -44.5 -58s-38 -25.167 -60 -31.5s-43.667 -9.5 -65 -9.5h-417zM678.999 1546c-19.333 0 -38.332 -6.5 -56.999 -19.5
s-36.834 -29.5 -54.501 -49.5s-34.5 -42.333 -50.5 -67l-45 -72h202c26 0 47.667 7.33301 65 22s26 38 26 70c0 37.333 -7.33301 66 -22 86s-36 30 -64 30z" />
    <glyph glyph-name="uni0698.fina" unicode="&#x698;" horiz-adv-x="910" arabic-form="final" 
d="M925 -15h-20.999c-29.333 0 -57 2.33301 -83 7s-52.333 18 -79 40c-4 -89.333 -20.5 -170 -49.5 -242s-69.333 -133.333 -121 -184s-113.834 -89.667 -186.501 -117s-155 -41 -247 -41h-138v219h138c66.667 0 124.167 7 172.5 21s88.166 36.167 119.499 66.5
s54.666 70 69.999 119s23 108.5 23 178.5v624h219v-314c0 -34 7.16699 -61.333 21.5 -82s30.833 -36.667 49.5 -48s36.834 -18.833 54.501 -22.5s29.834 -5.5 36.501 -5.5h21v-219zM504.001 1082l-160 -162l-160 160l160 162zM933.001 1086l-158 -160l-165 158l162 162z
M712.001 1368l-150 -150l-148 148l150 150z" />
    <glyph glyph-name="uni0691.fina" unicode="&#x691;" horiz-adv-x="910" arabic-form="final" 
d="M925 -15h-20.999c-29.333 0 -57 2.33301 -83 7s-52.333 18 -79 40c-4 -89.333 -20.5 -170 -49.5 -242s-69.333 -133.333 -121 -184s-113.834 -89.667 -186.501 -117s-155 -41 -247 -41h-138v219h138c66.667 0 124.167 7 172.5 21s88.166 36.167 119.499 66.5
s54.666 70 69.999 119s23 108.5 23 178.5v624h219v-314c0 -34 7.16699 -61.333 21.5 -82s30.833 -36.667 49.5 -48s36.834 -18.833 54.501 -22.5s29.834 -5.5 36.501 -5.5h21v-219zM306.001 882l-0.000976562 94.998h102c7.33301 12 14.833 23.5 22.5 34.5
s15.167 22.5 22.5 34.5v489h93v-354c25.333 28.667 52.833 52.334 82.5 71.001s62.834 28 99.501 28c22 0 44 -4.16699 66 -12.5s41.5 -21.166 58.5 -38.499s30.833 -39.333 41.5 -66s16 -58 16 -94c0 -34.667 -5.83301 -64 -17.5 -88s-26.5 -43.333 -44.5 -58
s-38 -25.167 -60 -31.5s-43.667 -9.5 -65 -9.5h-417zM728 1185c-19.333 0 -38.332 -6.5 -56.999 -19.5s-36.834 -29.5 -54.501 -49.5s-34.5 -42.333 -50.5 -67l-45 -72h202c26 0 47.667 7.33301 65 22s26 38 26 70c0 37.333 -7.33301 66 -22 86s-36 30 -64 30z" />
    <glyph glyph-name="uni06A9.fina" unicode="&#x6a9;" horiz-adv-x="2183" arabic-form="final" 
d="M1230 204c35.333 0 68.998 2.83398 100.998 8.50098s61 13.334 87 23.001s48.333 21.334 67 35.001s33 28.5 43 44.5c3.33301 7.33301 6 15.666 8 24.999s3 18.666 3 27.999c0 26.667 -8.16699 58.167 -24.5 94.5s-37.5 73.166 -63.5 110.499l-139.5 186l-106.5 142
l-93 122l41 153l931 427l90 -200l-803 -368l60 -85.5l65.5 -91.5l85.5 -115.5l120 -157.5l99 -134c28.667 -38.667 55.167 -72.167 79.5 -100.5s47.5 -51.833 69.5 -70.5s44.5 -33.667 67.5 -45s47.833 -19.333 74.5 -24s57 -7 91 -7h24v-219h-24
c-58.667 0 -110.5 5.33301 -155.5 16s-85.667 26 -122 46s-69.833 44.167 -100.5 72.5s-61 59.833 -91 94.5c-19.333 -36 -47 -69.667 -83 -101s-76.333 -56.666 -121 -75.999c-40 -17.333 -84.667 -30.333 -134 -39s-100.333 -13 -153 -13h-784
c-48.667 0 -94.667 8.33301 -138 25s-82 40.667 -116 72c-13.333 12.667 -27.166 28 -41.499 46s-27.166 39.167 -38.499 63.5s-20.666 52 -27.999 83s-11 65.833 -11 104.5c0 34 3.5 71.167 10.5 111.5s14.667 78.666 23 114.999s16.5 67.666 24.5 93.999s13 42.5 15 48.5
l104 -33l105 -33c-4.66699 -14 -10.5 -33.5 -17.5 -58.5s-13.833 -52 -20.5 -81s-12.5 -58.167 -17.5 -87.5s-7.5 -54.666 -7.5 -75.999c0 -40.667 6.5 -72.667 19.5 -96s28 -40.833 45 -52.5s34.167 -19 51.5 -22s30.666 -4.5 39.999 -4.5h789z" />
    <glyph glyph-name="uni06A9.init" unicode="&#x6a9;" horiz-adv-x="1169" arabic-form="initial" 
d="M-29 -15v219.002h597c12 0 27.667 0.666992 47 2s38.166 4.5 56.499 9.5s34.333 12.833 48 23.5s20.5 25 20.5 43c0 29.333 -11.333 64.666 -34 105.999s-51.834 85.166 -87.501 131.499s-75.5 93.333 -119.5 141s-87.5 92.5 -130.5 134.5s-83.333 79.167 -121 111.5
s-67.5 56.5 -89.5 72.5l18 209l905 399l79 -190l-767 -338l84.5 -83l99 -100.5l103 -111.5c34.333 -38.667 66.666 -77.167 96.999 -115.5s57.333 -76 81 -113s41.834 -71.833 54.501 -104.5c10.667 -27.333 18.334 -53.5 23.001 -78.5s7 -47.833 7 -68.5
c0 -25.333 -2.5 -47.5 -7.5 -66.5s-10.167 -35.167 -15.5 -48.5c-8 -17.333 -20 -36.666 -36 -57.999s-38.167 -41.333 -66.5 -60s-64.166 -34.334 -107.499 -47.001s-96 -19 -158 -19h-580z" />
    <glyph glyph-name="uni06A9.medi" unicode="&#x6a9;" horiz-adv-x="1244" arabic-form="medial" 
d="M1262 -15l-30.0049 -0.00292969c-58.667 0 -109.667 5.83301 -153 17.5s-82.333 28 -117 49s-66.667 46 -96 75s-59.333 60.833 -90 95.5c-9.33301 -18 -21.166 -36 -35.499 -54s-30.166 -35 -47.499 -51s-36.333 -30.833 -57 -44.5s-42 -25.5 -64 -35.5
c-40 -17.333 -84.667 -30.333 -134 -39s-100.333 -13 -153 -13h-309v219h323c35.333 0 69.333 2.83301 102 8.5s62.334 13.334 89.001 23.001s49.834 21.334 69.501 35.001s34.5 28.5 44.5 44.5c3.33301 7.33301 6 15.833 8 25.5s3 19.167 3 28.5c0 20 -7 45.167 -21 75.5
s-32.667 63.833 -56 100.5s-50 75.167 -80 115.5l-92.5 120l-94 114l-84.5 97.5l39 188l900 415l90 -201l-788 -363l386 -516l104 -134c31.333 -38.667 62.833 -71.167 94.5 -97.5s64.834 -46.166 99.501 -59.499s74.667 -20 120 -20h30v-219z" />
    <glyph glyph-name="uni06AF.fina" unicode="&#x6af;" horiz-adv-x="2183" arabic-form="final" 
d="M1228 204c35.333 0 68.998 2.83398 100.998 8.50098s61 13.334 87 23.001s48.333 21.334 67 35.001s33 28.5 43 44.5c3.33301 7.33301 6 15.666 8 24.999s3 18.666 3 27.999c0 26.667 -8.16699 58.167 -24.5 94.5s-37.5 73.166 -63.5 110.499l-139.5 186l-106.5 142
l-93 122l41 153l931 427l90 -200l-803 -368l60 -85.5l65.5 -91.5l85.5 -115.5l120 -157.5l99 -134c28.667 -38.667 55.167 -72.167 79.5 -100.5s47.5 -51.833 69.5 -70.5s44.5 -33.667 67.5 -45s47.833 -19.333 74.5 -24s57 -7 91 -7h24v-219h-24
c-58.667 0 -110.5 5.33301 -155.5 16s-85.667 26 -122 46s-69.833 44.167 -100.5 72.5s-61 59.833 -91 94.5c-19.333 -36 -47 -69.667 -83 -101s-76.333 -56.666 -121 -75.999c-40 -17.333 -84.667 -30.333 -134 -39s-100.333 -13 -153 -13h-784
c-48.667 0 -94.667 8.33301 -138 25s-82 40.667 -116 72c-13.333 12.667 -27.166 28 -41.499 46s-27.166 39.167 -38.499 63.5s-20.666 52 -27.999 83s-11 65.833 -11 104.5c0 34 3.5 71.167 10.5 111.5s14.667 78.666 23 114.999s16.5 67.666 24.5 93.999s13 42.5 15 48.5
l104 -33l105 -33c-4.66699 -14 -10.5 -33.5 -17.5 -58.5s-13.833 -52 -20.5 -81s-12.5 -58.167 -17.5 -87.5s-7.5 -54.666 -7.5 -75.999c0 -40.667 6.5 -72.667 19.5 -96s28 -40.833 45 -52.5s34.167 -19 51.5 -22s30.666 -4.5 39.999 -4.5h789zM1230 1485l752 326l46 -100
l-810 -353z" />
    <glyph glyph-name="uni06AF.init" unicode="&#x6af;" horiz-adv-x="1169" arabic-form="initial" 
d="M-29 -15v219.002h597c12 0 27.667 0.666992 47 2s38.166 4.5 56.499 9.5s34.333 12.833 48 23.5s20.5 25 20.5 43c0 29.333 -11.333 64.666 -34 105.999s-51.834 85.166 -87.501 131.499s-75.5 93.333 -119.5 141s-87.5 92.5 -130.5 134.5s-83.333 79.167 -121 111.5
s-67.5 56.5 -89.5 72.5l18 209l905 399l79 -190l-767 -338l84.5 -83l99 -100.5l103 -111.5c34.333 -38.667 66.666 -77.167 96.999 -115.5s57.333 -76 81 -113s41.834 -71.833 54.501 -104.5c10.667 -27.333 18.334 -53.5 23.001 -78.5s7 -47.833 7 -68.5
c0 -25.333 -2.5 -47.5 -7.5 -66.5s-10.167 -35.167 -15.5 -48.5c-8 -17.333 -20 -36.666 -36 -57.999s-38.167 -41.333 -66.5 -60s-64.166 -34.334 -107.499 -47.001s-96 -19 -158 -19h-580zM209 1494l752 326l46 -100l-810 -353z" />
    <glyph glyph-name="uni06AF.medi" unicode="&#x6af;" horiz-adv-x="1244" arabic-form="medial" 
d="M1262 -15l-30.0049 -0.00292969c-58.667 0 -109.667 5.83301 -153 17.5s-82.333 28 -117 49s-66.667 46 -96 75s-59.333 60.833 -90 95.5c-9.33301 -18 -21.166 -36 -35.499 -54s-30.166 -35 -47.499 -51s-36.333 -30.833 -57 -44.5s-42 -25.5 -64 -35.5
c-40 -17.333 -84.667 -30.333 -134 -39s-100.333 -13 -153 -13h-309v219h323c35.333 0 69.333 2.83301 102 8.5s62.334 13.334 89.001 23.001s49.834 21.334 69.501 35.001s34.5 28.5 44.5 44.5c3.33301 7.33301 6 15.833 8 25.5s3 19.167 3 28.5c0 20 -7 45.167 -21 75.5
s-32.667 63.833 -56 100.5s-50 75.167 -80 115.5l-92.5 120l-94 114l-84.5 97.5l39 188l900 415l90 -201l-788 -363l386 -516l104 -134c31.333 -38.667 62.833 -71.167 94.5 -97.5s64.834 -46.166 99.501 -59.499s74.667 -20 120 -20h30v-219zM257.995 1484l752 326l46 -100
l-810 -353z" />
    <glyph glyph-name="uni06BA.fina" unicode="&#x6ba;" horiz-adv-x="1680" arabic-form="final" 
d="M686 -553c-52 0 -102.169 6.00293 -150.502 18.0029s-93.666 29.5 -135.999 52.5s-81.5 51 -117.5 84s-67.333 70.5 -94 112.5c-31.333 51.333 -55.5 105.333 -72.5 162s-25.5 119 -25.5 187c0 87.333 13.167 177.666 39.5 270.999s65.5 194.333 117.5 303l197 -94
c-46 -94 -80.333 -179.667 -103 -257s-34 -151.333 -34 -222c0 -48.667 5.5 -91.334 16.5 -128.001s27.5 -72.334 49.5 -107.001c33.333 -52 76.833 -92.167 130.5 -120.5s114.5 -42.5 182.5 -42.5h207c74 0 134.167 6.83301 180.5 20.5s82.333 33.667 108 60
s43.167 58.5 52.5 96.5s14 81.333 14 130v703h219v-326c1.33301 -48.667 16.833 -85.167 46.5 -109.5s68.834 -36.5 117.501 -36.5h69v-219h-69c-28 0 -56.333 1.5 -85 4.5s-55 13.167 -79 30.5v-47c0 -180 -48.167 -312.667 -144.5 -398s-239.5 -128 -429.5 -128h-207z" />
    <glyph glyph-name="uni06C0.fina" unicode="&#x6c0;" horiz-adv-x="1258" arabic-form="final" 
d="M1274 -15l-44.0029 0.00195312c-52 0 -102.167 5.5 -150.5 16.5s-92.833 27.333 -133.5 49s-76.834 48.667 -108.501 81s-56.5 69.833 -74.5 112.5c-16 -30 -37.167 -55.833 -63.5 -77.5s-57.166 -39.834 -92.499 -54.501c-44.667 -18.667 -89 -29.667 -133 -33
c-13.333 -1.33301 -26.666 -2 -39.999 -2c-30 0 -62.333 4 -97 12s-69.5 23 -104.5 45s-65.5 49.333 -91.5 82s-46.333 70.167 -61 112.5s-22 88.833 -22 139.5c0 70.667 13.833 134.334 41.5 191.001s64.334 106.667 110.001 150s98.167 80.5 157.5 111.5
s120.666 56.5 183.999 76.5c-3.33301 17.333 -6.66602 33.5 -9.99902 48.5s-6.33301 30.5 -9 46.5l210 50l178 -719c12 -48 30.5 -86.333 55.5 -115s52.333 -50.834 82 -66.501s59.834 -25.834 90.501 -30.501s58 -7 82 -7h44v-219zM656.997 471.002
c2.66699 14.667 4 29.666 4 44.999c0 10.667 -1.16699 25.167 -3.5 43.5s-6.5 41 -12.5 68s-12.667 53.833 -20 80.5s-13.666 52.667 -18.999 78c-113.333 -35.333 -200.333 -80.333 -261 -135s-91 -116 -91 -184c0 -35.333 8.5 -65 25.5 -89s38.5 -42.5 64.5 -55.5
s55 -20.167 87 -21.5h10c28 0 55 4.66699 81 14c38 16 68.167 35.833 90.5 59.5s37.166 55.834 44.499 96.501zM709.997 1907c13.333 0 27.6689 -0.829102 43.002 -2.49609s31.666 -4.83398 48.999 -9.50098l-29 -109c-11.333 3.33301 -22.166 5.5 -32.499 6.5
s-20.166 1.5 -29.499 1.5c-35.333 0 -64.333 -9.33301 -87 -28c-24.667 -20.667 -39.667 -50.334 -45 -89.001l89 -15.5c22 -3.66699 39.667 -7.16699 53 -10.5c11.333 -3.33301 20.666 -6.33301 27.999 -9s13.666 -6 18.999 -10c20 -13.333 30 -32.666 30 -57.999
c0 -6 -0.166992 -13.667 -0.5 -23s-1.5 -19.833 -3.5 -31.5s-5.33301 -23.834 -10 -36.501s-11.334 -25 -20.001 -37c-38.667 -56.667 -106.667 -85 -204 -85h-109v112h109c24 0 43.833 2 59.5 6s28 9.33301 37 16s15.5 14.167 19.5 22.5s6.66699 16.833 8 25.5
c-16.667 3.33301 -39.667 7.66602 -69 12.999l-103 18l-43 7l-4 43c-0.666992 8.66699 -1 17 -1 25c0 36.667 6.83301 73.167 20.5 109.5s36.167 67.833 67.5 94.5c16 13.333 36.833 25.666 62.5 36.999s57.5 17 95.5 17z" />
    <glyph glyph-name="uni06C1.fina" unicode="&#x6c1;" horiz-adv-x="1299" arabic-form="final" 
d="M1317 -15l-72.9971 0.00585938c-50 0 -101.833 6.66699 -155.5 20s-104.334 35 -152.001 65s-90.167 69.167 -127.5 117.5s-64.333 107.166 -81 176.499l-33.5 131.5l-31 115l-32 116.5c-11 40 -22.5 85.667 -34.5 137l-104 -22
c-66.667 -17.333 -111.334 -46 -134.001 -86c-10.667 -18.667 -18.334 -39.667 -23.001 -63s-7 -49 -7 -77c0 -22 2.83301 -49.833 8.5 -83.5s13.667 -71.834 24 -114.501s22.333 -88.834 36 -138.501l44.5 -156.5l-211 -59l-47 169c-14.667 53.333 -27.334 103 -38.001 149
s-19.167 88.667 -25.5 128s-9.5 74.666 -9.5 105.999c0 45.333 4.5 89 13.5 131s24.167 81 45.5 117c28 48 64.5 88 109.5 120s98.833 55.333 161.5 70c13.333 3.33301 32.166 7.66602 56.499 12.999l73 15.5c24.333 5 45.833 9.16699 64.5 12.5s29 5 31 5l120 -78
c14.667 -64 28.667 -122.167 42 -174.5l38.5 -148.5l36.5 -137.5l37 -141.5c12.667 -45.333 31.334 -82 56.001 -110s51.667 -49.833 81 -65.5s58.833 -26.334 88.5 -32.001s55.834 -8.5 78.501 -8.5h73v-219z" />
    <glyph glyph-name="uni06C1.init" unicode="&#x6c1;" horiz-adv-x="736" arabic-form="initial" 
d="M486 -612c-0.666992 -19.333 -5.49707 -36.998 -14.4971 -52.998s-20.833 -30 -35.5 -42s-31 -21.333 -49 -28s-36.333 -10 -55 -10c-28.667 0 -53.834 5.5 -75.501 16.5s-39.667 26 -54 45s-25.166 40.667 -32.499 65s-11 50.166 -11 77.499
c0 71.333 21.667 139.666 65 204.999s102.666 123.666 177.999 174.999l53 -80c-18.667 -12 -37.5 -26.333 -56.5 -43s-36.333 -34.167 -52 -52.5s-28.667 -36.666 -39 -54.999s-15.833 -34.833 -16.5 -49.5v-5c0 -13.333 4.5 -24.833 13.5 -34.5s25.5 -15.167 49.5 -16.5
c19.333 -2.66699 36.666 -6.5 51.999 -11.5s28.666 -11.833 39.999 -20.5s20.333 -19.667 27 -33s11 -30 13 -50zM551.003 818.002c1.33301 -4 3.99902 -14.833 7.99902 -32.5l14.5 -65.5c5.66699 -26 11.334 -54.667 17.001 -86s11 -62.833 16 -94.5
s9.16699 -62.334 12.5 -92.001s5 -55.5 5 -77.5c0 -66 -11 -123.333 -33 -172s-50.5 -88.667 -85.5 -120s-74.5 -54.666 -118.5 -69.999s-88 -23 -132 -23h-270v219h277c8.66699 0 21.5 1.33301 38.5 4s33.833 9.5 50.5 20.5s31.167 27.5 43.5 49.5s18.5 52.667 18.5 92
c0 14.667 -1.33301 33 -4 55s-6 45.667 -10 71s-8.66699 51.333 -14 78l-15.5 75c-5 23.333 -9.83301 44.333 -14.5 63l-11 43z" />
    <glyph glyph-name="uni06C1.medi" unicode="&#x6c1;" horiz-adv-x="1200" arabic-form="medial" 
d="M427 22c2 -36.667 9.32812 -77.3369 21.9951 -122.004s29.334 -89 50.001 -133s44.667 -85.333 72 -124s57 -70 89 -94c-10 46 -15 94 -15 144v9c0 47.333 4.66699 94.333 14 141s24 91.834 44 135.501s45.167 82 75.5 115s65.833 59.5 106.5 79.5s86.667 30.333 138 31
h199v-219h-196c-27.333 -11.333 -52.166 -27.666 -74.499 -48.999s-41.5 -46 -57.5 -74s-28.5 -58.5 -37.5 -91.5s-13.5 -66.833 -13.5 -101.5v-51.5c0 -16.333 1.16699 -32.333 3.5 -48s6.5 -31.5 12.5 -47.5s15 -32.667 27 -50l-86 -165
c-61.333 0.666992 -117.666 10.334 -168.999 29.001s-97.833 44 -139.5 76s-78.667 69.5 -111 112.5s-60.166 89.5 -83.499 139.5s-42.166 102.333 -56.499 157s-24.5 109.334 -30.5 164.001h-232v219h441z" />
    <glyph glyph-name="uni06BE.fina" unicode="&#x6be;" horiz-adv-x="1744" arabic-form="final" 
d="M1052 1141l185.005 -197.996l74 -84l70.5 -84c22.333 -27.333 42.5 -53.333 60.5 -78s32.333 -46.334 43 -65.001c24.667 -40 41.667 -80.833 51 -122.5s14 -82.5 14 -122.5c0 -18 -2.33301 -39.333 -7 -64s-9.66699 -47.334 -15 -68.001l-8.5 -26.5
c-3 -9 -6.16699 -17.167 -9.5 -24.5h270v-219l-645 1c-22 0 -48.333 2 -79 6s-62.5 9.5 -95.5 16.5s-65.5 15.5 -97.5 25.5s-60.333 21.333 -85 34c-32 -10 -71.5 -19.833 -118.5 -29.5s-97.5 -18.334 -151.5 -26.001s-109.167 -14 -165.5 -19s-109.833 -7.5 -160.5 -7.5
l43 218l281 32c-25.333 19.333 -47.5 42.166 -66.5 68.499s-35 54.5 -48 84.5s-22.833 61 -29.5 93s-10 63.333 -10 94c0 52.667 9.66699 101.5 29 146.5s46.166 83.833 80.499 116.5s75 58.167 122 76.5s98.167 27.5 153.5 27.5c41.333 0 79.5 -5.83301 114.5 -17.5
s66.667 -27.5 95 -47.5s53.166 -43 74.499 -69s39.166 -53 53.499 -81s25.166 -56.333 32.499 -85s11 -55.667 11 -81c0 -66.667 -11.667 -127.167 -35 -181.5s-58 -102.5 -104 -144.5c24 -8.66699 49.667 -15.667 77 -21s53.666 -8 78.999 -8c18.667 0 37 1.66699 55 5
s34.833 9.16602 50.5 17.499s30.167 19.333 43.5 33s25 30.5 35 50.5c8 16.667 12 34.334 12 53.001c0 34 -9.33301 72.5 -28 115.5s-44.167 88.167 -76.5 135.5s-70 95.833 -113 145.5s-88.833 98.5 -137.5 146.5l-82 79zM570.005 576.004
c0 -26.667 3.16699 -50.499 9.5 -71.499s16.833 -40.5 31.5 -58.5s33.334 -35.167 56.001 -51.5s50.667 -33.166 84 -50.499c45.333 21.333 81.333 50.166 108 86.499s40 80.166 40 131.499c0 30.667 -6 56.5 -18 77.5s-26.5 38 -43.5 51s-34.667 22.333 -53 28
s-34.166 8.5 -47.499 8.5c-24.667 0 -47.334 -3.66699 -68.001 -11s-38.334 -17.833 -53.001 -31.5s-26 -29.667 -34 -48s-12 -38.5 -12 -60.5z" />
    <glyph glyph-name="uni06BE.init" unicode="&#x6be;" horiz-adv-x="1482" arabic-form="initial" 
d="M933 1080l157.005 -207.003l64 -85l63.5 -82.5l56.5 -73l43 -55.5c21.333 -27.333 38.5 -57.5 51.5 -90.5s22.167 -66.5 27.5 -100.5c2.66699 -22 4 -43.667 4 -65c0 -12.667 -0.833008 -30.5 -2.5 -53.5s-7.16699 -48.833 -16.5 -77.5
c-12.667 -38.667 -31.334 -74 -56.001 -106s-54.834 -59.667 -90.501 -83s-76.5 -41.333 -122.5 -54s-96.333 -19 -151 -19c-46.667 0 -95.167 4.83301 -145.5 14.5s-101.5 27.5 -153.5 53.5c-13.333 5.33301 -26 11 -38 17c-10.667 4.66699 -21.5 9.66699 -32.5 15
s-20.167 10 -27.5 14c-126 -38 -283.333 -57 -472 -57h-112v219h112c38 0 73.5 0.333008 106.5 1s65.833 2.66699 98.5 6c-40 40.667 -71.333 85.5 -94 134.5s-34 104.167 -34 165.5c0 52.667 10.167 101 30.5 145s48.166 81.667 83.499 113s77 55.833 125 73.5
s99.667 26.5 155 26.5c41.333 0 79.666 -5.66699 114.999 -17s67.5 -26.666 96.5 -45.999s54.5 -41.666 76.5 -66.999s40.5 -51.833 55.5 -79.5s26.333 -55.667 34 -84s11.5 -55.166 11.5 -80.499c0 -66.667 -13 -126.834 -39 -180.501s-62 -101.5 -108 -143.5
c24 -8.66699 49.667 -16 77 -22s53.666 -9 78.999 -9c22 0 45 1.83301 69 5.5s46.667 10.334 68 20.001s40.5 22.834 57.5 39.501s29.833 38 38.5 64c3.33301 10.667 5 22 5 34c0 23.333 -8.16699 53.666 -24.5 90.999s-45 84.833 -86 142.5s-89.833 121.167 -146.5 190.5
l-181 223zM375.005 510.997c0 -53.333 16.666 -99.999 49.999 -139.999s83.333 -77.667 150 -113c22.667 10.667 44.334 24 65.001 40s39 34.167 55 54.5s28.833 42.333 38.5 66s14.5 48.167 14.5 73.5c0 30.667 -6.5 57.5 -19.5 80.5s-29 42.167 -48 57.5
s-39.167 26.666 -60.5 33.999s-40.333 11 -57 11c-24.667 0 -48.334 -4.5 -71.001 -13.5s-42.667 -21 -60 -36s-31.166 -32.333 -41.499 -52s-15.5 -40.5 -15.5 -62.5z" />
    <glyph glyph-name="uni06BE.medi" unicode="&#x6be;" horiz-adv-x="1280" arabic-form="medial" 
d="M610 854c60 0 113.668 -8.17578 161.001 -24.5088s87.5 -40.333 120.5 -72s58.167 -70.5 75.5 -116.5s26 -98.667 26 -158c0 -35.333 -5.5 -72.5 -16.5 -111.5s-31.5 -77.333 -61.5 -115s-71.833 -73.5 -125.5 -107.5s-122.834 -63.667 -207.501 -89h1
c-27.333 -9.33301 -57.166 -17.166 -89.499 -23.499s-62.5 -11.833 -90.5 -16.5c8.66699 -37.333 24.667 -74.666 48 -111.999s50.666 -72.666 81.999 -105.999s65.5 -63.666 102.5 -90.999s73.5 -49.333 109.5 -66c-5.33301 10.667 -10.666 23.334 -15.999 38.001
s-10.166 30.167 -14.499 46.5s-7.83301 32.5 -10.5 48.5s-4 30.333 -4 43c0 22 1.66699 43.833 5 65.5s8.66602 41.834 15.999 60.501c14.667 38.667 34.5 73.834 59.5 105.501s53.833 58.834 86.5 81.501s68.167 40 106.5 52s78.5 18 120.5 18h191v-219h-199
c-38.667 0 -72.834 -10.167 -102.501 -30.5s-51.167 -48.166 -64.5 -83.499c-8 -22 -12 -44 -12 -66c0 -33.333 6.5 -68.333 19.5 -105s36.5 -70 70.5 -100l-68 -166c-99.333 0 -190.5 15.833 -273.5 47.5s-156 73.5 -219 125.5s-114.833 111.5 -155.5 178.5
s-68 136.167 -82 207.5c-40 -3.33301 -80 -5.5 -120 -6.5s-78 -1.5 -114 -1.5v219c28 0 61.667 0.5 101 1.5s81 3.16699 125 6.5c4 80.667 10.833 151.5 20.5 212.5s23.5 115.833 41.5 164.5c20.667 56 45.334 101.333 74.001 136s59 61.5 91 80.5s64.667 31.833 98 38.5
s64.666 10 93.999 10zM610.001 635.991c-22 0 -44.498 -3.99805 -67.498 -11.998s-44.167 -25.5 -63.5 -52.5s-36.333 -66.667 -51 -119s-24.334 -122.833 -29.001 -211.5l63.5 11.5c23 4.33301 42.5 9.16602 58.5 14.499c61.333 19.333 110.5 39.833 147.5 61.5
s65.333 42.5 85 62.5s32.667 38.167 39 54.5s9.5 29.166 9.5 38.499c0 28 -5.33301 51.667 -16 71s-24.834 35 -42.501 47s-38.167 20.667 -61.5 26s-47.333 8 -72 8z" />
    <glyph glyph-name="uni06D2.fina" unicode="&#x6d2;" horiz-adv-x="1339" arabic-form="final" 
d="M1313 -349v-218h-814c-58 0 -112 9.33301 -162 28s-93.333 45.167 -130 79.5s-65.334 75.833 -86.001 124.5s-31 103 -31 163c0 52.667 11.333 102 34 148s52.834 85.833 90.501 119.5s81.167 60.167 130.5 79.5s100.666 29 153.999 29h855v-219h-847
c-26.667 0 -52.667 -4.16699 -78 -12.5s-47.666 -20 -66.999 -35s-35 -32.833 -47 -53.5s-18 -43.334 -18 -68.001s5.83301 -47.167 17.5 -67.5s27 -37.666 46 -51.999s40.5 -25.5 64.5 -33.5s48.667 -12 74 -12h814z" />
    <glyph glyph-name="uni06D3.fina" unicode="&#x6d3;" horiz-adv-x="1339" arabic-form="final" 
d="M1313 -349v-218h-814c-58 0 -112 9.33301 -162 28s-93.333 45.167 -130 79.5s-65.334 75.833 -86.001 124.5s-31 103 -31 163c0 52.667 11.333 102 34 148s52.834 85.833 90.501 119.5s81.167 60.167 130.5 79.5s100.666 29 153.999 29h855v-219h-847
c-26.667 0 -52.667 -4.16699 -78 -12.5s-47.666 -20 -66.999 -35s-35 -32.833 -47 -53.5s-18 -43.334 -18 -68.001s5.83301 -47.167 17.5 -67.5s27 -37.666 46 -51.999s40.5 -25.5 64.5 -33.5s48.667 -12 74 -12h814zM199 292l0.000976562 132.998l118 35
c-22.667 20.667 -41.167 44.334 -55.5 71.001s-21.5 55.334 -21.5 86.001c0 22 3.83301 43.833 11.5 65.5s18.167 41.5 31.5 59.5s29.333 33.5 48 46.5s38.667 22.5 60 28.5h-1c11.333 3.33301 22.5 5.83301 33.5 7.5s22.167 2.5 33.5 2.5c25.333 0 48.333 -3.5 69 -10.5
s40.667 -14.167 60 -21.5l-27 -110c-17.333 4 -34.333 8.16699 -51 12.5s-33 6.5 -49 6.5c-10 0 -20 -1.66699 -30 -5c-10 -4 -19.833 -9.16699 -29.5 -15.5s-17.834 -13.833 -24.501 -22.5s-11 -18.334 -13 -29.001c-1.33301 -4 -2 -8.33301 -2 -13
c0 -7.33301 1.33301 -14.666 4 -21.999c6 -18.667 19.5 -34.5 40.5 -47.5s49.833 -19.5 86.5 -19.5c6.66699 0 14.167 0.333008 22.5 1s19 2.5 32 5.5s29.167 7 48.5 12s43.333 12.167 72 21.5l8 -126z" />
    <glyph glyph-name="uni0649.init" unicode="&#x649;" horiz-adv-x="679" arabic-form="initial" 
d="M541 818c1.33301 -4 3.99902 -14.833 7.99902 -32.5l14.5 -65.5c5.66699 -26 11.334 -54.667 17.001 -86s11 -62.833 16 -94.5s9.16699 -62.334 12.5 -92.001s5 -55.5 5 -77.5c0 -66 -11 -123.333 -33 -172s-50.5 -88.667 -85.5 -120s-74.5 -54.666 -118.5 -69.999
s-88 -23 -132 -23h-270v219h277c8.66699 0 21.5 1.33301 38.5 4s33.833 9.5 50.5 20.5s31.167 27.5 43.5 49.5s18.5 52.667 18.5 92c0 14.667 -1.33301 33 -4 55s-6 45.667 -10 71s-8.66699 51.333 -14 78l-15.5 75c-5 23.333 -9.83301 44.333 -14.5 63l-11 43z" />
    <glyph glyph-name="uni0649.medi" unicode="&#x649;" horiz-adv-x="796" arabic-form="medial" 
d="M815 204l0.000976562 -219h-73c-58.667 0 -111.334 8.16699 -158.001 24.5s-85 40.5 -115 72.5c-36 -31.333 -79.833 -55.333 -131.5 -72s-110.167 -25 -175.5 -25h-183v219h183c44 0 79.167 4.33301 105.5 13s46.166 19.5 59.499 32.5s22 27.333 26 43
s6 30.834 6 45.501v339h218v-332c0 -22.667 3.5 -41.834 10.5 -57.501s15.833 -28.667 26.5 -39s22.334 -18.5 35.001 -24.5s25.167 -10.5 37.5 -13.5s23.5 -4.83301 33.5 -5.5s17.333 -1 22 -1h73z" />
    <glyph glyph-name="uni06CC.fina" unicode="&#x6cc;" horiz-adv-x="1786" arabic-form="final" 
d="M1497 -15c24 -25.333 41.8359 -51.8359 53.5029 -79.5029s17.5 -54.167 17.5 -79.5c0 -60 -16.5 -114.167 -49.5 -162.5s-77.833 -89.5 -134.5 -123.5s-122.667 -60.333 -198 -79s-155.333 -28 -240 -28h-256c-53.333 0 -104.5 6.16699 -153.5 18.5s-94.833 30 -137.5 53
s-81.834 51 -117.501 84s-67.167 70.167 -94.5 111.5c-64.667 104.667 -97 227 -97 367c0 86.667 11.833 176.334 35.5 269.001s62.167 194.334 115.5 305.001l194 -94c-22 -47.333 -41 -92.166 -57 -134.499s-29.167 -83 -39.5 -122s-17.833 -76.5 -22.5 -112.5
s-7 -71.333 -7 -106c0 -99.333 22 -184 66 -254c32 -53.333 75.667 -94 131 -122s116.666 -42 183.999 -42h256c53.333 0 103.666 5.33301 150.999 16s88.833 25 124.5 43s64.167 39.167 85.5 63.5s33 50.5 35 78.5c-19.333 22 -45 40.833 -77 56.5
s-67.833 28.5 -107.5 38.5s-82.167 17.833 -127.5 23.5s-91.333 9.5 -138 11.5l7 219h907v-219h-309z" />
    <glyph glyph-name="uni06CC.init" unicode="&#x6cc;" horiz-adv-x="892" arabic-form="initial" 
d="M721 818c1.33301 -4 3.99902 -14.833 7.99902 -32.5l14.5 -65.5c5.66699 -26 11.334 -54.667 17.001 -86s11 -62.833 16 -94.5s9.16699 -62.334 12.5 -92.001s5 -55.5 5 -77.5c0 -66 -11 -123.333 -33 -172s-50.5 -88.667 -85.5 -120s-74.5 -54.666 -118.5 -69.999
s-88 -23 -132 -23h-445v219h452c8.66699 0 21.5 1.33301 38.5 4s33.833 9.5 50.5 20.5s31.167 27.5 43.5 49.5s18.5 52.667 18.5 92c0 14.667 -1.33301 33 -4 55s-6 45.667 -10 71s-8.66699 51.333 -14 78l-15.5 75c-5 23.333 -9.83301 44.333 -14.5 63l-11 43z
M598.999 -544l-158 160l156 162l162 -162zM217.999 -542l-158 160l156 162l162 -162z" />
    <glyph glyph-name="uni06CC.medi" unicode="&#x6cc;" horiz-adv-x="1061" arabic-form="medial" 
d="M1083 204l0.000976562 -219h-160c-58.667 0 -111.334 8.16699 -158.001 24.5s-85 40.5 -115 72.5c-36 -31.333 -79.833 -55.333 -131.5 -72s-110.167 -25 -175.5 -25h-361v219h361c44 0 79.167 4.33301 105.5 13s46.166 19.5 59.499 32.5s22 27.333 26 43
s6 30.834 6 45.501v339h218v-332c0 -22.667 3.5 -41.834 10.5 -57.501s15.833 -28.667 26.5 -39s22.334 -18.5 35.001 -24.5s25.167 -10.5 37.5 -13.5s23.5 -4.83301 33.5 -5.5s17.333 -1 22 -1h160zM646.001 -550l-158 160l156 162l162 -162zM265.001 -548l-158 160
l156 162l162 -162z" />
    <glyph glyph-name="uni0651064C" unicode="&#xfc5e;" arabic-form="isolated" 
d="M-130 1686c-59.333 0 -105.83 16.5029 -139.497 49.5029s-50.5 78.833 -50.5 137.5v101h101v-101c0 -30.667 7 -52.834 21 -66.501s36.667 -20.5 68 -20.5c4.66699 0 11.167 0.833008 19.5 2.5s16.666 5.5 24.999 11.5s15.5 14.833 21.5 26.5s9 27.167 9 46.5v101h102
v-101c0 -30.667 7 -53 21 -67s37 -21 69 -21c4.66699 0 11 1 19 3s16 6.16699 24 12.5s14.833 15.166 20.5 26.499s8.5 26.666 8.5 45.999c0 10.667 -1.16699 22.5 -3.5 35.5s-5.16602 26 -8.49902 39l-9.5 36.5c-3 11.333 -5.5 20.333 -7.5 27l94 32
c0.666992 -3.33301 3 -11 7 -23s8.16699 -26.333 12.5 -43s8.16602 -34.167 11.499 -52.5s5 -35.5 5 -51.5c0 -32 -5.16699 -59.833 -15.5 -83.5s-23.833 -43.167 -40.5 -58.5s-35.5 -26.833 -56.5 -34.5s-41.833 -11.5 -62.5 -11.5c-60.667 0 -107.334 17 -140.001 51
c-17.333 -17.333 -36.833 -30 -58.5 -38s-43.834 -12 -66.501 -12zM-268.997 2204c4 7.33301 8.99902 16.999 14.999 28.999s10.833 24.833 14.5 38.5s5.33398 27.167 5.00098 40.5s-4.16602 25.333 -11.499 36c-7.33301 10 -16 16.333 -26 19
c-4.66699 1.33301 -9.66699 2 -15 2s-12 -1 -20 -3s-17.167 -5.66699 -27.5 -11s-18.833 -10.333 -25.5 -15l-64 63c2 2.66699 6.83301 7.83398 14.5 15.5c7.66699 7.66699 17.834 15.334 30.501 23c12.667 7.66699 27.667 14.5 45 20.5c14.667 4.66699 31 7 49 7h7
c24 -1.33301 45.5 -7.83301 64.5 -19.5s34.167 -28.167 45.5 -49.5c12.667 -22.667 19.667 -47.334 21 -74v-16c0 -20.667 -2 -41 -6 -61c16 4.66699 32.833 10.167 50.5 16.5s35.167 13.166 52.5 20.5c17.333 7.33301 34.166 15 50.499 23s31.5 16.333 45.5 25
c-0.666992 0 -1.33398 0.333008 -2.00098 1c-31.333 10 -58.833 23.833 -82.5 41.5s-42.5 37.5 -56.5 59.5s-22 45.667 -24 71c-0.666992 4.66699 -1 9 -1 13c0 20.667 5 40.667 15 60c10 20.667 23.667 39.834 41 57.501s36.833 31.667 58.5 42s44.5 16.5 68.5 18.5h11
c19.333 0 38.333 -4.33301 57 -13c32.667 -16 56.834 -38.333 72.501 -67s24.5 -59.667 26.5 -93l1 -17c0 -28.667 -4.83301 -59 -14.5 -91s-23.834 -62.333 -42.501 -91c-14 -21.333 -32.833 -40.833 -56.5 -58.5s-49 -33.667 -76 -48s-54.667 -27 -83 -38
s-54.5 -20.167 -78.5 -27.5s-44.667 -13 -62 -17s-28.333 -6.33301 -33 -7zM71.002 2596c-7.33301 0 -15.668 -1.33301 -25.001 -4s-18.833 -6.33398 -28.5 -11c-9.66699 -4.66699 -18.5 -10.334 -26.5 -17c-8 -6.66699 -14.333 -14 -19 -22v-6
c0 -14.667 4.5 -28.167 13.5 -40.5s21 -23.5 36 -33.5s30.833 -18.667 47.5 -26s31.334 -13.333 44.001 -18l6.5 32.5c2.33301 11.667 4.16602 23.5 5.49902 35.5c0.666992 8 1 16 1 24c0 4 -0.166992 10 -0.5 18s-2.5 17 -6.5 27c-3.33301 10 -9.16602 19.333 -17.499 28
s-18.5 13 -30.5 13z" />
    <glyph glyph-name="uni0651064D" unicode="&#xfc5f;" arabic-form="isolated" 
d="M-129 1748c-59.333 0 -105.83 16.5029 -139.497 49.5029s-50.5 78.833 -50.5 137.5v101h101v-101c0 -30.667 7 -52.834 21 -66.501s36.667 -20.5 68 -20.5c4.66699 0 11.167 0.833008 19.5 2.5s16.666 5.5 24.999 11.5s15.5 14.833 21.5 26.5s9 27.167 9 46.5v101h102
v-101c0 -30.667 7 -53 21 -67s37 -21 69 -21c4.66699 0 11 1 19 3s16 6.16699 24 12.5s14.833 15.166 20.5 26.499s8.5 26.666 8.5 45.999c0 10.667 -1.16699 22.5 -3.5 35.5s-5.16602 26 -8.49902 39l-9.5 36.5c-3 11.333 -5.5 20.333 -7.5 27l94 32
c0.666992 -3.33301 3 -11 7 -23s8.16699 -26.333 12.5 -43s8.16602 -34.167 11.499 -52.5s5 -35.5 5 -51.5c0 -32 -5.16699 -59.833 -15.5 -83.5s-23.833 -43.167 -40.5 -58.5s-35.5 -26.833 -56.5 -34.5s-41.833 -11.5 -62.5 -11.5c-60.667 0 -107.334 17 -140.001 51
c-17.333 -17.333 -36.833 -30 -58.5 -38s-43.834 -12 -66.501 -12zM-251.997 1270l490 182v-122l-490 -185v125zM-251.997 1501l490 183v-123l-490 -184v124z" />
    <glyph glyph-name="uni0651064E" unicode="&#xfc60;" arabic-form="isolated" 
d="M-130 1686c-59.333 0 -105.83 16.5029 -139.497 49.5029s-50.5 78.833 -50.5 137.5v101h101v-101c0 -30.667 7 -52.834 21 -66.501s36.667 -20.5 68 -20.5c4.66699 0 11.167 0.833008 19.5 2.5s16.666 5.5 24.999 11.5s15.5 14.833 21.5 26.5s9 27.167 9 46.5v101h102
v-101c0 -30.667 7 -53 21 -67s37 -21 69 -21c4.66699 0 11 1 19 3s16 6.16699 24 12.5s14.833 15.166 20.5 26.499s8.5 26.666 8.5 45.999c0 10.667 -1.16699 22.5 -3.5 35.5s-5.16602 26 -8.49902 39l-9.5 36.5c-3 11.333 -5.5 20.333 -7.5 27l94 32
c0.666992 -3.33301 3 -11 7 -23s8.16699 -26.333 12.5 -43s8.16602 -34.167 11.499 -52.5s5 -35.5 5 -51.5c0 -32 -5.16699 -59.833 -15.5 -83.5s-23.833 -43.167 -40.5 -58.5s-35.5 -26.833 -56.5 -34.5s-41.833 -11.5 -62.5 -11.5c-60.667 0 -107.334 17 -140.001 51
c-17.333 -17.333 -36.833 -30 -58.5 -38s-43.834 -12 -66.501 -12zM-286.997 2218l490 182v-123l-490 -184v125z" />
    <glyph glyph-name="uni0651064F" unicode="&#xfc61;" arabic-form="isolated" 
d="M-130 1686c-59.333 0 -105.83 16.5029 -139.497 49.5029s-50.5 78.833 -50.5 137.5v101h101v-101c0 -30.667 7 -52.834 21 -66.501s36.667 -20.5 68 -20.5c4.66699 0 11.167 0.833008 19.5 2.5s16.666 5.5 24.999 11.5s15.5 14.833 21.5 26.5s9 27.167 9 46.5v101h102
v-101c0 -30.667 7 -53 21 -67s37 -21 69 -21c4.66699 0 11 1 19 3s16 6.16699 24 12.5s14.833 15.166 20.5 26.499s8.5 26.666 8.5 45.999c0 10.667 -1.16699 22.5 -3.5 35.5s-5.16602 26 -8.49902 39l-9.5 36.5c-3 11.333 -5.5 20.333 -7.5 27l94 32
c0.666992 -3.33301 3 -11 7 -23s8.16699 -26.333 12.5 -43s8.16602 -34.167 11.499 -52.5s5 -35.5 5 -51.5c0 -32 -5.16699 -59.833 -15.5 -83.5s-23.833 -43.167 -40.5 -58.5s-35.5 -26.833 -56.5 -34.5s-41.833 -11.5 -62.5 -11.5c-60.667 0 -107.334 17 -140.001 51
c-17.333 -17.333 -36.833 -30 -58.5 -38s-43.834 -12 -66.501 -12zM-288.997 2177c22.667 6.66699 46.6641 14.168 71.9971 22.501s50.666 17.833 75.999 28.5s50 22.334 74 35c24 12.667 45.667 27 65 43c-31.333 8.66699 -59.666 21.667 -84.999 39
s-45.666 37.5 -60.999 60.5s-24.666 47.5 -27.999 73.5c-1.33301 6.66699 -2 13.334 -2 20c0 19.333 4.33301 38.666 13 58c10.667 21.333 25.167 41.166 43.5 59.499s38.5 32.833 60.5 43.5s45.333 16.667 70 18h7c21.333 0 42 -5.33301 62 -16
c36 -19.333 61.833 -44.333 77.5 -75s23.5 -63.667 23.5 -99c0 -36 -6.5 -72.5 -19.5 -109.5s-30.5 -71.167 -52.5 -102.5c-14.667 -20.667 -32.334 -39.5 -53.001 -56.5s-42.667 -32.5 -66 -46.5s-47.166 -26.333 -71.499 -37s-47.666 -20 -69.999 -28
s-42.833 -14.833 -61.5 -20.5l-45 -13.5zM16 2573c-8 0 -16.832 -1 -26.499 -3s-19.167 -5 -28.5 -9s-17.833 -9.16699 -25.5 -15.5s-13.834 -13.833 -18.501 -22.5c-2.66699 -3.33301 -4 -7.33301 -4 -12c0 -6 2.66699 -14.5 8 -25.5s15 -23.667 29 -38
s30.833 -27.166 50.5 -38.5c19.667 -11.333 40.167 -18 61.5 -20c4.66699 12 9 28 13 48c3.33301 15.333 5 30.333 5 45c0 5.33301 -0.5 14 -1.5 26s-6.16699 25.333 -15.5 40s-25 23 -47 25z" />
    <glyph glyph-name="uni06510650" unicode="&#xfc62;" arabic-form="isolated" 
d="M-116 1709c-59.333 0 -105.83 16.5029 -139.497 49.5029s-50.5 78.833 -50.5 137.5v101h101v-101c0 -30.667 7 -52.834 21 -66.501s36.667 -20.5 68 -20.5c4.66699 0 11.167 0.833008 19.5 2.5s16.666 5.5 24.999 11.5s15.5 14.833 21.5 26.5s9 27.167 9 46.5v101h102
v-101c0 -30.667 7 -53 21 -67s37 -21 69 -21c4.66699 0 11 1 19 3s16 6.16699 24 12.5s14.833 15.166 20.5 26.499s8.5 26.666 8.5 45.999c0 10.667 -1.16699 22.5 -3.5 35.5s-5.16602 26 -8.49902 39l-9.5 36.5c-3 11.333 -5.5 20.333 -7.5 27l94 32
c0.666992 -3.33301 3 -11 7 -23s8.16699 -26.333 12.5 -43s8.16602 -34.167 11.499 -52.5s5 -35.5 5 -51.5c0 -32 -5.16699 -59.833 -15.5 -83.5s-23.833 -43.167 -40.5 -58.5s-35.5 -26.833 -56.5 -34.5s-41.833 -11.5 -62.5 -11.5c-60.667 0 -107.334 17 -140.001 51
c-17.333 -17.333 -36.833 -30 -58.5 -38s-43.834 -12 -66.501 -12zM-231.997 1458l490 183v-123l-490 -184v124z" />
    <glyph glyph-name="uniFC63" unicode="&#xfc63;" arabic-form="isolated" 
d="M-130 1686c-59.333 0 -105.83 16.5029 -139.497 49.5029s-50.5 78.833 -50.5 137.5v101h101v-101c0 -30.667 7 -52.834 21 -66.501s36.667 -20.5 68 -20.5c4.66699 0 11.167 0.833008 19.5 2.5s16.666 5.5 24.999 11.5s15.5 14.833 21.5 26.5s9 27.167 9 46.5v101h102
v-101c0 -30.667 7 -53 21 -67s37 -21 69 -21c4.66699 0 11 1 19 3s16 6.16699 24 12.5s14.833 15.166 20.5 26.499s8.5 26.666 8.5 45.999c0 10.667 -1.16699 22.5 -3.5 35.5s-5.16602 26 -8.49902 39l-9.5 36.5c-3 11.333 -5.5 20.333 -7.5 27l94 32
c0.666992 -3.33301 3 -11 7 -23s8.16699 -26.333 12.5 -43s8.16602 -34.167 11.499 -52.5s5 -35.5 5 -51.5c0 -32 -5.16699 -59.833 -15.5 -83.5s-23.833 -43.167 -40.5 -58.5s-35.5 -26.833 -56.5 -34.5s-41.833 -11.5 -62.5 -11.5c-60.667 0 -107.334 17 -140.001 51
c-17.333 -17.333 -36.833 -30 -58.5 -38s-43.834 -12 -66.501 -12zM-63.9971 2585h126v-407h-126v407z" />
    <glyph glyph-name="fathatan_01" unicode="&#xfe70;" arabic-form="isolated" 
d="M-245 1706l490 182v-123l-490 -184v125zM-245 1937l490 182v-122l-490 -184v124z" />
    <glyph glyph-name="dammatan_01" unicode="&#xfe72;" arabic-form="isolated" 
d="M-269 1665c4 7.33301 8.99902 17 14.999 29s10.833 24.833 14.5 38.5s5.33398 27.167 5.00098 40.5s-4.16602 25.333 -11.499 36c-7.33301 10 -16 16.333 -26 19c-4.66699 1.33301 -9.66699 2 -15 2s-12 -1 -20 -3s-17.167 -5.66699 -27.5 -11s-18.833 -10.333 -25.5 -15
l-64 63c2 2.66699 6.83301 7.83398 14.5 15.501s17.834 15.334 30.501 23.001s27.667 14.5 45 20.5c14.667 4.66699 31 7 49 7h7c24 -1.33301 45.5 -7.83301 64.5 -19.5s34.167 -28.167 45.5 -49.5c12.667 -22.667 19.667 -47.334 21 -74.001v-16c0 -20.667 -2 -41 -6 -61
c16 4.66699 32.833 10.167 50.5 16.5s35.167 13.166 52.5 20.499s34.166 15 50.499 23s31.5 16.333 45.5 25c-0.666992 0 -1.33398 0.333008 -2.00098 1c-31.333 10 -58.833 23.833 -82.5 41.5s-42.5 37.5 -56.5 59.5s-22 45.667 -24 71c-0.666992 4.66699 -1 9 -1 13
c0 20.667 5 40.667 15 60c10 20.667 23.667 39.834 41 57.5c17.333 17.667 36.833 31.667 58.5 42s44.5 16.5 68.5 18.5h11c19.333 0 38.333 -4.33301 57 -13c32.667 -16 56.834 -38.333 72.501 -67s24.5 -59.667 26.5 -93l1 -17c0 -28.667 -4.83301 -59 -14.5 -91
s-23.834 -62.333 -42.501 -91c-14 -21.333 -32.833 -40.833 -56.5 -58.5s-49 -33.667 -76 -48s-54.667 -27 -83 -38s-54.5 -20.167 -78.5 -27.5s-44.667 -13 -62 -17s-28.333 -6.33301 -33 -7zM70.999 2057c-7.33301 0 -15.668 -1.33105 -25.001 -3.99805
s-18.833 -6.33398 -28.5 -11.001s-18.5 -10.334 -26.5 -17.001s-14.333 -14 -19 -22v-6c0 -14.667 4.5 -28.167 13.5 -40.5s21 -23.5 36 -33.5s30.833 -18.667 47.5 -26s31.334 -13.333 44.001 -18l6.5 32.5c2.33301 11.667 4.16602 23.5 5.49902 35.5c0.666992 8 1 16 1 24
c0 4 -0.166992 10 -0.5 18s-2.5 17 -6.5 27c-3.33301 10 -9.16602 19.333 -17.499 28s-18.5 13 -30.5 13z" />
    <glyph glyph-name="kasratan_01" unicode="&#xfe74;" arabic-form="isolated" 
d="M-245 -676l490 182v-122l-490 -185v125zM-245 -445l490 183v-123l-490 -184v124z" />
    <glyph glyph-name="fatha_01" unicode="&#xfe76;" arabic-form="isolated" 
d="M-245 1706l490 182v-123l-490 -184v125z" />
    <glyph glyph-name="damma_01" unicode="&#xfe78;" arabic-form="isolated" 
d="M-289 1630c22.667 6.66699 46.6641 14.167 71.9971 22.5s50.666 17.833 75.999 28.5s50 22.334 74 35.001s45.667 27 65 43c-31.333 8.66699 -59.666 21.667 -84.999 39s-45.666 37.5 -60.999 60.5s-24.666 47.5 -27.999 73.5c-1.33301 6.66699 -2 13.334 -2 20.001
c0 19.333 4.33301 38.666 13 57.999c10.667 21.333 25.167 41.166 43.5 59.499s38.5 32.833 60.5 43.5s45.333 16.667 70 18h7c21.333 0 42 -5.33301 62 -16c36 -19.333 61.833 -44.333 77.5 -75s23.5 -63.667 23.5 -99c0 -36 -6.5 -72.5 -19.5 -109.5
s-30.5 -71.167 -52.5 -102.5c-14.667 -20.667 -32.334 -39.5 -53.001 -56.5s-42.667 -32.5 -66 -46.5s-47.166 -26.333 -71.499 -37s-47.666 -20 -69.999 -28s-42.833 -14.833 -61.5 -20.5l-45 -13.5zM15.9971 2026c-8 0 -16.832 -1.00098 -26.499 -3.00098
s-19.167 -5 -28.5 -9s-17.833 -9.16699 -25.5 -15.5s-13.834 -13.833 -18.501 -22.5c-2.66699 -3.33301 -4 -7.33301 -4 -12c0 -6 2.66699 -14.5 8 -25.5s15 -23.667 29 -38s30.833 -27.166 50.5 -38.499s40.167 -18 61.5 -20c4.66699 12 9 28 13 48
c3.33301 15.333 5 30.333 5 45c0 5.33301 -0.5 14 -1.5 26s-6.16699 25.333 -15.5 40s-25 23 -47 25z" />
    <glyph glyph-name="kasra_01" unicode="&#xfe7a;" arabic-form="isolated" 
d="M-245 -445l490 183v-123l-490 -184v124z" />
    <glyph glyph-name="shadda_01" unicode="&#xfe7c;" arabic-form="isolated" 
d="M-130 1686c-59.333 0 -105.83 16.5029 -139.497 49.5029s-50.5 78.833 -50.5 137.5v101h101v-101c0 -30.667 7 -52.834 21 -66.501s36.667 -20.5 68 -20.5c4.66699 0 11.167 0.833008 19.5 2.5s16.666 5.5 24.999 11.5s15.5 14.833 21.5 26.5s9 27.167 9 46.5v101h102
v-101c0 -30.667 7 -53 21 -67s37 -21 69 -21c4.66699 0 11 1 19 3s16 6.16699 24 12.5s14.833 15.166 20.5 26.499s8.5 26.666 8.5 45.999c0 10.667 -1.16699 22.5 -3.5 35.5s-5.16602 26 -8.49902 39l-9.5 36.5c-3 11.333 -5.5 20.333 -7.5 27l94 32
c0.666992 -3.33301 3 -11 7 -23s8.16699 -26.333 12.5 -43s8.16602 -34.167 11.499 -52.5s5 -35.5 5 -51.5c0 -32 -5.16699 -59.833 -15.5 -83.5s-23.833 -43.167 -40.5 -58.5s-35.5 -26.833 -56.5 -34.5s-41.833 -11.5 -62.5 -11.5c-60.667 0 -107.334 17 -140.001 51
c-17.333 -17.333 -36.833 -30 -58.5 -38s-43.834 -12 -66.501 -12z" />
    <glyph glyph-name="sukun_01" unicode="&#xfe7e;" arabic-form="isolated" 
d="M-2 1666c-34.667 0 -65.9971 4.99707 -93.9971 14.9971s-52 24.5 -72 43.5s-35.333 42.167 -46 69.5s-16 58 -16 92c0 34.667 5.33301 65.834 16 93.501s26 51.167 46 70.5s44 34.166 72 44.5c28 10.333 59.333 15.5 94 15.5c33.333 0 64.166 -5.16699 92.499 -15.5
s53 -25.166 74 -44.499s37.5 -42.666 49.5 -69.999s18 -58 18 -92s-5.83301 -64.833 -17.5 -92.5s-27.834 -51.167 -48.501 -70.5s-45.334 -34 -74.001 -44c-26.667 -10 -56 -15 -88 -15h-6zM-1.99707 1779c15.333 0 29.998 2.33398 43.998 7.00098s26.167 11.5 36.5 20.5
s18.666 20.167 24.999 33.5s9.5 28.666 9.5 45.999s-3.16699 32.833 -9.5 46.5s-14.666 25.334 -24.999 35.001s-22.5 17.167 -36.5 22.5s-28.667 8 -44 8c-16 0 -31.167 -2.66699 -45.5 -8s-26.666 -12.833 -36.999 -22.5s-18.666 -21.334 -24.999 -35.001
s-9.5 -29.167 -9.5 -46.5c0 -36 10.5 -62.833 31.5 -80.5s49.5 -26.5 85.5 -26.5z" />
    <glyph glyph-name="uni0622.fina" unicode="&#x622;" horiz-adv-x="827" arabic-form="final" 
d="M833 -15c-100 0 -182.498 10.501 -247.498 31.501s-117.5 54.5 -157.5 100.5c-21.333 24 -38.333 50.167 -51 78.5s-22.334 57.5 -29.001 87.5s-11 60.5 -13 91.5s-3 61.167 -3 90.5v812h219v-812c0 -56.667 3.16699 -101 9.5 -133s17.166 -56.667 32.499 -74
c16.667 -18.667 44.5 -32.334 83.5 -41.001s91.167 -13 156.5 -13v-219zM913.002 1430l-490 0.00195312c-40.667 0 -75 -1.66699 -103 -5s-51.5 -10 -70.5 -20s-34.833 -24.5 -47.5 -43.5s-23.667 -44.167 -33 -75.5l-172 51c16.667 56.667 39.667 104.167 69 142.5
s64 68.166 104 89.499c34.667 17.333 73 28.666 115 33.999s88 8 138 8h490v-181z" />
    <glyph glyph-name="uni0623.fina" unicode="&#x623;" horiz-adv-x="676" arabic-form="final" 
d="M693 -15c-100 0 -182.498 10.501 -247.498 31.501s-117.5 54.5 -157.5 100.5c-21.333 24 -38.333 50.167 -51 78.5s-22.334 57.5 -29.001 87.5s-11 60.5 -13 91.5s-3 61.167 -3 90.5v812h219v-812c0 -56.667 3.16699 -101 9.5 -133s17.166 -56.667 32.499 -74
c16.667 -18.667 44.5 -32.334 83.5 -41.001s91.167 -13 156.5 -13v-219zM71.002 1373l0.000976562 132.998l118 35c-22.667 20.667 -41.167 44.334 -55.5 71.001s-21.5 55.334 -21.5 86.001c0 22 3.83301 43.833 11.5 65.5s18.167 41.5 31.5 59.5s29.333 33.5 48 46.5
s38.667 22.5 60 28.5h-1c11.333 3.33301 22.5 5.83301 33.5 7.5s22.167 2.5 33.5 2.5c25.333 0 48.333 -3.5 69 -10.5s40.667 -14.167 60 -21.5l-27 -110c-17.333 4 -34.333 8.16699 -51 12.5s-33 6.5 -49 6.5c-10 0 -20 -1.66699 -30 -5
c-10 -4 -19.833 -9.16699 -29.5 -15.5s-17.834 -13.833 -24.501 -22.5s-11 -18.334 -13 -29.001c-1.33301 -4 -2 -8.33301 -2 -13c0 -7.33301 1.33301 -14.666 4 -21.999c6 -18.667 19.5 -34.5 40.5 -47.5s49.833 -19.5 86.5 -19.5c6.66699 0 14.167 0.333008 22.5 1
s19 2.5 32 5.5s29.167 7 48.5 12s43.333 12.167 72 21.5l8 -126z" />
    <glyph glyph-name="uni0624.fina" unicode="&#x624;" horiz-adv-x="1093" arabic-form="final" 
d="M219 -333c103.333 0 188.001 7.33496 254.001 22.002s118 37.667 156 69c15.333 12.667 28.833 26.167 40.5 40.5s21.334 30.666 29.001 48.999s13.667 38.666 18 60.999s6.83301 47.833 7.5 76.5h-169c-48.667 0 -97.834 6.83301 -147.501 20.5s-94.667 36.5 -135 68.5
s-73.333 74.333 -99 127s-38.5 117.667 -38.5 195c0 45.333 3.83301 86 11.5 122s17.5 68.167 29.5 96.5s25.333 52.833 40 73.5s29 38.667 43 54c38 38 81.5 67.5 130.5 88.5s101.833 31.5 158.5 31.5c49.333 0 95.5 -7.66699 138.5 -23s81.5 -38.333 115.5 -69
c46 -43.333 80.833 -98 104.5 -164s35.5 -145 35.5 -237v-165h183v-219h-183c-1.33301 -92 -16.5 -169.667 -45.5 -233s-72.5 -118.333 -130.5 -165c-30 -23.333 -63 -43.833 -99 -61.5s-76.333 -32.167 -121 -43.5s-93.834 -19.833 -147.501 -25.5s-113.5 -8.5 -179.5 -8.5
v219zM548.001 643.002c-61.333 0 -108.999 -21.1699 -142.999 -63.5029s-51 -103.5 -51 -183.5c0 -40 6 -72.333 18 -97s29.667 -44.667 53 -60c11.333 -7.33301 23.5 -13.166 36.5 -17.499s25.5 -7.83301 37.5 -10.5s22.833 -4.5 32.5 -5.5s17.5 -1.5 23.5 -1.5h169v165
c0 46.667 -3.33301 85.834 -10 117.501s-15.334 57.5 -26.001 77.5s-22.5 35.5 -35.5 46.5s-26 18.833 -39 23.5s-25.333 7.33398 -37 8.00098s-21.167 1 -28.5 1zM276.002 1022l0.000976562 132.998l118 35c-22.667 20.667 -41.167 44.334 -55.5 71.001
s-21.5 55.334 -21.5 86.001c0 22 3.83301 43.833 11.5 65.5s18.167 41.5 31.5 59.5s29.333 33.5 48 46.5s38.667 22.5 60 28.5h-1c11.333 3.33301 22.5 5.83301 33.5 7.5s22.167 2.5 33.5 2.5c25.333 0 48.333 -3.5 69 -10.5s40.667 -14.167 60 -21.5l-27 -110
c-17.333 4 -34.333 8.16699 -51 12.5s-33 6.5 -49 6.5c-10 0 -20 -1.66699 -30 -5c-10 -4 -19.833 -9.16699 -29.5 -15.5s-17.834 -13.833 -24.501 -22.5s-11 -18.334 -13 -29.001c-1.33301 -4 -2 -8.33301 -2 -13c0 -7.33301 1.33301 -14.666 4 -21.999
c6 -18.667 19.5 -34.5 40.5 -47.5s49.833 -19.5 86.5 -19.5c6.66699 0 14.167 0.333008 22.5 1s19 2.5 32 5.5s29.167 7 48.5 12s43.333 12.167 72 21.5l8 -126z" />
    <glyph glyph-name="uni0625.fina" unicode="&#x625;" horiz-adv-x="628" arabic-form="final" 
d="M640 -15c-69.333 0 -128.669 4.33203 -178.002 12.999s-90.833 21.667 -124.5 39s-60.667 39.166 -81 65.499s-35.833 57.333 -46.5 93s-17.667 75.834 -21 120.501s-5 94.334 -5 149.001v962h219v-962c0 -56 1.83301 -101.167 5.5 -135.5s13.334 -60.833 29.001 -79.5
s39.334 -31 71.001 -37s75.5 -9 131.5 -9v-219zM142.997 -675.001l0.000976562 132.998l118 35c-22.667 20.667 -41.167 44.334 -55.5 71.001s-21.5 55.334 -21.5 86.001c0 22 3.83301 43.833 11.5 65.5s18.167 41.5 31.5 59.5s29.333 33.5 48 46.5s38.667 22.5 60 28.5h-1
c11.333 3.33301 22.5 5.83301 33.5 7.5s22.167 2.5 33.5 2.5c25.333 0 48.333 -3.5 69 -10.5s40.667 -14.167 60 -21.5l-27 -110c-17.333 4 -34.333 8.16699 -51 12.5s-33 6.5 -49 6.5c-10 0 -20 -1.66699 -30 -5c-10 -4 -19.833 -9.16699 -29.5 -15.5
s-17.834 -13.833 -24.501 -22.5s-11 -18.334 -13 -29.001c-1.33301 -4 -2 -8.33301 -2 -13c0 -7.33301 1.33301 -14.666 4 -21.999c6 -18.667 19.5 -34.5 40.5 -47.5s49.833 -19.5 86.5 -19.5c6.66699 0 14.167 0.333008 22.5 1s19 2.5 32 5.5s29.167 7 48.5 12
s43.333 12.167 72 21.5l8 -126z" />
    <glyph glyph-name="uni0626.fina" unicode="&#x626;" horiz-adv-x="1786" arabic-form="final" 
d="M1502 -15c24 -25.333 41.8359 -51.8359 53.5029 -79.5029s17.5 -54.167 17.5 -79.5c0 -60 -16.5 -114.167 -49.5 -162.5s-77.833 -89.5 -134.5 -123.5s-122.667 -60.333 -198 -79s-155.333 -28 -240 -28h-256c-53.333 0 -104.5 6.16699 -153.5 18.5s-94.833 30 -137.5 53
s-81.834 51 -117.501 84s-67.167 70.167 -94.5 111.5c-64.667 104.667 -97 227 -97 367c0 86.667 11.833 176.334 35.5 269.001s62.167 194.334 115.5 305.001l194 -94c-22 -47.333 -41 -92.166 -57 -134.499s-29.167 -83 -39.5 -122s-17.833 -76.5 -22.5 -112.5
s-7 -71.333 -7 -106c0 -99.333 22 -184 66 -254c32 -53.333 75.667 -94 131 -122s116.666 -42 183.999 -42h256c53.333 0 103.666 5.33301 150.999 16s88.833 25 124.5 43s64.167 39.167 85.5 63.5s33 50.5 35 78.5c-19.333 22 -45 40.833 -77 56.5
s-67.833 28.5 -107.5 38.5s-82.167 17.833 -127.5 23.5s-91.333 9.5 -138 11.5l7 219h907v-219h-309zM693.003 316.997l0.000976562 132.998l118 35c-22.667 20.667 -41.167 44.334 -55.5 71.001s-21.5 55.334 -21.5 86.001c0 22 3.83301 43.833 11.5 65.5
s18.167 41.5 31.5 59.5s29.333 33.5 48 46.5s38.667 22.5 60 28.5h-1c11.333 3.33301 22.5 5.83301 33.5 7.5s22.167 2.5 33.5 2.5c25.333 0 48.333 -3.5 69 -10.5s40.667 -14.167 60 -21.5l-27 -110c-17.333 4 -34.333 8.16699 -51 12.5s-33 6.5 -49 6.5
c-10 0 -20 -1.66699 -30 -5c-10 -4 -19.833 -9.16699 -29.5 -15.5s-17.834 -13.833 -24.501 -22.5s-11 -18.334 -13 -29.001c-1.33301 -4 -2 -8.33301 -2 -13c0 -7.33301 1.33301 -14.666 4 -21.999c6 -18.667 19.5 -34.5 40.5 -47.5s49.833 -19.5 86.5 -19.5
c6.66699 0 14.167 0.333008 22.5 1s19 2.5 32 5.5s29.167 7 48.5 12s43.333 12.167 72 21.5l8 -126z" />
    <glyph glyph-name="uni0626.init" unicode="&#x626;" horiz-adv-x="892" arabic-form="initial" 
d="M721 818c1.33301 -4 3.99902 -14.833 7.99902 -32.5l14.5 -65.5c5.66699 -26 11.334 -54.667 17.001 -86s11 -62.833 16 -94.5s9.16699 -62.334 12.5 -92.001s5 -55.5 5 -77.5c0 -66 -11 -123.333 -33 -172s-50.5 -88.667 -85.5 -120s-74.5 -54.666 -118.5 -69.999
s-88 -23 -132 -23h-445v219h452c8.66699 0 21.5 1.33301 38.5 4s33.833 9.5 50.5 20.5s31.167 27.5 43.5 49.5s18.5 52.667 18.5 92c0 14.667 -1.33301 33 -4 55s-6 45.667 -10 71s-8.66699 51.333 -14 78l-15.5 75c-5 23.333 -9.83301 44.333 -14.5 63l-11 43zM144.999 859
l0.000976562 132.998l118 35c-22.667 20.667 -41.167 44.334 -55.5 71.001s-21.5 55.334 -21.5 86.001c0 22 3.83301 43.833 11.5 65.5s18.167 41.5 31.5 59.5s29.333 33.5 48 46.5s38.667 22.5 60 28.5h-1c11.333 3.33301 22.5 5.83301 33.5 7.5s22.167 2.5 33.5 2.5
c25.333 0 48.333 -3.5 69 -10.5s40.667 -14.167 60 -21.5l-27 -110c-17.333 4 -34.333 8.16699 -51 12.5s-33 6.5 -49 6.5c-10 0 -20 -1.66699 -30 -5c-10 -4 -19.833 -9.16699 -29.5 -15.5s-17.834 -13.833 -24.501 -22.5s-11 -18.334 -13 -29.001
c-1.33301 -4 -2 -8.33301 -2 -13c0 -7.33301 1.33301 -14.666 4 -21.999c6 -18.667 19.5 -34.5 40.5 -47.5s49.833 -19.5 86.5 -19.5c6.66699 0 14.167 0.333008 22.5 1s19 2.5 32 5.5s29.167 7 48.5 12s43.333 12.167 72 21.5l8 -126z" />
    <glyph glyph-name="uni0626.medi" unicode="&#x626;" horiz-adv-x="1061" arabic-form="medial" 
d="M1083 204l0.000976562 -219h-160c-58.667 0 -111.334 8.16699 -158.001 24.5s-85 40.5 -115 72.5c-36 -31.333 -79.833 -55.333 -131.5 -72s-110.167 -25 -175.5 -25h-361v219h361c44 0 79.167 4.33301 105.5 13s46.166 19.5 59.499 32.5s22 27.333 26 43
s6 30.834 6 45.501v339h218v-332c0 -22.667 3.5 -41.834 10.5 -57.501s15.833 -28.667 26.5 -39s22.334 -18.5 35.001 -24.5s25.167 -10.5 37.5 -13.5s23.5 -4.83301 33.5 -5.5s17.333 -1 22 -1h160zM208.001 802l0.000976562 132.998l118 35
c-22.667 20.667 -41.167 44.334 -55.5 71.001s-21.5 55.334 -21.5 86.001c0 22 3.83301 43.833 11.5 65.5s18.167 41.5 31.5 59.5s29.333 33.5 48 46.5s38.667 22.5 60 28.5h-1c11.333 3.33301 22.5 5.83301 33.5 7.5s22.167 2.5 33.5 2.5c25.333 0 48.333 -3.5 69 -10.5
s40.667 -14.167 60 -21.5l-27 -110c-17.333 4 -34.333 8.16699 -51 12.5s-33 6.5 -49 6.5c-10 0 -20 -1.66699 -30 -5c-10 -4 -19.833 -9.16699 -29.5 -15.5s-17.834 -13.833 -24.501 -22.5s-11 -18.334 -13 -29.001c-1.33301 -4 -2 -8.33301 -2 -13
c0 -7.33301 1.33301 -14.666 4 -21.999c6 -18.667 19.5 -34.5 40.5 -47.5s49.833 -19.5 86.5 -19.5c6.66699 0 14.167 0.333008 22.5 1s19 2.5 32 5.5s29.167 7 48.5 12s43.333 12.167 72 21.5l8 -126z" />
    <glyph glyph-name="uni0627.fina" unicode="&#x627;" horiz-adv-x="628" arabic-form="final" 
d="M646 -15c-69.333 0 -128.669 4.33203 -178.002 12.999s-90.833 21.667 -124.5 39s-60.667 39.166 -81 65.499s-35.833 57.333 -46.5 93s-17.667 75.834 -21 120.501s-5 94.334 -5 149.001v962h219v-962c0 -56 1.83301 -101.167 5.5 -135.5s13.334 -60.833 29.001 -79.5
s39.334 -31 71.001 -37s75.5 -9 131.5 -9v-219z" />
    <glyph glyph-name="uni0628.fina" unicode="&#x628;" horiz-adv-x="2161" arabic-form="final" 
d="M2185 204l-0.00488281 -218.998h-74c-24 0 -48.667 2 -74 6s-50.166 10 -74.499 18s-47.5 18.167 -69.5 30.5s-42 27.5 -60 45.5c-72.667 -66 -175 -99.333 -307 -100h-1070c-48.667 0 -94.667 8.33301 -138 25s-82 40.667 -116 72c-13.333 12.667 -27.166 28 -41.499 46
s-27.166 39.167 -38.499 63.5s-20.666 52 -27.999 83s-11 65.833 -11 104.5c0 34 3.5 71.167 10.5 111.5s14.667 78.666 23 114.999s16.5 67.666 24.5 93.999s13 42.5 15 48.5l104 -33l105 -33c-4.66699 -14 -10.5 -33.5 -17.5 -58.5s-13.833 -52 -20.5 -81
s-12.5 -58.167 -17.5 -87.5s-7.5 -54.666 -7.5 -75.999c0 -40.667 6.5 -72.667 19.5 -96s28 -40.833 45 -52.5s34.167 -19 51.5 -22s30.666 -4.5 39.999 -4.5h1061c50.667 0 89.834 5.33301 117.501 16s47.834 23.5 60.501 38.5s20 30.5 22 46.5s3 29.333 3 40v332h219v-327
c0 -34 7 -60.667 21 -80s30.333 -33.833 49 -43.5s37.5 -15.834 56.5 -18.501s33.5 -4 43.5 -4h74zM892.995 -361.998l166 168l170 -170l-168 -168z" />
    <glyph glyph-name="uni0628.init" unicode="&#x628;" horiz-adv-x="679" arabic-form="initial" 
d="M541 818c1.33301 -4 3.99902 -14.833 7.99902 -32.5l14.5 -65.5c5.66699 -26 11.334 -54.667 17.001 -86s11 -62.833 16 -94.5s9.16699 -62.334 12.5 -92.001s5 -55.5 5 -77.5c0 -66 -11 -123.333 -33 -172s-50.5 -88.667 -85.5 -120s-74.5 -54.666 -118.5 -69.999
s-88 -23 -132 -23h-270v219h277c8.66699 0 21.5 1.33301 38.5 4s33.833 9.5 50.5 20.5s31.167 27.5 43.5 49.5s18.5 52.667 18.5 92c0 14.667 -1.33301 33 -4 55s-6 45.667 -10 71s-8.66699 51.333 -14 78l-15.5 75c-5 23.333 -9.83301 44.333 -14.5 63l-11 43z
M185.999 -363l166 168l170 -170l-168 -168z" />
    <glyph glyph-name="uni0628.medi" unicode="&#x628;" horiz-adv-x="796" arabic-form="medial" 
d="M815 204l0.000976562 -219h-73c-58.667 0 -111.334 8.16699 -158.001 24.5s-85 40.5 -115 72.5c-36 -31.333 -79.833 -55.333 -131.5 -72s-110.167 -25 -175.5 -25h-183v219h183c44 0 79.167 4.33301 105.5 13s46.166 19.5 59.499 32.5s22 27.333 26 43
s6 30.834 6 45.501v339h218v-332c0 -22.667 3.5 -41.834 10.5 -57.501s15.833 -28.667 26.5 -39s22.334 -18.5 35.001 -24.5s25.167 -10.5 37.5 -13.5s23.5 -4.83301 33.5 -5.5s17.333 -1 22 -1h73zM209.001 -374l166 168l170 -170l-168 -168z" />
    <glyph glyph-name="uni0629.fina" unicode="&#x629;" horiz-adv-x="1258" arabic-form="final" 
d="M1274 -15l-44.0029 0.00195312c-52 0 -102.167 5.5 -150.5 16.5s-92.833 27.333 -133.5 49s-76.834 48.667 -108.501 81s-56.5 69.833 -74.5 112.5c-16 -30 -37.167 -55.833 -63.5 -77.5s-57.166 -39.834 -92.499 -54.501c-44.667 -18.667 -89 -29.667 -133 -33
c-13.333 -1.33301 -26.666 -2 -39.999 -2c-30 0 -62.333 4 -97 12s-69.5 23 -104.5 45s-65.5 49.333 -91.5 82s-46.333 70.167 -61 112.5s-22 88.833 -22 139.5c0 70.667 13.833 134.334 41.5 191.001s64.334 106.667 110.001 150s98.167 80.5 157.5 111.5
s120.666 56.5 183.999 76.5c-3.33301 17.333 -6.66602 33.5 -9.99902 48.5s-6.33301 30.5 -9 46.5l210 50l178 -719c12 -48 30.5 -86.333 55.5 -115s52.333 -50.834 82 -66.501s59.834 -25.834 90.501 -30.501s58 -7 82 -7h44v-219zM656.997 471.002
c2.66699 14.667 4 29.666 4 44.999c0 10.667 -1.16699 25.167 -3.5 43.5s-6.5 41 -12.5 68s-12.667 53.833 -20 80.5s-13.666 52.667 -18.999 78c-113.333 -35.333 -200.333 -80.333 -261 -135s-91 -116 -91 -184c0 -35.333 8.5 -65 25.5 -89s38.5 -42.5 64.5 -55.5
s55 -20.167 87 -21.5h10c28 0 55 4.66699 81 14c38 16 68.167 35.833 90.5 59.5s37.166 55.834 44.499 96.501zM842.997 1305l-158 160l156 162l162 -162zM440.997 1307l-158 160l155 162l162 -162z" />
    <glyph glyph-name="uni062A.fina" unicode="&#x62a;" horiz-adv-x="2161" arabic-form="final" 
d="M2175 204l-0.00488281 -218.998h-74c-24 0 -48.667 2 -74 6s-50.166 10 -74.499 18s-47.5 18.167 -69.5 30.5s-42 27.5 -60 45.5c-72.667 -66 -175 -99.333 -307 -100h-1070c-48.667 0 -94.667 8.33301 -138 25s-82 40.667 -116 72c-13.333 12.667 -27.166 28 -41.499 46
s-27.166 39.167 -38.499 63.5s-20.666 52 -27.999 83s-11 65.833 -11 104.5c0 34 3.5 71.167 10.5 111.5s14.667 78.666 23 114.999s16.5 67.666 24.5 93.999s13 42.5 15 48.5l104 -33l105 -33c-4.66699 -14 -10.5 -33.5 -17.5 -58.5s-13.833 -52 -20.5 -81
s-12.5 -58.167 -17.5 -87.5s-7.5 -54.666 -7.5 -75.999c0 -40.667 6.5 -72.667 19.5 -96s28 -40.833 45 -52.5s34.167 -19 51.5 -22s30.666 -4.5 39.999 -4.5h1061c50.667 0 89.834 5.33301 117.501 16s47.834 23.5 60.501 38.5s20 30.5 22 46.5s3 29.333 3 40v332h219v-327
c0 -34 7 -60.667 21 -80s30.333 -33.833 49 -43.5s37.5 -15.834 56.5 -18.501s33.5 -4 43.5 -4h74zM1230 767.002l-158 160l156 162l162 -162zM827.995 769.002l-158 160l155 162l162 -162z" />
    <glyph glyph-name="uni062A.init" unicode="&#x62a;" horiz-adv-x="892" arabic-form="initial" 
d="M721 818c1.33301 -4 3.99902 -14.833 7.99902 -32.5l14.5 -65.5c5.66699 -26 11.334 -54.667 17.001 -86s11 -62.833 16 -94.5s9.16699 -62.334 12.5 -92.001s5 -55.5 5 -77.5c0 -66 -11 -123.333 -33 -172s-50.5 -88.667 -85.5 -120s-74.5 -54.666 -118.5 -69.999
s-88 -23 -132 -23h-445v219h452c8.66699 0 21.5 1.33301 38.5 4s33.833 9.5 50.5 20.5s31.167 27.5 43.5 49.5s18.5 52.667 18.5 92c0 14.667 -1.33301 33 -4 55s-6 45.667 -10 71s-8.66699 51.333 -14 78l-15.5 75c-5 23.333 -9.83301 44.333 -14.5 63l-11 43z
M699.999 1027l-158 160l156 162l162 -162zM297.999 1029l-158 160l155 162l162 -162z" />
    <glyph glyph-name="uni062A.medi" unicode="&#x62a;" horiz-adv-x="1061" arabic-form="medial" 
d="M729 950l-158 160l156 162l162 -162zM327 952l-158 160l155 162l162 -162zM1083 204l0.000976562 -219h-160c-58.667 0 -111.334 8.16699 -158.001 24.5s-85 40.5 -115 72.5c-36 -31.333 -79.833 -55.333 -131.5 -72s-110.167 -25 -175.5 -25h-361v219h361
c44 0 79.167 4.33301 105.5 13s46.166 19.5 59.499 32.5s22 27.333 26 43s6 30.834 6 45.501v339h218v-332c0 -22.667 3.5 -41.834 10.5 -57.501s15.833 -28.667 26.5 -39s22.334 -18.5 35.001 -24.5s25.167 -10.5 37.5 -13.5s23.5 -4.83301 33.5 -5.5s17.333 -1 22 -1h160z
" />
    <glyph glyph-name="uni062B.fina" unicode="&#x62b;" horiz-adv-x="2161" arabic-form="final" 
d="M2175 204l-0.00488281 -218.998h-74c-24 0 -48.667 2 -74 6s-50.166 10 -74.499 18s-47.5 18.167 -69.5 30.5s-42 27.5 -60 45.5c-72.667 -66 -175 -99.333 -307 -100h-1070c-48.667 0 -94.667 8.33301 -138 25s-82 40.667 -116 72c-13.333 12.667 -27.166 28 -41.499 46
s-27.166 39.167 -38.499 63.5s-20.666 52 -27.999 83s-11 65.833 -11 104.5c0 34 3.5 71.167 10.5 111.5s14.667 78.666 23 114.999s16.5 67.666 24.5 93.999s13 42.5 15 48.5l104 -33l105 -33c-4.66699 -14 -10.5 -33.5 -17.5 -58.5s-13.833 -52 -20.5 -81
s-12.5 -58.167 -17.5 -87.5s-7.5 -54.666 -7.5 -75.999c0 -40.667 6.5 -72.667 19.5 -96s28 -40.833 45 -52.5s34.167 -19 51.5 -22s30.666 -4.5 39.999 -4.5h1061c50.667 0 89.834 5.33301 117.501 16s47.834 23.5 60.501 38.5s20 30.5 22 46.5s3 29.333 3 40v332h219v-327
c0 -34 7 -60.667 21 -80s30.333 -33.833 49 -43.5s37.5 -15.834 56.5 -18.501s33.5 -4 43.5 -4h74zM974.995 887.002l-160 -162l-160 160l160 162zM1404 891.002l-158 -160l-165 158l162 162zM1183 1173l-150 -150l-148 148l150 150z" />
    <glyph glyph-name="uni062B.init" unicode="&#x62b;" horiz-adv-x="892" arabic-form="initial" 
d="M721 818c1.33301 -4 3.99902 -14.833 7.99902 -32.5l14.5 -65.5c5.66699 -26 11.334 -54.667 17.001 -86s11 -62.833 16 -94.5s9.16699 -62.334 12.5 -92.001s5 -55.5 5 -77.5c0 -66 -11 -123.333 -33 -172s-50.5 -88.667 -85.5 -120s-74.5 -54.666 -118.5 -69.999
s-88 -23 -132 -23h-445v219h452c8.66699 0 21.5 1.33301 38.5 4s33.833 9.5 50.5 20.5s31.167 27.5 43.5 49.5s18.5 52.667 18.5 92c0 14.667 -1.33301 33 -4 55s-6 45.667 -10 71s-8.66699 51.333 -14 78l-15.5 75c-5 23.333 -9.83301 44.333 -14.5 63l-11 43z
M418.999 1163l-160 -162l-160 160l160 162zM847.999 1167l-158 -160l-165 158l162 162zM626.999 1449l-150 -150l-148 148l150 150z" />
    <glyph glyph-name="uni062B.medi" unicode="&#x62b;" horiz-adv-x="1061" arabic-form="medial" 
d="M1083 204l0.000976562 -219h-160c-58.667 0 -111.334 8.16699 -158.001 24.5s-85 40.5 -115 72.5c-36 -31.333 -79.833 -55.333 -131.5 -72s-110.167 -25 -175.5 -25h-361v219h361c44 0 79.167 4.33301 105.5 13s46.166 19.5 59.499 32.5s22 27.333 26 43
s6 30.834 6 45.501v339h218v-332c0 -22.667 3.5 -41.834 10.5 -57.501s15.833 -28.667 26.5 -39s22.334 -18.5 35.001 -24.5s25.167 -10.5 37.5 -13.5s23.5 -4.83301 33.5 -5.5s17.333 -1 22 -1h160zM488.001 1101l-160 -162l-160 160l160 162zM917.001 1105l-158 -160
l-165 158l162 162zM696.001 1387l-150 -150l-148 148l150 150z" />
    <glyph glyph-name="uni062C.fina" unicode="&#x62c;" horiz-adv-x="1560" arabic-form="final" 
d="M1196 315c9.33301 -16 19.335 -30.333 30.002 -43c12 -15.333 24.5 -28 37.5 -38s26 -17.5 39 -22.5s24.5 -7.5 34.5 -7.5h242v-219h-242c-46.667 0 -89 6.16699 -127 18.5s-71.833 29.5 -101.5 51.5s-55.167 48.667 -76.5 80c-20 28.667 -36.333 60.667 -49 96l-240 -94
c-88 -33.333 -160.833 -62 -218.5 -86s-103.334 -47.833 -137.001 -71.5s-57.167 -49.334 -70.5 -77.001s-20 -61.5 -20 -101.5c0 -74.667 12.333 -134.334 37 -179.001s58.667 -79 102 -103s95 -39.833 155 -47.5s125.667 -11.5 197 -11.5h474v-219h-474
c-103.333 0 -198.166 9.83301 -284.499 29.5s-160.5 51.334 -222.5 95.001s-110.333 100.834 -145 171.501s-52 157 -52 259c0 79.333 15.5 147.5 46.5 204.5s73 106.167 126 147.5s115 76.833 186 106.5s146.167 56.834 225.5 81.501l432 133l-502 175
c-30 8.66699 -56.667 13.167 -80 13.5s-44 -3.83398 -62 -12.501s-33.667 -22.334 -47 -41.001s-25.333 -42.334 -36 -71.001l-202 61c14 44.667 33 87.334 57 128.001s53.667 74.834 89 102.501s76.666 46.167 123.999 55.5c14.667 2.66699 30 4 46 4
c35.333 0 74 -6.66699 116 -20c37.333 -12 71.166 -23.5 101.499 -34.5l89.5 -34l92.5 -37.5l112 -45.5l147.5 -58l199 -73.5l7 -205zM634.002 -198l166 168l170 -170l-168 -168z" />
    <glyph glyph-name="uni062C.init" unicode="&#x62c;" horiz-adv-x="1418" arabic-form="initial" 
d="M1353 379l-53.001 -34.501c-31.333 -20.333 -73 -45.166 -125 -74.499s-112.667 -60.666 -182 -93.999s-143.666 -64.166 -222.999 -92.499s-162.166 -51.833 -248.499 -70.5s-172.5 -28 -258.5 -28h-288v219h288c46.667 0 95 3.33301 145 10s99.833 15.834 149.5 27.501
s98.834 25.167 147.501 40.5s95.5 31.666 140.5 48.999s87.167 35.166 126.5 53.499s74.666 36.5 105.999 54.5l-499 175c-30 8.66699 -56.667 13.167 -80 13.5s-44 -3.83398 -62 -12.501s-33.667 -22.334 -47 -41.001s-25.333 -42.334 -36 -71.001l-202 61
c14 44.667 33 87.334 57 128.001s53.667 74.834 89 102.501s76.666 46.167 123.999 55.5c14.667 2.66699 30 4 46 4c35.333 0 74 -6.66699 116 -20l101.5 -33.5l89.5 -32l92.5 -35l112 -42.5l147.5 -55.5l199 -72.5zM506.999 -358.001l166 168l170 -170l-168 -168z" />
    <glyph glyph-name="uni062C.medi" unicode="&#x62c;" horiz-adv-x="1529" arabic-form="medial" 
d="M1209 285c7.33301 -20.667 18.332 -36.3311 32.999 -46.998c14.667 -11.333 30 -19.5 46 -24.5s31 -7.83301 45 -8.5s24 -1 30 -1h191v-219h-191c-51.333 0 -99 7.5 -143 22.5s-83.333 36.833 -118 65.5v1c-36 29.333 -64.667 65.666 -86 108.999
c-4.66699 -2 -9.66699 -4.33301 -15 -7c-69.333 -33.333 -143.666 -64.166 -222.999 -92.499s-162.166 -51.833 -248.499 -70.5s-172.5 -28 -258.5 -28h-288v219h288c46.667 0 95 3.33301 145 10s99.833 15.834 149.5 27.501s98.834 25.167 147.501 40.5
s95.5 31.666 140.5 48.999s87.167 35.166 126.5 53.499s74.666 36.5 105.999 54.5l-499 175c-30 8.66699 -56.667 13.167 -80 13.5s-44 -3.83398 -62 -12.501s-33.667 -22.334 -47 -41.001s-25.333 -42.334 -36 -71.001l-202 61c14 44.667 33 87.334 57 128.001
s53.667 74.834 89 102.501s76.666 46.167 123.999 55.5c14.667 2.66699 30 4 46 4c35.333 0 74 -6.66699 116 -20l101.5 -33.5l89.5 -32l92.5 -35l112 -42.5l147.5 -55.5l199 -72.5l27 -184l-53 -34c-26 -17.333 -59 -37.333 -99 -60zM523.999 -357.997l166 168l170 -170
l-168 -168z" />
    <glyph glyph-name="uni062D.fina" unicode="&#x62d;" horiz-adv-x="1560" arabic-form="final" 
d="M1198 315c9.33301 -16 19.335 -30.333 30.002 -43c12 -15.333 24.5 -28 37.5 -38s26 -17.5 39 -22.5s24.5 -7.5 34.5 -7.5h242v-219h-242c-46.667 0 -89 6.16699 -127 18.5s-71.833 29.5 -101.5 51.5s-55.167 48.667 -76.5 80c-20 28.667 -36.333 60.667 -49 96l-240 -94
c-88 -33.333 -160.833 -62 -218.5 -86s-103.334 -47.833 -137.001 -71.5s-57.167 -49.334 -70.5 -77.001s-20 -61.5 -20 -101.5c0 -74.667 12.333 -134.334 37 -179.001s58.667 -79 102 -103s95 -39.833 155 -47.5s125.667 -11.5 197 -11.5h474v-219h-474
c-103.333 0 -198.166 9.83301 -284.499 29.5s-160.5 51.334 -222.5 95.001s-110.333 100.834 -145 171.501s-52 157 -52 259c0 79.333 15.5 147.5 46.5 204.5s73 106.167 126 147.5s115 76.833 186 106.5s146.167 56.834 225.5 81.501l432 133l-502 175
c-30 8.66699 -56.667 13.167 -80 13.5s-44 -3.83398 -62 -12.501s-33.667 -22.334 -47 -41.001s-25.333 -42.334 -36 -71.001l-202 61c14 44.667 33 87.334 57 128.001s53.667 74.834 89 102.501s76.666 46.167 123.999 55.5c14.667 2.66699 30 4 46 4
c35.333 0 74 -6.66699 116 -20c37.333 -12 71.166 -23.5 101.499 -34.5l89.5 -34l92.5 -37.5l112 -45.5l147.5 -58l199 -73.5l7 -205z" />
    <glyph glyph-name="uni062D.init" unicode="&#x62d;" horiz-adv-x="1418" arabic-form="initial" 
d="M1358 379l-53.001 -34.501c-31.333 -20.333 -73 -45.166 -125 -74.499s-112.667 -60.666 -182 -93.999s-143.666 -64.166 -222.999 -92.499s-162.166 -51.833 -248.499 -70.5s-172.5 -28 -258.5 -28h-288v219h288c46.667 0 95 3.33301 145 10s99.833 15.834 149.5 27.501
s98.834 25.167 147.501 40.5s95.5 31.666 140.5 48.999s87.167 35.166 126.5 53.499s74.666 36.5 105.999 54.5l-499 175c-30 8.66699 -56.667 13.167 -80 13.5s-44 -3.83398 -62 -12.501s-33.667 -22.334 -47 -41.001s-25.333 -42.334 -36 -71.001l-202 61
c14 44.667 33 87.334 57 128.001s53.667 74.834 89 102.501s76.666 46.167 123.999 55.5c14.667 2.66699 30 4 46 4c35.333 0 74 -6.66699 116 -20l101.5 -33.5l89.5 -32l92.5 -35l112 -42.5l147.5 -55.5l199 -72.5z" />
    <glyph glyph-name="uni062D.medi" unicode="&#x62d;" horiz-adv-x="1529" arabic-form="medial" 
d="M1204 285c7.33301 -20.667 18.332 -36.3311 32.999 -46.998c14.667 -11.333 30 -19.5 46 -24.5s31 -7.83301 45 -8.5s24 -1 30 -1h191v-219h-191c-51.333 0 -99 7.5 -143 22.5s-83.333 36.833 -118 65.5v1c-36 29.333 -64.667 65.666 -86 108.999
c-4.66699 -2 -9.66699 -4.33301 -15 -7c-69.333 -33.333 -143.666 -64.166 -222.999 -92.499s-162.166 -51.833 -248.499 -70.5s-172.5 -28 -258.5 -28h-288v219h288c46.667 0 95 3.33301 145 10s99.833 15.834 149.5 27.501s98.834 25.167 147.501 40.5
s95.5 31.666 140.5 48.999s87.167 35.166 126.5 53.499s74.666 36.5 105.999 54.5l-499 175c-30 8.66699 -56.667 13.167 -80 13.5s-44 -3.83398 -62 -12.501s-33.667 -22.334 -47 -41.001s-25.333 -42.334 -36 -71.001l-202 61c14 44.667 33 87.334 57 128.001
s53.667 74.834 89 102.501s76.666 46.167 123.999 55.5c14.667 2.66699 30 4 46 4c35.333 0 74 -6.66699 116 -20l101.5 -33.5l89.5 -32l92.5 -35l112 -42.5l147.5 -55.5l199 -72.5l27 -184l-53 -34c-26 -17.333 -59 -37.333 -99 -60z" />
    <glyph glyph-name="uni062E.fina" unicode="&#x62e;" horiz-adv-x="1560" arabic-form="final" 
d="M1206 315c9.33301 -16 19.335 -30.333 30.002 -43c12 -15.333 24.5 -28 37.5 -38s26 -17.5 39 -22.5s24.5 -7.5 34.5 -7.5h242v-219h-242c-46.667 0 -89 6.16699 -127 18.5s-71.833 29.5 -101.5 51.5s-55.167 48.667 -76.5 80c-20 28.667 -36.333 60.667 -49 96l-240 -94
c-88 -33.333 -160.833 -62 -218.5 -86s-103.334 -47.833 -137.001 -71.5s-57.167 -49.334 -70.5 -77.001s-20 -61.5 -20 -101.5c0 -74.667 12.333 -134.334 37 -179.001s58.667 -79 102 -103s95 -39.833 155 -47.5s125.667 -11.5 197 -11.5h474v-219h-474
c-103.333 0 -198.166 9.83301 -284.499 29.5s-160.5 51.334 -222.5 95.001s-110.333 100.834 -145 171.501s-52 157 -52 259c0 79.333 15.5 147.5 46.5 204.5s73 106.167 126 147.5s115 76.833 186 106.5s146.167 56.834 225.5 81.501l432 133l-502 175
c-30 8.66699 -56.667 13.167 -80 13.5s-44 -3.83398 -62 -12.501s-33.667 -22.334 -47 -41.001s-25.333 -42.334 -36 -71.001l-202 61c14 44.667 33 87.334 57 128.001s53.667 74.834 89 102.501s76.666 46.167 123.999 55.5c14.667 2.66699 30 4 46 4
c35.333 0 74 -6.66699 116 -20c37.333 -12 71.166 -23.5 101.499 -34.5l89.5 -34l92.5 -37.5l112 -45.5l147.5 -58l199 -73.5l7 -205zM347.002 1259l166 168l170 -170l-168 -168z" />
    <glyph glyph-name="uni062E.init" unicode="&#x62e;" horiz-adv-x="1418" arabic-form="initial" 
d="M1353 379l-53.001 -34.501c-31.333 -20.333 -73 -45.166 -125 -74.499s-112.667 -60.666 -182 -93.999s-143.666 -64.166 -222.999 -92.499s-162.166 -51.833 -248.499 -70.5s-172.5 -28 -258.5 -28h-288v219h288c46.667 0 95 3.33301 145 10s99.833 15.834 149.5 27.501
s98.834 25.167 147.501 40.5s95.5 31.666 140.5 48.999s87.167 35.166 126.5 53.499s74.666 36.5 105.999 54.5l-499 175c-30 8.66699 -56.667 13.167 -80 13.5s-44 -3.83398 -62 -12.501s-33.667 -22.334 -47 -41.001s-25.333 -42.334 -36 -71.001l-202 61
c14 44.667 33 87.334 57 128.001s53.667 74.834 89 102.501s76.666 46.167 123.999 55.5c14.667 2.66699 30 4 46 4c35.333 0 74 -6.66699 116 -20l101.5 -33.5l89.5 -32l92.5 -35l112 -42.5l147.5 -55.5l199 -72.5zM269.999 1261l166 168l170 -170l-168 -168z" />
    <glyph glyph-name="uni062E.medi" unicode="&#x62e;" horiz-adv-x="1529" arabic-form="medial" 
d="M1209 285c7.33301 -20.667 18.332 -36.3311 32.999 -46.998c14.667 -11.333 30 -19.5 46 -24.5s31 -7.83301 45 -8.5s24 -1 30 -1h191v-219h-191c-51.333 0 -99 7.5 -143 22.5s-83.333 36.833 -118 65.5v1c-36 29.333 -64.667 65.666 -86 108.999
c-4.66699 -2 -9.66699 -4.33301 -15 -7c-69.333 -33.333 -143.666 -64.166 -222.999 -92.499s-162.166 -51.833 -248.499 -70.5s-172.5 -28 -258.5 -28h-288v219h288c46.667 0 95 3.33301 145 10s99.833 15.834 149.5 27.501s98.834 25.167 147.501 40.5
s95.5 31.666 140.5 48.999s87.167 35.166 126.5 53.499s74.666 36.5 105.999 54.5l-499 175c-30 8.66699 -56.667 13.167 -80 13.5s-44 -3.83398 -62 -12.501s-33.667 -22.334 -47 -41.001s-25.333 -42.334 -36 -71.001l-202 61c14 44.667 33 87.334 57 128.001
s53.667 74.834 89 102.501s76.666 46.167 123.999 55.5c14.667 2.66699 30 4 46 4c35.333 0 74 -6.66699 116 -20l101.5 -33.5l89.5 -32l92.5 -35l112 -42.5l147.5 -55.5l199 -72.5l27 -184l-53 -34c-26 -17.333 -59 -37.333 -99 -60zM274.999 1261l166 168l170 -170
l-168 -168z" />
    <glyph glyph-name="uni062F.fina" unicode="&#x62f;" horiz-adv-x="1238" arabic-form="final" 
d="M1259 204v-219h-25c-98 0 -189.333 39.333 -274 118c-21.333 -25.333 -48 -47 -80 -65c-48.667 -27.333 -109.334 -46 -182.001 -56c-24.667 -4 -50.167 -6.83301 -76.5 -8.5s-53.166 -2.5 -80.499 -2.5c-40.667 0 -80.334 2 -119.001 6
c-19.333 2 -40.166 4.66699 -62.499 8s-45.5 8 -69.5 14s-47.833 13.5 -71.5 22.5s-46.167 19.5 -67.5 31.5l-95 54l109 190l95 -54c16 -9.33301 34.667 -17.333 56 -24s44.333 -12.167 69 -16.5s50.334 -7.5 77.001 -9.5s53.334 -3 80.001 -3
c48 0 91.167 2.16699 129.5 6.5s68.5 12.5 90.5 24.5s34.333 29 37 51v7c0 21.333 -10 48 -30 80l-143 219l-106 159.5l-63 93.5c-10.667 15.333 -16 23.333 -16 24l1 -1l-60 92l183 120l61 -92l24 -36l64 -98.5l97.5 -147.5l122.5 -184l65 -96
c24 -35.333 49.167 -68.333 75.5 -99s53.166 -56.5 80.499 -77.5s53.666 -31.5 78.999 -31.5h25z" />
    <glyph glyph-name="uni0630.fina" unicode="&#x630;" horiz-adv-x="1238" arabic-form="final" 
d="M1255 204v-219h-25c-98 0 -189.333 39.333 -274 118c-21.333 -25.333 -48 -47 -80 -65c-48.667 -27.333 -109.334 -46 -182.001 -56c-24.667 -4 -50.167 -6.83301 -76.5 -8.5s-53.166 -2.5 -80.499 -2.5c-40.667 0 -80.334 2 -119.001 6
c-19.333 2 -40.166 4.66699 -62.499 8s-45.5 8 -69.5 14s-47.833 13.5 -71.5 22.5s-46.167 19.5 -67.5 31.5l-95 54l109 190l95 -54c16 -9.33301 34.667 -17.333 56 -24s44.333 -12.167 69 -16.5s50.334 -7.5 77.001 -9.5s53.334 -3 80.001 -3
c48 0 91.167 2.16699 129.5 6.5s68.5 12.5 90.5 24.5s34.333 29 37 51v7c0 21.333 -10 48 -30 80l-143 219l-106 159.5l-63 93.5c-10.667 15.333 -16 23.333 -16 24l1 -1l-60 92l183 120l61 -92l24 -36l64 -98.5l97.5 -147.5l122.5 -184l65 -96
c24 -35.333 49.167 -68.333 75.5 -99s53.166 -56.5 80.499 -77.5s53.666 -31.5 78.999 -31.5h25zM395 1418l166 168l170 -170l-168 -168z" />
    <glyph glyph-name="uni0631.fina" unicode="&#x631;" horiz-adv-x="910" arabic-form="final" 
d="M925 -15h-20.999c-29.333 0 -57 2.33301 -83 7s-52.333 18 -79 40c-4 -89.333 -20.5 -170 -49.5 -242s-69.333 -133.333 -121 -184s-113.834 -89.667 -186.501 -117s-155 -41 -247 -41h-138v219h138c66.667 0 124.167 7 172.5 21s88.166 36.167 119.499 66.5
s54.666 70 69.999 119s23 108.5 23 178.5v624h219v-314c0 -34 7.16699 -61.333 21.5 -82s30.833 -36.667 49.5 -48s36.834 -18.833 54.501 -22.5s29.834 -5.5 36.501 -5.5h21v-219z" />
    <glyph glyph-name="uni0632.fina" unicode="&#x632;" horiz-adv-x="910" arabic-form="final" 
d="M925 -15h-20.999c-29.333 0 -57 2.33301 -83 7s-52.333 18 -79 40c-4 -89.333 -20.5 -170 -49.5 -242s-69.333 -133.333 -121 -184s-113.834 -89.667 -186.501 -117s-155 -41 -247 -41h-138v219h138c66.667 0 124.167 7 172.5 21s88.166 36.167 119.499 66.5
s54.666 70 69.999 119s23 108.5 23 178.5v624h219v-314c0 -34 7.16699 -61.333 21.5 -82s30.833 -36.667 49.5 -48s36.834 -18.833 54.501 -22.5s29.834 -5.5 36.501 -5.5h21v-219zM463.001 1081l166 168l170 -170l-168 -168z" />
    <glyph glyph-name="uni0633.fina" unicode="&#x633;" horiz-adv-x="2910" arabic-form="final" 
d="M2837 -15c-141.333 0 -246.668 35.6699 -316.002 107.003c-2 -2 -4.16699 -4.5 -6.5 -7.5s-4.5 -5.16699 -6.5 -6.5c-34 -28.667 -73.667 -51.334 -119 -68.001s-91.666 -25 -139 -25c-128.667 0 -227.667 35.667 -297 107c-2 -2 -4.16699 -4.5 -6.5 -7.5
s-4.5 -5.16699 -6.5 -6.5c-34 -28.667 -73.667 -51.334 -119 -68.001s-91.666 -25 -138.999 -25c-76 0 -143 15 -201 45v-58c0 -178.667 -48.167 -310.834 -144.5 -396.501s-239.5 -128.5 -429.5 -128.5h-221c-51.333 0 -101.166 6.33301 -149.499 19
s-93.833 30.5 -136.5 53.5s-82 50.833 -118 83.5s-67.333 69 -94 109c-31.333 50.667 -55.5 104.834 -72.5 162.501s-25.5 120.834 -25.5 189.501c0 87.333 13.167 178.666 39.5 273.999s65.5 197.666 117.5 306.999l197 -96c-46 -94 -80.333 -180.167 -103 -258.5
s-34 -152.833 -34 -223.5c0 -49.333 5.5 -92.666 16.5 -129.999s27.5 -73.333 49.5 -108c33.333 -52 76.833 -92.167 130.5 -120.5s114.5 -42.5 182.5 -42.5h221c74 0 134.167 6.83301 180.5 20.5s82.333 33.667 108 60s43.167 58.5 52.5 96.5s14 81 14 129v704h219v-209
c0 -60.667 5.66699 -108.5 17 -143.5s26.5 -61.5 45.5 -79.5s40.5 -29.333 64.5 -34s48.667 -7 74 -7c15.333 0 32.833 2.66699 52.5 8s38.167 14.666 55.5 27.999s31.833 31 43.5 53s17.5 49.667 17.5 83v301h218v-311c1.33301 -56 16.333 -97 45 -123s74.667 -39 138 -39
c15.333 0 32.666 2.83301 52 8.5c19.333 5.66699 37.5 15 54.5 28s31.333 30.5 43 52.5s17.5 49.667 17.5 83v301h218v-311c1.33301 -56 17.833 -96.833 49.5 -122.5s81.834 -38.5 150.5 -38.5h95v-219h-95z" />
    <glyph glyph-name="uni0633.init" unicode="&#x633;" horiz-adv-x="1748" arabic-form="initial" 
d="M751 -13c-62 0 -117.165 8.49805 -165.498 25.498s-89.833 42.167 -124.5 75.5c-36 -34.667 -76.833 -60.5 -122.5 -77.5s-91.5 -25.5 -137.5 -25.5h-221v219h221c8.66699 0 21.5 1.5 38.5 4.5s33.833 10.167 50.5 21.5s31.167 28.166 43.5 50.499
s18.5 53.166 18.5 92.499v303h219v-299c0 -60 14 -103.667 42 -131s74 -41 138 -41c8.66699 0 21.5 1.66699 38.5 5s33.833 10.833 50.5 22.5s31.167 28.834 43.5 51.501s18.5 53.667 18.5 93v299h218v-299c0 -60 14.333 -104 43 -132s75.334 -42 140.001 -42
c10 0 23.333 2 40 6s33 12 49 24s30 29.5 42 52.5s18 53.5 18 91.5c0 14.667 -1.33301 32.834 -4 54.501s-6 44.834 -10 69.501s-8.5 49.834 -13.5 75.501s-10 50 -15 73s-9.83301 43.5 -14.5 61.5s-8.33398 31.667 -11.001 41l207 66
c1.33301 -4 4.16602 -14.667 8.49902 -32s9.33301 -38.666 15 -63.999l18 -84c6.33301 -30.667 12.166 -61.667 17.499 -93s9.66602 -61.666 12.999 -90.999s5 -55 5 -77c0 -66 -10.833 -123.333 -32.5 -172s-49.667 -89.334 -84 -122.001s-73.333 -57 -117 -73
s-87.5 -24.333 -131.5 -25c-62 0 -117.667 9 -167 27s-91.666 43.667 -126.999 77c-36 -34.667 -76.5 -60.334 -121.5 -77.001s-90.5 -25 -136.5 -25z" />
    <glyph glyph-name="uni0633.medi" unicode="&#x633;" horiz-adv-x="1897" arabic-form="medial" 
d="M-27 204l126 -0.00195312c42.667 0 77.167 3.66699 103.5 11s46.833 18.166 61.5 32.499s24.5 31.833 29.5 52.5s7.5 44 7.5 70v306h219v-301c0 -59.333 14.167 -102.5 42.5 -129.5s73.5 -40.833 135.5 -41.5c10.667 0.666992 24.167 2.83398 40.5 6.50098
s32 11.334 47 23.001s27.833 28.334 38.5 50.001s16 50.5 16 86.5v306h218v-301c0 -60 14.333 -103.5 43 -130.5s74.667 -40.5 138 -40.5c18 0 35.667 2.83301 53 8.5s33 14.834 47 27.501s25.5 29.167 34.5 49.5s14.167 45.5 15.5 75.5v311h219v-311
c1.33301 -56.667 18.333 -97.667 51 -123s82.334 -38 149.001 -38h104v-219h-104c-68 0 -127.833 8.5 -179.5 25.5s-95.167 42.833 -130.5 77.5c-32 -34.667 -70.833 -60.5 -116.5 -77.5s-93.167 -25.5 -142.5 -25.5c-62.667 0 -117.667 8.5 -165 25.5s-89 42.5 -125 76.5
c-34 -32 -72.833 -56.833 -116.5 -74.5s-87.167 -26.834 -130.5 -27.501h-7c-60.667 0 -114.334 8.83301 -161.001 26.5s-87 41.5 -121 71.5c-38 -32.667 -82.667 -57.167 -134 -73.5s-111.333 -24.5 -180 -24.5h-126v219z" />
    <glyph glyph-name="uni0634.fina" unicode="&#x634;" horiz-adv-x="2910" arabic-form="final" 
d="M2847 -15c-141.333 0 -246.668 35.6699 -316.002 107.003c-2 -2 -4.16699 -4.5 -6.5 -7.5s-4.5 -5.16699 -6.5 -6.5c-34 -28.667 -73.667 -51.334 -119 -68.001s-91.666 -25 -139 -25c-128.667 0 -227.667 35.667 -297 107c-2 -2 -4.16699 -4.5 -6.5 -7.5
s-4.5 -5.16699 -6.5 -6.5c-34 -28.667 -73.667 -51.334 -119 -68.001s-91.666 -25 -138.999 -25c-76 0 -143 15 -201 45v-58c0 -178.667 -48.167 -310.834 -144.5 -396.501s-239.5 -128.5 -429.5 -128.5h-221c-51.333 0 -101.166 6.33301 -149.499 19
s-93.833 30.5 -136.5 53.5s-82 50.833 -118 83.5s-67.333 69 -94 109c-31.333 50.667 -55.5 104.834 -72.5 162.501s-25.5 120.834 -25.5 189.501c0 87.333 13.167 178.666 39.5 273.999s65.5 197.666 117.5 306.999l197 -96c-46 -94 -80.333 -180.167 -103 -258.5
s-34 -152.833 -34 -223.5c0 -49.333 5.5 -92.666 16.5 -129.999s27.5 -73.333 49.5 -108c33.333 -52 76.833 -92.167 130.5 -120.5s114.5 -42.5 182.5 -42.5h221c74 0 134.167 6.83301 180.5 20.5s82.333 33.667 108 60s43.167 58.5 52.5 96.5s14 81 14 129v704h219v-209
c0 -60.667 5.66699 -108.5 17 -143.5s26.5 -61.5 45.5 -79.5s40.5 -29.333 64.5 -34s48.667 -7 74 -7c15.333 0 32.833 2.66699 52.5 8s38.167 14.666 55.5 27.999s31.833 31 43.5 53s17.5 49.667 17.5 83v301h218v-311c1.33301 -56 16.333 -97 45 -123s74.667 -39 138 -39
c15.333 0 32.666 2.83301 52 8.5c19.333 5.66699 37.5 15 54.5 28s31.333 30.5 43 52.5s17.5 49.667 17.5 83v301h218v-311c1.33301 -56 17.833 -96.833 49.5 -122.5s81.834 -38.5 150.5 -38.5h95v-219h-95zM1912 1086l-160 -162l-160 160l160 162zM2341 1090l-158 -160
l-165 158l162 162zM2120 1372l-150 -150l-148 148l150 150z" />
    <glyph glyph-name="uni0634.init" unicode="&#x634;" horiz-adv-x="1748" arabic-form="initial" 
d="M736 -13c-62 0 -117.165 8.49805 -165.498 25.498s-89.833 42.167 -124.5 75.5c-36 -34.667 -76.833 -60.5 -122.5 -77.5s-91.5 -25.5 -137.5 -25.5h-221v219h221c8.66699 0 21.5 1.5 38.5 4.5s33.833 10.167 50.5 21.5s31.167 28.166 43.5 50.499
s18.5 53.166 18.5 92.499v303h219v-299c0 -60 14 -103.667 42 -131s74 -41 138 -41c8.66699 0 21.5 1.66699 38.5 5s33.833 10.833 50.5 22.5s31.167 28.834 43.5 51.501s18.5 53.667 18.5 93v299h218v-299c0 -60 14.333 -104 43 -132s75.334 -42 140.001 -42
c10 0 23.333 2 40 6s33 12 49 24s30 29.5 42 52.5s18 53.5 18 91.5c0 14.667 -1.33301 32.834 -4 54.501s-6 44.834 -10 69.501s-8.5 49.834 -13.5 75.501s-10 50 -15 73s-9.83301 43.5 -14.5 61.5s-8.33398 31.667 -11.001 41l207 66
c1.33301 -4 4.16602 -14.667 8.49902 -32s9.33301 -38.666 15 -63.999l18 -84c6.33301 -30.667 12.166 -61.667 17.499 -93s9.66602 -61.666 12.999 -90.999s5 -55 5 -77c0 -66 -10.833 -123.333 -32.5 -172s-49.667 -89.334 -84 -122.001s-73.333 -57 -117 -73
s-87.5 -24.333 -131.5 -25c-62 0 -117.667 9 -167 27s-91.666 43.667 -126.999 77c-36 -34.667 -76.5 -60.334 -121.5 -77.001s-90.5 -25 -136.5 -25zM961.002 1118l-160 -162l-160 160l160 162zM1390 1122l-158 -160l-165 158l162 162zM1169 1404l-150 -150l-148 148
l150 150z" />
    <glyph glyph-name="uni0634.medi" unicode="&#x634;" horiz-adv-x="1897" arabic-form="medial" 
d="M-29 204l126 -0.00195312c42.667 0 77.167 3.66699 103.5 11s46.833 18.166 61.5 32.499s24.5 31.833 29.5 52.5s7.5 44 7.5 70v306h219v-301c0 -59.333 14.167 -102.5 42.5 -129.5s73.5 -40.833 135.5 -41.5c10.667 0.666992 24.167 2.83398 40.5 6.50098
s32 11.334 47 23.001s27.833 28.334 38.5 50.001s16 50.5 16 86.5v306h218v-301c0 -60 14.333 -103.5 43 -130.5s74.667 -40.5 138 -40.5c18 0 35.667 2.83301 53 8.5s33 14.834 47 27.501s25.5 29.167 34.5 49.5s14.167 45.5 15.5 75.5v311h219v-311
c1.33301 -56.667 18.333 -97.667 51 -123s82.334 -38 149.001 -38h104v-219h-104c-68 0 -127.833 8.5 -179.5 25.5s-95.167 42.833 -130.5 77.5c-32 -34.667 -70.833 -60.5 -116.5 -77.5s-93.167 -25.5 -142.5 -25.5c-62.667 0 -117.667 8.5 -165 25.5s-89 42.5 -125 76.5
c-34 -32 -72.833 -56.833 -116.5 -74.5s-87.167 -26.834 -130.5 -27.501h-7c-60.667 0 -114.334 8.83301 -161.001 26.5s-87 41.5 -121 71.5c-38 -32.667 -82.667 -57.167 -134 -73.5s-111.333 -24.5 -180 -24.5h-126v219zM881 1090l-160 -162l-160 160l160 162zM1310 1094
l-158 -160l-165 158l162 162zM1089 1376l-150 -150l-148 148l150 150z" />
    <glyph glyph-name="uni0635.fina" unicode="&#x635;" horiz-adv-x="2837" arabic-form="final" 
d="M687 -552c-52 0 -102.332 5.99512 -150.999 17.9951s-94.334 29.5 -137.001 52.5s-82 51 -118 84s-67.333 70.5 -94 112.5c-31.333 52 -55.333 106.833 -72 164.5s-25 120.834 -25 189.501c0 86 13 175.167 39 267.5s64.667 192.166 116 299.499l198 -94
c-44.667 -93.333 -78.334 -178.166 -101.001 -254.499s-34 -149.166 -34 -218.499c0 -49.333 5.33301 -92.666 16 -129.999s27.334 -73.666 50.001 -108.999c32 -52 75.333 -92.167 130 -120.5s115.667 -42.5 183 -42.5h219c73.333 0 133 7 179 21s81.833 34.333 107.5 61
s43.167 59.167 52.5 97.5s14 81.833 14 130.5v699h218v-334c0 -14.667 2.83301 -28.667 8.5 -42s13 -25.166 22 -35.499s19 -18.5 30 -24.5s21.833 -9 32.5 -9l99.5 159c33 52 66.833 101.167 101.5 147.5s70.5 89.166 107.5 128.499s75.667 73.333 116 102
s82.5 51 126.5 67s91 24 141 24c50.667 0 100.334 -8.5 149 -25.5c48.667 -17 92.167 -44 130.5 -81s69.333 -84.333 93 -142s35.5 -127.167 35.5 -208.5c0 -40 -3.5 -76.167 -10.5 -108.5s-16.833 -62.166 -29.5 -89.499h222v-219h-1172c-14 0 -30.5 0.166992 -49.5 0.5
s-38 2 -57 5s-37.167 7.83301 -54.5 14.5s-31.333 16 -42 28v-56c0 -180 -47.667 -313.167 -143 -399.5s-238 -129.5 -428 -129.5h-219zM2253 203.995c5.33301 0 12.832 0.331055 22.499 0.998047s20.334 2 32 4c11.667 2 23.834 5.16699 36.501 9.5s24.667 10.5 36 18.5
c12 8 23.833 17.333 35.5 28s22 22.834 31 36.501s16.333 28.834 22 45.501s8.5 35 8.5 55c0 40 -5.5 74.833 -16.5 104.5s-26.333 54.334 -46 74.001s-42.5 34.5 -68.5 44.5s-54 15 -84 15c-42.667 0 -84.167 -13 -124.5 -39s-79.5 -59.833 -117.5 -101.5
s-74.333 -88.334 -109 -140.001l-100 -155.5h442z" />
    <glyph glyph-name="uni0635.init" unicode="&#x635;" horiz-adv-x="1809" arabic-form="initial" 
d="M-21 -15v218.997h155c44 0 78.833 4.16699 104.5 12.5s45.334 19 59.001 32s22.667 27.333 27 43s6.5 30.834 6.5 45.501v339h218v-331c0 -15.333 3 -29.666 9 -42.999s14 -25.333 24 -36s21 -19 33 -25s24 -9 36 -9l86 140c30 48.667 61.5 96.167 94.5 142.5
s68.167 90.333 105.5 132s77 78.334 119 110.001s86.667 56.667 134 75s98.333 27.5 153 27.5c50.667 0 100.334 -8.5 149.001 -25.5s92 -43.667 130 -80s68.667 -83.333 92 -141s35 -127.5 35 -209.5c0 -51.333 -5.83301 -97.333 -17.5 -138s-27.667 -76.5 -48 -107.5
s-44 -57.333 -71 -79s-56 -39.5 -87 -53.5s-63.167 -24.167 -96.5 -30.5s-66 -9.5 -98 -9.5h-572c-24 0 -50 2 -78 6s-55.833 9.83301 -83.5 17.5s-53.834 16.667 -78.501 27s-45.334 21.833 -62.001 34.5l-15 12c-36 -33.333 -78.5 -57.5 -127.5 -72.5
s-106.833 -23.167 -173.5 -24.5h-162zM1343 640.997c-43.333 0 -86.001 -13.001 -128.001 -39.001s-83 -59.833 -123 -101.5s-78.333 -88.5 -115 -140.5s-71 -104 -103 -156h457c6 0 14 0.333008 24 1s20.833 2.16699 32.5 4.5s23.834 5.83301 36.501 10.5s25 10.667 37 18
v-1c12 8 23.5 17.333 34.5 28s20.667 22.834 29 36.501s15.166 29 20.499 46s8 35.5 8 55.5c0 40 -5.5 74.833 -16.5 104.5s-26 54.5 -45 74.5s-41.167 34.833 -66.5 44.5s-52.666 14.5 -81.999 14.5z" />
    <glyph glyph-name="uni0635.medi" unicode="&#x635;" horiz-adv-x="1915" arabic-form="medial" 
d="M651 232l86 139.997c30 48.667 61.5 96.167 94.5 142.5s68.167 90.333 105.5 132s77 78.334 119 110.001s86.667 56.667 134 75s98.333 27.5 153 27.5c50.667 0 100.334 -8.5 149.001 -25.5s92 -43.667 130 -80s68.667 -83.333 92 -141s35 -127.5 35 -209.5
c0 -40 -3.5 -76.333 -10.5 -109s-16.833 -62.667 -29.5 -90h217v-219h-1167c-24 0 -50 2 -78 6s-55.833 9.83301 -83.5 17.5s-53.834 16.667 -78.501 27s-45.334 21.833 -62.001 34.5l-15 12c-36 -33.333 -78.5 -57.5 -127.5 -72.5s-106.833 -23.167 -173.5 -24.5h-162v219
h155c44 0 78.833 4.16699 104.5 12.5s45.334 19 59.001 32s22.667 27.333 27 43s6.5 30.834 6.5 45.501v339h218v-331c0 -15.333 3 -29.666 9 -42.999s14 -25.333 24 -36s21 -19 33 -25s24 -9 36 -9zM1343 640.997c-43.333 0 -86.001 -13.001 -128.001 -39.001
s-83 -59.833 -123 -101.5s-78.333 -88.5 -115 -140.5s-71 -104 -103 -156h457c6 0 14 0.333008 24 1s20.833 2.16699 32.5 4.5s23.834 5.83301 36.501 10.5s25 10.667 37 18v-1c12 8 23.5 17.333 34.5 28s20.667 22.834 29 36.501s15.166 29 20.499 46s8 35.5 8 55.5
c0 40 -5.5 74.833 -16.5 104.5s-26 54.5 -45 74.5s-41.167 34.833 -66.5 44.5s-52.666 14.5 -81.999 14.5z" />
    <glyph glyph-name="uni0636.fina" unicode="&#x636;" horiz-adv-x="2837" arabic-form="final" 
d="M700 -552c-52 0 -102.332 5.99512 -150.999 17.9951s-94.334 29.5 -137.001 52.5s-82 51 -118 84s-67.333 70.5 -94 112.5c-31.333 52 -55.333 106.833 -72 164.5s-25 120.834 -25 189.501c0 86 13 175.167 39 267.5s64.667 192.166 116 299.499l198 -94
c-44.667 -93.333 -78.334 -178.166 -101.001 -254.499s-34 -149.166 -34 -218.499c0 -49.333 5.33301 -92.666 16 -129.999s27.334 -73.666 50.001 -108.999c32 -52 75.333 -92.167 130 -120.5s115.667 -42.5 183 -42.5h219c73.333 0 133 7 179 21s81.833 34.333 107.5 61
s43.167 59.167 52.5 97.5s14 81.833 14 130.5v699h218v-334c0 -14.667 2.83301 -28.667 8.5 -42s13 -25.166 22 -35.499s19 -18.5 30 -24.5s21.833 -9 32.5 -9l99.5 159c33 52 66.833 101.167 101.5 147.5s70.5 89.166 107.5 128.499s75.667 73.333 116 102
s82.5 51 126.5 67s91 24 141 24c50.667 0 100.334 -8.5 149 -25.5c48.667 -17 92.167 -44 130.5 -81s69.333 -84.333 93 -142s35.5 -127.167 35.5 -208.5c0 -40 -3.5 -76.167 -10.5 -108.5s-16.833 -62.166 -29.5 -89.499h222v-219h-1172c-14 0 -30.5 0.166992 -49.5 0.5
s-38 2 -57 5s-37.167 7.83301 -54.5 14.5s-31.333 16 -42 28v-56c0 -180 -47.667 -313.167 -143 -399.5s-238 -129.5 -428 -129.5h-219zM2266 203.995c5.33301 0 12.832 0.331055 22.499 0.998047s20.334 2 32 4c11.667 2 23.834 5.16699 36.501 9.5s24.667 10.5 36 18.5
c12 8 23.833 17.333 35.5 28s22 22.834 31 36.501s16.333 28.834 22 45.501s8.5 35 8.5 55c0 40 -5.5 74.833 -16.5 104.5s-26.333 54.334 -46 74.001s-42.5 34.5 -68.5 44.5s-54 15 -84 15c-42.667 0 -84.167 -13 -124.5 -39s-79.5 -59.833 -117.5 -101.5
s-74.333 -88.334 -109 -140.001l-100 -155.5h442zM2134 1242.99l166 168l170 -170l-168 -168z" />
    </font>
</defs>
</svg>
