<?xml version="1.0" standalone="no"?>
<!DOCTYPE svg PUBLIC "-//W3C//DTD SVG 1.1//EN" "http://www.w3.org/Graphics/SVG/1.1/DTD/svg11.dtd" >
<svg>
<metadata>
Created by FontForge 20090914 at Sun Sep 22 22:58:31 2019
 By www-data
Copyright (c) 2019 by www.fontiran.com (Moslem Ebrahimi). All rights reserved.
</metadata>
<defs>
<font id="IRANYekan" horiz-adv-x="0" >
  <font-face 
    font-family="IRANYekan"
    font-weight="400"
    font-stretch="normal"
    units-per-em="2200"
    panose-1="2 11 5 6 3 8 4 2 2 4"
    ascent="1760"
    descent="-440"
    x-height="1162"
    cap-height="1564"
    bbox="-483.001 -1087 3150 2693"
    underline-thickness="100"
    underline-position="-750"
    unicode-range="U+001D-U+FEFF"
  />
<missing-glyph horiz-adv-x="1229" 
d="M102 -362v1806h1024v-1806h-1024zM217 -248h795v1577h-795v-1577z" />
    <glyph glyph-name="allah" unicode="&#xfedf;&#xfee0;&#xfeea;" horiz-adv-x="2235" arabic-form="isolated" 
d="M1311 1307c-58 0 -103.338 16.002 -136.005 48.002s-49 76.667 -49 134v91l91 15v-106c0 -32 7.33301 -55.333 22 -70s38.667 -22 72 -22c4.66699 0 11.5 0.833008 20.5 2.5s17.833 5.66699 26.5 12s16.334 15.666 23.001 27.999s10 28.833 10 49.5v90l92 20v-110
c0 -32 7.33301 -55.5 22 -70.5s39 -22.5 73 -22.5c4.66699 0 11.334 1.16699 20.001 3.5s17.334 6.66602 26.001 12.999s16 15.666 22 27.999s9 28.5 9 48.5c0 10 -1.16699 22 -3.5 36s-5.16602 28 -8.49902 42l-9.5 39c-3 12 -5.5 21 -7.5 27l85 29
c0.666992 -3.33301 3 -11.166 7 -23.499s8 -27 12 -44s7.66699 -34.833 11 -53.5s5 -36 5 -52c0 -31.333 -5 -58.5 -15 -81.5s-23.167 -42 -39.5 -57s-34.666 -26.167 -54.999 -33.5s-40.5 -11 -60.5 -11c-61.333 0 -108 17.667 -140 53c-16.667 -18 -36 -31.167 -58 -39.5
s-44.333 -12.5 -67 -12.5zM1100 0.00195312c-68.667 0 -126.672 8.8418 -174.005 26.5088s-86.666 42.5 -117.999 74.5s-55.5 70.667 -72.5 116s-29.5 95.666 -37.5 150.999l-62 442l-120 -25c-70 -18 -117.667 -49.333 -143 -94c-19.333 -32.667 -29.666 -72 -30.999 -118
c-0.666992 -8.66699 -1 -17.334 -1 -26.001c0 -38 3.83301 -80.333 11.5 -127s18.667 -96.334 33 -149.001s28.5 -102 42.5 -148l28 -92l-182 -51l-38.5 130c-13.667 45.333 -26.5 91.5 -38.5 138.5s-22.167 94.167 -30.5 141.5s-12.833 94 -13.5 140v10
c0 42.667 4 84.667 12 126s23 81 45 119c54 93.333 141.333 154 262 182c13.333 3.33301 31.833 7.66602 55.5 12.999l70.5 15.5c23.333 5 43.833 9.16699 61.5 12.5s27.167 5 28.5 5l111 -72l81 -525c8 -50 19.333 -90 34 -120s31.834 -53 51.501 -69s41 -26.333 64 -31
s46.5 -7 70.5 -7h2c52.667 0 94.5 6.5 125.5 19.5s54.5 29.333 70.5 49s26.333 41.167 31 64.5s7 45.666 7 66.999l-2 705l190 44v-749c0 -2 -0.166992 -3.83301 -0.5 -5.5s-0.5 -3.16699 -0.5 -4.5h1c0 -36 6.83301 -66.167 20.5 -90.5s31.167 -43.833 52.5 -58.5
s45.166 -25.167 71.499 -31.5s52.166 -9.5 77.499 -9.5h10c40.667 0 75.334 3.5 104.001 10.5s51.667 18.333 69 34s30 36.167 38 61.5s12 56.666 12 93.999l-48 831l188 93l48 -924c0 -22.667 -1 -46.167 -3 -70.5s-6.33301 -48.833 -13 -73.5
s-16.334 -48.834 -29.001 -72.501s-29.667 -45.834 -51 -66.501c-19.333 -18 -38.166 -33.5 -56.499 -46.5s-39.333 -24 -63 -33s-51.167 -15.667 -82.5 -20s-69 -6.5 -113 -6.5h-10c-25.333 0 -52.333 2.16699 -81 6.5s-56.5 10.833 -83.5 19.5s-52.5 19.5 -76.5 32.5
s-44.333 27.833 -61 44.5l-15 15c-19.333 -20 -39.166 -37.333 -59.499 -52s-43.166 -26.834 -68.499 -36.501s-54.166 -17 -86.499 -22s-69.833 -7.5 -112.5 -7.5h-2zM1388.99 1975.01l93 22v-278l-93 -23v279z" />
    <glyph glyph-name="riyal" unicode="&#x631;&#xfef3;&#xfe8e;&#x644;" horiz-adv-x="3327" arabic-form="isolated" 
d="M733 -553c-89.333 0 -170.498 19.5 -243.498 58.5s-132.167 93.833 -177.5 164.5c-18 28.667 -35.333 66.334 -52 113.001s-26.334 103 -29.001 169c-0.666992 10 -1 20.333 -1 31c0 58 8.16699 126.333 24.5 205s50.166 171.334 101.499 278.001l170 -81
c-31.333 -64 -55.833 -125.333 -73.5 -184s-28.5 -114 -32.5 -166c-1.33301 -18 -2 -35.667 -2 -53c0 -32 3.33301 -66.333 10 -103s21 -72.667 43 -108c28 -42.667 64.833 -75.834 110.5 -99.501s96.167 -35.5 151.5 -35.5h72c76 0 138.167 8 186.5 24s86 38.833 113 68.5
s45.5 65.167 55.5 106.5s15 87.666 15 138.999v1453h186v-1453c0 -350 -185.333 -525.667 -556 -527h-72zM2423 -555v188.999h138c68.667 0 128.167 8.16699 178.5 24.5s92 41.5 125 75.5s57.333 77.333 73 130s23.5 115.334 23.5 188.001v624h189v-624
c0 -95.333 -12.5 -180.5 -37.5 -255.5s-62.167 -138.5 -111.5 -190.5s-110.833 -91.833 -184.5 -119.5s-158.834 -41.5 -255.5 -41.5h-138zM2305 -394.001l-162 -162l-156 162l158 160zM1922 -396.001l-162 -162l-156 162l158 160zM2023 -0.000976562
c-70 0.666992 -127.835 5.5 -173.502 14.5s-84.334 22 -116.001 39s-57 38.333 -76 64s-33.833 55.667 -44.5 90s-17.667 72.833 -21 115.5s-5 90 -5 142v962h189v-962c0 -58 1.83301 -105 5.5 -141s13.334 -63.833 29.001 -83.5s39.334 -33 71.001 -40
s78.834 -10.833 141.501 -11.5v-189zM2522 813.999c1.33301 -4 4 -14.668 8 -32.001s8.5 -38.833 13.5 -64.5l16.5 -85c6 -31 11.333 -62.333 16 -94s8.66699 -62.167 12 -91.5s5 -55 5 -77c0 -64 -10.5 -119.167 -31.5 -165.5s-48.333 -84.666 -82 -114.999
s-71.5 -52.833 -113.5 -67.5s-84.333 -22 -127 -22h-255v189h255c10 0 24.167 1.5 42.5 4.5s36.666 10.5 55 22.5c18.333 12 34.333 30 48 54s20.5 57.333 20.5 100c0 14.667 -1.16699 33.167 -3.5 55.5s-5.33301 46.333 -9 72s-7.83398 52 -12.5 79
c-4.66699 27 -9.33398 52.5 -14 76.5c-4.66699 24 -9 45.333 -13 64s-7.33301 32.667 -10 42z" />
    <glyph glyph-name="uni06440622.isol" unicode="&#xfedf;&#xfe82;" horiz-adv-x="1302" arabic-form="isolated" 
d="M222 188h539.003c61.333 0 109.166 4.5 143.499 13.5s60.833 22.833 79.5 41.5c13.333 12.667 23.166 30.5 29.499 53.5s9.5 53.5 9.5 91.5v1039h188v-1039c0 -132.667 -37.833 -230.667 -113.5 -294s-187.834 -95 -336.501 -95h-539v189zM347.003 365l-60 1021l187 21
l61 -1042h-188zM900.003 1560l-483.001 0.000976562c-42 0 -77.333 -1.66699 -106 -5s-52.834 -10 -72.501 -20s-35.667 -24.333 -48 -43s-23.166 -43.334 -32.499 -74.001l-158 47c30.667 107.333 86.334 181 167.001 221c34 17.333 71.667 28.5 113 33.5s87 7.5 137 7.5
h483v-167z" />
    <glyph glyph-name="uni06440622.fina" unicode="&#xfee0;&#xfe82;" horiz-adv-x="1340" arabic-form="final" 
d="M268 366l-60 1021l187 21l61 -1042h-188zM1365 189l0.00195312 -188.999h-51c-60.667 0 -114.167 8.66699 -160.5 26s-83.5 43.333 -111.5 78c-69.333 -69.333 -172 -104 -308 -104h-590v189h590c48 0 86 4.83301 114 14.5s49.167 21.667 63.5 36
s23.666 30.333 27.999 48s6.5 34.5 6.5 50.5v1090h188v-1083c0 -24.667 3.66699 -45.667 11 -63s16.833 -31.833 28.5 -43.5s24.667 -20.834 39 -27.501s28.166 -11.667 41.499 -15s25.333 -5.33301 36 -6s18.667 -1 24 -1h51zM900.002 1567l-483.001 0.000976562
c-42 0 -77.333 -1.66699 -106 -5s-52.834 -10 -72.501 -20s-35.667 -24.333 -48 -43s-23.166 -43.334 -32.499 -74.001l-158 47c30.667 107.333 86.334 181 167.001 221c34 17.333 71.667 28.5 113 33.5s87 7.5 137 7.5h483v-167z" />
    <glyph glyph-name="uni06440623.isol" unicode="&#xfedf;&#xfe84;" horiz-adv-x="1302" arabic-form="isolated" 
d="M164 188h539.003c61.333 0 109.166 4.5 143.499 13.5s60.833 22.833 79.5 41.5c13.333 12.667 23.166 30.5 29.499 53.5s9.5 53.5 9.5 91.5v1039h188v-1039c0 -132.667 -37.833 -230.667 -113.5 -294s-187.834 -95 -336.501 -95h-539v189zM289.003 365l-60 1021l187 21
l61 -1042h-188zM0.00292969 1463l9 126.996l124 37c-36 28.667 -60.667 63.334 -74 104.001c-6 18 -9 36 -9 54c0 8 1.16699 20.833 3.5 38.5s10 38 23 61s30 43 51 60s44.167 29.167 69.5 36.5c18 6 36 9.16699 54 9.5s35.5 -0.666992 52.5 -3s33.167 -6 48.5 -11l43 -14.5
l-25 -101c-11.333 2.66699 -23.333 5.33398 -36 8.00098s-25.334 4.83398 -38.001 6.50098s-24.667 2.33398 -36 2.00098s-20.666 -1.83301 -27.999 -4.5c-11.333 -4 -21.833 -9.5 -31.5 -16.5s-17.667 -15 -24 -24s-10.5 -19.167 -12.5 -30.5c-0.666992 -4 -1 -8 -1 -12
c0 -8 1.33301 -16.333 4 -25c4 -13.333 11.5 -25.5 22.5 -36.5s25.833 -19.5 44.5 -25.5s41 -9 67 -9s56.667 4.66699 92 14l85 25l34 -108z" />
    <glyph glyph-name="uni06440623.fina" unicode="&#xfee0;&#xfe84;" horiz-adv-x="1340" arabic-form="final" 
d="M268 366l-60 1021l187 21l61 -1042h-188zM1365 189l0.00195312 -188.999h-51c-60.667 0 -114.167 8.66699 -160.5 26s-83.5 43.333 -111.5 78c-69.333 -69.333 -172 -104 -308 -104h-590v189h590c48 0 86 4.83301 114 14.5s49.167 21.667 63.5 36
s23.666 30.333 27.999 48s6.5 34.5 6.5 50.5v1090h188v-1083c0 -24.667 3.66699 -45.667 11 -63s16.833 -31.833 28.5 -43.5s24.667 -20.834 39 -27.501s28.166 -11.667 41.499 -15s25.333 -5.33301 36 -6s18.667 -1 24 -1h51zM32.002 1487l9 126.996l124 37
c-36 28.667 -60.667 63.334 -74 104.001c-6 18 -9 36 -9 54c0 8 1.16699 20.833 3.5 38.5s10 38 23 61s30 43 51 60s44.167 29.167 69.5 36.5c18 6 36 9.16699 54 9.5s35.5 -0.666992 52.5 -3s33.167 -6 48.5 -11l43 -14.5l-25 -101
c-11.333 2.66699 -23.333 5.33398 -36 8.00098s-25.334 4.83398 -38.001 6.50098s-24.667 2.33398 -36 2.00098s-20.666 -1.83301 -27.999 -4.5c-11.333 -4 -21.833 -9.5 -31.5 -16.5s-17.667 -15 -24 -24s-10.5 -19.167 -12.5 -30.5c-0.666992 -4 -1 -8 -1 -12
c0 -8 1.33301 -16.333 4 -25c4 -13.333 11.5 -25.5 22.5 -36.5s25.833 -19.5 44.5 -25.5s41 -9 67 -9s56.667 4.66699 92 14l85 25l34 -108z" />
    <glyph glyph-name="uni06440625.isol" unicode="&#xfedf;&#xfe88;" horiz-adv-x="1302" arabic-form="isolated" 
d="M143 188h539.003c61.333 0 109.166 4.5 143.499 13.5s60.833 22.833 79.5 41.5c13.333 12.667 23.166 30.5 29.499 53.5s9.5 53.5 9.5 91.5v1039h188v-1039c0 -132.667 -37.833 -230.667 -113.5 -294s-187.834 -95 -336.501 -95h-539v189zM268.003 365l-60 1021l187 21
l61 -1042h-188zM267.003 -671l9 126.996l124 37c-36 28.667 -60.667 63.334 -74 104.001c-6 18 -9 36 -9 54c0 8 1.16699 20.833 3.5 38.5s10 38 23 61s30 43 51 60s44.167 29.167 69.5 36.5c18 6 36 9.16699 54 9.5s35.5 -0.666992 52.5 -3s33.167 -6 48.5 -11l43 -14.5
l-25 -101c-11.333 2.66699 -23.333 5.33398 -36 8.00098s-25.334 4.83398 -38.001 6.50098s-24.667 2.33398 -36 2.00098s-20.666 -1.83301 -27.999 -4.5c-11.333 -4 -21.833 -9.5 -31.5 -16.5s-17.667 -15 -24 -24s-10.5 -19.167 -12.5 -30.5c-0.666992 -4 -1 -8 -1 -12
c0 -8 1.33301 -16.333 4 -25c4 -13.333 11.5 -25.5 22.5 -36.5s25.833 -19.5 44.5 -25.5s41 -9 67 -9s56.667 4.66699 92 14l85 25l34 -108z" />
    <glyph glyph-name="uni06440625.fina" unicode="&#xfee0;&#xfe88;" horiz-adv-x="1340" arabic-form="final" 
d="M268 366l-60 1021l187 21l61 -1042h-188zM1365 189l0.00195312 -188.999h-51c-60.667 0 -114.167 8.66699 -160.5 26s-83.5 43.333 -111.5 78c-69.333 -69.333 -172 -104 -308 -104h-590v189h590c48 0 86 4.83301 114 14.5s49.167 21.667 63.5 36
s23.666 30.333 27.999 48s6.5 34.5 6.5 50.5v1090h188v-1083c0 -24.667 3.66699 -45.667 11 -63s16.833 -31.833 28.5 -43.5s24.667 -20.834 39 -27.501s28.166 -11.667 41.499 -15s25.333 -5.33301 36 -6s18.667 -1 24 -1h51zM262.002 -667.999l9 126.996l124 37
c-36 28.667 -60.667 63.334 -74 104.001c-6 18 -9 36 -9 54c0 8 1.16699 20.833 3.5 38.5s10 38 23 61s30 43 51 60s44.167 29.167 69.5 36.5c18 6 36 9.16699 54 9.5s35.5 -0.666992 52.5 -3s33.167 -6 48.5 -11l43 -14.5l-25 -101
c-11.333 2.66699 -23.333 5.33398 -36 8.00098s-25.334 4.83398 -38.001 6.50098s-24.667 2.33398 -36 2.00098s-20.666 -1.83301 -27.999 -4.5c-11.333 -4 -21.833 -9.5 -31.5 -16.5s-17.667 -15 -24 -24s-10.5 -19.167 -12.5 -30.5c-0.666992 -4 -1 -8 -1 -12
c0 -8 1.33301 -16.333 4 -25c4 -13.333 11.5 -25.5 22.5 -36.5s25.833 -19.5 44.5 -25.5s41 -9 67 -9s56.667 4.66699 92 14l85 25l34 -108z" />
    <glyph glyph-name="uni06440627.isol" unicode="&#xfedf;&#xfe8e;" horiz-adv-x="1302" arabic-form="isolated" 
d="M143 189h539.003c61.333 0 109.166 4.5 143.499 13.5s60.833 22.833 79.5 41.5c13.333 12.667 23.166 30.5 29.499 53.5s9.5 53.5 9.5 91.5v1039h188v-1039c0 -132.667 -37.833 -230.667 -113.5 -294s-187.834 -95 -336.501 -95h-539v189zM268.003 366l-60 1021l187 21
l61 -1042h-188z" />
    <glyph glyph-name="uni06440627.fina" unicode="&#xfee0;&#xfe8e;" horiz-adv-x="1340" arabic-form="final" 
d="M268 366l-60 1021l187 21l61 -1042h-188zM1365 189l0.00195312 -188.999h-51c-60.667 0 -114.167 8.66699 -160.5 26s-83.5 43.333 -111.5 78c-69.333 -69.333 -172 -104 -308 -104h-590v189h590c48 0 86 4.83301 114 14.5s49.167 21.667 63.5 36
s23.666 30.333 27.999 48s6.5 34.5 6.5 50.5v1090h188v-1083c0 -24.667 3.66699 -45.667 11 -63s16.833 -31.833 28.5 -43.5s24.667 -20.834 39 -27.501s28.166 -11.667 41.499 -15s25.333 -5.33301 36 -6s18.667 -1 24 -1h51z" />
    <glyph glyph-name="uni06440671.isol" unicode="&#xfedf;&#xfb51;" horiz-adv-x="1302" 
d="M143 188h539.003c61.333 0 109.166 4.5 143.499 13.5s60.833 22.833 79.5 41.5c13.333 12.667 23.166 30.5 29.499 53.5s9.5 53.5 9.5 91.5v1039h188v-1039c0 -132.667 -37.833 -230.667 -113.5 -294s-187.834 -95 -336.501 -95h-539v189zM268.003 365l-60 1021l187 21
l61 -1042h-188zM1.00293 1530l19 84.998h129l47 73l83 122c25.333 30.667 53.333 56.334 84 77.001s65 31 103 31c22 0 43.5 -4 64.5 -12s39.833 -20.5 56.5 -37.5s30.167 -38.5 40.5 -64.5s15.5 -56.667 15.5 -92c0 -34 -5.66699 -62.5 -17 -85.5
s-25.666 -41.667 -42.999 -56s-36.833 -24.666 -58.5 -30.999s-42.834 -9.5 -63.501 -9.5h-460zM461.003 1615c28 0 50.999 7.66699 68.999 23s27 40 27 74c0 38.667 -7.83301 68.5 -23.5 89.5s-38.167 31.5 -67.5 31.5c-21.333 0 -41.666 -6.66699 -60.999 -20
s-38 -30.5 -56 -51.5s-35.167 -44.167 -51.5 -69.5s-31.5 -50 -45.5 -74c-0.666992 -0.666992 -1 -1.66699 -1 -3h210z" />
    <glyph glyph-name="uni06440671.fina" unicode="&#xfee0;&#xfb51;" horiz-adv-x="1340" 
d="M268 366l-60 1021l187 21l61 -1042h-188zM1365 189l0.00195312 -188.999h-51c-60.667 0 -114.167 8.66699 -160.5 26s-83.5 43.333 -111.5 78c-69.333 -69.333 -172 -104 -308 -104h-590v189h590c48 0 86 4.83301 114 14.5s49.167 21.667 63.5 36
s23.666 30.333 27.999 48s6.5 34.5 6.5 50.5v1090h188v-1083c0 -24.667 3.66699 -45.667 11 -63s16.833 -31.833 28.5 -43.5s24.667 -20.834 39 -27.501s28.166 -11.667 41.499 -15s25.333 -5.33301 36 -6s18.667 -1 24 -1h51zM-1.99805 1544l19 84.998h129l47 73l83 122
c25.333 30.667 53.333 56.334 84 77.001s65 31 103 31c22 0 43.5 -4 64.5 -12s39.833 -20.5 56.5 -37.5s30.167 -38.5 40.5 -64.5s15.5 -56.667 15.5 -92c0 -34 -5.66699 -62.5 -17 -85.5s-25.666 -41.667 -42.999 -56s-36.833 -24.666 -58.5 -30.999
s-42.834 -9.5 -63.501 -9.5h-460zM458.002 1629c28 0 50.999 7.66699 68.999 23s27 40 27 74c0 38.667 -7.83301 68.5 -23.5 89.5s-38.167 31.5 -67.5 31.5c-21.333 0 -41.666 -6.66699 -60.999 -20s-38 -30.5 -56 -51.5s-35.167 -44.167 -51.5 -69.5s-31.5 -50 -45.5 -74
c-0.666992 -0.666992 -1 -1.66699 -1 -3h210z" />
    <glyph glyph-name="uni0621" unicode="&#x621;" horiz-adv-x="1004" arabic-form="isolated" 
d="M99 -44l-6.00098 182.993l232 69c-33.333 23.333 -62.666 50.333 -87.999 81s-43.666 64.334 -54.999 101.001v-1c-10 30 -15 60 -15 90c0 15.333 2.5 38.333 7.5 69s18.5 66.334 40.5 107.001c15.333 26 33.833 49.5 55.5 70.5s45.5 38.833 71.5 53.5
s53.333 25.834 82 33.501s58 11.5 88 11.5c38.667 0 77.334 -4.5 116.001 -13.5l115 -27.5c-6.66699 -29.333 -13.167 -56.166 -19.5 -80.499s-12.833 -51.166 -19.5 -80.499c-42 8.66699 -78.5 14.834 -109.5 18.501s-59.167 5.5 -84.5 5.5
c-30 0 -57.5 -5.83301 -82.5 -17.5s-45.667 -27.167 -62 -46.5s-27.5 -41 -33.5 -65c-3.33301 -11.333 -5 -22.666 -5 -33.999c0 -14 2.33301 -28 7 -42c8 -25.333 20 -46.833 36 -64.5s34.333 -32 55 -43s42.667 -19 66 -24s46.666 -7.5 69.999 -7.5
c24 0 50.167 2.66699 78.5 8s57.166 12 86.499 20s58 16.667 86 26l76 26l7 -193z" />
    <glyph glyph-name="uni0622" unicode="&#x622;" horiz-adv-x="900" arabic-form="isolated" 
d="M573 0h-189v1277h189v-1277zM900 1438l-483.001 0.000976562c-42 0 -77.333 -1.66699 -106 -5s-52.834 -10 -72.501 -20s-35.667 -24.333 -48 -43s-23.166 -43.334 -32.499 -74.001l-158 47c30.667 107.333 86.334 181 167.001 221c34 17.333 71.667 28.5 113 33.5
s87 7.5 137 7.5h483v-167z" />
    <glyph glyph-name="uni0623" unicode="&#x623;" horiz-adv-x="589" arabic-form="isolated" 
d="M389 0h-189v1277h189v-1277zM29 1369l9 126.996l124 37c-36 28.667 -60.667 63.334 -74 104.001c-6 18 -9 36 -9 54c0 8 1.16699 20.833 3.5 38.5s10 38 23 61s30 43 51 60s44.167 29.167 69.5 36.5c18 6 36 9.16699 54 9.5s35.5 -0.666992 52.5 -3s33.167 -6 48.5 -11
l43 -14.5l-25 -101c-11.333 2.66699 -23.333 5.33398 -36 8.00098s-25.334 4.83398 -38.001 6.50098s-24.667 2.33398 -36 2.00098s-20.666 -1.83301 -27.999 -4.5c-11.333 -4 -21.833 -9.5 -31.5 -16.5s-17.667 -15 -24 -24s-10.5 -19.167 -12.5 -30.5
c-0.666992 -4 -1 -8 -1 -12c0 -8 1.33301 -16.333 4 -25c4 -13.333 11.5 -25.5 22.5 -36.5s25.833 -19.5 44.5 -25.5s41 -9 67 -9s56.667 4.66699 92 14l85 25l34 -108z" />
    <glyph glyph-name="uni0624" unicode="&#x624;" horiz-adv-x="1024" arabic-form="isolated" 
d="M193 -363c100.667 0 185.333 7.66504 254 22.998s123 39 163 71c34.667 28 60.167 63.667 76.5 107s24.5 97.333 24.5 162h-184c-46.667 0 -94 7 -142 21s-91.5 37 -130.5 69s-70.833 73.833 -95.5 125.5s-37 114.834 -37 189.501c0 44 3.83301 83.833 11.5 119.5
s17.334 67.5 29.001 95.5s24.5 52.333 38.5 73s27.667 38.334 41 53.001c36.667 36.667 78.667 65 126 85s98 30 152 30c47.333 0 91.666 -7.33301 132.999 -22s78.333 -36.667 111 -66c90 -84 135 -215.667 135 -395v-378c0 -94.667 -13.833 -176.167 -41.5 -244.5
s-70.5 -125.5 -128.5 -171.5c-58.667 -46 -131.5 -80.167 -218.5 -102.5s-192.833 -33.5 -317.5 -33.5v189zM519.999 671.998c-66 0 -117.335 -23.333 -154.002 -70s-55 -112.334 -55 -197.001c0 -86 26 -145.667 78 -179c12.667 -8 25.667 -14.5 39 -19.5
s26.333 -8.66699 39 -11s24.167 -4 34.5 -5s18.833 -1.5 25.5 -1.5h184v189c0 48.667 -3.66699 89.834 -11 123.501s-16.666 61.5 -27.999 83.5s-24.166 38.833 -38.499 50.5s-28.5 20.167 -42.5 25.5s-27.333 8.5 -40 9.5s-23 1.5 -31 1.5zM182.997 1016l9 126.996l124 37
c-36 28.667 -60.667 63.334 -74 104.001c-6 18 -9 36 -9 54c0 8 1.16699 20.833 3.5 38.5s10 38 23 61s30 43 51 60s44.167 29.167 69.5 36.5c18 6 36 9.16699 54 9.5s35.5 -0.666992 52.5 -3s33.167 -6 48.5 -11l43 -14.5l-25 -101
c-11.333 2.66699 -23.333 5.33398 -36 8.00098s-25.334 4.83398 -38.001 6.50098s-24.667 2.33398 -36 2.00098s-20.666 -1.83301 -27.999 -4.5c-11.333 -4 -21.833 -9.5 -31.5 -16.5s-17.667 -15 -24 -24s-10.5 -19.167 -12.5 -30.5c-0.666992 -4 -1 -8 -1 -12
c0 -8 1.33301 -16.333 4 -25c4 -13.333 11.5 -25.5 22.5 -36.5s25.833 -19.5 44.5 -25.5s41 -9 67 -9s56.667 4.66699 92 14l85 25l34 -108z" />
    <glyph glyph-name="uni0625" unicode="&#x625;" horiz-adv-x="589" arabic-form="isolated" 
d="M389 1h-189v1426h189v-1426zM58 -684l9 126.996l124 37c-36 28.667 -60.667 63.334 -74 104.001c-6 18 -9 36 -9 54c0 8 1.16699 20.833 3.5 38.5s10 38 23 61s30 43 51 60s44.167 29.167 69.5 36.5c18 6 36 9.16699 54 9.5s35.5 -0.666992 52.5 -3s33.167 -6 48.5 -11
l43 -14.5l-25 -101c-11.333 2.66699 -23.333 5.33398 -36 8.00098s-25.334 4.83398 -38.001 6.50098s-24.667 2.33398 -36 2.00098s-20.666 -1.83301 -27.999 -4.5c-11.333 -4 -21.833 -9.5 -31.5 -16.5s-17.667 -15 -24 -24s-10.5 -19.167 -12.5 -30.5
c-0.666992 -4 -1 -8 -1 -12c0 -8 1.33301 -16.333 4 -25c4 -13.333 11.5 -25.5 22.5 -36.5s25.833 -19.5 44.5 -25.5s41 -9 67 -9s56.667 4.66699 92 14l85 25l34 -108z" />
    <glyph glyph-name="uni0626" unicode="&#x626;" horiz-adv-x="1671" arabic-form="isolated" 
d="M933 -361c66.667 0 124.502 5.83301 173.502 17.5s89.5 30.167 121.5 55.5s55.667 58.333 71 99s23 90 23 148l-188 50l-82 21.5l-85.5 23l-83 21.5l-74.5 19c-29.333 71.333 -44 141.666 -44 210.999c0 4 0.5 25.333 1.5 64s15.167 89.667 42.5 153
s66 120.166 116 170.499s107.667 90.5 173 120.5s136.666 48.333 213.999 55c15.333 1.33301 31 2 47 2c62.667 0 127 -9.66699 193 -29l-47 -181c-45.333 14 -91.333 20.833 -138 20.5s-91.5 -7 -134.5 -20s-82.833 -31.833 -119.5 -56.5s-67.834 -54.167 -93.501 -88.5
s-44.167 -72.833 -55.5 -115.5c-8 -28 -12 -57 -12 -87c0 -17.333 1.33301 -34.666 4 -51.999l383 -95c53.333 -14.667 93.333 -38.667 120 -72s40 -74 40 -122c0 -87.333 -10.333 -163.833 -31 -229.5s-53.667 -120.167 -99 -163.5s-103.833 -76 -175.5 -98
s-158.5 -33 -260.5 -33h-221c-50.667 0 -99.667 6.33301 -147 19s-92 30.334 -134 53.001s-80.667 50 -116 82s-66.333 67.333 -93 106c-31.333 50.667 -55 106.334 -71 167.001s-24 124.667 -24 192c0 83.333 13.167 173.166 39.5 269.499s64.833 198.166 115.5 305.499
l84 -40.5l82 -40.5c-88 -188 -132 -351 -132 -489c0 -49.333 6 -96.333 18 -141s28.667 -85 50 -121c34 -53.333 80 -95.166 138 -125.499s121.333 -45.5 190 -45.5h221zM110.002 757l9 126.996l124 37c-36 28.667 -60.667 63.334 -74 104.001c-6 18 -9 36 -9 54
c0 8 1.16699 20.833 3.5 38.5s10 38 23 61s30 43 51 60s44.167 29.167 69.5 36.5c18 6 36 9.16699 54 9.5s35.5 -0.666992 52.5 -3s33.167 -6 48.5 -11l43 -14.5l-25 -101c-11.333 2.66699 -23.333 5.33398 -36 8.00098s-25.334 4.83398 -38.001 6.50098
s-24.667 2.33398 -36 2.00098s-20.666 -1.83301 -27.999 -4.5c-11.333 -4 -21.833 -9.5 -31.5 -16.5s-17.667 -15 -24 -24s-10.5 -19.167 -12.5 -30.5c-0.666992 -4 -1 -8 -1 -12c0 -8 1.33301 -16.333 4 -25c4 -13.333 11.5 -25.5 22.5 -36.5s25.833 -19.5 44.5 -25.5
s41 -9 67 -9s56.667 4.66699 92 14l85 25l34 -108z" />
    <glyph glyph-name="uni0627" unicode="&#x627;" horiz-adv-x="589" arabic-form="isolated" 
d="M389 1h-189v1426h189v-1426z" />
    <glyph glyph-name="uni0628" unicode="&#x628;" horiz-adv-x="2103" arabic-form="isolated" 
d="M1698 185c24.667 0 47.667 4.33496 69 13.002s39.666 20.667 54.999 36c28.667 30.667 43 72.334 43 125.001v11c-0.666992 9.33301 -1.66699 20.666 -3 33.999s-3 28.666 -5 45.999c-2 16.667 -4.16699 33.834 -6.5 51.501s-5.16602 36.5 -8.49902 56.5l-11 65l-14 79
l183 31l16 -79.5c4.66699 -24.333 8.66699 -46.833 12 -67.5c6.66699 -42 12.167 -81.5 16.5 -118.5s7.16602 -66.5 8.49902 -88.5v-20c0 -26.667 -2.33301 -52.834 -7 -78.501s-11.667 -50 -21 -73s-19.833 -43 -31.5 -60s-23.5 -31.5 -35.5 -43.5
c-32.667 -34.667 -71.667 -61.334 -117 -80.001s-93 -28 -143 -28h-1254c-46.667 0.666992 -91 8.83398 -133 24.501s-79 38.5 -111 68.5c-13.333 12 -26.666 26.667 -39.999 44s-25.5 37.666 -36.5 60.999s-19.833 50 -26.5 80s-10 63.667 -10 101
c0 33.333 3.33301 70 10 110s14.167 77.833 22.5 113.5s16.333 66.667 24 93s12.5 42.5 14.5 48.5l180 -57l-16.5 -59.5c-7 -25.667 -14 -53.167 -21 -82.5s-13 -58.833 -18 -88.5s-7.5 -55.5 -7.5 -77.5c0 -44 7 -78.667 21 -104s30.5 -44.333 49.5 -57s38 -20.667 57 -24
s33.5 -5 43.5 -5h1252zM888 -348.998l170 172l174 -174l-172 -172z" />
    <glyph glyph-name="uni0629" unicode="&#x629;" horiz-adv-x="1042" arabic-form="isolated" 
d="M525 0c-60 0 -115.166 9.1709 -165.499 27.5039s-94 43.666 -131 75.999s-65.833 70.666 -86.5 114.999s-31 92.5 -31 144.5c0 66.667 8.83301 125.5 26.5 176.5s40.167 97 67.5 138s57.333 78.5 90 112.5l94 100l-62 69l140 127l107.5 -116.5l108.5 -118
c35.333 -39.667 68.5 -79.334 99.5 -119.001s58.167 -79.334 81.5 -119.001s42 -79.167 56 -118.5c12.667 -38 19 -75.333 19 -112v-6c-0.666992 -54 -11.5 -104.5 -32.5 -151.5s-51.5 -88.5 -91.5 -124.5c-37.333 -32 -80.833 -56.833 -130.5 -74.5
s-102.834 -26.5 -159.501 -26.5zM512.001 755.004l-76.002 -85.5c-25.333 -28.333 -48 -58.166 -68 -89.499s-36.333 -64.666 -49 -99.999s-19 -74.333 -19 -117c0 -30 6.5 -55.833 19.5 -77.5s30 -39.667 51 -54s45 -25 72 -32s54.5 -10.5 82.5 -10.5
c34 0 64.833 4.5 92.5 13.5s51.334 21.833 71.001 38.5s34.834 36.5 45.501 59.5s16 48.5 16 76.5c0 33.333 -7 66.166 -21 98.499s-32.167 64.166 -54.5 95.499s-47.833 62.333 -76.5 93zM693.999 1214l-158 160l156 162l162 -162zM310.999 1216l-158 160l156 162l162 -162
z" />
    <glyph glyph-name="uni062A" unicode="&#x62a;" horiz-adv-x="2103" arabic-form="isolated" 
d="M1698 185c24.667 0 47.667 4.33496 69 13.002s39.666 20.667 54.999 36c28.667 30.667 43 72.334 43 125.001v11c-0.666992 9.33301 -1.66699 20.666 -3 33.999s-3 28.666 -5 45.999c-2 16.667 -4.16699 33.834 -6.5 51.501s-5.16602 36.5 -8.49902 56.5l-11 65l-14 79
l183 31l16 -79.5c4.66699 -24.333 8.66699 -46.833 12 -67.5c6.66699 -42 12.167 -81.5 16.5 -118.5s7.16602 -66.5 8.49902 -88.5v-20c0 -26.667 -2.33301 -52.834 -7 -78.501s-11.667 -50 -21 -73s-19.833 -43 -31.5 -60s-23.5 -31.5 -35.5 -43.5
c-32.667 -34.667 -71.667 -61.334 -117 -80.001s-93 -28 -143 -28h-1254c-46.667 0.666992 -91 8.83398 -133 24.501s-79 38.5 -111 68.5c-13.333 12 -26.666 26.667 -39.999 44s-25.5 37.666 -36.5 60.999s-19.833 50 -26.5 80s-10 63.667 -10 101
c0 33.333 3.33301 70 10 110s14.167 77.833 22.5 113.5s16.333 66.667 24 93s12.5 42.5 14.5 48.5l180 -57l-16.5 -59.5c-7 -25.667 -14 -53.167 -21 -82.5s-13 -58.833 -18 -88.5s-7.5 -55.5 -7.5 -77.5c0 -44 7 -78.667 21 -104s30.5 -44.333 49.5 -57s38 -20.667 57 -24
s33.5 -5 43.5 -5h1252zM1263 766.002l-158 160l156 162l162 -162zM880 768.002l-158 160l156 162l162 -162z" />
    <glyph glyph-name="uni062B" unicode="&#x62b;" horiz-adv-x="2103" arabic-form="isolated" 
d="M1698 185c24.667 0 47.667 4.33496 69 13.002s39.666 20.667 54.999 36c28.667 30.667 43 72.334 43 125.001v11c-0.666992 9.33301 -1.66699 20.666 -3 33.999s-3 28.666 -5 45.999c-2 16.667 -4.16699 33.834 -6.5 51.501s-5.16602 36.5 -8.49902 56.5l-11 65l-14 79
l183 31l16 -79.5c4.66699 -24.333 8.66699 -46.833 12 -67.5c6.66699 -42 12.167 -81.5 16.5 -118.5s7.16602 -66.5 8.49902 -88.5v-20c0 -26.667 -2.33301 -52.834 -7 -78.501s-11.667 -50 -21 -73s-19.833 -43 -31.5 -60s-23.5 -31.5 -35.5 -43.5
c-32.667 -34.667 -71.667 -61.334 -117 -80.001s-93 -28 -143 -28h-1254c-46.667 0.666992 -91 8.83398 -133 24.501s-79 38.5 -111 68.5c-13.333 12 -26.666 26.667 -39.999 44s-25.5 37.666 -36.5 60.999s-19.833 50 -26.5 80s-10 63.667 -10 101
c0 33.333 3.33301 70 10 110s14.167 77.833 22.5 113.5s16.333 66.667 24 93s12.5 42.5 14.5 48.5l180 -57l-16.5 -59.5c-7 -25.667 -14 -53.167 -21 -82.5s-13 -58.833 -18 -88.5s-7.5 -55.5 -7.5 -77.5c0 -44 7 -78.667 21 -104s30.5 -44.333 49.5 -57s38 -20.667 57 -24
s33.5 -5 43.5 -5h1252zM1225 1170l-142 -139l-140 139l144 143zM1274 718.002l-158 160l156 162l162 -162zM891 720.002l-158 160l156 162l162 -162z" />
    <glyph glyph-name="uni062C" unicode="&#x62c;" horiz-adv-x="1449" arabic-form="isolated" 
d="M1342 603c-1.33301 -0.666992 -11.8291 -4.83984 -31.4961 -12.5068l-99 -38l-186 -70l-293.5 -109.5c-72 -27.333 -133.667 -52.166 -185 -74.499s-94 -43.666 -128 -63.999s-60.5 -40.333 -79.5 -60s-32.833 -39.667 -41.5 -60s-13.334 -42.166 -14.001 -65.499v-10
c0 -20.667 1.66699 -42.667 5 -66c8.66699 -70 26.667 -127 54 -171s62.166 -78.167 104.499 -102.5s91.833 -41 148.5 -50s118.667 -13.5 186 -13.5h459v-189h-459c-30.667 0 -63.167 0.833008 -97.5 2.5s-69.333 5.33398 -105 11.001s-71.5 13.834 -107.5 24.501
s-71 25 -105 43c-150.667 81.333 -239 221.333 -265 420c-4 29.333 -6 57.333 -6 84c0 46 7.5 93.167 22.5 141.5s47.167 96.166 96.5 143.499c46.667 44.667 107.5 84.834 182.5 120.501s164.833 72.834 269.5 111.501l419 150c-64.667 26 -129.334 50.667 -194.001 74
s-124.167 43.833 -178.5 61.5s-100.833 32 -139.5 43s-64.334 17.5 -77.001 19.5c-11.333 0 -23.166 -1 -35.499 -3s-24.5 -8 -36.5 -18s-23.667 -25.5 -35 -46.5s-22 -50.5 -32 -88.5l-183 48c51.333 197.333 159.333 296 324 296c4.66699 0 10.167 -0.166992 16.5 -0.5
s16 -2 29 -5s29.833 -7.66699 50.5 -14s47.667 -15.166 81 -26.499s73.666 -25.833 120.999 -43.5l170 -65.5l368 -150zM677.004 41.9941l170 172l174 -174l-172 -172z" />
    <glyph glyph-name="uni062D" unicode="&#x62d;" horiz-adv-x="1449" arabic-form="isolated" 
d="M1342 603c-1.33301 -0.666992 -11.8291 -4.83984 -31.4961 -12.5068l-99 -38l-186 -70l-293.5 -109.5c-72 -27.333 -133.667 -52.166 -185 -74.499s-94 -43.666 -128 -63.999s-60.5 -40.333 -79.5 -60s-32.833 -39.667 -41.5 -60s-13.334 -42.166 -14.001 -65.499v-10
c0 -20.667 1.66699 -42.667 5 -66c8.66699 -70 26.667 -127 54 -171s62.166 -78.167 104.499 -102.5s91.833 -41 148.5 -50s118.667 -13.5 186 -13.5h459v-189h-459c-30.667 0 -63.167 0.833008 -97.5 2.5s-69.333 5.33398 -105 11.001s-71.5 13.834 -107.5 24.501
s-71 25 -105 43c-150.667 81.333 -239 221.333 -265 420c-4 29.333 -6 57.333 -6 84c0 46 7.5 93.167 22.5 141.5s47.167 96.166 96.5 143.499c46.667 44.667 107.5 84.834 182.5 120.501s164.833 72.834 269.5 111.501l419 150c-64.667 26 -129.334 50.667 -194.001 74
s-124.167 43.833 -178.5 61.5s-100.833 32 -139.5 43s-64.334 17.5 -77.001 19.5c-11.333 0 -23.166 -1 -35.499 -3s-24.5 -8 -36.5 -18s-23.667 -25.5 -35 -46.5s-22 -50.5 -32 -88.5l-183 48c51.333 197.333 159.333 296 324 296c4.66699 0 10.167 -0.166992 16.5 -0.5
s16 -2 29 -5s29.833 -7.66699 50.5 -14s47.667 -15.166 81 -26.499s73.666 -25.833 120.999 -43.5l170 -65.5l368 -150z" />
    <glyph glyph-name="uni062E" unicode="&#x62e;" horiz-adv-x="1449" arabic-form="isolated" 
d="M1342 603c-1.33301 -0.666992 -11.8291 -4.83984 -31.4961 -12.5068l-99 -38l-186 -70l-293.5 -109.5c-72 -27.333 -133.667 -52.166 -185 -74.499s-94 -43.666 -128 -63.999s-60.5 -40.333 -79.5 -60s-32.833 -39.667 -41.5 -60s-13.334 -42.166 -14.001 -65.499v-10
c0 -20.667 1.66699 -42.667 5 -66c8.66699 -70 26.667 -127 54 -171s62.166 -78.167 104.499 -102.5s91.833 -41 148.5 -50s118.667 -13.5 186 -13.5h459v-189h-459c-30.667 0 -63.167 0.833008 -97.5 2.5s-69.333 5.33398 -105 11.001s-71.5 13.834 -107.5 24.501
s-71 25 -105 43c-150.667 81.333 -239 221.333 -265 420c-4 29.333 -6 57.333 -6 84c0 46 7.5 93.167 22.5 141.5s47.167 96.166 96.5 143.499c46.667 44.667 107.5 84.834 182.5 120.501s164.833 72.834 269.5 111.501l419 150c-64.667 26 -129.334 50.667 -194.001 74
s-124.167 43.833 -178.5 61.5s-100.833 32 -139.5 43s-64.334 17.5 -77.001 19.5c-11.333 0 -23.166 -1 -35.499 -3s-24.5 -8 -36.5 -18s-23.667 -25.5 -35 -46.5s-22 -50.5 -32 -88.5l-183 48c51.333 197.333 159.333 296 324 296c4.66699 0 10.167 -0.166992 16.5 -0.5
s16 -2 29 -5s29.833 -7.66699 50.5 -14s47.667 -15.166 81 -26.499s73.666 -25.833 120.999 -43.5l170 -65.5l368 -150zM332.004 1465.99l170 172l174 -174l-172 -172z" />
    <glyph glyph-name="uni062F" unicode="&#x62f;" horiz-adv-x="1080" arabic-form="isolated" 
d="M543 -15c-34 0 -68.333 1.5 -103 4.5s-68.5 7.66699 -101.5 14s-64.667 14.666 -95 24.999s-57.833 22.833 -82.5 37.5l-83 47l94 165l83 -47c23.333 -13.333 52 -24.166 86 -32.499s70 -14.166 108 -17.499c32.667 -3.33301 65.334 -5 98.001 -5c6 0 20 0.166992 42 0.5
s49.333 2.83301 82 7.5c38.667 6 70.5 14.5 95.5 25.5s40.833 23.5 47.5 37.5c2.66699 6.66699 4 14 4 22c0 11.333 -3.33301 27.166 -10 47.499s-20.667 46.5 -42 78.5l-362 547l160 104l27 -41.5l33 -50l44 -67l61 -92.5l84 -126l112 -168
c16.667 -25.333 31.667 -51.833 45 -79.5s23.333 -55.5 30 -83.5c6 -25.333 9 -50.666 9 -75.999c0 -2.66699 -0.333008 -11.834 -1 -27.501s-7.33398 -37.167 -20.001 -64.5c-42 -94 -138.667 -152 -290 -174c-23.333 -3.33301 -48 -6 -74 -8s-53 -3 -81 -3z" />
    <glyph glyph-name="uni0630" unicode="&#x630;" horiz-adv-x="1080" arabic-form="isolated" 
d="M543 -15c-34 0 -68.333 1.5 -103 4.5s-68.5 7.66699 -101.5 14s-64.667 14.666 -95 24.999s-57.833 22.833 -82.5 37.5l-83 47l94 165l83 -47c23.333 -13.333 52 -24.166 86 -32.499s70 -14.166 108 -17.499c32.667 -3.33301 65.334 -5 98.001 -5c6 0 20 0.166992 42 0.5
s49.333 2.83301 82 7.5c38.667 6 70.5 14.5 95.5 25.5s40.833 23.5 47.5 37.5c2.66699 6.66699 4 14 4 22c0 11.333 -3.33301 27.166 -10 47.499s-20.667 46.5 -42 78.5l-362 547l160 104l27 -41.5l33 -50l44 -67l61 -92.5l84 -126l112 -168
c16.667 -25.333 31.667 -51.833 45 -79.5s23.333 -55.5 30 -83.5c6 -25.333 9 -50.666 9 -75.999c0 -2.66699 -0.333008 -11.834 -1 -27.501s-7.33398 -37.167 -20.001 -64.5c-42 -94 -138.667 -152 -290 -174c-23.333 -3.33301 -48 -6 -74 -8s-53 -3 -81 -3zM369 1414
l170 172l174 -174l-172 -172z" />
    <glyph glyph-name="uni0631" unicode="&#x631;" horiz-adv-x="825" arabic-form="isolated" 
d="M0 -555l0.000976562 188.999h138c68.667 0 128.167 8.16699 178.5 24.5s92 41.5 125 75.5s57.333 77.333 73 130s23.5 115.334 23.5 188.001v624h189v-624c0 -95.333 -12.5 -180.5 -37.5 -255.5s-62.167 -138.5 -111.5 -190.5s-110.833 -91.833 -184.5 -119.5
s-158.834 -41.5 -255.501 -41.5h-138z" />
    <glyph glyph-name="uni0632" unicode="&#x632;" horiz-adv-x="825" arabic-form="isolated" 
d="M0 -555l0.000976562 188.999h138c68.667 0 128.167 8.16699 178.5 24.5s92 41.5 125 75.5s57.333 77.333 73 130s23.5 115.334 23.5 188.001v624h189v-624c0 -95.333 -12.5 -180.5 -37.5 -255.5s-62.167 -138.5 -111.5 -190.5s-110.833 -91.833 -184.5 -119.5
s-158.834 -41.5 -255.501 -41.5h-138zM453.001 1109l170 172l174 -174l-172 -172z" />
    <glyph glyph-name="uni0633" unicode="&#x633;" horiz-adv-x="2736" arabic-form="isolated" 
d="M2285 0c-66 0 -123.832 9.66699 -173.499 29s-91.167 47.333 -124.5 84c-18 -21.333 -38.167 -39.166 -60.5 -53.499s-45.333 -26 -69 -35s-47.667 -15.333 -72 -19s-47.833 -5.5 -70.5 -5.5c-83.333 0 -155.333 18.667 -216 56v-84
c0 -174.667 -46.667 -305.667 -140 -393s-233 -131 -419 -131h-235c-103.333 0 -197 22.333 -281 67s-152 108.334 -204 191.001c-36 56.667 -61.667 119.667 -77 189c-12.667 54 -19 110.667 -19 170c0 17.333 1.5 50.333 4.5 99s16.833 116.667 41.5 204
s59 177.333 103 270l170 -83c-37.333 -77.333 -66.833 -151.666 -88.5 -222.999s-35.167 -138.666 -40.5 -201.999c-2 -21.333 -3 -42 -3 -62c0 -40.667 4.5 -83.667 13.5 -129s27.167 -89.333 54.5 -132c34.667 -54 80 -95.833 136 -125.5s119.333 -44.5 190 -44.5h235
c76.667 0 139.167 8 187.5 24s86 38.667 113 68s45.333 64.5 55 105.5s14.5 86.833 14.5 137.5v704h189v-195c0 -64 6.16699 -115.167 18.5 -153.5s28.666 -67.833 48.999 -88.5s43.333 -34.334 69 -41.001s52.167 -10 79.5 -10c16.667 0 35.667 3 57 9
s41.333 16.167 60 30.5s34.5 33.5 47.5 57.5s19.5 54 19.5 90v301h188v-311c1.33301 -60.667 17.5 -105.334 48.5 -134.001s80.5 -43 148.5 -43c11.333 0.666992 26.166 3.16699 44.5 7.5c18.333 4.33301 36 13 53 26s31.667 31.667 44 56s18.5 56.833 18.5 97.5
c0 14.667 -1.16699 33 -3.5 55s-5.16602 45.5 -8.5 70.5c-3.33301 25 -7.33301 50.667 -12 77l-13.5 74.5c-4.33301 23.333 -8.5 44.166 -12.5 62.499s-7.33301 32.166 -10 41.499l180 55c1.33301 -3.33301 3.83301 -13.5 7.5 -30.5l13.5 -63
c5.33301 -25 10.833 -52.833 16.5 -83.5s10.834 -61.5 15.5 -92.5c4.66699 -31 8.5 -61 11.5 -90s4.5 -54.5 4.5 -76.5c0 -63.333 -10.167 -118.166 -30.5 -164.499s-47 -85 -80 -116s-70.333 -54.333 -112 -70s-83.5 -23.834 -125.5 -24.501z" />
    <glyph glyph-name="uni0634" unicode="&#x634;" horiz-adv-x="2736" arabic-form="isolated" 
d="M2285 0c-66 0 -123.832 9.66699 -173.499 29s-91.167 47.333 -124.5 84c-18 -21.333 -38.167 -39.166 -60.5 -53.499s-45.333 -26 -69 -35s-47.667 -15.333 -72 -19s-47.833 -5.5 -70.5 -5.5c-83.333 0 -155.333 18.667 -216 56v-84
c0 -174.667 -46.667 -305.667 -140 -393s-233 -131 -419 -131h-235c-103.333 0 -197 22.333 -281 67s-152 108.334 -204 191.001c-36 56.667 -61.667 119.667 -77 189c-12.667 54 -19 110.667 -19 170c0 17.333 1.5 50.333 4.5 99s16.833 116.667 41.5 204
s59 177.333 103 270l170 -83c-37.333 -77.333 -66.833 -151.666 -88.5 -222.999s-35.167 -138.666 -40.5 -201.999c-2 -21.333 -3 -42 -3 -62c0 -40.667 4.5 -83.667 13.5 -129s27.167 -89.333 54.5 -132c34.667 -54 80 -95.833 136 -125.5s119.333 -44.5 190 -44.5h235
c76.667 0 139.167 8 187.5 24s86 38.667 113 68s45.333 64.5 55 105.5s14.5 86.833 14.5 137.5v704h189v-195c0 -64 6.16699 -115.167 18.5 -153.5s28.666 -67.833 48.999 -88.5s43.333 -34.334 69 -41.001s52.167 -10 79.5 -10c16.667 0 35.667 3 57 9
s41.333 16.167 60 30.5s34.5 33.5 47.5 57.5s19.5 54 19.5 90v301h188v-311c1.33301 -60.667 17.5 -105.334 48.5 -134.001s80.5 -43 148.5 -43c11.333 0.666992 26.166 3.16699 44.5 7.5c18.333 4.33301 36 13 53 26s31.667 31.667 44 56s18.5 56.833 18.5 97.5
c0 14.667 -1.16699 33 -3.5 55s-5.16602 45.5 -8.5 70.5c-3.33301 25 -7.33301 50.667 -12 77l-13.5 74.5c-4.33301 23.333 -8.5 44.166 -12.5 62.499s-7.33301 32.166 -10 41.499l180 55c1.33301 -3.33301 3.83301 -13.5 7.5 -30.5l13.5 -63
c5.33301 -25 10.833 -52.833 16.5 -83.5s10.834 -61.5 15.5 -92.5c4.66699 -31 8.5 -61 11.5 -90s4.5 -54.5 4.5 -76.5c0 -63.333 -10.167 -118.166 -30.5 -164.499s-47 -85 -80 -116s-70.333 -54.333 -112 -70s-83.5 -23.834 -125.5 -24.501zM2099 1392l-142 -139l-140 139
l144 143zM2148 940l-158 160l156 162l162 -162zM1765 942l-158 160l156 162l162 -162z" />
    <glyph glyph-name="uni0635" unicode="&#x635;" horiz-adv-x="2793" arabic-form="isolated" 
d="M720 -550c-104 0 -198.166 22.502 -282.499 67.502s-152.5 109.167 -204.5 192.5c-36 56.667 -61.667 119.667 -77 189c-12.667 53.333 -19 109.333 -19 168c0 17.333 1.5 50.166 4.5 98.499s16.667 115.666 41 201.999s58.5 175.5 102.5 267.5l171 -81
c-74.667 -154.667 -117.334 -295.667 -128.001 -423c-2 -20.667 -3 -41 -3 -61c0 -101.333 23 -188.333 69 -261c33.333 -54 78.333 -95.833 135 -125.5s120.334 -44.5 191.001 -44.5h235c76.667 0 138.834 8.16699 186.501 24.5s85 39.166 112 68.499
s45.333 64.833 55 106.5s14.5 87.834 14.5 138.501v699h188v-334c0 -36 7.66699 -64.333 23 -85s33 -36 53 -46l23.5 39c7.66699 13.333 16.167 26.666 25.5 39.999l80.5 130c28.333 44.667 58 88 89 130s63.667 81.833 98 119.5s70.833 70.5 109.5 98.5
s79.5 50.167 122.5 66.5s88.833 24.5 137.5 24.5s96.5 -9 143.5 -27s89 -45.833 126 -83.5s66.833 -85.167 89.5 -142.5s34 -125.333 34 -204c0 -74 -12.167 -136.5 -36.5 -187.5s-55.833 -92.5 -94.5 -124.5s-81.834 -55 -129.5 -69c-47.667 -14 -94.834 -21 -141.501 -21
h-573c-32 0 -63.333 3.33301 -94 10s-59.334 16.334 -86.001 29.001v-62c0 -351.333 -185.333 -527 -556 -527h-235zM2264 189.002c6 0 13.999 0.334961 23.999 1.00195s21.167 2.16699 33.5 4.5s25.166 5.83301 38.5 10.5c13.333 4.66699 26.333 11.334 39 20.001
c52 34.667 78 93.667 78 177c0 84.667 -17.833 150.5 -53.5 197.5s-85.834 70.5 -150.5 70.5c-30.667 0 -60.834 -7 -90.5 -21c-29.667 -14 -58.5 -32.833 -86.5 -56.5s-55.333 -51.334 -82 -83.001s-52.667 -65.334 -78 -101.001s-49.666 -72.334 -72.999 -110.001
l-68 -109.5h469z" />
    <glyph glyph-name="uni0636" unicode="&#x636;" horiz-adv-x="2793" arabic-form="isolated" 
d="M720 -550c-104 0 -198.166 22.502 -282.499 67.502s-152.5 109.167 -204.5 192.5c-36 56.667 -61.667 119.667 -77 189c-12.667 53.333 -19 109.333 -19 168c0 17.333 1.5 50.166 4.5 98.499s16.667 115.666 41 201.999s58.5 175.5 102.5 267.5l171 -81
c-74.667 -154.667 -117.334 -295.667 -128.001 -423c-2 -20.667 -3 -41 -3 -61c0 -101.333 23 -188.333 69 -261c33.333 -54 78.333 -95.833 135 -125.5s120.334 -44.5 191.001 -44.5h235c76.667 0 138.834 8.16699 186.501 24.5s85 39.166 112 68.499
s45.333 64.833 55 106.5s14.5 87.834 14.5 138.501v699h188v-334c0 -36 7.66699 -64.333 23 -85s33 -36 53 -46l23.5 39c7.66699 13.333 16.167 26.666 25.5 39.999l80.5 130c28.333 44.667 58 88 89 130s63.667 81.833 98 119.5s70.833 70.5 109.5 98.5
s79.5 50.167 122.5 66.5s88.833 24.5 137.5 24.5s96.5 -9 143.5 -27s89 -45.833 126 -83.5s66.833 -85.167 89.5 -142.5s34 -125.333 34 -204c0 -74 -12.167 -136.5 -36.5 -187.5s-55.833 -92.5 -94.5 -124.5s-81.834 -55 -129.5 -69c-47.667 -14 -94.834 -21 -141.501 -21
h-573c-32 0 -63.333 3.33301 -94 10s-59.334 16.334 -86.001 29.001v-62c0 -351.333 -185.333 -527 -556 -527h-235zM2264 189.002c6 0 13.999 0.334961 23.999 1.00195s21.167 2.16699 33.5 4.5s25.166 5.83301 38.5 10.5c13.333 4.66699 26.333 11.334 39 20.001
c52 34.667 78 93.667 78 177c0 84.667 -17.833 150.5 -53.5 197.5s-85.834 70.5 -150.5 70.5c-30.667 0 -60.834 -7 -90.5 -21c-29.667 -14 -58.5 -32.833 -86.5 -56.5s-55.333 -51.334 -82 -83.001s-52.667 -65.334 -78 -101.001s-49.666 -72.334 -72.999 -110.001
l-68 -109.5h469zM2087 1229l170 172l174 -174l-172 -172z" />
    <glyph glyph-name="uni0637" unicode="&#x637;" horiz-adv-x="1525" arabic-form="isolated" 
d="M87 0v189h224c16.667 25.333 33 52 49 80s32.667 55 50 81v1077h188v-807c28.667 34 58.5 65.833 89.5 95.5s63.667 55.167 98 76.5s70.333 38.166 108 50.499s77.167 18.5 118.5 18.5c48.667 0 96.667 -9 144 -27s89.5 -45.667 126.5 -83s66.833 -84.666 89.5 -141.999
s34 -125.333 34 -204c0 -50 -5.66699 -94.667 -17 -134s-26.833 -74 -46.5 -104s-42.667 -55.5 -69 -76.5s-54.5 -38.333 -84.5 -52s-61.167 -23.5 -93.5 -29.5s-63.833 -9 -94.5 -9h-914zM1001 189c6 0 14.1631 0.334961 24.4961 1.00195s21.833 2.33398 34.5 5.00098
s25.834 6.33398 39.501 11.001s26.834 11 39.501 19c26.667 17.333 46.334 40.666 59.001 69.999s19 66 19 110c0 84.667 -18 150.5 -54 197.5s-86.333 70.5 -151 70.5c-30.667 0 -60.667 -6.83301 -90 -20.5s-58.166 -32.334 -86.499 -56.001
s-55.833 -51.334 -82.5 -83.001s-52.5 -65.334 -77.5 -101.001s-49.167 -72.334 -72.5 -110.001l-67 -109.5c-1.33301 -1.33301 -2 -2.66602 -2 -3.99902h467z" />
    <glyph glyph-name="uni0638" unicode="&#x638;" horiz-adv-x="1525" arabic-form="isolated" 
d="M87 0v189h224c16.667 25.333 33 52 49 80s32.667 55 50 81v1077h188v-807c28.667 34 58.5 65.833 89.5 95.5s63.667 55.167 98 76.5s70.333 38.166 108 50.499s77.167 18.5 118.5 18.5c48.667 0 96.667 -9 144 -27s89.5 -45.667 126.5 -83s66.833 -84.666 89.5 -141.999
s34 -125.333 34 -204c0 -50 -5.66699 -94.667 -17 -134s-26.833 -74 -46.5 -104s-42.667 -55.5 -69 -76.5s-54.5 -38.333 -84.5 -52s-61.167 -23.5 -93.5 -29.5s-63.833 -9 -94.5 -9h-914zM1001 189c6 0 14.1631 0.334961 24.4961 1.00195s21.833 2.33398 34.5 5.00098
s25.834 6.33398 39.501 11.001s26.834 11 39.501 19c26.667 17.333 46.334 40.666 59.001 69.999s19 66 19 110c0 84.667 -18 150.5 -54 197.5s-86.333 70.5 -151 70.5c-30.667 0 -60.667 -6.83301 -90 -20.5s-58.166 -32.334 -86.499 -56.001
s-55.833 -51.334 -82.5 -83.001s-52.5 -65.334 -77.5 -101.001s-49.167 -72.334 -72.5 -110.001l-67 -109.5c-1.33301 -1.33301 -2 -2.66602 -2 -3.99902h467zM868.996 1287l170 172l174 -174l-172 -172z" />
    <glyph glyph-name="uni0639" unicode="&#x639;" horiz-adv-x="1384" arabic-form="isolated" 
d="M1193 -552l-465 -0.00292969c-80 0 -158.5 11 -235.5 33s-145.833 55.833 -206.5 101.5s-109.5 103.5 -146.5 173.5s-55.5 153 -55.5 249c0 80.667 16 156.334 48 227.001s78 131.334 138 182.001c38 32 79.667 58.833 125 80.5s92 37.167 140 46.5
c-26 26 -47 52.833 -63 80.5s-28.333 54.167 -37 79.5s-14.5 49.166 -17.5 71.499s-4.5 41.5 -4.5 57.5c0 54.667 11 106 33 154s51.5 90 88.5 126s80 64.333 129 85s100.5 31 154.5 31c36.667 0 71.334 -4.66699 104.001 -14s64.167 -21.333 94.5 -36s60 -31 89 -49
l89.5 -53l-94 -163l-72 42.5c-24.667 15 -49 28.667 -73 41s-47.667 22.5 -71 30.5s-45.666 12 -66.999 12c-26 0 -52 -4.83301 -78 -14.5s-49.167 -23.5 -69.5 -41.5s-37 -39.667 -50 -65s-19.5 -54 -19.5 -86c0 -10 1 -21.667 3 -35s6.16699 -27.833 12.5 -43.5
s15.166 -31.667 26.499 -48s26.666 -32.166 45.999 -47.499c44 -34.667 101 -61 171 -79s151.667 -27 245 -27h127v-189h-605c-24 0 -49.333 -3.16699 -76 -9.5s-53.167 -16 -79.5 -29s-51.5 -29.167 -75.5 -48.5s-45 -42.166 -63 -68.499s-32.5 -56.166 -43.5 -89.499
s-16.5 -70.333 -16.5 -111c0 -58 9.5 -107.5 28.5 -148.5s43.167 -75.167 72.5 -102.5s62 -48.833 98 -64.5s70.833 -27.334 104.5 -35.001s64.167 -12.5 91.5 -14.5s47.333 -3 60 -3h465v-189z" />
    <glyph glyph-name="uni063A" unicode="&#x63a;" horiz-adv-x="1384" arabic-form="isolated" 
d="M1193 -552l-465 -0.00292969c-80 0 -158.5 11 -235.5 33s-145.833 55.833 -206.5 101.5s-109.5 103.5 -146.5 173.5s-55.5 153 -55.5 249c0 80.667 16 156.334 48 227.001s78 131.334 138 182.001c38 32 79.667 58.833 125 80.5s92 37.167 140 46.5
c-26 26 -47 52.833 -63 80.5s-28.333 54.167 -37 79.5s-14.5 49.166 -17.5 71.499s-4.5 41.5 -4.5 57.5c0 54.667 11 106 33 154s51.5 90 88.5 126s80 64.333 129 85s100.5 31 154.5 31c36.667 0 71.334 -4.66699 104.001 -14s64.167 -21.333 94.5 -36s60 -31 89 -49
l89.5 -53l-94 -163l-72 42.5c-24.667 15 -49 28.667 -73 41s-47.667 22.5 -71 30.5s-45.666 12 -66.999 12c-26 0 -52 -4.83301 -78 -14.5s-49.167 -23.5 -69.5 -41.5s-37 -39.667 -50 -65s-19.5 -54 -19.5 -86c0 -10 1 -21.667 3 -35s6.16699 -27.833 12.5 -43.5
s15.166 -31.667 26.499 -48s26.666 -32.166 45.999 -47.499c44 -34.667 101 -61 171 -79s151.667 -27 245 -27h127v-189h-605c-24 0 -49.333 -3.16699 -76 -9.5s-53.167 -16 -79.5 -29s-51.5 -29.167 -75.5 -48.5s-45 -42.166 -63 -68.499s-32.5 -56.166 -43.5 -89.499
s-16.5 -70.333 -16.5 -111c0 -58 9.5 -107.5 28.5 -148.5s43.167 -75.167 72.5 -102.5s62 -48.833 98 -64.5s70.833 -27.334 104.5 -35.001s64.167 -12.5 91.5 -14.5s47.333 -3 60 -3h465v-189zM661 1590l170 172l174 -174l-172 -172z" />
    <glyph glyph-name="uni0641" unicode="&#x641;" horiz-adv-x="2127" arabic-form="isolated" 
d="M1620 897c-22.667 0 -44.833 -3.83398 -66.5 -11.501s-41 -19.667 -58 -36s-30.833 -37 -41.5 -62s-16 -54.5 -16 -88.5c0 -25.333 3 -48 9 -68s17.5 -37 34.5 -51s40.5 -24.667 70.5 -32s69 -11 117 -11h152c-3.33301 42.667 -7.5 85.334 -12.5 128.001
s-14 81.167 -27 115.5s-32.167 62.333 -57.5 84s-60 32.5 -104 32.5zM1466 -3.00098h-982.001c-46.667 0.666992 -91 8.83398 -133 24.501s-79 38.5 -111 68.5c-13.333 12 -26.666 26.667 -39.999 44s-25.333 37.833 -36 61.5s-19.5 50.334 -26.5 80.001
s-10.5 63.167 -10.5 100.5c0 33.333 3.33301 70 10 110s14.334 77.833 23.001 113.5s16.667 66.667 24 93s12 42.5 14 48.5l180 -57l-17 -59.5c-7.33301 -25.667 -14.333 -53.167 -21 -82.5s-12.5 -58.833 -17.5 -88.5s-7.5 -55.5 -7.5 -77.5c0 -44 7 -78.667 21 -104
s30.5 -44.333 49.5 -57s38 -20.667 57 -24s33.5 -5 43.5 -5h980c50 0 93.167 2.5 129.5 7.5s67.5 11.5 93.5 19.5s47.167 17.5 63.5 28.5s29.333 22.5 39 34.5s16.5 24.167 20.5 36.5s6.66699 24.166 8 35.499c-21.333 0 -45 0.166992 -71 0.5s-52.667 0.5 -80 0.5
c-50 0 -99.833 4.66699 -149.5 14s-94.5 27 -134.5 53s-72.5 61.667 -97.5 107s-37.5 104 -37.5 176c0 54 9.16699 104.333 27.5 151s43.833 87.5 76.5 122.5s71.667 62.5 117 82.5s95 30 149 30c74 0 136 -16.167 186 -48.5s90.167 -75 120.5 -128
s51.833 -113.333 64.5 -181s19 -136.834 19 -207.501v-137c0 -76 -15 -138.833 -45 -188.5s-70.167 -89.167 -120.5 -118.5s-108.333 -49.833 -174 -61.5s-133.834 -17.5 -204.501 -17.5zM1432 1470l170 172l174 -174l-172 -172z" />
    <glyph glyph-name="uni0642" unicode="&#x642;" horiz-adv-x="1620" arabic-form="isolated" 
d="M794 -554l-100.005 0.000976562c-51.333 0 -100.666 5.83301 -147.999 17.5s-91.833 28.5 -133.5 50.5s-79.667 49.167 -114 81.5s-64.166 69.166 -89.499 110.499c-36 56.667 -62 119.667 -78 189c-12.667 53.333 -19 109.333 -19 168c0 17.333 1.33301 50.166 4 98.499
s16.334 115.666 41.001 201.999s59.667 175.5 105 267.5l170 -81c-37.333 -77.333 -66.833 -151.5 -88.5 -222.5s-35.167 -138.167 -40.5 -201.5c-2 -21.333 -3 -42 -3 -62c0 -40 4.5 -82.5 13.5 -127.5s27.167 -88.833 54.5 -131.5c33.333 -54 78.333 -95.833 135 -125.5
s120.334 -44.5 191.001 -44.5h90v2c100.667 0 185.334 7.66699 254.001 23s123 39 163 71c34.667 28 60.167 63.667 76.5 107s24.5 97.333 24.5 162h-184c-46.667 0 -94 7 -142 21s-91.5 37 -130.5 69s-70.833 73.833 -95.5 125.5s-37 114.834 -37 189.501
c0 44 3.83301 83.833 11.5 119.5s17.334 67.5 29.001 95.5s24.5 52.333 38.5 73s27.667 38.334 41 53.001c36.667 36.667 78.667 65 126 85s98 30 152 30c47.333 0 91.666 -7.33301 132.999 -22s78.333 -36.667 111 -66c90 -84 135 -215.667 135 -395v-378
c0 -94.667 -13.833 -176.167 -41.5 -244.5s-70.5 -125.5 -128.5 -171.5s-129.5 -80 -214.5 -102s-188.833 -33.333 -311.5 -34v-2zM1111 672.001c-66 0 -117.335 -23.333 -154.002 -70s-55 -112.334 -55 -197.001c0 -86 26 -145.667 78 -179
c12.667 -8 25.667 -14.5 39 -19.5s26.333 -8.66699 39 -11s24.167 -4 34.5 -5s18.833 -1.5 25.5 -1.5h184v189c0 48.667 -3.66699 89.834 -11 123.501s-16.666 61.5 -27.999 83.5s-24.166 38.833 -38.499 50.5s-28.5 20.167 -42.5 25.5s-27.333 8.5 -40 9.5s-23 1.5 -31 1.5
zM1277.99 1070l-158 160l156 162l162 -162zM894.993 1072l-158 160l156 162l162 -162z" />
    <glyph glyph-name="uni0643" unicode="&#x643;" horiz-adv-x="2057" arabic-form="isolated" 
d="M920 487l-22.001 111.001c44.667 8.66699 83.667 17.834 117 27.501s61.5 19 84.5 28s40.667 17.167 53 24.5s19.833 13 22.5 17c-4 1.33301 -11.167 2.16602 -21.5 2.49902s-21.166 0.333008 -32.499 0s-22.5 -0.833008 -33.5 -1.5s-19.5 -1.33398 -25.5 -2.00098
c-18.667 -1.33301 -37.667 -2 -57 -2h-9c-16.667 0 -33.5 1.83301 -50.5 5.5s-33 10.334 -48 20.001s-26.833 24.167 -35.5 43.5c-7.33301 16 -11 32.333 -11 49c0 76.667 74.333 159 223 247l57 -98c-35.333 -21.333 -65 -40.833 -89 -58.5s-43.167 -33.167 -57.5 -46.5
s-24.5 -24.5 -30.5 -33.5s-9 -15.167 -9 -18.5c4 -1.33301 10.667 -2 20 -2s19.5 0.5 30.5 1.5s22 2.16699 33 3.5s19.833 2 26.5 2c17.333 1.33301 34.833 2.16602 52.5 2.49902s34.834 -0.833984 51.501 -3.50098c16 -2.66699 29.667 -6.66699 41 -12
s20.833 -11.5 28.5 -18.5s13.667 -14.5 18 -22.5s7.83301 -15.667 10.5 -23c3.33301 -12 5 -23.333 5 -34c0 -20 -5.33301 -39.333 -16 -58c-38.667 -65.333 -147.334 -115.666 -326.001 -150.999zM479.999 0.000976562c-46.667 0.666992 -91 8.83398 -133 24.501
s-79 38.5 -111 68.5c-13.333 12 -26.666 26.667 -39.999 44s-25.333 37.833 -36 61.5s-19.5 50.334 -26.5 80.001s-10.5 63.167 -10.5 100.5c0 33.333 3.33301 70 10 110s14.334 77.833 23.001 113.5s16.667 66.667 24 93s12 42.5 14 48.5l180 -57l-17 -59.5
c-7.33301 -25.667 -14.333 -53.167 -21 -82.5s-12.5 -58.833 -17.5 -88.5s-7.5 -55.5 -7.5 -77.5c0 -44 7 -78.667 21 -104s30.5 -44.333 49.5 -57s38 -20.667 57 -24s33.5 -5 43.5 -5h1001c61.333 0 109.166 4.5 143.499 13.5s60.833 22.833 79.5 41.5
c13.333 12.667 23.166 30.5 29.499 53.5s9.5 53.5 9.5 91.5v1039h188v-1039c0 -22.667 -1 -46.167 -3 -70.5s-6.33301 -48.833 -13 -73.5s-16.334 -48.834 -29.001 -72.501s-29.667 -45.834 -51 -66.501c-19.333 -18 -40.166 -33.5 -62.499 -46.5s-47.833 -24 -76.5 -33
s-60.667 -15.667 -96 -20s-75 -6.5 -119 -6.5h-1003z" />
    <glyph glyph-name="uni0644" unicode="&#x644;" horiz-adv-x="1335" arabic-form="isolated" 
d="M583 -553c-89.333 0 -170.498 19.5 -243.498 58.5s-132.167 93.833 -177.5 164.5c-18 28.667 -35.333 66.334 -52 113.001s-26.334 103 -29.001 169c-0.666992 10 -1 20.333 -1 31c0 58 8.16699 126.333 24.5 205s50.166 171.334 101.499 278.001l170 -81
c-31.333 -64 -55.833 -125.333 -73.5 -184s-28.5 -114 -32.5 -166c-1.33301 -18 -2 -35.667 -2 -53c0 -32 3.33301 -66.333 10 -103s21 -72.667 43 -108c28 -42.667 64.833 -75.834 110.5 -99.501s96.167 -35.5 151.5 -35.5h72c76 0 138.167 8 186.5 24s86 38.833 113 68.5
s45.5 65.167 55.5 106.5s15 87.666 15 138.999v1453h186v-1453c0 -350 -185.333 -525.667 -556 -527h-72z" />
    <glyph glyph-name="uni0645" unicode="&#x645;" horiz-adv-x="1352" arabic-form="isolated" 
d="M308 -660l-187.998 -0.000976562v1036l182 106l60 -33l56.5 -31c20.333 -11.333 40.166 -21.666 59.499 -30.999c10 60 21.5 114.167 34.5 162.5s29.167 91.833 48.5 130.5c64.667 130 166.667 195 306 195c60.667 0 116.167 -12.5 166.5 -37.5
s92.833 -61.5 127.5 -109.5c29.333 -40 51.5 -86 66.5 -138s22.5 -107.333 22.5 -166c0 -64.667 -5.5 -120.334 -16.5 -167.001s-25.333 -86 -43 -118s-37.667 -57.5 -60 -76.5s-44.833 -33.667 -67.5 -44s-44.667 -17.166 -66 -20.499s-39.666 -5 -54.999 -5
c-11.333 0 -26 1.66699 -44 5s-42.333 10.333 -73 21s-69.334 26 -116.001 46s-104.334 47 -173.001 81l-129.5 65.5l-98.5 52.5v-924zM655.002 297.999c56.667 -28 103.333 -49.667 140 -65s65.667 -26.833 87 -34.5s36.333 -12.334 45 -14.001s13.667 -2.5 15 -2.5
c7.33301 0 17.833 1.33301 31.5 4s27 11.5 40 26.5s24.333 38.833 34 71.5s14.5 79.334 14.5 140.001c0 7.33301 -0.5 19 -1.5 35s-3.66699 33.667 -8 53s-10.666 39.333 -18.999 60s-19.666 39.5 -33.999 56.5s-32.333 31 -54 42s-47.834 16.5 -78.501 16.5
c-26 0 -49.333 -4.66699 -70 -14s-39.5 -28 -56.5 -56s-32.333 -67.5 -46 -118.5s-26.834 -117.833 -39.501 -200.5z" />
    <glyph glyph-name="uni0646" unicode="&#x646;" horiz-adv-x="1600" arabic-form="isolated" 
d="M682 -554c-103.333 0 -197 22.502 -281 67.502s-152 109.167 -204 192.5c-36 56.667 -61.667 119.667 -77 189c-12.667 53.333 -19 109.333 -19 168c0 17.333 1.5 50.166 4.5 98.499s16.833 115.666 41.5 201.999s59 175.5 103 267.5l170 -81
c-37.333 -77.333 -66.833 -151.5 -88.5 -222.5s-35.167 -138.167 -40.5 -201.5c-2 -21.333 -3 -42 -3 -62c0 -40 4.5 -82.5 13.5 -127.5s27.167 -88.833 54.5 -131.5c34.667 -54 80 -95.833 136 -125.5s119.333 -44.5 190 -44.5h235c76.667 0 139.167 8.16699 187.5 24.5
s86 39.166 113 68.499s45.333 64.833 55 106.5s14.5 87.834 14.5 138.501v703h189v-703c0 -176 -46.667 -307.833 -140 -395.5s-233 -131.5 -419 -131.5h-235zM690 755.002l170 172l174 -174l-172 -172z" />
    <glyph glyph-name="uni0647" unicode="&#x647;" horiz-adv-x="1042" arabic-form="isolated" 
d="M525 0c-60 0 -115.166 9.1709 -165.499 27.5039s-94 43.666 -131 75.999s-65.833 70.666 -86.5 114.999s-31 92.5 -31 144.5c0 66.667 8.83301 125.5 26.5 176.5s40.167 97 67.5 138s57.333 78.5 90 112.5l94 100l-62 69l140 127l107.5 -116.5l108.5 -118
c35.333 -39.667 68.5 -79.334 99.5 -119.001s58.167 -79.334 81.5 -119.001s42 -79.167 56 -118.5c12.667 -38 19 -75.333 19 -112v-6c-0.666992 -54 -11.5 -104.5 -32.5 -151.5s-51.5 -88.5 -91.5 -124.5c-37.333 -32 -80.833 -56.833 -130.5 -74.5
s-102.834 -26.5 -159.501 -26.5zM512.001 755.004l-76.002 -85.5c-25.333 -28.333 -48 -58.166 -68 -89.499s-36.333 -64.666 -49 -99.999s-19 -74.333 -19 -117c0 -30 6.5 -55.833 19.5 -77.5s30 -39.667 51 -54s45 -25 72 -32s54.5 -10.5 82.5 -10.5
c34 0 64.833 4.5 92.5 13.5s51.334 21.833 71.001 38.5s34.834 36.5 45.501 59.5s16 48.5 16 76.5c0 33.333 -7 66.166 -21 98.499s-32.167 64.166 -54.5 95.499s-47.833 62.333 -76.5 93z" />
    <glyph glyph-name="uni0648" unicode="&#x648;" horiz-adv-x="1024" arabic-form="isolated" 
d="M193 -363c100.667 0 185.333 7.66504 254 22.998s123 39 163 71c34.667 28 60.167 63.667 76.5 107s24.5 97.333 24.5 162h-184c-46.667 0 -94 7 -142 21s-91.5 37 -130.5 69s-70.833 73.833 -95.5 125.5s-37 114.834 -37 189.501c0 44 3.83301 83.833 11.5 119.5
s17.334 67.5 29.001 95.5s24.5 52.333 38.5 73s27.667 38.334 41 53.001c36.667 36.667 78.667 65 126 85s98 30 152 30c47.333 0 91.666 -7.33301 132.999 -22s78.333 -36.667 111 -66c90 -84 135 -215.667 135 -395v-378c0 -94.667 -13.833 -176.167 -41.5 -244.5
s-70.5 -125.5 -128.5 -171.5c-58.667 -46 -131.5 -80.167 -218.5 -102.5s-192.833 -33.5 -317.5 -33.5v189zM519.999 671.998c-66 0 -117.335 -23.333 -154.002 -70s-55 -112.334 -55 -197.001c0 -86 26 -145.667 78 -179c12.667 -8 25.667 -14.5 39 -19.5
s26.333 -8.66699 39 -11s24.167 -4 34.5 -5s18.833 -1.5 25.5 -1.5h184v189c0 48.667 -3.66699 89.834 -11 123.501s-16.666 61.5 -27.999 83.5s-24.166 38.833 -38.499 50.5s-28.5 20.167 -42.5 25.5s-27.333 8.5 -40 9.5s-23 1.5 -31 1.5z" />
    <glyph glyph-name="uni0649" unicode="&#x649;" horiz-adv-x="1671" arabic-form="isolated" 
d="M933 -361c66.667 0 124.502 5.83301 173.502 17.5s89.5 30.167 121.5 55.5s55.667 58.333 71 99s23 90 23 148l-188 50l-82 21.5l-85.5 23l-83 21.5l-74.5 19c-29.333 71.333 -44 141.666 -44 210.999c0 4 0.5 25.333 1.5 64s15.167 89.667 42.5 153
s66 120.166 116 170.499s107.667 90.5 173 120.5s136.666 48.333 213.999 55c15.333 1.33301 31 2 47 2c62.667 0 127 -9.66699 193 -29l-47 -181c-45.333 14 -91.333 20.833 -138 20.5s-91.5 -7 -134.5 -20s-82.833 -31.833 -119.5 -56.5s-67.834 -54.167 -93.501 -88.5
s-44.167 -72.833 -55.5 -115.5c-8 -28 -12 -57 -12 -87c0 -17.333 1.33301 -34.666 4 -51.999l383 -95c53.333 -14.667 93.333 -38.667 120 -72s40 -74 40 -122c0 -87.333 -10.333 -163.833 -31 -229.5s-53.667 -120.167 -99 -163.5s-103.833 -76 -175.5 -98
s-158.5 -33 -260.5 -33h-221c-50.667 0 -99.667 6.33301 -147 19s-92 30.334 -134 53.001s-80.667 50 -116 82s-66.333 67.333 -93 106c-31.333 50.667 -55 106.334 -71 167.001s-24 124.667 -24 192c0 83.333 13.167 173.166 39.5 269.499s64.833 198.166 115.5 305.499
l84 -40.5l82 -40.5c-88 -188 -132 -351 -132 -489c0 -49.333 6 -96.333 18 -141s28.667 -85 50 -121c34 -53.333 80 -95.166 138 -125.499s121.333 -45.5 190 -45.5h221z" />
    <glyph glyph-name="uni064A" unicode="&#x64a;" horiz-adv-x="1671" arabic-form="isolated" 
d="M933 -361c66.667 0 124.502 5.83301 173.502 17.5s89.5 30.167 121.5 55.5s55.667 58.333 71 99s23 90 23 148l-188 50l-82 21.5l-85.5 23l-83 21.5l-74.5 19c-29.333 71.333 -44 141.666 -44 210.999c0 4 0.5 25.333 1.5 64s15.167 89.667 42.5 153
s66 120.166 116 170.499s107.667 90.5 173 120.5s136.666 48.333 213.999 55c15.333 1.33301 31 2 47 2c62.667 0 127 -9.66699 193 -29l-47 -181c-45.333 14 -91.333 20.833 -138 20.5s-91.5 -7 -134.5 -20s-82.833 -31.833 -119.5 -56.5s-67.834 -54.167 -93.501 -88.5
s-44.167 -72.833 -55.5 -115.5c-8 -28 -12 -57 -12 -87c0 -17.333 1.33301 -34.666 4 -51.999l383 -95c53.333 -14.667 93.333 -38.667 120 -72s40 -74 40 -122c0 -87.333 -10.333 -163.833 -31 -229.5s-53.667 -120.167 -99 -163.5s-103.833 -76 -175.5 -98
s-158.5 -33 -260.5 -33h-221c-50.667 0 -99.667 6.33301 -147 19s-92 30.334 -134 53.001s-80.667 50 -116 82s-66.333 67.333 -93 106c-31.333 50.667 -55 106.334 -71 167.001s-24 124.667 -24 192c0 83.333 13.167 173.166 39.5 269.499s64.833 198.166 115.5 305.499
l84 -40.5l82 -40.5c-88 -188 -132 -351 -132 -489c0 -49.333 6 -96.333 18 -141s28.667 -85 50 -121c34 -53.333 80 -95.166 138 -125.499s121.333 -45.5 190 -45.5h221zM1192 -810l-162 -162l-156 162l158 160zM809.002 -812l-162 -162l-156 162l158 160z" />
    <glyph glyph-name="uni066E.init" unicode="&#x66e;" horiz-adv-x="666" 
d="M518 814c1.33301 -4 4.00293 -14.668 8.00293 -32.001s8.5 -38.833 13.5 -64.5l16.5 -85c6 -31 11.333 -62.333 16 -94s8.66699 -62.167 12 -91.5s5 -55 5 -77c0 -64 -10.5 -119.167 -31.5 -165.5s-48.333 -84.666 -82 -114.999s-71.5 -52.833 -113.5 -67.5
s-84.333 -22 -127 -22h-255v189h255c10 0 24.167 1.5 42.5 4.5s36.666 10.5 54.999 22.5s34.333 30 48 54s20.5 57.333 20.5 100c0 14.667 -1.16699 33.167 -3.5 55.5s-5.33301 46.333 -9 72s-7.83398 52 -12.501 79s-9.33398 52.5 -14.001 76.5s-9 45.333 -13 64
s-7.33301 32.667 -10 42z" />
    <glyph glyph-name="uni066E.medi" unicode="&#x66e;" horiz-adv-x="810" 
d="M830 189l0.00195312 -188.999h-78c-60.667 0 -114.167 8.66699 -160.5 26s-83.5 43.333 -111.5 78c-69.333 -69.333 -172 -104 -308 -104h-192v189h192c48 0 86 4.83301 114 14.5s49.167 21.667 63.5 36s23.666 30.333 27.999 48s6.5 34.5 6.5 50.5v338h188v-331
c0 -24.667 3.66699 -45.667 11 -63s16.833 -31.833 28.5 -43.5s24.667 -20.834 39 -27.501s28.166 -11.667 41.499 -15s25.333 -5.33301 36 -6s18.667 -1 24 -1h78z" />
    <glyph glyph-name="uni066E.fina" unicode="&#x66e;" horiz-adv-x="2220" 
d="M2239 189l-0.000976562 -187.996h-30c-48.667 0 -94.667 7.16699 -138 21.5s-82 35.166 -116 62.499l-12 10.5l-12 11.5c-70.667 -70 -173 -105.333 -307 -106h-1135c-47.333 0 -91.833 8 -133.5 24s-78.5 39 -110.5 69c-13.333 12 -26.666 26.667 -39.999 44
s-25.5 37.666 -36.5 60.999s-20 49.833 -27 79.5s-10.5 63.167 -10.5 100.5c0 33.333 3.5 70 10.5 110s14.667 78 23 114s16.333 67 24 93s12.5 42 14.5 48l180 -57c-4.66699 -14 -10.5 -33.833 -17.5 -59.5s-14 -53.167 -21 -82.5s-13 -58.833 -18 -88.5
s-7.5 -55.5 -7.5 -77.5c0 -44 7 -78.667 21 -104s30.5 -44.333 49.5 -57s38.167 -20.667 57.5 -24s34 -5 44 -5h1126c48.667 0 87.5 5 116.5 15s51 22.667 66 38s24.667 32.166 29 50.499s6.5 35.833 6.5 52.5v347h189v-342c0 -38 8.16699 -67.833 24.5 -89.5
s35.166 -37.834 56.5 -48.501c21.333 -10.667 42 -17.167 62 -19.5s34 -3.5 42 -3.5h30z" />
    <glyph glyph-name="uni066F.init" unicode="&#x66f;" horiz-adv-x="1036" 
d="M-22 0l-0.00585938 189.001h444c74.667 0 134.834 5.33301 180.501 16s81.167 24 106.5 40s42.5 33.5 51.5 52.5s14.5 37.167 16.5 54.5h-152c-17.333 0 -36.666 0.666992 -57.999 2s-43.5 3.83301 -66.5 7.5s-46.167 9.16699 -69.5 16.5s-46 17 -68 29
c-18 10.667 -36.333 24 -55 40s-35.5 35.833 -50.5 59.5s-27.333 51.667 -37 84s-14.5 70.166 -14.5 113.499c0 54 9.33301 105.167 28 153.5s45.334 89.833 80.001 124.5s74.334 61 119.001 79s92.334 27 143.001 27c58 0 111.333 -12.333 160 -37s89.667 -60 123 -106
c36 -48 62.667 -107.333 80 -178s26 -151.667 26 -243v-138c0 -66 -13.167 -124.667 -39.5 -176s-66.166 -93 -119.499 -125c-88.667 -56.667 -216.667 -85 -384 -85h-444zM575.994 899.001c-22 0 -44.502 -3.83008 -67.502 -11.4971s-43.667 -19.334 -62 -35.001
s-33.333 -35.834 -45 -60.501s-17.5 -54 -17.5 -88c0 -22 2.33301 -40.5 7 -55.5s10.667 -27.333 18 -37s15 -17.5 23 -23.5s15.667 -11 23 -15c19.333 -11.333 43 -19.5 71 -24.5s61 -7.5 99 -7.5h154c-1.33301 66 -8.16602 123.667 -20.499 173
s-29.166 89.666 -50.499 120.999c-32 42.667 -76 64 -132 64z" />
    <glyph glyph-name="uni066F.medi" unicode="&#x66f;" horiz-adv-x="1085" 
d="M563 246c30 10.667 57.0029 24.001 81.0029 40.001s44.5 34.667 61.5 56s30.167 45.666 39.5 72.999s14 58.333 14 93c0 20 -5.16699 40 -15.5 60s-24.333 38 -42 54s-37.834 29 -60.501 39s-46.334 15 -71.001 15c-28 0 -54.833 -4.5 -80.5 -13.5
s-48.334 -21 -68.001 -36s-35.167 -32.833 -46.5 -53.5s-17 -42.334 -17 -65.001v-12c0 -28.667 4.5 -55.834 13.5 -81.501s22.5 -49.167 40.5 -70.5s39.833 -40.166 65.5 -56.499s54.167 -30.166 85.5 -41.499zM570.003 865.001c57.333 0 108.664 -10 153.997 -30
s83.666 -46.5 114.999 -79.5s55.333 -71 72 -114s25 -87.5 25 -133.5c0 -64.667 -9.16699 -123 -27.5 -175s-46.166 -98 -83.499 -138c50.667 -4 105.334 -6 164.001 -6h116v-189h-116c-170.667 0 -313.334 16 -428.001 48c-58.667 -16 -126 -28 -202 -36
s-162.667 -12 -260 -12h-119v189h119c72.667 0 137.667 2 195 6c-39.333 40.667 -68.666 87.167 -87.999 139.5s-29 110.166 -29 173.499c0 48.667 10.167 94.667 30.5 138s48.333 81.333 84 114s77.334 58.334 125.001 77.001s98.834 28 153.501 28z" />
    <glyph glyph-name="uni066F.fina" unicode="&#x66f;" horiz-adv-x="1652" 
d="M794 -554l-100.005 0.000976562c-51.333 0 -100.666 5.83301 -147.999 17.5s-91.833 28.5 -133.5 50.5s-79.667 49.167 -114 81.5s-64.166 69.166 -89.499 110.499c-36 56.667 -62 119.667 -78 189c-12.667 53.333 -19 109.333 -19 168c0 17.333 1.33301 50.166 4 98.499
s16.334 115.666 41.001 201.999s59.667 175.5 105 267.5l170 -81c-37.333 -77.333 -66.833 -151.5 -88.5 -222.5s-35.167 -138.167 -40.5 -201.5c-2 -21.333 -3 -42 -3 -62c0 -40 4.5 -82.5 13.5 -127.5s27.167 -88.833 54.5 -131.5c33.333 -54 78.333 -95.833 135 -125.5
s120.334 -44.5 191.001 -44.5h90v2c100.667 0 185.334 7.66699 254.001 23s123 39 163 71c34.667 28 60.167 63.667 76.5 107s24.5 97.333 24.5 162h-184c-46.667 0 -94 7 -142 21s-91.5 37 -130.5 69s-70.833 73.833 -95.5 125.5s-37 114.834 -37 189.501
c0 44 3.83301 83.833 11.5 119.5s17.334 67.5 29.001 95.5s24.5 52.333 38.5 73s27.667 38.334 41 53.001c36.667 36.667 78.667 65 126 85s98 30 152 30c47.333 0 91.666 -7.33301 132.999 -22s78.333 -36.667 111 -66c90 -84 135 -215.667 135 -395v-189h187v-189h-187
c0 -94.667 -13.833 -176.167 -41.5 -244.5s-70.5 -125.5 -128.5 -171.5s-129.5 -80 -214.5 -102s-188.833 -33.333 -311.5 -34v-2zM1111 672.001c-66 0 -117.335 -23.333 -154.002 -70s-55 -112.334 -55 -197.001c0 -86 26 -145.667 78 -179
c12.667 -8 25.667 -14.5 39 -19.5s26.333 -8.66699 39 -11s24.167 -4 34.5 -5s18.833 -1.5 25.5 -1.5h184v189c0 48.667 -3.66699 89.834 -11 123.501s-16.666 61.5 -27.999 83.5s-24.166 38.833 -38.499 50.5s-28.5 20.167 -42.5 25.5s-27.333 8.5 -40 9.5s-23 1.5 -31 1.5
z" />
    <glyph glyph-name="uni0671" unicode="&#x671;" horiz-adv-x="589" arabic-form="isolated" 
d="M389 0h-189v1277h189v-1277zM6 1433l19 84.998h129l47 73l83 122c25.333 30.667 53.333 56.334 84 77.001s65 31 103 31c22 0 43.5 -4 64.5 -12s39.833 -20.5 56.5 -37.5s30.167 -38.5 40.5 -64.5s15.5 -56.667 15.5 -92c0 -34 -5.66699 -62.5 -17 -85.5
s-25.666 -41.667 -42.999 -56s-36.833 -24.666 -58.5 -30.999s-42.834 -9.5 -63.501 -9.5h-460zM466 1518c28 0 50.999 7.66699 68.999 23s27 40 27 74c0 38.667 -7.83301 68.5 -23.5 89.5s-38.167 31.5 -67.5 31.5c-21.333 0 -41.666 -6.66699 -60.999 -20
s-38 -30.5 -56 -51.5s-35.167 -44.167 -51.5 -69.5s-31.5 -50 -45.5 -74c-0.666992 -0.666992 -1 -1.66699 -1 -3h210z" />
    <glyph glyph-name="uni0679" unicode="&#x679;" horiz-adv-x="2103" arabic-form="isolated" 
d="M1698 185c24.667 0 47.667 4.33496 69 13.002s39.666 20.667 54.999 36c28.667 30.667 43 72.334 43 125.001v11c-0.666992 9.33301 -1.66699 20.666 -3 33.999s-3 28.666 -5 45.999c-2 16.667 -4.16699 33.834 -6.5 51.501s-5.16602 36.5 -8.49902 56.5l-11 65l-14 79
l183 31l16 -79.5c4.66699 -24.333 8.66699 -46.833 12 -67.5c6.66699 -42 12.167 -81.5 16.5 -118.5s7.16602 -66.5 8.49902 -88.5v-20c0 -26.667 -2.33301 -52.834 -7 -78.501s-11.667 -50 -21 -73s-19.833 -43 -31.5 -60s-23.5 -31.5 -35.5 -43.5
c-32.667 -34.667 -71.667 -61.334 -117 -80.001s-93 -28 -143 -28h-1254c-46.667 0.666992 -91 8.83398 -133 24.501s-79 38.5 -111 68.5c-13.333 12 -26.666 26.667 -39.999 44s-25.5 37.666 -36.5 60.999s-19.833 50 -26.5 80s-10 63.667 -10 101
c0 33.333 3.33301 70 10 110s14.167 77.833 22.5 113.5s16.333 66.667 24 93s12.5 42.5 14.5 48.5l180 -57l-16.5 -59.5c-7 -25.667 -14 -53.167 -21 -82.5s-13 -58.833 -18 -88.5s-7.5 -55.5 -7.5 -77.5c0 -44 7 -78.667 21 -104s30.5 -44.333 49.5 -57s38 -20.667 57 -24
s33.5 -5 43.5 -5h1252zM818 670.002v84.998h100l47 73v485h83v-363c25.333 30.667 53.333 56.334 84 77.001s65 31 103 31c22 0 43.5 -4 64.5 -12s39.833 -20.5 56.5 -37.5s30.167 -38.5 40.5 -64.5s15.5 -56.667 15.5 -92c0 -34 -5.66699 -62.5 -17 -85.5
s-25.666 -41.667 -42.999 -56s-36.833 -24.666 -58.5 -30.999s-42.834 -9.5 -63.501 -9.5h-412zM1230 755c28 0 50.999 7.66699 68.999 23s27 40 27 74c0 38.667 -7.83301 68.5 -23.5 89.5s-38.167 31.5 -67.5 31.5c-21.333 0 -41.666 -6.66699 -60.999 -20
s-38 -30.5 -56 -51.5s-35.167 -44.167 -51.5 -69.5s-31.5 -50 -45.5 -74c-0.666992 -0.666992 -1 -1.66699 -1 -3h210z" />
    <glyph glyph-name="uni067E" unicode="&#x67e;" horiz-adv-x="2103" arabic-form="isolated" 
d="M1698 185c24.667 0 47.667 4.33496 69 13.002s39.666 20.667 54.999 36c28.667 30.667 43 72.334 43 125.001v11c-0.666992 9.33301 -1.66699 20.666 -3 33.999s-3 28.666 -5 45.999c-2 16.667 -4.16699 33.834 -6.5 51.501s-5.16602 36.5 -8.49902 56.5l-11 65l-14 79
l183 31l16 -79.5c4.66699 -24.333 8.66699 -46.833 12 -67.5c6.66699 -42 12.167 -81.5 16.5 -118.5s7.16602 -66.5 8.49902 -88.5v-20c0 -26.667 -2.33301 -52.834 -7 -78.501s-11.667 -50 -21 -73s-19.833 -43 -31.5 -60s-23.5 -31.5 -35.5 -43.5
c-32.667 -34.667 -71.667 -61.334 -117 -80.001s-93 -28 -143 -28h-1254c-46.667 0.666992 -91 8.83398 -133 24.501s-79 38.5 -111 68.5c-13.333 12 -26.666 26.667 -39.999 44s-25.5 37.666 -36.5 60.999s-19.833 50 -26.5 80s-10 63.667 -10 101
c0 33.333 3.33301 70 10 110s14.167 77.833 22.5 113.5s16.333 66.667 24 93s12.5 42.5 14.5 48.5l180 -57l-16.5 -59.5c-7 -25.667 -14 -53.167 -21 -82.5s-13 -58.833 -18 -88.5s-7.5 -55.5 -7.5 -77.5c0 -44 7 -78.667 21 -104s30.5 -44.333 49.5 -57s38 -20.667 57 -24
s33.5 -5 43.5 -5h1252zM1083 -786.998l-144 143l140 139l142 -139zM1430 -351.998l-162 -162l-156 162l158 160zM1047 -353.998l-162 -162l-156 162l158 160z" />
    <glyph glyph-name="uni0686" unicode="&#x686;" horiz-adv-x="1475" arabic-form="isolated" 
d="M1369 591c-1.33301 -0.666992 -14 -4.83594 -38 -12.5029l-113.5 -38l-201 -70l-300.5 -109.5c-74 -27.333 -136.667 -53.166 -188 -77.499s-93.5 -48.333 -126.5 -72s-58.167 -47.667 -75.5 -72s-29.333 -49.833 -36 -76.5c-5.33301 -21.333 -8 -43.666 -8 -66.999
c0 -6.66699 0.5 -19.667 1.5 -39s3.83301 -48 8.5 -86c10 -78 27.667 -144.167 53 -198.5s58 -98.166 98 -131.499s87 -57.5 141 -72.5s114.667 -22.5 182 -22.5h502v-189h-502c-95.333 0 -180.833 11 -256.5 33s-141.167 56.667 -196.5 104s-100.333 108.166 -135 182.499
s-59 164.166 -73 269.499c-6 47.333 -9 91.666 -9 132.999c0 50.667 6.66699 104.334 20 161.001s43.333 110.834 90 162.501s107.334 95.667 182.001 132s162.334 70.5 263.001 102.5l462 150c-64.667 26 -129.334 50.667 -194.001 74s-124.167 43.833 -178.5 61.5
s-100.833 32 -139.5 43s-64.334 17.5 -77.001 19.5c-11.333 0 -23.166 -1 -35.499 -3s-24.5 -8 -36.5 -18s-23.667 -25.5 -35 -46.5s-22 -50.5 -32 -88.5l-183 48c51.333 197.333 159.333 296 324 296c4.66699 0 10.167 -0.166992 16.5 -0.5s16 -2 29 -5
s29.833 -7.66699 50.5 -14s47.667 -15.166 81 -26.499s73.666 -25.833 120.999 -43.5l170 -65.5l368 -150zM932.949 -400.059l-136.661 135.86l132.865 132.06l134.763 -132.06zM1262.26 13.2227l-153.744 -153.912l-148.05 153.912l149.948 152.012zM898.784 11.3223
l-153.744 -153.911l-148.05 153.911l149.948 152.012z" />
    <glyph glyph-name="uni0688" unicode="&#x688;" horiz-adv-x="1080" arabic-form="isolated" 
d="M543 -15c-34 0 -68.333 1.5 -103 4.5s-68.5 7.66699 -101.5 14s-64.667 14.666 -95 24.999s-57.833 22.833 -82.5 37.5l-83 47l94 165l83 -47c23.333 -13.333 52 -24.166 86 -32.499s70 -14.166 108 -17.499c32.667 -3.33301 65.334 -5 98.001 -5c6 0 20 0.166992 42 0.5
s49.333 2.83301 82 7.5c38.667 6 70.5 14.5 95.5 25.5s40.833 23.5 47.5 37.5c2.66699 6.66699 4 14 4 22c0 11.333 -3.33301 27.166 -10 47.499s-20.667 46.5 -42 78.5l-362 547l160 104l27 -41.5l33 -50l44 -67l61 -92.5l84 -126l112 -168
c16.667 -25.333 31.667 -51.833 45 -79.5s23.333 -55.5 30 -83.5c6 -25.333 9 -50.666 9 -75.999c0 -2.66699 -0.333008 -11.834 -1 -27.501s-7.33398 -37.167 -20.001 -64.5c-42 -94 -138.667 -152 -290 -174c-23.333 -3.33301 -48 -6 -74 -8s-53 -3 -81 -3zM196 1220
v84.998h100l47 73v485h83v-363c25.333 30.667 53.333 56.334 84 77.001s65 31 103 31c22 0 43.5 -4 64.5 -12s39.833 -20.5 56.5 -37.5s30.167 -38.5 40.5 -64.5s15.5 -56.667 15.5 -92c0 -34 -5.66699 -62.5 -17 -85.5s-25.666 -41.667 -42.999 -56
s-36.833 -24.666 -58.5 -30.999s-42.834 -9.5 -63.501 -9.5h-412zM608 1305c28 0 50.999 7.66699 68.999 23s27 40 27 74c0 38.667 -7.83301 68.5 -23.5 89.5s-38.167 31.5 -67.5 31.5c-21.333 0 -41.666 -6.66699 -60.999 -20s-38 -30.5 -56 -51.5
s-35.167 -44.167 -51.5 -69.5s-31.5 -50 -45.5 -74c-0.666992 -0.666992 -1 -1.66699 -1 -3h210z" />
    <glyph glyph-name="uni0691" unicode="&#x691;" horiz-adv-x="825" arabic-form="isolated" 
d="M0 -555l0.000976562 188.999h138c68.667 0 128.167 8.16699 178.5 24.5s92 41.5 125 75.5s57.333 77.333 73 130s23.5 115.334 23.5 188.001v624h189v-624c0 -95.333 -12.5 -180.5 -37.5 -255.5s-62.167 -138.5 -111.5 -190.5s-110.833 -91.833 -184.5 -119.5
s-158.834 -41.5 -255.501 -41.5h-138zM184.001 892.999v84.998h100l47 73v485h83v-363c25.333 30.667 53.333 56.334 84 77.001s65 31 103 31c22 0 43.5 -4 64.5 -12s39.833 -20.5 56.5 -37.5s30.167 -38.5 40.5 -64.5s15.5 -56.667 15.5 -92
c0 -34 -5.66699 -62.5 -17 -85.5s-25.666 -41.667 -42.999 -56s-36.833 -24.666 -58.5 -30.999s-42.834 -9.5 -63.501 -9.5h-412zM596.001 977.997c28 0 50.999 7.66699 68.999 23s27 40 27 74c0 38.667 -7.83301 68.5 -23.5 89.5s-38.167 31.5 -67.5 31.5
c-21.333 0 -41.666 -6.66699 -60.999 -20s-38 -30.5 -56 -51.5s-35.167 -44.167 -51.5 -69.5s-31.5 -50 -45.5 -74c-0.666992 -0.666992 -1 -1.66699 -1 -3h210z" />
    <glyph glyph-name="uni0692.fina" unicode="&#x692;" horiz-adv-x="927" 
d="M947 0l-43.001 -0.00195312c-64 0 -123 12.667 -177 38c0 -93.333 -13 -176.666 -39 -249.999s-64 -135.5 -114 -186.5s-111.5 -89.833 -184.5 -116.5s-156.833 -40 -251.5 -40h-138v189h138c68.667 0 128.167 8.16699 178.5 24.5s92 41.5 125 75.5s57.333 77.333 73 130
s23.5 115.334 23.5 188.001v624h189v-331c0 -37.333 7.83301 -66.5 23.5 -87.5s33.834 -36.5 54.501 -46.5s40.5 -16.167 59.5 -18.5s32.167 -3.5 39.5 -3.5h43v-189zM904.999 1281l-225 -408h-127l-228 408h160l129 -264l133 264h158z" />
    <glyph glyph-name="uni0695.fina" unicode="&#x695;" horiz-adv-x="927" 
d="M947 0l-43.001 -0.00195312c-64 0 -123 12.667 -177 38c0 -93.333 -13 -176.666 -39 -249.999s-64 -135.5 -114 -186.5s-111.5 -89.833 -184.5 -116.5s-156.833 -40 -251.5 -40h-138v189h138c68.667 0 128.167 8.16699 178.5 24.5s92 41.5 125 75.5s57.333 77.333 73 130
s23.5 115.334 23.5 188.001v624h189v-331c0 -37.333 7.83301 -66.5 23.5 -87.5s33.834 -36.5 54.501 -46.5s40.5 -16.167 59.5 -18.5s32.167 -3.5 39.5 -3.5h43v-189zM652.999 -679.002l-225 -408h-127l-228 408h160l129 -264l133 264h158z" />
    <glyph glyph-name="uni0698" unicode="&#x698;" horiz-adv-x="949" arabic-form="isolated" 
d="M0 -555l0.000976562 188.999h138c68.667 0 128.167 8.16699 178.5 24.5s92 41.5 125 75.5s57.333 77.333 73 130s23.5 115.334 23.5 188.001v624h189v-624c0 -95.333 -12.5 -180.5 -37.5 -255.5s-62.167 -138.5 -111.5 -190.5s-110.833 -91.833 -184.5 -119.5
s-158.834 -41.5 -255.501 -41.5h-138zM735.001 1361l-142 -139l-140 139l144 143zM784.001 908.999l-158 160l156 162l162 -162zM401.001 910.999l-158 160l156 162l162 -162z" />
    <glyph glyph-name="uni06A4.init" unicode="&#x6a4;" horiz-adv-x="1036" arabic-form="initial" 
d="M-22 0l-0.00585938 189.001h444c74.667 0 134.834 5.33301 180.501 16s81.167 24 106.5 40s42.5 33.5 51.5 52.5s14.5 37.167 16.5 54.5h-152c-17.333 0 -36.666 0.666992 -57.999 2s-43.5 3.83301 -66.5 7.5s-46.167 9.16699 -69.5 16.5s-46 17 -68 29
c-18 10.667 -36.333 24 -55 40s-35.5 35.833 -50.5 59.5s-27.333 51.667 -37 84s-14.5 70.166 -14.5 113.499c0 54 9.33301 105.167 28 153.5s45.334 89.833 80.001 124.5s74.334 61 119.001 79s92.334 27 143.001 27c58 0 111.333 -12.333 160 -37s89.667 -60 123 -106
c36 -48 62.667 -107.333 80 -178s26 -151.667 26 -243v-138c0 -66 -13.167 -124.667 -39.5 -176s-66.166 -93 -119.499 -125c-88.667 -56.667 -216.667 -85 -384 -85h-444zM575.994 899.001c-22 0 -44.502 -3.83008 -67.502 -11.4971s-43.667 -19.334 -62 -35.001
s-33.333 -35.834 -45 -60.501s-17.5 -54 -17.5 -88c0 -22 2.33301 -40.5 7 -55.5s10.667 -27.333 18 -37s15 -17.5 23 -23.5s15.667 -11 23 -15c19.333 -11.333 43 -19.5 71 -24.5s61 -7.5 99 -7.5h154c-1.33301 66 -8.16602 123.667 -20.499 173
s-29.166 89.666 -50.499 120.999c-32 42.667 -76 64 -132 64zM709.992 1674l-142 -139l-140 139l144 143zM758.992 1222l-158 160l156 162l162 -162zM375.992 1224l-158 160l156 162l162 -162z" />
    <glyph glyph-name="uni06A4.medi" unicode="&#x6a4;" horiz-adv-x="1085" arabic-form="medial" 
d="M563 246c30 10.667 57.0029 24.001 81.0029 40.001s44.5 34.667 61.5 56s30.167 45.666 39.5 72.999s14 58.333 14 93c0 20 -5.16699 40 -15.5 60s-24.333 38 -42 54s-37.834 29 -60.501 39s-46.334 15 -71.001 15c-28 0 -54.833 -4.5 -80.5 -13.5
s-48.334 -21 -68.001 -36s-35.167 -32.833 -46.5 -53.5s-17 -42.334 -17 -65.001v-12c0 -28.667 4.5 -55.834 13.5 -81.501s22.5 -49.167 40.5 -70.5s39.833 -40.166 65.5 -56.499s54.167 -30.166 85.5 -41.499zM570.003 865.001c57.333 0 108.664 -10 153.997 -30
s83.666 -46.5 114.999 -79.5s55.333 -71 72 -114s25 -87.5 25 -133.5c0 -64.667 -9.16699 -123 -27.5 -175s-46.166 -98 -83.499 -138c50.667 -4 105.334 -6 164.001 -6h116v-189h-116c-170.667 0 -313.334 16 -428.001 48c-58.667 -16 -126 -28 -202 -36
s-162.667 -12 -260 -12h-119v189h119c72.667 0 137.667 2 195 6c-39.333 40.667 -68.666 87.167 -87.999 139.5s-29 110.166 -29 173.499c0 48.667 10.167 94.667 30.5 138s48.333 81.333 84 114s77.334 58.334 125.001 77.001s98.834 28 153.501 28zM695.001 1468
l-142 -139l-140 139l144 143zM744.001 1016l-158 160l156 162l162 -162zM361.001 1018l-158 160l156 162l162 -162z" />
    <glyph glyph-name="uni06A4.fina" unicode="&#x6a4;" horiz-adv-x="2128" arabic-form="final" 
d="M1648 246c30 10.667 57.0029 24.001 81.0029 40.001s44.5 34.667 61.5 56s30.167 45.666 39.5 72.999s14 58.333 14 93c0 20 -5.16699 40 -15.5 60s-24.333 38 -42 54s-37.834 29 -60.501 39s-46.334 15 -71.001 15c-28 0 -54.833 -4.5 -80.5 -13.5
s-48.334 -21 -68.001 -36s-35.167 -32.833 -46.5 -53.5s-17 -42.334 -17 -65.001v-12c0 -28.667 4.5 -55.834 13.5 -81.501s22.5 -49.167 40.5 -70.5s39.833 -40.166 65.5 -56.499s54.167 -30.166 85.5 -41.499zM484.003 -2.99902
c-46.667 0.666992 -91.0029 8.83203 -133.003 24.499s-79 38.5 -111 68.5c-13.333 12 -26.666 26.667 -39.999 44s-25.333 37.833 -36 61.5s-19.5 50.334 -26.5 80.001s-10.5 63.167 -10.5 100.5c0 33.333 3.33301 70 10 110s14.334 77.833 23.001 113.5
s16.667 66.667 24 93s12 42.5 14 48.5l180 -57l-17 -59.5c-7.33301 -25.667 -14.333 -53.167 -21 -82.5s-12.5 -58.833 -17.5 -88.5s-7.5 -55.5 -7.5 -77.5c0 -44 7 -78.667 21 -104s30.5 -44.333 49.5 -57s38 -20.667 57 -24s33.5 -5 43.5 -5l703 2
c69.333 0.666992 132.666 3 189.999 7c-39.333 40.667 -68.666 87.167 -87.999 139.5s-29 110.166 -29 173.499c0 48.667 10.167 94.667 30.5 138s48.333 81.333 84 114s77.334 58.334 125.001 77.001s98.834 28 153.501 28c57.333 0 108.666 -10 153.999 -30
s83.666 -46.5 114.999 -79.5s55.333 -71 72 -114s25 -87.5 25 -133.5c0 -64.667 -9.16699 -123 -27.5 -175s-46.166 -98 -83.499 -138c50.667 -4 105.334 -6 164.001 -6h76v-189h-76c-170.667 0 -313.334 16 -428.001 48c-58.667 -16 -126 -28 -202 -36
s-161 -12.333 -255 -13zM1786 1442l-142 -139l-140 139l144 143zM1835 989.999l-158 160l156 162l162 -162zM1452 991.999l-158 160l156 162l162 -162z" />
    <glyph glyph-name="uni06A8.fina" unicode="&#x6a8;" horiz-adv-x="1652" 
d="M794 -554l-100.005 0.000976562c-51.333 0 -100.666 5.83301 -147.999 17.5s-91.833 28.5 -133.5 50.5s-79.667 49.167 -114 81.5s-64.166 69.166 -89.499 110.499c-36 56.667 -62 119.667 -78 189c-12.667 53.333 -19 109.333 -19 168c0 17.333 1.33301 50.166 4 98.499
s16.334 115.666 41.001 201.999s59.667 175.5 105 267.5l170 -81c-37.333 -77.333 -66.833 -151.5 -88.5 -222.5s-35.167 -138.167 -40.5 -201.5c-2 -21.333 -3 -42 -3 -62c0 -40 4.5 -82.5 13.5 -127.5s27.167 -88.833 54.5 -131.5c33.333 -54 78.333 -95.833 135 -125.5
s120.334 -44.5 191.001 -44.5h90v2c100.667 0 185.334 7.66699 254.001 23s123 39 163 71c34.667 28 60.167 63.667 76.5 107s24.5 97.333 24.5 162h-184c-46.667 0 -94 7 -142 21s-91.5 37 -130.5 69s-70.833 73.833 -95.5 125.5s-37 114.834 -37 189.501
c0 44 3.83301 83.833 11.5 119.5s17.334 67.5 29.001 95.5s24.5 52.333 38.5 73s27.667 38.334 41 53.001c36.667 36.667 78.667 65 126 85s98 30 152 30c47.333 0 91.666 -7.33301 132.999 -22s78.333 -36.667 111 -66c90 -84 135 -215.667 135 -395v-189h187v-189h-187
c0 -94.667 -13.833 -176.167 -41.5 -244.5s-70.5 -125.5 -128.5 -171.5s-129.5 -80 -214.5 -102s-188.833 -33.333 -311.5 -34v-2zM1111 672.001c-66 0 -117.335 -23.333 -154.002 -70s-55 -112.334 -55 -197.001c0 -86 26 -145.667 78 -179
c12.667 -8 25.667 -14.5 39 -19.5s26.333 -8.66699 39 -11s24.167 -4 34.5 -5s18.833 -1.5 25.5 -1.5h184v189c0 48.667 -3.66699 89.834 -11 123.501s-16.666 61.5 -27.999 83.5s-24.166 38.833 -38.499 50.5s-28.5 20.167 -42.5 25.5s-27.333 8.5 -40 9.5s-23 1.5 -31 1.5
zM1252.99 1477l-142 -139l-140 139l144 143zM1301.99 1025l-158 160l156 162l162 -162zM918.993 1027l-158 160l156 162l162 -162z" />
    <glyph glyph-name="uni06A9" unicode="&#x6a9;" horiz-adv-x="1997" arabic-form="isolated" 
d="M1059 -8l-593.999 -0.00195312c-46.667 0.666992 -91 8.83398 -133 24.501s-79 38.5 -111 68.5c-13.333 12 -26.666 26.667 -39.999 44s-25.333 37.833 -36 61.5s-19.5 50.334 -26.5 80.001s-10.5 63.167 -10.5 100.5c0 33.333 3.33301 70 10 110
s14.334 77.833 23.001 113.5s16.667 66.667 24 93s12 42.5 14 48.5l180 -57l-17 -59.5c-7.33301 -25.667 -14.333 -53.167 -21 -82.5s-12.5 -58.833 -17.5 -88.5s-7.5 -55.5 -7.5 -77.5c0 -44 7 -78.667 21 -104s30.5 -44.333 49.5 -57s38 -20.667 57 -24s33.5 -5 43.5 -5
l590 -1c82.667 0 156 1 220 3s118.833 6.66699 164.5 14s82.167 18 109.5 32s46 33 56 57c2.66699 7.33301 4 15.666 4 24.999c0 10.667 -2.83301 25.5 -8.5 44.5s-16.5 43 -32.5 72s-35.5 59.167 -58.5 90.5s-48.167 62.333 -75.5 93c-54 59.333 -104.667 111 -152 155
s-89.833 81.333 -127.5 112s-69.834 54.834 -96.501 72.501s-46.667 30.167 -60 37.5l15 227l902 388l76 -172l-791 -342c25.333 -18.667 52.833 -40.167 82.5 -64.5s60.5 -51.5 92.5 -81.5s64.667 -62.5 98 -97.5l100 -110.5c25.333 -30.667 50.333 -62.667 75 -96
s46.667 -67.5 66 -102.5s35 -70.333 47 -106s18 -71.167 18 -106.5v-18.5c0 -6.33301 -0.666992 -12.833 -2 -19.5c-6 -47.333 -19.5 -87.5 -40.5 -120.5s-47.833 -60.333 -80.5 -82s-70.834 -38.667 -114.501 -51s-91.334 -21.5 -143.001 -27.5s-106.5 -9.66699 -164.5 -11
c-57.333 -1.33301 -116.333 -2 -177 -2z" />
    <glyph glyph-name="uni06AA.init" unicode="&#x6aa;" horiz-adv-x="1702" 
d="M1515 0l-1532 0.00390625v189h1435c-4 46 -12.5 87.167 -25.5 123.5s-32.5 67.166 -58.5 92.499s-59.833 44.666 -101.5 57.999s-93.167 20 -154.5 20c-112 0 -210.667 0.166992 -296 0.5s-159.666 1.5 -222.999 3.5s-117.166 5.16699 -161.499 9.5
s-81.5 10.166 -111.5 17.499s-54.333 16.666 -73 27.999s-34 25.333 -46 42c-12 15.333 -20.167 31.166 -24.5 47.499s-6.5 32.166 -6.5 47.499c0 14.667 1.5 28.334 4.5 41.001s5.83301 22.667 8.5 30c39.333 142.667 181.666 278.334 426.999 407.001
c42.667 22 84 41.667 124 59s75.667 32 107 44l76 28.5c19.333 7 29.666 10.833 30.999 11.5l90 27l58 -179l-90 -28c-0.666992 -0.666992 -9.83398 -4 -27.501 -10s-41 -14.667 -70 -26s-62 -25.166 -99 -41.499s-75.167 -34.833 -114.5 -55.5
c-95.333 -50 -171.5 -99.5 -228.5 -148.5s-91.833 -95.5 -104.5 -139.5v-2c11.333 -3.33301 30.166 -6.66602 56.499 -9.99902s64.166 -6 113.499 -8c30.667 -2 65 -3.33301 103 -4s80.667 -1.33398 128 -2.00098s99.833 -1 157.5 -1h191.5
c221.333 0 374.666 -75.333 459.999 -226c18 -32 31.667 -65 41 -99s16.333 -66.833 21 -98.5s7.33398 -60.834 8.00098 -87.501s1 -49 1 -67z" />
    <glyph glyph-name="uni06AA.medi" unicode="&#x6aa;" horiz-adv-x="1953" 
d="M-19 0l-0.00488281 189.002h1404c24 0 41.5 3.16699 52.5 9.5s17.5 14.833 19.5 25.5c0.666992 3.33301 1 6.66602 1 9.99902c0 8.66699 -2.16699 19 -6.5 31s-10.5 26 -18.5 42c-13.333 22 -31.666 43.667 -54.999 65s-50.333 40.166 -81 56.499s-64.5 29.5 -101.5 39.5
s-76.167 15 -117.5 15c-112.667 0 -211.667 0.333008 -297 1s-159.666 2 -222.999 4s-117.166 5.16699 -161.499 9.5s-81.5 10.166 -111.5 17.499s-54.333 16.666 -73 27.999s-34.334 25 -47.001 41c-11.333 16 -19 32.333 -23 49s-6 32.667 -6 48
c0 14.667 1.33301 28.167 4 40.5s5 22.5 7 30.5c19.333 72 64.833 141.5 136.5 208.5s169.5 132.5 293.5 196.5c42.667 22.667 83.834 42.667 123.501 60s75 32 106 44s56 21.333 75 28s29.167 10.334 30.5 11.001l90 29l60 -179l-90 -30
c-0.666992 0 -9.83398 -3 -27.501 -9s-41 -14.5 -70 -25.5s-62.167 -24.667 -99.5 -41s-76 -34.833 -116 -55.5c-94.667 -50 -170.167 -99.333 -226.5 -148s-91.166 -95 -104.499 -139v-3c11.333 -3.33301 30.166 -6.66602 56.499 -9.99902s64.166 -6 113.499 -8
c30.667 -2 64.834 -3.5 102.501 -4.5s80.167 -1.83301 127.5 -2.5s100 -1.16699 158 -1.5s122 -0.5 192 -0.5c74 0 144.833 -12.333 212.5 -37s127.834 -60 180.501 -106c30 -27.333 56.333 -54.833 79 -82.5l63.5 -79l57 -70c18.333 -21.667 38.666 -40.667 60.999 -57
s47.333 -29 75 -38s60.834 -13.5 99.501 -13.5h67v-189h-67c-35.333 -0 -67.833 2.33301 -97.5 7s-57 11.667 -82 21s-48.333 20.5 -70 33.5s-42.5 28.167 -62.5 45.5c-5.33301 -8.66699 -11.166 -16.5 -17.499 -23.5s-13.166 -13.5 -20.499 -19.5
c-24 -20.667 -51.833 -36.5 -83.5 -47.5s-67.167 -16.5 -106.5 -16.5h-1385z" />
    <glyph glyph-name="uni06AA.fina" unicode="&#x6aa;" horiz-adv-x="2511" 
d="M447 0c-43.333 0 -86.0029 7.33691 -128.003 22.0039s-79.667 37.167 -113 67.5s-60.333 68.666 -81 114.999s-31 101.5 -31 165.5c0 32.667 3.33301 68.667 10 108s14 76.666 22 111.999s15.667 65.833 23 91.5s12 41.5 14 47.5l179 -57
c-4 -13.333 -9.33301 -32.333 -16 -57s-13.167 -51.5 -19.5 -80.5s-11.833 -58.167 -16.5 -87.5s-7 -55 -7 -77c0 -42 6.66699 -75.167 20 -99.5s29 -42.5 47 -54.5s36.167 -19.5 54.5 -22.5s32.5 -4.5 42.5 -4.5h1498c24 0 41.5 3.16699 52.5 9.5s17.5 14.833 19.5 25.5
c0.666992 3.33301 1 6.66602 1 9.99902c0 8.66699 -2.16699 19 -6.5 31s-10.5 26 -18.5 42c-13.333 22 -31.666 43.667 -54.999 65s-50.333 40.166 -81 56.499s-64.5 29.5 -101.5 39.5s-76.167 15 -117.5 15c-112.667 0 -211.667 0.333008 -297 1s-159.666 2 -222.999 4
s-117.166 5.16699 -161.499 9.5s-81.5 10.166 -111.5 17.499s-54.333 16.666 -73 27.999s-34.334 25 -47.001 41c-11.333 16 -19 32.333 -23 49s-6 32.667 -6 48c0 14.667 1.33301 28.167 4 40.5s5 22.5 7 30.5c19.333 72 64.833 141.5 136.5 208.5s169.5 132.5 293.5 196.5
c42.667 22.667 83.834 42.667 123.501 60s75 32 106 44s56 21.333 75 28s29.167 10.334 30.5 11.001l90 29l60 -179l-90 -30c-0.666992 0 -9.83398 -3 -27.501 -9s-41 -14.5 -70 -25.5s-62.167 -24.667 -99.5 -41s-76 -34.833 -116 -55.5
c-94.667 -50 -170.167 -99.333 -226.5 -148s-91.166 -95 -104.499 -139v-3c11.333 -3.33301 30.166 -6.66602 56.499 -9.99902s64.166 -6 113.499 -8c30.667 -2 64.834 -3.5 102.501 -4.5s80.167 -1.83301 127.5 -2.5s100 -1.16699 158 -1.5s122 -0.5 192 -0.5
c74 0 144.833 -12.333 212.5 -37s127.834 -60 180.501 -106c30 -27.333 56.333 -54.833 79 -82.5l63.5 -79l57 -70c18.333 -21.667 38.666 -40.667 61 -57c22.333 -16.333 47.333 -29 75 -38s60.834 -13.5 99.5 -13.5h67v-189h-67c-35.333 -0 -67.833 2.33301 -97.5 7
s-57 11.667 -82 21s-48.333 20.5 -70 33.5s-42.5 28.167 -62.5 45.5c-5.33301 -8.66699 -11.166 -16.5 -17.5 -23.5c-6.33301 -7 -13.166 -13.5 -20.5 -19.5c-24 -20.667 -51.833 -36.5 -83.5 -47.5s-67.167 -16.5 -106.5 -16.5h-1479z" />
    <glyph glyph-name="uni06AF" unicode="&#x6af;" horiz-adv-x="2004" arabic-form="isolated" 
d="M1069 -6l-593.999 -0.00195312c-46.667 0.666992 -91 8.83398 -133 24.501s-79 38.5 -111 68.5c-13.333 12 -26.666 26.667 -39.999 44s-25.333 37.833 -36 61.5s-19.5 50.334 -26.5 80.001s-10.5 63.167 -10.5 100.5c0 33.333 3.33301 70 10 110
s14.334 77.833 23.001 113.5s16.667 66.667 24 93s12 42.5 14 48.5l180 -57l-17 -59.5c-7.33301 -25.667 -14.333 -53.167 -21 -82.5s-12.5 -58.833 -17.5 -88.5s-7.5 -55.5 -7.5 -77.5c0 -44 7 -78.667 21 -104s30.5 -44.333 49.5 -57s38 -20.667 57 -24s33.5 -5 43.5 -5
l590 -1c82.667 0 156 1 220 3s118.833 6.66699 164.5 14s82.167 18 109.5 32s46 33 56 57c2.66699 7.33301 4 15.666 4 24.999c0 10.667 -2.83301 25.5 -8.5 44.5s-16.5 43 -32.5 72s-35.5 59.167 -58.5 90.5s-48.167 62.333 -75.5 93c-54 59.333 -104.667 111 -152 155
s-89.833 81.333 -127.5 112s-69.834 54.834 -96.501 72.501s-46.667 30.167 -60 37.5l15 227l902 388l76 -172l-791 -342c25.333 -18.667 52.833 -40.167 82.5 -64.5s60.5 -51.5 92.5 -81.5s64.667 -62.5 98 -97.5l100 -110.5c25.333 -30.667 50.333 -62.667 75 -96
s46.667 -67.5 66 -102.5s35 -70.333 47 -106s18 -71.167 18 -106.5v-18.5c0 -6.33301 -0.666992 -12.833 -2 -19.5c-6 -47.333 -19.5 -87.5 -40.5 -120.5s-47.833 -60.333 -80.5 -82s-70.834 -38.667 -114.501 -51s-91.334 -21.5 -143.001 -27.5s-106.5 -9.66699 -164.5 -11
c-57.333 -1.33301 -116.333 -2 -177 -2zM1032.07 1488.55l790.178 334.484l43.7246 -92.0596l-845.354 -360.057z" />
    <glyph glyph-name="uni06B5.init" unicode="&#x6b5;" horiz-adv-x="575" 
d="M-20 189l34.002 0.00195312c61.333 0 109.166 4.5 143.499 13.5s60.833 22.833 79.5 41.5c13.333 12.667 23.166 30.5 29.499 53.5s9.5 53.5 9.5 91.5v1039h188v-1039c0 -22.667 -1 -46.167 -3 -70.5s-6.33301 -48.833 -13 -73.5s-16.334 -48.834 -29.001 -72.501
s-29.667 -45.834 -51 -66.501c-19.333 -18 -40.166 -33.5 -62.499 -46.5s-47.833 -24 -76.5 -33s-60.667 -15.667 -96 -20s-75 -6.5 -119 -6.5h-34v189zM639.002 2022l-225 -408h-127l-228 408h160l129 -264l133 264h158z" />
    <glyph glyph-name="uni06B5.medi" unicode="&#x6b5;" horiz-adv-x="641" 
d="M-20 189l16.0029 0.000976562c70 0 124.167 6.5 162.5 19.5s66.166 29.333 83.499 49s27.5 41.167 30.5 64.5s4.5 45.666 4.5 66.999v1038h188v-1038c0 -23.333 2.16699 -46.833 6.5 -70.5s13 -45.167 26 -64.5s31.167 -35 54.5 -47s54.333 -18 93 -18h16v-189h-16
c-51.333 -0 -99.833 9.33301 -145.5 28s-88.834 48.667 -129.501 90c-76.667 -78.667 -201.334 -118 -374.001 -118h-16v189zM653.003 2013l-225 -408h-127l-228 408h160l129 -264l133 264h158z" />
    <glyph glyph-name="uni06B5.fina" unicode="&#x6b5;" horiz-adv-x="1403" 
d="M580 -552c-89.333 0 -170.498 19.4971 -243.498 58.4971s-132.167 93.833 -177.5 164.5c-18 28.667 -35.333 66.334 -52 113.001s-26.334 103 -29.001 169c-0.666992 10 -1 20.333 -1 31c0 58 8.16699 126.333 24.5 205s50.166 171.334 101.499 278.001l170 -81
c-31.333 -64 -55.833 -125.333 -73.5 -184s-28.5 -114 -32.5 -166c-1.33301 -18 -2 -35.667 -2 -53c0 -32 3.33301 -66.333 10 -103s21 -72.667 43 -108c28 -42.667 64.833 -75.834 110.5 -99.501s96.167 -35.5 151.5 -35.5h71c76.667 0 139 8 187 24s85.667 38.667 113 68
s46 64.833 56 106.5s15 88.167 15 139.5v1452h186v-1063c0.666992 -26.667 5.5 -50.667 14.5 -72s21.5 -39.666 37.5 -54.999s34.667 -27.166 56 -35.499s45 -12.5 71 -12.5h33v-189h-33c-66 0 -125.667 14.667 -179 44v-69c0 -351.333 -185.667 -527 -557 -527h-71z
M1396 2013l-225 -408h-127l-228 408h160l129 -264l133 264h158z" />
    <glyph glyph-name="uni06BA" unicode="&#x6ba;" horiz-adv-x="1600" arabic-form="isolated" 
d="M682 -554c-103.333 0 -197 22.502 -281 67.502s-152 109.167 -204 192.5c-36 56.667 -61.667 119.667 -77 189c-12.667 53.333 -19 109.333 -19 168c0 17.333 1.5 50.166 4.5 98.499s16.833 115.666 41.5 201.999s59 175.5 103 267.5l170 -81
c-37.333 -77.333 -66.833 -151.5 -88.5 -222.5s-35.167 -138.167 -40.5 -201.5c-2 -21.333 -3 -42 -3 -62c0 -40 4.5 -82.5 13.5 -127.5s27.167 -88.833 54.5 -131.5c34.667 -54 80 -95.833 136 -125.5s119.333 -44.5 190 -44.5h235c76.667 0 139.167 8.16699 187.5 24.5
s86 39.166 113 68.499s45.333 64.833 55 106.5s14.5 87.834 14.5 138.501v703h189v-703c0 -176 -46.667 -307.833 -140 -395.5s-233 -131.5 -419 -131.5h-235z" />
    <glyph glyph-name="uni06BE" unicode="&#x6be;" horiz-adv-x="1651" arabic-form="isolated" 
d="M741 263c50 22 89.665 52.498 118.998 91.498s44 86.5 44 142.5c0 33.333 -6.5 61.5 -19.5 84.5s-28.833 41.5 -47.5 55.5s-38 24.167 -58 30.5s-37.333 9.5 -52 9.5c-27.333 0 -52.166 -4.16699 -74.499 -12.5s-41.5 -19.833 -57.5 -34.5s-28.333 -32.167 -37 -52.5
s-13 -42.5 -13 -66.5c0 -28.667 3.5 -54.167 10.5 -76.5s18.333 -43.166 34 -62.499s35.834 -37.666 60.501 -54.999s55 -35.333 91 -54zM993.998 1052l203.001 -214.999l80 -86.5l74.5 -83l61 -72c17.667 -21.667 30.834 -39.167 39.501 -52.5
c18 -29.333 32.833 -57.666 44.5 -84.999s19.834 -55 24.501 -83c2.66699 -16.667 4 -33.667 4 -51c0 -11.333 -1 -27.333 -3 -48s-8 -48 -18 -82c-10.667 -38.667 -27.5 -73.834 -50.5 -105.501s-50.833 -58.834 -83.5 -81.501s-69.667 -40.167 -111 -52.5
s-86 -18.5 -134 -18.5c-45.333 0 -92.333 6 -141 18s-99 30.667 -151 56c-14.667 6 -28.334 12 -41.001 18l-34.5 16c-11.667 5.33301 -21.167 10 -28.5 14c-31.333 -10 -68.833 -20 -112.5 -30s-92.5 -17.333 -146.5 -22c-33.333 -3.33301 -68.333 -5 -105 -5
c-22.667 0 -55.834 1 -99.501 3s-100.5 11 -170.5 27l34 181c48.667 -9.33301 91.834 -15.5 129.501 -18.5s71.167 -4.5 100.5 -4.5c28.667 0 54 1.33301 76 4l60 7c-48 42 -83 88.167 -105 138.5s-33 107.833 -33 172.5c0 50.667 9.33301 97.5 28 140.5
s44.5 80.167 77.5 111.5s72 55.833 117 73.5s94.167 26.5 147.5 26.5c40 0 76.667 -5.66699 110 -17s63.666 -26.5 90.999 -45.5s51.166 -41 71.499 -66s37.5 -51 51.5 -78s24.5 -54.333 31.5 -82s10.5 -53.5 10.5 -77.5c0 -68.667 -12.833 -130.5 -38.5 -185.5
s-63.5 -103.5 -113.5 -145.5c28 -11.333 57.833 -20.666 89.5 -27.999s63.167 -11 94.5 -11c40.667 0 78.5 8.16699 113.5 24.5s63.167 46.5 84.5 90.5c9.33301 18.667 14 38.667 14 60c0 10 -2.16699 25.667 -6.5 47s-17 50.166 -38 86.499s-47.833 74.333 -80.5 114
s-68.5 80.167 -107.5 121.5l-122 124.5l-124.5 124.5z" />
    <glyph glyph-name="uni06C0" unicode="&#x6c0;" horiz-adv-x="1042" arabic-form="isolated" 
d="M525 0c-60 0 -115.166 9.1709 -165.499 27.5039s-94 43.666 -131 75.999s-65.833 70.666 -86.5 114.999s-31 92.5 -31 144.5c0 66.667 8.83301 125.5 26.5 176.5s40.167 97 67.5 138s57.333 78.5 90 112.5l94 100l-62 69l140 127l107.5 -116.5l108.5 -118
c35.333 -39.667 68.5 -79.334 99.5 -119.001s58.167 -79.334 81.5 -119.001s42 -79.167 56 -118.5c12.667 -38 19 -75.333 19 -112v-6c-0.666992 -54 -11.5 -104.5 -32.5 -151.5s-51.5 -88.5 -91.5 -124.5c-37.333 -32 -80.833 -56.833 -130.5 -74.5
s-102.834 -26.5 -159.501 -26.5zM512.001 755.004l-76.002 -85.5c-25.333 -28.333 -48 -58.166 -68 -89.499s-36.333 -64.666 -49 -99.999s-19 -74.333 -19 -117c0 -30 6.5 -55.833 19.5 -77.5s30 -39.667 51 -54s45 -25 72 -32s54.5 -10.5 82.5 -10.5
c34 0 64.833 4.5 92.5 13.5s51.334 21.833 71.001 38.5s34.834 36.5 45.501 59.5s16 48.5 16 76.5c0 33.333 -7 66.166 -21 98.499s-32.167 64.166 -54.5 95.499s-47.833 62.333 -76.5 93zM571.999 1771c28.667 0 59.3359 -4.33203 92.0029 -12.999l-29 -109
c-22 6 -42.667 9 -62 9c-35.333 0 -64.333 -9.33301 -87 -28c-24.667 -21.333 -40 -51.333 -46 -90c38 -6 68 -11 90 -15s39.667 -7.66699 53 -11c11.333 -2.66699 20.666 -5.5 27.999 -8.5s13.666 -6.16699 18.999 -9.5c20 -14 30 -33.333 30 -58
c0 -6 -0.166992 -13.833 -0.5 -23.5s-1.5 -20.167 -3.5 -31.5s-5.33301 -23.5 -10 -36.5s-11.334 -25.5 -20.001 -37.5c-39.333 -56.667 -107.333 -85 -204 -85h-110v113h110c24 0 43.833 2 59.5 6s28 9.33301 37 16s15.5 14.167 19.5 22.5s6.66699 16.833 8 25.5
c-16.667 3.33301 -39.667 7.5 -69 12.5l-103 17.5l-43 7l-4 44c-0.666992 8 -1 16 -1 24c0 37.333 6.83301 74.166 20.5 110.499s36.167 67.5 67.5 93.5c16 14 36.833 26.667 62.5 38s57.5 17 95.5 17z" />
    <glyph glyph-name="uni06C1" unicode="&#x6c1;" horiz-adv-x="1042" arabic-form="isolated" 
d="M525 0c-60 0 -115.166 9.1709 -165.499 27.5039s-94 43.666 -131 75.999s-65.833 70.666 -86.5 114.999s-31 92.5 -31 144.5c0 66.667 8.83301 125.5 26.5 176.5s40.167 97 67.5 138s57.333 78.5 90 112.5l94 100l-62 69l140 127l107.5 -116.5l108.5 -118
c35.333 -39.667 68.5 -79.334 99.5 -119.001s58.167 -79.334 81.5 -119.001s42 -79.167 56 -118.5c12.667 -38 19 -75.333 19 -112v-6c-0.666992 -54 -11.5 -104.5 -32.5 -151.5s-51.5 -88.5 -91.5 -124.5c-37.333 -32 -80.833 -56.833 -130.5 -74.5
s-102.834 -26.5 -159.501 -26.5zM512.001 755.004l-76.002 -85.5c-25.333 -28.333 -48 -58.166 -68 -89.499s-36.333 -64.666 -49 -99.999s-19 -74.333 -19 -117c0 -30 6.5 -55.833 19.5 -77.5s30 -39.667 51 -54s45 -25 72 -32s54.5 -10.5 82.5 -10.5
c34 0 64.833 4.5 92.5 13.5s51.334 21.833 71.001 38.5s34.834 36.5 45.501 59.5s16 48.5 16 76.5c0 33.333 -7 66.166 -21 98.499s-32.167 64.166 -54.5 95.499s-47.833 62.333 -76.5 93z" />
    <glyph glyph-name="uni06C2.fina" unicode="&#x6c2;" horiz-adv-x="1282" 
d="M1302 0l-57.998 0.000976562c-19.333 0 -40.5 1 -63.5 3s-47.167 6 -72.5 12s-51.333 14 -78 24s-53.334 23 -80.001 39c-52 32.667 -95.5 73.334 -130.5 122.001s-60.5 104.667 -76.5 168l-33 128l-32 125.5l-32.5 131.5l-35.5 146l-120 -25
c-70 -18 -117.667 -49.333 -143 -94c-19.333 -32.667 -29.666 -72 -30.999 -118v-26c0 -38 3.66699 -80.333 11 -127s18.166 -96.334 32.499 -149.001s28.5 -102 42.5 -148l28 -92l-182 -51c-4.66699 14 -9 28.5 -13 43.5s-8.66699 30.5 -14 46.5
c-16.667 56.667 -33.334 116.5 -50.001 179.5s-28.667 125.833 -36 188.5c-4.66699 36 -7 71.333 -7 106c0 26 2.16699 60.167 6.5 102.5s20.833 88.5 49.5 138.5c54 93.333 141.333 154 262 182c13.333 3.33301 31.833 7.66602 55.5 12.999l70.5 15.5
c23.333 5 43.833 9.16699 61.5 12.5s27.167 5 28.5 5l111 -72l41.5 -176.5l37.5 -153l36 -141.5l37 -143c12.667 -49.333 32 -88.833 58 -118.5s54.333 -52.5 85 -68.5s61.667 -26.667 93 -32s59 -8 83 -8h58v-189zM150.002 1146l9 126.996l124 37
c-36 28.667 -60.667 63.334 -74 104.001c-6 18 -9 36 -9 54c0 8 1.16699 20.833 3.5 38.5s10 38 23 61s30 43 51 60s44.167 29.167 69.5 36.5c18 6 36 9.16699 54 9.5s35.5 -0.666992 52.5 -3s33.167 -6 48.5 -11l43 -14.5l-25 -101
c-11.333 2.66699 -23.333 5.33398 -36 8.00098s-25.334 4.83398 -38.001 6.50098s-24.667 2.33398 -36 2.00098s-20.666 -1.83301 -27.999 -4.5c-11.333 -4 -21.833 -9.5 -31.5 -16.5s-17.667 -15 -24 -24s-10.5 -19.167 -12.5 -30.5c-0.666992 -4 -1 -8 -1 -12
c0 -8 1.33301 -16.333 4 -25c4 -13.333 11.5 -25.5 22.5 -36.5s25.833 -19.5 44.5 -25.5s41 -9 67 -9s56.667 4.66699 92 14l85 25l34 -108z" />
    <glyph glyph-name="uni06C3.fina" unicode="&#x6c3;" horiz-adv-x="1282" 
d="M1302 0l-57.998 0.000976562c-19.333 0 -40.5 1 -63.5 3s-47.167 6 -72.5 12s-51.333 14 -78 24s-53.334 23 -80.001 39c-52 32.667 -95.5 73.334 -130.5 122.001s-60.5 104.667 -76.5 168l-33 128l-32 125.5l-32.5 131.5l-35.5 146l-120 -25
c-70 -18 -117.667 -49.333 -143 -94c-19.333 -32.667 -29.666 -72 -30.999 -118v-26c0 -38 3.66699 -80.333 11 -127s18.166 -96.334 32.499 -149.001s28.5 -102 42.5 -148l28 -92l-182 -51c-4.66699 14 -9 28.5 -13 43.5s-8.66699 30.5 -14 46.5
c-16.667 56.667 -33.334 116.5 -50.001 179.5s-28.667 125.833 -36 188.5c-4.66699 36 -7 71.333 -7 106c0 26 2.16699 60.167 6.5 102.5s20.833 88.5 49.5 138.5c54 93.333 141.333 154 262 182c13.333 3.33301 31.833 7.66602 55.5 12.999l70.5 15.5
c23.333 5 43.833 9.16699 61.5 12.5s27.167 5 28.5 5l111 -72l41.5 -176.5l37.5 -153l36 -141.5l37 -143c12.667 -49.333 32 -88.833 58 -118.5s54.333 -52.5 85 -68.5s61.667 -26.667 93 -32s59 -8 83 -8h58v-189zM668.002 1215l-158 160l156 162l162 -162zM285.002 1217
l-158 160l156 162l162 -162z" />
    <glyph glyph-name="uni06C6.fina" unicode="&#x6c6;" horiz-adv-x="1040" arabic-form="final" 
d="M204 -363c100.667 0 185.333 7.66504 254 22.998s123 39 163 71c34.667 28 60.167 63.667 76.5 107s24.5 97.333 24.5 162h-184c-46.667 0 -94 7 -142 21s-91.5 37 -130.5 69s-70.833 73.833 -95.5 125.5s-37 114.834 -37 189.501c0 44 3.83301 83.833 11.5 119.5
s17.334 67.5 29.001 95.5s24.5 52.333 38.5 73s27.667 38.334 41 53.001c36.667 36.667 78.667 65 126 85s98 30 152 30c47.333 0 91.666 -7.33301 132.999 -22s78.333 -36.667 111 -66c90 -84 135 -215.667 135 -395v-189h150v-189h-150
c0 -94.667 -13.833 -176.167 -41.5 -244.5s-70.5 -125.5 -128.5 -171.5c-58.667 -46 -131.5 -80.167 -218.5 -102.5s-192.833 -33.5 -317.5 -33.5v189zM520.999 671.998c-66 0 -117.335 -23.333 -154.002 -70s-55 -112.334 -55 -197.001c0 -86 26 -145.667 78 -179
c12.667 -8 25.667 -14.5 39 -19.5s26.333 -8.66699 39 -11s24.167 -4 34.5 -5s18.833 -1.5 25.5 -1.5h184v189c0 48.667 -3.66699 89.834 -11 123.501s-16.666 61.5 -27.999 83.5s-24.166 38.833 -38.499 50.5s-28.5 20.167 -42.5 25.5s-27.333 8.5 -40 9.5s-23 1.5 -31 1.5
zM822.997 1473l-225 -408h-127l-228 408h160l129 -264l133 264h158z" />
    <glyph glyph-name="uni06CC" unicode="&#x6cc;" horiz-adv-x="1671" arabic-form="isolated" 
d="M933 -361c66.667 0 124.502 5.83301 173.502 17.5s89.5 30.167 121.5 55.5s55.667 58.333 71 99s23 90 23 148l-188 50l-82 21.5l-85.5 23l-83 21.5l-74.5 19c-29.333 71.333 -44 141.666 -44 210.999c0 4 0.5 25.333 1.5 64s15.167 89.667 42.5 153
s66 120.166 116 170.499s107.667 90.5 173 120.5s136.666 48.333 213.999 55c15.333 1.33301 31 2 47 2c62.667 0 127 -9.66699 193 -29l-47 -181c-45.333 14 -91.333 20.833 -138 20.5s-91.5 -7 -134.5 -20s-82.833 -31.833 -119.5 -56.5s-67.834 -54.167 -93.501 -88.5
s-44.167 -72.833 -55.5 -115.5c-8 -28 -12 -57 -12 -87c0 -17.333 1.33301 -34.666 4 -51.999l383 -95c53.333 -14.667 93.333 -38.667 120 -72s40 -74 40 -122c0 -87.333 -10.333 -163.833 -31 -229.5s-53.667 -120.167 -99 -163.5s-103.833 -76 -175.5 -98
s-158.5 -33 -260.5 -33h-221c-50.667 0 -99.667 6.33301 -147 19s-92 30.334 -134 53.001s-80.667 50 -116 82s-66.333 67.333 -93 106c-31.333 50.667 -55 106.334 -71 167.001s-24 124.667 -24 192c0 83.333 13.167 173.166 39.5 269.499s64.833 198.166 115.5 305.499
l84 -40.5l82 -40.5c-88 -188 -132 -351 -132 -489c0 -49.333 6 -96.333 18 -141s28.667 -85 50 -121c34 -53.333 80 -95.166 138 -125.499s121.333 -45.5 190 -45.5h221z" />
    <glyph glyph-name="uni06CE.init" unicode="&#x6ce;" horiz-adv-x="873" 
d="M675 814c1.33301 -4 4.00293 -14.668 8.00293 -32.001s8.5 -38.833 13.5 -64.5l16.5 -85c6 -31 11.333 -62.333 16 -94s8.66699 -62.167 12 -91.5s5 -55 5 -77c0 -64 -10.5 -119.167 -31.5 -165.5s-48.333 -84.666 -82 -114.999s-71.5 -52.833 -113.5 -67.5
s-84.333 -22 -127 -22h-414v189h414c10 0 24.167 1.5 42.5 4.5s36.666 10.5 54.999 22.5s34.333 30 48 54s20.5 57.333 20.5 100c0 14.667 -1.16699 33.167 -3.5 55.5s-5.33301 46.333 -9 72s-7.83398 52 -12.501 79s-9.33398 52.5 -14.001 76.5s-9 45.333 -13 64
s-7.33301 32.667 -10 42zM751.003 -334.001l-162 -162l-156 162l158 160zM368.003 -336.001l-162 -162l-156 162l158 160zM660.003 1437l-225 -408h-127l-228 408h160l129 -264l133 264h158z" />
    <glyph glyph-name="uni06CE.medi" unicode="&#x6ce;" horiz-adv-x="1049" 
d="M1072 189l0.00292969 -188.999h-175c-60.667 0 -114.167 8.66699 -160.5 26s-83.5 43.333 -111.5 78c-69.333 -69.333 -172 -104 -308 -104h-340v189h340c48 0 86 4.83301 114 14.5s49.167 21.667 63.5 36s23.666 30.333 27.999 48s6.5 34.5 6.5 50.5v338h188v-331
c0 -24.667 3.83301 -45.667 11.5 -63s17.167 -31.833 28.5 -43.5s24.166 -20.834 38.499 -27.501s28.166 -11.667 41.499 -15s25.333 -5.33301 36 -6s18.667 -1 24 -1h175zM848.003 -325.999l-162 -162l-156 162l158 160zM465.003 -327.999l-162 -162l-156 162l158 160z
M933.003 1269l-225 -408h-127l-228 408h160l129 -264l133 264h158z" />
    <glyph glyph-name="uni06CE.fina" unicode="&#x6ce;" horiz-adv-x="1774" 
d="M1514 0c28 -54.667 43.333 -106.331 46 -154.998l1 -14c0 -43.333 -8.66699 -84.333 -26 -123s-44.333 -74.334 -81 -107.001s-80 -60.167 -130 -82.5s-105.667 -39.666 -167 -51.999s-126 -18.5 -194 -18.5h-285c-105.333 0 -200 23 -284 69s-152.667 109.667 -206 191
c-36 57.333 -61.667 121 -77 191c-12 54 -18 110.667 -18 170c0 17.333 1.33301 50.166 4 98.499s16.5 116.166 41.5 203.499s60.167 177.666 105.5 270.999l168 -82c-74.667 -157.333 -117 -299.666 -127 -426.999c-1.33301 -21.333 -2 -42 -2 -62
c0 -101.333 22.333 -188.333 67 -261c34 -55.333 79.5 -97.666 136.5 -126.999s120.833 -44 191.5 -44h285c37.333 0 74 2.83301 110 8.5s69.667 13.5 101 23.5s59.666 21.833 84.999 35.5s46.5 28.834 63.5 45.501s28.833 34.667 35.5 54c4 10 6 20 6 30
c0 9.33301 -1.66699 18.666 -5 27.999c-8 26 -26.667 47.833 -56 65.5s-64.666 31.667 -105.999 42s-86 17.666 -134 21.999s-94.333 6.5 -139 6.5l7 189h862v-189h-279zM1163 822.003l-225 -408h-127l-228 408h160l129 -264l133 264h158z" />
    <glyph glyph-name="uni06D2" unicode="&#x6d2;" horiz-adv-x="1651" arabic-form="isolated" 
d="M1634 -364v-187.999h-1145c-56 0 -108 8.83301 -156 26.5s-89.667 43 -125 76s-63 73 -83 120s-30 99.5 -30 157.5c0 50.667 10.833 98 32.5 142s50.834 82.333 87.501 115s78.667 58.167 126 76.5s96.666 27.5 147.999 27.5h403v-189h-395
c-28.667 0 -56.5 -4.5 -83.5 -13.5s-51 -21.667 -72 -38s-37.833 -35.833 -50.5 -58.5s-19 -47.334 -19 -74.001s6.33301 -51 19 -73s29.167 -41 49.5 -57s43.5 -28.333 69.5 -37s52.333 -13 79 -13h1145z" />
    <glyph glyph-name="uni06D3" unicode="&#x6d3;" horiz-adv-x="1647" arabic-form="isolated" 
d="M1634 -364v-187.999h-1145c-56 0 -108 8.83301 -156 26.5s-89.667 43 -125 76s-63 73 -83 120s-30 99.5 -30 157.5c0 50.667 10.833 98 32.5 142s50.834 82.333 87.501 115s78.667 58.167 126 76.5s96.666 27.5 147.999 27.5h403v-189h-395
c-28.667 0 -56.5 -4.5 -83.5 -13.5s-51 -21.667 -72 -38s-37.833 -35.833 -50.5 -58.5s-19 -47.334 -19 -74.001s6.33301 -51 19 -73s29.167 -41 49.5 -57s43.5 -28.333 69.5 -37s52.333 -13 79 -13h1145zM183 322.001l9 126.996l124 37
c-36 28.667 -60.667 63.334 -74 104.001c-6 18 -9 36 -9 54c0 8 1.16699 20.833 3.5 38.5s10 38 23 61s30 43 51 60s44.167 29.167 69.5 36.5c18 6 36 9.16699 54 9.5s35.5 -0.666992 52.5 -3s33.167 -6 48.5 -11l43 -14.5l-25 -101
c-11.333 2.66699 -23.333 5.33398 -36 8.00098s-25.334 4.83398 -38.001 6.50098s-24.667 2.33398 -36 2.00098s-20.666 -1.83301 -27.999 -4.5c-11.333 -4 -21.833 -9.5 -31.5 -16.5s-17.667 -15 -24 -24s-10.5 -19.167 -12.5 -30.5c-0.666992 -4 -1 -8 -1 -12
c0 -8 1.33301 -16.333 4 -25c4 -13.333 11.5 -25.5 22.5 -36.5s25.833 -19.5 44.5 -25.5s41 -9 67 -9s56.667 4.66699 92 14l85 25l34 -108z" />
    <glyph glyph-name="uni0671.fina" unicode="&#x671;" horiz-adv-x="606" arabic-form="final" 
d="M626 0c-63.333 0.666992 -117.834 5.5 -163.501 14.5s-84.334 22 -116.001 39s-57 38.333 -76 64s-33.833 55.667 -44.5 90s-17.667 72.833 -21 115.5s-5 90 -5 142v809h189v-809c0 -58 1.83301 -105 5.5 -141s13.334 -63.833 29.001 -83.5s39.334 -33 71.001 -40
s75.5 -10.833 131.5 -11.5v-189zM5.99902 1433l19 84.998h129l47 73l83 122c25.333 30.667 53.333 56.334 84 77.001s65 31 103 31c22 0 43.5 -4 64.5 -12s39.833 -20.5 56.5 -37.5s30.167 -38.5 40.5 -64.5s15.5 -56.667 15.5 -92c0 -34 -5.66699 -62.5 -17 -85.5
s-25.666 -41.667 -42.999 -56s-36.833 -24.666 -58.5 -30.999s-42.834 -9.5 -63.501 -9.5h-460zM465.999 1518c28 0 50.999 7.66699 68.999 23s27 40 27 74c0 38.667 -7.83301 68.5 -23.5 89.5s-38.167 31.5 -67.5 31.5c-21.333 0 -41.666 -6.66699 -60.999 -20
s-38 -30.5 -56 -51.5s-35.167 -44.167 -51.5 -69.5s-31.5 -50 -45.5 -74c-0.666992 -0.666992 -1 -1.66699 -1 -3h210z" />
    <glyph glyph-name="uni067E.fina" unicode="&#x67e;" horiz-adv-x="2220" arabic-form="final" 
d="M2249 189l-0.000976562 -187.996h-30c-48.667 0 -94.667 7.16699 -138 21.5s-82 35.166 -116 62.499l-12 10.5l-12 11.5c-70.667 -70 -173 -105.333 -307 -106h-1135c-47.333 0 -91.833 8 -133.5 24s-78.5 39 -110.5 69c-13.333 12 -26.666 26.667 -39.999 44
s-25.5 37.666 -36.5 60.999s-20 49.833 -27 79.5s-10.5 63.167 -10.5 100.5c0 33.333 3.5 70 10.5 110s14.667 78 23 114s16.333 67 24 93s12.5 42 14.5 48l180 -57c-4.66699 -14 -10.5 -33.833 -17.5 -59.5s-14 -53.167 -21 -82.5s-13 -58.833 -18 -88.5
s-7.5 -55.5 -7.5 -77.5c0 -44 7 -78.667 21 -104s30.5 -44.333 49.5 -57s38.167 -20.667 57.5 -24s34 -5 44 -5h1126c48.667 0 87.5 5 116.5 15s51 22.667 66 38s24.667 32.166 29 50.499s6.5 35.833 6.5 52.5v347h189v-342c0 -38 8.16699 -67.833 24.5 -89.5
s35.166 -37.834 56.5 -48.501c21.333 -10.667 42 -17.167 62 -19.5s34 -3.5 42 -3.5h30zM1092 -785.996l-144 143l140 139l142 -139zM1439 -350.996l-162 -162l-156 162l158 160zM1056 -352.996l-162 -162l-156 162l158 160z" />
    <glyph glyph-name="uni067E.init" unicode="&#x67e;" horiz-adv-x="873" arabic-form="initial" 
d="M675 814c1.33301 -4 4.00293 -14.668 8.00293 -32.001s8.5 -38.833 13.5 -64.5l16.5 -85c6 -31 11.333 -62.333 16 -94s8.66699 -62.167 12 -91.5s5 -55 5 -77c0 -64 -10.5 -119.167 -31.5 -165.5s-48.333 -84.666 -82 -114.999s-71.5 -52.833 -113.5 -67.5
s-84.333 -22 -127 -22h-414v189h414c10 0 24.167 1.5 42.5 4.5s36.666 10.5 54.999 22.5s34.333 30 48 54s20.5 57.333 20.5 100c0 14.667 -1.16699 33.167 -3.5 55.5s-5.33301 46.333 -9 72s-7.83398 52 -12.501 79s-9.33398 52.5 -14.001 76.5s-9 45.333 -13 64
s-7.33301 32.667 -10 42zM457.003 -789.001l-144 143l140 139l142 -139zM804.003 -354.001l-162 -162l-156 162l158 160zM421.003 -356.001l-162 -162l-156 162l158 160z" />
    <glyph glyph-name="uni067E.medi" unicode="&#x67e;" horiz-adv-x="1049" arabic-form="medial" 
d="M1072 189l0.00292969 -188.999h-175c-60.667 0 -114.167 8.66699 -160.5 26s-83.5 43.333 -111.5 78c-69.333 -69.333 -172 -104 -308 -104h-340v189h340c48 0 86 4.83301 114 14.5s49.167 21.667 63.5 36s23.666 30.333 27.999 48s6.5 34.5 6.5 50.5v338h188v-331
c0 -24.667 3.83301 -45.667 11.5 -63s17.167 -31.833 28.5 -43.5s24.166 -20.834 38.499 -27.501s28.166 -11.667 41.499 -15s25.333 -5.33301 36 -6s18.667 -1 24 -1h175zM486.003 -783.999l-144 143l140 139l142 -139zM833.003 -348.999l-162 -162l-156 162l158 160z
M450.003 -350.999l-162 -162l-156 162l158 160z" />
    <glyph glyph-name="uni0679.fina" unicode="&#x679;" horiz-adv-x="2220" arabic-form="final" 
d="M2249 189l-0.000976562 -187.996h-30c-48.667 0 -94.667 7.16699 -138 21.5s-82 35.166 -116 62.499l-12 10.5l-12 11.5c-70.667 -70 -173 -105.333 -307 -106h-1135c-47.333 0 -91.833 8 -133.5 24s-78.5 39 -110.5 69c-13.333 12 -26.666 26.667 -39.999 44
s-25.5 37.666 -36.5 60.999s-20 49.833 -27 79.5s-10.5 63.167 -10.5 100.5c0 33.333 3.5 70 10.5 110s14.667 78 23 114s16.333 67 24 93s12.5 42 14.5 48l180 -57c-4.66699 -14 -10.5 -33.833 -17.5 -59.5s-14 -53.167 -21 -82.5s-13 -58.833 -18 -88.5
s-7.5 -55.5 -7.5 -77.5c0 -44 7 -78.667 21 -104s30.5 -44.333 49.5 -57s38.167 -20.667 57.5 -24s34 -5 44 -5h1126c48.667 0 87.5 5 116.5 15s51 22.667 66 38s24.667 32.166 29 50.499s6.5 35.833 6.5 52.5v347h189v-342c0 -38 8.16699 -67.833 24.5 -89.5
s35.166 -37.834 56.5 -48.501c21.333 -10.667 42 -17.167 62 -19.5s34 -3.5 42 -3.5h30zM839.999 680.004v84.998h100l47 73v485h83v-363c25.333 30.667 53.333 56.334 84 77.001s65 31 103 31c22 0 43.5 -4 64.5 -12s39.833 -20.5 56.5 -37.5s30.167 -38.5 40.5 -64.5
s15.5 -56.667 15.5 -92c0 -34 -5.66699 -62.5 -17 -85.5s-25.666 -41.667 -42.999 -56s-36.833 -24.666 -58.5 -30.999s-42.834 -9.5 -63.501 -9.5h-412zM1252 765.002c28 0 50.999 7.66699 68.999 23s27 40 27 74c0 38.667 -7.83301 68.5 -23.5 89.5
s-38.167 31.5 -67.5 31.5c-21.333 0 -41.666 -6.66699 -60.999 -20s-38 -30.5 -56 -51.5s-35.167 -44.167 -51.5 -69.5s-31.5 -50 -45.5 -74c-0.666992 -0.666992 -1 -1.66699 -1 -3h210z" />
    <glyph glyph-name="uni0679.init" unicode="&#x679;" horiz-adv-x="873" arabic-form="initial" 
d="M675 814c1.33301 -4 4.00293 -14.668 8.00293 -32.001s8.5 -38.833 13.5 -64.5l16.5 -85c6 -31 11.333 -62.333 16 -94s8.66699 -62.167 12 -91.5s5 -55 5 -77c0 -64 -10.5 -119.167 -31.5 -165.5s-48.333 -84.666 -82 -114.999s-71.5 -52.833 -113.5 -67.5
s-84.333 -22 -127 -22h-414v189h414c10 0 24.167 1.5 42.5 4.5s36.666 10.5 54.999 22.5s34.333 30 48 54s20.5 57.333 20.5 100c0 14.667 -1.16699 33.167 -3.5 55.5s-5.33301 46.333 -9 72s-7.83398 52 -12.501 79s-9.33398 52.5 -14.001 76.5s-9 45.333 -13 64
s-7.33301 32.667 -10 42zM181.003 989.999v84.998h100l47 73v485h83v-363c25.333 30.667 53.333 56.334 84 77.001s65 31 103 31c22 0 43.5 -4 64.5 -12s39.833 -20.5 56.5 -37.5s30.167 -38.5 40.5 -64.5s15.5 -56.667 15.5 -92c0 -34 -5.66699 -62.5 -17 -85.5
s-25.666 -41.667 -42.999 -56s-36.833 -24.666 -58.5 -30.999s-42.834 -9.5 -63.501 -9.5h-412zM593.003 1075c28 0 50.999 7.66699 68.999 23s27 40 27 74c0 38.667 -7.83301 68.5 -23.5 89.5s-38.167 31.5 -67.5 31.5c-21.333 0 -41.666 -6.66699 -60.999 -20
s-38 -30.5 -56 -51.5s-35.167 -44.167 -51.5 -69.5s-31.5 -50 -45.5 -74c-0.666992 -0.666992 -1 -1.66699 -1 -3h210z" />
    <glyph glyph-name="uni0679.medi" unicode="&#x679;" horiz-adv-x="1049" arabic-form="medial" 
d="M1072 189l0.00292969 -188.999h-175c-60.667 0 -114.167 8.66699 -160.5 26s-83.5 43.333 -111.5 78c-69.333 -69.333 -172 -104 -308 -104h-340v189h340c48 0 86 4.83301 114 14.5s49.167 21.667 63.5 36s23.666 30.333 27.999 48s6.5 34.5 6.5 50.5v338h188v-331
c0 -24.667 3.83301 -45.667 11.5 -63s17.167 -31.833 28.5 -43.5s24.166 -20.834 38.499 -27.501s28.166 -11.667 41.499 -15s25.333 -5.33301 36 -6s18.667 -1 24 -1h175zM146.003 856.001v84.998h100l47 73v485h83v-363c25.333 30.667 53.333 56.334 84 77.001
s65 31 103 31c22 0 43.5 -4 64.5 -12s39.833 -20.5 56.5 -37.5s30.167 -38.5 40.5 -64.5s15.5 -56.667 15.5 -92c0 -34 -5.66699 -62.5 -17 -85.5s-25.666 -41.667 -42.999 -56s-36.833 -24.666 -58.5 -30.999s-42.834 -9.5 -63.501 -9.5h-412zM558.003 940.999
c28 0 50.999 7.66699 68.999 23s27 40 27 74c0 38.667 -7.83301 68.5 -23.5 89.5s-38.167 31.5 -67.5 31.5c-21.333 0 -41.666 -6.66699 -60.999 -20s-38 -30.5 -56 -51.5s-35.167 -44.167 -51.5 -69.5s-31.5 -50 -45.5 -74c-0.666992 -0.666992 -1 -1.66699 -1 -3h210z" />
    <glyph glyph-name="veh.isol" unicode="&#x6a4;" horiz-adv-x="2127" arabic-form="isolated" 
d="M1620 897c-22.667 0 -44.833 -3.83398 -66.5 -11.501s-41 -19.667 -58 -36s-30.833 -37 -41.5 -62s-16 -54.5 -16 -88.5c0 -25.333 3 -48 9 -68s17.5 -37 34.5 -51s40.5 -24.667 70.5 -32s69 -11 117 -11h152c-3.33301 42.667 -7.5 85.334 -12.5 128.001
s-14 81.167 -27 115.5s-32.167 62.333 -57.5 84s-60 32.5 -104 32.5zM1466 -3.00098h-982.001c-46.667 0.666992 -91 8.83398 -133 24.501s-79 38.5 -111 68.5c-13.333 12 -26.666 26.667 -39.999 44s-25.333 37.833 -36 61.5s-19.5 50.334 -26.5 80.001
s-10.5 63.167 -10.5 100.5c0 33.333 3.33301 70 10 110s14.334 77.833 23.001 113.5s16.667 66.667 24 93s12 42.5 14 48.5l180 -57l-17 -59.5c-7.33301 -25.667 -14.333 -53.167 -21 -82.5s-12.5 -58.833 -17.5 -88.5s-7.5 -55.5 -7.5 -77.5c0 -44 7 -78.667 21 -104
s30.5 -44.333 49.5 -57s38 -20.667 57 -24s33.5 -5 43.5 -5h980c50 0 93.167 2.5 129.5 7.5s67.5 11.5 93.5 19.5s47.167 17.5 63.5 28.5s29.333 22.5 39 34.5s16.5 24.167 20.5 36.5s6.66699 24.166 8 35.499c-21.333 0 -45 0.166992 -71 0.5s-52.667 0.5 -80 0.5
c-50 0 -99.833 4.66699 -149.5 14s-94.5 27 -134.5 53s-72.5 61.667 -97.5 107s-37.5 104 -37.5 176c0 54 9.16699 104.333 27.5 151s43.833 87.5 76.5 122.5s71.667 62.5 117 82.5s95 30 149 30c74 0 136 -16.167 186 -48.5s90.167 -75 120.5 -128
s51.833 -113.333 64.5 -181s19 -136.834 19 -207.501v-137c0 -76 -15 -138.833 -45 -188.5s-70.167 -89.167 -120.5 -118.5s-108.333 -49.833 -174 -61.5s-133.834 -17.5 -204.501 -17.5zM1750 1645l-142 -139l-140 139l144 143zM1799 1193l-158 160l156 162l162 -162z
M1416 1195l-158 160l156 162l162 -162z" />
    <glyph glyph-name="veh.fina" unicode="&#x6a4;" horiz-adv-x="2128" arabic-form="final" 
d="M1648 246c30 10.667 57.0029 24.001 81.0029 40.001s44.5 34.667 61.5 56s30.167 45.666 39.5 72.999s14 58.333 14 93c0 20 -5.16699 40 -15.5 60s-24.333 38 -42 54s-37.834 29 -60.501 39s-46.334 15 -71.001 15c-28 0 -54.833 -4.5 -80.5 -13.5
s-48.334 -21 -68.001 -36s-35.167 -32.833 -46.5 -53.5s-17 -42.334 -17 -65.001v-12c0 -28.667 4.5 -55.834 13.5 -81.501s22.5 -49.167 40.5 -70.5s39.833 -40.166 65.5 -56.499s54.167 -30.166 85.5 -41.499zM484.003 -2.99902
c-46.667 0.666992 -91.0029 8.83203 -133.003 24.499s-79 38.5 -111 68.5c-13.333 12 -26.666 26.667 -39.999 44s-25.333 37.833 -36 61.5s-19.5 50.334 -26.5 80.001s-10.5 63.167 -10.5 100.5c0 33.333 3.33301 70 10 110s14.334 77.833 23.001 113.5
s16.667 66.667 24 93s12 42.5 14 48.5l180 -57l-17 -59.5c-7.33301 -25.667 -14.333 -53.167 -21 -82.5s-12.5 -58.833 -17.5 -88.5s-7.5 -55.5 -7.5 -77.5c0 -44 7 -78.667 21 -104s30.5 -44.333 49.5 -57s38 -20.667 57 -24s33.5 -5 43.5 -5l703 2
c69.333 0.666992 132.666 3 189.999 7c-39.333 40.667 -68.666 87.167 -87.999 139.5s-29 110.166 -29 173.499c0 48.667 10.167 94.667 30.5 138s48.333 81.333 84 114s77.334 58.334 125.001 77.001s98.834 28 153.501 28c57.333 0 108.666 -10 153.999 -30
s83.666 -46.5 114.999 -79.5s55.333 -71 72 -114s25 -87.5 25 -133.5c0 -64.667 -9.16699 -123 -27.5 -175s-46.166 -98 -83.499 -138c50.667 -4 105.334 -6 164.001 -6h76v-189h-76c-170.667 0 -313.334 16 -428.001 48c-58.667 -16 -126 -28 -202 -36
s-161 -12.333 -255 -13zM1786 1440l-142 -139l-140 139l144 143zM1835 987.999l-158 160l156 162l162 -162zM1452 989.999l-158 160l156 162l162 -162z" />
    <glyph glyph-name="veh.init" unicode="&#x6a4;" horiz-adv-x="1036" arabic-form="initial" 
d="M-22 0l-0.00585938 189.001h444c74.667 0 134.834 5.33301 180.501 16s81.167 24 106.5 40s42.5 33.5 51.5 52.5s14.5 37.167 16.5 54.5h-152c-17.333 0 -36.666 0.666992 -57.999 2s-43.5 3.83301 -66.5 7.5s-46.167 9.16699 -69.5 16.5s-46 17 -68 29
c-18 10.667 -36.333 24 -55 40s-35.5 35.833 -50.5 59.5s-27.333 51.667 -37 84s-14.5 70.166 -14.5 113.499c0 54 9.33301 105.167 28 153.5s45.334 89.833 80.001 124.5s74.334 61 119.001 79s92.334 27 143.001 27c58 0 111.333 -12.333 160 -37s89.667 -60 123 -106
c36 -48 62.667 -107.333 80 -178s26 -151.667 26 -243v-138c0 -66 -13.167 -124.667 -39.5 -176s-66.166 -93 -119.499 -125c-88.667 -56.667 -216.667 -85 -384 -85h-444zM575.994 899.001c-22 0 -44.502 -3.83008 -67.502 -11.4971s-43.667 -19.334 -62 -35.001
s-33.333 -35.834 -45 -60.501s-17.5 -54 -17.5 -88c0 -22 2.33301 -40.5 7 -55.5s10.667 -27.333 18 -37s15 -17.5 23 -23.5s15.667 -11 23 -15c19.333 -11.333 43 -19.5 71 -24.5s61 -7.5 99 -7.5h154c-1.33301 66 -8.16602 123.667 -20.499 173
s-29.166 89.666 -50.499 120.999c-32 42.667 -76 64 -132 64zM722.992 1664l-142 -139l-140 139l144 143zM771.992 1212l-158 160l156 162l162 -162zM388.992 1214l-158 160l156 162l162 -162z" />
    <glyph glyph-name="veh.medi" unicode="&#x6a4;" horiz-adv-x="1085" arabic-form="medial" 
d="M573 246c30 10.667 57.0029 24.001 81.0029 40.001s44.5 34.667 61.5 56s30.167 45.666 39.5 72.999s14 58.333 14 93c0 20 -5.16699 40 -15.5 60s-24.333 38 -42 54s-37.834 29 -60.501 39s-46.334 15 -71.001 15c-28 0 -54.833 -4.5 -80.5 -13.5
s-48.334 -21 -68.001 -36s-35.167 -32.833 -46.5 -53.5s-17 -42.334 -17 -65.001v-12c0 -28.667 4.5 -55.834 13.5 -81.501s22.5 -49.167 40.5 -70.5s39.833 -40.166 65.5 -56.499s54.167 -30.166 85.5 -41.499zM580.003 865.001c57.333 0 108.664 -10 153.997 -30
s83.666 -46.5 114.999 -79.5s55.333 -71 72 -114s25 -87.5 25 -133.5c0 -64.667 -9.16699 -123 -27.5 -175s-46.166 -98 -83.499 -138c50.667 -4 105.334 -6 164.001 -6h116v-189h-116c-170.667 0 -313.334 16 -428.001 48c-58.667 -16 -126 -28 -202 -36
s-162.667 -12 -260 -12h-119v189h119c72.667 0 137.667 2 195 6c-39.333 40.667 -68.666 87.167 -87.999 139.5s-29 110.166 -29 173.499c0 48.667 10.167 94.667 30.5 138s48.333 81.333 84 114s77.334 58.334 125.001 77.001s98.834 28 153.501 28zM720.001 1437
l-142 -139l-140 139l144 143zM769.001 985.001l-158 160l156 162l162 -162zM386.001 987.001l-158 160l156 162l162 -162z" />
    <glyph glyph-name="uni0686.fina" unicode="&#x686;" horiz-adv-x="1568" arabic-form="final" 
d="M1169 474c0.666992 -54.667 4.33203 -99.6689 10.999 -135.002c7.33301 -38 18 -68 32 -90s31.333 -37.5 52 -46.5s44.334 -13.5 71.001 -13.5h253v-189h-253c-42 0 -83.5 7 -124.5 21s-77.833 37.167 -110.5 69.5s-59 74.833 -79 127.5c-20.667 52 -31 116.667 -31 194
l-301 -110c-74 -27.333 -136.667 -53.166 -188 -77.499s-93.5 -48.333 -126.5 -72s-58.167 -47.667 -75.5 -72s-29.333 -49.833 -36 -76.5c-5.33301 -21.333 -8 -43.666 -8 -66.999c0 -6.66699 0.5 -19.667 1.5 -39s3.83301 -48 8.5 -86c10 -78 27.667 -144.167 53 -198.5
s58 -98.166 98 -131.499s87 -57.5 141 -72.5s114.667 -22.5 182 -22.5h502v-189h-502c-95.333 0 -180.833 11 -256.5 33s-141.167 56.667 -196.5 104s-100.333 108.166 -135 182.499s-59 164.166 -73 269.499c-6 47.333 -9 91.666 -9 132.999
c0 50.667 6.66699 104.334 20 161.001s43.333 110.834 90 162.501s107.334 95.667 182.001 132s162.334 70.5 263.001 102.5l462 150c-64.667 26 -129.334 50.667 -194.001 74s-124.167 43.833 -178.5 61.5s-100.833 32 -139.5 43s-64.334 17.5 -77.001 19.5
c-11.333 0 -23.166 -1 -35.499 -3s-24.5 -8 -36.5 -18s-23.667 -25.5 -35 -46.5s-22 -50.5 -32 -88.5l-183 48c51.333 197.333 159.333 296 324 296c4.66699 0 10.167 -0.166992 16.5 -0.5s16 -2 29 -5s29.833 -7.66699 50.5 -14s47.667 -15.166 81 -26.499
s73.666 -25.833 120.999 -43.5l170 -65.5l368 -150l7 -177c-1.33301 -0.666992 -14 -4.83398 -38 -12.501l-113 -37.5zM784.922 -506.921l-132.987 132.168l129.293 128.472l131.141 -128.472zM1105.38 -104.87l-149.61 -149.729l-144.069 149.729l145.916 147.881z
M751.675 -106.719l-149.61 -149.729l-144.07 149.729l145.917 147.881z" />
    <glyph glyph-name="uni0686.init" unicode="&#x686;" horiz-adv-x="1398" arabic-form="initial" 
d="M1328 400l-52.0049 -35c-30.667 -20.667 -71.5 -45.834 -122.5 -75.501s-110.5 -61.5 -178.5 -95.5s-141.167 -65.333 -219.5 -94s-160.166 -52.5 -245.499 -71.5s-170.666 -28.5 -255.999 -28.5h-274v189h274c74.667 0 150.167 8.83301 226.5 26.5
s149.833 39.667 220.5 66s137 55 199 86s116.333 60.167 163 87.5l-193.5 76l-176.5 65.5c-53.333 19 -99.166 34.5 -137.499 46.5s-63.833 19 -76.5 21c-11.333 0 -23.166 -1 -35.499 -3s-24.5 -8 -36.5 -18s-23.667 -25.5 -35 -46.5s-22 -50.5 -32 -88.5l-183 48
c51.333 197.333 159.333 296 324 296c4 0 9.33301 -0.166992 16 -0.5s16.334 -2 29.001 -5s29.667 -7.66699 51 -14s48.5 -15.166 81.5 -26.499l120.5 -43.5l170 -65.5l354 -131zM684.995 -799l-144 143l140 139l142 -139zM1032 -364l-162 -162l-156 162l158 160z
M648.995 -366l-162 -162l-156 162l158 160z" />
    <glyph glyph-name="uni0686.medi" unicode="&#x686;" horiz-adv-x="1530" arabic-form="medial" 
d="M1335 400l-50 -34.001c-29.333 -20 -68.333 -44.333 -117 -73c7.33301 -24.667 19.166 -43.834 35.499 -57.501s33.5 -24 51.5 -31s35 -11.333 51 -13s27.333 -2.5 34 -2.5h210v-189h-210c-48.667 0 -94.167 7.16699 -136.5 21.5s-80.5 35.5 -114.5 63.5
c-38.667 32.667 -68 72 -88 118c-51.333 -25.333 -106.333 -50.166 -165 -74.499s-119.5 -46 -182.5 -65s-127.667 -34.333 -194 -46s-132.5 -17.5 -198.5 -17.5h-281v189h281c74.667 0 150.167 8.83301 226.5 26.5s149.833 39.667 220.5 66s137 55 199 86
s116.333 60.167 163 87.5l-193.5 76l-176.5 65.5c-53.333 19 -99.166 34.5 -137.499 46.5s-63.833 19 -76.5 21c-11.333 0 -23.166 -1 -35.499 -3s-24.5 -8 -36.5 -18s-23.667 -25.5 -35 -46.5s-22 -50.5 -32 -88.5l-183 48c51.333 197.333 159.333 296 324 296
c4.66699 0 10.167 -0.166992 16.5 -0.5s16 -2 29 -5s29.833 -7.66699 50.5 -14s47.667 -15.166 81 -26.499s73.666 -25.833 120.999 -43.5l170 -65.5l354 -131zM694 -800.001l-144 143l140 139l142 -139zM1041 -365.001l-162 -162l-156 162l158 160zM658 -367.001l-162 -162
l-156 162l158 160z" />
    <glyph glyph-name="uni0688.fina" unicode="&#x688;" horiz-adv-x="1244" arabic-form="final" 
d="M1265 189v-189.001h-37c-99.333 0 -191 41.333 -275 124c-50 -67.333 -137.667 -110 -263 -128c-23.333 -3.33301 -48 -6 -74 -8s-53 -3 -81 -3c-34 0 -68.333 1.5 -103 4.5s-68.5 7.66699 -101.5 14s-64.833 14.666 -95.5 24.999s-58.334 22.5 -83.001 36.5l-82 48
l94 165l83 -48c23.333 -13.333 51.833 -24.166 85.5 -32.499s69.5 -14.166 107.5 -17.499c28.667 -2.66699 57.334 -4 86.001 -4c10 0 27 0.166992 51 0.5s52.667 2.83301 86 7.5c38.667 6 70.5 14.5 95.5 25.5s40.833 23.5 47.5 37.5c6 6.66699 9 15 9 25
c0 6.66699 -2.33301 17.5 -7 32.5s-15 34.833 -31 59.5l-375 571l159 104l388 -592l60.5 -88.5c20.333 -30.333 41.833 -58 64.5 -83s46.5 -45.667 71.5 -62s52.5 -24.5 82.5 -24.5h37zM286 1248v84.998h100l47 73v485h83v-363c25.333 30.667 53.333 56.334 84 77.001
s65 31 103 31c22 0 43.5 -4 64.5 -12s39.833 -20.5 56.5 -37.5s30.167 -38.5 40.5 -64.5s15.5 -56.667 15.5 -92c0 -34 -5.66699 -62.5 -17 -85.5s-25.666 -41.667 -42.999 -56s-36.833 -24.666 -58.5 -30.999s-42.834 -9.5 -63.501 -9.5h-412zM698 1333
c28 0 50.999 7.66699 68.999 23s27 40 27 74c0 38.667 -7.83301 68.5 -23.5 89.5s-38.167 31.5 -67.5 31.5c-21.333 0 -41.666 -6.66699 -60.999 -20s-38 -30.5 -56 -51.5s-35.167 -44.167 -51.5 -69.5s-31.5 -50 -45.5 -74c-0.666992 -0.666992 -1 -1.66699 -1 -3h210z" />
    <glyph glyph-name="uni0698.fina" unicode="&#x698;" horiz-adv-x="927" arabic-form="final" 
d="M947 0l-43.001 -0.00195312c-64 0 -123 12.667 -177 38c0 -93.333 -13 -176.666 -39 -249.999s-64 -135.5 -114 -186.5s-111.5 -89.833 -184.5 -116.5s-156.833 -40 -251.5 -40h-138v189h138c68.667 0 128.167 8.16699 178.5 24.5s92 41.5 125 75.5s57.333 77.333 73 130
s23.5 115.334 23.5 188.001v624h189v-331c0 -37.333 7.83301 -66.5 23.5 -87.5s33.834 -36.5 54.501 -46.5s40.5 -16.167 59.5 -18.5s32.167 -3.5 39.5 -3.5h43v-189zM683.999 1365l-142 -139l-140 139l144 143zM732.999 912.998l-158 160l156 162l162 -162z
M349.999 914.998l-158 160l156 162l162 -162z" />
    <glyph glyph-name="uni0691.fina" unicode="&#x691;" horiz-adv-x="927" arabic-form="final" 
d="M947 0l-43.001 -0.00195312c-64 0 -123 12.667 -177 38c0 -93.333 -13 -176.666 -39 -249.999s-64 -135.5 -114 -186.5s-111.5 -89.833 -184.5 -116.5s-156.833 -40 -251.5 -40h-138v189h138c68.667 0 128.167 8.16699 178.5 24.5s92 41.5 125 75.5s57.333 77.333 73 130
s23.5 115.334 23.5 188.001v624h189v-331c0 -37.333 7.83301 -66.5 23.5 -87.5s33.834 -36.5 54.501 -46.5s40.5 -16.167 59.5 -18.5s32.167 -3.5 39.5 -3.5h43v-189zM262.999 886.998v84.998h100l47 73v485h83v-363c25.333 30.667 53.333 56.334 84 77.001s65 31 103 31
c22 0 43.5 -4 64.5 -12s39.833 -20.5 56.5 -37.5s30.167 -38.5 40.5 -64.5s15.5 -56.667 15.5 -92c0 -34 -5.66699 -62.5 -17 -85.5s-25.666 -41.667 -42.999 -56s-36.833 -24.666 -58.5 -30.999s-42.834 -9.5 -63.501 -9.5h-412zM674.999 971.996
c28 0 50.999 7.66699 68.999 23s27 40 27 74c0 38.667 -7.83301 68.5 -23.5 89.5s-38.167 31.5 -67.5 31.5c-21.333 0 -41.666 -6.66699 -60.999 -20s-38 -30.5 -56 -51.5s-35.167 -44.167 -51.5 -69.5s-31.5 -50 -45.5 -74c-0.666992 -0.666992 -1 -1.66699 -1 -3h210z" />
    <glyph glyph-name="uni06A9.fina" unicode="&#x6a9;" horiz-adv-x="2183" arabic-form="final" 
d="M1058 -5l-593.002 -0.00195312c-46.667 0.666992 -91 8.83398 -133 24.501s-79 38.5 -111 68.5c-13.333 12 -26.666 26.667 -39.999 44s-25.333 37.833 -36 61.5s-19.5 50.334 -26.5 80.001s-10.5 63.167 -10.5 100.5c0 33.333 3.33301 70 10 110
s14.334 77.833 23.001 113.5s16.667 66.667 24 93s12 42.5 14 48.5l180 -57l-17 -59.5c-7.33301 -25.667 -14.333 -53.167 -21 -82.5s-12.5 -58.833 -17.5 -88.5s-7.5 -55.5 -7.5 -77.5c0 -44 7 -78.667 21 -104s30.5 -44.333 49.5 -57s38 -20.667 57 -24s33.5 -5 43.5 -5
l590 -1c75.333 0 141.5 2.16699 198.5 6.5s105.333 11 145 20s71.167 19.833 94.5 32.5s39.333 27.667 48 45c11.333 22 16.833 45 16.5 69s-4.83301 48.333 -13.5 73s-20.667 49.834 -36 75.501s-32.333 51.5 -51 77.5l-316 441l35 164l899 412l77 -172l-806 -370l342 -481
l137 -178.5c38.667 -49 76 -89 112 -120s73 -53.5 111 -67.5s82.333 -21 133 -21h21v-189h-21c-57.333 0 -108.166 5.66699 -152.5 17c-44.333 11.333 -84.833 27.5 -121.5 48.5s-71 46.5 -103 76.5s-64 63.333 -96 100c-13.333 -41.333 -31.833 -76 -55.5 -104
s-51.5 -51.167 -83.5 -69.5s-67.5 -32.5 -106.5 -42.5s-80.5 -17.333 -124.5 -22s-90 -7.33398 -138 -8.00098s-96 -1 -144 -1z" />
    <glyph glyph-name="uni06A9.init" unicode="&#x6a9;" horiz-adv-x="1163" arabic-form="initial" 
d="M-23 0l-0.00195312 188.998h586c48 0 87.833 5.5 119.5 16.5s52.167 26.167 61.5 45.5c4.66699 10 7 21.333 7 34c0 11.333 -3.16699 27.5 -9.5 48.5s-19.833 48.667 -40.5 83s-46 70.5 -76 108.5s-62.333 76 -97 114s-70.334 75.167 -107.001 111.5l-106 101l-93 82
c-28 23.667 -51 41.834 -69 54.501l19 213l915 402l76 -172l-801 -350l77 -75.5l102 -101l112 -118c38 -41.667 74 -83.5 108 -125.5s64.167 -83.167 90.5 -123.5s45.833 -77.5 58.5 -111.5c11.333 -29.333 19.333 -56.666 24 -81.999c3.33301 -22 5 -42 5 -60
c0 -3.33301 -0.166992 -11 -0.5 -23s-2.66602 -26.333 -6.99902 -43s-9.16602 -31 -14.499 -43c-7.33301 -16.667 -18.666 -35.167 -33.999 -55.5s-36.833 -39.333 -64.5 -57s-62.167 -32.5 -103.5 -44.5s-92 -18 -152 -18h-586z" />
    <glyph glyph-name="uni06A9.medi" unicode="&#x6a9;" horiz-adv-x="1238" arabic-form="medial" 
d="M1258 0l-15.0029 -0.00390625c-59.333 0 -112.166 5.66699 -158.499 17s-88.5 27.5 -126.5 48.5s-73 46.333 -105 76s-63.333 62.834 -94 99.501c-1.33301 -3.33301 -2.66602 -6.33301 -3.99902 -9s-2.66602 -5.66699 -3.99902 -9
c-18.667 -36.667 -44.834 -69.667 -78.501 -99s-73.5 -53.666 -119.5 -72.999c-39.333 -17.333 -83 -30.166 -131 -38.499s-98 -12.5 -150 -12.5h-294v189h294c38.667 0 74.834 2.83301 108.501 8.5s64 13.667 91 24s50 22.833 69 37.5s33.167 31 42.5 49
c8.66699 18 13 38.333 13 61c0 18 -4.66699 43.833 -14 77.5s-35 78.834 -77 135.501l-151 212l-101 142l-75 105l37 140l918 424l78 -173l-819 -375l397 -551l109 -141.5c32 -39.667 64.5 -72.5 97.5 -98.5s69 -45.333 108 -58s85.5 -19 139.5 -19h15v-189z" />
    <glyph glyph-name="uni06AF.fina" unicode="&#x6af;" horiz-adv-x="2184" arabic-form="final" 
d="M1058 -5l-593.002 -0.00195312c-46.667 0.666992 -91 8.83398 -133 24.501s-79 38.5 -111 68.5c-13.333 12 -26.666 26.667 -39.999 44s-25.333 37.833 -36 61.5s-19.5 50.334 -26.5 80.001s-10.5 63.167 -10.5 100.5c0 33.333 3.33301 70 10 110
s14.334 77.833 23.001 113.5s16.667 66.667 24 93s12 42.5 14 48.5l180 -57l-17 -59.5c-7.33301 -25.667 -14.333 -53.167 -21 -82.5s-12.5 -58.833 -17.5 -88.5s-7.5 -55.5 -7.5 -77.5c0 -44 7 -78.667 21 -104s30.5 -44.333 49.5 -57s38 -20.667 57 -24s33.5 -5 43.5 -5
l590 -1c75.333 0 141.5 2.16699 198.5 6.5s105.333 11 145 20s71.167 19.833 94.5 32.5s39.333 27.667 48 45c11.333 22 16.833 45 16.5 69s-4.83301 48.333 -13.5 73s-20.667 49.834 -36 75.501s-32.333 51.5 -51 77.5l-316 441l35 164l899 412l77 -172l-806 -370l342 -481
l137 -178.5c38.667 -49 76 -89 112 -120s73 -53.5 111 -67.5s82.333 -21 133 -21h21v-189h-21c-57.333 0 -108.166 5.66699 -152.5 17c-44.333 11.333 -84.833 27.5 -121.5 48.5s-71 46.5 -103 76.5s-64 63.333 -96 100c-13.333 -41.333 -31.833 -76 -55.5 -104
s-51.5 -51.167 -83.5 -69.5s-67.5 -32.5 -106.5 -42.5s-80.5 -17.333 -124.5 -22s-90 -7.33398 -138 -8.00098s-96 -1 -144 -1zM1186 1468l759 327l42 -90l-812 -352z" />
    <glyph glyph-name="uni06AF.init" unicode="&#x6af;" horiz-adv-x="1180" arabic-form="initial" 
d="M-23 0l-0.00195312 188.998h586c48 0 87.833 5.5 119.5 16.5s52.167 26.167 61.5 45.5c4.66699 10 7 21.333 7 34c0 11.333 -3.16699 27.5 -9.5 48.5s-19.833 48.667 -40.5 83s-46 70.5 -76 108.5s-62.333 76 -97 114s-70.334 75.167 -107.001 111.5l-106 101l-93 82
c-28 23.667 -51 41.834 -69 54.501l19 213l915 402l76 -172l-801 -350l77 -75.5l102 -101l112 -118c38 -41.667 74 -83.5 108 -125.5s64.167 -83.167 90.5 -123.5s45.833 -77.5 58.5 -111.5c11.333 -29.333 19.333 -56.666 24 -81.999c3.33301 -22 5 -42 5 -60
c0 -3.33301 -0.166992 -11 -0.5 -23s-2.66602 -26.333 -6.99902 -43s-9.16602 -31 -14.499 -43c-7.33301 -16.667 -18.666 -35.167 -33.999 -55.5s-36.833 -39.333 -64.5 -57s-62.167 -32.5 -103.5 -44.5s-92 -18 -152 -18h-586zM204.998 1487l759 327l42 -90l-812 -352z
" />
    <glyph glyph-name="uni06AF.medi" unicode="&#x6af;" horiz-adv-x="1244" arabic-form="medial" 
d="M1260 0l-15.0029 -0.00390625c-59.333 0 -112.166 5.66699 -158.499 17s-88.5 27.5 -126.5 48.5s-73 46.333 -105 76s-63.333 62.834 -94 99.501c-1.33301 -3.33301 -2.66602 -6.33301 -3.99902 -9s-2.66602 -5.66699 -3.99902 -9
c-18.667 -36.667 -44.834 -69.667 -78.501 -99s-73.5 -53.666 -119.5 -72.999c-39.333 -17.333 -83 -30.166 -131 -38.499s-98 -12.5 -150 -12.5h-294v189h294c38.667 0 74.834 2.83301 108.501 8.5s64 13.667 91 24s50 22.833 69 37.5s33.167 31 42.5 49
c8.66699 18 13 38.333 13 61c0 18 -4.66699 43.833 -14 77.5s-35 78.834 -77 135.501l-151 212l-101 142l-75 105l37 140l918 424l78 -173l-819 -375l397 -551l109 -141.5c32 -39.667 64.5 -72.5 97.5 -98.5s69 -45.333 108 -58s85.5 -19 139.5 -19h15v-189zM235.997 1467
l759 327l42 -90l-812 -352z" />
    <glyph glyph-name="uni06BA.fina" unicode="&#x6ba;" horiz-adv-x="1674" arabic-form="final" 
d="M681 -554c-103.333 0 -197.002 22.502 -281.002 67.502s-152 109.167 -204 192.5c-36 56.667 -61.667 119.667 -77 189c-12 53.333 -18 109.333 -18 168c0 17.333 1.33301 50.166 4 98.499s16.334 115.666 41.001 201.999s59 175.5 103 267.5l170 -81
c-37.333 -77.333 -66.833 -151.5 -88.5 -222.5s-35.167 -138.167 -40.5 -201.5c-1.33301 -21.333 -2 -42 -2 -62c0 -40 4.33301 -82.5 13 -127.5s26.667 -88.833 54 -131.5c34.667 -54 80 -95.833 136 -125.5s119.333 -44.5 190 -44.5h235
c76.667 0 139.167 8.16699 187.5 24.5s86 39.166 113 68.499s45.333 64.833 55 106.5s14.5 87.834 14.5 138.501v703h189v-311c0.666992 -26.667 5.5 -50.834 14.5 -72.501s21.167 -40.167 36.5 -55.5s33.833 -27.166 55.5 -35.499s45.834 -12.5 72.501 -12.5h39v-189h-39
c-65.333 -0 -125 14.333 -179 43v-70c0 -176 -46.667 -307.833 -140 -395.5s-233 -131.5 -419 -131.5h-235z" />
    <glyph glyph-name="uni06C0.fina" unicode="&#x6c0;" horiz-adv-x="1255" arabic-form="final" 
d="M1275 0l-25 -0.000976562c-106.667 0 -199.834 22.833 -279.501 68.5s-140.834 109.5 -183.501 191.5c-21.333 -29.333 -46.833 -54.833 -76.5 -76.5s-63.167 -40.834 -100.5 -57.501c-21.333 -8.66699 -46 -15.667 -74 -21s-57.667 -8 -89 -8s-63.5 3.66699 -96.5 11
s-65.167 19.666 -96.5 36.999c-48 25.333 -86.5 58.833 -115.5 100.5s-48.167 90.834 -57.5 147.501c-4.66699 26 -7 51.667 -7 77c0 42.667 8.5 90.334 25.5 143.001s51.5 106 103.5 160c91.333 93.333 220.333 164.666 387 213.999l-19 108l184 39l42 -177.5l32 -139.5
l9.5 -40l15.5 -64.5l19 -78.5l20 -82l19 -75c6 -23.333 11.333 -42.666 16 -57.999c13.333 -50 33 -90.167 59 -120.5s54.333 -53.666 85 -69.999s61.834 -27 93.501 -32s59.834 -7.5 84.501 -7.5h25v-189zM640 804.999c-66 -19.333 -124.333 -42.332 -175 -68.999
s-92.5 -56.167 -125.5 -88.5s-56.5 -67.166 -70.5 -104.499c-9.33301 -24.667 -14 -50 -14 -76c0 -13.333 1.33301 -27 4 -41c4.66699 -28 14.667 -51.5 30 -70.5s33.333 -34.167 54 -45.5c14.667 -8.66699 30.667 -14.834 48 -18.501s34.666 -5.5 51.999 -5.5h10
c14 0 28.333 1.16699 43 3.5s28.334 6.16602 41.001 11.499c84 34.667 133 97.667 147 189c2.66699 21.333 4 41.333 4 60c0 10 -1 24 -3 42s-4 31.667 -6 41zM708 1819c28.667 0 59.3359 -4.33203 92.0029 -12.999l-29 -109c-22 6 -42.667 9 -62 9
c-35.333 0 -64.333 -9.33301 -87 -28c-24.667 -21.333 -40 -51.333 -46 -90c38 -6 68 -11 90 -15s39.667 -7.66699 53 -11c11.333 -2.66699 20.666 -5.5 27.999 -8.5s13.666 -6.16699 18.999 -9.5c20 -14 30 -33.333 30 -58c0 -6 -0.166992 -13.833 -0.5 -23.5
s-1.5 -20.167 -3.5 -31.5s-5.33301 -23.5 -10 -36.5s-11.334 -25.5 -20.001 -37.5c-39.333 -56.667 -107.333 -85 -204 -85h-110v113h110c24 0 43.833 2 59.5 6s28 9.33301 37 16s15.5 14.167 19.5 22.5s6.66699 16.833 8 25.5c-16.667 3.33301 -39.667 7.5 -69 12.5
l-103 17.5l-43 7l-4 44c-0.666992 8 -1 16 -1 24c0 37.333 6.83301 74.166 20.5 110.499s36.167 67.5 67.5 93.5c16 14 36.833 26.667 62.5 38s57.5 17 95.5 17z" />
    <glyph glyph-name="uni06C1.fina" unicode="&#x6c1;" horiz-adv-x="1282" arabic-form="final" 
d="M1302 0l-57.998 0.000976562c-19.333 0 -40.5 1 -63.5 3s-47.167 6 -72.5 12s-51.333 14 -78 24s-53.334 23 -80.001 39c-52 32.667 -95.5 73.334 -130.5 122.001s-60.5 104.667 -76.5 168l-33 128l-32 125.5l-32.5 131.5l-35.5 146l-120 -25
c-70 -18 -117.667 -49.333 -143 -94c-19.333 -32.667 -29.666 -72 -30.999 -118v-26c0 -38 3.66699 -80.333 11 -127s18.166 -96.334 32.499 -149.001s28.5 -102 42.5 -148l28 -92l-182 -51c-4.66699 14 -9 28.5 -13 43.5s-8.66699 30.5 -14 46.5
c-16.667 56.667 -33.334 116.5 -50.001 179.5s-28.667 125.833 -36 188.5c-4.66699 36 -7 71.333 -7 106c0 26 2.16699 60.167 6.5 102.5s20.833 88.5 49.5 138.5c54 93.333 141.333 154 262 182c13.333 3.33301 31.833 7.66602 55.5 12.999l70.5 15.5
c23.333 5 43.833 9.16699 61.5 12.5s27.167 5 28.5 5l111 -72l41.5 -176.5l37.5 -153l36 -141.5l37 -143c12.667 -49.333 32 -88.833 58 -118.5s54.333 -52.5 85 -68.5s61.667 -26.667 93 -32s59 -8 83 -8h58v-189z" />
    <glyph glyph-name="uni06C1.init" unicode="&#x6c1;" horiz-adv-x="706" arabic-form="initial" 
d="M471 -612c-0.666992 -19.333 -5.49707 -36.998 -14.4971 -52.998s-20.833 -30 -35.5 -42s-31 -21.333 -49 -28s-36.333 -10 -55 -10c-28.667 0 -53.834 5.5 -75.501 16.5s-39.667 26 -54 45s-25.166 40.667 -32.499 65s-11 50.166 -11 77.499
c0 71.333 21.667 139.666 65 204.999s102.666 123.666 177.999 174.999l53 -80c-18.667 -12 -37.5 -26.333 -56.5 -43s-36.333 -34.167 -52 -52.5s-28.667 -36.666 -39 -54.999s-15.833 -34.833 -16.5 -49.5v-5c0 -13.333 4.5 -24.833 13.5 -34.5s25.5 -15.167 49.5 -16.5
c19.333 -2.66699 36.666 -6.5 51.999 -11.5s28.666 -11.833 39.999 -20.5s20.333 -19.667 27 -33s11 -30 13 -50zM523.003 814.002c1.33301 -4 4.00293 -14.668 8.00293 -32.001s8.5 -38.833 13.5 -64.5l16.5 -85c6 -31 11.333 -62.333 16 -94s8.66699 -62.167 12 -91.5
s5 -55 5 -77c0 -64 -10.5 -119.167 -31.5 -165.5s-48.333 -84.666 -82 -114.999s-71.5 -52.833 -113.5 -67.5s-84.333 -22 -127 -22h-255v189h255c10 0 24.167 1.5 42.5 4.5s36.666 10.5 54.999 22.5s34.333 30 48 54s20.5 57.333 20.5 100
c0 14.667 -1.16699 33.167 -3.5 55.5s-5.33301 46.333 -9 72s-7.83398 52 -12.501 79s-9.33398 52.5 -14.001 76.5s-9 45.333 -13 64s-7.33301 32.667 -10 42z" />
    <glyph glyph-name="uni06C1.medi" unicode="&#x6c1;" horiz-adv-x="1186" arabic-form="medial" 
d="M404 21c1.33301 -40 8.3291 -83.6699 20.9961 -131.003s29.834 -93.5 51.501 -138.5s47.834 -86.667 78.501 -125s64.667 -68.833 102 -91.5c-9.33301 40 -14.333 84 -15 132v9c0 44.667 4.33301 90.334 13 137.001s22.5 92.834 41.5 138.501s43.333 86 73 121
s64.834 63.167 105.501 84.5s87.334 32 140.001 32h184v-189h-184c-28.667 -11.333 -55.167 -28.333 -79.5 -51s-45 -48.834 -62 -78.501s-30.167 -62 -39.5 -97s-14 -70.833 -14 -107.5s5.5 -73.5 16.5 -110.5s28.167 -71.833 51.5 -104.5l-78 -149
c-60 0.666992 -115.5 10.834 -166.5 30.501s-97.833 46.334 -140.5 80.001s-80.667 73 -114 118s-62.166 93.333 -86.499 145s-43.833 105.167 -58.5 160.5s-24.334 110 -29.001 164h-230v189h412z" />
    <glyph glyph-name="uni06BE.fina" unicode="&#x6be;" horiz-adv-x="1744" arabic-form="final" 
d="M1004 1117l202.999 -215.001l80 -86.5l74.5 -83l61 -72c17.667 -21.667 30.834 -39.167 39.501 -52.5c18 -29.333 32.833 -57.666 44.5 -84.999s19.834 -55 24.501 -83c2.66699 -16.667 4 -33.667 4 -51c0 -11.333 -1 -27.333 -3 -48s-8 -48 -18 -82
c-7.33301 -25.333 -16.666 -48.666 -27.999 -69.999h279v-189h-624v1h-6c-22 0 -48.5 2 -79.5 6s-62.833 9.5 -95.5 16.5s-64.834 15.667 -96.501 26s-59.5 21.833 -83.5 34.5c-31.333 -10 -70 -19.833 -116 -29.5s-95.333 -18.5 -148 -26.5s-106.5 -14.5 -161.5 -19.5
s-106.5 -7.5 -154.5 -7.5l38 189l308 36c-28 17.333 -53 39.166 -75 65.499s-40.667 55.333 -56 87s-27.166 64.5 -35.499 98.5s-12.5 67 -12.5 99c0 50.667 9.33301 97.5 28 140.5s44.5 80.167 77.5 111.5s72 55.833 117 73.5s94.167 26.5 147.5 26.5
c40 0 76.667 -5.66699 110 -17s63.666 -26.5 90.999 -45.5s51.166 -41 71.499 -66s37.5 -51 51.5 -78s24.5 -54.333 31.5 -82s10.5 -53.5 10.5 -77.5c0 -68.667 -12.833 -130.5 -38.5 -185.5s-63.5 -103.5 -113.5 -145.5c28 -11.333 57.833 -20.666 89.5 -27.999
s63.167 -11 94.5 -11c40.667 0 78.5 8.16699 113.5 24.5s63.167 46.5 84.5 90.5c9.33301 18.667 14 38.667 14 60c0 10 -2.16699 25.667 -6.5 47s-17 50.166 -38 86.499s-47.833 74.333 -80.5 114s-68.5 80.167 -107.5 121.5l-122 124.5l-124.5 124.5zM750.999 327.999
c50 22 89.665 52.498 118.998 91.498s44 86.5 44 142.5c0 33.333 -6.5 61.5 -19.5 84.5s-28.833 41.5 -47.5 55.5s-38 24.167 -58 30.5s-37.333 9.5 -52 9.5c-27.333 0 -52.166 -4.16699 -74.499 -12.5s-41.5 -19.833 -57.5 -34.5s-28.333 -32.167 -37 -52.5
s-13 -42.5 -13 -66.5c0 -28.667 3.5 -54.167 10.5 -76.5s18.333 -43.166 34 -62.499s35.834 -37.666 60.501 -54.999s55 -35.333 91 -54z" />
    <glyph glyph-name="uni06BE.init" unicode="&#x6be;" horiz-adv-x="1496" arabic-form="initial" 
d="M629 258c24.667 10.667 47.5 24.002 68.5 40.002s39.333 34.167 55 54.5s27.834 42.5 36.501 66.5s13 50 13 78c0 33.333 -7 61.5 -21 84.5s-30.667 41.667 -50 56s-39.5 24.666 -60.5 30.999s-38.833 9.5 -53.5 9.5c-27.333 0 -52.5 -4.16699 -75.5 -12.5
s-43 -19.833 -60 -34.5s-30.333 -32.334 -40 -53.001s-14.5 -43 -14.5 -67c0 -28.667 3.83301 -54.5 11.5 -77.5s19.667 -44.333 36 -64s37.166 -38.5 62.499 -56.5s56 -36.333 92 -55zM884 1052l202.998 -214.999l80 -86.5l74.5 -83l61 -72
c17.667 -21.667 30.834 -39.167 39.501 -52.5c18 -29.333 32.833 -57.666 44.5 -84.999s19.834 -55 24.501 -83c2.66699 -16.667 4 -33.667 4 -51c0 -11.333 -1 -27.333 -3 -48s-8 -48 -18 -82c-10.667 -38.667 -27.5 -73.834 -50.5 -105.501s-50.833 -58.834 -83.5 -81.501
s-69.667 -40.167 -111 -52.5s-86 -18.5 -134 -18.5c-45.333 0 -92.333 6 -141 18s-99 30.667 -151 56c-14.667 6 -28.334 12 -41.001 18l-34.5 16c-11.667 5.33301 -21.167 10 -28.5 14c-62.667 -19.333 -136 -33.833 -220 -43.5s-174.667 -14.5 -272 -14.5h-147v189h147
c43.333 0 88.166 0.666992 134.499 2s87.5 4.33301 123.5 9c-48 42 -83 88.167 -105 138.5s-33 107.833 -33 172.5c0 50.667 9.33301 97.5 28 140.5s44.5 80.167 77.5 111.5s72 55.833 117 73.5s94.167 26.5 147.5 26.5c40 0 76.667 -5.66699 110 -17
s63.666 -26.5 90.999 -45.5s51.166 -41 71.499 -66s37.5 -51 51.5 -78s24.5 -54.333 31.5 -82s10.5 -53.5 10.5 -77.5c0 -68.667 -12.833 -130.5 -38.5 -185.5s-63.5 -103.5 -113.5 -145.5c28 -11.333 57.833 -20.666 89.5 -27.999s63.167 -11 94.5 -11
c20 0 39.833 1.33301 59.5 4s38.334 8 56.001 16s33.834 18.833 48.501 32.5s27.334 31.5 38.001 53.5c8.66699 18 13 37.667 13 59c0 10 -2.16699 26 -6.5 48s-17.166 51.667 -38.499 89s-48.333 76.166 -81 116.499s-68.667 81.5 -108 123.5l-123 126l-125 125z" />
    <glyph glyph-name="uni06BE.medi" unicode="&#x6be;" horiz-adv-x="1260" arabic-form="medial" 
d="M406 223c22 3.33301 43.832 7.66699 65.499 13s42.834 11 63.501 17c66 20 117 41.833 153 65.5s62.333 46.5 79 68.5s26.334 42.167 29.001 60.5s4 32.5 4 42.5c0 61.333 -14.333 105.833 -43 133.5s-74.334 41.5 -137.001 41.5c-24 0 -47.833 -5 -71.5 -15
s-45.167 -30.667 -64.5 -62s-36 -76 -50 -134s-23.333 -135 -28 -231zM619.999 853.001c57.333 0 108.833 -8.16504 154.5 -24.498s84.334 -40.166 116.001 -71.499s55.834 -69.5 72.501 -114.5s25 -95.833 25 -152.5c0 -34 -5.33301 -70.167 -16 -108.5
s-30.667 -76.166 -60 -113.499s-70 -72.833 -122 -106.5s-119.333 -62.834 -202 -87.501c-58.667 -19.333 -118.334 -33.333 -179.001 -42c8.66699 -43.333 24.5 -84.833 47.5 -124.5s50.833 -76.334 83.5 -110.001s68.834 -63.5 108.501 -89.5s80.834 -47 123.501 -63
c-16 18 -28.167 39.333 -36.5 64s-13.833 50.667 -16.5 78c-1.33301 12 -2 24 -2 36c0 14.667 1.33301 32.667 4 54s8 43 16 65c14.667 37.333 34 71.166 58 101.499s51.667 56.333 83 78s65.5 38.334 102.5 50.001s75.5 17.5 115.5 17.5h184v-189h-184
c-42 0 -79 -11.167 -111 -33.5s-55.333 -52.5 -70 -90.5c-9.33301 -23.333 -14 -47.333 -14 -72c0 -22 6 -50.5 18 -85.5s40.333 -72.167 85 -111.5l-62 -166c-64.667 0 -126.334 7.5 -185.001 22.5s-113.334 35.667 -164.001 62s-96.834 57.5 -138.501 93.5
s-78.5 75 -110.5 117s-58.333 86.167 -79 132.5s-35 93.166 -43 140.499c-42.667 -3.33301 -83.5 -5.66602 -122.5 -6.99902s-78.833 -2 -119.5 -2v189c34.667 0 71.5 0.666992 110.5 2s80.5 3.66602 124.5 6.99902c3.33301 85.333 10 159.666 20 222.999s24 120 42 170
c20 54 43.667 98 71 132s56.5 60.667 87.5 80s62.5 32.5 94.5 39.5s62 10.5 90 10.5z" />
    <glyph glyph-name="uni06D2.fina" unicode="&#x6d2;" horiz-adv-x="1314" arabic-form="final" 
d="M1288 -364v-187.999h-799c-56 0 -108 8.83301 -156 26.5s-89.667 43 -125 76s-63 73 -83 120s-30 99.5 -30 157.5c0 50.667 10.833 98 32.5 142s50.834 82.333 87.501 115s78.667 58.167 126 76.5s96.666 27.5 147.999 27.5h840v-189h-832
c-28.667 0 -56.5 -4.5 -83.5 -13.5s-51 -21.667 -72 -38s-37.833 -35.833 -50.5 -58.5s-19 -47.334 -19 -74.001s6.33301 -51 19 -73s29.167 -41 49.5 -57s43.5 -28.333 69.5 -37s52.333 -13 79 -13h799z" />
    <glyph glyph-name="uni06D3.fina" unicode="&#x6d3;" horiz-adv-x="1314" arabic-form="final" 
d="M1288 -364v-187.999h-799c-56 0 -108 8.83301 -156 26.5s-89.667 43 -125 76s-63 73 -83 120s-30 99.5 -30 157.5c0 50.667 10.833 98 32.5 142s50.834 82.333 87.501 115s78.667 58.167 126 76.5s96.666 27.5 147.999 27.5h840v-189h-832
c-28.667 0 -56.5 -4.5 -83.5 -13.5s-51 -21.667 -72 -38s-37.833 -35.833 -50.5 -58.5s-19 -47.334 -19 -74.001s6.33301 -51 19 -73s29.167 -41 49.5 -57s43.5 -28.333 69.5 -37s52.333 -13 79 -13h799zM185 294.001l9 126.996l124 37
c-36 28.667 -60.667 63.334 -74 104.001c-6 18 -9 36 -9 54c0 8 1.16699 20.833 3.5 38.5s10 38 23 61s30 43 51 60s44.167 29.167 69.5 36.5c18 6 36 9.16699 54 9.5s35.5 -0.666992 52.5 -3s33.167 -6 48.5 -11l43 -14.5l-25 -101
c-11.333 2.66699 -23.333 5.33398 -36 8.00098s-25.334 4.83398 -38.001 6.50098s-24.667 2.33398 -36 2.00098s-20.666 -1.83301 -27.999 -4.5c-11.333 -4 -21.833 -9.5 -31.5 -16.5s-17.667 -15 -24 -24s-10.5 -19.167 -12.5 -30.5c-0.666992 -4 -1 -8 -1 -12
c0 -8 1.33301 -16.333 4 -25c4 -13.333 11.5 -25.5 22.5 -36.5s25.833 -19.5 44.5 -25.5s41 -9 67 -9s56.667 4.66699 92 14l85 25l34 -108z" />
    <glyph glyph-name="uni0649.init" unicode="&#x649;" horiz-adv-x="666" arabic-form="initial" 
d="M518 814c1.33301 -4 4.00293 -14.668 8.00293 -32.001s8.5 -38.833 13.5 -64.5l16.5 -85c6 -31 11.333 -62.333 16 -94s8.66699 -62.167 12 -91.5s5 -55 5 -77c0 -64 -10.5 -119.167 -31.5 -165.5s-48.333 -84.666 -82 -114.999s-71.5 -52.833 -113.5 -67.5
s-84.333 -22 -127 -22h-255v189h255c10 0 24.167 1.5 42.5 4.5s36.666 10.5 54.999 22.5s34.333 30 48 54s20.5 57.333 20.5 100c0 14.667 -1.16699 33.167 -3.5 55.5s-5.33301 46.333 -9 72s-7.83398 52 -12.501 79s-9.33398 52.5 -14.001 76.5s-9 45.333 -13 64
s-7.33301 32.667 -10 42z" />
    <glyph glyph-name="uni0649.medi" unicode="&#x649;" horiz-adv-x="810" arabic-form="medial" 
d="M830 189l0.00195312 -188.999h-78c-60.667 0 -114.167 8.66699 -160.5 26s-83.5 43.333 -111.5 78c-69.333 -69.333 -172 -104 -308 -104h-192v189h192c48 0 86 4.83301 114 14.5s49.167 21.667 63.5 36s23.666 30.333 27.999 48s6.5 34.5 6.5 50.5v338h188v-331
c0 -24.667 3.66699 -45.667 11 -63s16.833 -31.833 28.5 -43.5s24.667 -20.834 39 -27.501s28.166 -11.667 41.499 -15s25.333 -5.33301 36 -6s18.667 -1 24 -1h78z" />
    <glyph glyph-name="uni06CC.fina" unicode="&#x6cc;" horiz-adv-x="1774" arabic-form="final" 
d="M1514 0c28 -54.667 43.333 -106.331 46 -154.998l1 -14c0 -43.333 -8.66699 -84.333 -26 -123s-44.333 -74.334 -81 -107.001s-80 -60.167 -130 -82.5s-105.667 -39.666 -167 -51.999s-126 -18.5 -194 -18.5h-285c-105.333 0 -200 23 -284 69s-152.667 109.667 -206 191
c-36 57.333 -61.667 121 -77 191c-12 54 -18 110.667 -18 170c0 17.333 1.33301 50.166 4 98.499s16.5 116.166 41.5 203.499s60.167 177.666 105.5 270.999l168 -82c-74.667 -157.333 -117 -299.666 -127 -426.999c-1.33301 -21.333 -2 -42 -2 -62
c0 -101.333 22.333 -188.333 67 -261c34 -55.333 79.5 -97.666 136.5 -126.999s120.833 -44 191.5 -44h285c37.333 0 74 2.83301 110 8.5s69.667 13.5 101 23.5s59.666 21.833 84.999 35.5s46.5 28.834 63.5 45.501s28.833 34.667 35.5 54c4 10 6 20 6 30
c0 9.33301 -1.66699 18.666 -5 27.999c-8 26 -26.667 47.833 -56 65.5s-64.666 31.667 -105.999 42s-86 17.666 -134 21.999s-94.333 6.5 -139 6.5l7 189h862v-189h-279z" />
    <glyph glyph-name="uni06CC.init" unicode="&#x6cc;" horiz-adv-x="873" arabic-form="initial" 
d="M675 814c1.33301 -4 4.00293 -14.668 8.00293 -32.001s8.5 -38.833 13.5 -64.5l16.5 -85c6 -31 11.333 -62.333 16 -94s8.66699 -62.167 12 -91.5s5 -55 5 -77c0 -64 -10.5 -119.167 -31.5 -165.5s-48.333 -84.666 -82 -114.999s-71.5 -52.833 -113.5 -67.5
s-84.333 -22 -127 -22h-414v189h414c10 0 24.167 1.5 42.5 4.5s36.666 10.5 54.999 22.5s34.333 30 48 54s20.5 57.333 20.5 100c0 14.667 -1.16699 33.167 -3.5 55.5s-5.33301 46.333 -9 72s-7.83398 52 -12.501 79s-9.33398 52.5 -14.001 76.5s-9 45.333 -13 64
s-7.33301 32.667 -10 42zM759.003 -381.001l-162 -162l-156 162l158 160zM376.003 -383.001l-162 -162l-156 162l158 160z" />
    <glyph glyph-name="uni06CC.medi" unicode="&#x6cc;" horiz-adv-x="1048" arabic-form="medial" 
d="M1072 189l0.00292969 -188.999h-175c-60.667 0 -114.167 8.66699 -160.5 26s-83.5 43.333 -111.5 78c-69.333 -69.333 -172 -104 -308 -104h-340v189h340c48 0 86 4.83301 114 14.5s49.167 21.667 63.5 36s23.666 30.333 27.999 48s6.5 34.5 6.5 50.5v338h188v-331
c0 -24.667 3.83301 -45.667 11.5 -63s17.167 -31.833 28.5 -43.5s24.166 -20.834 38.499 -27.501s28.166 -11.667 41.499 -15s25.333 -5.33301 36 -6s18.667 -1 24 -1h175zM796.003 -386.999l-162 -162l-156 162l158 160zM413.003 -388.999l-162 -162l-156 162l158 160z" />
    <glyph glyph-name="uni0651064C" unicode="&#xfc5e;" arabic-form="isolated" 
d="M-130 1691c-58 0 -103.338 16.002 -136.005 48.002s-49 76.667 -49 134v106h91v-106c0 -32 7.33301 -55.333 22 -70s38.667 -22 72 -22c4.66699 0 11.5 0.833008 20.5 2.5s17.833 5.66699 26.5 12s16.334 15.666 23.001 27.999s10 28.833 10 49.5v106h92v-106
c0 -32 7.33301 -55.5 22 -70.5s39 -22.5 73 -22.5c4.66699 0 11.334 1.16699 20.001 3.5s17.334 6.66602 26.001 12.999s16 15.666 22 27.999s9 28.5 9 48.5c0 10 -1.16699 22 -3.5 36s-5.16602 28 -8.49902 42l-9.5 39c-3 12 -5.5 21 -7.5 27l85 29
c0.666992 -3.33301 3 -11.166 7 -23.499s8 -27 12 -44s7.66699 -34.833 11 -53.5s5 -36 5 -52c0 -31.333 -5 -58.5 -15 -81.5s-23.167 -42 -39.5 -57s-34.666 -26.167 -54.999 -33.5s-40.5 -11 -60.5 -11c-61.333 0 -108 17.667 -140 53c-16.667 -18 -36 -31.167 -58 -39.5
s-44.333 -12.5 -67 -12.5zM-271.005 2200c4.66699 7.33301 9.50098 17.333 14.501 30s9 26.167 12 40.5s4.66699 28.5 5 42.5s-1.83398 25.667 -6.50098 35c-2.66699 4 -7 8.83301 -13 14.5s-14 9.16699 -24 10.5c-8.66699 0 -17.5 -1.16699 -26.5 -3.5
s-17.5 -5.33301 -25.5 -9s-15.167 -7.33398 -21.5 -11c-6.33301 -3.66699 -10.833 -6.5 -13.5 -8.5l-58 57c2 2.66699 7 7.66699 15 15s18.667 15 32 23s29 15 47 21c15.333 4.66699 31.666 7 48.999 7h7c23.333 -1.33301 44.166 -7.66602 62.499 -19
c18.333 -11.333 32.833 -27 43.5 -47c12.667 -22.667 19.167 -47.834 19.5 -75.5c0.333008 -27.667 -2.16699 -54.5 -7.5 -80.5c36 10.667 73.667 23.834 113 39.5c39.333 15.667 74 33.834 104 54.5c-8.66699 3.33301 -17.667 6.5 -27 9.5s-22.333 8.5 -39 16.5
c-29.333 14.667 -51.833 31.667 -67.5 51s-26.5 39.333 -32.5 60c-4 14 -6 27.667 -6 41c0 5.33301 0.666992 14.166 2 26.5c1.33301 12.333 5.33301 24.833 12 37.5c10 20.667 23.667 39.5 41 56.5s36.5 30.667 57.5 41s42.833 16.166 65.5 17.5h8
c20 0 39.333 -4.33301 58 -13c41.333 -20 69.666 -54.667 84.999 -104c4.66699 -16.667 8 -34 10 -52c0.666992 -8 1 -16.333 1 -25c0 -10.667 -1.16699 -24.167 -3.5 -40.5s-7.66602 -35.833 -15.999 -58.5s-20.166 -46.334 -35.499 -71
c-13.333 -22 -31.666 -42 -54.999 -60s-48.666 -34.167 -75.999 -48.5s-55.333 -27 -84 -38s-55.167 -20.167 -79.5 -27.5s-45.333 -13 -63 -17s-28.834 -6.33301 -33.501 -7zM70.9961 2601c-7.33301 0 -15.666 -1.5 -24.999 -4.5s-18.5 -7.16699 -27.5 -12.5
s-17.5 -11.666 -25.5 -19c-8 -7.33301 -14.333 -15 -19 -23l-1 -10v-4c0 -6 1.16699 -13.5 3.5 -22.5s7.66602 -19.167 15.999 -30.5s21.833 -21.333 40.5 -30c10 -6 22.167 -11.667 36.5 -17l47.5 -17c2 9.33301 4.16699 20 6.5 32s4.16602 24.667 5.49902 38
c0.666992 8.66699 1 17.334 1 26c0 4 -0.166992 10.333 -0.5 19s-2.16602 19 -5.49902 31c-7.33301 18 -19 31.667 -35 41l-8 2c-2.66699 0.666992 -6 1 -10 1z" />
    <glyph glyph-name="uni0651064D" unicode="&#xfc5f;" arabic-form="isolated" 
d="M1 1753c-58 0 -103.338 16.0029 -136.005 48.0029s-49 76.667 -49 134v106h91v-106c0 -32 7.33301 -55.333 22 -70s38.667 -22 72 -22c4.66699 0 11.5 0.833008 20.5 2.5s17.833 5.66699 26.5 12s16.334 15.666 23.001 27.999s10 28.833 10 49.5v106h92v-106
c0 -32 7.33301 -55.5 22 -70.5s39 -22.5 73 -22.5c4.66699 0 11.334 1.16699 20.001 3.5s17.334 6.66602 26.001 12.999s16 15.666 22 27.999s9 28.5 9 48.5c0 10 -1.16699 22 -3.5 36s-5.16602 28 -8.49902 42l-9.5 39c-3 12 -5.5 21 -7.5 27l85 29
c0.666992 -3.33301 3 -11.166 7 -23.5c4 -12.333 8 -27 12 -44s7.66699 -34.833 11 -53.5s5 -36 5 -52c0 -31.333 -5 -58.5 -15 -81.5s-23.167 -42 -39.5 -57s-34.666 -26.167 -54.999 -33.5s-40.5 -11 -60.5 -11c-61.333 0 -108 17.667 -140 53
c-16.667 -18 -36 -31.167 -58 -39.5s-44.333 -12.5 -67 -12.5zM-117.005 1266l480 178v-110l-480 -181v113zM-117.005 1497l480 179v-111l-480 -180v112z" />
    <glyph glyph-name="uni0651064E" unicode="&#xfc60;" arabic-form="isolated" 
d="M-130 1691c-58 0 -103.338 16.002 -136.005 48.002s-49 76.667 -49 134v106h91v-106c0 -32 7.33301 -55.333 22 -70s38.667 -22 72 -22c4.66699 0 11.5 0.833008 20.5 2.5s17.833 5.66699 26.5 12s16.334 15.666 23.001 27.999s10 28.833 10 49.5v106h92v-106
c0 -32 7.33301 -55.5 22 -70.5s39 -22.5 73 -22.5c4.66699 0 11.334 1.16699 20.001 3.5s17.334 6.66602 26.001 12.999s16 15.666 22 27.999s9 28.5 9 48.5c0 10 -1.16699 22 -3.5 36s-5.16602 28 -8.49902 42l-9.5 39c-3 12 -5.5 21 -7.5 27l85 29
c0.666992 -3.33301 3 -11.166 7 -23.499s8 -27 12 -44s7.66699 -34.833 11 -53.5s5 -36 5 -52c0 -31.333 -5 -58.5 -15 -81.5s-23.167 -42 -39.5 -57s-34.666 -26.167 -54.999 -33.5s-40.5 -11 -60.5 -11c-61.333 0 -108 17.667 -140 53c-16.667 -18 -36 -31.167 -58 -39.5
s-44.333 -12.5 -67 -12.5zM-332.005 2214l480 178v-111l-480 -180v113z" />
    <glyph glyph-name="uni0651064F" unicode="&#xfc61;" arabic-form="isolated" 
d="M-130 1691c-58 0 -103.338 16.002 -136.005 48.002s-49 76.667 -49 134v106h91v-106c0 -32 7.33301 -55.333 22 -70s38.667 -22 72 -22c4.66699 0 11.5 0.833008 20.5 2.5s17.833 5.66699 26.5 12s16.334 15.666 23.001 27.999s10 28.833 10 49.5v106h92v-106
c0 -32 7.33301 -55.5 22 -70.5s39 -22.5 73 -22.5c4.66699 0 11.334 1.16699 20.001 3.5s17.334 6.66602 26.001 12.999s16 15.666 22 27.999s9 28.5 9 48.5c0 10 -1.16699 22 -3.5 36s-5.16602 28 -8.49902 42l-9.5 39c-3 12 -5.5 21 -7.5 27l85 29
c0.666992 -3.33301 3 -11.166 7 -23.499s8 -27 12 -44s7.66699 -34.833 11 -53.5s5 -36 5 -52c0 -31.333 -5 -58.5 -15 -81.5s-23.167 -42 -39.5 -57s-34.666 -26.167 -54.999 -33.5s-40.5 -11 -60.5 -11c-61.333 0 -108 17.667 -140 53c-16.667 -18 -36 -31.167 -58 -39.5
s-44.333 -12.5 -67 -12.5zM-292.005 2172l61.5 18c25 7.33301 51.5 16.5 79.5 27.5s55.833 23.667 83.5 38s52.167 31.166 73.5 50.5c-14.667 7.33301 -27.167 13.333 -37.5 18s-20.833 9.66699 -31.5 15c-30 14.667 -53 31.5 -69 50.5s-27 38.5 -33 58.5
c-5.33301 15.333 -8 30.666 -8 46c0 4 0.666992 11.833 2 23.5s5 24.167 11 37.5c10 20.667 24 39.667 42 57s37.667 31.166 59 41.5c21.333 10.333 44 16.5 68 18.5h8c20.667 0 40.334 -4.66699 59.001 -14c43.333 -21.333 72 -56 86 -104
c4.66699 -18 8.33398 -36.667 11.001 -56c1.33301 -8.66699 2 -17.667 2 -27c0 -11.333 -1.33301 -25.666 -4 -43c-2.66699 -17.333 -9.33398 -39 -20.001 -65s-26.667 -54 -48 -84c-15.333 -22 -34.333 -41.833 -57 -59.5s-46.834 -33.667 -72.501 -48
s-51.667 -26.833 -78 -37.5s-50.5 -19.834 -72.5 -27.5c-22 -7.66699 -41 -13.667 -57 -18s-26.667 -7.16602 -32 -8.5zM15.9951 2578c-8 0 -16.8311 -1.33301 -26.498 -4s-19.167 -6.5 -28.5 -11.5s-17.833 -11 -25.5 -18s-13.834 -14.833 -18.501 -23.5
c-0.666992 0 -1.33398 -3 -2.00098 -9c-0.666992 -2 -1 -4 -1 -6c0 -5.33301 1.33301 -12.166 4 -20.5c2.66699 -8.33301 8.5 -18.166 17.5 -29.5c9 -11.333 23.167 -22 42.5 -32c10 -5.33301 21.167 -10.833 33.5 -16.5l52.5 -24.5c10 19.333 16 43.333 18 72
c0.666992 6.66699 1 13 1 19c0 20.667 -2.66699 40 -8 58c-5.33301 12.667 -13 23.5 -23 32.5s-22 13.5 -36 13.5z" />
    <glyph glyph-name="uni06510650" unicode="&#xfc62;" arabic-form="isolated" 
d="M-16 1714c-58 0 -103.338 16.0029 -136.005 48.0029s-49 76.667 -49 134v106h91v-106c0 -32 7.33301 -55.333 22 -70s38.667 -22 72 -22c4.66699 0 11.5 0.833008 20.5 2.5s17.833 5.66699 26.5 12s16.334 15.666 23.001 27.999s10 28.833 10 49.5v106h92v-106
c0 -32 7.33301 -55.5 22 -70.5s39 -22.5 73 -22.5c4.66699 0 11.334 1.16699 20.001 3.5s17.334 6.66602 26.001 12.999s16 15.666 22 27.999s9 28.5 9 48.5c0 10 -1.16699 22 -3.5 36s-5.16602 28 -8.49902 42l-9.5 39c-3 12 -5.5 21 -7.5 27l85 29
c0.666992 -3.33301 3 -11.166 7 -23.5c4 -12.333 8 -27 12 -44s7.66699 -34.833 11 -53.5s5 -36 5 -52c0 -31.333 -5 -58.5 -15 -81.5s-23.167 -42 -39.5 -57s-34.666 -26.167 -54.999 -33.5s-40.5 -11 -60.5 -11c-61.333 0 -108 17.667 -140 53
c-16.667 -18 -36 -31.167 -58 -39.5s-44.333 -12.5 -67 -12.5zM-127.005 1454l480 179v-111l-480 -180v112z" />
    <glyph glyph-name="uniFC63" unicode="&#xfc63;" arabic-form="isolated" 
d="M-130 1691c-58 0 -103.338 16.002 -136.005 48.002s-49 76.667 -49 134v106h91v-106c0 -32 7.33301 -55.333 22 -70s38.667 -22 72 -22c4.66699 0 11.5 0.833008 20.5 2.5s17.833 5.66699 26.5 12s16.334 15.666 23.001 27.999s10 28.833 10 49.5v106h92v-106
c0 -32 7.33301 -55.5 22 -70.5s39 -22.5 73 -22.5c4.66699 0 11.334 1.16699 20.001 3.5s17.334 6.66602 26.001 12.999s16 15.666 22 27.999s9 28.5 9 48.5c0 10 -1.16699 22 -3.5 36s-5.16602 28 -8.49902 42l-9.5 39c-3 12 -5.5 21 -7.5 27l85 29
c0.666992 -3.33301 3 -11.166 7 -23.499s8 -27 12 -44s7.66699 -34.833 11 -53.5s5 -36 5 -52c0 -31.333 -5 -58.5 -15 -81.5s-23.167 -42 -39.5 -57s-34.666 -26.167 -54.999 -33.5s-40.5 -11 -60.5 -11c-61.333 0 -108 17.667 -140 53c-16.667 -18 -36 -31.167 -58 -39.5
s-44.333 -12.5 -67 -12.5zM-59.0049 2580h116v-397h-116v397z" />
    <glyph glyph-name="fathatan_01" unicode="&#xfe70;" arabic-form="isolated" 
d="M-240 1702l480 178v-111l-480 -180v113zM-240 1933l480 178v-110l-480 -180v112z" />
    <glyph glyph-name="dammatan_01" unicode="&#xfe72;" arabic-form="isolated" 
d="M-271 1661c4.66699 7.33301 9.50098 17.335 14.501 30.002s9 26.167 12 40.5s4.66699 28.5 5 42.5s-1.83398 25.667 -6.50098 35c-2.66699 4 -7 8.83301 -13 14.5s-14 9.16699 -24 10.5c-8.66699 0 -17.5 -1.16699 -26.5 -3.5s-17.5 -5.33301 -25.5 -9
s-15.167 -7.33398 -21.5 -11.001s-10.833 -6.5 -13.5 -8.5l-58 57c2 2.66699 7 7.66699 15 15s18.667 15 32 23s29 15 47 21c15.333 4.66699 31.666 7 48.999 7h7c23.333 -1.33301 44.166 -7.66602 62.499 -18.999s32.833 -27 43.5 -47
c12.667 -22.667 19.167 -47.834 19.5 -75.501s-2.16699 -54.5 -7.5 -80.5c36 10.667 73.667 23.834 113 39.501s74 33.834 104 54.501c-8.66699 3.33301 -17.667 6.5 -27 9.5s-22.333 8.5 -39 16.5c-29.333 14.667 -51.833 31.667 -67.5 51s-26.5 39.333 -32.5 60
c-4 14 -6 27.667 -6 41c0 5.33301 0.666992 14.166 2 26.499s5.33301 24.833 12 37.5c10 20.667 23.667 39.5 41 56.5s36.5 30.667 57.5 41s42.833 16.166 65.5 17.499h8c20 0 39.333 -4.33301 58 -13c41.333 -20 69.666 -54.667 84.999 -104c4.66699 -16.667 8 -34 10 -52
c0.666992 -8 1 -16.333 1 -25c0 -10.667 -1.16699 -24.167 -3.5 -40.5s-7.66602 -35.833 -15.999 -58.5s-20.166 -46.334 -35.499 -71.001c-13.333 -22 -31.666 -42 -54.999 -60s-48.666 -34.167 -75.999 -48.5s-55.333 -27 -84 -38s-55.167 -20.167 -79.5 -27.5
s-45.333 -13 -63 -17s-28.834 -6.33301 -33.501 -7zM71.001 2062c-7.33301 0 -15.666 -1.50195 -24.999 -4.50195s-18.5 -7.16699 -27.5 -12.5s-17.5 -11.666 -25.5 -18.999s-14.333 -15 -19 -23l-1 -10v-4c0 -6 1.16699 -13.5 3.5 -22.5s7.66602 -19.167 15.999 -30.5
s21.833 -21.333 40.5 -30c10 -6 22.167 -11.667 36.5 -17l47.5 -17c2 9.33301 4.16699 20 6.5 32s4.16602 24.667 5.49902 38c0.666992 8.66699 1 17.334 1 26.001c0 4 -0.166992 10.333 -0.5 19s-2.16602 19 -5.49902 31c-7.33301 18 -19 31.667 -35 41l-8 2
c-2.66699 0.666992 -6 1 -10 1z" />
    <glyph glyph-name="kasratan_01" unicode="&#xfe74;" arabic-form="isolated" 
d="M-240 -680l480 178v-110l-480 -181v113zM-240 -449l480 179v-111l-480 -180v112z" />
    <glyph glyph-name="fatha_01" unicode="&#xfe76;" arabic-form="isolated" 
d="M-240 1702l480 178v-111l-480 -180v113z" />
    <glyph glyph-name="damma_01" unicode="&#xfe78;" arabic-form="isolated" 
d="M-292 1625l61.5 18.002c25 7.33301 51.5 16.5 79.5 27.5s55.833 23.667 83.5 38s52.167 31.166 73.5 50.499c-14.667 7.33301 -27.167 13.333 -37.5 18s-20.833 9.66699 -31.5 15c-30 14.667 -53 31.5 -69 50.5s-27 38.5 -33 58.5c-5.33301 15.333 -8 30.666 -8 45.999
c0 4 0.666992 11.833 2 23.5s5 24.167 11 37.5c10 20.667 24 39.667 42 57s37.667 31.166 59 41.499s44 16.5 68 18.5h8c20.667 0 40.334 -4.66699 59.001 -14c43.333 -21.333 72 -56 86 -104c4.66699 -18 8.33398 -36.667 11.001 -56c1.33301 -8.66699 2 -17.667 2 -27
c0 -11.333 -1.33301 -25.666 -4 -42.999s-9.33398 -39 -20.001 -65s-26.667 -54 -48 -84c-15.333 -22 -34.333 -41.833 -57 -59.5s-46.834 -33.667 -72.501 -48s-51.667 -26.833 -78 -37.5s-50.5 -19.834 -72.5 -27.501s-41 -13.667 -57 -18s-26.667 -7.16602 -32 -8.49902z
M16 2031c-8 0 -16.8311 -1.33496 -26.498 -4.00195s-19.167 -6.5 -28.5 -11.5s-17.833 -11 -25.5 -18s-13.834 -14.833 -18.501 -23.5c-0.666992 0 -1.33398 -3 -2.00098 -9c-0.666992 -2 -1 -4 -1 -6c0 -5.33301 1.33301 -12.166 4 -20.499s8.5 -18.166 17.5 -29.499
s23.167 -22 42.5 -32c10 -5.33301 21.167 -10.833 33.5 -16.5l52.5 -24.5c10 19.333 16 43.333 18 72c0.666992 6.66699 1 13 1 19c0 20.667 -2.66699 40 -8 58c-5.33301 12.667 -13 23.5 -23 32.5s-22 13.5 -36 13.5z" />
    <glyph glyph-name="kasra_01" unicode="&#xfe7a;" arabic-form="isolated" 
d="M-240 -449l480 179v-111l-480 -180v112z" />
    <glyph glyph-name="shadda_01" unicode="&#xfe7c;" arabic-form="isolated" 
d="M-130 1691c-58 0 -103.338 16.002 -136.005 48.002s-49 76.667 -49 134v106h91v-106c0 -32 7.33301 -55.333 22 -70s38.667 -22 72 -22c4.66699 0 11.5 0.833008 20.5 2.5s17.833 5.66699 26.5 12s16.334 15.666 23.001 27.999s10 28.833 10 49.5v106h92v-106
c0 -32 7.33301 -55.5 22 -70.5s39 -22.5 73 -22.5c4.66699 0 11.334 1.16699 20.001 3.5s17.334 6.66602 26.001 12.999s16 15.666 22 27.999s9 28.5 9 48.5c0 10 -1.16699 22 -3.5 36s-5.16602 28 -8.49902 42l-9.5 39c-3 12 -5.5 21 -7.5 27l85 29
c0.666992 -3.33301 3 -11.166 7 -23.499s8 -27 12 -44s7.66699 -34.833 11 -53.5s5 -36 5 -52c0 -31.333 -5 -58.5 -15 -81.5s-23.167 -42 -39.5 -57s-34.666 -26.167 -54.999 -33.5s-40.5 -11 -60.5 -11c-61.333 0 -108 17.667 -140 53c-16.667 -18 -36 -31.167 -58 -39.5
s-44.333 -12.5 -67 -12.5z" />
    <glyph glyph-name="sukun_01" unicode="&#xfe7e;" arabic-form="isolated" 
d="M-2 1671c-34 0 -64.666 5 -91.999 15s-50.833 24.167 -70.5 42.5s-34.667 40.833 -45 67.5s-15.5 56.667 -15.5 90c0 34 5.33301 64.167 16 90.5s25.667 48.833 45 67.5s42.666 32.834 69.999 42.5c27.333 9.66699 58 14.5 92 14.5c68 0 123.333 -19.667 166 -59
c42 -39.333 63 -90.666 63 -153.999c0 -66.667 -21 -119.334 -63 -158.001c-42.667 -39.333 -98 -59 -166 -59zM-1.99902 1774c32.667 0 59.667 9.66699 81 29s32 47 32 83s-10.667 63.833 -32 83.5s-48.333 29.5 -81 29.5c-34 0 -61.333 -9.83301 -82 -29.5
s-31 -47.5 -31 -83.5c0 -74.667 37.667 -112 113 -112z" />
    <glyph glyph-name="uni0622.fina" unicode="&#x622;" horiz-adv-x="806" arabic-form="final" 
d="M820 0c-63.333 0.666992 -117.834 5.5 -163.501 14.5s-84.334 22 -116.001 39s-57 38.333 -76 64s-33.833 55.667 -44.5 90s-17.667 72.833 -21 115.5s-5 90 -5 142v809h189v-809c0 -58 1.83301 -105 5.5 -141s13.334 -63.833 29.001 -83.5s39.334 -33 71.001 -40
s75.5 -10.833 131.5 -11.5v-189zM896.999 1437l-483.001 0.000976562c-42 0 -77.333 -1.66699 -106 -5s-52.834 -10 -72.501 -20s-35.667 -24.333 -48 -43s-23.166 -43.334 -32.499 -74.001l-158 47c30.667 107.333 86.334 181 167.001 221c34 17.333 71.667 28.5 113 33.5
s87 7.5 137 7.5h483v-167z" />
    <glyph glyph-name="uni0623.fina" unicode="&#x623;" horiz-adv-x="606" arabic-form="final" 
d="M626 0c-63.333 0.666992 -117.834 5.5 -163.501 14.5s-84.334 22 -116.001 39s-57 38.333 -76 64s-33.833 55.667 -44.5 90s-17.667 72.833 -21 115.5s-5 90 -5 142v809h189v-809c0 -58 1.83301 -105 5.5 -141s13.334 -63.833 29.001 -83.5s39.334 -33 71.001 -40
s75.5 -10.833 131.5 -11.5v-189zM16.999 1375l9 126.996l124 37c-36 28.667 -60.667 63.334 -74 104.001c-6 18 -9 36 -9 54c0 8 1.16699 20.833 3.5 38.5s10 38 23 61s30 43 51 60s44.167 29.167 69.5 36.5c18 6 36 9.16699 54 9.5s35.5 -0.666992 52.5 -3
s33.167 -6 48.5 -11l43 -14.5l-25 -101c-11.333 2.66699 -23.333 5.33398 -36 8.00098s-25.334 4.83398 -38.001 6.50098s-24.667 2.33398 -36 2.00098s-20.666 -1.83301 -27.999 -4.5c-11.333 -4 -21.833 -9.5 -31.5 -16.5s-17.667 -15 -24 -24s-10.5 -19.167 -12.5 -30.5
c-0.666992 -4 -1 -8 -1 -12c0 -8 1.33301 -16.333 4 -25c4 -13.333 11.5 -25.5 22.5 -36.5s25.833 -19.5 44.5 -25.5s41 -9 67 -9s56.667 4.66699 92 14l85 25l34 -108z" />
    <glyph glyph-name="uni0624.fina" unicode="&#x624;" horiz-adv-x="1040" arabic-form="final" 
d="M204 -363c100.667 0 185.333 7.66504 254 22.998s123 39 163 71c34.667 28 60.167 63.667 76.5 107s24.5 97.333 24.5 162h-184c-46.667 0 -94 7 -142 21s-91.5 37 -130.5 69s-70.833 73.833 -95.5 125.5s-37 114.834 -37 189.501c0 44 3.83301 83.833 11.5 119.5
s17.334 67.5 29.001 95.5s24.5 52.333 38.5 73s27.667 38.334 41 53.001c36.667 36.667 78.667 65 126 85s98 30 152 30c47.333 0 91.666 -7.33301 132.999 -22s78.333 -36.667 111 -66c90 -84 135 -215.667 135 -395v-189h150v-189h-150
c0 -94.667 -13.833 -176.167 -41.5 -244.5s-70.5 -125.5 -128.5 -171.5c-58.667 -46 -131.5 -80.167 -218.5 -102.5s-192.833 -33.5 -317.5 -33.5v189zM520.999 671.998c-66 0 -117.335 -23.333 -154.002 -70s-55 -112.334 -55 -197.001c0 -86 26 -145.667 78 -179
c12.667 -8 25.667 -14.5 39 -19.5s26.333 -8.66699 39 -11s24.167 -4 34.5 -5s18.833 -1.5 25.5 -1.5h184v189c0 48.667 -3.66699 89.834 -11 123.501s-16.666 61.5 -27.999 83.5s-24.166 38.833 -38.499 50.5s-28.5 20.167 -42.5 25.5s-27.333 8.5 -40 9.5s-23 1.5 -31 1.5
zM181.997 1014l9 126.996l124 37c-36 28.667 -60.667 63.334 -74 104.001c-6 18 -9 36 -9 54c0 8 1.16699 20.833 3.5 38.5s10 38 23 61s30 43 51 60s44.167 29.167 69.5 36.5c18 6 36 9.16699 54 9.5s35.5 -0.666992 52.5 -3s33.167 -6 48.5 -11l43 -14.5l-25 -101
c-11.333 2.66699 -23.333 5.33398 -36 8.00098s-25.334 4.83398 -38.001 6.50098s-24.667 2.33398 -36 2.00098s-20.666 -1.83301 -27.999 -4.5c-11.333 -4 -21.833 -9.5 -31.5 -16.5s-17.667 -15 -24 -24s-10.5 -19.167 -12.5 -30.5c-0.666992 -4 -1 -8 -1 -12
c0 -8 1.33301 -16.333 4 -25c4 -13.333 11.5 -25.5 22.5 -36.5s25.833 -19.5 44.5 -25.5s41 -9 67 -9s56.667 4.66699 92 14l85 25l34 -108z" />
    <glyph glyph-name="uni0625.fina" unicode="&#x625;" horiz-adv-x="616" arabic-form="final" 
d="M636 0c-70 0.666992 -127.835 5.5 -173.502 14.5s-84.334 22 -116.001 39s-57 38.333 -76 64s-33.833 55.667 -44.5 90s-17.667 72.833 -21 115.5s-5 90 -5 142v962h189v-962c0 -58 1.83301 -105 5.5 -141s13.334 -63.833 29.001 -83.5s39.334 -33 71.001 -40
s78.834 -10.833 141.501 -11.5v-189zM81.998 -675l9 126.996l124 37c-36 28.667 -60.667 63.334 -74 104.001c-6 18 -9 36 -9 54c0 8 1.16699 20.833 3.5 38.5s10 38 23 61s30 43 51 60s44.167 29.167 69.5 36.5c18 6 36 9.16699 54 9.5s35.5 -0.666992 52.5 -3
s33.167 -6 48.5 -11l43 -14.5l-25 -101c-11.333 2.66699 -23.333 5.33398 -36 8.00098s-25.334 4.83398 -38.001 6.50098s-24.667 2.33398 -36 2.00098s-20.666 -1.83301 -27.999 -4.5c-11.333 -4 -21.833 -9.5 -31.5 -16.5s-17.667 -15 -24 -24s-10.5 -19.167 -12.5 -30.5
c-0.666992 -4 -1 -8 -1 -12c0 -8 1.33301 -16.333 4 -25c4 -13.333 11.5 -25.5 22.5 -36.5s25.833 -19.5 44.5 -25.5s41 -9 67 -9s56.667 4.66699 92 14l85 25l34 -108z" />
    <glyph glyph-name="uni0626.fina" unicode="&#x626;" horiz-adv-x="1774" arabic-form="final" 
d="M1514 0c28 -54.667 43.333 -106.331 46 -154.998l1 -14c0 -43.333 -8.66699 -84.333 -26 -123s-44.333 -74.334 -81 -107.001s-80 -60.167 -130 -82.5s-105.667 -39.666 -167 -51.999s-126 -18.5 -194 -18.5h-285c-105.333 0 -200 23 -284 69s-152.667 109.667 -206 191
c-36 57.333 -61.667 121 -77 191c-12 54 -18 110.667 -18 170c0 17.333 1.33301 50.166 4 98.499s16.5 116.166 41.5 203.499s60.167 177.666 105.5 270.999l168 -82c-74.667 -157.333 -117 -299.666 -127 -426.999c-1.33301 -21.333 -2 -42 -2 -62
c0 -101.333 22.333 -188.333 67 -261c34 -55.333 79.5 -97.666 136.5 -126.999s120.833 -44 191.5 -44h285c37.333 0 74 2.83301 110 8.5s69.667 13.5 101 23.5s59.666 21.833 84.999 35.5s46.5 28.834 63.5 45.501s28.833 34.667 35.5 54c4 10 6 20 6 30
c0 9.33301 -1.66699 18.666 -5 27.999c-8 26 -26.667 47.833 -56 65.5s-64.666 31.667 -105.999 42s-86 17.666 -134 21.999s-94.333 6.5 -139 6.5l7 189h862v-189h-279zM689 319.003l9 126.996l124 37c-36 28.667 -60.667 63.334 -74 104.001c-6 18 -9 36 -9 54
c0 8 1.16699 20.833 3.5 38.5s10 38 23 61s30 43 51 60s44.167 29.167 69.5 36.5c18 6 36 9.16699 54 9.5s35.5 -0.666992 52.5 -3s33.167 -6 48.5 -11l43 -14.5l-25 -101c-11.333 2.66699 -23.333 5.33398 -36 8.00098s-25.334 4.83398 -38.001 6.50098
s-24.667 2.33398 -36 2.00098s-20.666 -1.83301 -27.999 -4.5c-11.333 -4 -21.833 -9.5 -31.5 -16.5s-17.667 -15 -24 -24s-10.5 -19.167 -12.5 -30.5c-0.666992 -4 -1 -8 -1 -12c0 -8 1.33301 -16.333 4 -25c4 -13.333 11.5 -25.5 22.5 -36.5s25.833 -19.5 44.5 -25.5
s41 -9 67 -9s56.667 4.66699 92 14l85 25l34 -108z" />
    <glyph glyph-name="uni0626.init" unicode="&#x626;" horiz-adv-x="873" arabic-form="initial" 
d="M675 814c1.33301 -4 4.00293 -14.668 8.00293 -32.001s8.5 -38.833 13.5 -64.5l16.5 -85c6 -31 11.333 -62.333 16 -94s8.66699 -62.167 12 -91.5s5 -55 5 -77c0 -64 -10.5 -119.167 -31.5 -165.5s-48.333 -84.666 -82 -114.999s-71.5 -52.833 -113.5 -67.5
s-84.333 -22 -127 -22h-414v189h414c10 0 24.167 1.5 42.5 4.5s36.666 10.5 54.999 22.5s34.333 30 48 54s20.5 57.333 20.5 100c0 14.667 -1.16699 33.167 -3.5 55.5s-5.33301 46.333 -9 72s-7.83398 52 -12.501 79s-9.33398 52.5 -14.001 76.5s-9 45.333 -13 64
s-7.33301 32.667 -10 42zM131.003 860.999l9 126.996l124 37c-36 28.667 -60.667 63.334 -74 104.001c-6 18 -9 36 -9 54c0 8 1.16699 20.833 3.5 38.5s10 38 23 61s30 43 51 60s44.167 29.167 69.5 36.5c18 6 36 9.16699 54 9.5s35.5 -0.666992 52.5 -3s33.167 -6 48.5 -11
l43 -14.5l-25 -101c-11.333 2.66699 -23.333 5.33398 -36 8.00098s-25.334 4.83398 -38.001 6.50098s-24.667 2.33398 -36 2.00098s-20.666 -1.83301 -27.999 -4.5c-11.333 -4 -21.833 -9.5 -31.5 -16.5s-17.667 -15 -24 -24s-10.5 -19.167 -12.5 -30.5
c-0.666992 -4 -1 -8 -1 -12c0 -8 1.33301 -16.333 4 -25c4 -13.333 11.5 -25.5 22.5 -36.5s25.833 -19.5 44.5 -25.5s41 -9 67 -9s56.667 4.66699 92 14l85 25l34 -108z" />
    <glyph glyph-name="uni0626.medi" unicode="&#x626;" horiz-adv-x="1049" arabic-form="medial" 
d="M1072 189l0.00292969 -188.999h-175c-60.667 0 -114.167 8.66699 -160.5 26s-83.5 43.333 -111.5 78c-69.333 -69.333 -172 -104 -308 -104h-340v189h340c48 0 86 4.83301 114 14.5s49.167 21.667 63.5 36s23.666 30.333 27.999 48s6.5 34.5 6.5 50.5v338h188v-331
c0 -24.667 3.83301 -45.667 11.5 -63s17.167 -31.833 28.5 -43.5s24.166 -20.834 38.499 -27.501s28.166 -11.667 41.499 -15s25.333 -5.33301 36 -6s18.667 -1 24 -1h175zM194.003 804.001l9 126.996l124 37c-36 28.667 -60.667 63.334 -74 104.001c-6 18 -9 36 -9 54
c0 8 1.16699 20.833 3.5 38.5s10 38 23 61s30 43 51 60s44.167 29.167 69.5 36.5c18 6 36 9.16699 54 9.5s35.5 -0.666992 52.5 -3s33.167 -6 48.5 -11l43 -14.5l-25 -101c-11.333 2.66699 -23.333 5.33398 -36 8.00098s-25.334 4.83398 -38.001 6.50098
s-24.667 2.33398 -36 2.00098s-20.666 -1.83301 -27.999 -4.5c-11.333 -4 -21.833 -9.5 -31.5 -16.5s-17.667 -15 -24 -24s-10.5 -19.167 -12.5 -30.5c-0.666992 -4 -1 -8 -1 -12c0 -8 1.33301 -16.333 4 -25c4 -13.333 11.5 -25.5 22.5 -36.5s25.833 -19.5 44.5 -25.5
s41 -9 67 -9s56.667 4.66699 92 14l85 25l34 -108z" />
    <glyph glyph-name="uni0627.fina" unicode="&#x627;" horiz-adv-x="616" arabic-form="final" 
d="M636 0c-70 0.666992 -127.835 5.5 -173.502 14.5s-84.334 22 -116.001 39s-57 38.333 -76 64s-33.833 55.667 -44.5 90s-17.667 72.833 -21 115.5s-5 90 -5 142v962h189v-962c0 -58 1.83301 -105 5.5 -141s13.334 -63.833 29.001 -83.5s39.334 -33 71.001 -40
s78.834 -10.833 141.501 -11.5v-189z" />
    <glyph glyph-name="uni0628.fina" unicode="&#x628;" horiz-adv-x="2220" arabic-form="final" 
d="M2249 189l-0.000976562 -187.996h-30c-48.667 0 -94.667 7.16699 -138 21.5s-82 35.166 -116 62.499l-12 10.5l-12 11.5c-70.667 -70 -173 -105.333 -307 -106h-1135c-47.333 0 -91.833 8 -133.5 24s-78.5 39 -110.5 69c-13.333 12 -26.666 26.667 -39.999 44
s-25.5 37.666 -36.5 60.999s-20 49.833 -27 79.5s-10.5 63.167 -10.5 100.5c0 33.333 3.5 70 10.5 110s14.667 78 23 114s16.333 67 24 93s12.5 42 14.5 48l180 -57c-4.66699 -14 -10.5 -33.833 -17.5 -59.5s-14 -53.167 -21 -82.5s-13 -58.833 -18 -88.5
s-7.5 -55.5 -7.5 -77.5c0 -44 7 -78.667 21 -104s30.5 -44.333 49.5 -57s38.167 -20.667 57.5 -24s34 -5 44 -5h1126c48.667 0 87.5 5 116.5 15s51 22.667 66 38s24.667 32.166 29 50.499s6.5 35.833 6.5 52.5v347h189v-342c0 -38 8.16699 -67.833 24.5 -89.5
s35.166 -37.834 56.5 -48.501c21.333 -10.667 42 -17.167 62 -19.5s34 -3.5 42 -3.5h30zM958.999 -361.996l170 172l174 -174l-172 -172z" />
    <glyph glyph-name="uni0628.init" unicode="&#x628;" horiz-adv-x="666" arabic-form="initial" 
d="M518 814c1.33301 -4 4.00293 -14.668 8.00293 -32.001s8.5 -38.833 13.5 -64.5l16.5 -85c6 -31 11.333 -62.333 16 -94s8.66699 -62.167 12 -91.5s5 -55 5 -77c0 -64 -10.5 -119.167 -31.5 -165.5s-48.333 -84.666 -82 -114.999s-71.5 -52.833 -113.5 -67.5
s-84.333 -22 -127 -22h-255v189h255c10 0 24.167 1.5 42.5 4.5s36.666 10.5 54.999 22.5s34.333 30 48 54s20.5 57.333 20.5 100c0 14.667 -1.16699 33.167 -3.5 55.5s-5.33301 46.333 -9 72s-7.83398 52 -12.501 79s-9.33398 52.5 -14.001 76.5s-9 45.333 -13 64
s-7.33301 32.667 -10 42zM172.003 -363.001l170 172l174 -174l-172 -172z" />
    <glyph glyph-name="uni0628.medi" unicode="&#x628;" horiz-adv-x="810" arabic-form="medial" 
d="M830 189l0.00195312 -188.999h-78c-60.667 0 -114.167 8.66699 -160.5 26s-83.5 43.333 -111.5 78c-69.333 -69.333 -172 -104 -308 -104h-192v189h192c48 0 86 4.83301 114 14.5s49.167 21.667 63.5 36s23.666 30.333 27.999 48s6.5 34.5 6.5 50.5v338h188v-331
c0 -24.667 3.66699 -45.667 11 -63s16.833 -31.833 28.5 -43.5s24.667 -20.834 39 -27.501s28.166 -11.667 41.499 -15s25.333 -5.33301 36 -6s18.667 -1 24 -1h78zM205.002 -373.999l170 172l174 -174l-172 -172z" />
    <glyph glyph-name="uni0629.fina" unicode="&#x629;" horiz-adv-x="1255" arabic-form="final" 
d="M1265 0l-25 -0.000976562c-106.667 0 -199.834 22.833 -279.501 68.5s-140.834 109.5 -183.501 191.5c-21.333 -29.333 -46.833 -54.833 -76.5 -76.5s-63.167 -40.834 -100.5 -57.501c-21.333 -8.66699 -46 -15.667 -74 -21s-57.667 -8 -89 -8s-63.5 3.66699 -96.5 11
s-65.167 19.666 -96.5 36.999c-48 25.333 -86.5 58.833 -115.5 100.5s-48.167 90.834 -57.5 147.501c-4.66699 26 -7 51.667 -7 77c0 42.667 8.5 90.334 25.5 143.001s51.5 106 103.5 160c91.333 93.333 220.333 164.666 387 213.999l-19 108l184 39l42 -177.5l32 -139.5
l9.5 -40l15.5 -64.5l19 -78.5l20 -82l19 -75c6 -23.333 11.333 -42.666 16 -57.999c13.333 -50 33 -90.167 59 -120.5s54.333 -53.666 85 -69.999s61.834 -27 93.501 -32s59.834 -7.5 84.501 -7.5h25v-189zM630 804.999c-66 -19.333 -124.333 -42.332 -175 -68.999
s-92.5 -56.167 -125.5 -88.5s-56.5 -67.166 -70.5 -104.499c-9.33301 -24.667 -14 -50 -14 -76c0 -13.333 1.33301 -27 4 -41c4.66699 -28 14.667 -51.5 30 -70.5s33.333 -34.167 54 -45.5c14.667 -8.66699 30.667 -14.834 48 -18.501s34.666 -5.5 51.999 -5.5h10
c14 0 28.333 1.16699 43 3.5s28.334 6.16602 41.001 11.499c84 34.667 133 97.667 147 189c2.66699 21.333 4 41.333 4 60c0 10 -1 24 -3 42s-4 31.667 -6 41zM840 1304l-158 160l156 162l162 -162zM457 1306l-158 160l156 162l162 -162z" />
    <glyph glyph-name="uni062A.fina" unicode="&#x62a;" horiz-adv-x="2220" arabic-form="final" 
d="M2249 189l-0.000976562 -187.996h-30c-48.667 0 -94.667 7.16699 -138 21.5s-82 35.166 -116 62.499l-12 10.5l-12 11.5c-70.667 -70 -173 -105.333 -307 -106h-1135c-47.333 0 -91.833 8 -133.5 24s-78.5 39 -110.5 69c-13.333 12 -26.666 26.667 -39.999 44
s-25.5 37.666 -36.5 60.999s-20 49.833 -27 79.5s-10.5 63.167 -10.5 100.5c0 33.333 3.5 70 10.5 110s14.667 78 23 114s16.333 67 24 93s12.5 42 14.5 48l180 -57c-4.66699 -14 -10.5 -33.833 -17.5 -59.5s-14 -53.167 -21 -82.5s-13 -58.833 -18 -88.5
s-7.5 -55.5 -7.5 -77.5c0 -44 7 -78.667 21 -104s30.5 -44.333 49.5 -57s38.167 -20.667 57.5 -24s34 -5 44 -5h1126c48.667 0 87.5 5 116.5 15s51 22.667 66 38s24.667 32.166 29 50.499s6.5 35.833 6.5 52.5v347h189v-342c0 -38 8.16699 -67.833 24.5 -89.5
s35.166 -37.834 56.5 -48.501c21.333 -10.667 42 -17.167 62 -19.5s34 -3.5 42 -3.5h30zM1267 766.004l-158 160l156 162l162 -162zM883.999 768.004l-158 160l156 162l162 -162z" />
    <glyph glyph-name="uni062A.init" unicode="&#x62a;" horiz-adv-x="873" arabic-form="initial" 
d="M675 814c1.33301 -4 4.00293 -14.668 8.00293 -32.001s8.5 -38.833 13.5 -64.5l16.5 -85c6 -31 11.333 -62.333 16 -94s8.66699 -62.167 12 -91.5s5 -55 5 -77c0 -64 -10.5 -119.167 -31.5 -165.5s-48.333 -84.666 -82 -114.999s-71.5 -52.833 -113.5 -67.5
s-84.333 -22 -127 -22h-414v189h414c10 0 24.167 1.5 42.5 4.5s36.666 10.5 54.999 22.5s34.333 30 48 54s20.5 57.333 20.5 100c0 14.667 -1.16699 33.167 -3.5 55.5s-5.33301 46.333 -9 72s-7.83398 52 -12.501 79s-9.33398 52.5 -14.001 76.5s-9 45.333 -13 64
s-7.33301 32.667 -10 42zM657.003 1026l-158 160l156 162l162 -162zM274.003 1028l-158 160l156 162l162 -162z" />
    <glyph glyph-name="uni062A.medi" unicode="&#x62a;" horiz-adv-x="1049" arabic-form="medial" 
d="M1072 189l0.00292969 -188.999h-175c-60.667 0 -114.167 8.66699 -160.5 26s-83.5 43.333 -111.5 78c-69.333 -69.333 -172 -104 -308 -104h-340v189h340c48 0 86 4.83301 114 14.5s49.167 21.667 63.5 36s23.666 30.333 27.999 48s6.5 34.5 6.5 50.5v338h188v-331
c0 -24.667 3.83301 -45.667 11.5 -63s17.167 -31.833 28.5 -43.5s24.166 -20.834 38.499 -27.501s28.166 -11.667 41.499 -15s25.333 -5.33301 36 -6s18.667 -1 24 -1h175zM748.003 920.001l-158 160l156 162l162 -162zM365.003 922.001l-158 160l156 162l162 -162z" />
    <glyph glyph-name="uni062B.fina" unicode="&#x62b;" horiz-adv-x="2220" arabic-form="final" 
d="M2249 189l-0.000976562 -187.996h-30c-48.667 0 -94.667 7.16699 -138 21.5s-82 35.166 -116 62.499l-12 10.5l-12 11.5c-70.667 -70 -173 -105.333 -307 -106h-1135c-47.333 0 -91.833 8 -133.5 24s-78.5 39 -110.5 69c-13.333 12 -26.666 26.667 -39.999 44
s-25.5 37.666 -36.5 60.999s-20 49.833 -27 79.5s-10.5 63.167 -10.5 100.5c0 33.333 3.5 70 10.5 110s14.667 78 23 114s16.333 67 24 93s12.5 42 14.5 48l180 -57c-4.66699 -14 -10.5 -33.833 -17.5 -59.5s-14 -53.167 -21 -82.5s-13 -58.833 -18 -88.5
s-7.5 -55.5 -7.5 -77.5c0 -44 7 -78.667 21 -104s30.5 -44.333 49.5 -57s38.167 -20.667 57.5 -24s34 -5 44 -5h1126c48.667 0 87.5 5 116.5 15s51 22.667 66 38s24.667 32.166 29 50.499s6.5 35.833 6.5 52.5v347h189v-342c0 -38 8.16699 -67.833 24.5 -89.5
s35.166 -37.834 56.5 -48.501c21.333 -10.667 42 -17.167 62 -19.5s34 -3.5 42 -3.5h30zM1235 1170l-142 -139l-140 139l144 143zM1284 718.004l-158 160l156 162l162 -162zM900.999 720.004l-158 160l156 162l162 -162z" />
    <glyph glyph-name="uni062B.init" unicode="&#x62b;" horiz-adv-x="873" arabic-form="initial" 
d="M675 814c1.33301 -4 4.00293 -14.668 8.00293 -32.001s8.5 -38.833 13.5 -64.5l16.5 -85c6 -31 11.333 -62.333 16 -94s8.66699 -62.167 12 -91.5s5 -55 5 -77c0 -64 -10.5 -119.167 -31.5 -165.5s-48.333 -84.666 -82 -114.999s-71.5 -52.833 -113.5 -67.5
s-84.333 -22 -127 -22h-414v189h414c10 0 24.167 1.5 42.5 4.5s36.666 10.5 54.999 22.5s34.333 30 48 54s20.5 57.333 20.5 100c0 14.667 -1.16699 33.167 -3.5 55.5s-5.33301 46.333 -9 72s-7.83398 52 -12.501 79s-9.33398 52.5 -14.001 76.5s-9 45.333 -13 64
s-7.33301 32.667 -10 42zM599.003 1446l-142 -139l-140 139l144 143zM648.003 993.999l-158 160l156 162l162 -162zM265.003 995.999l-158 160l156 162l162 -162z" />
    <glyph glyph-name="uni062B.medi" unicode="&#x62b;" horiz-adv-x="1049" arabic-form="medial" 
d="M1072 189l0.00292969 -188.999h-175c-60.667 0 -114.167 8.66699 -160.5 26s-83.5 43.333 -111.5 78c-69.333 -69.333 -172 -104 -308 -104h-340v189h340c48 0 86 4.83301 114 14.5s49.167 21.667 63.5 36s23.666 30.333 27.999 48s6.5 34.5 6.5 50.5v338h188v-331
c0 -24.667 3.83301 -45.667 11.5 -63s17.167 -31.833 28.5 -43.5s24.166 -20.834 38.499 -27.501s28.166 -11.667 41.499 -15s25.333 -5.33301 36 -6s18.667 -1 24 -1h175zM658.003 1384l-142 -139l-140 139l144 143zM707.003 932.001l-158 160l156 162l162 -162z
M324.003 934.001l-158 160l156 162l162 -162z" />
    <glyph glyph-name="uni062C.fina" unicode="&#x62c;" horiz-adv-x="1575" arabic-form="final" 
d="M1342 397c-2 -0.666992 -15.4951 -6.00586 -40.4951 -16.0059l-128.5 -49c8 -24.667 18.667 -46 32 -64s27.666 -32.833 42.999 -44.5s31.333 -20.334 48 -26.001s32.334 -8.5 47.001 -8.5h253v-189h-253c-49.333 0 -93.333 6.16699 -132 18.5
s-72.334 29.833 -101.001 52.5s-52.667 50.334 -72 83.001s-34 69.334 -44 110.001l-262 -97c-72 -26.667 -133.667 -51.334 -185 -74.001s-94 -44.167 -128 -64.5s-60.5 -40.333 -79.5 -60s-32.833 -39.667 -41.5 -60s-13.334 -42.166 -14.001 -65.499v-10
c0 -20.667 1.66699 -42.667 5 -66c8.66699 -70 26.667 -127 54 -171s62.166 -78.167 104.499 -102.5s91.833 -41 148.5 -50s118.667 -13.5 186 -13.5h459v-189h-459c-30.667 0 -63.167 0.833008 -97.5 2.5s-69.333 5.33398 -105 11.001s-71.5 13.834 -107.5 24.501
s-71 25 -105 43c-150.667 81.333 -239 221.333 -265 420c-4 29.333 -6 57.333 -6 84c0 46 7.5 93.167 22.5 141.5s47.167 96.166 96.5 143.499c46.667 44.667 107.5 84.834 182.5 120.501s164.833 72.834 269.5 111.501l427 152c-64.667 26 -129.834 50.5 -195.501 73.5
l-181 61c-55 17.667 -102.333 31.834 -142 42.501s-65.834 17 -78.501 19c-11.333 0 -23.166 -1 -35.499 -3s-24.5 -8 -36.5 -18s-23.667 -25.5 -35 -46.5s-22 -50.5 -32 -88.5l-183 48c51.333 197.333 159.333 296 324 296c4.66699 0 10.167 -0.166992 16.5 -0.5
s16 -2 29 -5s29.833 -7.66699 50.5 -14s47.667 -15.166 81 -26.499s73.666 -25.833 120.999 -43.5l170 -65.5l368 -150zM660.005 -198.006l170 172l174 -174l-172 -172z" />
    <glyph glyph-name="uni062C.init" unicode="&#x62c;" horiz-adv-x="1398" arabic-form="initial" 
d="M1328 400l-52.0049 -35c-30.667 -20.667 -71.5 -45.834 -122.5 -75.501s-110.5 -61.5 -178.5 -95.5s-141.167 -65.333 -219.5 -94s-160.166 -52.5 -245.499 -71.5s-170.666 -28.5 -255.999 -28.5h-274v189h274c74.667 0 150.167 8.83301 226.5 26.5
s149.833 39.667 220.5 66s137 55 199 86s116.333 60.167 163 87.5l-193.5 76l-176.5 65.5c-53.333 19 -99.166 34.5 -137.499 46.5s-63.833 19 -76.5 21c-11.333 0 -23.166 -1 -35.499 -3s-24.5 -8 -36.5 -18s-23.667 -25.5 -35 -46.5s-22 -50.5 -32 -88.5l-183 48
c51.333 197.333 159.333 296 324 296c4 0 9.33301 -0.166992 16 -0.5s16.334 -2 29.001 -5s29.667 -7.66699 51 -14s48.5 -15.166 81.5 -26.499l120.5 -43.5l170 -65.5l354 -131zM502.995 -358l170 172l174 -174l-172 -172z" />
    <glyph glyph-name="uni062C.medi" unicode="&#x62c;" horiz-adv-x="1530" arabic-form="medial" 
d="M1335 400l-50 -34.001c-29.333 -20 -68.333 -44.333 -117 -73c7.33301 -24.667 19.166 -43.834 35.499 -57.501s33.5 -24 51.5 -31s35 -11.333 51 -13s27.333 -2.5 34 -2.5h210v-189h-210c-48.667 0 -94.167 7.16699 -136.5 21.5s-80.5 35.5 -114.5 63.5
c-38.667 32.667 -68 72 -88 118c-51.333 -25.333 -106.333 -50.166 -165 -74.499s-119.5 -46 -182.5 -65s-127.667 -34.333 -194 -46s-132.5 -17.5 -198.5 -17.5h-281v189h281c74.667 0 150.167 8.83301 226.5 26.5s149.833 39.667 220.5 66s137 55 199 86
s116.333 60.167 163 87.5l-193.5 76l-176.5 65.5c-53.333 19 -99.166 34.5 -137.499 46.5s-63.833 19 -76.5 21c-11.333 0 -23.166 -1 -35.499 -3s-24.5 -8 -36.5 -18s-23.667 -25.5 -35 -46.5s-22 -50.5 -32 -88.5l-183 48c51.333 197.333 159.333 296 324 296
c4.66699 0 10.167 -0.166992 16.5 -0.5s16 -2 29 -5s29.833 -7.66699 50.5 -14s47.667 -15.166 81 -26.499s73.666 -25.833 120.999 -43.5l170 -65.5l354 -131zM520 -358.001l170 172l174 -174l-172 -172z" />
    <glyph glyph-name="uni062D.fina" unicode="&#x62d;" horiz-adv-x="1575" arabic-form="final" 
d="M1342 397c-2 -0.666992 -15.4951 -6.00586 -40.4951 -16.0059l-128.5 -49c8 -24.667 18.667 -46 32 -64s27.666 -32.833 42.999 -44.5s31.333 -20.334 48 -26.001s32.334 -8.5 47.001 -8.5h253v-189h-253c-49.333 0 -93.333 6.16699 -132 18.5
s-72.334 29.833 -101.001 52.5s-52.667 50.334 -72 83.001s-34 69.334 -44 110.001l-262 -97c-72 -26.667 -133.667 -51.334 -185 -74.001s-94 -44.167 -128 -64.5s-60.5 -40.333 -79.5 -60s-32.833 -39.667 -41.5 -60s-13.334 -42.166 -14.001 -65.499v-10
c0 -20.667 1.66699 -42.667 5 -66c8.66699 -70 26.667 -127 54 -171s62.166 -78.167 104.499 -102.5s91.833 -41 148.5 -50s118.667 -13.5 186 -13.5h459v-189h-459c-30.667 0 -63.167 0.833008 -97.5 2.5s-69.333 5.33398 -105 11.001s-71.5 13.834 -107.5 24.501
s-71 25 -105 43c-150.667 81.333 -239 221.333 -265 420c-4 29.333 -6 57.333 -6 84c0 46 7.5 93.167 22.5 141.5s47.167 96.166 96.5 143.499c46.667 44.667 107.5 84.834 182.5 120.501s164.833 72.834 269.5 111.501l427 152c-64.667 26 -129.834 50.5 -195.501 73.5
l-181 61c-55 17.667 -102.333 31.834 -142 42.501s-65.834 17 -78.501 19c-11.333 0 -23.166 -1 -35.499 -3s-24.5 -8 -36.5 -18s-23.667 -25.5 -35 -46.5s-22 -50.5 -32 -88.5l-183 48c51.333 197.333 159.333 296 324 296c4.66699 0 10.167 -0.166992 16.5 -0.5
s16 -2 29 -5s29.833 -7.66699 50.5 -14s47.667 -15.166 81 -26.499s73.666 -25.833 120.999 -43.5l170 -65.5l368 -150z" />
    <glyph glyph-name="uni062D.init" unicode="&#x62d;" horiz-adv-x="1398" arabic-form="initial" 
d="M1328 400l-52.0049 -35c-30.667 -20.667 -71.5 -45.834 -122.5 -75.501s-110.5 -61.5 -178.5 -95.5s-141.167 -65.333 -219.5 -94s-160.166 -52.5 -245.499 -71.5s-170.666 -28.5 -255.999 -28.5h-274v189h274c74.667 0 150.167 8.83301 226.5 26.5
s149.833 39.667 220.5 66s137 55 199 86s116.333 60.167 163 87.5l-193.5 76l-176.5 65.5c-53.333 19 -99.166 34.5 -137.499 46.5s-63.833 19 -76.5 21c-11.333 0 -23.166 -1 -35.499 -3s-24.5 -8 -36.5 -18s-23.667 -25.5 -35 -46.5s-22 -50.5 -32 -88.5l-183 48
c51.333 197.333 159.333 296 324 296c4 0 9.33301 -0.166992 16 -0.5s16.334 -2 29.001 -5s29.667 -7.66699 51 -14s48.5 -15.166 81.5 -26.499l120.5 -43.5l170 -65.5l354 -131z" />
    <glyph glyph-name="uni062D.medi" unicode="&#x62d;" horiz-adv-x="1530" arabic-form="medial" 
d="M1335 400l-50 -34.001c-29.333 -20 -68.333 -44.333 -117 -73c7.33301 -24.667 19.166 -43.834 35.499 -57.501s33.5 -24 51.5 -31s35 -11.333 51 -13s27.333 -2.5 34 -2.5h210v-189h-210c-48.667 0 -94.167 7.16699 -136.5 21.5s-80.5 35.5 -114.5 63.5
c-38.667 32.667 -68 72 -88 118c-51.333 -25.333 -106.333 -50.166 -165 -74.499s-119.5 -46 -182.5 -65s-127.667 -34.333 -194 -46s-132.5 -17.5 -198.5 -17.5h-281v189h281c74.667 0 150.167 8.83301 226.5 26.5s149.833 39.667 220.5 66s137 55 199 86
s116.333 60.167 163 87.5l-193.5 76l-176.5 65.5c-53.333 19 -99.166 34.5 -137.499 46.5s-63.833 19 -76.5 21c-11.333 0 -23.166 -1 -35.499 -3s-24.5 -8 -36.5 -18s-23.667 -25.5 -35 -46.5s-22 -50.5 -32 -88.5l-183 48c51.333 197.333 159.333 296 324 296
c4.66699 0 10.167 -0.166992 16.5 -0.5s16 -2 29 -5s29.833 -7.66699 50.5 -14s47.667 -15.166 81 -26.499s73.666 -25.833 120.999 -43.5l170 -65.5l354 -131z" />
    <glyph glyph-name="uni062E.fina" unicode="&#x62e;" horiz-adv-x="1575" arabic-form="final" 
d="M1342 397c-2 -0.666992 -15.4951 -6.00586 -40.4951 -16.0059l-128.5 -49c8 -24.667 18.667 -46 32 -64s27.666 -32.833 42.999 -44.5s31.333 -20.334 48 -26.001s32.334 -8.5 47.001 -8.5h253v-189h-253c-49.333 0 -93.333 6.16699 -132 18.5
s-72.334 29.833 -101.001 52.5s-52.667 50.334 -72 83.001s-34 69.334 -44 110.001l-262 -97c-72 -26.667 -133.667 -51.334 -185 -74.001s-94 -44.167 -128 -64.5s-60.5 -40.333 -79.5 -60s-32.833 -39.667 -41.5 -60s-13.334 -42.166 -14.001 -65.499v-10
c0 -20.667 1.66699 -42.667 5 -66c8.66699 -70 26.667 -127 54 -171s62.166 -78.167 104.499 -102.5s91.833 -41 148.5 -50s118.667 -13.5 186 -13.5h459v-189h-459c-30.667 0 -63.167 0.833008 -97.5 2.5s-69.333 5.33398 -105 11.001s-71.5 13.834 -107.5 24.501
s-71 25 -105 43c-150.667 81.333 -239 221.333 -265 420c-4 29.333 -6 57.333 -6 84c0 46 7.5 93.167 22.5 141.5s47.167 96.166 96.5 143.499c46.667 44.667 107.5 84.834 182.5 120.501s164.833 72.834 269.5 111.501l427 152c-64.667 26 -129.834 50.5 -195.501 73.5
l-181 61c-55 17.667 -102.333 31.834 -142 42.501s-65.834 17 -78.501 19c-11.333 0 -23.166 -1 -35.499 -3s-24.5 -8 -36.5 -18s-23.667 -25.5 -35 -46.5s-22 -50.5 -32 -88.5l-183 48c51.333 197.333 159.333 296 324 296c4.66699 0 10.167 -0.166992 16.5 -0.5
s16 -2 29 -5s29.833 -7.66699 50.5 -14s47.667 -15.166 81 -26.499s73.666 -25.833 120.999 -43.5l170 -65.5l368 -150zM343.005 1258.99l170 172l174 -174l-172 -172z" />
    <glyph glyph-name="uni062E.init" unicode="&#x62e;" horiz-adv-x="1398" arabic-form="initial" 
d="M1328 400l-52.0049 -35c-30.667 -20.667 -71.5 -45.834 -122.5 -75.501s-110.5 -61.5 -178.5 -95.5s-141.167 -65.333 -219.5 -94s-160.166 -52.5 -245.499 -71.5s-170.666 -28.5 -255.999 -28.5h-274v189h274c74.667 0 150.167 8.83301 226.5 26.5
s149.833 39.667 220.5 66s137 55 199 86s116.333 60.167 163 87.5l-193.5 76l-176.5 65.5c-53.333 19 -99.166 34.5 -137.499 46.5s-63.833 19 -76.5 21c-11.333 0 -23.166 -1 -35.499 -3s-24.5 -8 -36.5 -18s-23.667 -25.5 -35 -46.5s-22 -50.5 -32 -88.5l-183 48
c51.333 197.333 159.333 296 324 296c4 0 9.33301 -0.166992 16 -0.5s16.334 -2 29.001 -5s29.667 -7.66699 51 -14s48.5 -15.166 81.5 -26.499l120.5 -43.5l170 -65.5l354 -131zM265.995 1261l170 172l174 -174l-172 -172z" />
    <glyph glyph-name="uni062E.medi" unicode="&#x62e;" horiz-adv-x="1530" arabic-form="medial" 
d="M1335 400l-50 -34.001c-29.333 -20 -68.333 -44.333 -117 -73c7.33301 -24.667 19.166 -43.834 35.499 -57.501s33.5 -24 51.5 -31s35 -11.333 51 -13s27.333 -2.5 34 -2.5h210v-189h-210c-48.667 0 -94.167 7.16699 -136.5 21.5s-80.5 35.5 -114.5 63.5
c-38.667 32.667 -68 72 -88 118c-51.333 -25.333 -106.333 -50.166 -165 -74.499s-119.5 -46 -182.5 -65s-127.667 -34.333 -194 -46s-132.5 -17.5 -198.5 -17.5h-281v189h281c74.667 0 150.167 8.83301 226.5 26.5s149.833 39.667 220.5 66s137 55 199 86
s116.333 60.167 163 87.5l-193.5 76l-176.5 65.5c-53.333 19 -99.166 34.5 -137.499 46.5s-63.833 19 -76.5 21c-11.333 0 -23.166 -1 -35.499 -3s-24.5 -8 -36.5 -18s-23.667 -25.5 -35 -46.5s-22 -50.5 -32 -88.5l-183 48c51.333 197.333 159.333 296 324 296
c4.66699 0 10.167 -0.166992 16.5 -0.5s16 -2 29 -5s29.833 -7.66699 50.5 -14s47.667 -15.166 81 -26.499s73.666 -25.833 120.999 -43.5l170 -65.5l354 -131zM271 1261l170 172l174 -174l-172 -172z" />
    <glyph glyph-name="uni062F.fina" unicode="&#x62f;" horiz-adv-x="1244" arabic-form="final" 
d="M1265 189v-189.001h-37c-99.333 0 -191 41.333 -275 124c-50 -67.333 -137.667 -110 -263 -128c-23.333 -3.33301 -48 -6 -74 -8s-53 -3 -81 -3c-34 0 -68.333 1.5 -103 4.5s-68.5 7.66699 -101.5 14s-64.833 14.666 -95.5 24.999s-58.334 22.5 -83.001 36.5l-82 48
l94 165l83 -48c23.333 -13.333 51.833 -24.166 85.5 -32.499s69.5 -14.166 107.5 -17.499c28.667 -2.66699 57.334 -4 86.001 -4c10 0 27 0.166992 51 0.5s52.667 2.83301 86 7.5c38.667 6 70.5 14.5 95.5 25.5s40.833 23.5 47.5 37.5c6 6.66699 9 15 9 25
c0 6.66699 -2.33301 17.5 -7 32.5s-15 34.833 -31 59.5l-375 571l159 104l388 -592l60.5 -88.5c20.333 -30.333 41.833 -58 64.5 -83s46.5 -45.667 71.5 -62s52.5 -24.5 82.5 -24.5h37z" />
    <glyph glyph-name="uni0630.fina" unicode="&#x630;" horiz-adv-x="1244" arabic-form="final" 
d="M1265 189v-189.001h-37c-99.333 0 -191 41.333 -275 124c-50 -67.333 -137.667 -110 -263 -128c-23.333 -3.33301 -48 -6 -74 -8s-53 -3 -81 -3c-34 0 -68.333 1.5 -103 4.5s-68.5 7.66699 -101.5 14s-64.833 14.666 -95.5 24.999s-58.334 22.5 -83.001 36.5l-82 48
l94 165l83 -48c23.333 -13.333 51.833 -24.166 85.5 -32.499s69.5 -14.166 107.5 -17.499c28.667 -2.66699 57.334 -4 86.001 -4c10 0 27 0.166992 51 0.5s52.667 2.83301 86 7.5c38.667 6 70.5 14.5 95.5 25.5s40.833 23.5 47.5 37.5c6 6.66699 9 15 9 25
c0 6.66699 -2.33301 17.5 -7 32.5s-15 34.833 -31 59.5l-375 571l159 104l388 -592l60.5 -88.5c20.333 -30.333 41.833 -58 64.5 -83s46.5 -45.667 71.5 -62s52.5 -24.5 82.5 -24.5h37zM378 1418l170 172l174 -174l-172 -172z" />
    <glyph glyph-name="uni0631.fina" unicode="&#x631;" horiz-adv-x="927" arabic-form="final" 
d="M947 0l-43.001 -0.00195312c-64 0 -123 12.667 -177 38c0 -93.333 -13 -176.666 -39 -249.999s-64 -135.5 -114 -186.5s-111.5 -89.833 -184.5 -116.5s-156.833 -40 -251.5 -40h-138v189h138c68.667 0 128.167 8.16699 178.5 24.5s92 41.5 125 75.5s57.333 77.333 73 130
s23.5 115.334 23.5 188.001v624h189v-331c0 -37.333 7.83301 -66.5 23.5 -87.5s33.834 -36.5 54.501 -46.5s40.5 -16.167 59.5 -18.5s32.167 -3.5 39.5 -3.5h43v-189z" />
    <glyph glyph-name="uni0632.fina" unicode="&#x632;" horiz-adv-x="927" arabic-form="final" 
d="M947 0l-43.001 -0.00195312c-64 0 -123 12.667 -177 38c0 -93.333 -13 -176.666 -39 -249.999s-64 -135.5 -114 -186.5s-111.5 -89.833 -184.5 -116.5s-156.833 -40 -251.5 -40h-138v189h138c68.667 0 128.167 8.16699 178.5 24.5s92 41.5 125 75.5s57.333 77.333 73 130
s23.5 115.334 23.5 188.001v624h189v-331c0 -37.333 7.83301 -66.5 23.5 -87.5s33.834 -36.5 54.501 -46.5s40.5 -16.167 59.5 -18.5s32.167 -3.5 39.5 -3.5h43v-189zM451.999 1081l170 172l174 -174l-172 -172z" />
    <glyph glyph-name="uni0633.fina" unicode="&#x633;" horiz-adv-x="2921" arabic-form="final" 
d="M2861 0c-66 0 -124.171 9.66602 -174.504 28.999s-92.166 47.333 -125.5 84l-24 -23c-33.333 -28 -71.666 -50 -115 -66c-43.333 -16 -87.666 -24 -133 -24c-65.333 0 -122.666 9.66699 -171.999 29s-90.666 47.333 -123.999 84l-24 -23
c-33.333 -28 -71.666 -50 -114.999 -66s-87.666 -24 -132.999 -24c-83.333 0 -155.333 18.667 -216 56v-84c0 -174.667 -46.667 -305.667 -140 -393s-233 -131 -419 -131h-235c-103.333 0 -197 22.333 -281 67s-152 108.334 -204 191.001
c-36 56.667 -61.667 119.667 -77 189c-12 54 -18 110.667 -18 170c0 17.333 1.33301 50.333 4 99s16.334 116.667 41.001 204s59 177.333 103 270l170 -83c-37.333 -77.333 -66.833 -151.666 -88.5 -222.999s-35.167 -138.666 -40.5 -201.999
c-1.33301 -21.333 -2 -42 -2 -62c0 -40.667 4.33301 -83.667 13 -129s26.667 -89.333 54 -132c34.667 -54 80 -95.833 136 -125.5s119.333 -44.5 190 -44.5h235c76.667 0 139.167 8 187.5 24s86 38.667 113 68s45.333 64.5 55 105.5s14.5 86.833 14.5 137.5v703h189v-194
c0 -64 6.16699 -115.167 18.5 -153.5s28.666 -67.833 48.999 -88.5s43.333 -34.334 69 -41.001s52.167 -10 79.5 -10c16.667 0 35.667 3 57 9s41.333 16.167 60 30.5s34.5 33.5 47.5 57.5s19.5 54 19.5 90v300h188v-310c1.33301 -60.667 17.5 -105.334 48.5 -134.001
s80.833 -43 149.5 -43c16.667 0 35.5 3 56.5 9s40.833 16.167 59.5 30.5s34.334 33.5 47 57.5c12.667 24 19 54 19 90v300h188v-310c1.33301 -60.667 17.833 -105.167 49.5 -133.5s81.834 -42.5 150.5 -42.5h79v-189h-79z" />
    <glyph glyph-name="uni0633.init" unicode="&#x633;" horiz-adv-x="1778" arabic-form="initial" 
d="M760 2c-62.667 0 -118.328 9.16699 -166.995 27.5s-89.667 44.833 -123 79.5c-34.667 -37.333 -75 -64.833 -121 -82.5s-92.333 -26.5 -139 -26.5h-230v189h230c10 0 24.333 1.5 43 4.5s37 10.667 55 23s33.833 30.833 47.5 55.5s20.5 58.334 20.5 101.001v303h189v-299
c0 -64.667 15.167 -112 45.5 -142s80.166 -45 149.499 -45c10 0 24.167 1.83301 42.5 5.5s36.666 11.834 54.999 24.501s34.333 31.334 48 56.001s20.5 58.334 20.5 101.001v299h188v-299c0 -64.667 15.667 -112.334 47 -143.001s81.666 -46 150.999 -46
c10.667 0 25 2.16699 43 6.5s35.833 13.166 53.5 26.499s32.834 32.333 45.501 57s19 57.667 19 99c0 14.667 -1.16699 33 -3.5 55s-5.33301 45.667 -9 71s-7.83398 51.166 -12.501 77.499s-9.33398 51 -14.001 74l-13 62c-4 18.333 -7.33301 31.833 -10 40.5l179 57
c1.33301 -4 4 -14.5 8 -31.5s8.66699 -38 14 -63s10.833 -52.833 16.5 -83.5s11 -61.5 16 -92.5s9.16699 -61 12.5 -90s5 -54.5 5 -76.5c0 -63.333 -10.333 -118.5 -31 -165.5s-47.5 -86 -80.5 -117s-70.5 -54.333 -112.5 -70s-84 -23.834 -126 -24.501
c-64 0 -120.5 9.5 -169.5 28.5s-90.5 46.5 -124.5 82.5c-34.667 -36.667 -74.834 -64 -120.501 -82s-91.5 -27 -137.5 -27z" />
    <glyph glyph-name="uni0633.medi" unicode="&#x633;" horiz-adv-x="1778" arabic-form="medial" 
d="M1737 0c-64 0 -120.668 9.16699 -170.001 27.5s-90.666 45.833 -123.999 82.5h-1l-15 -16c-32.667 -31.333 -69.667 -54.833 -111 -70.5s-85.666 -23.5 -132.999 -23.5c-124.667 0 -221.334 36 -290.001 108c-33.333 -35.333 -71.666 -61.833 -114.999 -79.5
s-87.333 -27.167 -132 -28.5h-13c-118 2 -210 36.667 -276 104c-4 -5.33301 -8.66699 -10 -14 -14c-67.333 -60 -162.333 -90 -285 -90h-78v189h78c42.667 0 77.167 4 103.5 12s46.833 19.833 61.5 35.5s24.5 34.667 29.5 57s7.5 47.833 7.5 76.5v305h189v-300
c0 -64.667 15.667 -111.667 47 -141s80.333 -44.333 147 -45c12 0.666992 26.833 3 44.5 7s34.667 12.333 51 25s30.5 30.834 42.5 54.501s18 55.167 18 94.5v305h188v-300c0 -64.667 15.5 -111.834 46.5 -141.501s80.833 -44.5 149.5 -44.5c19.333 0 38.666 3 57.999 9
s36.666 16 51.999 30s28 32.167 38 54.5s15.667 49.833 17 82.5v310h189v-310c1.33301 -61.333 18.333 -106 51 -134s82.334 -42 149.001 -42h61v-189h-61z" />
    <glyph glyph-name="uni0634.fina" unicode="&#x634;" horiz-adv-x="2921" arabic-form="final" 
d="M2861 0c-66 0 -124.171 9.66602 -174.504 28.999s-92.166 47.333 -125.5 84l-24 -23c-33.333 -28 -71.666 -50 -115 -66c-43.333 -16 -87.666 -24 -133 -24c-65.333 0 -122.666 9.66699 -171.999 29s-90.666 47.333 -123.999 84l-24 -23
c-33.333 -28 -71.666 -50 -114.999 -66s-87.666 -24 -132.999 -24c-83.333 0 -155.333 18.667 -216 56v-84c0 -174.667 -46.667 -305.667 -140 -393s-233 -131 -419 -131h-235c-103.333 0 -197 22.333 -281 67s-152 108.334 -204 191.001
c-36 56.667 -61.667 119.667 -77 189c-12 54 -18 110.667 -18 170c0 17.333 1.33301 50.333 4 99s16.334 116.667 41.001 204s59 177.333 103 270l170 -83c-37.333 -77.333 -66.833 -151.666 -88.5 -222.999s-35.167 -138.666 -40.5 -201.999
c-1.33301 -21.333 -2 -42 -2 -62c0 -40.667 4.33301 -83.667 13 -129s26.667 -89.333 54 -132c34.667 -54 80 -95.833 136 -125.5s119.333 -44.5 190 -44.5h235c76.667 0 139.167 8 187.5 24s86 38.667 113 68s45.333 64.5 55 105.5s14.5 86.833 14.5 137.5v703h189v-194
c0 -64 6.16699 -115.167 18.5 -153.5s28.666 -67.833 48.999 -88.5s43.333 -34.334 69 -41.001s52.167 -10 79.5 -10c16.667 0 35.667 3 57 9s41.333 16.167 60 30.5s34.5 33.5 47.5 57.5s19.5 54 19.5 90v300h188v-310c1.33301 -60.667 17.5 -105.334 48.5 -134.001
s80.833 -43 149.5 -43c16.667 0 35.5 3 56.5 9s40.833 16.167 59.5 30.5s34.334 33.5 47 57.5c12.667 24 19 54 19 90v300h188v-310c1.33301 -60.667 17.833 -105.167 49.5 -133.5s81.834 -42.5 150.5 -42.5h79v-189h-79zM2138 1365l-142 -139l-140 139l144 143z
M2187 912.999l-158 160l156 162l162 -162zM1804 914.999l-158 160l156 162l162 -162z" />
    <glyph glyph-name="uni0634.init" unicode="&#x634;" horiz-adv-x="1778" arabic-form="initial" 
d="M760 2c-62.667 0 -118.328 9.16699 -166.995 27.5s-89.667 44.833 -123 79.5c-34.667 -37.333 -75 -64.833 -121 -82.5s-92.333 -26.5 -139 -26.5h-230v189h230c10 0 24.333 1.5 43 4.5s37 10.667 55 23s33.833 30.833 47.5 55.5s20.5 58.334 20.5 101.001v303h189v-299
c0 -64.667 15.167 -112 45.5 -142s80.166 -45 149.499 -45c10 0 24.167 1.83301 42.5 5.5s36.666 11.834 54.999 24.501s34.333 31.334 48 56.001s20.5 58.334 20.5 101.001v299h188v-299c0 -64.667 15.667 -112.334 47 -143.001s81.666 -46 150.999 -46
c10.667 0 25 2.16699 43 6.5s35.833 13.166 53.5 26.499s32.834 32.333 45.501 57s19 57.667 19 99c0 14.667 -1.16699 33 -3.5 55s-5.33301 45.667 -9 71s-7.83398 51.166 -12.501 77.499s-9.33398 51 -14.001 74l-13 62c-4 18.333 -7.33301 31.833 -10 40.5l179 57
c1.33301 -4 4 -14.5 8 -31.5s8.66699 -38 14 -63s10.833 -52.833 16.5 -83.5s11 -61.5 16 -92.5s9.16699 -61 12.5 -90s5 -54.5 5 -76.5c0 -63.333 -10.333 -118.5 -31 -165.5s-47.5 -86 -80.5 -117s-70.5 -54.333 -112.5 -70s-84 -23.834 -126 -24.501
c-64 0 -120.5 9.5 -169.5 28.5s-90.5 46.5 -124.5 82.5c-34.667 -36.667 -74.834 -64 -120.501 -82s-91.5 -27 -137.5 -27zM1171.01 1401l-142 -139l-140 139l144 143zM1220.01 949l-158 160l156 162l162 -162zM837.006 951l-158 160l156 162l162 -162z" />
    <glyph glyph-name="uni0634.medi" unicode="&#x634;" horiz-adv-x="1778" arabic-form="medial" 
d="M1737 0c-64 0 -120.668 9.16699 -170.001 27.5s-90.666 45.833 -123.999 82.5h-1l-15 -16c-32.667 -31.333 -69.667 -54.833 -111 -70.5s-85.666 -23.5 -132.999 -23.5c-124.667 0 -221.334 36 -290.001 108c-33.333 -35.333 -71.666 -61.833 -114.999 -79.5
s-87.333 -27.167 -132 -28.5h-13c-118 2 -210 36.667 -276 104c-4 -5.33301 -8.66699 -10 -14 -14c-67.333 -60 -162.333 -90 -285 -90h-78v189h78c42.667 0 77.167 4 103.5 12s46.833 19.833 61.5 35.5s24.5 34.667 29.5 57s7.5 47.833 7.5 76.5v305h189v-300
c0 -64.667 15.667 -111.667 47 -141s80.333 -44.333 147 -45c12 0.666992 26.833 3 44.5 7s34.667 12.333 51 25s30.5 30.834 42.5 54.501s18 55.167 18 94.5v305h188v-300c0 -64.667 15.5 -111.834 46.5 -141.501s80.833 -44.5 149.5 -44.5c19.333 0 38.666 3 57.999 9
s36.666 16 51.999 30s28 32.167 38 54.5s15.667 49.833 17 82.5v310h189v-310c1.33301 -61.333 18.333 -106 51 -134s82.334 -42 149.001 -42h61v-189h-61zM1029 1365l-142 -139l-140 139l144 143zM1078 913l-158 160l156 162l162 -162zM694.999 915l-158 160l156 162
l162 -162z" />
    <glyph glyph-name="uni0635.fina" unicode="&#x635;" horiz-adv-x="2804" arabic-form="final" 
d="M719 -550c-104 0 -198.167 22.502 -282.5 67.502s-152.5 109.167 -204.5 192.5c-36 56.667 -61.667 119.667 -77 189c-12 53.333 -18 109.333 -18 168c0 17.333 1.33301 50.166 4 98.499s16.167 115.666 40.5 201.999s58.5 175.5 102.5 267.5l171 -81
c-74.667 -154.667 -117.334 -295.667 -128.001 -423c-1.33301 -20.667 -2 -41 -2 -61c0 -101.333 22.667 -188.333 68 -261c33.333 -54 78.333 -95.833 135 -125.5s120.334 -44.5 191.001 -44.5h235c76.667 0 138.834 8.16699 186.501 24.5s85 39.166 112 68.499
s45.333 64.833 55 106.5s14.5 87.834 14.5 138.501v699h188v-334c0 -36 7.66699 -64.333 23 -85s33 -36 53 -46l23.5 39c7.66699 13.333 16.167 26.666 25.5 39.999l80.5 130c28.333 44.667 58 88 89 130s63.667 81.833 98 119.5s70.833 70.5 109.5 98.5
s79.5 50.167 122.5 66.5s88.833 24.5 137.5 24.5s96.5 -9 143.5 -27s89 -45.833 126 -83.5s66.833 -85.167 89.5 -142.5s34 -125.333 34 -204c0 -44 -4.5 -83.5 -13.5 -118.5s-21.167 -66.5 -36.5 -94.5h208v-189h-1133c-32 0 -63.333 3.33301 -94 10
s-59.334 16.334 -86.001 29.001v-62c0 -351.333 -185.333 -527 -556 -527h-235zM2273 189.002c64 3.33301 113.833 22.6699 149.5 58.0029s53.5 87 53.5 155c0 84.667 -17.833 150.5 -53.5 197.5s-85.834 70.5 -150.5 70.5c-30.667 0 -60.834 -7 -90.501 -21
s-58.5 -32.833 -86.5 -56.5s-55.333 -51.334 -82 -83.001s-52.667 -65.334 -78 -101.001s-49.666 -72.334 -72.999 -110.001l-68 -109.5h479z" />
    <glyph glyph-name="uni0635.init" unicode="&#x635;" horiz-adv-x="1778" arabic-form="initial" 
d="M-20 0l0.00390625 189.003h173c46.667 0 84 4.66699 112 14s49.333 21.166 64 35.499s24.334 30.166 29.001 47.499s7 34.333 7 51v338h188v-330c0 -37.333 7.83301 -66.333 23.5 -87s33.5 -36 53.5 -46l23.5 38.5l23.5 39.5l81.5 130.5
c28.333 44.333 58.166 87.666 89.499 129.999s64.166 82.166 98.499 119.499s70.833 69.833 109.5 97.5s79.667 49.667 123 66s89.333 24.5 138 24.5s96.5 -8.83301 143.5 -26.5s88.833 -45 125.5 -82s66.167 -84.167 88.5 -141.5s33.5 -125.666 33.5 -204.999
c0 -74 -12.167 -136.667 -36.5 -188s-55.833 -93 -94.5 -125s-82 -55 -130 -69s-95.333 -21 -142 -21h-572c-48 0 -93.333 7.16699 -136 21.5s-80.334 34.833 -113.001 61.5c-8 6 -15.667 12.667 -23 20c-34.667 -34 -76.834 -59.333 -126.501 -76
s-107.834 -25.667 -174.501 -27h-180zM1305 189.003c32.667 0 62.334 4.50195 89.001 13.502s49.5 22.5 68.5 40.5s33.667 40.333 44 67s15.5 57.667 15.5 93c0 85.333 -18.333 151.166 -55 197.499s-86.667 69.5 -150 69.5c-46.667 0 -91.834 -15 -135.501 -45
s-85.667 -68.333 -126 -115s-78.833 -98.334 -115.5 -155.001l-104 -166h469z" />
    <glyph glyph-name="uni0635.medi" unicode="&#x635;" horiz-adv-x="1843" arabic-form="medial" 
d="M-21 0l0.00390625 189.003h173c46.667 0 84 4.66699 112 14s49.333 21.166 64 35.499s24.334 30.166 29.001 47.499s7 34.333 7 51v339h188v-331c0 -37.333 7.83301 -66.333 23.5 -87s33.5 -36 53.5 -46l23.5 38.5l23.5 39.5l81.5 130.5
c28.333 44.333 58.166 87.666 89.499 129.999s64.166 82.166 98.499 119.499s70.833 69.833 109.5 97.5s79.667 49.667 123 66s89.333 24.5 138 24.5s96.5 -8.83301 143.5 -26.5s88.833 -45 125.5 -82s66.167 -84.167 88.5 -141.5s33.5 -125.666 33.5 -204.999
c0 -44 -4.5 -83.667 -13.5 -119s-21.167 -67 -36.5 -95h206v-189h-1131c-48 0 -93.333 7.16699 -136 21.5s-80.334 34.833 -113.001 61.5c-8 6 -15.667 12.667 -23 20c-34.667 -34 -76.834 -59.333 -126.501 -76s-107.834 -25.667 -174.501 -27h-180zM1315 189.003
c15.333 0.666992 34.8311 3.33203 58.498 7.99902s46.5 14 68.5 28c25.333 17.333 44.833 40.5 58.5 69.5s20.5 65.167 20.5 108.5c0 85.333 -18.333 151.166 -55 197.499s-86.667 69.5 -150 69.5c-31.333 0 -61.666 -6.83301 -90.999 -20.5s-58.166 -32.167 -86.499 -55.5
s-55.833 -50.666 -82.5 -81.999s-52.5 -64.666 -77.5 -99.999s-49.333 -71.833 -73 -109.5l-68.5 -109.5l-2 -4h480z" />
    <glyph glyph-name="uni0636.fina" unicode="&#x636;" horiz-adv-x="2804" arabic-form="final" 
d="M729 -550c-104 0 -198.167 22.502 -282.5 67.502s-152.5 109.167 -204.5 192.5c-36 56.667 -61.667 119.667 -77 189c-12 53.333 -18 109.333 -18 168c0 17.333 1.33301 50.166 4 98.499s16.167 115.666 40.5 201.999s58.5 175.5 102.5 267.5l171 -81
c-74.667 -154.667 -117.334 -295.667 -128.001 -423c-1.33301 -20.667 -2 -41 -2 -61c0 -101.333 22.667 -188.333 68 -261c33.333 -54 78.333 -95.833 135 -125.5s120.334 -44.5 191.001 -44.5h235c76.667 0 138.834 8.16699 186.501 24.5s85 39.166 112 68.499
s45.333 64.833 55 106.5s14.5 87.834 14.5 138.501v699h188v-334c0 -36 7.66699 -64.333 23 -85s33 -36 53 -46l23.5 39c7.66699 13.333 16.167 26.666 25.5 39.999l80.5 130c28.333 44.667 58 88 89 130s63.667 81.833 98 119.5s70.833 70.5 109.5 98.5
s79.5 50.167 122.5 66.5s88.833 24.5 137.5 24.5s96.5 -9 143.5 -27s89 -45.833 126 -83.5s66.833 -85.167 89.5 -142.5s34 -125.333 34 -204c0 -44 -4.5 -83.5 -13.5 -118.5s-21.167 -66.5 -36.5 -94.5h208v-189h-1133c-32 0 -63.333 3.33301 -94 10
s-59.334 16.334 -86.001 29.001v-62c0 -351.333 -185.333 -527 -556 -527h-235zM2283 189.002c64 3.33301 113.833 22.6699 149.5 58.0029s53.5 87 53.5 155c0 84.667 -17.833 150.5 -53.5 197.5s-85.834 70.5 -150.5 70.5c-30.667 0 -60.834 -7 -90.501 -21
s-58.5 -32.833 -86.5 -56.5s-55.333 -51.334 -82 -83.001s-52.667 -65.334 -78 -101.001s-49.666 -72.334 -72.999 -110.001l-68 -109.5h479zM2120 1243.01l170 172l174 -174l-172 -172z" />
    <glyph glyph-name="uni0636.init" unicode="&#x636;" horiz-adv-x="1778" arabic-form="initial" 
d="M-20 0l0.00390625 189.003h173c46.667 0 84 4.66699 112 14s49.333 21.166 64 35.499s24.334 30.166 29.001 47.499s7 34.333 7 51v338h188v-330c0 -37.333 7.83301 -66.333 23.5 -87s33.5 -36 53.5 -46l23.5 38.5l23.5 39.5l81.5 130.5
c28.333 44.333 58.166 87.666 89.499 129.999s64.166 82.166 98.499 119.499s70.833 69.833 109.5 97.5s79.667 49.667 123 66s89.333 24.5 138 24.5s96.5 -8.83301 143.5 -26.5s88.833 -45 125.5 -82s66.167 -84.167 88.5 -141.5s33.5 -125.666 33.5 -204.999
c0 -74 -12.167 -136.667 -36.5 -188s-55.833 -93 -94.5 -125s-82 -55 -130 -69s-95.333 -21 -142 -21h-572c-48 0 -93.333 7.16699 -136 21.5s-80.334 34.833 -113.001 61.5c-8 6 -15.667 12.667 -23 20c-34.667 -34 -76.834 -59.333 -126.501 -76
s-107.834 -25.667 -174.501 -27h-180zM1305 189.003c32.667 0 62.334 4.50195 89.001 13.502s49.5 22.5 68.5 40.5s33.667 40.333 44 67s15.5 57.667 15.5 93c0 85.333 -18.333 151.166 -55 197.499s-86.667 69.5 -150 69.5c-46.667 0 -91.834 -15 -135.501 -45
s-85.667 -68.333 -126 -115s-78.833 -98.334 -115.5 -155.001l-104 -166h469zM1125 1238l170 172l174 -174l-172 -172z" />
    <glyph glyph-name="uni0636.medi" unicode="&#x636;" horiz-adv-x="1843" arabic-form="medial" 
d="M-21 0l0.00390625 189.003h173c46.667 0 84 4.66699 112 14s49.333 21.166 64 35.499s24.334 30.166 29.001 47.499s7 34.333 7 51v339h188v-331c0 -37.333 7.83301 -66.333 23.5 -87s33.5 -36 53.5 -46l23.5 38.5l23.5 39.5l81.5 130.5
c28.333 44.333 58.166 87.666 89.499 129.999s64.166 82.166 98.499 119.499s70.833 69.833 109.5 97.5s79.667 49.667 123 66s89.333 24.5 138 24.5s96.5 -8.83301 143.5 -26.5s88.833 -45 125.5 -82s66.167 -84.167 88.5 -141.5s33.5 -125.666 33.5 -204.999
c0 -44 -4.5 -83.667 -13.5 -119s-21.167 -67 -36.5 -95h206v-189h-1131c-48 0 -93.333 7.16699 -136 21.5s-80.334 34.833 -113.001 61.5c-8 6 -15.667 12.667 -23 20c-34.667 -34 -76.834 -59.333 -126.501 -76s-107.834 -25.667 -174.501 -27h-180zM1315 189.003
c15.333 0.666992 34.8311 3.33203 58.498 7.99902s46.5 14 68.5 28c25.333 17.333 44.833 40.5 58.5 69.5s20.5 65.167 20.5 108.5c0 85.333 -18.333 151.166 -55 197.499s-86.667 69.5 -150 69.5c-31.333 0 -61.666 -6.83301 -90.999 -20.5s-58.166 -32.167 -86.499 -55.5
s-55.833 -50.666 -82.5 -81.999s-52.5 -64.666 -77.5 -99.999s-49.333 -71.833 -73 -109.5l-68.5 -109.5l-2 -4h480zM1142 1243l170 172l174 -174l-172 -172z" />
    <glyph glyph-name="uni0637.fina" unicode="&#x637;" horiz-adv-x="1594" arabic-form="final" 
d="M1614 0l-1501 0.00195312v189h224c16.667 25.333 33 52 49 80s32.667 55 50 81v1077h188v-807c28.667 34 58.5 65.667 89.5 95s63.667 54.666 98 75.999s70.333 38.166 108 50.499s77.167 18.5 118.5 18.5c48.667 0 96.667 -9 144 -27s89.5 -45.5 126.5 -82.5
s66.833 -84.167 89.5 -141.5s34 -125.333 34 -204c0 -44.667 -4.5 -84.667 -13.5 -120s-21.5 -67.333 -37.5 -96h233v-189zM1027 189.002c30.667 0 59.167 4.33203 85.5 12.999s49.166 21.834 68.499 39.501s34.5 40 45.5 67s16.5 59.167 16.5 96.5
c0 84.667 -18 150.334 -54 197.001s-86.333 70 -151 70c-30.667 0 -60.667 -6.83301 -90 -20.5s-58.166 -32.334 -86.499 -56.001s-55.833 -51.167 -82.5 -82.5s-52.5 -64.833 -77.5 -100.5s-49.167 -72.334 -72.5 -110.001l-67 -109.5
c-1.33301 -1.33301 -2 -2.66602 -2 -3.99902h467z" />
    <glyph glyph-name="uni0637.init" unicode="&#x637;" horiz-adv-x="1420" arabic-form="initial" 
d="M-20 0v189h224c16.667 25.333 33 52 49 80s32.667 55 50 81v1077h188v-807c28.667 34 58.5 65.833 89.5 95.5s63.667 55.167 98 76.5s70.333 38.166 108 50.499s77.167 18.5 118.5 18.5c48.667 0 96.667 -9 144 -27s89.5 -45.667 126.5 -83s66.833 -84.666 89.5 -141.999
s34 -125.333 34 -204c0 -50 -5.66699 -94.667 -17 -134s-26.833 -74 -46.5 -104s-42.667 -55.5 -69 -76.5s-54.5 -38.333 -84.5 -52s-61.167 -23.5 -93.5 -29.5s-63.833 -9 -94.5 -9h-914zM894 189c6 0 14.1631 0.334961 24.4961 1.00195s21.833 2.33398 34.5 5.00098
s25.834 6.33398 39.501 11.001s26.834 11 39.501 19c26.667 17.333 46.334 40.666 59.001 69.999s19 66 19 110c0 84.667 -18 150.5 -54 197.5s-86.333 70.5 -151 70.5c-30.667 0 -60.667 -6.83301 -90 -20.5s-58.166 -32.334 -86.499 -56.001
s-55.833 -51.334 -82.5 -83.001s-52.5 -65.334 -77.5 -101.001s-49.167 -72.334 -72.5 -110.001l-67 -109.5c-1.33301 -1.33301 -2 -2.66602 -2 -3.99902h467z" />
    </font>
</defs>
</svg>
