<?xml version="1.0" standalone="no"?>
<!DOCTYPE svg PUBLIC "-//W3C//DTD SVG 1.1//EN" "http://www.w3.org/Graphics/SVG/1.1/DTD/svg11.dtd" >
<svg>
<metadata>
Created by FontForge 20090914 at Sun Sep 22 22:58:06 2019
 By www-data
Copyright (c) 2019 by fontiran.com. All rights reserved.
</metadata>
<defs>
<font id="IRANYekan-Light" horiz-adv-x="0" >
  <font-face 
    font-family="IRANYekan Light"
    font-weight="300"
    font-stretch="normal"
    units-per-em="2200"
    panose-1="2 11 5 6 3 8 4 2 2 4"
    ascent="1760"
    descent="-440"
    x-height="1162"
    cap-height="1564"
    bbox="-460.997 -1102 3096 2704"
    underline-thickness="100"
    underline-position="-750"
    unicode-range="U+001D-U+FEFF"
  />
<missing-glyph horiz-adv-x="1229" 
d="M102 -362v1806h1024v-1806h-1024zM217 -248h795v1577h-795v-1577z" />
    <glyph glyph-name="allah" unicode="&#xfedf;&#xfee0;&#xfeea;" horiz-adv-x="2235" arabic-form="isolated" 
d="M1311 1307c-58 0 -103.338 16.002 -136.005 48.002s-49 76.667 -49 134v91l91 15v-106c0 -32 7.33301 -55.333 22 -70s38.667 -22 72 -22c4.66699 0 11.5 0.833008 20.5 2.5s17.833 5.66699 26.5 12s16.334 15.666 23.001 27.999s10 28.833 10 49.5v90l92 20v-110
c0 -32 7.33301 -55.5 22 -70.5s39 -22.5 73 -22.5c4.66699 0 11.334 1.16699 20.001 3.5s17.334 6.66602 26.001 12.999s16 15.666 22 27.999s9 28.5 9 48.5c0 10 -1.16699 22 -3.5 36s-5.16602 28 -8.49902 42l-9.5 39c-3 12 -5.5 21 -7.5 27l85 29
c0.666992 -3.33301 3 -11.166 7 -23.499s8 -27 12 -44s7.66699 -34.833 11 -53.5s5 -36 5 -52c0 -31.333 -5 -58.5 -15 -81.5s-23.167 -42 -39.5 -57s-34.666 -26.167 -54.999 -33.5s-40.5 -11 -60.5 -11c-61.333 0 -108 17.667 -140 53c-16.667 -18 -36 -31.167 -58 -39.5
s-44.333 -12.5 -67 -12.5zM1389 1975l93 22v-278l-93 -23v279zM1108 0.00195312c-62 0 -115.001 8.33398 -159.001 25.001s-80.5 40 -109.5 70s-51.5 65.833 -67.5 107.5s-27.333 87.5 -34 137.5l-69 538l-155 -32c-39.333 -10 -75 -25.5 -107 -46.5
s-55.667 -44.833 -71 -71.5c-12.667 -22.667 -21.834 -47.667 -27.501 -75s-8.5 -56.666 -8.5 -87.999c0 -34 3.5 -72.333 10.5 -115s15.667 -86 26 -130s21.333 -86.833 33 -128.5l31.5 -110.5l19 -61c-24 -7.33301 -44.833 -13.333 -62.5 -18l-57.5 -15l-17 58
c-11.333 36.667 -23.166 77.5 -35.499 122.5s-23.833 90.667 -34.5 137s-19.5 92 -26.5 137s-10.5 86.5 -10.5 124.5c0 39.333 4.33301 78.166 13 116.499s22 74.166 40 107.499c24.667 40.667 59.5 77.167 104.5 109.5s95.167 54.833 150.5 67.5
c12 3.33301 27.833 7.16602 47.5 11.499l60.5 13l57 11.5l36 7l89 -57l82 -574c8 -54.667 20.333 -98.667 37 -132s36.334 -59 59.001 -77s47.5 -30 74.5 -36s54.167 -9 81.5 -9c60.667 0 108.667 7.5 144 22.5s62.166 33.833 80.499 56.5s30.166 47.667 35.499 75
s8 53.333 8 78v745c24.667 5.33301 46.334 10.333 65.001 15l60 15l-1 -775c0 -38 6 -71.167 18 -99.5s29.167 -52.166 51.5 -71.499s49.166 -34 80.499 -44s66 -15.667 104 -17h10c46.667 0 86.334 4 119.001 12s59 21.333 79 40s34.5 42.667 43.5 72
s13.5 65.666 13.5 108.999l-55 877l125 61l54 -941c0 -21.333 -1 -43.166 -3 -65.499s-6 -44.666 -12 -66.999s-14.667 -44.166 -26 -65.499s-26.333 -41.333 -45 -60c-17.333 -16 -34.666 -30.167 -51.999 -42.5s-36.833 -22.5 -58.5 -30.5s-47.167 -14 -76.5 -18
s-64.666 -6 -105.999 -6h-10c-24 0 -49.5 1.66699 -76.5 5s-54.333 9.66602 -82 18.999s-55 22.666 -82 39.999s-52.5 40 -76.5 68c-21.333 -22 -42.833 -41.333 -64.5 -58s-45.334 -30.5 -71.001 -41.5s-54 -19.167 -85 -24.5s-66.5 -8 -106.5 -8h-2z" />
    <glyph glyph-name="riyal" unicode="&#x631;&#xfef3;&#xfe8e;&#x644;" horiz-adv-x="3220" arabic-form="isolated" 
d="M1333 -48c0 -76.667 -8.50098 -143.499 -25.501 -200.499s-43.5 -106.5 -79.5 -148.5c-26.667 -30 -56.167 -54.833 -88.5 -74.5s-66.666 -35.5 -102.999 -47.5s-74.666 -20.333 -114.999 -25s-81.5 -7 -123.5 -7h-72c-83.333 0 -159.5 18.5 -228.5 55.5
s-124.833 89.833 -167.5 158.5c-29.333 46 -50.666 97.667 -63.999 155c-12 48 -18 98.667 -18 152c0 10 0.333008 20.333 1 31c2.66699 70 14.5 143 35.5 219s51.167 155 90.5 237l111 -53c-66.667 -140 -104.334 -267.667 -113.001 -383c-1.33301 -18 -2 -35.667 -2 -53
c0 -92.667 21 -172.667 63 -240c31.333 -50 72.333 -88.5 123 -115.5s107 -40.5 169 -40.5h72c81.333 0 149.666 9.16699 204.999 27.5s99 46.166 131 83.499c26 30 45.167 67 57.5 111s18.5 96.667 18.5 158v1475h123v-1475zM2390 -552.999l0.000976562 122h139
c156.667 0 271.334 41 344 123c66.667 76 100 189.667 100 341v642h123v-642c0 -193.333 -47.833 -339.333 -143.5 -438s-236.834 -148 -423.501 -148h-139zM2175 -510.999l-124 125l122 124l126 -125zM1767 -508.999l-124 125l122 124l126 -125zM2029 0.000976562
c-79.333 0 -142.834 9.33105 -190.501 27.998s-84.167 46.334 -109.5 83.001s-42 81.834 -50 135.501s-12 115.5 -12 185.5v995h125v-995c0 -62 2 -113 6 -153s14 -71.5 30 -94.5s39.833 -39 71.5 -48s74.834 -13.5 129.501 -13.5h14v-123h-14zM2501 803.999l21.999 -94.999
c8 -34.667 15.167 -70.5 21.5 -107.5s11.833 -74.5 16.5 -112.5s7.66699 -74.333 9 -109v-6c0 -45.333 -7 -90.333 -21 -135s-34.667 -84.834 -62 -120.501s-60.833 -64.334 -100.5 -86.001s-84.167 -32.5 -133.5 -32.5h-260v123h260c32 2 60.167 10.333 84.5 25
s44.666 33.834 61 57.501c16.333 23.667 28.833 50.5 37.5 80.5c7.33301 27.333 11 55.333 11 84v7c-0.666992 32 -3.16699 65.333 -7.5 100s-9.66602 69 -16 103c-6.33301 34 -13.166 67 -20.499 99l-21 89z" />
    <glyph glyph-name="uni06440622.isol" unicode="&#xfedf;&#xfe82;" horiz-adv-x="1302" arabic-form="isolated" 
d="M1149 617c0 -85.333 -4.49707 -160 -13.4971 -224s-23 -118.833 -42 -164.5s-43.167 -83.334 -72.5 -113.001s-64.833 -53 -106.5 -70s-89.334 -28.833 -143.001 -35.5s-114.167 -10 -181.5 -10h-403v123h403c68.667 2.66699 127.167 8.33398 175.5 17.001
s88.666 21.167 120.999 37.5s57.833 37 76.5 62s32.667 55.333 42 91s15.166 77.167 17.499 124.5s3.5 101.333 3.5 162v811h123v-811zM308.003 332v1095h125v-1095h-125zM881.003 1584l-490.997 0.000976562c-47.333 0 -86.166 -3.16699 -116.499 -9.5s-55.333 -16 -75 -29
s-35.334 -29.5 -47.001 -49.5s-22.5 -44 -32.5 -72l-59.5 18l-56.5 17c16.667 50 35.167 91.167 55.5 123.5s45.166 57.666 74.499 75.999s64.666 31 105.999 38s91.666 10.5 150.999 10.5h491v-123z" />
    <glyph glyph-name="uni06440622.fina" unicode="&#xfee0;&#xfe82;" horiz-adv-x="1340" arabic-form="final" 
d="M1124 616c0 -81.333 2.50195 -152.669 7.50195 -214.002s14.833 -112.666 29.5 -153.999s35.167 -72.5 61.5 -93.5s60.833 -31.5 103.5 -31.5h33v-123h-33c-37.333 0 -70.333 5 -99 15s-54.167 23.667 -76.5 41s-41.5 38 -57.5 62s-29.333 50 -40 78
c-20 -38.667 -45 -70.667 -75 -96s-65 -45.333 -105 -60s-85.667 -25 -137 -31s-108.333 -9 -171 -9h-403v123h403c68.667 2.66699 127.167 8.33398 175.5 17.001s88.666 21.167 120.999 37.5s57.833 37 76.5 62s32.667 55.333 42 91s15.166 77.167 17.499 124.5
s3.5 101.333 3.5 162v811h123v-812zM283.002 331.997v1095h125v-1095h-125zM880.002 1591l-490.997 0.000976562c-47.333 0 -86.166 -3.16699 -116.499 -9.5s-55.333 -16 -75 -29s-35.334 -29.5 -47.001 -49.5s-22.5 -44 -32.5 -72l-59.5 18l-56.5 17
c16.667 50 35.167 91.167 55.5 123.5s45.166 57.666 74.499 75.999s64.666 31 105.999 38s91.666 10.5 150.999 10.5h491v-123z" />
    <glyph glyph-name="uni06440623.isol" unicode="&#xfedf;&#xfe84;" horiz-adv-x="1302" arabic-form="isolated" 
d="M1109 617c0 -85.333 -4.49707 -160 -13.4971 -224s-23 -118.833 -42 -164.5s-43.167 -83.334 -72.5 -113.001s-64.833 -53 -106.5 -70s-89.334 -28.833 -143.001 -35.5s-114.167 -10 -181.5 -10h-403v123h403c68.667 2.66699 127.167 8.33398 175.5 17.001
s88.666 21.167 120.999 37.5s57.833 37 76.5 62s32.667 55.333 42 91s15.166 77.167 17.499 124.5s3.5 101.333 3.5 162v811h123v-811zM268.003 332v1095h125v-1095h-125zM1.00293 1468c1.33301 19.333 2.33594 36.6699 3.00293 52.0029s1.66699 32.666 3 51.999l157 50
c-17.333 4.66699 -33.166 12.667 -47.499 24s-26.5 24.333 -36.5 39s-17.667 30.667 -23 48s-8 34.666 -8 51.999c0 20.667 3.66699 41.5 11 62.5s17.666 40.833 30.999 59.5s29.666 35.167 48.999 49.5s41 25.166 65 32.499c20 6 39 9 57 9
c1.33301 0 7.16602 -0.166992 17.499 -0.5s24.166 -2.66602 41.499 -6.99902s33.833 -9.66602 49.5 -15.999l45.5 -18.5l-21 -82l-36.5 13.5c-13 5 -26.333 9.16699 -40 12.5s-27.667 5.16602 -42 5.49902s-28.833 -1.5 -43.5 -5.5c-14 -4 -27.167 -10.833 -39.5 -20.5
s-22.833 -21 -31.5 -34s-14.334 -26.833 -17.001 -41.5c-1.33301 -6.66699 -2 -13.334 -2 -20.001c0 -8 1 -15.667 3 -23c6.66699 -21.333 24.834 -39.5 54.501 -54.5s64.5 -22.5 104.5 -22.5c30 0 62 4.5 96 13.5s66.667 18.167 98 27.5l28 -88z" />
    <glyph glyph-name="uni06440623.fina" unicode="&#xfee0;&#xfe84;" horiz-adv-x="1340" arabic-form="final" 
d="M1124 616c0 -81.333 2.50195 -152.669 7.50195 -214.002s14.833 -112.666 29.5 -153.999s35.167 -72.5 61.5 -93.5s60.833 -31.5 103.5 -31.5h33v-123h-33c-37.333 0 -70.333 5 -99 15s-54.167 23.667 -76.5 41s-41.5 38 -57.5 62s-29.333 50 -40 78
c-20 -38.667 -45 -70.667 -75 -96s-65 -45.333 -105 -60s-85.667 -25 -137 -31s-108.333 -9 -171 -9h-403v123h403c68.667 2.66699 127.167 8.33398 175.5 17.001s88.666 21.167 120.999 37.5s57.833 37 76.5 62s32.667 55.333 42 91s15.166 77.167 17.499 124.5
s3.5 101.333 3.5 162v811h123v-812zM283.002 331.997v1095h125v-1095h-125zM24.002 1492c1.33301 19.333 2.33594 36.6699 3.00293 52.0029s1.66699 32.666 3 51.999l157 50c-17.333 4.66699 -33.166 12.667 -47.499 24s-26.5 24.333 -36.5 39s-17.667 30.667 -23 48
s-8 34.666 -8 51.999c0 20.667 3.66699 41.5 11 62.5s17.666 40.833 30.999 59.5s29.666 35.167 48.999 49.5s41 25.166 65 32.499c20 6 39 9 57 9c1.33301 0 7.16602 -0.166992 17.499 -0.5s24.166 -2.66602 41.499 -6.99902s33.833 -9.66602 49.5 -15.999l45.5 -18.5
l-21 -82l-36.5 13.5c-13 5 -26.333 9.16699 -40 12.5s-27.667 5.16602 -42 5.49902s-28.833 -1.5 -43.5 -5.5c-14 -4 -27.167 -10.833 -39.5 -20.5s-22.833 -21 -31.5 -34s-14.334 -26.833 -17.001 -41.5c-1.33301 -6.66699 -2 -13.334 -2 -20.001c0 -8 1 -15.667 3 -23
c6.66699 -21.333 24.834 -39.5 54.501 -54.5s64.5 -22.5 104.5 -22.5c30 0 62 4.5 96 13.5s66.667 18.167 98 27.5l28 -88z" />
    <glyph glyph-name="uni06440625.isol" unicode="&#xfedf;&#xfe88;" horiz-adv-x="1302" arabic-form="isolated" 
d="M1099 617c0 -85.333 -4.49707 -160 -13.4971 -224s-23 -118.833 -42 -164.5s-43.167 -83.334 -72.5 -113.001s-64.833 -53 -106.5 -70s-89.334 -28.833 -143.001 -35.5s-114.167 -10 -181.5 -10h-403v123h403c68.667 2.66699 127.167 8.33398 175.5 17.001
s88.666 21.167 120.999 37.5s57.833 37 76.5 62s32.667 55.333 42 91s15.166 77.167 17.499 124.5s3.5 101.333 3.5 162v811h123v-811zM258.003 332v1095h125v-1095h-125zM262.003 -672c1.33301 19.333 2.33594 36.6699 3.00293 52.0029s1.66699 32.666 3 51.999l157 50
c-17.333 4.66699 -33.166 12.667 -47.499 24s-26.5 24.333 -36.5 39s-17.667 30.667 -23 48s-8 34.666 -8 51.999c0 20.667 3.66699 41.5 11 62.5s17.666 40.833 30.999 59.5s29.666 35.167 48.999 49.5s41 25.166 65 32.499c20 6 39 9 57 9
c1.33301 0 7.16602 -0.166992 17.499 -0.5s24.166 -2.66602 41.499 -6.99902s33.833 -9.66602 49.5 -15.999l45.5 -18.5l-21 -82l-36.5 13.5c-13 5 -26.333 9.16699 -40 12.5s-27.667 5.16602 -42 5.49902s-28.833 -1.5 -43.5 -5.5c-14 -4 -27.167 -10.833 -39.5 -20.5
s-22.833 -21 -31.5 -34s-14.334 -26.833 -17.001 -41.5c-1.33301 -6.66699 -2 -13.334 -2 -20.001c0 -8 1 -15.667 3 -23c6.66699 -21.333 24.834 -39.5 54.501 -54.5s64.5 -22.5 104.5 -22.5c30 0 62 4.5 96 13.5s66.667 18.167 98 27.5l28 -88z" />
    <glyph glyph-name="uni06440625.fina" unicode="&#xfee0;&#xfe88;" horiz-adv-x="1340" arabic-form="final" 
d="M1124 616c0 -81.333 2.50195 -152.669 7.50195 -214.002s14.833 -112.666 29.5 -153.999s35.167 -72.5 61.5 -93.5s60.833 -31.5 103.5 -31.5h33v-123h-33c-37.333 0 -70.333 5 -99 15s-54.167 23.667 -76.5 41s-41.5 38 -57.5 62s-29.333 50 -40 78
c-20 -38.667 -45 -70.667 -75 -96s-65 -45.333 -105 -60s-85.667 -25 -137 -31s-108.333 -9 -171 -9h-403v123h403c68.667 2.66699 127.167 8.33398 175.5 17.001s88.666 21.167 120.999 37.5s57.833 37 76.5 62s32.667 55.333 42 91s15.166 77.167 17.499 124.5
s3.5 101.333 3.5 162v811h123v-812zM283.002 331.997v1095h125v-1095h-125zM257.002 -669.003c1.33301 19.333 2.33594 36.6699 3.00293 52.0029s1.66699 32.666 3 51.999l157 50c-17.333 4.66699 -33.166 12.667 -47.499 24s-26.5 24.333 -36.5 39s-17.667 30.667 -23 48
s-8 34.666 -8 51.999c0 20.667 3.66699 41.5 11 62.5s17.666 40.833 30.999 59.5s29.666 35.167 48.999 49.5s41 25.166 65 32.499c20 6 39 9 57 9c1.33301 0 7.16602 -0.166992 17.499 -0.5s24.166 -2.66602 41.499 -6.99902s33.833 -9.66602 49.5 -15.999l45.5 -18.5
l-21 -82l-36.5 13.5c-13 5 -26.333 9.16699 -40 12.5s-27.667 5.16602 -42 5.49902s-28.833 -1.5 -43.5 -5.5c-14 -4 -27.167 -10.833 -39.5 -20.5s-22.833 -21 -31.5 -34s-14.334 -26.833 -17.001 -41.5c-1.33301 -6.66699 -2 -13.334 -2 -20.001c0 -8 1 -15.667 3 -23
c6.66699 -21.333 24.834 -39.5 54.501 -54.5s64.5 -22.5 104.5 -22.5c30 0 62 4.5 96 13.5s66.667 18.167 98 27.5l28 -88z" />
    <glyph glyph-name="uni06440627.isol" unicode="&#xfedf;&#xfe8e;" horiz-adv-x="1302" arabic-form="isolated" 
d="M1099 617c0 -85.333 -4.49707 -160 -13.4971 -224s-23 -118.833 -42 -164.5s-43.167 -83.334 -72.5 -113.001s-64.833 -53 -106.5 -70s-89.334 -28.833 -143.001 -35.5s-114.167 -10 -181.5 -10h-403v123h403c68.667 2.66699 127.167 8.33398 175.5 17.001
s88.666 21.167 120.999 37.5s57.833 37 76.5 62s32.667 55.333 42 91s15.166 77.167 17.499 124.5s3.5 101.333 3.5 162v811h123v-811zM258.003 332v1095h125v-1095h-125z" />
    <glyph glyph-name="uni06440627.fina" unicode="&#xfee0;&#xfe8e;" horiz-adv-x="1340" arabic-form="final" 
d="M1124 616c0 -81.333 2.50195 -152.669 7.50195 -214.002s14.833 -112.666 29.5 -153.999s35.167 -72.5 61.5 -93.5s60.833 -31.5 103.5 -31.5h33v-123h-33c-37.333 0 -70.333 5 -99 15s-54.167 23.667 -76.5 41s-41.5 38 -57.5 62s-29.333 50 -40 78
c-20 -38.667 -45 -70.667 -75 -96s-65 -45.333 -105 -60s-85.667 -25 -137 -31s-108.333 -9 -171 -9h-403v123h403c68.667 2.66699 127.167 8.33398 175.5 17.001s88.666 21.167 120.999 37.5s57.833 37 76.5 62s32.667 55.333 42 91s15.166 77.167 17.499 124.5
s3.5 101.333 3.5 162v811h123v-812zM283.002 331.997v1095h125v-1095h-125z" />
    <glyph glyph-name="uni06440671.isol" unicode="&#xfedf;&#xfb51;" horiz-adv-x="1302" 
d="M1099 617c0 -85.333 -4.49707 -160 -13.4971 -224s-23 -118.833 -42 -164.5s-43.167 -83.334 -72.5 -113.001s-64.833 -53 -106.5 -70s-89.334 -28.833 -143.001 -35.5s-114.167 -10 -181.5 -10h-403v123h403c68.667 2.66699 127.167 8.33398 175.5 17.001
s88.666 21.167 120.999 37.5s57.833 37 76.5 62s32.667 55.333 42 91s15.166 77.167 17.499 124.5s3.5 101.333 3.5 162v811h123v-811zM258.003 332v1095h125v-1095h-125zM-8.99707 1530l19 84.998h129l47 73l83 122c25.333 30.667 53.333 56.334 84 77.001s65 31 103 31
c22 0 43.5 -4 64.5 -12s39.833 -20.5 56.5 -37.5s30.167 -38.5 40.5 -64.5s15.5 -56.667 15.5 -92c0 -34 -5.66699 -62.5 -17 -85.5s-25.666 -41.667 -42.999 -56s-36.833 -24.666 -58.5 -30.999s-42.834 -9.5 -63.501 -9.5h-460zM451.003 1615
c28 0 50.999 7.66699 68.999 23s27 40 27 74c0 38.667 -7.83301 68.5 -23.5 89.5s-38.167 31.5 -67.5 31.5c-21.333 0 -41.666 -6.66699 -60.999 -20s-38 -30.5 -56 -51.5s-35.167 -44.167 -51.5 -69.5s-31.5 -50 -45.5 -74c-0.666992 -0.666992 -1 -1.66699 -1 -3h210z" />
    <glyph glyph-name="uni06440671.fina" unicode="&#xfee0;&#xfb51;" horiz-adv-x="1340" 
d="M1124 616c0 -81.333 2.50195 -152.669 7.50195 -214.002s14.833 -112.666 29.5 -153.999s35.167 -72.5 61.5 -93.5s60.833 -31.5 103.5 -31.5h33v-123h-33c-37.333 0 -70.333 5 -99 15s-54.167 23.667 -76.5 41s-41.5 38 -57.5 62s-29.333 50 -40 78
c-20 -38.667 -45 -70.667 -75 -96s-65 -45.333 -105 -60s-85.667 -25 -137 -31s-108.333 -9 -171 -9h-403v123h403c68.667 2.66699 127.167 8.33398 175.5 17.001s88.666 21.167 120.999 37.5s57.833 37 76.5 62s32.667 55.333 42 91s15.166 77.167 17.499 124.5
s3.5 101.333 3.5 162v811h123v-812zM283.002 331.997v1095h125v-1095h-125zM-31.998 1544l19 84.998h129l47 73l83 122c25.333 30.667 53.333 56.334 84 77.001s65 31 103 31c22 0 43.5 -4 64.5 -12s39.833 -20.5 56.5 -37.5s30.167 -38.5 40.5 -64.5s15.5 -56.667 15.5 -92
c0 -34 -5.66699 -62.5 -17 -85.5s-25.666 -41.667 -42.999 -56s-36.833 -24.666 -58.5 -30.999s-42.834 -9.5 -63.501 -9.5h-460zM428.002 1629c28 0 50.999 7.66699 68.999 23s27 40 27 74c0 38.667 -7.83301 68.5 -23.5 89.5s-38.167 31.5 -67.5 31.5
c-21.333 0 -41.666 -6.66699 -60.999 -20s-38 -30.5 -56 -51.5s-35.167 -44.167 -51.5 -69.5s-31.5 -50 -45.5 -74c-0.666992 -0.666992 -1 -1.66699 -1 -3h210z" />
    <glyph glyph-name="uni0621" unicode="&#x621;" horiz-adv-x="1004" arabic-form="isolated" 
d="M99 -44l-5.99902 126.995l299 91l-13.5 6c-4.33301 2 -8.5 4.33301 -12.5 7c-45.333 23.333 -84.333 54.5 -117 93.5s-56.334 82.5 -71.001 130.5c-8.66699 28 -13 56 -13 84c0 13.333 1.83301 33.5 5.5 60.5s15.5 58.333 35.5 94s46 66.834 78 93.501
s68.333 46.334 109 59.001c28 8.66699 56 13.667 84 15h14c22.667 0 47 -1.5 73 -4.5s53.333 -7.66699 82 -14l87 -19.5l-28 -120l-82.5 18.5c-25.667 5.66699 -49.834 10.167 -72.501 13.5c-18 2 -35.333 3 -52 3c-4 0 -12 -0.166992 -24 -0.5s-27 -3.16602 -45 -8.49902
c-25.333 -8 -47.833 -19.5 -67.5 -34.5s-35.5 -32.667 -47.5 -53s-19.667 -43.166 -23 -68.499c-1.33301 -10 -2 -20 -2 -30c0 -16.667 2 -34 6 -52c2.66699 -7.33301 6.66699 -17.333 12 -30s13 -26 23 -40s22.5 -28.167 37.5 -42.5s33.5 -27.166 55.5 -38.499
c46.667 -25.333 101.334 -38 164.001 -38c47.333 0 99 7.33301 155 22l149 42l5 -125z" />
    <glyph glyph-name="uni0622" unicode="&#x622;" horiz-adv-x="878" arabic-form="isolated" 
d="M523 0h-125v1276h125v-1276zM878 1429l-490.997 0.000976562c-47.333 0 -86.166 -3.16699 -116.499 -9.5s-55.333 -16 -75 -29s-35.334 -29.5 -47.001 -49.5s-22.5 -44 -32.5 -72l-59.5 18l-56.5 17c16.667 50 35.167 91.167 55.5 123.5s45.166 57.666 74.499 75.999
s64.666 31 105.999 38s91.666 10.5 150.999 10.5h491v-123z" />
    <glyph glyph-name="uni0623" unicode="&#x623;" horiz-adv-x="525" arabic-form="isolated" 
d="M325 0h-125v1276h125v-1276zM1 1374c1.33301 19.333 2.33594 36.6699 3.00293 52.0029s1.66699 32.666 3 51.999l157 50c-17.333 4.66699 -33.166 12.667 -47.499 24s-26.5 24.333 -36.5 39s-17.667 30.667 -23 48s-8 34.666 -8 51.999c0 20.667 3.66699 41.5 11 62.5
s17.666 40.833 30.999 59.5s29.666 35.167 48.999 49.5s41 25.166 65 32.499c20 6 39 9 57 9c1.33301 0 7.16602 -0.166992 17.499 -0.5s24.166 -2.66602 41.499 -6.99902s33.833 -9.66602 49.5 -15.999l45.5 -18.5l-21 -82l-36.5 13.5c-13 5 -26.333 9.16699 -40 12.5
s-27.667 5.16602 -42 5.49902s-28.833 -1.5 -43.5 -5.5c-14 -4 -27.167 -10.833 -39.5 -20.5s-22.833 -21 -31.5 -34s-14.334 -26.833 -17.001 -41.5c-1.33301 -6.66699 -2 -13.334 -2 -20.001c0 -8 1 -15.667 3 -23c6.66699 -21.333 24.834 -39.5 54.501 -54.5
s64.5 -22.5 104.5 -22.5c30 0 62 4.5 96 13.5s66.667 18.167 98 27.5l28 -88z" />
    <glyph glyph-name="uni0624" unicode="&#x624;" horiz-adv-x="1024" arabic-form="isolated" 
d="M777 123l-0.000976562 249.002c-1.33301 52.667 -6.16602 101.5 -14.499 146.5s-22.5 84 -42.5 117s-46.667 58.667 -80 77s-76 27.5 -128 27.5c-51.333 0 -94 -9.33301 -128 -28s-61.167 -44.5 -81.5 -77.5s-34.666 -72 -42.999 -117s-12.5 -93.5 -12.5 -145.5
c0 -46 8 -84.833 24 -116.5s38.333 -57.334 67 -77.001s62.167 -33.834 100.5 -42.501s80.166 -13 125.499 -13h213zM511.999 863.002c68.667 -2.66699 127.668 -16.334 177.001 -41.001s89.5 -58.5 120.5 -101.5s53.833 -94 68.5 -153s22 -124.167 22 -195.5v-389
c0 -88 -15.167 -165.667 -45.5 -233s-74.5 -123.666 -132.5 -168.999s-127.167 -78.833 -207.5 -100.5s-168.166 -32.5 -263.499 -32.5h-57v123h57c80.667 2 153.167 10 217.5 24s119.166 37.333 164.499 70s80.333 76.167 105 130.5s37.667 122.5 39 204.5h-228
c-56 0 -109.667 7.33301 -161 22s-96.833 37.5 -136.5 68.5s-70.834 70 -93.501 117s-34 101.833 -34 164.5c0 70.667 7.16699 135.5 21.5 194.5s37 110 68 153s71 77 120 102s108.5 38.833 178.5 41.5zM175 1021c1.33301 19.333 2.33594 36.6699 3.00293 52.0029
s1.66699 32.666 3 51.999l157 50c-17.333 4.66699 -33.166 12.667 -47.499 24s-26.5 24.333 -36.5 39s-17.667 30.667 -23 48s-8 34.666 -8 51.999c0 20.667 3.66699 41.5 11 62.5s17.666 40.833 30.999 59.5s29.666 35.167 48.999 49.5s41 25.166 65 32.499c20 6 39 9 57 9
c1.33301 0 7.16602 -0.166992 17.499 -0.5s24.166 -2.66602 41.499 -6.99902s33.833 -9.66602 49.5 -15.999l45.5 -18.5l-21 -82l-36.5 13.5c-13 5 -26.333 9.16699 -40 12.5s-27.667 5.16602 -42 5.49902s-28.833 -1.5 -43.5 -5.5c-14 -4 -27.167 -10.833 -39.5 -20.5
s-22.833 -21 -31.5 -34s-14.334 -26.833 -17.001 -41.5c-1.33301 -6.66699 -2 -13.334 -2 -20.001c0 -8 1 -15.667 3 -23c6.66699 -21.333 24.834 -39.5 54.501 -54.5s64.5 -22.5 104.5 -22.5c30 0 62 4.5 96 13.5s66.667 18.167 98 27.5l28 -88z" />
    <glyph glyph-name="uni0625" unicode="&#x625;" horiz-adv-x="525" arabic-form="isolated" 
d="M325 0h-125v1427h125v-1427zM3 -685c1.33301 19.333 2.33594 36.6699 3.00293 52.0029s1.66699 32.666 3 51.999l157 50c-17.333 4.66699 -33.166 12.667 -47.499 24s-26.5 24.333 -36.5 39s-17.667 30.667 -23 48s-8 34.666 -8 51.999c0 20.667 3.66699 41.5 11 62.5
s17.666 40.833 30.999 59.5s29.666 35.167 48.999 49.5s41 25.166 65 32.499c20 6 39 9 57 9c1.33301 0 7.16602 -0.166992 17.499 -0.5s24.166 -2.66602 41.499 -6.99902s33.833 -9.66602 49.5 -15.999l45.5 -18.5l-21 -82l-36.5 13.5c-13 5 -26.333 9.16699 -40 12.5
s-27.667 5.16602 -42 5.49902s-28.833 -1.5 -43.5 -5.5c-14 -4 -27.167 -10.833 -39.5 -20.5s-22.833 -21 -31.5 -34s-14.334 -26.833 -17.001 -41.5c-1.33301 -6.66699 -2 -13.334 -2 -20.001c0 -8 1 -15.667 3 -23c6.66699 -21.333 24.834 -39.5 54.501 -54.5
s64.5 -22.5 104.5 -22.5c30 0 62 4.5 96 13.5s66.667 18.167 98 27.5l28 -88z" />
    <glyph glyph-name="uni0626" unicode="&#x626;" horiz-adv-x="1671" arabic-form="isolated" 
d="M1356 871c32.667 0 65.499 -2.33594 98.499 -7.00293s66.5 -12 100.5 -22l-34 -118c-56 16 -110.667 24 -164 24c-64.667 0 -125.5 -11 -182.5 -33s-107.5 -54.667 -151.5 -98c-52 -50.667 -88.333 -110.334 -109 -179.001c-13.333 -42 -20 -85 -20 -129
c0 -27.333 2.66699 -55 8 -83c10.667 -3.33301 27.834 -8.16602 51.501 -14.499l81.5 -21.5l97.5 -26l100 -27l88.5 -24c26.667 -7.33301 48 -13 64 -17c26.667 -7.33301 47.834 -16 63.501 -26s27.167 -21 34.5 -33s12 -25 14 -39s3 -28.667 3 -44
c0 -22.667 -1.66699 -48.667 -5 -78s-8.83301 -59.5 -16.5 -90.5s-18 -61.333 -31 -91s-29.167 -56.167 -48.5 -79.5c-26.667 -32.667 -55.834 -59.667 -87.501 -81s-65.667 -38.333 -102 -51s-74.666 -21.5 -114.999 -26.5s-82.833 -7.5 -127.5 -7.5h-255
c-44.667 0 -88.667 5.33301 -132 16s-85 26.834 -125 48.501s-76.833 48 -110.5 79s-63.167 66.5 -88.5 106.5c-36.667 58.667 -62.334 121.334 -77.001 188.001c-12.667 54.667 -19 110.667 -19 168c0 12.667 0.333008 25.334 1 38.001c6 164.667 55.333 343 148 535
l111 -53c-40 -82.667 -71.167 -162.5 -93.5 -239.5s-35.833 -149.833 -40.5 -218.5c-1.33301 -20.667 -2 -40.667 -2 -60c0 -46 5.16699 -94.333 15.5 -145s30.5 -100 60.5 -148c38.667 -61.333 89.167 -108.666 151.5 -141.999s131.833 -50 208.5 -50h247
c82 0 149.333 9.66699 202 29s96 47.666 130 84.999c16.667 18 30.5 38.833 41.5 62.5s19.667 48.334 26 74.001s10.5 51.5 12.5 77.5c0.666992 10 1 20 1 30c0 14 -0.666992 27.667 -2 41l-579 156l-9 34c-12.667 47.333 -19 95 -19 143v42c0 26 6.33301 62.333 19 109
s31.334 91.167 56.001 133.5s55 81.166 91 116.499c27.333 26.667 57.166 50.5 89.499 71.5s66.5 38.5 102.5 52.5s73.333 24.667 112 32c34.667 6.66699 69.667 10 105 10h10zM101.999 761.997c1.33301 19.333 2.33594 36.6699 3.00293 52.0029s1.66699 32.666 3 51.999
l157 50c-17.333 4.66699 -33.166 12.667 -47.499 24s-26.5 24.333 -36.5 39s-17.667 30.667 -23 48s-8 34.666 -8 51.999c0 20.667 3.66699 41.5 11 62.5s17.666 40.833 30.999 59.5s29.666 35.167 48.999 49.5s41 25.166 65 32.499c20 6 39 9 57 9
c1.33301 0 7.16602 -0.166992 17.499 -0.5s24.166 -2.66602 41.499 -6.99902s33.833 -9.66602 49.5 -15.999l45.5 -18.5l-21 -82l-36.5 13.5c-13 5 -26.333 9.16699 -40 12.5s-27.667 5.16602 -42 5.49902s-28.833 -1.5 -43.5 -5.5c-14 -4 -27.167 -10.833 -39.5 -20.5
s-22.833 -21 -31.5 -34s-14.334 -26.833 -17.001 -41.5c-1.33301 -6.66699 -2 -13.334 -2 -20.001c0 -8 1 -15.667 3 -23c6.66699 -21.333 24.834 -39.5 54.501 -54.5s64.5 -22.5 104.5 -22.5c30 0 62 4.5 96 13.5s66.667 18.167 98 27.5l28 -88z" />
    <glyph glyph-name="uni0627" unicode="&#x627;" horiz-adv-x="525" arabic-form="isolated" 
d="M325 0h-125v1427h125v-1427z" />
    <glyph glyph-name="uni0628" unicode="&#x628;" horiz-adv-x="2103" arabic-form="isolated" 
d="M1953 703c11.333 -50.667 21.4961 -104.169 30.4961 -160.502s14.167 -110.5 15.5 -162.5v-12c0 -52.667 -8.66699 -102.667 -26 -150s-43.666 -89 -78.999 -125c-29.333 -30 -62.166 -53 -98.499 -69s-74.166 -24 -113.499 -24h-1227
c-42.667 0 -83.167 7.16699 -121.5 21.5s-72.166 35.5 -101.499 63.5c-12 10.667 -24 23.834 -36 39.501s-22.833 34.167 -32.5 55.5s-17.667 45.666 -24 72.999s-9.5 58 -9.5 92c0 22 1.66699 45.833 5 71.5s7.5 51.334 12.5 77.001s10.5 50.667 16.5 75l16.5 65
c5 19 9.33301 34.667 13 47s5.83398 19.166 6.50098 20.499l117 -37l-4 -16l-12.5 -43c-5 -17.333 -10.167 -37.166 -15.5 -59.499s-10.5 -45.166 -15.5 -68.499s-9 -46.5 -12 -69.5s-4.5 -43.833 -4.5 -62.5c0 -41.333 6 -76 18 -104s27.5 -50.833 46.5 -68.5
s40.5 -30.334 64.5 -38.001s48.333 -11.5 73 -11.5h1227c46.667 0 88 18.667 124 56c23.333 23.333 41 52.333 53 87c11.333 32 17 67 17 105v6c-1.33301 48 -6.33301 98.833 -15 152.5s-18.334 104.834 -29.001 153.501zM943.996 -349.002l114 115l118 -117l-116 -116z" />
    <glyph glyph-name="uni0629" unicode="&#x629;" horiz-adv-x="1042" arabic-form="isolated" 
d="M523 0c-56.667 0 -109.834 9.16797 -159.501 27.501s-93 43.5 -130 75.5s-66.333 69.5 -88 112.5s-32.5 88.833 -32.5 137.5c0 46.667 6.33301 89.667 19 129s28.5 75.5 47.5 108.5s39.5 63 61.5 90l60 73.5l33 38l36 39.5l35.5 37l31.5 32.5l-78 87l90 82
c0.666992 0 8.83398 -8.5 24.501 -25.5l60 -65.5l80.5 -89l85 -97c33.333 -38 64.333 -75 93 -111s53.5 -71.667 74.5 -107s37.5 -70.833 49.5 -106.5s18 -72.834 18 -111.501c0 -50 -10.833 -97.167 -32.5 -141.5s-53.167 -83.5 -94.5 -117.5
c-38 -32 -81.333 -56.333 -130 -73s-100 -25 -154 -25zM520 810.001l-30 -30.499l-32.5 -34l-32 -35l-28.5 -33.5l-52.5 -63.5c-19 -23 -36.5 -48 -52.5 -75s-29.333 -56 -40 -87s-16 -63.833 -16 -98.5c0 -30 7 -58.833 21 -86.5s34 -52.167 60 -73.5
c28 -22.667 59.833 -40 95.5 -52s72.5 -18 110.5 -18c40 0 77.5 6.16699 112.5 18.5s65.5 29 91.5 50s46.5 45.833 61.5 74.5s22.5 59 22.5 91c0 25.333 -4.33301 50.833 -13 76.5s-21.5 52.667 -38.5 81s-38.333 58.666 -64 90.999l-89.5 107.5zM704 1250l-124 125
l61.5 62.5l60.5 61.5l126 -125zM298 1252l-124 125l61.5 62.5l60.5 61.5l126 -125z" />
    <glyph glyph-name="uni062A" unicode="&#x62a;" horiz-adv-x="2103" arabic-form="isolated" 
d="M1953 703c11.333 -50.667 21.4961 -104.169 30.4961 -160.502s14.167 -110.5 15.5 -162.5v-12c0 -52.667 -8.66699 -102.667 -26 -150s-43.666 -89 -78.999 -125c-29.333 -30 -62.166 -53 -98.499 -69s-74.166 -24 -113.499 -24h-1227
c-42.667 0 -83.167 7.16699 -121.5 21.5s-72.166 35.5 -101.499 63.5c-12 10.667 -24 23.834 -36 39.501s-22.833 34.167 -32.5 55.5s-17.667 45.666 -24 72.999s-9.5 58 -9.5 92c0 22 1.66699 45.833 5 71.5s7.5 51.334 12.5 77.001s10.5 50.667 16.5 75l16.5 65
c5 19 9.33301 34.667 13 47s5.83398 19.166 6.50098 20.499l117 -37l-4 -16l-12.5 -43c-5 -17.333 -10.167 -37.166 -15.5 -59.499s-10.5 -45.166 -15.5 -68.499s-9 -46.5 -12 -69.5s-4.5 -43.833 -4.5 -62.5c0 -41.333 6 -76 18 -104s27.5 -50.833 46.5 -68.5
s40.5 -30.334 64.5 -38.001s48.333 -11.5 73 -11.5h1227c46.667 0 88 18.667 124 56c23.333 23.333 41 52.333 53 87c11.333 32 17 67 17 105v6c-1.33301 48 -6.33301 98.833 -15 152.5s-18.334 104.834 -29.001 153.501zM1267 801.998l-124 125l61.5 62.5l60.5 61.5
l126 -125zM860.996 803.998l-124 125l61.5 62.5l60.5 61.5l126 -125z" />
    <glyph glyph-name="uni062B" unicode="&#x62b;" horiz-adv-x="2103" arabic-form="isolated" 
d="M1953 703c11.333 -50.667 21.4961 -104.169 30.4961 -160.502s14.167 -110.5 15.5 -162.5v-12c0 -52.667 -8.66699 -102.667 -26 -150s-43.666 -89 -78.999 -125c-29.333 -30 -62.166 -53 -98.499 -69s-74.166 -24 -113.499 -24h-1227
c-42.667 0 -83.167 7.16699 -121.5 21.5s-72.166 35.5 -101.499 63.5c-12 10.667 -24 23.834 -36 39.501s-22.833 34.167 -32.5 55.5s-17.667 45.666 -24 72.999s-9.5 58 -9.5 92c0 22 1.66699 45.833 5 71.5s7.5 51.334 12.5 77.001s10.5 50.667 16.5 75l16.5 65
c5 19 9.33301 34.667 13 47s5.83398 19.166 6.50098 20.499l117 -37l-4 -16l-12.5 -43c-5 -17.333 -10.167 -37.166 -15.5 -59.499s-10.5 -45.166 -15.5 -68.499s-9 -46.5 -12 -69.5s-4.5 -43.833 -4.5 -62.5c0 -41.333 6 -76 18 -104s27.5 -50.833 46.5 -68.5
s40.5 -30.334 64.5 -38.001s48.333 -11.5 73 -11.5h1227c46.667 0 88 18.667 124 56c23.333 23.333 41 52.333 53 87c11.333 32 17 67 17 105v6c-1.33301 48 -6.33301 98.833 -15 152.5s-18.334 104.834 -29.001 153.501zM1004 886.998l-124 -125l-124 123l125 126z
M1407 889.998l-124 -124l-126 124l125 125zM1209 1162l-124 -124l-126 124l125 125z" />
    <glyph glyph-name="uni062C" unicode="&#x62c;" horiz-adv-x="1449" arabic-form="isolated" 
d="M479 1084c14.667 -2 27.4971 -3.66309 38.4971 -4.99609s23.333 -3.5 37 -6.5s30.334 -7.5 50.001 -13.5s45.667 -15.167 78 -27.5l121 -48l179.5 -74.5l133 -57l113.5 -49.5l79.5 -34.5l30 -14l-4 -114c-0.666992 0 -15.5 -5.33301 -44.5 -16l-124 -46l-195 -72.5
l-256.5 -96.5l-94.5 -34.5c-32.333 -11.667 -64.5 -24.334 -96.5 -38.001s-63.5 -29 -94.5 -46s-60.167 -36.833 -87.5 -59.5c-45.333 -36 -77.666 -77 -96.999 -123c-17.333 -39.333 -26 -85 -26 -137c0 -8.66699 0.333008 -17.334 1 -26.001
c2 -46.667 11.833 -88.5 29.5 -125.5s41 -69.333 70 -97s62.667 -51.167 101 -70.5s78.666 -35 120.999 -47s85.833 -20.667 130.5 -26s88.334 -8 131.001 -8h438v-123h-438c-92 0 -179.667 10 -263 30s-157.333 50.333 -222 91s-116.667 91.667 -156 153
s-61 133.666 -65 216.999c-0.666992 10 -1 20 -1 30c0 148.667 56.333 268 169 358c29.333 24 60.5 45.167 93.5 63.5s66.833 35.166 101.5 50.499s69.834 29.666 105.501 42.999l106.5 40l153 55.5l144 49l125 41.5c38 12.667 70.667 24 98 34l-140 59.5l-145 59l-140 54
c-45.333 17 -87 31.667 -125 44s-71.167 22.166 -99.5 29.499s-49.833 11 -64.5 11c-42 0 -79.833 -16.667 -113.5 -50s-58.167 -79.666 -73.5 -138.999l-119 31c10 36.667 23.833 71.5 41.5 104.5s39.334 62.333 65.001 88s55.167 46.334 88.5 62.001
s70.666 24.5 111.999 26.5zM708.997 24.0039l114 115l118 -117l-116 -116z" />
    <glyph glyph-name="uni062D" unicode="&#x62d;" horiz-adv-x="1449" arabic-form="isolated" 
d="M479 1084c14.667 -2 27.4971 -3.66309 38.4971 -4.99609s23.333 -3.5 37 -6.5s30.334 -7.5 50.001 -13.5s45.667 -15.167 78 -27.5l121 -48l179.5 -74.5l133 -57l113.5 -49.5l79.5 -34.5l30 -14l-4 -114c-0.666992 0 -15.5 -5.33301 -44.5 -16l-124 -46l-195 -72.5
l-256.5 -96.5l-94.5 -34.5c-32.333 -11.667 -64.5 -24.334 -96.5 -38.001s-63.5 -29 -94.5 -46s-60.167 -36.833 -87.5 -59.5c-45.333 -36 -77.666 -77 -96.999 -123c-17.333 -39.333 -26 -85 -26 -137c0 -8.66699 0.333008 -17.334 1 -26.001
c2 -46.667 11.833 -88.5 29.5 -125.5s41 -69.333 70 -97s62.667 -51.167 101 -70.5s78.666 -35 120.999 -47s85.833 -20.667 130.5 -26s88.334 -8 131.001 -8h438v-123h-438c-92 0 -179.667 10 -263 30s-157.333 50.333 -222 91s-116.667 91.667 -156 153
s-61 133.666 -65 216.999c-0.666992 10 -1 20 -1 30c0 148.667 56.333 268 169 358c29.333 24 60.5 45.167 93.5 63.5s66.833 35.166 101.5 50.499s69.834 29.666 105.501 42.999l106.5 40l153 55.5l144 49l125 41.5c38 12.667 70.667 24 98 34l-140 59.5l-145 59l-140 54
c-45.333 17 -87 31.667 -125 44s-71.167 22.166 -99.5 29.499s-49.833 11 -64.5 11c-42 0 -79.833 -16.667 -113.5 -50s-58.167 -79.666 -73.5 -138.999l-119 31c10 36.667 23.833 71.5 41.5 104.5s39.334 62.333 65.001 88s55.167 46.334 88.5 62.001
s70.666 24.5 111.999 26.5z" />
    <glyph glyph-name="uni062E" unicode="&#x62e;" horiz-adv-x="1449" arabic-form="isolated" 
d="M479 1084c14.667 -2 27.4971 -3.66309 38.4971 -4.99609s23.333 -3.5 37 -6.5s30.334 -7.5 50.001 -13.5s45.667 -15.167 78 -27.5l121 -48l179.5 -74.5l133 -57l113.5 -49.5l79.5 -34.5l30 -14l-4 -114c-0.666992 0 -15.5 -5.33301 -44.5 -16l-124 -46l-195 -72.5
l-256.5 -96.5l-94.5 -34.5c-32.333 -11.667 -64.5 -24.334 -96.5 -38.001s-63.5 -29 -94.5 -46s-60.167 -36.833 -87.5 -59.5c-45.333 -36 -77.666 -77 -96.999 -123c-17.333 -39.333 -26 -85 -26 -137c0 -8.66699 0.333008 -17.334 1 -26.001
c2 -46.667 11.833 -88.5 29.5 -125.5s41 -69.333 70 -97s62.667 -51.167 101 -70.5s78.666 -35 120.999 -47s85.833 -20.667 130.5 -26s88.334 -8 131.001 -8h438v-123h-438c-92 0 -179.667 10 -263 30s-157.333 50.333 -222 91s-116.667 91.667 -156 153
s-61 133.666 -65 216.999c-0.666992 10 -1 20 -1 30c0 148.667 56.333 268 169 358c29.333 24 60.5 45.167 93.5 63.5s66.833 35.166 101.5 50.499s69.834 29.666 105.501 42.999l106.5 40l153 55.5l144 49l125 41.5c38 12.667 70.667 24 98 34l-140 59.5l-145 59l-140 54
c-45.333 17 -87 31.667 -125 44s-71.167 22.166 -99.5 29.499s-49.833 11 -64.5 11c-42 0 -79.833 -16.667 -113.5 -50s-58.167 -79.666 -73.5 -138.999l-119 31c10 36.667 23.833 71.5 41.5 104.5s39.334 62.333 65.001 88s55.167 46.334 88.5 62.001
s70.666 24.5 111.999 26.5zM373.997 1466l128 130l132 -132l-130 -130z" />
    <glyph glyph-name="uni062F" unicode="&#x62f;" horiz-adv-x="1064" arabic-form="isolated" 
d="M574 -8c-50.667 0 -102.001 4 -154.001 12s-100.667 19.5 -146 34.5s-85 32.5 -119 52.5l-53 31l63 106l53 -32c28 -16.667 61.333 -31 100 -43s79.334 -21.167 122.001 -27.5s86 -9.5 130 -9.5h12c38.667 0 75 3 109 9c44 7.33301 81 20.333 111 39s50.667 41.667 62 69
c6.66699 16.667 10 34.334 10 53.001c0 8.66699 -1.66699 22.5 -5 41.5s-15 43.5 -35 73.5l-132 198l-93 140.5l-61 92.5l-35.5 54l-17 25.5c-3 4.33301 -4.5 6.83301 -4.5 7.5l-33 52l104 66c5.33301 -9.33301 11.5 -19.166 18.5 -29.499l26.5 -40.5l41.5 -63.5l64 -97
l93.5 -141l130 -196.5c32 -48 51.667 -96.333 59 -145c2 -12.667 3 -25.334 3 -38.001c0 -34.667 -7 -68.334 -21 -101.001c-20 -47.333 -52.667 -86.5 -98 -117.5s-101 -52.167 -167 -63.5c-42 -8 -88 -12 -138 -12z" />
    <glyph glyph-name="uni0630" unicode="&#x630;" horiz-adv-x="1064" arabic-form="isolated" 
d="M574 -8c-50.667 0 -102.001 4 -154.001 12s-100.667 19.5 -146 34.5s-85 32.5 -119 52.5l-53 31l63 106l53 -32c28 -16.667 61.333 -31 100 -43s79.334 -21.167 122.001 -27.5s86 -9.5 130 -9.5h12c38.667 0 75 3 109 9c44 7.33301 81 20.333 111 39s50.667 41.667 62 69
c6.66699 16.667 10 34.334 10 53.001c0 8.66699 -1.66699 22.5 -5 41.5s-15 43.5 -35 73.5l-132 198l-93 140.5l-61 92.5l-35.5 54l-17 25.5c-3 4.33301 -4.5 6.83301 -4.5 7.5l-33 52l104 66c5.33301 -9.33301 11.5 -19.166 18.5 -29.499l26.5 -40.5l41.5 -63.5l64 -97
l93.5 -141l130 -196.5c32 -48 51.667 -96.333 59 -145c2 -12.667 3 -25.334 3 -38.001c0 -34.667 -7 -68.334 -21 -101.001c-20 -47.333 -52.667 -86.5 -98 -117.5s-101 -52.167 -167 -63.5c-42 -8 -88 -12 -138 -12zM382.999 1418l128 130l132 -132l-130 -130z" />
    <glyph glyph-name="uni0631" unicode="&#x631;" horiz-adv-x="826" arabic-form="isolated" 
d="M0 -553v122h139c156.667 0 271.334 41 344.001 123c66.667 76 100 189.667 100 341v642h123v-642c0 -193.333 -47.833 -339.333 -143.5 -438s-236.834 -148 -423.501 -148h-139z" />
    <glyph glyph-name="uni0632" unicode="&#x632;" horiz-adv-x="826" arabic-form="isolated" 
d="M0 -553v122h139c156.667 0 271.334 41 344.001 123c66.667 76 100 189.667 100 341v642h123v-642c0 -193.333 -47.833 -339.333 -143.5 -438s-236.834 -148 -423.501 -148h-139zM500 1109l128 130l132 -132l-130 -130z" />
    <glyph glyph-name="uni0633" unicode="&#x633;" horiz-adv-x="2736" arabic-form="isolated" 
d="M2527 802c0.666992 -2 3.33398 -10.999 8 -26.999l17 -61c6.66699 -24.667 13.667 -52.667 21 -84s14.166 -63.5 20.5 -96.5c6.33301 -33 11.666 -65.667 16 -98c4.33301 -32.333 6.5 -61.833 6.5 -88.5c0 -34 -3.16699 -64.833 -9.5 -92.5s-14.666 -52.167 -25 -73.5
c-10.333 -21.333 -21.666 -40 -34 -56c-12.333 -16 -24.5 -29.333 -36.5 -40c-29.333 -26.667 -62.666 -47.167 -99.999 -61.5s-77 -21.833 -119 -22.5v-1c-119.333 0 -212 33 -278 99c-5.33301 5.33301 -10.333 11 -15 17s-9.33398 12.333 -14.001 19
c-7.33301 -10.667 -15 -20.167 -23 -28.5s-15.667 -15.833 -23 -22.5c-30.667 -27.333 -65.5 -48.166 -104.5 -62.499s-80.167 -21.5 -123.5 -21.5c-108.667 0 -193.667 28.333 -255 85v-136c0 -150.667 -35.333 -266.667 -106 -348c-44 -51.333 -100.667 -89.333 -170 -114
c-71.333 -26.667 -158 -40 -260 -40h-239c-96 0 -183.167 21 -261.5 63s-141.833 101.667 -190.5 179c-16.667 26.667 -31.167 54.667 -43.5 84s-22.166 60.666 -29.499 93.999c-14 58 -21 119.333 -21 184c0 11.333 0.333008 22.333 1 33
c8 166.667 58.667 347.334 152 542.001l111 -53c-40.667 -84 -72.5 -165 -95.5 -243s-37.167 -151.667 -42.5 -221c-2 -23.333 -3 -46 -3 -68c0 -44 5 -90.833 15 -140.5s30 -98.5 60 -146.5c37.333 -58.667 86.166 -104 146.499 -136s127.5 -48 201.5 -48h239
c160.667 0 273 37 337 111c50.667 58.667 76 148 76 268v726h123v-220c0 -130.667 25.667 -221.667 77 -273c19.333 -20 43.5 -34.833 72.5 -44.5s64.167 -14.5 105.5 -14.5c24.667 0 49.5 4 74.5 12s47.833 20.667 68.5 38s37.5 40.166 50.5 68.499
s19.5 63.166 19.5 104.499v329h123v-329c0 -146.667 80 -221 240 -223v1c24 0 48.167 3.83301 72.5 11.5s46.333 20.334 66 38.001s35.834 40.667 48.5 69c12.667 28.333 19 63.166 19 104.499c0 24 -2 50.833 -6 80.5s-9.16699 60 -15.5 91s-13 61.167 -20 90.5
s-13.667 55.5 -20 78.5l-15.5 56c-4 14.333 -6 21.833 -6 22.5z" />
    <glyph glyph-name="uni0634" unicode="&#x634;" horiz-adv-x="2736" arabic-form="isolated" 
d="M2527 802c0.666992 -2 3.33398 -10.999 8 -26.999l17 -61c6.66699 -24.667 13.667 -52.667 21 -84s14.166 -63.5 20.5 -96.5c6.33301 -33 11.666 -65.667 16 -98c4.33301 -32.333 6.5 -61.833 6.5 -88.5c0 -34 -3.16699 -64.833 -9.5 -92.5s-14.666 -52.167 -25 -73.5
c-10.333 -21.333 -21.666 -40 -34 -56c-12.333 -16 -24.5 -29.333 -36.5 -40c-29.333 -26.667 -62.666 -47.167 -99.999 -61.5s-77 -21.833 -119 -22.5v-1c-119.333 0 -212 33 -278 99c-5.33301 5.33301 -10.333 11 -15 17s-9.33398 12.333 -14.001 19
c-7.33301 -10.667 -15 -20.167 -23 -28.5s-15.667 -15.833 -23 -22.5c-30.667 -27.333 -65.5 -48.166 -104.5 -62.499s-80.167 -21.5 -123.5 -21.5c-108.667 0 -193.667 28.333 -255 85v-136c0 -150.667 -35.333 -266.667 -106 -348c-44 -51.333 -100.667 -89.333 -170 -114
c-71.333 -26.667 -158 -40 -260 -40h-239c-96 0 -183.167 21 -261.5 63s-141.833 101.667 -190.5 179c-16.667 26.667 -31.167 54.667 -43.5 84s-22.166 60.666 -29.499 93.999c-14 58 -21 119.333 -21 184c0 11.333 0.333008 22.333 1 33
c8 166.667 58.667 347.334 152 542.001l111 -53c-40.667 -84 -72.5 -165 -95.5 -243s-37.167 -151.667 -42.5 -221c-2 -23.333 -3 -46 -3 -68c0 -44 5 -90.833 15 -140.5s30 -98.5 60 -146.5c37.333 -58.667 86.166 -104 146.499 -136s127.5 -48 201.5 -48h239
c160.667 0 273 37 337 111c50.667 58.667 76 148 76 268v726h123v-220c0 -130.667 25.667 -221.667 77 -273c19.333 -20 43.5 -34.833 72.5 -44.5s64.167 -14.5 105.5 -14.5c24.667 0 49.5 4 74.5 12s47.833 20.667 68.5 38s37.5 40.166 50.5 68.499
s19.5 63.166 19.5 104.499v329h123v-329c0 -146.667 80 -221 240 -223v1c24 0 48.167 3.83301 72.5 11.5s46.333 20.334 66 38.001s35.834 40.667 48.5 69c12.667 28.333 19 63.166 19 104.499c0 24 -2 50.833 -6 80.5s-9.16699 60 -15.5 91s-13 61.167 -20 90.5
s-13.667 55.5 -20 78.5l-15.5 56c-4 14.333 -6 21.833 -6 22.5zM1878 1109l-124 -125l-124 123l125 126zM2281 1112l-124 -124l-126 124l125 125zM2083 1384l-124 -124l-126 124l125 125z" />
    <glyph glyph-name="uni0635" unicode="&#x635;" horiz-adv-x="2793" arabic-form="isolated" 
d="M2292 854c39.333 0 75.666 -6.6709 109 -20.0039c33.333 -13.333 63.5 -31.5 90.5 -54.5s50.833 -49.833 71.5 -80.5s37.834 -63.667 51.5 -99c13.667 -35.333 24 -72 31 -110s10.5 -75.667 10.5 -113c0 -44.667 -4.83301 -84 -14.5 -118s-22 -63.667 -37 -89
s-31.833 -46.666 -50.5 -63.999s-37 -31.666 -55 -42.999c-22.667 -14 -45.5 -25.167 -68.5 -33.5s-44.833 -14.666 -65.5 -18.999s-39.5 -7.16602 -56.5 -8.49902s-30.5 -2 -40.5 -2h-572c-41.333 0 -80.333 5.66699 -117 17s-70 27.666 -100 48.999v-118
c0 -48.667 -4.66699 -96.5 -14 -143.5s-24.833 -90.833 -46.5 -131.5s-50.167 -77 -85.5 -109s-79 -57.333 -131 -76c-72 -25.333 -158.333 -38 -259 -38h-239c-97.333 0 -185.666 21.167 -264.999 63.5s-143.666 102.833 -192.999 181.5
c-36.667 58.667 -62 121.334 -76 188.001c-12.667 56 -19 113.667 -19 173c0 10.667 0.333008 21.334 1 32.001c3.33301 82.667 17.666 168.5 42.999 257.5s61 182.167 107 279.5l111 -53c-40 -83.333 -71.333 -163.666 -94 -240.999s-36.667 -150.333 -42 -219
c-2 -22 -3 -43.667 -3 -65c0 -44.667 5.16699 -91.834 15.5 -141.501s30.5 -98.167 60.5 -145.5c38 -60 87.667 -106.333 149 -139s129.666 -49 204.999 -49h239c72 0 134 6.66699 186 20s94.833 35 128.5 65s58.5 68.833 74.5 116.5s24 105.834 24 174.501v724h123v-356
c0 -45.333 10.333 -81.833 31 -109.5s46 -48.167 76 -61.5c26.667 40.667 52.5 82.334 77.5 125.001l77.5 127.5c26.667 42.333 54.5 84.166 83.5 125.499s60.833 81.666 95.5 120.999c62.667 71.333 124.5 124.166 185.5 158.499s123.167 51.5 186.5 51.5zM2268 122.996
c13.333 0 29.168 1.00195 47.502 3.00195c18.333 2 37.333 6 57 12s39 14.667 58 26s36.167 26.5 51.5 45.5s27.666 42.167 36.999 69.5s14 60 14 98c0 57.333 -7 108.166 -21 152.499s-32.5 81.5 -55.5 111.5s-48.833 52.667 -77.5 68s-57.667 23 -87 23
c-44.667 0 -90 -14 -136 -42s-94 -70.333 -144 -127c-23.333 -26.667 -46.333 -55.334 -69 -86.001s-45.834 -64.167 -69.501 -100.5l-74 -117.5l-82.5 -136h551z" />
    <glyph glyph-name="uni0636" unicode="&#x636;" horiz-adv-x="2793" arabic-form="isolated" 
d="M2292 854c39.333 0 75.666 -6.6709 109 -20.0039c33.333 -13.333 63.5 -31.5 90.5 -54.5s50.833 -49.833 71.5 -80.5s37.834 -63.667 51.5 -99c13.667 -35.333 24 -72 31 -110s10.5 -75.667 10.5 -113c0 -44.667 -4.83301 -84 -14.5 -118s-22 -63.667 -37 -89
s-31.833 -46.666 -50.5 -63.999s-37 -31.666 -55 -42.999c-22.667 -14 -45.5 -25.167 -68.5 -33.5s-44.833 -14.666 -65.5 -18.999s-39.5 -7.16602 -56.5 -8.49902s-30.5 -2 -40.5 -2h-572c-41.333 0 -80.333 5.66699 -117 17s-70 27.666 -100 48.999v-118
c0 -48.667 -4.66699 -96.5 -14 -143.5s-24.833 -90.833 -46.5 -131.5s-50.167 -77 -85.5 -109s-79 -57.333 -131 -76c-72 -25.333 -158.333 -38 -259 -38h-239c-97.333 0 -185.666 21.167 -264.999 63.5s-143.666 102.833 -192.999 181.5
c-36.667 58.667 -62 121.334 -76 188.001c-12.667 56 -19 113.667 -19 173c0 10.667 0.333008 21.334 1 32.001c3.33301 82.667 17.666 168.5 42.999 257.5s61 182.167 107 279.5l111 -53c-40 -83.333 -71.333 -163.666 -94 -240.999s-36.667 -150.333 -42 -219
c-2 -22 -3 -43.667 -3 -65c0 -44.667 5.16699 -91.834 15.5 -141.501s30.5 -98.167 60.5 -145.5c38 -60 87.667 -106.333 149 -139s129.666 -49 204.999 -49h239c72 0 134 6.66699 186 20s94.833 35 128.5 65s58.5 68.833 74.5 116.5s24 105.834 24 174.501v724h123v-356
c0 -45.333 10.333 -81.833 31 -109.5s46 -48.167 76 -61.5c26.667 40.667 52.5 82.334 77.5 125.001l77.5 127.5c26.667 42.333 54.5 84.166 83.5 125.499s60.833 81.666 95.5 120.999c62.667 71.333 124.5 124.166 185.5 158.499s123.167 51.5 186.5 51.5zM2268 122.996
c13.333 0 29.168 1.00195 47.502 3.00195c18.333 2 37.333 6 57 12s39 14.667 58 26s36.167 26.5 51.5 45.5s27.666 42.167 36.999 69.5s14 60 14 98c0 57.333 -7 108.166 -21 152.499s-32.5 81.5 -55.5 111.5s-48.833 52.667 -77.5 68s-57.667 23 -87 23
c-44.667 0 -90 -14 -136 -42s-94 -70.333 -144 -127c-23.333 -26.667 -46.333 -55.334 -69 -86.001s-45.834 -64.167 -69.501 -100.5l-74 -117.5l-82.5 -136h551zM2129 1229l128 130l132 -132l-130 -130z" />
    <glyph glyph-name="uni0637" unicode="&#x637;" horiz-adv-x="1525" arabic-form="isolated" 
d="M1297 718c54 -80 81 -193.335 81 -340.002c0 -44.667 -5.5 -84.167 -16.5 -118.5s-25 -64.333 -42 -90s-36 -47.167 -57 -64.5s-41.5 -31.666 -61.5 -42.999c-25.333 -14 -50.833 -25.167 -76.5 -33.5s-49.667 -14.666 -72 -18.999s-42 -7 -59 -8s-29.5 -1.5 -37.5 -1.5
h-867v123h236l45 73.5l47 80.5l24 42v1107h123v-907c16 24 32.5 47.333 49.5 70s34.5 44.667 52.5 66c115.333 136 234 204 356 204c60 0 113.167 -12 159.5 -36s84.833 -59 115.5 -105zM956 122.998c8 0 21.1689 0.666992 39.502 2s38.5 4.83301 60.5 10.5
s44.833 13.834 68.5 24.501s45.167 25.5 64.5 44.5s35.166 42.5 47.499 70.5s18.5 62.333 18.5 103c0 120.667 -20 211.667 -60 273c-38 56.667 -95.667 85 -173 85c-32.667 0 -64.667 -7.5 -96 -22.5s-61.833 -35.333 -91.5 -61s-58.334 -55.5 -86.001 -89.5
s-54.5 -70.333 -80.5 -109s-51.167 -78.334 -75.5 -119.001l-69.5 -119l-54 -93h487z" />
    <glyph glyph-name="uni0638" unicode="&#x638;" horiz-adv-x="1525" arabic-form="isolated" 
d="M1297 718c54 -80 81 -193.335 81 -340.002c0 -44.667 -5.5 -84.167 -16.5 -118.5s-25 -64.333 -42 -90s-36 -47.167 -57 -64.5s-41.5 -31.666 -61.5 -42.999c-25.333 -14 -50.833 -25.167 -76.5 -33.5s-49.667 -14.666 -72 -18.999s-42 -7 -59 -8s-29.5 -1.5 -37.5 -1.5
h-867v123h236l45 73.5l47 80.5l24 42v1107h123v-907c16 24 32.5 47.333 49.5 70s34.5 44.667 52.5 66c115.333 136 234 204 356 204c60 0 113.167 -12 159.5 -36s84.833 -59 115.5 -105zM956 122.998c8 0 21.1689 0.666992 39.502 2s38.5 4.83301 60.5 10.5
s44.833 13.834 68.5 24.501s45.167 25.5 64.5 44.5s35.166 42.5 47.499 70.5s18.5 62.333 18.5 103c0 120.667 -20 211.667 -60 273c-38 56.667 -95.667 85 -173 85c-32.667 0 -64.667 -7.5 -96 -22.5s-61.833 -35.333 -91.5 -61s-58.334 -55.5 -86.001 -89.5
s-54.5 -70.333 -80.5 -109s-51.167 -78.334 -75.5 -119.001l-69.5 -119l-54 -93h487zM911.002 1287l128 130l132 -132l-130 -130z" />
    <glyph glyph-name="uni0639" unicode="&#x639;" horiz-adv-x="1384" arabic-form="isolated" 
d="M615 361c-41.333 0 -85.499 -7.67188 -132.499 -23.0049s-90.833 -39.166 -131.5 -71.499s-74.334 -73.333 -101.001 -123s-40 -108.5 -40 -176.5c0 -50.667 7.16699 -95.5 21.5 -134.5s33.666 -73.167 57.999 -102.5s53 -54.166 86 -74.499s68.333 -36.666 106 -48.999
s76.667 -21.333 117 -27s80.166 -8.5 119.499 -8.5h475v-123h-475c-78.667 0 -155.667 9.83301 -231 29.5s-142.666 50.334 -201.999 92.001s-107.166 95.334 -143.499 161.001s-54.5 144.5 -54.5 236.5c0 74 15.667 144.833 47 212.5s76.333 126.167 135 175.5
c48.667 40.667 103.834 72.334 165.501 95.001s123.834 34 186.501 34l-26.5 19.5c-8.33301 6.33301 -16.5 13.166 -24.5 20.499c-23.333 20 -44.5 42.167 -63.5 66.5s-35.167 50 -48.5 77s-23.833 55.333 -31.5 85s-11.5 59.5 -11.5 89.5c0 51.333 11.167 100 33.5 146
s51.833 86.5 88.5 121.5s78.667 62.667 126 83s96.333 30.5 147 30.5c31.333 0 61.5 -3.5 90.5 -10.5s58.833 -17 89.5 -30s62.5 -28.5 95.5 -46.5l108.5 -61l-61 -107l-83.5 46.5c-28.333 15.667 -56.333 29.834 -84 42.501s-54.834 23 -81.501 31s-51.334 12 -74.001 12
c-32 0 -64.167 -6.5 -96.5 -19.5s-61.5 -31 -87.5 -54s-47.167 -50.333 -63.5 -82s-24.5 -65.834 -24.5 -102.501c0 -40 9.83301 -79.833 29.5 -119.5s47.5 -75.167 83.5 -106.5c44.667 -39.333 100 -70 166 -92s141 -35.333 225 -40l190 -1v-123l-194 1h-423z" />
    <glyph glyph-name="uni063A" unicode="&#x63a;" horiz-adv-x="1384" arabic-form="isolated" 
d="M615 361c-41.333 0 -85.499 -7.67188 -132.499 -23.0049s-90.833 -39.166 -131.5 -71.499s-74.334 -73.333 -101.001 -123s-40 -108.5 -40 -176.5c0 -50.667 7.16699 -95.5 21.5 -134.5s33.666 -73.167 57.999 -102.5s53 -54.166 86 -74.499s68.333 -36.666 106 -48.999
s76.667 -21.333 117 -27s80.166 -8.5 119.499 -8.5h475v-123h-475c-78.667 0 -155.667 9.83301 -231 29.5s-142.666 50.334 -201.999 92.001s-107.166 95.334 -143.499 161.001s-54.5 144.5 -54.5 236.5c0 74 15.667 144.833 47 212.5s76.333 126.167 135 175.5
c48.667 40.667 103.834 72.334 165.501 95.001s123.834 34 186.501 34l-26.5 19.5c-8.33301 6.33301 -16.5 13.166 -24.5 20.499c-23.333 20 -44.5 42.167 -63.5 66.5s-35.167 50 -48.5 77s-23.833 55.333 -31.5 85s-11.5 59.5 -11.5 89.5c0 51.333 11.167 100 33.5 146
s51.833 86.5 88.5 121.5s78.667 62.667 126 83s96.333 30.5 147 30.5c31.333 0 61.5 -3.5 90.5 -10.5s58.833 -17 89.5 -30s62.5 -28.5 95.5 -46.5l108.5 -61l-61 -107l-83.5 46.5c-28.333 15.667 -56.333 29.834 -84 42.501s-54.834 23 -81.501 31s-51.334 12 -74.001 12
c-32 0 -64.167 -6.5 -96.5 -19.5s-61.5 -31 -87.5 -54s-47.167 -50.333 -63.5 -82s-24.5 -65.834 -24.5 -102.501c0 -40 9.83301 -79.833 29.5 -119.5s47.5 -75.167 83.5 -106.5c44.667 -39.333 100 -70 166 -92s141 -35.333 225 -40l190 -1v-123l-194 1h-423zM703.001 1590
l128 130l132 -132l-130 -130z" />
    <glyph glyph-name="uni0641" unicode="&#x641;" horiz-adv-x="2127" arabic-form="isolated" 
d="M1462 123c58.667 3.33301 112.332 7.49414 160.999 12.4941s91.167 15.5 127.5 31.5s66.166 39.667 89.499 71s39 75.333 47 132c-28 -4.66699 -61.333 -9.16699 -100 -13.5s-78 -6.5 -118 -6.5c-62.667 0 -119.667 6.83301 -171 20.5s-95.333 34.834 -132 63.501
s-65 65 -85 109s-30 96.333 -30 157c0 52.667 8.83301 102.834 26.5 150.501s42.5 89.334 74.5 125.001s70.667 63.834 116 84.501c42.667 18.667 89.667 28 141 28h10c56.667 -0.666992 105.667 -10.334 147 -29.001s76.666 -43.834 105.999 -75.501
s53.333 -68.5 72 -110.5s33.167 -86.667 43.5 -134s17.5 -96.166 21.5 -146.499s6 -99.166 6 -146.499c0 -87.333 -13.167 -159.666 -39.5 -216.999s-63.666 -103 -111.999 -137s-106.5 -57.833 -174.5 -71.5s-143.667 -20.5 -227 -20.5h-1006
c-42.667 0 -83.167 7.16699 -121.5 21.5s-72.166 35.5 -101.499 63.5c-12 10.667 -24 23.834 -36 39.501s-22.833 34.167 -32.5 55.5s-17.667 45.666 -24 72.999s-9.5 58 -9.5 92c0 22 1.66699 45.833 5 71.5s7.5 51.334 12.5 77.001s10.5 50.667 16.5 75l16.5 65
c5 19 9.33301 34.667 13 47s5.83398 19.166 6.50098 20.499l117 -37l-4 -16l-12.5 -43c-5 -17.333 -10.167 -37.166 -15.5 -59.499s-10.5 -45.166 -15.5 -68.499s-9 -46.5 -12 -69.5s-4.5 -43.833 -4.5 -62.5c0 -41.333 6 -76 18 -104s27.5 -50.833 46.5 -68.5
s40.5 -30.334 64.5 -38.001s48.333 -11.5 73 -11.5h1006zM1669 472.994c20.667 0 41.5029 0.669922 62.5029 2.00293s41.167 3.16602 60.5 5.49902s37.666 4.83301 54.999 7.5l45 7c-0.666992 29.333 -2.33398 61.166 -5.00098 95.499s-7.33398 69 -14.001 104
s-16.167 68.667 -28.5 101s-28.5 61.166 -48.5 86.499s-44.5 45.5 -73.5 60.5s-63.5 22.5 -103.5 22.5c-42 0 -78.5 -7.66699 -109.5 -23s-56.5 -35.333 -76.5 -60s-34.833 -53 -44.5 -85s-14.5 -64.333 -14.5 -97c0 -45.333 7.5 -82.5 22.5 -111.5s35.833 -52 62.5 -69
s58 -29 94 -36s74.667 -10.5 116 -10.5zM1474 1470l128 130l132 -132l-130 -130z" />
    <glyph glyph-name="uni0642" unicode="&#x642;" horiz-adv-x="1620" arabic-form="isolated" 
d="M1060 856c120.667 0 213.667 -38.667 279 -116c72 -84.667 108 -218 108 -400v-390c0 -151.333 -35 -267.333 -105 -348c-22 -25.333 -47.167 -47.5 -75.5 -66.5s-59.833 -34.833 -94.5 -47.5c-71.333 -26.667 -158 -40 -260 -40h-235c-96 0 -183.333 21.167 -262 63.5
s-142.667 102.5 -192 180.5c-34 54 -59 114.667 -75 182c-13.333 56 -20 115 -20 177c0 12.667 0.333008 25.667 1 39c3.33301 82.667 17.833 166.667 43.5 252s61.834 176.666 108.501 273.999l111 -53c-40 -83.333 -71.5 -163.166 -94.5 -239.499
s-37.167 -148.5 -42.5 -216.5c-1.33301 -20.667 -2 -41 -2 -61c0 -45.333 4.83301 -93 14.5 -143s29.5 -98.667 59.5 -146c38 -59.333 87.167 -105.166 147.5 -137.499s127.833 -48.5 202.5 -48.5h235c160.667 0 273 37 337 111c50 58 75 147 75 267v51h-258
c-50 0 -98.833 6.66699 -146.5 20s-90 35.333 -127 66s-66.667 70.667 -89 120s-33.5 109.666 -33.5 180.999c0 58.667 7 116 21 172s36.5 106 67.5 150s71.167 79.5 120.5 106.5s109.666 40.5 180.999 40.5zM1324 123l0.000976562 217.001
c0 75.333 -6.5 139.833 -19.5 193.5s-32.833 96.167 -59.5 127.5c-21.333 24.667 -46.833 42.834 -76.5 54.501s-65.834 17.5 -108.501 17.5c-42 0 -79.5 -7.83301 -112.5 -23.5s-61 -38.334 -84 -68.001s-40.5 -66 -52.5 -109s-18 -91.5 -18 -145.5
c0 -44.667 6.5 -82.167 19.5 -112.5s29.333 -55.333 49 -75s41 -34.667 64 -45s44.667 -17.833 65 -22.5s37.5 -7.33398 51.5 -8.00098s22 -1 24 -1h258zM1288 1106l-124 125l61.5 62.5l60.5 61.5l126 -125zM882.001 1108l-124 125l61.5 62.5l60.5 61.5l126 -125z" />
    <glyph glyph-name="uni0643" unicode="&#x643;" horiz-adv-x="2057" arabic-form="isolated" 
d="M1123 975c-60 -36 -106.003 -69.0029 -138.003 -99.0029c-18 -17.333 -31 -32.666 -39 -45.999c-5.33301 -9.33301 -8 -17.333 -8 -24c0 -4 0.666992 -7.33301 2 -10c1.33301 -5.33301 7.33301 -8.66602 18 -9.99902c8 -1.33301 16.667 -2 26 -2h17.5
c8.33301 0 18.666 0.666992 30.999 2s20.5 2.33301 24.5 3c19.333 1.33301 38 2.33301 56 3h18c11.333 0 23.333 -0.333008 36 -1c22.667 -3.33301 41.334 -9.83301 56.001 -19.5s25.667 -21.167 33 -34.5c6 -12 9 -25.333 9 -40c0 -1.33301 -0.333008 -6.33301 -1 -15
s-5.66699 -20.667 -15 -36c-11.333 -19.333 -29.166 -36.833 -53.499 -52.5s-51.666 -29.5 -81.999 -41.5s-62.5 -22.5 -96.5 -31.5s-66.667 -16.5 -98 -22.5l-15 81c42.667 10 81.167 19.667 115.5 29s63.5 18.833 87.5 28.5s42.333 19.667 55 30s19 21.5 19 33.5
c-2 6 -8.33301 10 -19 12c-7.33301 0.666992 -15 1 -23 1c-4 0 -10.333 -0.166992 -19 -0.5s-19.167 -1.16602 -31.5 -2.49902s-20.833 -2.33301 -25.5 -3c-17.333 -1.33301 -34.666 -2.33301 -51.999 -3h-18c-12 0 -23.667 0.333008 -35 1
c-36 4.66699 -61.667 15.667 -77 33s-23 37.666 -23 60.999c0 22.667 6.5 46.334 19.5 71.001s30.167 46.667 51.5 66c18.667 17.333 40.5 35 65.5 53s54.167 36.667 87.5 56zM1902 361.997c0 -108 -31.002 -192.003 -93.002 -252.003c-75.333 -73.333 -196 -110 -362 -110
h-991c-42.667 0 -83.167 7.16699 -121.5 21.5s-72.166 35.5 -101.499 63.5c-12 10.667 -24 23.834 -36 39.501s-22.833 34.167 -32.5 55.5s-17.667 45.666 -24 72.999s-9.5 58 -9.5 92c0 22 1.66699 45.833 5 71.5s7.5 51.334 12.5 77.001s10.5 50.667 16.5 75l16.5 65
c5 19 9.33301 34.667 13 47s5.83398 19.166 6.50098 20.499l117 -37l-4 -16l-12.5 -43c-5 -17.333 -10.167 -37.166 -15.5 -59.499s-10.5 -45.166 -15.5 -68.499s-9 -46.5 -12 -69.5s-4.5 -43.833 -4.5 -62.5c0 -41.333 6 -76 18 -104s27.5 -50.833 46.5 -68.5
s40.5 -30.334 64.5 -38.001s48.333 -11.5 73 -11.5h991c73.333 0 131.833 6.83301 175.5 20.5s77.167 31.834 100.5 54.501s38.5 48.334 45.5 77.001s10.5 57.667 10.5 87l1 1065h123z" />
    <glyph glyph-name="uni0644" unicode="&#x644;" horiz-adv-x="1335" arabic-form="isolated" 
d="M1183 -48c0 -76.667 -8.50098 -143.499 -25.501 -200.499s-43.5 -106.5 -79.5 -148.5c-26.667 -30 -56.167 -54.833 -88.5 -74.5s-66.666 -35.5 -102.999 -47.5s-74.666 -20.333 -114.999 -25s-81.5 -7 -123.5 -7h-72c-83.333 0 -159.5 18.5 -228.5 55.5
s-124.833 89.833 -167.5 158.5c-29.333 46 -50.666 97.667 -63.999 155c-12 48 -18 98.667 -18 152c0 10 0.333008 20.333 1 31c2.66699 70 14.5 143 35.5 219s51.167 155 90.5 237l111 -53c-66.667 -140 -104.334 -267.667 -113.001 -383c-1.33301 -18 -2 -35.667 -2 -53
c0 -92.667 21 -172.667 63 -240c31.333 -50 72.333 -88.5 123 -115.5s107 -40.5 169 -40.5h72c81.333 0 149.666 9.16699 204.999 27.5s99 46.166 131 83.499c26 30 45.167 67 57.5 111s18.5 96.667 18.5 158v1475h123v-1475z" />
    <glyph glyph-name="uni0645" unicode="&#x645;" horiz-adv-x="1352" arabic-form="isolated" 
d="M120 373l112.997 70.001c16 -9.33301 44.5 -25 85.5 -47l146.5 -77c16.667 86.667 33.834 159.5 51.501 218.5s38.167 109.167 61.5 150.5c33.333 60 74.333 105.833 123 137.5s107.334 47.5 176.001 47.5c59.333 0 112 -14.5 158 -43.5s84.833 -66.333 116.5 -112
s55.667 -96.667 72 -153s24.5 -111.833 24.5 -166.5c0 -74.667 -9.16699 -137.834 -27.5 -189.501s-42.166 -93.5 -71.499 -125.5s-62.5 -55 -99.5 -69s-74.5 -21 -112.5 -21c-6 0 -13.667 0.5 -23 1.5s-21.166 3.5 -35.499 7.5s-31.833 9.5 -52.5 16.5
s-45.334 16.5 -74.001 28.5c-20 8 -44.167 18.5 -72.5 31.5l-90.5 42.5l-99 48l-97.5 49l-85.5 44.5l-64 34.5v-1056h-123v1132zM579.997 262.001c70.667 -34.667 128.499 -61.8301 173.499 -81.4971s80.667 -34.334 107 -44.001s45 -15.667 56 -18s17.833 -3.5 20.5 -3.5
c34.667 0 64 7.83301 88 23.5s43.5 36.5 58.5 62.5s25.667 56 32 90s9.5 69.667 9.5 107c0 42 -5.66699 84.167 -17 126.5s-27.666 80.166 -48.999 113.499s-47.333 60.5 -78 81.5s-65.334 31.5 -104.001 31.5c-39.333 0 -73.833 -8.33301 -103.5 -25
s-56.167 -44.334 -79.5 -83.001s-44.166 -89.167 -62.499 -151.5s-35.5 -138.833 -51.5 -229.5z" />
    <glyph glyph-name="uni0646" unicode="&#x646;" horiz-adv-x="1600" arabic-form="isolated" 
d="M1447 676l-0.000976562 -726.001c0 -151.333 -35 -267.333 -105 -348c-22 -25.333 -47.167 -47.5 -75.5 -66.5s-59.833 -34.833 -94.5 -47.5c-71.333 -26.667 -158 -40 -260 -40h-235c-96 0 -183.333 21.167 -262 63.5s-142.667 102.5 -192 180.5
c-34 54 -59 114.667 -75 182c-13.333 56 -20 115 -20 177c0 12.667 0.333008 25.667 1 39c3.33301 82.667 17.833 166.667 43.5 252s61.834 176.666 108.501 273.999l111 -53c-40 -83.333 -71.5 -163.166 -94.5 -239.499s-37.167 -148.5 -42.5 -216.5
c-1.33301 -20.667 -2 -41 -2 -61c0 -45.333 4.83301 -93 14.5 -143s29.5 -98.667 59.5 -146c38 -59.333 87.167 -105.166 147.5 -137.499s127.833 -48.5 202.5 -48.5h235c160.667 0 273 37 337 111c50 58 75 147.333 75 268v726h123zM731.999 754.999l128 130l132 -132
l-130 -130z" />
    <glyph glyph-name="uni0647" unicode="&#x647;" horiz-adv-x="1042" arabic-form="isolated" 
d="M523 0c-56.667 0 -109.834 9.16797 -159.501 27.501s-93 43.5 -130 75.5s-66.333 69.5 -88 112.5s-32.5 88.833 -32.5 137.5c0 46.667 6.33301 89.667 19 129s28.5 75.5 47.5 108.5s39.5 63 61.5 90l60 73.5l33 38l36 39.5l35.5 37l31.5 32.5l-78 87l90 82
c0.666992 0 8.83398 -8.5 24.501 -25.5l60 -65.5l80.5 -89l85 -97c33.333 -38 64.333 -75 93 -111s53.5 -71.667 74.5 -107s37.5 -70.833 49.5 -106.5s18 -72.834 18 -111.501c0 -50 -10.833 -97.167 -32.5 -141.5s-53.167 -83.5 -94.5 -117.5
c-38 -32 -81.333 -56.333 -130 -73s-100 -25 -154 -25zM520 810.001l-30 -30.499l-32.5 -34l-32 -35l-28.5 -33.5l-52.5 -63.5c-19 -23 -36.5 -48 -52.5 -75s-29.333 -56 -40 -87s-16 -63.833 -16 -98.5c0 -30 7 -58.833 21 -86.5s34 -52.167 60 -73.5
c28 -22.667 59.833 -40 95.5 -52s72.5 -18 110.5 -18c40 0 77.5 6.16699 112.5 18.5s65.5 29 91.5 50s46.5 45.833 61.5 74.5s22.5 59 22.5 91c0 25.333 -4.33301 50.833 -13 76.5s-21.5 52.667 -38.5 81s-38.333 58.666 -64 90.999l-89.5 107.5z" />
    <glyph glyph-name="uni0648" unicode="&#x648;" horiz-adv-x="1024" arabic-form="isolated" 
d="M777 123l-0.000976562 249.002c-1.33301 52.667 -6.16602 101.5 -14.499 146.5s-22.5 84 -42.5 117s-46.667 58.667 -80 77s-76 27.5 -128 27.5c-51.333 0 -94 -9.33301 -128 -28s-61.167 -44.5 -81.5 -77.5s-34.666 -72 -42.999 -117s-12.5 -93.5 -12.5 -145.5
c0 -46 8 -84.833 24 -116.5s38.333 -57.334 67 -77.001s62.167 -33.834 100.5 -42.501s80.166 -13 125.499 -13h213zM511.999 863.002c68.667 -2.66699 127.668 -16.334 177.001 -41.001s89.5 -58.5 120.5 -101.5s53.833 -94 68.5 -153s22 -124.167 22 -195.5v-389
c0 -88 -15.167 -165.667 -45.5 -233s-74.5 -123.666 -132.5 -168.999s-127.167 -78.833 -207.5 -100.5s-168.166 -32.5 -263.499 -32.5h-57v123h57c80.667 2 153.167 10 217.5 24s119.166 37.333 164.499 70s80.333 76.167 105 130.5s37.667 122.5 39 204.5h-228
c-56 0 -109.667 7.33301 -161 22s-96.833 37.5 -136.5 68.5s-70.834 70 -93.501 117s-34 101.833 -34 164.5c0 70.667 7.16699 135.5 21.5 194.5s37 110 68 153s71 77 120 102s108.5 38.833 178.5 41.5z" />
    <glyph glyph-name="uni0649" unicode="&#x649;" horiz-adv-x="1671" arabic-form="isolated" 
d="M1356 871c32.667 0 65.499 -2.33594 98.499 -7.00293s66.5 -12 100.5 -22l-34 -118c-56 16 -110.667 24 -164 24c-64.667 0 -125.5 -11 -182.5 -33s-107.5 -54.667 -151.5 -98c-52 -50.667 -88.333 -110.334 -109 -179.001c-13.333 -42 -20 -85 -20 -129
c0 -27.333 2.66699 -55 8 -83c10.667 -3.33301 27.834 -8.16602 51.501 -14.499l81.5 -21.5l97.5 -26l100 -27l88.5 -24c26.667 -7.33301 48 -13 64 -17c26.667 -7.33301 47.834 -16 63.501 -26s27.167 -21 34.5 -33s12 -25 14 -39s3 -28.667 3 -44
c0 -22.667 -1.66699 -48.667 -5 -78s-8.83301 -59.5 -16.5 -90.5s-18 -61.333 -31 -91s-29.167 -56.167 -48.5 -79.5c-26.667 -32.667 -55.834 -59.667 -87.501 -81s-65.667 -38.333 -102 -51s-74.666 -21.5 -114.999 -26.5s-82.833 -7.5 -127.5 -7.5h-255
c-44.667 0 -88.667 5.33301 -132 16s-85 26.834 -125 48.501s-76.833 48 -110.5 79s-63.167 66.5 -88.5 106.5c-36.667 58.667 -62.334 121.334 -77.001 188.001c-12.667 54.667 -19 110.667 -19 168c0 12.667 0.333008 25.334 1 38.001c6 164.667 55.333 343 148 535
l111 -53c-40 -82.667 -71.167 -162.5 -93.5 -239.5s-35.833 -149.833 -40.5 -218.5c-1.33301 -20.667 -2 -40.667 -2 -60c0 -46 5.16699 -94.333 15.5 -145s30.5 -100 60.5 -148c38.667 -61.333 89.167 -108.666 151.5 -141.999s131.833 -50 208.5 -50h247
c82 0 149.333 9.66699 202 29s96 47.666 130 84.999c16.667 18 30.5 38.833 41.5 62.5s19.667 48.334 26 74.001s10.5 51.5 12.5 77.5c0.666992 10 1 20 1 30c0 14 -0.666992 27.667 -2 41l-579 156l-9 34c-12.667 47.333 -19 95 -19 143v42c0 26 6.33301 62.333 19 109
s31.334 91.167 56.001 133.5s55 81.166 91 116.499c27.333 26.667 57.166 50.5 89.499 71.5s66.5 38.5 102.5 52.5s73.333 24.667 112 32c34.667 6.66699 69.667 10 105 10h10z" />
    <glyph glyph-name="uni064A" unicode="&#x64a;" horiz-adv-x="1671" arabic-form="isolated" 
d="M1356 871c32.667 0 65.499 -2.33594 98.499 -7.00293s66.5 -12 100.5 -22l-34 -118c-56 16 -110.667 24 -164 24c-64.667 0 -125.5 -11 -182.5 -33s-107.5 -54.667 -151.5 -98c-52 -50.667 -88.333 -110.334 -109 -179.001c-13.333 -42 -20 -85 -20 -129
c0 -27.333 2.66699 -55 8 -83c10.667 -3.33301 27.834 -8.16602 51.501 -14.499l81.5 -21.5l97.5 -26l100 -27l88.5 -24c26.667 -7.33301 48 -13 64 -17c26.667 -7.33301 47.834 -16 63.501 -26s27.167 -21 34.5 -33s12 -25 14 -39s3 -28.667 3 -44
c0 -22.667 -1.66699 -48.667 -5 -78s-8.83301 -59.5 -16.5 -90.5s-18 -61.333 -31 -91s-29.167 -56.167 -48.5 -79.5c-26.667 -32.667 -55.834 -59.667 -87.501 -81s-65.667 -38.333 -102 -51s-74.666 -21.5 -114.999 -26.5s-82.833 -7.5 -127.5 -7.5h-255
c-44.667 0 -88.667 5.33301 -132 16s-85 26.834 -125 48.501s-76.833 48 -110.5 79s-63.167 66.5 -88.5 106.5c-36.667 58.667 -62.334 121.334 -77.001 188.001c-12.667 54.667 -19 110.667 -19 168c0 12.667 0.333008 25.334 1 38.001c6 164.667 55.333 343 148 535
l111 -53c-40 -82.667 -71.167 -162.5 -93.5 -239.5s-35.833 -149.833 -40.5 -218.5c-1.33301 -20.667 -2 -40.667 -2 -60c0 -46 5.16699 -94.333 15.5 -145s30.5 -100 60.5 -148c38.667 -61.333 89.167 -108.666 151.5 -141.999s131.833 -50 208.5 -50h247
c82 0 149.333 9.66699 202 29s96 47.666 130 84.999c16.667 18 30.5 38.833 41.5 62.5s19.667 48.334 26 74.001s10.5 51.5 12.5 77.5c0.666992 10 1 20 1 30c0 14 -0.666992 27.667 -2 41l-579 156l-9 34c-12.667 47.333 -19 95 -19 143v42c0 26 6.33301 62.333 19 109
s31.334 91.167 56.001 133.5s55 81.166 91 116.499c27.333 26.667 57.166 50.5 89.499 71.5s66.5 38.5 102.5 52.5s73.333 24.667 112 32c34.667 6.66699 69.667 10 105 10h10zM1044 -937.003l-124 125l122 124l126 -125zM635.999 -935.003l-124 125l122 124l126 -125z" />
    <glyph glyph-name="uni066E.init" unicode="&#x66e;" horiz-adv-x="671" 
d="M493 804l21.999 -94.999c8 -34.667 15.167 -70.5 21.5 -107.5s11.833 -74.5 16.5 -112.5s7.66699 -74.333 9 -109v-6c0 -45.333 -7 -90.333 -21 -135s-34.667 -84.834 -62 -120.501s-60.833 -64.334 -100.5 -86.001s-84.167 -32.5 -133.5 -32.5h-260v123h260
c32 2 60.167 10.333 84.5 25s44.666 33.834 60.999 57.501s28.833 50.5 37.5 80.5c7.33301 27.333 11 55.333 11 84v7c-0.666992 32 -3.16699 65.333 -7.5 100s-9.66602 69 -15.999 103s-13.166 67 -20.499 99l-21 89z" />
    <glyph glyph-name="uni066E.medi" unicode="&#x66e;" horiz-adv-x="820" 
d="M835 123l-0.00195312 -123h-70c-44.667 0 -87 6.66699 -127 20s-75 32.333 -105 57c-18 14.667 -33 30 -45 46c-34 -42.667 -76.667 -73.667 -128 -93s-113.666 -29.333 -186.999 -30h-188v123h188c39.333 1.33301 74.333 5 105 11s56.667 16.333 78 31
s37.833 34.167 49.5 58.5s18.167 55.5 19.5 93.5v359h123v-359c0 -36 6.66699 -66.333 20 -91s30.333 -44.667 51 -60s43.834 -26.333 69.501 -33s51.167 -10 76.5 -10h70z" />
    <glyph glyph-name="uni066E.fina" unicode="&#x66e;" horiz-adv-x="2241" 
d="M2261 123l0.00292969 -122.999h-44c-45.333 0 -87.833 6.5 -127.5 19.5s-74.834 32.167 -105.501 57.5c-8.66699 6.66699 -16.667 13.834 -24 21.501s-14.333 15.5 -21 23.5c-2.66699 -3.33301 -5.33398 -6.5 -8.00098 -9.5s-5.33398 -6.16699 -8.00098 -9.5
c-64.667 -67.333 -162 -101.666 -292 -102.999h-1170c-42.667 0 -83 7.16699 -121 21.5s-71.667 35.166 -101 62.499c-12 10.667 -24 24 -36 40s-23 34.667 -33 56s-18.167 45.666 -24.5 72.999s-9.5 58 -9.5 92c0 22 1.66699 45.833 5 71.5s7.5 51.334 12.5 77.001
s10.5 50.667 16.5 75l16.5 65c5 19 9.33301 34.5 13 46.5s5.83398 18.667 6.50098 20l117 -37c0 -0.666992 -3.33301 -12.334 -10 -35.001s-14 -50.334 -22 -83.001s-15.333 -67.167 -22 -103.5s-10 -68.5 -10 -96.5c0 -41.333 6 -76 18 -104s27.667 -50.833 47 -68.5
s41.166 -30.334 65.499 -38.001s48.833 -11.5 73.5 -11.5h1162c98.667 0 168 21.333 208 64c28.667 30.667 43 73.667 43 129v342h123v-342c0 -36 6.66699 -66.167 20 -90.5s30.5 -44.166 51.5 -59.499s44.333 -26.333 70 -33s51.167 -10 76.5 -10h44z" />
    <glyph glyph-name="uni066F.init" unicode="&#x66f;" horiz-adv-x="1036" 
d="M575 473c20.667 0 41.5029 0.669922 62.5029 2.00293s41.167 3.16602 60.5 5.49902s37.666 4.83301 54.999 7.5l45 7c-0.666992 29.333 -2.33398 61.166 -5.00098 95.499s-7.33398 69 -14.001 104s-16.167 68.667 -28.5 101s-28.5 61.166 -48.5 86.499
s-44.5 45.5 -73.5 60.5s-63.5 22.5 -103.5 22.5c-42 0 -78.5 -7.66699 -109.5 -23s-56.5 -35.333 -76.5 -60s-34.833 -53 -44.5 -85s-14.5 -64.333 -14.5 -97c0 -45.333 7.5 -82.5 22.5 -111.5s35.833 -52 62.5 -69s58 -29 94 -36s74.667 -10.5 116 -10.5zM525.003 1088
c56 -0.666992 104.832 -10.3389 146.499 -29.0059s77.167 -43.834 106.5 -75.501s53.333 -68.5 72 -110.5s33.167 -86.667 43.5 -134s17.5 -96.166 21.5 -146.499s6 -99.166 6 -146.499c0 -87.333 -13.167 -159.666 -39.5 -216.999s-63.666 -103 -111.999 -137
s-106.5 -57.833 -174.5 -71.5s-143.667 -20.5 -227 -20.5h-387v123h387c58.667 3.33301 112.334 7.5 161.001 12.5s91.167 15.5 127.5 31.5s66.166 39.667 89.499 71s39 75.333 47 132c-28 -4.66699 -61.333 -9.16699 -100 -13.5s-78 -6.5 -118 -6.5
c-62.667 0 -119.667 6.83301 -171 20.5s-95.333 34.834 -132 63.501s-65 65 -85 109s-30 96.333 -30 157c0 52.667 8.83301 102.834 26.5 150.501s42.5 89.334 74.5 125.001s70.667 63.834 116 84.501c42.667 18.667 89.667 28 141 28h10z" />
    <glyph glyph-name="uni066F.medi" unicode="&#x66f;" horiz-adv-x="1084" 
d="M567 200c14 5.33301 27.4971 11 40.4971 17s25.5 12.667 37.5 20c20 11.333 40.333 24.833 61 40.5s39.5 33.5 56.5 53.5s30.833 42.667 41.5 68s16 53 16 83c0 32 -5.66699 63.667 -17 95s-27.666 59.333 -48.999 84s-47.166 44.667 -77.499 60s-64.833 23 -103.5 23
c-40.667 0 -77.334 -6.16699 -110.001 -18.5s-60.667 -30 -84 -53s-41.333 -50.5 -54 -82.5s-19 -68 -19 -108c0 -32 6.16699 -61 18.5 -87s28.333 -49.667 48 -71s41.334 -40 65.001 -56s47.167 -30 70.5 -42c9.33301 -4.66699 18.833 -9.16699 28.5 -13.5
s19.834 -8.5 30.501 -12.5zM581.997 867c48.667 0 95.002 -10.166 139.002 -30.499s82.5 -48.5 115.5 -84.5s59 -77.5 78 -124.5s28.5 -95.5 28.5 -145.5c0 -65.333 -17.5 -126.333 -52.5 -183s-85.833 -106.667 -152.5 -150c86.667 -17.333 176.667 -26 270 -26h99v-123
h-99c-80 0 -157.333 5.83301 -232 17.5s-144.334 28.834 -209.001 51.501c-66 -22.667 -138.167 -39.834 -216.5 -51.501s-162.5 -17.5 -252.5 -17.5h-123v123h123c106.667 0 205.334 8.66699 296.001 26c-30 18.667 -58 40 -84 64s-48.333 50 -67 78s-33.334 58 -44.001 90
s-16 65.667 -16 101c0 56 9.66699 107.833 29 155.5s46.166 88.667 80.499 123s75.5 61.166 123.5 80.499c44 17.333 92.667 26 146 26h20z" />
    <glyph glyph-name="uni066F.fina" unicode="&#x66f;" horiz-adv-x="1652" 
d="M1068 856c120.667 0 213.667 -38.667 279 -116c72 -84.667 108 -218 108 -400v-217h224v-123h-224v-50c0 -151.333 -35 -267.333 -105 -348c-22 -25.333 -47.167 -47.5 -75.5 -66.5s-59.833 -34.833 -94.5 -47.5c-71.333 -26.667 -158 -40 -260 -40h-235
c-96 0 -183.333 21.167 -262 63.5s-142.667 102.5 -192 180.5c-34 54 -59 114.667 -75 182c-13.333 56 -20 115 -20 177c0 12.667 0.333008 25.667 1 39c3.33301 82.667 17.833 166.667 43.5 252s61.834 176.666 108.501 273.999l111 -53
c-40 -83.333 -71.5 -163.166 -94.5 -239.499s-37.167 -148.5 -42.5 -216.5c-1.33301 -20.667 -2 -41 -2 -61c0 -45.333 4.83301 -93 14.5 -143s29.5 -98.667 59.5 -146c38 -59.333 87.167 -105.166 147.5 -137.499s127.833 -48.5 202.5 -48.5h235c160.667 0 273 37 337 111
c50 58 75 147 75 267v51h-258c-50 0 -98.833 6.66699 -146.5 20s-90 35.333 -127 66s-66.667 70.667 -89 120s-33.5 109.666 -33.5 180.999c0 58.667 7 116 21 172s36.5 106 67.5 150s71.167 79.5 120.5 106.5s109.666 40.5 180.999 40.5zM1332 123l0.000976562 217.001
c0 75.333 -6.5 139.833 -19.5 193.5s-32.833 96.167 -59.5 127.5c-21.333 24.667 -46.833 42.834 -76.5 54.501s-65.834 17.5 -108.501 17.5c-42 0 -79.5 -7.83301 -112.5 -23.5s-61 -38.334 -84 -68.001s-40.5 -66 -52.5 -109s-18 -91.5 -18 -145.5
c0 -44.667 6.5 -82.167 19.5 -112.5s29.333 -55.333 49 -75s41 -34.667 64 -45s44.667 -17.833 65 -22.5s37.5 -7.33398 51.5 -8.00098s22 -1 24 -1h258z" />
    <glyph glyph-name="uni0671" unicode="&#x671;" horiz-adv-x="525" arabic-form="isolated" 
d="M325 0h-125v1276h125v-1276zM-14 1429l19 84.998h129l47 73l83 122c25.333 30.667 53.333 56.334 84 77.001s65 31 103 31c22 0 43.5 -4 64.5 -12s39.833 -20.5 56.5 -37.5s30.167 -38.5 40.5 -64.5s15.5 -56.667 15.5 -92c0 -34 -5.66699 -62.5 -17 -85.5
s-25.666 -41.667 -42.999 -56s-36.833 -24.666 -58.5 -30.999s-42.834 -9.5 -63.501 -9.5h-460zM446 1514c28 0 50.999 7.66699 68.999 23s27 40 27 74c0 38.667 -7.83301 68.5 -23.5 89.5s-38.167 31.5 -67.5 31.5c-21.333 0 -41.666 -6.66699 -60.999 -20
s-38 -30.5 -56 -51.5s-35.167 -44.167 -51.5 -69.5s-31.5 -50 -45.5 -74c-0.666992 -0.666992 -1 -1.66699 -1 -3h210z" />
    <glyph glyph-name="uni0679" unicode="&#x679;" horiz-adv-x="2103" arabic-form="isolated" 
d="M1953 703c11.333 -50.667 21.4961 -104.169 30.4961 -160.502s14.167 -110.5 15.5 -162.5v-12c0 -52.667 -8.66699 -102.667 -26 -150s-43.666 -89 -78.999 -125c-29.333 -30 -62.166 -53 -98.499 -69s-74.166 -24 -113.499 -24h-1227
c-42.667 0 -83.167 7.16699 -121.5 21.5s-72.166 35.5 -101.499 63.5c-12 10.667 -24 23.834 -36 39.501s-22.833 34.167 -32.5 55.5s-17.667 45.666 -24 72.999s-9.5 58 -9.5 92c0 22 1.66699 45.833 5 71.5s7.5 51.334 12.5 77.001s10.5 50.667 16.5 75l16.5 65
c5 19 9.33301 34.667 13 47s5.83398 19.166 6.50098 20.499l117 -37l-4 -16l-12.5 -43c-5 -17.333 -10.167 -37.166 -15.5 -59.499s-10.5 -45.166 -15.5 -68.499s-9 -46.5 -12 -69.5s-4.5 -43.833 -4.5 -62.5c0 -41.333 6 -76 18 -104s27.5 -50.833 46.5 -68.5
s40.5 -30.334 64.5 -38.001s48.333 -11.5 73 -11.5h1227c46.667 0 88 18.667 124 56c23.333 23.333 41 52.333 53 87c11.333 32 17 67 17 105v6c-1.33301 48 -6.33301 98.833 -15 152.5s-18.334 104.834 -29.001 153.501zM817.996 669.998v84.998h100l47 73v485h83v-363
c25.333 30.667 53.333 56.334 84 77.001s65 31 103 31c22 0 43.5 -4 64.5 -12s39.833 -20.5 56.5 -37.5s30.167 -38.5 40.5 -64.5s15.5 -56.667 15.5 -92c0 -34 -5.66699 -62.5 -17 -85.5s-25.666 -41.667 -42.999 -56s-36.833 -24.666 -58.5 -30.999
s-42.834 -9.5 -63.501 -9.5h-412zM1230 754.996c28 0 50.999 7.66699 68.999 23s27 40 27 74c0 38.667 -7.83301 68.5 -23.5 89.5s-38.167 31.5 -67.5 31.5c-21.333 0 -41.666 -6.66699 -60.999 -20s-38 -30.5 -56 -51.5s-35.167 -44.167 -51.5 -69.5s-31.5 -50 -45.5 -74
c-0.666992 -0.666992 -1 -1.66699 -1 -3h210z" />
    <glyph glyph-name="uni067E" unicode="&#x67e;" horiz-adv-x="2103" arabic-form="isolated" 
d="M1953 703c11.333 -50.667 21.4961 -104.169 30.4961 -160.502s14.167 -110.5 15.5 -162.5v-12c0 -52.667 -8.66699 -102.667 -26 -150s-43.666 -89 -78.999 -125c-29.333 -30 -62.166 -53 -98.499 -69s-74.166 -24 -113.499 -24h-1227
c-42.667 0 -83.167 7.16699 -121.5 21.5s-72.166 35.5 -101.499 63.5c-12 10.667 -24 23.834 -36 39.501s-22.833 34.167 -32.5 55.5s-17.667 45.666 -24 72.999s-9.5 58 -9.5 92c0 22 1.66699 45.833 5 71.5s7.5 51.334 12.5 77.001s10.5 50.667 16.5 75l16.5 65
c5 19 9.33301 34.667 13 47s5.83398 19.166 6.50098 20.499l117 -37l-4 -16l-12.5 -43c-5 -17.333 -10.167 -37.166 -15.5 -59.499s-10.5 -45.166 -15.5 -68.499s-9 -46.5 -12 -69.5s-4.5 -43.833 -4.5 -62.5c0 -41.333 6 -76 18 -104s27.5 -50.833 46.5 -68.5
s40.5 -30.334 64.5 -38.001s48.333 -11.5 73 -11.5h1227c46.667 0 88 18.667 124 56c23.333 23.333 41 52.333 53 87c11.333 32 17 67 17 105v6c-1.33301 48 -6.33301 98.833 -15 152.5s-18.334 104.834 -29.001 153.501zM1158 -346.002l124 125l124 -123l-125 -126z
M754.996 -349.002l124 124l63.5 -63l62.5 -61l-125 -125zM952.996 -612.002l124 125l124 -123l-125 -126z" />
    <glyph glyph-name="uni0686" unicode="&#x686;" horiz-adv-x="1455" arabic-form="isolated" 
d="M509 1071c14.667 -2 27.498 -3.6709 38.498 -5.00391s23.333 -3.5 37 -6.5s30.334 -7.5 50.001 -13.5s45.667 -15.167 78 -27.5l121 -48l179.5 -74.5l133 -57l113.5 -49.5l79.5 -34.5l30 -14l-4 -114c-0.666992 0 -15.5 -5.33301 -44.5 -16l-124 -46l-195 -72.5
l-256.5 -96.5l-125.5 -49c-43 -17.333 -84.667 -36.666 -125 -57.999s-78 -45.666 -113 -72.999s-64.667 -58.666 -89 -93.999s-42.166 -75.333 -53.499 -120c-8 -28.667 -12 -60 -12 -94c0 -18.667 1.33301 -38 4 -58c2.66699 -78 19.834 -146.5 51.501 -205.5
s74 -108.167 127 -147.5s115.333 -68.833 187 -88.5s149.167 -29.5 232.5 -29.5h438v-123h-438c-113.333 0 -213.5 14.167 -300.5 42.5s-160.5 68.166 -220.5 119.499s-106.667 113.166 -140 185.499s-53.333 152.5 -60 240.5c-1.33301 20 -2 39.333 -2 58
c0 44.667 5.33301 89.667 16 135s29.167 89.333 55.5 132s58.5 80.834 96.5 114.501s79.833 64 125.5 91s94.167 51.5 145.5 73.5s103.666 43 156.999 63l276 104l202 75l-206 89.5l-198 83c-62 25 -116.667 45.5 -164 61.5s-82 24 -104 24
c-42 0 -79.833 -16.667 -113.5 -50s-58.167 -79.666 -73.5 -138.999l-119 31c10 36.667 23.833 71.5 41.5 104.5s39.334 62.333 65.001 88s55.167 46.334 88.5 62.001s70.666 24.5 111.999 26.5zM989.998 26.9961l124 125l124 -123l-125 -126zM586.998 23.9961l124 124
l63.5 -63l62.5 -61l-125 -125zM784.998 -239.004l124 125l124 -123l-125 -126z" />
    <glyph glyph-name="uni0688" unicode="&#x688;" horiz-adv-x="1064" arabic-form="isolated" 
d="M574 -8c-50.667 0 -102.001 4 -154.001 12s-100.667 19.5 -146 34.5s-85 32.5 -119 52.5l-53 31l63 106l53 -32c28 -16.667 61.333 -31 100 -43s79.334 -21.167 122.001 -27.5s86 -9.5 130 -9.5h12c38.667 0 75 3 109 9c44 7.33301 81 20.333 111 39s50.667 41.667 62 69
c6.66699 16.667 10 34.334 10 53.001c0 8.66699 -1.66699 22.5 -5 41.5s-15 43.5 -35 73.5l-132 198l-93 140.5l-61 92.5l-35.5 54l-17 25.5c-3 4.33301 -4.5 6.83301 -4.5 7.5l-33 52l104 66c5.33301 -9.33301 11.5 -19.166 18.5 -29.499l26.5 -40.5l41.5 -63.5l64 -97
l93.5 -141l130 -196.5c32 -48 51.667 -96.333 59 -145c2 -12.667 3 -25.334 3 -38.001c0 -34.667 -7 -68.334 -21 -101.001c-20 -47.333 -52.667 -86.5 -98 -117.5s-101 -52.167 -167 -63.5c-42 -8 -88 -12 -138 -12zM221.999 1252v84.998h100l47 73v485h83v-363
c25.333 30.667 53.333 56.334 84 77.001s65 31 103 31c22 0 43.5 -4 64.5 -12s39.833 -20.5 56.5 -37.5s30.167 -38.5 40.5 -64.5s15.5 -56.667 15.5 -92c0 -34 -5.66699 -62.5 -17 -85.5s-25.666 -41.667 -42.999 -56s-36.833 -24.666 -58.5 -30.999
s-42.834 -9.5 -63.501 -9.5h-412zM633.999 1337c28 0 50.999 7.66699 68.999 23s27 40 27 74c0 38.667 -7.83301 68.5 -23.5 89.5s-38.167 31.5 -67.5 31.5c-21.333 0 -41.666 -6.66699 -60.999 -20s-38 -30.5 -56 -51.5s-35.167 -44.167 -51.5 -69.5s-31.5 -50 -45.5 -74
c-0.666992 -0.666992 -1 -1.66699 -1 -3h210z" />
    <glyph glyph-name="uni0691" unicode="&#x691;" horiz-adv-x="826" arabic-form="isolated" 
d="M0 -553v122h139c156.667 0 271.334 41 344.001 123c66.667 76 100 189.667 100 341v642h123v-642c0 -193.333 -47.833 -339.333 -143.5 -438s-236.834 -148 -423.501 -148h-139zM274 902v84.998h100l47 73v485h83v-363c25.333 30.667 53.333 56.334 84 77.001
s65 31 103 31c22 0 43.5 -4 64.5 -12s39.833 -20.5 56.5 -37.5s30.167 -38.5 40.5 -64.5s15.5 -56.667 15.5 -92c0 -34 -5.66699 -62.5 -17 -85.5s-25.666 -41.667 -42.999 -56s-36.833 -24.666 -58.5 -30.999s-42.834 -9.5 -63.501 -9.5h-412zM686 986.998
c28 0 50.999 7.66699 68.999 23s27 40 27 74c0 38.667 -7.83301 68.5 -23.5 89.5s-38.167 31.5 -67.5 31.5c-21.333 0 -41.666 -6.66699 -60.999 -20s-38 -30.5 -56 -51.5s-35.167 -44.167 -51.5 -69.5s-31.5 -50 -45.5 -74c-0.666992 -0.666992 -1 -1.66699 -1 -3h210z" />
    <glyph glyph-name="uni0692.fina" unicode="&#x692;" horiz-adv-x="955" 
d="M970 0l-46 0.000976562c-41.333 0 -80.5 5.66699 -117.5 17s-70.5 27.666 -100.5 48.999v-33c0 -193.333 -47.833 -339.333 -143.5 -438s-236.834 -148 -423.501 -148h-139v122h139c156.667 0 271.334 41 344.001 123c66.667 76 100 189.667 100 341v642h123v-358
c0 -36 6.66699 -66.333 20 -91s30.5 -44.667 51.5 -60s44.333 -26.333 70 -33s51.167 -10 76.5 -10h46v-123zM919 1281l-226 -408h-103l-227 408h113l164 -329l168 329h111z" />
    <glyph glyph-name="uni0695.fina" unicode="&#x695;" horiz-adv-x="955" 
d="M970 0l-46 0.000976562c-41.333 0 -80.5 5.66699 -117.5 17s-70.5 27.666 -100.5 48.999v-33c0 -193.333 -47.833 -339.333 -143.5 -438s-236.834 -148 -423.501 -148h-139v122h139c156.667 0 271.334 41 344.001 123c66.667 76 100 189.667 100 341v642h123v-358
c0 -36 6.66699 -66.333 20 -91s30.5 -44.667 51.5 -60s44.333 -26.333 70 -33s51.167 -10 76.5 -10h46v-123zM649 -678.999l-226 -408h-103l-227 408h113l164 -329l168 329h111z" />
    <glyph glyph-name="uni0698" unicode="&#x698;" horiz-adv-x="950" arabic-form="isolated" 
d="M0 -553v122h139c156.667 0 271.334 41 344.001 123c66.667 76 100 189.667 100 341v642h123v-642c0 -193.333 -47.833 -339.333 -143.5 -438s-236.834 -148 -423.501 -148h-139zM540 1078l-124 -125l-124 123l125 126zM943 1081l-124 -124l-126 124l125 125zM745 1353
l-124 -124l-126 124l125 125z" />
    <glyph glyph-name="uni06A4.init" unicode="&#x6a4;" horiz-adv-x="1036" arabic-form="initial" 
d="M575 473c20.667 0 41.5029 0.669922 62.5029 2.00293s41.167 3.16602 60.5 5.49902s37.666 4.83301 54.999 7.5l45 7c-0.666992 29.333 -2.33398 61.166 -5.00098 95.499s-7.33398 69 -14.001 104s-16.167 68.667 -28.5 101s-28.5 61.166 -48.5 86.499
s-44.5 45.5 -73.5 60.5s-63.5 22.5 -103.5 22.5c-42 0 -78.5 -7.66699 -109.5 -23s-56.5 -35.333 -76.5 -60s-34.833 -53 -44.5 -85s-14.5 -64.333 -14.5 -97c0 -45.333 7.5 -82.5 22.5 -111.5s35.833 -52 62.5 -69s58 -29 94 -36s74.667 -10.5 116 -10.5zM525.003 1088
c56 -0.666992 104.832 -10.3389 146.499 -29.0059s77.167 -43.834 106.5 -75.501s53.333 -68.5 72 -110.5s33.167 -86.667 43.5 -134s17.5 -96.166 21.5 -146.499s6 -99.166 6 -146.499c0 -87.333 -13.167 -159.666 -39.5 -216.999s-63.666 -103 -111.999 -137
s-106.5 -57.833 -174.5 -71.5s-143.667 -20.5 -227 -20.5h-387v123h387c58.667 3.33301 112.334 7.5 161.001 12.5s91.167 15.5 127.5 31.5s66.166 39.667 89.499 71s39 75.333 47 132c-28 -4.66699 -61.333 -9.16699 -100 -13.5s-78 -6.5 -118 -6.5
c-62.667 0 -119.667 6.83301 -171 20.5s-95.333 34.834 -132 63.501s-65 65 -85 109s-30 96.333 -30 157c0 52.667 8.83301 102.834 26.5 150.501s42.5 89.334 74.5 125.001s70.667 63.834 116 84.501c42.667 18.667 89.667 28 141 28h10zM436.002 1417l-124 -125l-124 123
l125 126zM839.002 1420l-124 -124l-126 124l125 125zM641.002 1692l-124 -124l-126 124l125 125z" />
    <glyph glyph-name="uni06A4.medi" unicode="&#x6a4;" horiz-adv-x="1084" arabic-form="medial" 
d="M567 200c14 5.33301 27.4971 11 40.4971 17s25.5 12.667 37.5 20c20 11.333 40.333 24.833 61 40.5s39.5 33.5 56.5 53.5s30.833 42.667 41.5 68s16 53 16 83c0 32 -5.66699 63.667 -17 95s-27.666 59.333 -48.999 84s-47.166 44.667 -77.499 60s-64.833 23 -103.5 23
c-40.667 0 -77.334 -6.16699 -110.001 -18.5s-60.667 -30 -84 -53s-41.333 -50.5 -54 -82.5s-19 -68 -19 -108c0 -32 6.16699 -61 18.5 -87s28.333 -49.667 48 -71s41.334 -40 65.001 -56s47.167 -30 70.5 -42c9.33301 -4.66699 18.833 -9.16699 28.5 -13.5
s19.834 -8.5 30.501 -12.5zM581.997 867c48.667 0 95.002 -10.166 139.002 -30.499s82.5 -48.5 115.5 -84.5s59 -77.5 78 -124.5s28.5 -95.5 28.5 -145.5c0 -65.333 -17.5 -126.333 -52.5 -183s-85.833 -106.667 -152.5 -150c86.667 -17.333 176.667 -26 270 -26h99v-123
h-99c-80 0 -157.333 5.83301 -232 17.5s-144.334 28.834 -209.001 51.501c-66 -22.667 -138.167 -39.834 -216.5 -51.501s-162.5 -17.5 -252.5 -17.5h-123v123h123c106.667 0 205.334 8.66699 296.001 26c-30 18.667 -58 40 -84 64s-48.333 50 -67 78s-33.334 58 -44.001 90
s-16 65.667 -16 101c0 56 9.66699 107.833 29 155.5s46.166 88.667 80.499 123s75.5 61.166 123.5 80.499c44 17.333 92.667 26 146 26h20zM473.999 1194l-124 -125l-124 123l125 126zM876.999 1197l-124 -124l-126 124l125 125zM678.999 1469l-124 -124l-126 124l125 125z
" />
    <glyph glyph-name="uni06A4.fina" unicode="&#x6a4;" horiz-adv-x="2128" arabic-form="final" 
d="M1175 123c106.667 0 205.334 8.66699 296.001 26c-30 18.667 -58 40 -84 64s-48.333 50 -67 78s-33.334 58 -44.001 90s-16 65.667 -16 101c0 56 9.66699 107.833 29 155.5s46.166 88.667 80.499 123s75.5 61.166 123.5 80.499c44 17.333 92.667 26 146 26h20
c48.667 0 95 -10.167 139 -30.5s82.5 -48.5 115.5 -84.5s59 -77.5 78 -124.5s28.5 -95.5 28.5 -145.5c0 -65.333 -17.5 -126.333 -52.5 -183s-85.833 -106.667 -152.5 -150c86.667 -17.333 176.667 -26 270 -26h71v-123h-71c-80 0 -157.333 5.83301 -232 17.5
s-144.334 28.834 -209.001 51.501c-66 -22.667 -138.167 -39.834 -216.5 -51.501s-162.5 -17.5 -252.5 -17.5h-719c-42.667 0 -83.167 7.16699 -121.5 21.5s-72.166 35.5 -101.499 63.5c-12 10.667 -24 23.834 -36 39.501s-22.833 34.167 -32.5 55.5
s-17.667 45.666 -24 72.999s-9.5 58 -9.5 92c0 22 1.66699 45.833 5 71.5s7.5 51.334 12.5 77.001s10.5 50.667 16.5 75l16.5 65c5 19 9.33301 34.667 13 47s5.83398 19.166 6.50098 20.499l117 -37l-4 -16l-12.5 -43c-5 -17.333 -10.167 -37.166 -15.5 -59.499
s-10.5 -45.166 -15.5 -68.499s-9 -46.5 -12 -69.5s-4.5 -43.833 -4.5 -62.5c0 -41.333 6 -76 18 -104s27.5 -50.833 46.5 -68.5s40.5 -30.334 64.5 -38.001s48.333 -11.5 73 -11.5h719zM1644 200c14 5.33301 27.4971 11 40.4971 17s25.5 12.667 37.5 20
c20 11.333 40.333 24.833 61 40.5s39.5 33.5 56.5 53.5s30.833 42.667 41.5 68s16 53 16 83c0 32 -5.66699 63.667 -17 95s-27.666 59.333 -48.999 84s-47.166 44.667 -77.499 60s-64.833 23 -103.5 23c-40.667 0 -77.334 -6.16699 -110.001 -18.5s-60.667 -30 -84 -53
s-41.333 -50.5 -54 -82.5s-19 -68 -19 -108c0 -32 6.16699 -61 18.5 -87s28.333 -49.667 48 -71s41.334 -40 65.001 -56s47.167 -30 70.5 -42c9.33301 -4.66699 18.833 -9.16699 28.5 -13.5s19.834 -8.5 30.501 -12.5zM1556 1203l-124 -125l-124 123l125 126zM1959 1206
l-124 -124l-126 124l125 125zM1761 1478l-124 -124l-126 124l125 125z" />
    <glyph glyph-name="uni06A8.fina" unicode="&#x6a8;" horiz-adv-x="1652" 
d="M1068 856c120.667 0 213.667 -38.667 279 -116c72 -84.667 108 -218 108 -400v-217h224v-123h-224v-50c0 -151.333 -35 -267.333 -105 -348c-22 -25.333 -47.167 -47.5 -75.5 -66.5s-59.833 -34.833 -94.5 -47.5c-71.333 -26.667 -158 -40 -260 -40h-235
c-96 0 -183.333 21.167 -262 63.5s-142.667 102.5 -192 180.5c-34 54 -59 114.667 -75 182c-13.333 56 -20 115 -20 177c0 12.667 0.333008 25.667 1 39c3.33301 82.667 17.833 166.667 43.5 252s61.834 176.666 108.501 273.999l111 -53
c-40 -83.333 -71.5 -163.166 -94.5 -239.499s-37.167 -148.5 -42.5 -216.5c-1.33301 -20.667 -2 -41 -2 -61c0 -45.333 4.83301 -93 14.5 -143s29.5 -98.667 59.5 -146c38 -59.333 87.167 -105.166 147.5 -137.499s127.833 -48.5 202.5 -48.5h235c160.667 0 273 37 337 111
c50 58 75 147 75 267v51h-258c-50 0 -98.833 6.66699 -146.5 20s-90 35.333 -127 66s-66.667 70.667 -89 120s-33.5 109.666 -33.5 180.999c0 58.667 7 116 21 172s36.5 106 67.5 150s71.167 79.5 120.5 106.5s109.666 40.5 180.999 40.5zM1332 123l0.000976562 217.001
c0 75.333 -6.5 139.833 -19.5 193.5s-32.833 96.167 -59.5 127.5c-21.333 24.667 -46.833 42.834 -76.5 54.501s-65.834 17.5 -108.501 17.5c-42 0 -79.5 -7.83301 -112.5 -23.5s-61 -38.334 -84 -68.001s-40.5 -66 -52.5 -109s-18 -91.5 -18 -145.5
c0 -44.667 6.5 -82.167 19.5 -112.5s29.333 -55.333 49 -75s41 -34.667 64 -45s44.667 -17.833 65 -22.5s37.5 -7.33398 51.5 -8.00098s22 -1 24 -1h258zM1006 1176l-124 -125l-124 123l125 126zM1409 1179l-124 -124l-126 124l125 125zM1211 1451l-124 -124l-126 124
l125 125z" />
    <glyph glyph-name="uni06A9" unicode="&#x6a9;" horiz-adv-x="1994" arabic-form="isolated" 
d="M988 123l117.996 0.00292969c40.667 0 80.5 0.333008 119.5 1s76.167 1.33398 111.5 2.00098s66.333 2 93 4c60 4 109 14.833 147 32.5s63.333 42.5 76 74.5c8 19.333 12 39.333 12 60c0 11.333 -2.33301 28 -7 50s-15.667 49 -33 81s-38.166 62.833 -62.499 92.5
s-48.5 57.167 -72.5 82.5c-70 74.667 -134.833 140.167 -194.5 196.5l-154.5 141.5c-43.333 38 -77.166 66.833 -101.499 86.5s-36.833 29.5 -37.5 29.5l13 105l930 411l49 -113l-838 -369c44 -36.667 102.167 -88.334 174.5 -155.001s155.166 -149.334 248.499 -248.001
c87.333 -92.667 147.333 -181.334 180 -266.001c17.333 -46 26 -89.667 26 -131c0 -34.667 -6 -67.334 -18 -98.001c-13.333 -32 -31.166 -59.333 -53.499 -82s-47.833 -41.167 -76.5 -55.5s-59.667 -25.333 -93 -33s-68 -12.834 -104 -15.501c-28 -2 -60 -3.5 -96 -4.5
s-74 -1.66699 -114 -2s-80.667 -0.5 -122 -0.5h-120h-544c-42.667 0 -83.167 7.16699 -121.5 21.5s-72.166 35.5 -101.499 63.5c-12 10.667 -24 23.834 -36 39.501s-22.833 34.167 -32.5 55.5s-17.667 45.666 -24 72.999s-9.5 58 -9.5 92c0 22 1.66699 45.833 5 71.5
s7.5 51.334 12.5 77.001s10.5 50.667 16.5 75l16.5 65c5 19 9.33301 34.667 13 47s5.83398 19.166 6.50098 20.499l117 -37l-4 -16l-12.5 -43c-5 -17.333 -10.167 -37.166 -15.5 -59.499s-10.5 -45.166 -15.5 -68.499s-9 -46.5 -12 -69.5s-4.5 -43.833 -4.5 -62.5
c0 -41.333 6 -76 18 -104s27.5 -50.833 46.5 -68.5s40.5 -30.334 64.5 -38.001s48.333 -11.5 73 -11.5h544z" />
    <glyph glyph-name="uni06AA.init" unicode="&#x6aa;" horiz-adv-x="1702" 
d="M1036 1200c-0.666992 0 -13.002 -3.6709 -37.002 -11.0039s-55.333 -18.166 -94 -32.499s-82.667 -32.166 -132 -53.499s-99.333 -46 -150 -74c-58.667 -32.667 -110.834 -66.167 -156.501 -100.5s-84.834 -69.5 -117.501 -105.5c-59.333 -64 -96 -130.667 -110 -200
c22.667 0 54.334 -0.166992 95.001 -0.5s93.334 -0.5 158.001 -0.5h235.5h328.5c71.333 0 139.333 -11.5 204 -34.5s122.667 -56.167 174 -99.5c23.333 -20 44.333 -42 63 -66s34.334 -48.667 47.001 -74s22.334 -50.833 29.001 -76.5s10 -50.167 10 -73.5
c0 -28.667 -5.33301 -55.167 -16 -79.5s-26.334 -45.166 -47.001 -62.499c-41.333 -36 -98.333 -54 -171 -54l-1370 -2l2 123l1368 2c42.667 0 73 8 91 24c13.333 10.667 20 27 20 49c0 14 -2.5 29.5 -7.5 46.5s-12 34.167 -21 51.5s-20 34.5 -33 51.5
s-27.5 32.5 -43.5 46.5c-40 34 -85.667 60 -137 78s-105.333 27 -162 27h-349h-243c-65.333 0 -117.333 0.166992 -156 0.5s-68.167 0.5 -88.5 0.5h-39.5h-10l-60 62c0 60.667 12.333 119.667 37 177s62 113 112 167c74.667 82 177 159 307 231
c54 30 106.667 56.167 158 78.5s97.333 41 138 56s73.834 26.333 99.501 34s39.5 11.834 41.5 12.501z" />
    <glyph glyph-name="uni06AA.medi" unicode="&#x6aa;" horiz-adv-x="1953" 
d="M1975 123l0.000976562 -123h-58c-30 -0 -57.5 1.83301 -82.5 5.5s-48.5 9.16699 -70.5 16.5s-42.833 16.833 -62.5 28.5s-39.5 25.5 -59.5 41.5c-7.33301 -21.333 -20 -39.666 -38 -54.999c-29.333 -24 -69 -36 -119 -36h-126l-1388 -1l2 124h1512
c11.333 0 20.333 0.833008 27 2.5s11 3.5 13 5.5c1.33301 0.666992 2.16602 2.16699 2.49902 4.5s0.5 4.16602 0.5 5.49902c0 8.66699 -1.83301 19.334 -5.5 32.001s-8.66699 26.167 -15 40.5s-14.333 29 -24 44s-20.5 29.5 -32.5 43.5l-21 22
c-22 22.667 -46.5 44.5 -73.5 65.5s-56.167 39.5 -87.5 55.5s-64 28.833 -98 38.5s-69 14.5 -105 14.5h-349c-96.667 0 -177.667 0.166992 -243 0.5s-117.333 0.5 -156 0.5s-68.167 0.166992 -88.5 0.5s-33.5 0.5 -39.5 0.5h-10l-60 61c0 121.333 49.333 236.333 148 345
c75.333 81.333 178 158.333 308 231c54 29.333 106.667 55.166 158 77.499s97.333 41 138 56s73.834 26.5 99.501 34.5s39.5 12.333 41.5 13l33 -119c-0.666992 0 -13 -3.66699 -37 -11s-55.333 -18.166 -94 -32.499s-82.667 -32.166 -132 -53.499s-99.333 -46 -150 -74
c-58.667 -32.667 -110.834 -66.167 -156.501 -100.5s-84.834 -69.5 -117.501 -105.5c-59.333 -64 -96 -130.667 -110 -200c22.667 0 54.334 -0.166992 95.001 -0.5s93.334 -0.5 158.001 -0.5h235.5h328.5c72.667 0 145.667 -16 219 -48
c64.667 -28.667 125.667 -67.334 183 -116.001l77 -76l9 -10l107 -116c29.333 -31.333 56.833 -56.833 82.5 -76.5s51.667 -33.834 78 -42.501s58.166 -13 95.499 -13h58z" />
    <glyph glyph-name="uni06AA.fina" unicode="&#x6aa;" horiz-adv-x="2511" 
d="M1920 124l125.998 -0.000976562c11.333 0 20.333 0.833008 27 2.5s11 3.5 13 5.5c1.33301 0.666992 2.16602 2.16699 2.49902 4.5s0.5 4.16602 0.5 5.49902c0 8.66699 -1.83301 19.334 -5.5 32.001s-8.66699 26.167 -15 40.5s-14.333 29 -24 44s-20.5 29.5 -32.5 43.5
l-21 22c-22 22.667 -46.5 44.5 -73.5 65.5s-56.167 39.5 -87.5 55.5s-64 28.833 -98 38.5s-69 14.5 -105 14.5h-349c-96.667 0 -177.667 0.166992 -243 0.5s-117.333 0.5 -156 0.5s-68.167 0.166992 -88.5 0.5s-33.5 0.5 -39.5 0.5h-10l-60 61
c0 121.333 49.333 236.333 148 345c75.333 81.333 178 158.333 308 231c54 29.333 106.667 55.166 158 77.499s97.333 41 138 56s73.834 26.5 99.501 34.5s39.5 12.333 41.5 13l33 -119c-0.666992 0 -13 -3.66699 -37 -11s-55.333 -18.166 -94 -32.499
s-82.667 -32.166 -132 -53.499s-99.333 -46 -150 -74c-58.667 -32.667 -110.834 -66.167 -156.501 -100.5s-84.834 -69.5 -117.501 -105.5c-59.333 -64 -96 -130.667 -110 -200c22.667 0 54.334 -0.166992 95.001 -0.5s93.334 -0.5 158.001 -0.5h235.5h328.5
c72.667 0 145.667 -16 219 -48c64.667 -28.667 125.667 -67.334 183 -116.001l77 -76l9 -10l107 -116c29.333 -31.333 56.833 -56.833 82.5 -76.5s51.667 -33.834 78 -42.501s58.166 -13 95.5 -13h58v-123h-58c-30 0 -57.5 1.83301 -82.5 5.5s-48.5 9.16699 -70.5 16.5
s-42.833 16.833 -62.5 28.5s-39.5 25.5 -59.5 41.5c-7.33301 -21.333 -20 -39.666 -38 -54.999c-29.333 -24 -69 -36 -119 -36h-126l-498 -2v1h-967c-42.667 0 -83.167 7.16699 -121.5 21.5s-72.166 35.5 -101.499 63.5c-12 10.667 -24 23.834 -36 39.501
s-22.833 34.167 -32.5 55.5s-17.667 45.666 -24 72.999s-9.5 58 -9.5 92c0 22 1.66699 45.833 5 71.5s7.5 51.334 12.5 77.001s10.5 50.667 16.5 75l16.5 65c5 19 9.33301 34.667 13 47s5.83398 19.166 6.50098 20.499l117 -37l-4 -16l-12.5 -43
c-5 -17.333 -10.167 -37.166 -15.5 -59.499s-10.5 -45.166 -15.5 -68.499s-9 -46.5 -12 -69.5s-4.5 -43.833 -4.5 -62.5c0 -41.333 6 -76 18 -104s27.5 -50.833 46.5 -68.5s40.5 -30.334 64.5 -38.001s48.333 -11.5 73 -11.5h967z" />
    <glyph glyph-name="uni06AF" unicode="&#x6af;" horiz-adv-x="1994" arabic-form="isolated" 
d="M988 123l117.996 0.00292969c40.667 0 80.5 0.333008 119.5 1s76.167 1.33398 111.5 2.00098s66.333 2 93 4c60 4 109 14.833 147 32.5s63.333 42.5 76 74.5c8 19.333 12 39.333 12 60c0 11.333 -2.33301 28 -7 50s-15.667 49 -33 81s-38.166 62.833 -62.499 92.5
s-48.5 57.167 -72.5 82.5c-70 74.667 -134.833 140.167 -194.5 196.5l-154.5 141.5c-43.333 38 -77.166 66.833 -101.499 86.5s-36.833 29.5 -37.5 29.5l13 105l930 411l49 -113l-838 -369c44 -36.667 102.167 -88.334 174.5 -155.001s155.166 -149.334 248.499 -248.001
c87.333 -92.667 147.333 -181.334 180 -266.001c17.333 -46 26 -89.667 26 -131c0 -34.667 -6 -67.334 -18 -98.001c-13.333 -32 -31.166 -59.333 -53.499 -82s-47.833 -41.167 -76.5 -55.5s-59.667 -25.333 -93 -33s-68 -12.834 -104 -15.501c-28 -2 -60 -3.5 -96 -4.5
s-74 -1.66699 -114 -2s-80.667 -0.5 -122 -0.5h-120h-544c-42.667 0 -83.167 7.16699 -121.5 21.5s-72.166 35.5 -101.499 63.5c-12 10.667 -24 23.834 -36 39.501s-22.833 34.167 -32.5 55.5s-17.667 45.666 -24 72.999s-9.5 58 -9.5 92c0 22 1.66699 45.833 5 71.5
s7.5 51.334 12.5 77.001s10.5 50.667 16.5 75l16.5 65c5 19 9.33301 34.667 13 47s5.83398 19.166 6.50098 20.499l117 -37l-4 -16l-12.5 -43c-5 -17.333 -10.167 -37.166 -15.5 -59.499s-10.5 -45.166 -15.5 -68.499s-9 -46.5 -12 -69.5s-4.5 -43.833 -4.5 -62.5
c0 -41.333 6 -76 18 -104s27.5 -50.833 46.5 -68.5s40.5 -30.334 64.5 -38.001s48.333 -11.5 73 -11.5h544zM1032.06 1486.56l790.178 334.484l41.6426 -81.8311l-840.148 -356.988z" />
    <glyph glyph-name="uni06B5.init" unicode="&#x6b5;" horiz-adv-x="573" 
d="M440 362c0 -108 -31 -192.002 -93 -252.002c-75.333 -73.333 -196 -110 -362 -110v123c73.333 0 131.833 6.83301 175.5 20.5s77.167 31.834 100.5 54.501s38.5 48.334 45.5 77.001s10.5 57.667 10.5 87l1 1065h123zM629 2022l-226 -408h-103l-227 408h113l164 -329
l168 329h111z" />
    <glyph glyph-name="uni06B5.medi" unicode="&#x6b5;" horiz-adv-x="651" 
d="M666 123l0.00195312 -123.002h-22c-56.667 0 -108.667 12.333 -156 37s-86 60 -116 106c-18.667 -26 -40.5 -48 -65.5 -66s-53.5 -32.5 -85.5 -43.5s-67.667 -19.167 -107 -24.5s-82.333 -8.33301 -129 -9v123c73.333 0 131.666 6.83301 174.999 20.5
s76.333 31.834 99 54.501s37.334 48.334 44.001 77.001s10 57.667 10 87v1065h123v-1076c0 -34 5 -65 15 -93s24.167 -52 42.5 -72s40.166 -35.5 65.499 -46.5s53.666 -16.5 84.999 -16.5h22zM643.002 2013l-226 -408h-103l-227 408h113l164 -329l168 329h111z" />
    <glyph glyph-name="uni06B5.fina" unicode="&#x6b5;" horiz-adv-x="1416" 
d="M1433 123v-122.996h-39c-25.333 0 -47.666 1.66699 -66.999 5s-36.833 8.16602 -52.5 14.499s-30.167 14 -43.5 23s-27 19.167 -41 30.5v-122c0 -76.667 -8.5 -143.5 -25.5 -200.5s-43.5 -106.5 -79.5 -148.5c-27.333 -30.667 -57 -55.834 -89 -75.501
s-66.167 -35.167 -102.5 -46.5s-74.5 -19.333 -114.5 -24s-81.333 -7.33398 -124 -8.00098h-72c-83.333 0 -159.5 18.5 -228.5 55.5s-124.833 89.833 -167.5 158.5c-29.333 46 -50.666 97.667 -63.999 155c-12 48 -18 98.667 -18 152c0 10 0.333008 20.333 1 31
c2.66699 70 14.5 143 35.5 219s51.167 155 90.5 237l111 -53c-66.667 -140 -104.334 -267.667 -113.001 -383c-1.33301 -18 -2 -35.667 -2 -53c0 -92.667 21 -172.667 63 -240c31.333 -50 72.333 -88.5 123 -115.5s107 -40.5 169 -40.5h72
c81.333 0 149.666 9.16699 204.999 27.5s99 46.166 131 83.499c26 30 45.167 67 57.5 111s18.5 96.667 18.5 158v1476h123v-1066c0 -35.333 5 -67.5 15 -96.5s24 -54 42 -75s39.5 -37.333 64.5 -49s52.5 -17.5 82.5 -17.5h39zM1389 2013l-226 -408h-103l-227 408h113
l164 -329l168 329h111z" />
    <glyph glyph-name="uni06BA" unicode="&#x6ba;" horiz-adv-x="1600" arabic-form="isolated" 
d="M1447 676l-0.000976562 -726.001c0 -151.333 -35 -267.333 -105 -348c-22 -25.333 -47.167 -47.5 -75.5 -66.5s-59.833 -34.833 -94.5 -47.5c-71.333 -26.667 -158 -40 -260 -40h-235c-96 0 -183.333 21.167 -262 63.5s-142.667 102.5 -192 180.5
c-34 54 -59 114.667 -75 182c-13.333 56 -20 115 -20 177c0 12.667 0.333008 25.667 1 39c3.33301 82.667 17.833 166.667 43.5 252s61.834 176.666 108.501 273.999l111 -53c-40 -83.333 -71.5 -163.166 -94.5 -239.499s-37.167 -148.5 -42.5 -216.5
c-1.33301 -20.667 -2 -41 -2 -61c0 -45.333 4.83301 -93 14.5 -143s29.5 -98.667 59.5 -146c38 -59.333 87.167 -105.166 147.5 -137.499s127.833 -48.5 202.5 -48.5h235c160.667 0 273 37 337 111c50 58 75 147.333 75 268v726h123z" />
    <glyph glyph-name="uni06BE" unicode="&#x6be;" horiz-adv-x="1651" arabic-form="isolated" 
d="M747 191c30.667 11.333 60.168 25.833 88.501 43.5s53 38.5 74 62.5s37.833 51.333 50.5 82s19 64.667 19 102c0 38.667 -6.83301 74 -20.5 106s-31.5 59.333 -53.5 82s-46.833 40.167 -74.5 52.5s-55.5 18.5 -83.5 18.5c-48 0 -88.333 -7.16699 -121 -21.5
s-59.334 -33 -80.001 -56s-35.5 -49.167 -44.5 -78.5s-13.5 -58.666 -13.5 -87.999c0 -43.333 8.83301 -81.833 26.5 -115.5s45.5 -65.834 83.5 -96.501c20.667 -16.667 43.5 -32.5 68.5 -47.5s51.833 -30.167 80.5 -45.5zM981.001 1030l149.005 -157.998l126 -137.5
c38 -43 71.833 -83.333 101.5 -121s55.167 -73.5 76.5 -107.5c21.333 -34.667 38.666 -68.334 51.999 -101.001s22 -65 26 -97c1.33301 -12 2 -24.333 2 -37c0 -20 -2.66699 -43.5 -8 -70.5s-17.333 -58.167 -36 -93.5c-14.667 -28 -34 -52.833 -58 -74.5
s-50.833 -39.834 -80.5 -54.501s-61.5 -25.834 -95.5 -33.501s-68 -11.5 -102 -11.5c-35.333 0 -69.833 3.5 -103.5 10.5s-66.834 16.333 -99.501 28s-65 25 -97 40l-96 46.5l-104 -30c-38 -10.667 -82 -17.334 -132 -20.001c-14.667 -0.666992 -30.334 -1 -47.001 -1
c-38.667 0 -86 3.33301 -142 10s-127 23.667 -213 51l35 111c68.667 -22 130.334 -36 185.001 -42c45.333 -5.33301 85.333 -8 120 -8c6.66699 0 21.167 0.333008 43.5 1s43.833 3.33398 64.5 8.00098s31 7.66699 31 9c-10.667 6.66699 -20.667 13.334 -30 20.001
s-18.333 13.667 -27 21c-51.333 40 -90.333 85.167 -117 135.5s-40 107.833 -40 172.5c0 54.667 9.5 104.667 28.5 150s45.5 84 79.5 116s74.333 56.833 121 74.5s97.667 26.5 153 26.5c50 0 96.667 -10.667 140 -32s80.833 -49.833 112.5 -85.5s56.667 -76.5 75 -122.5
s27.5 -93.333 27.5 -142c0 -79.333 -18.333 -148.833 -55 -208.5s-89.334 -109.5 -158.001 -149.5c36 -19.333 75 -35.333 117 -48s85 -19 129 -19c28.667 0 55.167 3 79.5 9s46.166 14 65.499 24s35.833 21.5 49.5 34.5s24.167 26.5 31.5 40.5c12 22 20.333 43.667 25 65
c2.66699 13.333 4 26.666 4 39.999c0 8 -0.833008 19.5 -2.5 34.5s-7.33398 34.667 -17.001 59s-23.5 50.5 -41.5 78.5c-39.333 62.667 -96 134.834 -170 216.501l-267 287.5z" />
    <glyph glyph-name="uni06C0" unicode="&#x6c0;" horiz-adv-x="1042" arabic-form="isolated" 
d="M523 0c-56.667 0 -109.834 9.16797 -159.501 27.501s-93 43.5 -130 75.5s-66.333 69.5 -88 112.5s-32.5 88.833 -32.5 137.5c0 46.667 6.33301 89.667 19 129s28.5 75.5 47.5 108.5s39.5 63 61.5 90l60 73.5l33 38l36 39.5l35.5 37l31.5 32.5l-78 87l90 82
c0.666992 0 8.83398 -8.5 24.501 -25.5l60 -65.5l80.5 -89l85 -97c33.333 -38 64.333 -75 93 -111s53.5 -71.667 74.5 -107s37.5 -70.833 49.5 -106.5s18 -72.834 18 -111.501c0 -50 -10.833 -97.167 -32.5 -141.5s-53.167 -83.5 -94.5 -117.5
c-38 -32 -81.333 -56.333 -130 -73s-100 -25 -154 -25zM520 810.001l-30 -30.499l-32.5 -34l-32 -35l-28.5 -33.5l-52.5 -63.5c-19 -23 -36.5 -48 -52.5 -75s-29.333 -56 -40 -87s-16 -63.833 -16 -98.5c0 -30 7 -58.833 21 -86.5s34 -52.167 60 -73.5
c28 -22.667 59.833 -40 95.5 -52s72.5 -18 110.5 -18c40 0 77.5 6.16699 112.5 18.5s65.5 29 91.5 50s46.5 45.833 61.5 74.5s22.5 59 22.5 91c0 25.333 -4.33301 50.833 -13 76.5s-21.5 52.667 -38.5 81s-38.333 58.666 -64 90.999l-89.5 107.5zM578 1739
c13.333 0 27.5 -0.826172 42.5 -2.49316s30.833 -4.83398 47.5 -9.50098l-24 -91c-23.333 6 -45 9 -65 9c-37.333 0 -68 -10 -92 -30c-14.667 -12 -26.167 -27.167 -34.5 -45.5s-13.5 -38.166 -15.5 -59.499l95 -16c23.333 -4 41.666 -7.66699 54.999 -11
c20 -4.66699 34.667 -10.334 44 -17.001c18 -12.667 27 -29.334 27 -50.001c0 -6 -0.166992 -13.5 -0.5 -22.5s-1.5 -19.167 -3.5 -30.5s-5.33301 -23 -10 -35s-11 -24 -19 -36c-37.333 -54 -102.666 -81 -195.999 -81h-110v94h110c28 0 50.667 2.66699 68 8
s30.666 12.166 39.999 20.499s15.833 17.666 19.5 27.999s5.83398 20.5 6.50098 30.5c-15.333 3.33301 -38.833 7.66602 -70.5 12.999l-110.5 19l-36 6l-3 36c-0.666992 8 -1 16 -1 24c0 35.333 6.5 70.666 19.5 105.999s34.5 65.666 64.5 90.999
c16 13.333 36.333 25.333 61 36s55 16 91 16z" />
    <glyph glyph-name="uni06C1" unicode="&#x6c1;" horiz-adv-x="1042" arabic-form="isolated" 
d="M523 0c-56.667 0 -109.834 9.16797 -159.501 27.501s-93 43.5 -130 75.5s-66.333 69.5 -88 112.5s-32.5 88.833 -32.5 137.5c0 46.667 6.33301 89.667 19 129s28.5 75.5 47.5 108.5s39.5 63 61.5 90l60 73.5l33 38l36 39.5l35.5 37l31.5 32.5l-78 87l90 82
c0.666992 0 8.83398 -8.5 24.501 -25.5l60 -65.5l80.5 -89l85 -97c33.333 -38 64.333 -75 93 -111s53.5 -71.667 74.5 -107s37.5 -70.833 49.5 -106.5s18 -72.834 18 -111.501c0 -50 -10.833 -97.167 -32.5 -141.5s-53.167 -83.5 -94.5 -117.5
c-38 -32 -81.333 -56.333 -130 -73s-100 -25 -154 -25zM520 810.001l-30 -30.499l-32.5 -34l-32 -35l-28.5 -33.5l-52.5 -63.5c-19 -23 -36.5 -48 -52.5 -75s-29.333 -56 -40 -87s-16 -63.833 -16 -98.5c0 -30 7 -58.833 21 -86.5s34 -52.167 60 -73.5
c28 -22.667 59.833 -40 95.5 -52s72.5 -18 110.5 -18c40 0 77.5 6.16699 112.5 18.5s65.5 29 91.5 50s46.5 45.833 61.5 74.5s22.5 59 22.5 91c0 25.333 -4.33301 50.833 -13 76.5s-21.5 52.667 -38.5 81s-38.333 58.666 -64 90.999l-89.5 107.5z" />
    <glyph glyph-name="uni06C2.fina" unicode="&#x6c2;" horiz-adv-x="1287" 
d="M735 1057l58.999 -252.004l25 -106.5l23.5 -98.5l23.5 -94.5l24 -94.5c14 -53.333 34.167 -98.166 60.5 -134.499s56 -66 89 -89s67.333 -39.5 103 -49.5s69.834 -15 102.501 -15h58v-123h-58c-51.333 0 -101.333 7.83301 -150 23.5s-93.334 38.5 -134.001 68.5
c-46.667 34 -86.167 75.333 -118.5 124s-56.166 103.334 -71.499 164.001c-8.66699 32 -16.834 63.833 -24.501 95.5l-23 95.5l-23.5 99l-25 107l-46 194l-44 -9l-47 -9.5l-42.5 -8.5c-13 -2.66699 -23.5 -5 -31.5 -7c-40 -9.33301 -73.667 -23.166 -101 -41.499
s-49.333 -42.5 -66 -72.5c-17.333 -30 -29 -64.333 -35 -103c-4.66699 -28.667 -7 -58.667 -7 -90c0 -10.667 0.666992 -29.334 2 -56.001s6 -62.5 14 -107.5s17.5 -89 28.5 -132s22.5 -84.167 34.5 -123.5l33 -106l-117 -38c-20 62 -39.667 127.333 -59 196
s-34.666 138.334 -45.999 209.001c-8.66699 56 -13 108 -13 156c0 102.667 19.333 187.667 58 255c50 88.667 132 146.667 246 174c13.333 3.33301 32.5 7.5 57.5 12.5l74.5 14.5l65 12.5c18.667 3.66699 29 5.83398 31 6.50098zM141.999 1151
c1.33301 19.333 2.33594 36.6699 3.00293 52.0029s1.66699 32.666 3 51.999l157 50c-17.333 4.66699 -33.166 12.667 -47.499 24s-26.5 24.333 -36.5 39s-17.667 30.667 -23 48s-8 34.666 -8 51.999c0 20.667 3.66699 41.5 11 62.5s17.666 40.833 30.999 59.5
s29.666 35.167 48.999 49.5s41 25.166 65 32.499c20 6 39 9 57 9c1.33301 0 7.16602 -0.166992 17.499 -0.5s24.166 -2.66602 41.499 -6.99902s33.833 -9.66602 49.5 -15.999l45.5 -18.5l-21 -82l-36.5 13.5c-13 5 -26.333 9.16699 -40 12.5s-27.667 5.16602 -42 5.49902
s-28.833 -1.5 -43.5 -5.5c-14 -4 -27.167 -10.833 -39.5 -20.5s-22.833 -21 -31.5 -34s-14.334 -26.833 -17.001 -41.5c-1.33301 -6.66699 -2 -13.334 -2 -20.001c0 -8 1 -15.667 3 -23c6.66699 -21.333 24.834 -39.5 54.501 -54.5s64.5 -22.5 104.5 -22.5
c30 0 62 4.5 96 13.5s66.667 18.167 98 27.5l28 -88z" />
    <glyph glyph-name="uni06C3.fina" unicode="&#x6c3;" horiz-adv-x="1287" 
d="M735 1057l58.999 -252.004l25 -106.5l23.5 -98.5l23.5 -94.5l24 -94.5c14 -53.333 34.167 -98.166 60.5 -134.499s56 -66 89 -89s67.333 -39.5 103 -49.5s69.834 -15 102.501 -15h58v-123h-58c-51.333 0 -101.333 7.83301 -150 23.5s-93.334 38.5 -134.001 68.5
c-46.667 34 -86.167 75.333 -118.5 124s-56.166 103.334 -71.499 164.001c-8.66699 32 -16.834 63.833 -24.501 95.5l-23 95.5l-23.5 99l-25 107l-46 194l-44 -9l-47 -9.5l-42.5 -8.5c-13 -2.66699 -23.5 -5 -31.5 -7c-40 -9.33301 -73.667 -23.166 -101 -41.499
s-49.333 -42.5 -66 -72.5c-17.333 -30 -29 -64.333 -35 -103c-4.66699 -28.667 -7 -58.667 -7 -90c0 -10.667 0.666992 -29.334 2 -56.001s6 -62.5 14 -107.5s17.5 -89 28.5 -132s22.5 -84.167 34.5 -123.5l33 -106l-117 -38c-20 62 -39.667 127.333 -59 196
s-34.666 138.334 -45.999 209.001c-8.66699 56 -13 108 -13 156c0 102.667 19.333 187.667 58 255c50 88.667 132 146.667 246 174c13.333 3.33301 32.5 7.5 57.5 12.5l74.5 14.5l65 12.5c18.667 3.66699 29 5.83398 31 6.50098zM677.999 1251l-124 125l61.5 62.5l60.5 61.5
l126 -125zM271.999 1253l-124 125l61.5 62.5l60.5 61.5l126 -125z" />
    <glyph glyph-name="uni06C6.fina" unicode="&#x6c6;" horiz-adv-x="1049" arabic-form="final" 
d="M777 123l-0.000976562 249.002c-1.33301 52.667 -6.16602 101.5 -14.499 146.5s-22.5 84 -42.5 117s-46.667 58.667 -80 77s-76 27.5 -128 27.5c-51.333 0 -94 -9.33301 -128 -28s-61.167 -44.5 -81.5 -77.5s-34.666 -72 -42.999 -117s-12.5 -93.5 -12.5 -145.5
c0 -46 8 -84.833 24 -116.5s38.333 -57.334 67 -77.001s62.167 -33.834 100.5 -42.501s80.166 -13 125.499 -13h213zM511.999 863.002c68.667 -2.66699 127.668 -16.334 177.001 -41.001s89.5 -58.5 120.5 -101.5s53.833 -94 68.5 -153s22 -124.167 22 -195.5v-249h170v-123
h-170v-17c0 -88 -15.167 -165.667 -45.5 -233s-74.5 -123.666 -132.5 -168.999s-127.167 -78.833 -207.5 -100.5s-168.166 -32.5 -263.499 -32.5h-57v123h57c80.667 2 153.167 10 217.5 24s119.166 37.333 164.499 70s80.333 76.167 105 130.5s37.667 122.5 39 204.5h-228
c-56 0 -109.667 7.33301 -161 22s-96.833 37.5 -136.5 68.5s-70.834 70 -93.501 117s-34 101.833 -34 164.5c0 70.667 7.16699 135.5 21.5 194.5s37 110 68 153s71 77 120 102s108.5 38.833 178.5 41.5zM813 1473l-226 -408h-103l-227 408h113l164 -329l168 329h111z" />
    <glyph glyph-name="uni06CC" unicode="&#x6cc;" horiz-adv-x="1671" arabic-form="isolated" 
d="M1356 871c32.667 0 65.499 -2.33594 98.499 -7.00293s66.5 -12 100.5 -22l-34 -118c-56 16 -110.667 24 -164 24c-64.667 0 -125.5 -11 -182.5 -33s-107.5 -54.667 -151.5 -98c-52 -50.667 -88.333 -110.334 -109 -179.001c-13.333 -42 -20 -85 -20 -129
c0 -27.333 2.66699 -55 8 -83c10.667 -3.33301 27.834 -8.16602 51.501 -14.499l81.5 -21.5l97.5 -26l100 -27l88.5 -24c26.667 -7.33301 48 -13 64 -17c26.667 -7.33301 47.834 -16 63.501 -26s27.167 -21 34.5 -33s12 -25 14 -39s3 -28.667 3 -44
c0 -22.667 -1.66699 -48.667 -5 -78s-8.83301 -59.5 -16.5 -90.5s-18 -61.333 -31 -91s-29.167 -56.167 -48.5 -79.5c-26.667 -32.667 -55.834 -59.667 -87.501 -81s-65.667 -38.333 -102 -51s-74.666 -21.5 -114.999 -26.5s-82.833 -7.5 -127.5 -7.5h-255
c-44.667 0 -88.667 5.33301 -132 16s-85 26.834 -125 48.501s-76.833 48 -110.5 79s-63.167 66.5 -88.5 106.5c-36.667 58.667 -62.334 121.334 -77.001 188.001c-12.667 54.667 -19 110.667 -19 168c0 12.667 0.333008 25.334 1 38.001c6 164.667 55.333 343 148 535
l111 -53c-40 -82.667 -71.167 -162.5 -93.5 -239.5s-35.833 -149.833 -40.5 -218.5c-1.33301 -20.667 -2 -40.667 -2 -60c0 -46 5.16699 -94.333 15.5 -145s30.5 -100 60.5 -148c38.667 -61.333 89.167 -108.666 151.5 -141.999s131.833 -50 208.5 -50h247
c82 0 149.333 9.66699 202 29s96 47.666 130 84.999c16.667 18 30.5 38.833 41.5 62.5s19.667 48.334 26 74.001s10.5 51.5 12.5 77.5c0.666992 10 1 20 1 30c0 14 -0.666992 27.667 -2 41l-579 156l-9 34c-12.667 47.333 -19 95 -19 143v42c0 26 6.33301 62.333 19 109
s31.334 91.167 56.001 133.5s55 81.166 91 116.499c27.333 26.667 57.166 50.5 89.499 71.5s66.5 38.5 102.5 52.5s73.333 24.667 112 32c34.667 6.66699 69.667 10 105 10h10z" />
    <glyph glyph-name="uni06CE.init" unicode="&#x6ce;" horiz-adv-x="877" 
d="M648 804l21.999 -94.999c8 -34.667 15.167 -70.5 21.5 -107.5s11.833 -74.5 16.5 -112.5s7.66699 -74.333 9 -109v-6c0 -45.333 -7 -90.333 -21 -135s-34.667 -84.834 -62 -120.501s-60.833 -64.334 -100.5 -86.001s-84.167 -32.5 -133.5 -32.5h-415v123h415
c32 2 60.167 10.333 84.5 25s44.666 33.834 60.999 57.501s28.833 50.5 37.5 80.5c7.33301 27.333 11 55.333 11 84v7c-0.666992 32 -3.16699 65.333 -7.5 100s-9.66602 69 -15.999 103s-13.166 67 -20.499 99l-21 89zM602.999 -460.999l-124 125l122 124l126 -125z
M194.999 -458.999l-124 125l122 124l126 -125zM649.999 1437l-226 -408h-103l-227 408h113l164 -329l168 329h111z" />
    <glyph glyph-name="uni06CE.medi" unicode="&#x6ce;" horiz-adv-x="1046" 
d="M1066 123l-0.00195312 -123h-164c-44.667 0 -87 6.66699 -127 20s-75 32.333 -105 57c-18 14.667 -33 30 -45 46c-34 -42.667 -76.667 -73.667 -128 -93s-113.666 -29.333 -186.999 -30h-330v123h330c39.333 1.33301 74.333 5 105 11s56.667 16.333 78 31
s37.833 34.167 49.5 58.5s18.167 55.5 19.5 93.5v359h123v-359c0 -36 6.66699 -66.333 20 -91s30.333 -44.667 51 -60s43.834 -26.333 69.501 -33s51.167 -10 76.5 -10h164zM721.998 -453l-124 125l122 124l126 -125zM313.998 -451l-124 125l122 124l126 -125zM922.998 1269
l-226 -408h-103l-227 408h113l164 -329l168 329h111z" />
    <glyph glyph-name="uni06CE.fina" unicode="&#x6ce;" horiz-adv-x="1777" 
d="M384 574c-40.667 -84 -72.499 -165.001 -95.499 -243.001s-37.167 -151.667 -42.5 -221c-2 -22 -3 -43.667 -3 -65c0 -45.333 5.16699 -92.833 15.5 -142.5s30.5 -98.5 60.5 -146.5c37.333 -59.333 86.166 -105 146.499 -137s127.833 -48 202.5 -48h249
c32 0 66.167 1.33301 102.5 4s72.666 7.5 108.999 14.5s71.333 16.167 105 27.5s63.334 25.333 89.001 42s46.167 36.5 61.5 59.5s23 49.833 23 80.5c0 20.667 -2.33301 39.5 -7 56.5s-13.334 32.333 -26.001 46s-30.334 25.834 -53.001 36.501s-51.667 20 -87 28
s-78.166 14.833 -128.499 20.5s-109.5 10.167 -177.5 13.5l3 123h864v-123h-346c28 -27.333 48.333 -57 61 -89s19 -69.333 19 -112c0 -44.667 -8.33301 -84.5 -25 -119.5s-39.667 -65.5 -69 -91.5s-63.666 -47.833 -102.999 -65.5s-81.666 -32 -126.999 -43
s-92.5 -19 -141.5 -24s-97.833 -7.5 -146.5 -7.5h-249c-96 0 -183.333 21 -262 63s-142.334 101.667 -191.001 179c-46 74.667 -75 151.667 -87 231c-7.33301 43.333 -11 86.333 -11 129c0 36.667 4 84.167 12 142.5s25.667 126.833 53 205.5s58 155 92 229zM1223 821.999
l-226 -408h-103l-227 408h113l164 -329l168 329h111z" />
    <glyph glyph-name="uni06D2" unicode="&#x6d2;" horiz-adv-x="1651" arabic-form="isolated" 
d="M892 0l-437.998 -0.000976562c-33.333 0 -64.5 -5.5 -93.5 -16.5s-54.167 -26.167 -75.5 -45.5s-38.166 -42.166 -50.499 -68.499s-18.5 -54.833 -18.5 -85.5c0 -31.333 6 -60 18 -86s28.667 -48.5 50 -67.5s46.5 -33.667 75.5 -44s60.5 -15.5 94.5 -15.5h1181v-123
h-1192c-44.667 0 -87.834 8 -129.501 24s-78.667 39.167 -111 69.5s-58 66.333 -77 108s-28.5 86.5 -28.5 134.5c0 46 8.66699 89.667 26 131s42.666 78 75.999 110c34 32 72.667 56.333 116 73s89.666 25 138.999 25h438v-123z" />
    <glyph glyph-name="uni06D3" unicode="&#x6d3;" horiz-adv-x="1651" arabic-form="isolated" 
d="M892 0l-437.998 -0.000976562c-33.333 0 -64.5 -5.5 -93.5 -16.5s-54.167 -26.167 -75.5 -45.5s-38.166 -42.166 -50.499 -68.499s-18.5 -54.833 -18.5 -85.5c0 -31.333 6 -60 18 -86s28.667 -48.5 50 -67.5s46.5 -33.667 75.5 -44s60.5 -15.5 94.5 -15.5h1181v-123
h-1192c-44.667 0 -87.834 8 -129.501 24s-78.667 39.167 -111 69.5s-58 66.333 -77 108s-28.5 86.5 -28.5 134.5c0 46 8.66699 89.667 26 131s42.666 78 75.999 110c34 32 72.667 56.333 116 73s89.666 25 138.999 25h438v-123zM175.002 326.999
c1.33301 19.333 2.33594 36.6699 3.00293 52.0029s1.66699 32.666 3 51.999l157 50c-17.333 4.66699 -33.166 12.667 -47.499 24s-26.5 24.333 -36.5 39s-17.667 30.667 -23 48s-8 34.666 -8 51.999c0 20.667 3.66699 41.5 11 62.5s17.666 40.833 30.999 59.5
s29.666 35.167 48.999 49.5s41 25.166 65 32.499c20 6 39 9 57 9c1.33301 0 7.16602 -0.166992 17.499 -0.5s24.166 -2.66602 41.499 -6.99902s33.833 -9.66602 49.5 -15.999l45.5 -18.5l-21 -82l-36.5 13.5c-13 5 -26.333 9.16699 -40 12.5s-27.667 5.16602 -42 5.49902
s-28.833 -1.5 -43.5 -5.5c-14 -4 -27.167 -10.833 -39.5 -20.5s-22.833 -21 -31.5 -34s-14.334 -26.833 -17.001 -41.5c-1.33301 -6.66699 -2 -13.334 -2 -20.001c0 -8 1 -15.667 3 -23c6.66699 -21.333 24.834 -39.5 54.501 -54.5s64.5 -22.5 104.5 -22.5
c30 0 62 4.5 96 13.5s66.667 18.167 98 27.5l28 -88z" />
    <glyph glyph-name="uni0671.fina" unicode="&#x671;" horiz-adv-x="561" arabic-form="final" 
d="M562 0c-79.333 0 -142.834 9.33105 -190.501 27.998s-84.167 46.334 -109.5 83.001s-42 81.834 -50 135.501s-12 115.5 -12 185.5v842h125v-842c0 -62 2 -113 6 -153s14 -71.5 30 -94.5s39.833 -39 71.5 -48s74.834 -13.5 129.501 -13.5h14v-123h-14zM-4.00098 1430
l19 84.998h129l47 73l83 122c25.333 30.667 53.333 56.334 84 77.001s65 31 103 31c22 0 43.5 -4 64.5 -12s39.833 -20.5 56.5 -37.5s30.167 -38.5 40.5 -64.5s15.5 -56.667 15.5 -92c0 -34 -5.66699 -62.5 -17 -85.5s-25.666 -41.667 -42.999 -56
s-36.833 -24.666 -58.5 -30.999s-42.834 -9.5 -63.501 -9.5h-460zM455.999 1515c28 0 50.999 7.66699 68.999 23s27 40 27 74c0 38.667 -7.83301 68.5 -23.5 89.5s-38.167 31.5 -67.5 31.5c-21.333 0 -41.666 -6.66699 -60.999 -20s-38 -30.5 -56 -51.5
s-35.167 -44.167 -51.5 -69.5s-31.5 -50 -45.5 -74c-0.666992 -0.666992 -1 -1.66699 -1 -3h210z" />
    <glyph glyph-name="uni067E.fina" unicode="&#x67e;" horiz-adv-x="2241" arabic-form="final" 
d="M2261 123l0.00292969 -122.999h-44c-45.333 0 -87.833 6.5 -127.5 19.5s-74.834 32.167 -105.501 57.5c-8.66699 6.66699 -16.667 13.834 -24 21.501s-14.333 15.5 -21 23.5c-2.66699 -3.33301 -5.33398 -6.5 -8.00098 -9.5s-5.33398 -6.16699 -8.00098 -9.5
c-64.667 -67.333 -162 -101.666 -292 -102.999h-1170c-42.667 0 -83 7.16699 -121 21.5s-71.667 35.166 -101 62.499c-12 10.667 -24 24 -36 40s-23 34.667 -33 56s-18.167 45.666 -24.5 72.999s-9.5 58 -9.5 92c0 22 1.66699 45.833 5 71.5s7.5 51.334 12.5 77.001
s10.5 50.667 16.5 75l16.5 65c5 19 9.33301 34.5 13 46.5s5.83398 18.667 6.50098 20l117 -37c0 -0.666992 -3.33301 -12.334 -10 -35.001s-14 -50.334 -22 -83.001s-15.333 -67.167 -22 -103.5s-10 -68.5 -10 -96.5c0 -41.333 6 -76 18 -104s27.667 -50.833 47 -68.5
s41.166 -30.334 65.499 -38.001s48.833 -11.5 73.5 -11.5h1162c98.667 0 168 21.333 208 64c28.667 30.667 43 73.667 43 129v342h123v-342c0 -36 6.66699 -66.167 20 -90.5s30.5 -44.166 51.5 -59.499s44.333 -26.333 70 -33s51.167 -10 76.5 -10h44zM1157 -344.999
l124 125l124 -123l-125 -126zM754.003 -347.999l124 124l63.5 -63l62.5 -61l-125 -125zM952.003 -610.999l124 125l124 -123l-125 -126z" />
    <glyph glyph-name="uni067E.init" unicode="&#x67e;" horiz-adv-x="877" arabic-form="initial" 
d="M648 804l21.999 -94.999c8 -34.667 15.167 -70.5 21.5 -107.5s11.833 -74.5 16.5 -112.5s7.66699 -74.333 9 -109v-6c0 -45.333 -7 -90.333 -21 -135s-34.667 -84.834 -62 -120.501s-60.833 -64.334 -100.5 -86.001s-84.167 -32.5 -133.5 -32.5h-415v123h415
c32 2 60.167 10.333 84.5 25s44.666 33.834 60.999 57.501s28.833 50.5 37.5 80.5c7.33301 27.333 11 55.333 11 84v7c-0.666992 32 -3.16699 65.333 -7.5 100s-9.66602 69 -15.999 103s-13.166 67 -20.499 99l-21 89zM501.999 -347.999l124 125l124 -123l-125 -126z
M98.999 -350.999l124 124l63.5 -63l62.5 -61l-125 -125zM296.999 -613.999l124 125l124 -123l-125 -126z" />
    <glyph glyph-name="uni067E.medi" unicode="&#x67e;" horiz-adv-x="1046" arabic-form="medial" 
d="M1066 123l-0.00195312 -123h-164c-44.667 0 -87 6.66699 -127 20s-75 32.333 -105 57c-18 14.667 -33 30 -45 46c-34 -42.667 -76.667 -73.667 -128 -93s-113.666 -29.333 -186.999 -30h-330v123h330c39.333 1.33301 74.333 5 105 11s56.667 16.333 78 31
s37.833 34.167 49.5 58.5s18.167 55.5 19.5 93.5v359h123v-359c0 -36 6.66699 -66.333 20 -91s30.333 -44.667 51 -60s43.834 -26.333 69.501 -33s51.167 -10 76.5 -10h164zM560.998 -343l124 125l124 -123l-125 -126zM157.998 -346l124 124l63.5 -63l62.5 -61l-125 -125z
M355.998 -609l124 125l124 -123l-125 -126z" />
    <glyph glyph-name="uni0679.fina" unicode="&#x679;" horiz-adv-x="2241" arabic-form="final" 
d="M2261 123l0.00292969 -122.999h-44c-45.333 0 -87.833 6.5 -127.5 19.5s-74.834 32.167 -105.501 57.5c-8.66699 6.66699 -16.667 13.834 -24 21.501s-14.333 15.5 -21 23.5c-2.66699 -3.33301 -5.33398 -6.5 -8.00098 -9.5s-5.33398 -6.16699 -8.00098 -9.5
c-64.667 -67.333 -162 -101.666 -292 -102.999h-1170c-42.667 0 -83 7.16699 -121 21.5s-71.667 35.166 -101 62.499c-12 10.667 -24 24 -36 40s-23 34.667 -33 56s-18.167 45.666 -24.5 72.999s-9.5 58 -9.5 92c0 22 1.66699 45.833 5 71.5s7.5 51.334 12.5 77.001
s10.5 50.667 16.5 75l16.5 65c5 19 9.33301 34.5 13 46.5s5.83398 18.667 6.50098 20l117 -37c0 -0.666992 -3.33301 -12.334 -10 -35.001s-14 -50.334 -22 -83.001s-15.333 -67.167 -22 -103.5s-10 -68.5 -10 -96.5c0 -41.333 6 -76 18 -104s27.667 -50.833 47 -68.5
s41.166 -30.334 65.499 -38.001s48.833 -11.5 73.5 -11.5h1162c98.667 0 168 21.333 208 64c28.667 30.667 43 73.667 43 129v342h123v-342c0 -36 6.66699 -66.167 20 -90.5s30.5 -44.166 51.5 -59.499s44.333 -26.333 70 -33s51.167 -10 76.5 -10h44zM830.003 680.001
v84.998h100l47 73v485h83v-363c25.333 30.667 53.333 56.334 84 77.001s65 31 103 31c22 0 43.5 -4 64.5 -12s39.833 -20.5 56.5 -37.5s30.167 -38.5 40.5 -64.5s15.5 -56.667 15.5 -92c0 -34 -5.66699 -62.5 -17 -85.5s-25.666 -41.667 -42.999 -56
s-36.833 -24.666 -58.5 -30.999s-42.834 -9.5 -63.501 -9.5h-412zM1242 764.999c28 0 50.999 7.66699 68.999 23s27 40 27 74c0 38.667 -7.83301 68.5 -23.5 89.5s-38.167 31.5 -67.5 31.5c-21.333 0 -41.666 -6.66699 -60.999 -20s-38 -30.5 -56 -51.5
s-35.167 -44.167 -51.5 -69.5s-31.5 -50 -45.5 -74c-0.666992 -0.666992 -1 -1.66699 -1 -3h210z" />
    <glyph glyph-name="uni0679.init" unicode="&#x679;" horiz-adv-x="877" arabic-form="initial" 
d="M648 804l21.999 -94.999c8 -34.667 15.167 -70.5 21.5 -107.5s11.833 -74.5 16.5 -112.5s7.66699 -74.333 9 -109v-6c0 -45.333 -7 -90.333 -21 -135s-34.667 -84.834 -62 -120.501s-60.833 -64.334 -100.5 -86.001s-84.167 -32.5 -133.5 -32.5h-415v123h415
c32 2 60.167 10.333 84.5 25s44.666 33.834 60.999 57.501s28.833 50.5 37.5 80.5c7.33301 27.333 11 55.333 11 84v7c-0.666992 32 -3.16699 65.333 -7.5 100s-9.66602 69 -15.999 103s-13.166 67 -20.499 99l-21 89zM180.999 990.001v84.998h100l47 73v485h83v-363
c25.333 30.667 53.333 56.334 84 77.001s65 31 103 31c22 0 43.5 -4 64.5 -12s39.833 -20.5 56.5 -37.5s30.167 -38.5 40.5 -64.5s15.5 -56.667 15.5 -92c0 -34 -5.66699 -62.5 -17 -85.5s-25.666 -41.667 -42.999 -56s-36.833 -24.666 -58.5 -30.999
s-42.834 -9.5 -63.501 -9.5h-412zM592.999 1075c28 0 50.999 7.66699 68.999 23s27 40 27 74c0 38.667 -7.83301 68.5 -23.5 89.5s-38.167 31.5 -67.5 31.5c-21.333 0 -41.666 -6.66699 -60.999 -20s-38 -30.5 -56 -51.5s-35.167 -44.167 -51.5 -69.5s-31.5 -50 -45.5 -74
c-0.666992 -0.666992 -1 -1.66699 -1 -3h210z" />
    <glyph glyph-name="uni0679.medi" unicode="&#x679;" horiz-adv-x="1046" arabic-form="medial" 
d="M1066 123l-0.00195312 -123h-164c-44.667 0 -87 6.66699 -127 20s-75 32.333 -105 57c-18 14.667 -33 30 -45 46c-34 -42.667 -76.667 -73.667 -128 -93s-113.666 -29.333 -186.999 -30h-330v123h330c39.333 1.33301 74.333 5 105 11s56.667 16.333 78 31
s37.833 34.167 49.5 58.5s18.167 55.5 19.5 93.5v359h123v-359c0 -36 6.66699 -66.333 20 -91s30.333 -44.667 51 -60s43.834 -26.333 69.501 -33s51.167 -10 76.5 -10h164zM145.998 856v84.998h100l47 73v485h83v-363c25.333 30.667 53.333 56.334 84 77.001s65 31 103 31
c22 0 43.5 -4 64.5 -12s39.833 -20.5 56.5 -37.5s30.167 -38.5 40.5 -64.5s15.5 -56.667 15.5 -92c0 -34 -5.66699 -62.5 -17 -85.5s-25.666 -41.667 -42.999 -56s-36.833 -24.666 -58.5 -30.999s-42.834 -9.5 -63.501 -9.5h-412zM557.998 940.998
c28 0 50.999 7.66699 68.999 23s27 40 27 74c0 38.667 -7.83301 68.5 -23.5 89.5s-38.167 31.5 -67.5 31.5c-21.333 0 -41.666 -6.66699 -60.999 -20s-38 -30.5 -56 -51.5s-35.167 -44.167 -51.5 -69.5s-31.5 -50 -45.5 -74c-0.666992 -0.666992 -1 -1.66699 -1 -3h210z" />
    <glyph glyph-name="veh.isol" unicode="&#x6a4;" horiz-adv-x="2127" arabic-form="isolated" 
d="M1462 123c58.667 3.33301 112.332 7.49414 160.999 12.4941s91.167 15.5 127.5 31.5s66.166 39.667 89.499 71s39 75.333 47 132c-28 -4.66699 -61.333 -9.16699 -100 -13.5s-78 -6.5 -118 -6.5c-62.667 0 -119.667 6.83301 -171 20.5s-95.333 34.834 -132 63.501
s-65 65 -85 109s-30 96.333 -30 157c0 52.667 8.83301 102.834 26.5 150.501s42.5 89.334 74.5 125.001s70.667 63.834 116 84.501c42.667 18.667 89.667 28 141 28h10c56.667 -0.666992 105.667 -10.334 147 -29.001s76.666 -43.834 105.999 -75.501
s53.333 -68.5 72 -110.5s33.167 -86.667 43.5 -134s17.5 -96.166 21.5 -146.499s6 -99.166 6 -146.499c0 -87.333 -13.167 -159.666 -39.5 -216.999s-63.666 -103 -111.999 -137s-106.5 -57.833 -174.5 -71.5s-143.667 -20.5 -227 -20.5h-1006
c-42.667 0 -83.167 7.16699 -121.5 21.5s-72.166 35.5 -101.499 63.5c-12 10.667 -24 23.834 -36 39.501s-22.833 34.167 -32.5 55.5s-17.667 45.666 -24 72.999s-9.5 58 -9.5 92c0 22 1.66699 45.833 5 71.5s7.5 51.334 12.5 77.001s10.5 50.667 16.5 75l16.5 65
c5 19 9.33301 34.667 13 47s5.83398 19.166 6.50098 20.499l117 -37l-4 -16l-12.5 -43c-5 -17.333 -10.167 -37.166 -15.5 -59.499s-10.5 -45.166 -15.5 -68.499s-9 -46.5 -12 -69.5s-4.5 -43.833 -4.5 -62.5c0 -41.333 6 -76 18 -104s27.5 -50.833 46.5 -68.5
s40.5 -30.334 64.5 -38.001s48.333 -11.5 73 -11.5h1006zM1669 472.994c20.667 0 41.5029 0.669922 62.5029 2.00293s41.167 3.16602 60.5 5.49902s37.666 4.83301 54.999 7.5l45 7c-0.666992 29.333 -2.33398 61.166 -5.00098 95.499s-7.33398 69 -14.001 104
s-16.167 68.667 -28.5 101s-28.5 61.166 -48.5 86.499s-44.5 45.5 -73.5 60.5s-63.5 22.5 -103.5 22.5c-42 0 -78.5 -7.66699 -109.5 -23s-56.5 -35.333 -76.5 -60s-34.833 -53 -44.5 -85s-14.5 -64.333 -14.5 -97c0 -45.333 7.5 -82.5 22.5 -111.5s35.833 -52 62.5 -69
s58 -29 94 -36s74.667 -10.5 116 -10.5zM1549 1432l-124 -125l-124 123l125 126zM1952 1435l-124 -124l-126 124l125 125zM1754 1707l-124 -124l-126 124l125 125z" />
    <glyph glyph-name="veh.fina" unicode="&#x6a4;" horiz-adv-x="2128" arabic-form="final" 
d="M1175 123c106.667 0 205.334 8.66699 296.001 26c-30 18.667 -58 40 -84 64s-48.333 50 -67 78s-33.334 58 -44.001 90s-16 65.667 -16 101c0 56 9.66699 107.833 29 155.5s46.166 88.667 80.499 123s75.5 61.166 123.5 80.499c44 17.333 92.667 26 146 26h20
c48.667 0 95 -10.167 139 -30.5s82.5 -48.5 115.5 -84.5s59 -77.5 78 -124.5s28.5 -95.5 28.5 -145.5c0 -65.333 -17.5 -126.333 -52.5 -183s-85.833 -106.667 -152.5 -150c86.667 -17.333 176.667 -26 270 -26h71v-123h-71c-80 0 -157.333 5.83301 -232 17.5
s-144.334 28.834 -209.001 51.501c-66 -22.667 -138.167 -39.834 -216.5 -51.501s-162.5 -17.5 -252.5 -17.5h-719c-42.667 0 -83.167 7.16699 -121.5 21.5s-72.166 35.5 -101.499 63.5c-12 10.667 -24 23.834 -36 39.501s-22.833 34.167 -32.5 55.5
s-17.667 45.666 -24 72.999s-9.5 58 -9.5 92c0 22 1.66699 45.833 5 71.5s7.5 51.334 12.5 77.001s10.5 50.667 16.5 75l16.5 65c5 19 9.33301 34.667 13 47s5.83398 19.166 6.50098 20.499l117 -37l-4 -16l-12.5 -43c-5 -17.333 -10.167 -37.166 -15.5 -59.499
s-10.5 -45.166 -15.5 -68.499s-9 -46.5 -12 -69.5s-4.5 -43.833 -4.5 -62.5c0 -41.333 6 -76 18 -104s27.5 -50.833 46.5 -68.5s40.5 -30.334 64.5 -38.001s48.333 -11.5 73 -11.5h719zM1644 200c14 5.33301 27.4971 11 40.4971 17s25.5 12.667 37.5 20
c20 11.333 40.333 24.833 61 40.5s39.5 33.5 56.5 53.5s30.833 42.667 41.5 68s16 53 16 83c0 32 -5.66699 63.667 -17 95s-27.666 59.333 -48.999 84s-47.166 44.667 -77.499 60s-64.833 23 -103.5 23c-40.667 0 -77.334 -6.16699 -110.001 -18.5s-60.667 -30 -84 -53
s-41.333 -50.5 -54 -82.5s-19 -68 -19 -108c0 -32 6.16699 -61 18.5 -87s28.333 -49.667 48 -71s41.334 -40 65.001 -56s47.167 -30 70.5 -42c9.33301 -4.66699 18.833 -9.16699 28.5 -13.5s19.834 -8.5 30.501 -12.5zM1565 1247l-124 -125l-124 123l125 126zM1968 1250
l-124 -124l-126 124l125 125zM1770 1522l-124 -124l-126 124l125 125z" />
    <glyph glyph-name="veh.init" unicode="&#x6a4;" horiz-adv-x="1036" arabic-form="initial" 
d="M575 473c20.667 0 41.5029 0.669922 62.5029 2.00293s41.167 3.16602 60.5 5.49902s37.666 4.83301 54.999 7.5l45 7c-0.666992 29.333 -2.33398 61.166 -5.00098 95.499s-7.33398 69 -14.001 104s-16.167 68.667 -28.5 101s-28.5 61.166 -48.5 86.499
s-44.5 45.5 -73.5 60.5s-63.5 22.5 -103.5 22.5c-42 0 -78.5 -7.66699 -109.5 -23s-56.5 -35.333 -76.5 -60s-34.833 -53 -44.5 -85s-14.5 -64.333 -14.5 -97c0 -45.333 7.5 -82.5 22.5 -111.5s35.833 -52 62.5 -69s58 -29 94 -36s74.667 -10.5 116 -10.5zM525.003 1088
c56 -0.666992 104.832 -10.3389 146.499 -29.0059s77.167 -43.834 106.5 -75.501s53.333 -68.5 72 -110.5s33.167 -86.667 43.5 -134s17.5 -96.166 21.5 -146.499s6 -99.166 6 -146.499c0 -87.333 -13.167 -159.666 -39.5 -216.999s-63.666 -103 -111.999 -137
s-106.5 -57.833 -174.5 -71.5s-143.667 -20.5 -227 -20.5h-387v123h387c58.667 3.33301 112.334 7.5 161.001 12.5s91.167 15.5 127.5 31.5s66.166 39.667 89.499 71s39 75.333 47 132c-28 -4.66699 -61.333 -9.16699 -100 -13.5s-78 -6.5 -118 -6.5
c-62.667 0 -119.667 6.83301 -171 20.5s-95.333 34.834 -132 63.501s-65 65 -85 109s-30 96.333 -30 157c0 52.667 8.83301 102.834 26.5 150.501s42.5 89.334 74.5 125.001s70.667 63.834 116 84.501c42.667 18.667 89.667 28 141 28h10zM442.002 1381l-124 -125l-124 123
l125 126zM845.002 1384l-124 -124l-126 124l125 125zM647.002 1656l-124 -124l-126 124l125 125z" />
    <glyph glyph-name="veh.medi" unicode="&#x6a4;" horiz-adv-x="1084" arabic-form="medial" 
d="M567 200c14 5.33301 27.4971 11 40.4971 17s25.5 12.667 37.5 20c20 11.333 40.333 24.833 61 40.5s39.5 33.5 56.5 53.5s30.833 42.667 41.5 68s16 53 16 83c0 32 -5.66699 63.667 -17 95s-27.666 59.333 -48.999 84s-47.166 44.667 -77.499 60s-64.833 23 -103.5 23
c-40.667 0 -77.334 -6.16699 -110.001 -18.5s-60.667 -30 -84 -53s-41.333 -50.5 -54 -82.5s-19 -68 -19 -108c0 -32 6.16699 -61 18.5 -87s28.333 -49.667 48 -71s41.334 -40 65.001 -56s47.167 -30 70.5 -42c9.33301 -4.66699 18.833 -9.16699 28.5 -13.5
s19.834 -8.5 30.501 -12.5zM581.997 867c48.667 0 95.002 -10.166 139.002 -30.499s82.5 -48.5 115.5 -84.5s59 -77.5 78 -124.5s28.5 -95.5 28.5 -145.5c0 -65.333 -17.5 -126.333 -52.5 -183s-85.833 -106.667 -152.5 -150c86.667 -17.333 176.667 -26 270 -26h99v-123
h-99c-80 0 -157.333 5.83301 -232 17.5s-144.334 28.834 -209.001 51.501c-66 -22.667 -138.167 -39.834 -216.5 -51.501s-162.5 -17.5 -252.5 -17.5h-123v123h123c106.667 0 205.334 8.66699 296.001 26c-30 18.667 -58 40 -84 64s-48.333 50 -67 78s-33.334 58 -44.001 90
s-16 65.667 -16 101c0 56 9.66699 107.833 29 155.5s46.166 88.667 80.499 123s75.5 61.166 123.5 80.499c44 17.333 92.667 26 146 26h20zM458.999 1264l-124 -125l-124 123l125 126zM861.999 1267l-124 -124l-126 124l125 125zM663.999 1539l-124 -124l-126 124l125 125z
" />
    <glyph glyph-name="uni0686.fina" unicode="&#x686;" horiz-adv-x="1575" arabic-form="final" 
d="M483 1014c14.667 -2 27.4971 -3.66895 38.4971 -5.00195s23.333 -3.5 37 -6.5s30.334 -7.5 50.001 -13.5s45.667 -15.167 78 -27.5l121 -48l179.5 -74.5l133 -57l113.5 -49.5l79.5 -34.5l30 -14l-4 -114c-0.666992 -0.666992 -17 -6.83398 -49 -18.501l-137 -50.5v-184
c0 -36 6.66699 -66.333 20 -91s30.5 -44.667 51.5 -60s44.333 -26.333 70 -33s51.167 -10 76.5 -10h225v-123h-225c-44.667 0 -87 6.66699 -127 20s-75.333 32.333 -106 57c-35.333 29.333 -62.166 64.166 -80.499 104.499s-27.5 85.5 -27.5 135.5v138l-144 -53.5
l-167 -62.5l-125.5 -49c-43 -17.333 -84.667 -36.666 -125 -57.999s-78 -45.666 -113 -72.999s-64.667 -58.666 -89 -93.999s-42.166 -75.333 -53.499 -120c-8 -28.667 -12 -60 -12 -94c0 -18.667 1.33301 -38 4 -58c2.66699 -78 19.834 -146.5 51.501 -205.5
s74 -108.167 127 -147.5s115.333 -68.833 187 -88.5s149.167 -29.5 232.5 -29.5h438v-123h-438c-113.333 0 -213.5 14.167 -300.5 42.5s-160.5 68.166 -220.5 119.499s-106.667 113.166 -140 185.499s-53.333 152.5 -60 240.5c-1.33301 20 -2 39.333 -2 58
c0 44.667 5.33301 89.667 16 135s29.167 89.333 55.5 132s58.5 80.834 96.5 114.501s79.833 64 125.5 91s94.167 51.5 145.5 73.5s103.666 43 156.999 63l276 104l202 75l-206 89.5l-198 83c-62 25 -116.667 45.5 -164 61.5s-82 24 -104 24
c-42 0 -79.833 -16.667 -113.5 -50s-58.167 -79.666 -73.5 -138.999l-119 31c10 36.667 23.833 71.5 41.5 104.5s39.334 62.333 65.001 88s55.167 46.334 88.5 62.001s70.666 24.5 111.999 26.5zM833.997 -112.002l124 125l124 -123l-125 -126zM430.997 -115.002l124 124
l63.5 -63l62.5 -61l-125 -125zM628.997 -378.002l124 125l124 -123l-125 -126z" />
    <glyph glyph-name="uni0686.init" unicode="&#x686;" horiz-adv-x="1418" arabic-form="initial" 
d="M478 853c20.667 0 47.167 -3.83203 79.5 -11.499s68.5 -17.834 108.5 -30.501s82.333 -27.167 127 -43.5l134 -51l130 -52.5l115.5 -48l90 -37.5c25 -10.333 42.833 -17.5 53.5 -21.5l17 -111l-184 -133c-56.667 -40.667 -113.334 -77.5 -170.001 -110.5
s-115.334 -62.167 -176.001 -87.5s-128 -46.5 -202 -63.5s-156.667 -29.833 -248 -38.5s-215.666 -13 -372.999 -13v123h37c122.667 0 221.5 3 296.5 9s145 15.5 210 28.5s125 29.5 180 49.5s108.833 43.667 161.5 71s105.834 58.166 159.501 92.499l173.5 114.5l-142.5 54
l-145.5 55l-140 51l-125 42.5c-38 12.333 -71.5 22 -100.5 29s-51.5 10.5 -67.5 10.5c-42 0 -79.833 -16.667 -113.5 -50s-58.167 -79.666 -73.5 -138.999l-119 31c10 38.667 24.167 75 42.5 109s40.5 63.667 66.5 89s55.5 45.5 88.5 60.5s69.5 22.5 109.5 22.5z
M760 -357.999l124 125l124 -123l-125 -126zM357 -360.999l124 124l63.5 -63l62.5 -61l-125 -125zM555 -623.999l124 125l124 -123l-125 -126z" />
    <glyph glyph-name="uni0686.medi" unicode="&#x686;" horiz-adv-x="1526" arabic-form="medial" 
d="M1541 0l-72.001 -0.00390625c-22 0 -46.333 1.66699 -73 5s-53.167 8.33301 -79.5 15s-51 14.834 -74 24.501s-42.167 20.5 -57.5 32.5c-30 24 -54.167 52.167 -72.5 84.5s-30.5 67.833 -36.5 106.5c-45.333 -28.667 -91.166 -55.334 -137.499 -80.001
s-94.5 -47 -144.5 -67s-102.833 -37.5 -158.5 -52.5s-116 -27.5 -181 -37.5s-135.5 -17.667 -211.5 -23s-162.667 -8 -260 -8v123c106.667 0 200.5 3 281.5 9s155.667 15.333 224 28s132 28.834 191 48.501s116.333 42.834 172 69.501s111.5 57.167 167.5 91.5
s115 72.5 177 114.5l-142.5 54.5l-145.5 55.5l-139.5 52c-45 16.667 -86.5 31.167 -124.5 43.5s-71.5 22.166 -100.5 29.499s-51.5 11 -67.5 11c-42 0 -79.833 -16.667 -113.5 -50s-58.167 -79.666 -73.5 -138.999l-119 31c10 38.667 24.167 75 42.5 109
s40.5 63.667 66.5 89s55.5 45.5 88.5 60.5s69.5 22.5 109.5 22.5c20.667 0 47.167 -3.83301 79.5 -11.5s68.5 -17.834 108.5 -30.501s82.333 -27.167 127 -43.5l134 -51l130 -52.5l115.5 -48l90 -37.5c25 -10.333 42.833 -17.5 53.5 -21.5l17 -111l-74.5 -54l-71.5 -51
c0 -35.333 7.33301 -66.666 22 -93.999s34.667 -50.166 60 -68.499s55.333 -32.166 90 -41.499s71.667 -14 111 -14h72v-123zM768.999 -359.004l124 125l124 -123l-125 -126zM365.999 -362.004l124 124l63.5 -63l62.5 -61l-125 -125zM563.999 -625.004l124 125l124 -123
l-125 -126z" />
    <glyph glyph-name="uni0688.fina" unicode="&#x688;" horiz-adv-x="1254" arabic-form="final" 
d="M1271 123l0.00292969 -123h-16c-24.667 0 -50 4.66699 -76 14s-51.5 22.333 -76.5 39s-48.667 36 -71 58s-41.833 45.667 -58.5 71c-0.666992 -1.33301 -1 -2.33301 -1 -3s-0.333008 -1.33398 -1 -2.00098c-14.667 -34.667 -36.334 -64.167 -65.001 -88.5
s-61.167 -44.333 -97.5 -60s-75.333 -27 -117 -34s-82.834 -10.5 -123.501 -10.5c-44 0 -85.333 2.16699 -124 6.5s-76.5 11.5 -113.5 21.5s-74.667 23.333 -113 40s-78.833 37.334 -121.5 62.001l63 106l52 -32c28 -16.667 61.333 -31 100 -43s79.5 -21.167 122.5 -27.5
s86.5 -9.5 130.5 -9.5h12c38.667 0 75 3 109 9c44 7.33301 81.833 20.166 113.5 38.499s53.167 41.166 64.5 68.499c6 14.667 9 30 9 46c0 10.667 -2.5 26.334 -7.5 47.001s-17.167 46 -36.5 76l-376 570l103 66l405 -613l73.5 -109.5
c24.333 -35 48.666 -66.167 72.999 -93.5s48.833 -49.166 73.5 -65.499s49.667 -24.5 75 -24.5h16zM252.003 1248v84.998h100l47 73v485h83v-363c25.333 30.667 53.333 56.334 84 77.001s65 31 103 31c22 0 43.5 -4 64.5 -12s39.833 -20.5 56.5 -37.5
s30.167 -38.5 40.5 -64.5s15.5 -56.667 15.5 -92c0 -34 -5.66699 -62.5 -17 -85.5s-25.666 -41.667 -42.999 -56s-36.833 -24.666 -58.5 -30.999s-42.834 -9.5 -63.501 -9.5h-412zM664.003 1333c28 0 50.999 7.66699 68.999 23s27 40 27 74
c0 38.667 -7.83301 68.5 -23.5 89.5s-38.167 31.5 -67.5 31.5c-21.333 0 -41.666 -6.66699 -60.999 -20s-38 -30.5 -56 -51.5s-35.167 -44.167 -51.5 -69.5s-31.5 -50 -45.5 -74c-0.666992 -0.666992 -1 -1.66699 -1 -3h210z" />
    <glyph glyph-name="uni0698.fina" unicode="&#x698;" horiz-adv-x="955" arabic-form="final" 
d="M970 0l-46 0.000976562c-41.333 0 -80.5 5.66699 -117.5 17s-70.5 27.666 -100.5 48.999v-33c0 -193.333 -47.833 -339.333 -143.5 -438s-236.834 -148 -423.501 -148h-139v122h139c156.667 0 271.334 41 344.001 123c66.667 76 100 189.667 100 341v642h123v-358
c0 -36 6.66699 -66.333 20 -91s30.5 -44.667 51.5 -60s44.333 -26.333 70 -33s51.167 -10 76.5 -10h46v-123zM460 1082l-124 -125l-124 123l125 126zM863 1085l-124 -124l-126 124l125 125zM665 1357l-124 -124l-126 124l125 125z" />
    <glyph glyph-name="uni0691.fina" unicode="&#x691;" horiz-adv-x="955" arabic-form="final" 
d="M970 0l-46 0.000976562c-41.333 0 -80.5 5.66699 -117.5 17s-70.5 27.666 -100.5 48.999v-33c0 -193.333 -47.833 -339.333 -143.5 -438s-236.834 -148 -423.501 -148h-139v122h139c156.667 0 271.334 41 344.001 123c66.667 76 100 189.667 100 341v642h123v-358
c0 -36 6.66699 -66.333 20 -91s30.5 -44.667 51.5 -60s44.333 -26.333 70 -33s51.167 -10 76.5 -10h46v-123zM257 887.001v84.998h100l47 73v485h83v-363c25.333 30.667 53.333 56.334 84 77.001s65 31 103 31c22 0 43.5 -4 64.5 -12s39.833 -20.5 56.5 -37.5
s30.167 -38.5 40.5 -64.5s15.5 -56.667 15.5 -92c0 -34 -5.66699 -62.5 -17 -85.5s-25.666 -41.667 -42.999 -56s-36.833 -24.666 -58.5 -30.999s-42.834 -9.5 -63.501 -9.5h-412zM669 971.999c28 0 50.999 7.66699 68.999 23s27 40 27 74
c0 38.667 -7.83301 68.5 -23.5 89.5s-38.167 31.5 -67.5 31.5c-21.333 0 -41.666 -6.66699 -60.999 -20s-38 -30.5 -56 -51.5s-35.167 -44.167 -51.5 -69.5s-31.5 -50 -45.5 -74c-0.666992 -0.666992 -1 -1.66699 -1 -3h210z" />
    <glyph glyph-name="uni06A9.fina" unicode="&#x6a9;" horiz-adv-x="2183" arabic-form="final" 
d="M988 123c85.333 0 160.669 2.00195 226.002 6.00195s121.666 11.167 168.999 21.5s85.833 24.666 115.5 42.999s51.5 41.833 65.5 70.5c11.333 22.667 17.333 46.667 18 72v7c0 22 -3.33301 45.167 -10 69.5s-16.5 48.666 -29.5 72.999s-27.5 47.166 -43.5 68.499
l-73 98.5l-62.5 84.5l-56.5 76.5l-55.5 75l-59.5 80.5l-68 92h1l24 92l939 423l50 -112l-869 -392l232 -315.5l239 -320.5l105.5 -137c31 -38.667 62.667 -70.834 95 -96.501s67.666 -45.167 105.999 -58.5s84.5 -20.333 138.5 -21h16v-123h-17
c-60.667 1.33301 -113.834 9 -159.5 23c-45.667 14 -87.167 33.333 -124.5 58s-72 54.334 -104 89.001s-64.333 73.334 -97 116.001c-7.33301 -50 -24 -91.833 -50 -125.5s-58 -61 -96 -82s-80.333 -36.833 -127 -47.5s-93.834 -18.334 -141.501 -23.001
s-94.334 -7.16699 -140.001 -7.5s-86.5 -0.5 -122.5 -0.5h-578c-42.667 0 -83.167 7.16699 -121.5 21.5s-72.166 35.5 -101.499 63.5c-12 10.667 -24 23.834 -36 39.501s-22.833 34.167 -32.5 55.5s-17.667 45.666 -24 72.999s-9.5 58 -9.5 92c0 22 1.66699 45.833 5 71.5
s7.5 51.334 12.5 77.001s10.5 50.667 16.5 75l16.5 65c5 19 9.33301 34.667 13 47s5.83398 19.166 6.50098 20.499l117 -37l-4 -16l-12.5 -43c-5 -17.333 -10.167 -37.166 -15.5 -59.499s-10.5 -45.166 -15.5 -68.499s-9 -46.5 -12 -69.5s-4.5 -43.833 -4.5 -62.5
c0 -41.333 6 -76 18 -104s27.5 -50.833 46.5 -68.5s40.5 -30.334 64.5 -38.001s48.333 -11.5 73 -11.5h544z" />
    <glyph glyph-name="uni06A9.init" unicode="&#x6a9;" horiz-adv-x="1151" arabic-form="initial" 
d="M1151 1460l-838.999 -369.003c44 -37.333 103 -90.166 177 -158.499s158.667 -153.166 254 -254.499c84 -88.667 141.333 -175 172 -259c16 -44 24.333 -86 25 -126v-5c0 -38.667 -7 -74.334 -21 -107.001c-7.33301 -16.667 -18.833 -35.5 -34.5 -56.5
s-38 -40.667 -67 -59s-65.5 -33.833 -109.5 -46.5s-98 -19 -162 -19h-569v123h569c75.333 0 136 11 182 33c39.333 18.667 65.333 43.334 78 74.001c8 18 12 37.667 12 59c0 30.667 -10.833 71.334 -32.5 122.001s-65.834 111.667 -132.501 183
c-71.333 76 -137.166 142.833 -197.499 200.5l-156.5 145c-44 39 -78.333 68.5 -103 88.5s-37.334 30 -38.001 30l13 105l930 410z" />
    <glyph glyph-name="uni06A9.medi" unicode="&#x6a9;" horiz-adv-x="1248" arabic-form="medial" 
d="M802 436c40 -54 75.999 -100.664 107.999 -139.997s64.667 -71.833 98 -97.5s70 -44.667 110 -57s88.333 -18.5 145 -18.5v-123c-63.333 0 -118.833 6.66699 -166.5 20s-90.667 32.5 -129 57.5s-73.833 55 -106.5 90s-66 74.5 -100 118.5
c-2.66699 -14.667 -6.16699 -28.334 -10.5 -41.001s-9.16602 -24.667 -14.499 -36c-19.333 -42 -45.833 -76.5 -79.5 -103.5s-71.167 -48.333 -112.5 -64s-85 -26.5 -131 -32.5s-91.333 -9 -136 -9h-296v123h296c32 1.33301 65.5 3.83301 100.5 7.5s68.5 10.5 100.5 20.5
s61 24 87 42s46.333 41.667 61 71c11.333 22.667 17.333 46.667 18 72v7c0 22 -3.33301 45.167 -10 69.5s-16.5 48.666 -29.5 72.999s-27.5 47.166 -43.5 68.499l-73 98.5l-62.5 84.5l-56.5 76.5l-55.5 75l-59.5 80.5l-68 92h1l24 92l939 423l50 -112l-869 -392l232 -315.5z
" />
    <glyph glyph-name="uni06AF.fina" unicode="&#x6af;" horiz-adv-x="2183" arabic-form="final" 
d="M988 123c85.333 0 160.669 2.00195 226.002 6.00195s121.666 11.167 168.999 21.5s85.833 24.666 115.5 42.999s51.5 41.833 65.5 70.5c11.333 22.667 17.333 46.667 18 72v7c0 22 -3.33301 45.167 -10 69.5s-16.5 48.666 -29.5 72.999s-27.5 47.166 -43.5 68.499
l-73 98.5l-62.5 84.5l-56.5 76.5l-55.5 75l-59.5 80.5l-68 92h1l24 92l939 423l50 -112l-869 -392l232 -315.5l239 -320.5l105.5 -137c31 -38.667 62.667 -70.834 95 -96.501s67.666 -45.167 105.999 -58.5s84.5 -20.333 138.5 -21h16v-123h-17
c-60.667 1.33301 -113.834 9 -159.5 23c-45.667 14 -87.167 33.333 -124.5 58s-72 54.334 -104 89.001s-64.333 73.334 -97 116.001c-7.33301 -50 -24 -91.833 -50 -125.5s-58 -61 -96 -82s-80.333 -36.833 -127 -47.5s-93.834 -18.334 -141.501 -23.001
s-94.334 -7.16699 -140.001 -7.5s-86.5 -0.5 -122.5 -0.5h-578c-42.667 0 -83.167 7.16699 -121.5 21.5s-72.166 35.5 -101.499 63.5c-12 10.667 -24 23.834 -36 39.501s-22.833 34.167 -32.5 55.5s-17.667 45.666 -24 72.999s-9.5 58 -9.5 92c0 22 1.66699 45.833 5 71.5
s7.5 51.334 12.5 77.001s10.5 50.667 16.5 75l16.5 65c5 19 9.33301 34.667 13 47s5.83398 19.166 6.50098 20.499l117 -37l-4 -16l-12.5 -43c-5 -17.333 -10.167 -37.166 -15.5 -59.499s-10.5 -45.166 -15.5 -68.499s-9 -46.5 -12 -69.5s-4.5 -43.833 -4.5 -62.5
c0 -41.333 6 -76 18 -104s27.5 -50.833 46.5 -68.5s40.5 -30.334 64.5 -38.001s48.333 -11.5 73 -11.5h544zM1226 1478l759 327l40 -80l-807 -349z" />
    <glyph glyph-name="uni06AF.init" unicode="&#x6af;" horiz-adv-x="1151" arabic-form="initial" 
d="M1151 1460l-838.999 -369.003c44 -37.333 103 -90.166 177 -158.499s158.667 -153.166 254 -254.499c84 -88.667 141.333 -175 172 -259c16 -44 24.333 -86 25 -126v-5c0 -38.667 -7 -74.334 -21 -107.001c-7.33301 -16.667 -18.833 -35.5 -34.5 -56.5
s-38 -40.667 -67 -59s-65.5 -33.833 -109.5 -46.5s-98 -19 -162 -19h-569v123h569c75.333 0 136 11 182 33c39.333 18.667 65.333 43.334 78 74.001c8 18 12 37.667 12 59c0 30.667 -10.833 71.334 -32.5 122.001s-65.834 111.667 -132.501 183
c-71.333 76 -137.166 142.833 -197.499 200.5l-156.5 145c-44 39 -78.333 68.5 -103 88.5s-37.334 30 -38.001 30l13 105l930 410zM205.001 1487l759 327l40 -80l-807 -349z" />
    <glyph glyph-name="uni06AF.medi" unicode="&#x6af;" horiz-adv-x="1248" arabic-form="medial" 
d="M802 436c40 -54 75.999 -100.664 107.999 -139.997s64.667 -71.833 98 -97.5s70 -44.667 110 -57s88.333 -18.5 145 -18.5v-123c-63.333 0 -118.833 6.66699 -166.5 20s-90.667 32.5 -129 57.5s-73.833 55 -106.5 90s-66 74.5 -100 118.5
c-2.66699 -14.667 -6.16699 -28.334 -10.5 -41.001s-9.16602 -24.667 -14.499 -36c-19.333 -42 -45.833 -76.5 -79.5 -103.5s-71.167 -48.333 -112.5 -64s-85 -26.5 -131 -32.5s-91.333 -9 -136 -9h-296v123h296c32 1.33301 65.5 3.83301 100.5 7.5s68.5 10.5 100.5 20.5
s61 24 87 42s46.333 41.667 61 71c11.333 22.667 17.333 46.667 18 72v7c0 22 -3.33301 45.167 -10 69.5s-16.5 48.666 -29.5 72.999s-27.5 47.166 -43.5 68.499l-73 98.5l-62.5 84.5l-56.5 76.5l-55.5 75l-59.5 80.5l-68 92h1l24 92l939 423l50 -112l-869 -392l232 -315.5z
M253.999 1477l759 327l40 -80l-807 -349z" />
    <glyph glyph-name="uni06BA.fina" unicode="&#x6ba;" horiz-adv-x="1679" arabic-form="final" 
d="M1694 123l0.00195312 -123.004h-31c-41.333 0 -80.333 6.33301 -117 19s-70 31 -100 55v-124c0 -150.667 -35.333 -266.667 -106 -348c-26 -30.667 -55.167 -55.834 -87.5 -75.501s-66.833 -35.334 -103.5 -47.001s-75.167 -19.834 -115.5 -24.501s-81.5 -7 -123.5 -7
h-235c-96 0 -183.333 21.167 -262 63.5s-142.334 102.5 -191.001 180.5c-34 54 -59 112.333 -75 175c-14 52 -21 108.667 -21 170c0 12.667 0.333008 25.334 1 38.001c3.33301 83.333 18 170 44 260s62.667 183.667 110 281l110 -53
c-40 -83.333 -71.5 -163.166 -94.5 -239.499s-37.167 -148.5 -42.5 -216.5c-2 -22.667 -3 -44.667 -3 -66c0 -43.333 5 -89.666 15 -138.999s30 -97.666 60 -144.999c37.333 -59.333 86.333 -105.166 147 -137.499s128 -48.5 202 -48.5h235
c161.333 0 273.666 37 336.999 111c50.667 58.667 76 148 76 268v726h123v-330c0 -33.333 5.33301 -63.666 16 -90.999s25.5 -50.666 44.5 -69.999s41.833 -34.5 68.5 -45.5s56 -16.5 88 -16.5h31z" />
    <glyph glyph-name="uni06C0.fina" unicode="&#x6c0;" horiz-adv-x="1261" arabic-form="final" 
d="M1283 0l-19.999 -0.00195312c-52.667 0 -101.834 6.33301 -147.501 19s-88.5 31.334 -128.5 56.001c-46 29.333 -85.667 66 -119 110c-14.667 19.333 -27.667 40.333 -39 63s-21.333 46.667 -30 72c-20.667 -42 -46.5 -80.167 -77.5 -114.5
s-69.167 -60.166 -114.5 -77.499c-54 -21.333 -107.333 -32 -160 -32c-4.66699 0 -22.5 0.5 -53.5 1.5s-70.167 13 -117.5 36s-87.833 55.5 -121.5 97.5s-55.5 91.333 -65.5 148c-4 22 -6 43.667 -6 65c0 45.333 10 94 30 146s55 102.667 105 152
c48 48 107.333 90.333 178 127s151 67 241 91l-27 134l122 34l50.5 -217l38.5 -166l22 -96.5l20.5 -89l21.5 -86.5l24 -91c10.667 -39.333 24.667 -72.833 42 -100.5s36.833 -51.167 58.5 -70.5s44.167 -34.833 67.5 -46.5s46.5 -20.5 69.5 -26.5s44.5 -10 64.5 -12
s37.333 -3 52 -3h20v-123zM672.001 842.998c-78.667 -21.333 -148.502 -47.5 -209.502 -78.5s-111.667 -65.667 -152 -104s-69.166 -79.5 -86.499 -123.5c-12 -30 -18 -60.667 -18 -92c0 -14.667 1.33301 -29.334 4 -44.001c6.66699 -38 22.667 -70.667 48 -98
s55 -48.166 89 -62.499s69.667 -21.833 107 -22.5h5c34.667 0 66 6.66699 94 20c38 18.667 68.667 41.167 92 67.5s41.333 53.833 54 82.5s21 57.167 25 85.5s5.83301 53.833 5.5 76.5s-1.66602 41.167 -3.99902 55.5s-3.5 21.833 -3.5 22.5l-18.5 81l-13 57l-10 42z
M695.999 1820c13.333 0 27.5 -0.826172 42.5 -2.49316s30.833 -4.83398 47.5 -9.50098l-24 -91c-23.333 6 -45 9 -65 9c-37.333 0 -68 -10 -92 -30c-14.667 -12 -26.167 -27.167 -34.5 -45.5s-13.5 -38.166 -15.5 -59.499l95 -16c23.333 -4 41.666 -7.66699 54.999 -11
c20 -4.66699 34.667 -10.334 44 -17.001c18 -12.667 27 -29.334 27 -50.001c0 -6 -0.166992 -13.5 -0.5 -22.5s-1.5 -19.167 -3.5 -30.5s-5.33301 -23 -10 -35s-11 -24 -19 -36c-37.333 -54 -102.666 -81 -195.999 -81h-110v94h110c28 0 50.667 2.66699 68 8
s30.666 12.166 39.999 20.499s15.833 17.666 19.5 27.999s5.83398 20.5 6.50098 30.5c-15.333 3.33301 -38.833 7.66602 -70.5 12.999l-110.5 19l-36 6l-3 36c-0.666992 8 -1 16 -1 24c0 35.333 6.5 70.666 19.5 105.999s34.5 65.666 64.5 90.999
c16 13.333 36.333 25.333 61 36s55 16 91 16z" />
    <glyph glyph-name="uni06C1.fina" unicode="&#x6c1;" horiz-adv-x="1287" arabic-form="final" 
d="M735 1057l58.999 -252.004l25 -106.5l23.5 -98.5l23.5 -94.5l24 -94.5c14 -53.333 34.167 -98.166 60.5 -134.499s56 -66 89 -89s67.333 -39.5 103 -49.5s69.834 -15 102.501 -15h58v-123h-58c-51.333 0 -101.333 7.83301 -150 23.5s-93.334 38.5 -134.001 68.5
c-46.667 34 -86.167 75.333 -118.5 124s-56.166 103.334 -71.499 164.001c-8.66699 32 -16.834 63.833 -24.501 95.5l-23 95.5l-23.5 99l-25 107l-46 194l-44 -9l-47 -9.5l-42.5 -8.5c-13 -2.66699 -23.5 -5 -31.5 -7c-40 -9.33301 -73.667 -23.166 -101 -41.499
s-49.333 -42.5 -66 -72.5c-17.333 -30 -29 -64.333 -35 -103c-4.66699 -28.667 -7 -58.667 -7 -90c0 -10.667 0.666992 -29.334 2 -56.001s6 -62.5 14 -107.5s17.5 -89 28.5 -132s22.5 -84.167 34.5 -123.5l33 -106l-117 -38c-20 62 -39.667 127.333 -59 196
s-34.666 138.334 -45.999 209.001c-8.66699 56 -13 108 -13 156c0 102.667 19.333 187.667 58 255c50 88.667 132 146.667 246 174c13.333 3.33301 32.5 7.5 57.5 12.5l74.5 14.5l65 12.5c18.667 3.66699 29 5.83398 31 6.50098z" />
    <glyph glyph-name="uni06C1.init" unicode="&#x6c1;" horiz-adv-x="706" arabic-form="initial" 
d="M439 -236c-21.333 -13.333 -41.9951 -29.3311 -61.9951 -47.998s-37.5 -37.834 -52.5 -57.501s-27.333 -39.167 -37 -58.5s-14.834 -36.666 -15.501 -51.999v-6c0 -12.667 4.16699 -23.334 12.5 -32.001s23.166 -13 44.499 -13c16 0 31.167 -3 45.5 -9
s26.666 -14.333 36.999 -25s18.666 -23.167 24.999 -37.5s9.5 -29.5 9.5 -45.5c0 -18 -3.33301 -34.333 -10 -49s-16 -27.167 -28 -37.5s-26.167 -18.5 -42.5 -24.5s-33.833 -9 -52.5 -9c-52.667 0 -93.5 17.667 -122.5 53s-43.5 85.666 -43.5 150.999
c0 36 6.66699 71.833 20 107.5s31.333 69.5 54 101.5s48.667 61.5 78 88.5s59.666 49.833 90.999 68.5zM493.005 804.002l21.999 -94.999c8 -34.667 15.167 -70.5 21.5 -107.5s11.833 -74.5 16.5 -112.5s7.66699 -74.333 9 -109v-6c0 -45.333 -7 -90.333 -21 -135
s-34.667 -84.834 -62 -120.501s-60.833 -64.334 -100.5 -86.001s-84.167 -32.5 -133.5 -32.5h-260v123h260c32 2 60.167 10.333 84.5 25s44.666 33.834 60.999 57.501s28.833 50.5 37.5 80.5c7.33301 27.333 11 55.333 11 84v7c-0.666992 32 -3.16699 65.333 -7.5 100
s-9.66602 69 -15.999 103s-13.166 67 -20.499 99l-21 89z" />
    <glyph glyph-name="uni06C1.medi" unicode="&#x6c1;" horiz-adv-x="1186" arabic-form="medial" 
d="M1202 0l-135.999 -0.00195312c-32 0 -60.167 -4.16699 -84.5 -12.5s-45.5 -19.166 -63.5 -32.499s-33 -28.166 -45 -44.499s-22 -32.5 -30 -48.5c-16.667 -33.333 -28 -69.666 -34 -108.999c-4.66699 -28 -7 -56 -7 -84c0 -11.333 0.833008 -29.666 2.5 -54.999
s8.5 -56.333 20.5 -93s28.333 -68.667 49 -96l-49 -99h-6c-57.333 0 -110.666 8.83301 -159.999 26.5s-94.833 42.667 -136.5 75s-78.667 70.5 -111 114.5s-60 91 -83 141s-41.333 102 -55 156s-22.5 107.667 -26.5 161h-262v123h321l62 -62c0 -29.333 2.66699 -63 8 -101
s14 -77.167 26 -117.5s27.333 -80.833 46 -121.5s41.167 -78.334 67.5 -113.001s56.666 -65.334 90.999 -92.001s73.166 -46.334 116.499 -59.001c-13.333 34.667 -23.333 72.334 -30 113.001c-6 36.667 -9 73.334 -9 110.001c0 3.33301 0.166992 16 0.5 38
s4.5 52.5 12.5 91.5s20 74.5 36 106.5c33.333 67.333 78.5 118.666 135.5 153.999s122.833 53 197.5 53h136v-123z" />
    <glyph glyph-name="uni06BE.fina" unicode="&#x6be;" horiz-adv-x="1744" arabic-form="final" 
d="M907 1030l149.002 -158.002l126 -137.5c38 -43 71.833 -83.333 101.5 -121s55.167 -73.5 76.5 -107.5c20.667 -33.333 37.5 -65.666 50.5 -96.999s21.833 -62.666 26.5 -93.999c2 -14.667 3 -29.334 3 -44.001c0 -16.667 -2 -37.167 -6 -61.5s-14 -53.166 -30 -86.499
h367v-123h-475c-34 -22 -71.333 -38.667 -112 -50s-82 -17 -124 -17c-35.333 0 -69.833 3.5 -103.5 10.5s-66.834 16.333 -99.501 28s-65 25 -97 40l-96 46.5c-63.333 -19.333 -135.666 -36.166 -216.999 -50.499s-169.333 -21.5 -264 -21.5l48 123
c59.333 0 112.333 2.16699 159 6.5s91.334 12.5 134.001 24.5c-10.667 6.66699 -23.834 14.5 -39.501 23.5s-27.834 17.167 -36.501 24.5c-51.333 40 -90.333 85.167 -117 135.5s-40 107.833 -40 172.5c0 54.667 9.5 104.667 28.5 150s45.5 84 79.5 116
s74.333 56.833 121 74.5s97.667 26.5 153 26.5c50 0 96.667 -10.667 140 -32s80.833 -49.833 112.5 -85.5s56.667 -76.5 75 -122.5s27.5 -93.333 27.5 -142c0 -79.333 -18.333 -148.833 -55 -208.5s-89.334 -109.5 -158.001 -149.5c36 -19.333 75 -35.333 117 -48
s85 -19 129 -19c28.667 0 55.167 3 79.5 9s46.166 14 65.499 24s35.833 21.5 49.5 34.5s24.167 26.5 31.5 40.5c12 22 20.333 43.667 25 65c2.66699 13.333 4 26.666 4 39.999c0 8 -0.833008 19.5 -2.5 34.5s-7.33398 34.667 -17.001 59s-23.5 50.5 -41.5 78.5
c-39.333 62.667 -96.166 137 -170.499 223s-163.166 179.667 -266.499 281zM673.002 190.998c30.667 11.333 60.168 25.833 88.501 43.5s53 38.5 74 62.5s37.833 51.333 50.5 82s19 64.667 19 102c0 38.667 -6.83301 74 -20.5 106s-31.5 59.333 -53.5 82
s-46.833 40.167 -74.5 52.5s-55.5 18.5 -83.5 18.5c-48 0 -88.333 -7.16699 -121 -21.5s-59.334 -33 -80.001 -56s-35.5 -49.167 -44.5 -78.5s-13.5 -58.666 -13.5 -87.999c0 -43.333 8.83301 -81.833 26.5 -115.5s45.5 -65.834 83.5 -96.501
c20.667 -16.667 43.5 -32.5 68.5 -47.5s51.833 -30.167 80.5 -45.5z" />
    <glyph glyph-name="uni06BE.init" unicode="&#x6be;" horiz-adv-x="1496" arabic-form="initial" 
d="M627 191c30.667 11.333 60.168 25.833 88.501 43.5s53 38.5 74 62.5s37.833 51.333 50.5 82s19 64.667 19 102c0 38.667 -6.83301 74 -20.5 106s-31.5 59.333 -53.5 82s-46.833 40.167 -74.5 52.5s-55.5 18.5 -83.5 18.5c-48 0 -88.333 -7.16699 -121 -21.5
s-59.334 -33 -80.001 -56s-35.5 -49.167 -44.5 -78.5s-13.5 -58.666 -13.5 -87.999c0 -43.333 8.83301 -81.833 26.5 -115.5s45.5 -65.834 83.5 -96.501c20.667 -16.667 43.5 -32.5 68.5 -47.5s51.833 -30.167 80.5 -45.5zM861.001 1030l149.004 -157.998l126 -137.5
c38 -43 71.833 -83.333 101.5 -121s55.167 -73.5 76.5 -107.5c21.333 -34.667 38.666 -68.334 51.999 -101.001s22 -65 26 -97c1.33301 -12 2 -24.333 2 -37c0 -20 -2.66699 -43.5 -8 -70.5s-17.333 -58.167 -36 -93.5c-14.667 -28 -34 -52.833 -58 -74.5
s-50.833 -39.834 -80.5 -54.501s-61.5 -25.834 -95.5 -33.501s-68 -11.5 -102 -11.5c-35.333 0 -69.833 3.5 -103.5 10.5s-66.834 16.333 -99.501 28s-65 25 -97 40l-96 46.5c-63.333 -19.333 -134.166 -33.833 -212.499 -43.5s-164.833 -14.5 -259.5 -14.5h-166v123h166
c118.667 0 223 8 313 24c-10.667 6.66699 -20.667 13.334 -30 20.001s-18.333 13.667 -27 21c-51.333 40 -90.333 85.167 -117 135.5s-40 107.833 -40 172.5c0 54.667 9.5 104.667 28.5 150s45.5 84 79.5 116s74.333 56.833 121 74.5s97.667 26.5 153 26.5
c50 0 96.667 -10.667 140 -32s80.833 -49.833 112.5 -85.5s56.667 -76.5 75 -122.5s27.5 -93.333 27.5 -142c0 -79.333 -18.333 -148.833 -55 -208.5s-89.334 -109.5 -158.001 -149.5c36 -19.333 75 -35.333 117 -48s85 -19 129 -19c28.667 0 55.167 3 79.5 9
s46.166 14 65.499 24s35.833 21.5 49.5 34.5s24.167 26.5 31.5 40.5c12 22 20.333 43.667 25 65c2.66699 13.333 4 26.666 4 39.999c0 8 -0.833008 19.5 -2.5 34.5s-7.33398 34.667 -17.001 59s-23.5 50.5 -41.5 78.5c-39.333 62.667 -96 134.834 -170 216.501l-267 287.5z
" />
    <glyph glyph-name="uni06BE.medi" unicode="&#x6be;" horiz-adv-x="1261" arabic-form="medial" 
d="M1281 123l-0.000976562 -123h-196c-25.333 -0 -49.166 -2.66699 -71.499 -8s-42.833 -12.833 -61.5 -22.5s-35 -21.5 -49 -35.5s-24.667 -29.333 -32 -46c-9.33301 -20 -14 -42 -14 -66s7.16699 -56.667 21.5 -98s49.166 -93.333 104.499 -156l-38 -102
c-14 -1.33301 -27.833 -2.5 -41.5 -3.5s-27.167 -1.5 -40.5 -1.5c-62.667 0 -125 9.66699 -187 29c-40 13.333 -78.167 29.833 -114.5 49.5s-71.166 43.5 -104.499 71.5c-31.333 26 -60.166 54.667 -86.499 86s-49.833 64 -70.5 98s-38.167 69.167 -52.5 105.5
s-24.833 72.5 -31.5 108.5c-42 -3.33301 -83.333 -5.66602 -124 -6.99902s-78 -2 -112 -2v123c32.667 0 68.5 0.666992 107.5 2s78.5 3.66602 118.5 6.99902v31c0 102.667 9 196.334 27 281.001c27.333 122 72.333 218 135 288c67.333 75.333 150.333 115.666 249 120.999
c9.33301 0.666992 18.666 1 27.999 1c93.333 0 170 -28.333 230 -85c24.667 -23.333 44.167 -48.5 58.5 -75.5s25 -53 32 -78s11.5 -47.5 13.5 -67.5s3 -35 3 -45c0 -109.333 -40 -202.333 -120 -279c-32 -30.667 -70.333 -58.334 -115 -83.001s-96 -46 -154 -64
c-40 -13.333 -81.333 -24.333 -124 -33s-86 -16 -130 -22c12 -57.333 35.333 -113.833 70 -169.5s77 -104.5 127 -146.5c15.333 -13.333 32.833 -26.5 52.5 -39.5s41 -25 64 -36s48 -20.5 75 -28.5s55.833 -13.333 86.5 -16c-31.333 49.333 -53.333 97 -66 143
c-9.33301 32.667 -14 64 -14 94c0 40.667 8.33301 79.334 25 116.001c26.667 59.333 71 105.333 133 138c58 30.667 122.333 46 193 46h196zM458.999 650c-22 -24 -41.332 -53.335 -57.999 -88.002s-30.5 -73.5 -41.5 -116.5s-19.167 -89.5 -24.5 -139.5
c-4 -40.667 -6 -83 -6 -127v-34c39.333 5.33301 78 12 116 20s75 17.667 111 29c102.667 32.667 178.834 74.334 228.501 125.001s74.5 112 74.5 184c0 12.667 -1.16699 26.834 -3.5 42.501s-6.33301 31.5 -12 47.5s-12.834 31.5 -21.501 46.5s-19.334 28.5 -32.001 40.5
c-17.333 17.333 -38.666 30.166 -63.999 38.499s-56.333 12.5 -93 12.5c-38 0 -70.833 -7.16699 -98.5 -21.5s-52.834 -34.166 -75.501 -59.499z" />
    <glyph glyph-name="uni06D2.fina" unicode="&#x6d2;" horiz-adv-x="1314" arabic-form="final" 
d="M1329 0l-875.002 -0.00195312c-33.333 0 -64.5 -5.5 -93.5 -16.5s-54.167 -26.167 -75.5 -45.5s-38.166 -42.166 -50.499 -68.499s-18.5 -54.833 -18.5 -85.5c0 -31.333 6 -60 18 -86s28.667 -48.5 50 -67.5s46.5 -33.667 75.5 -44s60.5 -15.5 94.5 -15.5h834v-123h-834
c-51.333 0 -98.666 8.5 -141.999 25.5s-81 40.5 -113 70.5s-57 65.5 -75 106.5s-27 85.5 -27 133.5c0 48.667 9.33301 93.834 28 135.501s44 77.5 76 107.5s69.667 53.5 113 70.5s90 25.5 140 25.5h875v-123z" />
    <glyph glyph-name="uni06D3.fina" unicode="&#x6d3;" horiz-adv-x="1314" arabic-form="final" 
d="M1329 0l-875.002 -0.00195312c-33.333 0 -64.5 -5.5 -93.5 -16.5s-54.167 -26.167 -75.5 -45.5s-38.166 -42.166 -50.499 -68.499s-18.5 -54.833 -18.5 -85.5c0 -31.333 6 -60 18 -86s28.667 -48.5 50 -67.5s46.5 -33.667 75.5 -44s60.5 -15.5 94.5 -15.5h834v-123h-834
c-51.333 0 -98.666 8.5 -141.999 25.5s-81 40.5 -113 70.5s-57 65.5 -75 106.5s-27 85.5 -27 133.5c0 48.667 9.33301 93.834 28 135.501s44 77.5 76 107.5s69.667 53.5 113 70.5s90 25.5 140 25.5h875v-123zM176.998 298.998
c1.33301 19.333 2.33594 36.6699 3.00293 52.0029s1.66699 32.666 3 51.999l157 50c-17.333 4.66699 -33.166 12.667 -47.499 24s-26.5 24.333 -36.5 39s-17.667 30.667 -23 48s-8 34.666 -8 51.999c0 20.667 3.66699 41.5 11 62.5s17.666 40.833 30.999 59.5
s29.666 35.167 48.999 49.5s41 25.166 65 32.499c20 6 39 9 57 9c1.33301 0 7.16602 -0.166992 17.499 -0.5s24.166 -2.66602 41.499 -6.99902s33.833 -9.66602 49.5 -15.999l45.5 -18.5l-21 -82l-36.5 13.5c-13 5 -26.333 9.16699 -40 12.5s-27.667 5.16602 -42 5.49902
s-28.833 -1.5 -43.5 -5.5c-14 -4 -27.167 -10.833 -39.5 -20.5s-22.833 -21 -31.5 -34s-14.334 -26.833 -17.001 -41.5c-1.33301 -6.66699 -2 -13.334 -2 -20.001c0 -8 1 -15.667 3 -23c6.66699 -21.333 24.834 -39.5 54.501 -54.5s64.5 -22.5 104.5 -22.5
c30 0 62 4.5 96 13.5s66.667 18.167 98 27.5l28 -88z" />
    <glyph glyph-name="uni0649.init" unicode="&#x649;" horiz-adv-x="671" arabic-form="initial" 
d="M493 804l21.999 -94.999c8 -34.667 15.167 -70.5 21.5 -107.5s11.833 -74.5 16.5 -112.5s7.66699 -74.333 9 -109v-6c0 -45.333 -7 -90.333 -21 -135s-34.667 -84.834 -62 -120.501s-60.833 -64.334 -100.5 -86.001s-84.167 -32.5 -133.5 -32.5h-260v123h260
c32 2 60.167 10.333 84.5 25s44.666 33.834 60.999 57.501s28.833 50.5 37.5 80.5c7.33301 27.333 11 55.333 11 84v7c-0.666992 32 -3.16699 65.333 -7.5 100s-9.66602 69 -15.999 103s-13.166 67 -20.499 99l-21 89z" />
    <glyph glyph-name="uni0649.medi" unicode="&#x649;" horiz-adv-x="820" arabic-form="medial" 
d="M835 123l-0.00195312 -123h-70c-44.667 0 -87 6.66699 -127 20s-75 32.333 -105 57c-18 14.667 -33 30 -45 46c-34 -42.667 -76.667 -73.667 -128 -93s-113.666 -29.333 -186.999 -30h-188v123h188c39.333 1.33301 74.333 5 105 11s56.667 16.333 78 31
s37.833 34.167 49.5 58.5s18.167 55.5 19.5 93.5v359h123v-359c0 -36 6.66699 -66.333 20 -91s30.333 -44.667 51 -60s43.834 -26.333 69.501 -33s51.167 -10 76.5 -10h70z" />
    <glyph glyph-name="uni06CC.fina" unicode="&#x6cc;" horiz-adv-x="1777" arabic-form="final" 
d="M384 574c-40.667 -84 -72.499 -165.001 -95.499 -243.001s-37.167 -151.667 -42.5 -221c-2 -22 -3 -43.667 -3 -65c0 -45.333 5.16699 -92.833 15.5 -142.5s30.5 -98.5 60.5 -146.5c37.333 -59.333 86.166 -105 146.499 -137s127.833 -48 202.5 -48h249
c32 0 66.167 1.33301 102.5 4s72.666 7.5 108.999 14.5s71.333 16.167 105 27.5s63.334 25.333 89.001 42s46.167 36.5 61.5 59.5s23 49.833 23 80.5c0 20.667 -2.33301 39.5 -7 56.5s-13.334 32.333 -26.001 46s-30.334 25.834 -53.001 36.501s-51.667 20 -87 28
s-78.166 14.833 -128.499 20.5s-109.5 10.167 -177.5 13.5l3 123h864v-123h-346c28 -27.333 48.333 -57 61 -89s19 -69.333 19 -112c0 -44.667 -8.33301 -84.5 -25 -119.5s-39.667 -65.5 -69 -91.5s-63.666 -47.833 -102.999 -65.5s-81.666 -32 -126.999 -43
s-92.5 -19 -141.5 -24s-97.833 -7.5 -146.5 -7.5h-249c-96 0 -183.333 21 -262 63s-142.334 101.667 -191.001 179c-46 74.667 -75 151.667 -87 231c-7.33301 43.333 -11 86.333 -11 129c0 36.667 4 84.167 12 142.5s25.667 126.833 53 205.5s58 155 92 229z" />
    <glyph glyph-name="uni06CC.init" unicode="&#x6cc;" horiz-adv-x="877" arabic-form="initial" 
d="M648 804l21.999 -94.999c8 -34.667 15.167 -70.5 21.5 -107.5s11.833 -74.5 16.5 -112.5s7.66699 -74.333 9 -109v-6c0 -45.333 -7 -90.333 -21 -135s-34.667 -84.834 -62 -120.501s-60.833 -64.334 -100.5 -86.001s-84.167 -32.5 -133.5 -32.5h-415v123h415
c32 2 60.167 10.333 84.5 25s44.666 33.834 60.999 57.501s28.833 50.5 37.5 80.5c7.33301 27.333 11 55.333 11 84v7c-0.666992 32 -3.16699 65.333 -7.5 100s-9.66602 69 -15.999 103s-13.166 67 -20.499 99l-21 89zM600.999 -507.999l-124 125l122 124l126 -125z
M192.999 -505.999l-124 125l122 124l126 -125z" />
    <glyph glyph-name="uni06CC.medi" unicode="&#x6cc;" horiz-adv-x="1046" arabic-form="medial" 
d="M1066 123l-0.00195312 -123h-164c-44.667 0 -87 6.66699 -127 20s-75 32.333 -105 57c-18 14.667 -33 30 -45 46c-34 -42.667 -76.667 -73.667 -128 -93s-113.666 -29.333 -186.999 -30h-330v123h330c39.333 1.33301 74.333 5 105 11s56.667 16.333 78 31
s37.833 34.167 49.5 58.5s18.167 55.5 19.5 93.5v359h123v-359c0 -36 6.66699 -66.333 20 -91s30.333 -44.667 51 -60s43.834 -26.333 69.501 -33s51.167 -10 76.5 -10h164zM647.998 -514l-124 125l122 124l126 -125zM239.998 -512l-124 125l122 124l126 -125z" />
    <glyph glyph-name="uni0651064C" unicode="&#xfc5e;" arabic-form="isolated" 
d="M-130 1696c-56.667 0 -100.832 15.5 -132.499 46.5s-47.5 74.5 -47.5 130.5l-1 112h81l1 -112c0 -34 7.66699 -58.667 23 -74s40.666 -23 75.999 -23c4.66699 0 11.834 1 21.501 3s19.167 6.16699 28.5 12.5s17.5 16 24.5 29s10.5 30.5 10.5 52.5l-1 112h83v-112
c0 -34 7.66699 -58.833 23 -74.5s41 -23.5 77 -23.5c5.33301 0 12.5 1.16699 21.5 3.5s18 7 27 14s16.833 16.833 23.5 29.5s10 29.667 10 51c0 10 -1.16699 22.167 -3.5 36.5s-5 28.833 -8 43.5s-6.16699 28.5 -9.5 41.5l-8 30.5c12.667 4 25.334 8.33301 38.001 13
s25 9 37 13c2 -5.33301 4.83301 -15 8.5 -29s7.5 -29.667 11.5 -47s7.5 -35.166 10.5 -53.499s4.5 -34.5 4.5 -48.5c0 -30.667 -4.83301 -57.167 -14.5 -79.5s-22.334 -40.833 -38.001 -55.5s-33.334 -25.5 -53.001 -32.5s-39.5 -10.5 -59.5 -10.5
c-30 0 -56.833 4.83301 -80.5 14.5s-43.5 23.167 -59.5 40.5c-17.333 -18.667 -37 -32.334 -59 -41.001s-44 -13 -66 -13zM59.002 2620c-17.333 0 -36.4971 -5.5 -57.4971 -16.5s-36.167 -25.5 -45.5 -43.5c-0.666992 -1.33301 -1.33398 -5.33301 -2.00098 -12v-4
c0 -6 1.5 -13.667 4.5 -23s9 -19.833 18 -31.5s23.167 -22.5 42.5 -32.5c3.33301 -2 7.16602 -4.16699 11.499 -6.5s9.83301 -5 16.5 -8l24.5 -11.5c9.66699 -4.66699 22.167 -10.334 37.5 -17c11.333 22.667 18.666 48.334 21.999 77c0.666992 8 1 15.667 1 23
c0 20 -3 39 -9 57c-5.33301 13.333 -13.5 24.833 -24.5 34.5s-24.167 14.5 -39.5 14.5zM-253.995 2197c4.66699 7.33301 10.001 17 16.001 29s10.833 24.667 14.5 38s5.33398 26.833 5.00098 40.5s-4.5 25.834 -12.5 36.5c-7.33301 10 -17.333 16.333 -30 19
c-6.66699 1.33301 -13.334 2 -20.001 2s-15.167 -0.833008 -25.5 -2.5s-21.166 -5.16699 -32.499 -10.5s-19 -10.333 -23 -15l-52 57c2 2.66699 7 7.33398 15 14c8 6.66699 18.667 13.334 32 20c13.333 6.66699 29 12.667 47 18c15.333 4 31.666 6 48.999 6h7
c28.667 -1.33301 51.834 -9 69.501 -23s30.667 -31.5 39 -52.5s12.5 -44.167 12.5 -69.5s-3.33301 -49.666 -10 -73c34.667 11.333 70.667 26.166 108 44.5c37.333 18.333 71.666 41.5 102.999 69.5c-15.333 7.33301 -29.166 13.666 -41.499 19
c-12.333 5.33301 -23.833 10.666 -34.5 16c-24.667 12 -45 26.167 -61 42.5s-28 33.833 -36 52.5c-7.33301 17.333 -11 35 -11 53c0 2 0.166992 8.16699 0.5 18.5s4.5 24.833 12.5 43.5c10 20 23.5 38.5 40.5 55.5s36 30.5 57 40.5s43.167 16 66.5 18h8
c20 0 39.333 -4.33301 58 -13c36.667 -18 62.667 -42 78 -72c14 -28.667 21 -59.334 21 -92c0 -2 -0.333008 -12.167 -1 -30.5s-7.83398 -45.333 -21.501 -81s-30.834 -67.834 -51.501 -96.5c-22 -28.667 -50 -54 -84 -76s-68.167 -40.833 -102.5 -56.5
s-66.333 -28.167 -96 -37.5l-64.5 -20z" />
    <glyph glyph-name="uni0651064D" unicode="&#xfc5f;" arabic-form="isolated" 
d="M1 1758c-56.667 0 -100.832 15.5 -132.499 46.5s-47.5 74.5 -47.5 130.5l-1 112h81l1 -112c0 -34 7.66699 -58.667 23 -74s40.666 -23 75.999 -23c4.66699 0 11.834 1 21.501 3s19.167 6.16699 28.5 12.5s17.5 16 24.5 29s10.5 30.5 10.5 52.5l-1 112h83v-112
c0 -34 7.66699 -58.833 23 -74.5s41 -23.5 77 -23.5c5.33301 0 12.5 1.16699 21.5 3.5s18 7 27 14s16.833 16.833 23.5 29.5s10 29.667 10 51c0 10 -1.16699 22.167 -3.5 36.5s-5 28.833 -8 43.5s-6.16699 28.5 -9.5 41.5l-8 30.5c12.667 4 25.334 8.33301 38.001 13
s25 9 37 13c2 -5.33301 4.83301 -15 8.5 -29s7.5 -29.667 11.5 -47s7.5 -35.166 10.5 -53.499s4.5 -34.5 4.5 -48.5c0 -30.667 -4.83301 -57.167 -14.5 -79.5s-22.334 -40.833 -38.001 -55.5s-33.334 -25.5 -53.001 -32.5s-39.5 -10.5 -59.5 -10.5
c-30 0 -56.833 4.83301 -80.5 14.5s-43.5 23.167 -59.5 40.5c-17.333 -18.667 -37 -32.334 -59 -41.001s-44 -13 -66 -13zM-99.998 1253l502 186v-91l-502 -187v92zM-99.998 1485l502 186v-91l-502 -187v92z" />
    <glyph glyph-name="uni0651064E" unicode="&#xfc60;" arabic-form="isolated" 
d="M-130 1696c-56.667 0 -100.832 15.5 -132.499 46.5s-47.5 74.5 -47.5 130.5l-1 112h81l1 -112c0 -34 7.66699 -58.667 23 -74s40.666 -23 75.999 -23c4.66699 0 11.834 1 21.501 3s19.167 6.16699 28.5 12.5s17.5 16 24.5 29s10.5 30.5 10.5 52.5l-1 112h83v-112
c0 -34 7.66699 -58.833 23 -74.5s41 -23.5 77 -23.5c5.33301 0 12.5 1.16699 21.5 3.5s18 7 27 14s16.833 16.833 23.5 29.5s10 29.667 10 51c0 10 -1.16699 22.167 -3.5 36.5s-5 28.833 -8 43.5s-6.16699 28.5 -9.5 41.5l-8 30.5c12.667 4 25.334 8.33301 38.001 13
s25 9 37 13c2 -5.33301 4.83301 -15 8.5 -29s7.5 -29.667 11.5 -47s7.5 -35.166 10.5 -53.499s4.5 -34.5 4.5 -48.5c0 -30.667 -4.83301 -57.167 -14.5 -79.5s-22.334 -40.833 -38.001 -55.5s-33.334 -25.5 -53.001 -32.5s-39.5 -10.5 -59.5 -10.5
c-30 0 -56.833 4.83301 -80.5 14.5s-43.5 23.167 -59.5 40.5c-17.333 -18.667 -37 -32.334 -59 -41.001s-44 -13 -66 -13zM-272.998 2200l502 186v-91l-502 -187v92z" />
    <glyph glyph-name="uni0651064F" unicode="&#xfc61;" arabic-form="isolated" 
d="M-130 1696c-56.667 0 -100.832 15.5 -132.499 46.5s-47.5 74.5 -47.5 130.5l-1 112h81l1 -112c0 -34 7.66699 -58.667 23 -74s40.666 -23 75.999 -23c4.66699 0 11.834 1 21.501 3s19.167 6.16699 28.5 12.5s17.5 16 24.5 29s10.5 30.5 10.5 52.5l-1 112h83v-112
c0 -34 7.66699 -58.833 23 -74.5s41 -23.5 77 -23.5c5.33301 0 12.5 1.16699 21.5 3.5s18 7 27 14s16.833 16.833 23.5 29.5s10 29.667 10 51c0 10 -1.16699 22.167 -3.5 36.5s-5 28.833 -8 43.5s-6.16699 28.5 -9.5 41.5l-8 30.5c12.667 4 25.334 8.33301 38.001 13
s25 9 37 13c2 -5.33301 4.83301 -15 8.5 -29s7.5 -29.667 11.5 -47s7.5 -35.166 10.5 -53.499s4.5 -34.5 4.5 -48.5c0 -30.667 -4.83301 -57.167 -14.5 -79.5s-22.334 -40.833 -38.001 -55.5s-33.334 -25.5 -53.001 -32.5s-39.5 -10.5 -59.5 -10.5
c-30 0 -56.833 4.83301 -80.5 14.5s-43.5 23.167 -59.5 40.5c-17.333 -18.667 -37 -32.334 -59 -41.001s-44 -13 -66 -13zM16.002 2583c-17.333 0 -36.4971 -5.5 -57.4971 -16.5s-36.167 -25.5 -45.5 -43.5c-0.666992 -1.33301 -1.33398 -5.33301 -2.00098 -12v-4
c0 -6 1.5 -13.667 4.5 -23s9 -19.833 18 -31.5s23.167 -22.5 42.5 -32.5c3.33301 -2 7.16602 -4.16699 11.499 -6.5s9.83301 -5 16.5 -8l24.5 -11.5c9.66699 -4.66699 22.167 -10.334 37.5 -17c11.333 22.667 18.666 48.334 21.999 77c0.666992 8 1 15.667 1 23
c0 20 -3 39 -9 57c-5.33301 13.333 -13.5 24.833 -24.5 34.5s-24.167 14.5 -39.5 14.5zM-285.995 2169l13.999 4l62.5 19c24.333 7.33301 49.5 16.5 75.5 27.5s52 23.667 78 38s49.667 31.166 71 50.5c-15.333 7.33301 -29.166 13.666 -41.499 19
c-12.333 5.33301 -23.833 10.666 -34.5 16c-24.667 12 -45 26.167 -61 42.5s-28 33.833 -36 52.5c-7.33301 17.333 -11 35 -11 53c0 2 0.166992 8.16699 0.5 18.5s4.5 24.833 12.5 43.5c10 20 23.5 38.5 40.5 55.5s36 30.5 57 40.5s43.167 16 66.5 18h8
c20 0 39.333 -4.33301 58 -13c36.667 -18 62.667 -42 78 -72c14 -28.667 21 -59.334 21 -92c0 -2 -0.333008 -12.167 -1 -30.5s-7.83398 -45.333 -21.501 -81s-30.834 -67.834 -51.501 -96.5c-14.667 -19.333 -32.5 -37 -53.5 -53s-43.333 -30.833 -67 -44.5
s-47.667 -25.834 -72 -36.5c-24.333 -10.667 -47.166 -20 -68.499 -28s-40.666 -14.667 -57.999 -20l-39 -12c-0.666992 0 -1.16699 -0.166992 -1.5 -0.5s-0.833008 -0.5 -1.5 -0.5z" />
    <glyph glyph-name="uni06510650" unicode="&#xfc62;" arabic-form="isolated" 
d="M-16 1719c-56.667 0 -100.832 15.5 -132.499 46.5s-47.5 74.5 -47.5 130.5l-1 112h81l1 -112c0 -34 7.66699 -58.667 23 -74s40.666 -23 75.999 -23c4.66699 0 11.834 1 21.501 3s19.167 6.16699 28.5 12.5s17.5 16 24.5 29s10.5 30.5 10.5 52.5l-1 112h83v-112
c0 -34 7.66699 -58.833 23 -74.5s41 -23.5 77 -23.5c5.33301 0 12.5 1.16699 21.5 3.5s18 7 27 14s16.833 16.833 23.5 29.5s10 29.667 10 51c0 10 -1.16699 22.167 -3.5 36.5s-5 28.833 -8 43.5s-6.16699 28.5 -9.5 41.5l-8 30.5c12.667 4 25.334 8.33301 38.001 13
s25 9 37 13c2 -5.33301 4.83301 -15 8.5 -29s7.5 -29.667 11.5 -47s7.5 -35.166 10.5 -53.499s4.5 -34.5 4.5 -48.5c0 -30.667 -4.83301 -57.167 -14.5 -79.5s-22.334 -40.833 -38.001 -55.5s-33.334 -25.5 -53.001 -32.5s-39.5 -10.5 -59.5 -10.5
c-30 0 -56.833 4.83301 -80.5 14.5s-43.5 23.167 -59.5 40.5c-17.333 -18.667 -37 -32.334 -59 -41.001s-44 -13 -66 -13zM-120.998 1441l502 186v-91l-502 -187v92z" />
    <glyph glyph-name="uniFC63" unicode="&#xfc63;" arabic-form="isolated" 
d="M-130 1696c-56.667 0 -100.832 15.5 -132.499 46.5s-47.5 74.5 -47.5 130.5l-1 112h81l1 -112c0 -34 7.66699 -58.667 23 -74s40.666 -23 75.999 -23c4.66699 0 11.834 1 21.501 3s19.167 6.16699 28.5 12.5s17.5 16 24.5 29s10.5 30.5 10.5 52.5l-1 112h83v-112
c0 -34 7.66699 -58.833 23 -74.5s41 -23.5 77 -23.5c5.33301 0 12.5 1.16699 21.5 3.5s18 7 27 14s16.833 16.833 23.5 29.5s10 29.667 10 51c0 10 -1.16699 22.167 -3.5 36.5s-5 28.833 -8 43.5s-6.16699 28.5 -9.5 41.5l-8 30.5c12.667 4 25.334 8.33301 38.001 13
s25 9 37 13c2 -5.33301 4.83301 -15 8.5 -29s7.5 -29.667 11.5 -47s7.5 -35.166 10.5 -53.499s4.5 -34.5 4.5 -48.5c0 -30.667 -4.83301 -57.167 -14.5 -79.5s-22.334 -40.833 -38.001 -55.5s-33.334 -25.5 -53.001 -32.5s-39.5 -10.5 -59.5 -10.5
c-30 0 -56.833 4.83301 -80.5 14.5s-43.5 23.167 -59.5 40.5c-17.333 -18.667 -37 -32.334 -59 -41.001s-44 -13 -66 -13zM-48.998 2589h96v-415h-96v415z" />
    <glyph glyph-name="fathatan_01" unicode="&#xfe70;" arabic-form="isolated" 
d="M-251 1688l502 186v-91l-502 -187v92zM-251 1920l502 186v-91l-502 -187v92z" />
    <glyph glyph-name="dammatan_01" unicode="&#xfe72;" arabic-form="isolated" 
d="M59 2081c-17.333 0 -36.4971 -5.49902 -57.4971 -16.499s-36.167 -25.5 -45.5 -43.5c-0.666992 -1.33301 -1.33398 -5.33301 -2.00098 -12v-4c0 -6 1.5 -13.667 4.5 -23s9 -19.833 18 -31.5s23.167 -22.5 42.5 -32.5c3.33301 -2 7.16602 -4.16699 11.499 -6.5
s9.83301 -5 16.5 -8l24.5 -11.5c9.66699 -4.66699 22.167 -10.334 37.5 -17.001c11.333 22.667 18.666 48.334 21.999 77.001c0.666992 8 1 15.667 1 23c0 20 -3 39 -9 57c-5.33301 13.333 -13.5 24.833 -24.5 34.499c-11 9.66699 -24.167 14.5 -39.5 14.5zM-253.997 1658
c4.66699 7.33301 10.001 17.001 16.001 29.001s10.833 24.667 14.5 38s5.33398 26.833 5.00098 40.5s-4.5 25.834 -12.5 36.501c-7.33301 10 -17.333 16.333 -30 19c-6.66699 1.33301 -13.334 2 -20.001 2s-15.167 -0.833008 -25.5 -2.5s-21.166 -5.16699 -32.499 -10.5
s-19 -10.333 -23 -15l-52 57c2 2.66699 7 7.33398 15 14.001s18.667 13.334 32 20.001s29 12.667 47 18c15.333 4 31.666 6 48.999 6h7c28.667 -1.33301 51.834 -9 69.501 -23s30.667 -31.5 39 -52.5s12.5 -44.167 12.5 -69.5s-3.33301 -49.666 -10 -72.999
c34.667 11.333 70.667 26.166 108 44.499s71.666 41.5 102.999 69.5c-15.333 7.33301 -29.166 13.666 -41.499 18.999s-23.833 10.666 -34.5 15.999c-24.667 12 -45 26.167 -61 42.5s-28 33.833 -36 52.5c-7.33301 17.333 -11 35 -11 53c0 2 0.166992 8.16699 0.5 18.5
s4.5 24.833 12.5 43.5c10 20 23.5 38.5 40.5 55.5s36 30.5 57 40.5s43.167 16 66.5 18h8c20 0 39.333 -4.33301 58 -13c36.667 -18 62.667 -42 78 -72c14 -28.667 21 -59.334 21 -92.001c0 -2 -0.333008 -12.167 -1 -30.5s-7.83398 -45.333 -21.501 -81
s-30.834 -67.834 -51.501 -96.501c-22 -28.667 -50 -54 -84 -76s-68.167 -40.833 -102.5 -56.5s-66.333 -28.167 -96 -37.5l-64.5 -20z" />
    <glyph glyph-name="kasratan_01" unicode="&#xfe74;" arabic-form="isolated" 
d="M-251 -693l502 186v-91l-502 -187v92zM-251 -461l502 186v-91l-502 -187v92z" />
    <glyph glyph-name="fatha_01" unicode="&#xfe76;" arabic-form="isolated" 
d="M-251 1688l502 186v-91l-502 -187v92z" />
    <glyph glyph-name="damma_01" unicode="&#xfe78;" arabic-form="isolated" 
d="M16 2036c-17.333 0 -36.4971 -5.5 -57.4971 -16.5s-36.167 -25.5 -45.5 -43.5c-0.666992 -1.33301 -1.33398 -5.33301 -2.00098 -12v-4c0 -6 1.5 -13.667 4.5 -23s9 -19.833 18 -31.5s23.167 -22.5 42.5 -32.5c3.33301 -2 7.16602 -4.16699 11.499 -6.5
s9.83301 -5 16.5 -8l24.5 -11.5c9.66699 -4.66699 22.167 -10.334 37.5 -17.001c11.333 22.667 18.666 48.334 21.999 77.001c0.666992 8 1 15.667 1 23c0 20 -3 39 -9 57c-5.33301 13.333 -13.5 24.833 -24.5 34.5s-24.167 14.5 -39.5 14.5zM-285.997 1622l13.999 4.00586
l62.5 19c24.333 7.33301 49.5 16.5 75.5 27.5s52 23.667 78 38s49.667 31.166 71 50.499c-15.333 7.33301 -29.166 13.666 -41.499 18.999s-23.833 10.666 -34.5 15.999c-24.667 12 -45 26.167 -61 42.5s-28 33.833 -36 52.5c-7.33301 17.333 -11 35 -11 53
c0 2 0.166992 8.16699 0.5 18.5s4.5 24.833 12.5 43.5c10 20 23.5 38.5 40.5 55.5s36 30.5 57 40.5s43.167 16 66.5 18h8c20 0 39.333 -4.33301 58 -13c36.667 -18 62.667 -42 78 -72c14 -28.667 21 -59.334 21 -92.001c0 -2 -0.333008 -12.167 -1 -30.5
s-7.83398 -45.333 -21.501 -81s-30.834 -67.834 -51.501 -96.501c-14.667 -19.333 -32.5 -37 -53.5 -53s-43.333 -30.833 -67 -44.5s-47.667 -25.834 -72 -36.501s-47.166 -20 -68.499 -28s-40.666 -14.667 -57.999 -20l-39 -12c-0.666992 0 -1.16699 -0.166992 -1.5 -0.5
s-0.833008 -0.5 -1.5 -0.5z" />
    <glyph glyph-name="kasra_01" unicode="&#xfe7a;" arabic-form="isolated" 
d="M-251 -462l502 186v-91l-502 -187v92z" />
    <glyph glyph-name="shadda_01" unicode="&#xfe7c;" arabic-form="isolated" 
d="M-130 1696c-56.667 0 -100.832 15.5 -132.499 46.5s-47.5 74.5 -47.5 130.5l-1 112h81l1 -112c0 -34 7.66699 -58.667 23 -74s40.666 -23 75.999 -23c4.66699 0 11.834 1 21.501 3s19.167 6.16699 28.5 12.5s17.5 16 24.5 29s10.5 30.5 10.5 52.5l-1 112h83v-112
c0 -34 7.66699 -58.833 23 -74.5s41 -23.5 77 -23.5c5.33301 0 12.5 1.16699 21.5 3.5s18 7 27 14s16.833 16.833 23.5 29.5s10 29.667 10 51c0 10 -1.16699 22.167 -3.5 36.5s-5 28.833 -8 43.5s-6.16699 28.5 -9.5 41.5l-8 30.5c12.667 4 25.334 8.33301 38.001 13
s25 9 37 13c2 -5.33301 4.83301 -15 8.5 -29s7.5 -29.667 11.5 -47s7.5 -35.166 10.5 -53.499s4.5 -34.5 4.5 -48.5c0 -30.667 -4.83301 -57.167 -14.5 -79.5s-22.334 -40.833 -38.001 -55.5s-33.334 -25.5 -53.001 -32.5s-39.5 -10.5 -59.5 -10.5
c-30 0 -56.833 4.83301 -80.5 14.5s-43.5 23.167 -59.5 40.5c-17.333 -18.667 -37 -32.334 -59 -41.001s-44 -13 -66 -13z" />
    <glyph glyph-name="sukun_01" unicode="&#xfe7e;" arabic-form="isolated" 
d="M-144 1886c0 -20 3.83301 -38.667 11.5 -56s18 -32.5 31 -45.5s28.167 -23.333 45.5 -31s36 -11.5 56 -11.5s38.667 3.83301 56 11.5s32.5 18 45.5 31s23.333 28.167 31 45.5s11.5 36 11.5 56s-3.83301 38.667 -11.5 56s-18 32.5 -31 45.5s-28.167 23.333 -45.5 31
s-36 11.5 -56 11.5s-38.667 -3.83301 -56 -11.5s-32.5 -18 -45.5 -31s-23.333 -28.167 -31 -45.5s-11.5 -36 -11.5 -56zM-225 1885c0 31.333 5.83301 60.667 17.5 88s27.667 51.333 48 72s44.166 36.834 71.499 48.5c27.333 11.667 56.333 17.5 87 17.5
c31.333 0 60.666 -5.83301 87.999 -17.5s51.333 -27.834 72 -48.501s36.834 -44.667 48.501 -72s17.5 -56.666 17.5 -87.999c0 -30.667 -5.83301 -59.667 -17.5 -87s-27.834 -51.166 -48.501 -71.499s-44.667 -36.333 -72 -48s-56.666 -17.5 -87.999 -17.5
c-30.667 0 -59.667 5.83301 -87 17.5s-51.166 27.667 -71.499 48s-36.333 44.166 -48 71.499s-17.5 56.333 -17.5 87z" />
    <glyph glyph-name="uni0622.fina" unicode="&#x622;" horiz-adv-x="692" arabic-form="final" 
d="M692 0c-79.333 0 -142.834 9.33105 -190.501 27.998s-84.167 46.334 -109.5 83.001s-42 81.834 -50 135.501s-12 115.5 -12 185.5v842h125v-842c0 -62 2 -113 6 -153s14 -71.5 30 -94.5s39.833 -39 71.5 -48s74.834 -13.5 129.501 -13.5h14v-123h-14zM874.999 1429
l-490.997 0.000976562c-47.333 0 -86.166 -3.16699 -116.499 -9.5s-55.333 -16 -75 -29s-35.334 -29.5 -47.001 -49.5s-22.5 -44 -32.5 -72l-59.5 18l-56.5 17c16.667 50 35.167 91.167 55.5 123.5s45.166 57.666 74.499 75.999s64.666 31 105.999 38
s91.666 10.5 150.999 10.5h491v-123z" />
    <glyph glyph-name="uni0623.fina" unicode="&#x623;" horiz-adv-x="561" arabic-form="final" 
d="M562 0c-79.333 0 -142.834 9.33105 -190.501 27.998s-84.167 46.334 -109.5 83.001s-42 81.834 -50 135.501s-12 115.5 -12 185.5v842h125v-842c0 -62 2 -113 6 -153s14 -71.5 30 -94.5s39.833 -39 71.5 -48s74.834 -13.5 129.501 -13.5h14v-123h-14zM20.999 1368
c1.33301 19.333 2.33594 36.6699 3.00293 52.0029s1.66699 32.666 3 51.999l157 50c-17.333 4.66699 -33.166 12.667 -47.499 24s-26.5 24.333 -36.5 39s-17.667 30.667 -23 48s-8 34.666 -8 51.999c0 20.667 3.66699 41.5 11 62.5s17.666 40.833 30.999 59.5
s29.666 35.167 48.999 49.5s41 25.166 65 32.499c20 6 39 9 57 9c1.33301 0 7.16602 -0.166992 17.499 -0.5s24.166 -2.66602 41.499 -6.99902s33.833 -9.66602 49.5 -15.999l45.5 -18.5l-21 -82l-36.5 13.5c-13 5 -26.333 9.16699 -40 12.5s-27.667 5.16602 -42 5.49902
s-28.833 -1.5 -43.5 -5.5c-14 -4 -27.167 -10.833 -39.5 -20.5s-22.833 -21 -31.5 -34s-14.334 -26.833 -17.001 -41.5c-1.33301 -6.66699 -2 -13.334 -2 -20.001c0 -8 1 -15.667 3 -23c6.66699 -21.333 24.834 -39.5 54.501 -54.5s64.5 -22.5 104.5 -22.5
c30 0 62 4.5 96 13.5s66.667 18.167 98 27.5l28 -88z" />
    <glyph glyph-name="uni0624.fina" unicode="&#x624;" horiz-adv-x="1049" arabic-form="final" 
d="M777 123l-0.000976562 249.002c-1.33301 52.667 -6.16602 101.5 -14.499 146.5s-22.5 84 -42.5 117s-46.667 58.667 -80 77s-76 27.5 -128 27.5c-51.333 0 -94 -9.33301 -128 -28s-61.167 -44.5 -81.5 -77.5s-34.666 -72 -42.999 -117s-12.5 -93.5 -12.5 -145.5
c0 -46 8 -84.833 24 -116.5s38.333 -57.334 67 -77.001s62.167 -33.834 100.5 -42.501s80.166 -13 125.499 -13h213zM511.999 863.002c68.667 -2.66699 127.668 -16.334 177.001 -41.001s89.5 -58.5 120.5 -101.5s53.833 -94 68.5 -153s22 -124.167 22 -195.5v-249h170v-123
h-170v-17c0 -88 -15.167 -165.667 -45.5 -233s-74.5 -123.666 -132.5 -168.999s-127.167 -78.833 -207.5 -100.5s-168.166 -32.5 -263.499 -32.5h-57v123h57c80.667 2 153.167 10 217.5 24s119.166 37.333 164.499 70s80.333 76.167 105 130.5s37.667 122.5 39 204.5h-228
c-56 0 -109.667 7.33301 -161 22s-96.833 37.5 -136.5 68.5s-70.834 70 -93.501 117s-34 101.833 -34 164.5c0 70.667 7.16699 135.5 21.5 194.5s37 110 68 153s71 77 120 102s108.5 38.833 178.5 41.5zM174 1019c1.33301 19.333 2.33594 36.6699 3.00293 52.0029
s1.66699 32.666 3 51.999l157 50c-17.333 4.66699 -33.166 12.667 -47.499 24s-26.5 24.333 -36.5 39s-17.667 30.667 -23 48s-8 34.666 -8 51.999c0 20.667 3.66699 41.5 11 62.5s17.666 40.833 30.999 59.5s29.666 35.167 48.999 49.5s41 25.166 65 32.499c20 6 39 9 57 9
c1.33301 0 7.16602 -0.166992 17.499 -0.5s24.166 -2.66602 41.499 -6.99902s33.833 -9.66602 49.5 -15.999l45.5 -18.5l-21 -82l-36.5 13.5c-13 5 -26.333 9.16699 -40 12.5s-27.667 5.16602 -42 5.49902s-28.833 -1.5 -43.5 -5.5c-14 -4 -27.167 -10.833 -39.5 -20.5
s-22.833 -21 -31.5 -34s-14.334 -26.833 -17.001 -41.5c-1.33301 -6.66699 -2 -13.334 -2 -20.001c0 -8 1 -15.667 3 -23c6.66699 -21.333 24.834 -39.5 54.501 -54.5s64.5 -22.5 104.5 -22.5c30 0 62 4.5 96 13.5s66.667 18.167 98 27.5l28 -88z" />
    <glyph glyph-name="uni0625.fina" unicode="&#x625;" horiz-adv-x="561" arabic-form="final" 
d="M562 0c-79.333 0 -142.834 9.33105 -190.501 27.998s-84.167 46.334 -109.5 83.001s-42 81.834 -50 135.501s-12 115.5 -12 185.5v995h125v-995c0 -62 2 -113 6 -153s14 -71.5 30 -94.5s39.833 -39 71.5 -48s74.834 -13.5 129.501 -13.5h14v-123h-14zM20.999 -668.002
c1.33301 19.333 2.33594 36.6699 3.00293 52.0029s1.66699 32.666 3 51.999l157 50c-17.333 4.66699 -33.166 12.667 -47.499 24s-26.5 24.333 -36.5 39s-17.667 30.667 -23 48s-8 34.666 -8 51.999c0 20.667 3.66699 41.5 11 62.5s17.666 40.833 30.999 59.5
s29.666 35.167 48.999 49.5s41 25.166 65 32.499c20 6 39 9 57 9c1.33301 0 7.16602 -0.166992 17.499 -0.5s24.166 -2.66602 41.499 -6.99902s33.833 -9.66602 49.5 -15.999l45.5 -18.5l-21 -82l-36.5 13.5c-13 5 -26.333 9.16699 -40 12.5s-27.667 5.16602 -42 5.49902
s-28.833 -1.5 -43.5 -5.5c-14 -4 -27.167 -10.833 -39.5 -20.5s-22.833 -21 -31.5 -34s-14.334 -26.833 -17.001 -41.5c-1.33301 -6.66699 -2 -13.334 -2 -20.001c0 -8 1 -15.667 3 -23c6.66699 -21.333 24.834 -39.5 54.501 -54.5s64.5 -22.5 104.5 -22.5
c30 0 62 4.5 96 13.5s66.667 18.167 98 27.5l28 -88z" />
    <glyph glyph-name="uni0626.fina" unicode="&#x626;" horiz-adv-x="1777" arabic-form="final" 
d="M384 574c-40.667 -84 -72.499 -165.001 -95.499 -243.001s-37.167 -151.667 -42.5 -221c-2 -22 -3 -43.667 -3 -65c0 -45.333 5.16699 -92.833 15.5 -142.5s30.5 -98.5 60.5 -146.5c37.333 -59.333 86.166 -105 146.499 -137s127.833 -48 202.5 -48h249
c32 0 66.167 1.33301 102.5 4s72.666 7.5 108.999 14.5s71.333 16.167 105 27.5s63.334 25.333 89.001 42s46.167 36.5 61.5 59.5s23 49.833 23 80.5c0 20.667 -2.33301 39.5 -7 56.5s-13.334 32.333 -26.001 46s-30.334 25.834 -53.001 36.501s-51.667 20 -87 28
s-78.166 14.833 -128.499 20.5s-109.5 10.167 -177.5 13.5l3 123h864v-123h-346c28 -27.333 48.333 -57 61 -89s19 -69.333 19 -112c0 -44.667 -8.33301 -84.5 -25 -119.5s-39.667 -65.5 -69 -91.5s-63.666 -47.833 -102.999 -65.5s-81.666 -32 -126.999 -43
s-92.5 -19 -141.5 -24s-97.833 -7.5 -146.5 -7.5h-249c-96 0 -183.333 21 -262 63s-142.334 101.667 -191.001 179c-46 74.667 -75 151.667 -87 231c-7.33301 43.333 -11 86.333 -11 129c0 36.667 4 84.167 12 142.5s25.667 126.833 53 205.5s58 155 92 229z
M681.001 323.999c1.33301 19.333 2.33594 36.6699 3.00293 52.0029s1.66699 32.666 3 51.999l157 50c-17.333 4.66699 -33.166 12.667 -47.499 24s-26.5 24.333 -36.5 39s-17.667 30.667 -23 48s-8 34.666 -8 51.999c0 20.667 3.66699 41.5 11 62.5
s17.666 40.833 30.999 59.5s29.666 35.167 48.999 49.5s41 25.166 65 32.499c20 6 39 9 57 9c1.33301 0 7.16602 -0.166992 17.499 -0.5s24.166 -2.66602 41.499 -6.99902s33.833 -9.66602 49.5 -15.999l45.5 -18.5l-21 -82l-36.5 13.5c-13 5 -26.333 9.16699 -40 12.5
s-27.667 5.16602 -42 5.49902s-28.833 -1.5 -43.5 -5.5c-14 -4 -27.167 -10.833 -39.5 -20.5s-22.833 -21 -31.5 -34s-14.334 -26.833 -17.001 -41.5c-1.33301 -6.66699 -2 -13.334 -2 -20.001c0 -8 1 -15.667 3 -23c6.66699 -21.333 24.834 -39.5 54.501 -54.5
s64.5 -22.5 104.5 -22.5c30 0 62 4.5 96 13.5s66.667 18.167 98 27.5l28 -88z" />
    <glyph glyph-name="uni0626.init" unicode="&#x626;" horiz-adv-x="877" arabic-form="initial" 
d="M648 804l21.999 -94.999c8 -34.667 15.167 -70.5 21.5 -107.5s11.833 -74.5 16.5 -112.5s7.66699 -74.333 9 -109v-6c0 -45.333 -7 -90.333 -21 -135s-34.667 -84.834 -62 -120.501s-60.833 -64.334 -100.5 -86.001s-84.167 -32.5 -133.5 -32.5h-415v123h415
c32 2 60.167 10.333 84.5 25s44.666 33.834 60.999 57.501s28.833 50.5 37.5 80.5c7.33301 27.333 11 55.333 11 84v7c-0.666992 32 -3.16699 65.333 -7.5 100s-9.66602 69 -15.999 103s-13.166 67 -20.499 99l-21 89zM122.999 866.001
c1.33301 19.333 2.33594 36.6699 3.00293 52.0029s1.66699 32.666 3 51.999l157 50c-17.333 4.66699 -33.166 12.667 -47.499 24s-26.5 24.333 -36.5 39s-17.667 30.667 -23 48s-8 34.666 -8 51.999c0 20.667 3.66699 41.5 11 62.5s17.666 40.833 30.999 59.5
s29.666 35.167 48.999 49.5s41 25.166 65 32.499c20 6 39 9 57 9c1.33301 0 7.16602 -0.166992 17.499 -0.5s24.166 -2.66602 41.499 -6.99902s33.833 -9.66602 49.5 -15.999l45.5 -18.5l-21 -82l-36.5 13.5c-13 5 -26.333 9.16699 -40 12.5s-27.667 5.16602 -42 5.49902
s-28.833 -1.5 -43.5 -5.5c-14 -4 -27.167 -10.833 -39.5 -20.5s-22.833 -21 -31.5 -34s-14.334 -26.833 -17.001 -41.5c-1.33301 -6.66699 -2 -13.334 -2 -20.001c0 -8 1 -15.667 3 -23c6.66699 -21.333 24.834 -39.5 54.501 -54.5s64.5 -22.5 104.5 -22.5
c30 0 62 4.5 96 13.5s66.667 18.167 98 27.5l28 -88z" />
    <glyph glyph-name="uni0626.medi" unicode="&#x626;" horiz-adv-x="1046" arabic-form="medial" 
d="M1066 123l-0.00195312 -123h-164c-44.667 0 -87 6.66699 -127 20s-75 32.333 -105 57c-18 14.667 -33 30 -45 46c-34 -42.667 -76.667 -73.667 -128 -93s-113.666 -29.333 -186.999 -30h-330v123h330c39.333 1.33301 74.333 5 105 11s56.667 16.333 78 31
s37.833 34.167 49.5 58.5s18.167 55.5 19.5 93.5v359h123v-359c0 -36 6.66699 -66.333 20 -91s30.333 -44.667 51 -60s43.834 -26.333 69.501 -33s51.167 -10 76.5 -10h164zM185.998 809c1.33301 19.333 2.33594 36.6699 3.00293 52.0029s1.66699 32.666 3 51.999l157 50
c-17.333 4.66699 -33.166 12.667 -47.499 24s-26.5 24.333 -36.5 39s-17.667 30.667 -23 48s-8 34.666 -8 51.999c0 20.667 3.66699 41.5 11 62.5s17.666 40.833 30.999 59.5s29.666 35.167 48.999 49.5s41 25.166 65 32.499c20 6 39 9 57 9
c1.33301 0 7.16602 -0.166992 17.499 -0.5s24.166 -2.66602 41.499 -6.99902s33.833 -9.66602 49.5 -15.999l45.5 -18.5l-21 -82l-36.5 13.5c-13 5 -26.333 9.16699 -40 12.5s-27.667 5.16602 -42 5.49902s-28.833 -1.5 -43.5 -5.5c-14 -4 -27.167 -10.833 -39.5 -20.5
s-22.833 -21 -31.5 -34s-14.334 -26.833 -17.001 -41.5c-1.33301 -6.66699 -2 -13.334 -2 -20.001c0 -8 1 -15.667 3 -23c6.66699 -21.333 24.834 -39.5 54.501 -54.5s64.5 -22.5 104.5 -22.5c30 0 62 4.5 96 13.5s66.667 18.167 98 27.5l28 -88z" />
    <glyph glyph-name="uni0627.fina" unicode="&#x627;" horiz-adv-x="561" arabic-form="final" 
d="M562 0c-79.333 0 -142.834 9.33105 -190.501 27.998s-84.167 46.334 -109.5 83.001s-42 81.834 -50 135.501s-12 115.5 -12 185.5v995h125v-995c0 -62 2 -113 6 -153s14 -71.5 30 -94.5s39.833 -39 71.5 -48s74.834 -13.5 129.501 -13.5h14v-123h-14z" />
    <glyph glyph-name="uni0628.fina" unicode="&#x628;" horiz-adv-x="2241" arabic-form="final" 
d="M2261 123l0.00292969 -122.999h-44c-45.333 0 -87.833 6.5 -127.5 19.5s-74.834 32.167 -105.501 57.5c-8.66699 6.66699 -16.667 13.834 -24 21.501s-14.333 15.5 -21 23.5c-2.66699 -3.33301 -5.33398 -6.5 -8.00098 -9.5s-5.33398 -6.16699 -8.00098 -9.5
c-64.667 -67.333 -162 -101.666 -292 -102.999h-1170c-42.667 0 -83 7.16699 -121 21.5s-71.667 35.166 -101 62.499c-12 10.667 -24 24 -36 40s-23 34.667 -33 56s-18.167 45.666 -24.5 72.999s-9.5 58 -9.5 92c0 22 1.66699 45.833 5 71.5s7.5 51.334 12.5 77.001
s10.5 50.667 16.5 75l16.5 65c5 19 9.33301 34.5 13 46.5s5.83398 18.667 6.50098 20l117 -37c0 -0.666992 -3.33301 -12.334 -10 -35.001s-14 -50.334 -22 -83.001s-15.333 -67.167 -22 -103.5s-10 -68.5 -10 -96.5c0 -41.333 6 -76 18 -104s27.667 -50.833 47 -68.5
s41.166 -30.334 65.499 -38.001s48.833 -11.5 73.5 -11.5h1162c98.667 0 168 21.333 208 64c28.667 30.667 43 73.667 43 129v342h123v-342c0 -36 6.66699 -66.167 20 -90.5s30.5 -44.166 51.5 -59.499s44.333 -26.333 70 -33s51.167 -10 76.5 -10h44zM965.003 -361.999
l114 115l118 -117l-116 -116z" />
    <glyph glyph-name="uni0628.init" unicode="&#x628;" horiz-adv-x="671" arabic-form="initial" 
d="M493 804l21.999 -94.999c8 -34.667 15.167 -70.5 21.5 -107.5s11.833 -74.5 16.5 -112.5s7.66699 -74.333 9 -109v-6c0 -45.333 -7 -90.333 -21 -135s-34.667 -84.834 -62 -120.501s-60.833 -64.334 -100.5 -86.001s-84.167 -32.5 -133.5 -32.5h-260v123h260
c32 2 60.167 10.333 84.5 25s44.666 33.834 60.999 57.501s28.833 50.5 37.5 80.5c7.33301 27.333 11 55.333 11 84v7c-0.666992 32 -3.16699 65.333 -7.5 100s-9.66602 69 -15.999 103s-13.166 67 -20.499 99l-21 89zM227.999 -362.999l114 115l118 -117l-116 -116z" />
    <glyph glyph-name="uni0628.medi" unicode="&#x628;" horiz-adv-x="820" arabic-form="medial" 
d="M835 123l-0.00195312 -123h-70c-44.667 0 -87 6.66699 -127 20s-75 32.333 -105 57c-18 14.667 -33 30 -45 46c-34 -42.667 -76.667 -73.667 -128 -93s-113.666 -29.333 -186.999 -30h-188v123h188c39.333 1.33301 74.333 5 105 11s56.667 16.333 78 31
s37.833 34.167 49.5 58.5s18.167 55.5 19.5 93.5v359h123v-359c0 -36 6.66699 -66.333 20 -91s30.333 -44.667 51 -60s43.834 -26.333 69.501 -33s51.167 -10 76.5 -10h70zM260.998 -374l114 115l118 -117l-116 -116z" />
    <glyph glyph-name="uni0629.fina" unicode="&#x629;" horiz-adv-x="1261" arabic-form="final" 
d="M1284 0l-19.999 -0.00195312c-52.667 0 -101.834 6.33301 -147.501 19s-88.5 31.334 -128.5 56.001c-46 29.333 -85.667 66 -119 110c-14.667 19.333 -27.667 40.333 -39 63s-21.333 46.667 -30 72c-20.667 -42 -46.5 -80.167 -77.5 -114.5
s-69.167 -60.166 -114.5 -77.499c-54 -21.333 -107.333 -32 -160 -32c-4.66699 0 -22.5 0.5 -53.5 1.5s-70.167 13 -117.5 36s-87.833 55.5 -121.5 97.5s-55.5 91.333 -65.5 148c-4 22 -6 43.667 -6 65c0 45.333 10 94 30 146s55 102.667 105 152
c48 48 107.333 90.333 178 127s151 67 241 91l-27 134l122 34l50.5 -217l38.5 -166l22 -96.5l20.5 -89l21.5 -86.5l24 -91c10.667 -39.333 24.667 -72.833 42 -100.5s36.833 -51.167 58.5 -70.5s44.167 -34.833 67.5 -46.5s46.5 -20.5 69.5 -26.5s44.5 -10 64.5 -12
s37.333 -3 52 -3h20v-123zM673.001 842.998c-78.667 -21.333 -148.502 -47.5 -209.502 -78.5s-111.667 -65.667 -152 -104s-69.166 -79.5 -86.499 -123.5c-12 -30 -18 -60.667 -18 -92c0 -14.667 1.33301 -29.334 4 -44.001c6.66699 -38 22.667 -70.667 48 -98
s55 -48.166 89 -62.499s69.667 -21.833 107 -22.5h5c34.667 0 66 6.66699 94 20c38 18.667 68.667 41.167 92 67.5s41.333 53.833 54 82.5s21 57.167 25 85.5s5.83301 53.833 5.5 76.5s-1.66602 41.167 -3.99902 55.5s-3.5 21.833 -3.5 22.5l-18.5 81l-13 57l-10 42z
M850.999 1340l-124 125l61.5 62.5l60.5 61.5l126 -125zM444.999 1342l-124 125l61.5 62.5l60.5 61.5l126 -125z" />
    <glyph glyph-name="uni062A.fina" unicode="&#x62a;" horiz-adv-x="2241" arabic-form="final" 
d="M2261 123l0.00292969 -122.999h-44c-45.333 0 -87.833 6.5 -127.5 19.5s-74.834 32.167 -105.501 57.5c-8.66699 6.66699 -16.667 13.834 -24 21.501s-14.333 15.5 -21 23.5c-2.66699 -3.33301 -5.33398 -6.5 -8.00098 -9.5s-5.33398 -6.16699 -8.00098 -9.5
c-64.667 -67.333 -162 -101.666 -292 -102.999h-1170c-42.667 0 -83 7.16699 -121 21.5s-71.667 35.166 -101 62.499c-12 10.667 -24 24 -36 40s-23 34.667 -33 56s-18.167 45.666 -24.5 72.999s-9.5 58 -9.5 92c0 22 1.66699 45.833 5 71.5s7.5 51.334 12.5 77.001
s10.5 50.667 16.5 75l16.5 65c5 19 9.33301 34.5 13 46.5s5.83398 18.667 6.50098 20l117 -37c0 -0.666992 -3.33301 -12.334 -10 -35.001s-14 -50.334 -22 -83.001s-15.333 -67.167 -22 -103.5s-10 -68.5 -10 -96.5c0 -41.333 6 -76 18 -104s27.667 -50.833 47 -68.5
s41.166 -30.334 65.499 -38.001s48.833 -11.5 73.5 -11.5h1162c98.667 0 168 21.333 208 64c28.667 30.667 43 73.667 43 129v342h123v-342c0 -36 6.66699 -66.167 20 -90.5s30.5 -44.166 51.5 -59.499s44.333 -26.333 70 -33s51.167 -10 76.5 -10h44zM1267 802.001
l-124 125l61.5 62.5l60.5 61.5l126 -125zM861.003 804.001l-124 125l61.5 62.5l60.5 61.5l126 -125z" />
    <glyph glyph-name="uni062A.init" unicode="&#x62a;" horiz-adv-x="877" arabic-form="initial" 
d="M648 804l21.999 -94.999c8 -34.667 15.167 -70.5 21.5 -107.5s11.833 -74.5 16.5 -112.5s7.66699 -74.333 9 -109v-6c0 -45.333 -7 -90.333 -21 -135s-34.667 -84.834 -62 -120.501s-60.833 -64.334 -100.5 -86.001s-84.167 -32.5 -133.5 -32.5h-415v123h415
c32 2 60.167 10.333 84.5 25s44.666 33.834 60.999 57.501s28.833 50.5 37.5 80.5c7.33301 27.333 11 55.333 11 84v7c-0.666992 32 -3.16699 65.333 -7.5 100s-9.66602 69 -15.999 103s-13.166 67 -20.499 99l-21 89zM666.999 1062l-124 125l61.5 62.5l60.5 61.5l126 -125z
M260.999 1064l-124 125l61.5 62.5l60.5 61.5l126 -125z" />
    <glyph glyph-name="uni062A.medi" unicode="&#x62a;" horiz-adv-x="1046" arabic-form="medial" 
d="M1066 123l-0.00195312 -123h-164c-44.667 0 -87 6.66699 -127 20s-75 32.333 -105 57c-18 14.667 -33 30 -45 46c-34 -42.667 -76.667 -73.667 -128 -93s-113.666 -29.333 -186.999 -30h-330v123h330c39.333 1.33301 74.333 5 105 11s56.667 16.333 78 31
s37.833 34.167 49.5 58.5s18.167 55.5 19.5 93.5v359h123v-359c0 -36 6.66699 -66.333 20 -91s30.333 -44.667 51 -60s43.834 -26.333 69.501 -33s51.167 -10 76.5 -10h164zM753.998 991l-124 125l61.5 62.5l60.5 61.5l126 -125zM347.998 993l-124 125l61.5 62.5l60.5 61.5
l126 -125z" />
    <glyph glyph-name="uni062B.fina" unicode="&#x62b;" horiz-adv-x="2241" arabic-form="final" 
d="M2261 123l0.00292969 -122.999h-44c-45.333 0 -87.833 6.5 -127.5 19.5s-74.834 32.167 -105.501 57.5c-8.66699 6.66699 -16.667 13.834 -24 21.501s-14.333 15.5 -21 23.5c-2.66699 -3.33301 -5.33398 -6.5 -8.00098 -9.5s-5.33398 -6.16699 -8.00098 -9.5
c-64.667 -67.333 -162 -101.666 -292 -102.999h-1170c-42.667 0 -83 7.16699 -121 21.5s-71.667 35.166 -101 62.499c-12 10.667 -24 24 -36 40s-23 34.667 -33 56s-18.167 45.666 -24.5 72.999s-9.5 58 -9.5 92c0 22 1.66699 45.833 5 71.5s7.5 51.334 12.5 77.001
s10.5 50.667 16.5 75l16.5 65c5 19 9.33301 34.5 13 46.5s5.83398 18.667 6.50098 20l117 -37c0 -0.666992 -3.33301 -12.334 -10 -35.001s-14 -50.334 -22 -83.001s-15.333 -67.167 -22 -103.5s-10 -68.5 -10 -96.5c0 -41.333 6 -76 18 -104s27.667 -50.833 47 -68.5
s41.166 -30.334 65.499 -38.001s48.833 -11.5 73.5 -11.5h1162c98.667 0 168 21.333 208 64c28.667 30.667 43 73.667 43 129v342h123v-342c0 -36 6.66699 -66.167 20 -90.5s30.5 -44.166 51.5 -59.499s44.333 -26.333 70 -33s51.167 -10 76.5 -10h44zM1004 887.001
l-124 -125l-124 123l125 126zM1407 890.001l-124 -124l-126 124l125 125zM1209 1162l-124 -124l-126 124l125 125z" />
    <glyph glyph-name="uni062B.init" unicode="&#x62b;" horiz-adv-x="877" arabic-form="initial" 
d="M648 804l21.999 -94.999c8 -34.667 15.167 -70.5 21.5 -107.5s11.833 -74.5 16.5 -112.5s7.66699 -74.333 9 -109v-6c0 -45.333 -7 -90.333 -21 -135s-34.667 -84.834 -62 -120.501s-60.833 -64.334 -100.5 -86.001s-84.167 -32.5 -133.5 -32.5h-415v123h415
c32 2 60.167 10.333 84.5 25s44.666 33.834 60.999 57.501s28.833 50.5 37.5 80.5c7.33301 27.333 11 55.333 11 84v7c-0.666992 32 -3.16699 65.333 -7.5 100s-9.66602 69 -15.999 103s-13.166 67 -20.499 99l-21 89zM357.999 1163l-124 -125l-124 123l125 126z
M760.999 1166l-124 -124l-126 124l125 125zM562.999 1438l-124 -124l-126 124l125 125z" />
    <glyph glyph-name="uni062B.medi" unicode="&#x62b;" horiz-adv-x="1046" arabic-form="medial" 
d="M1066 123l-0.00195312 -123h-164c-44.667 0 -87 6.66699 -127 20s-75 32.333 -105 57c-18 14.667 -33 30 -45 46c-34 -42.667 -76.667 -73.667 -128 -93s-113.666 -29.333 -186.999 -30h-330v123h330c39.333 1.33301 74.333 5 105 11s56.667 16.333 78 31
s37.833 34.167 49.5 58.5s18.167 55.5 19.5 93.5v359h123v-359c0 -36 6.66699 -66.333 20 -91s30.333 -44.667 51 -60s43.834 -26.333 69.501 -33s51.167 -10 76.5 -10h164zM406.998 1084l-124 -125l-124 123l125 126zM809.998 1087l-124 -124l-126 124l125 125z
M611.998 1359l-124 -124l-126 124l125 125z" />
    <glyph glyph-name="uni062C.fina" unicode="&#x62c;" horiz-adv-x="1575" arabic-form="final" 
d="M464 877l38.9971 -4.99414c10.667 -1.33301 22.834 -3.5 36.501 -6.5s30.334 -7.5 50.001 -13.5s45.667 -15.167 78 -27.5l121 -48l179.5 -74.5l133 -57l113.5 -49.5l79.5 -34.5l30 -14l-4 -114c-0.666992 -0.666992 -15.334 -6.16699 -44.001 -16.5l-123 -45.5v-54
c0 -36 6.66699 -66.333 20 -91s30.5 -44.667 51.5 -60s44.333 -26.333 70 -33s51.167 -10 76.5 -10h225v-123h-225c-44.667 0 -87 6.66699 -127 20s-75.333 32.333 -106 57c-35.333 29.333 -62.166 64.166 -80.499 104.499s-27.5 85.5 -27.5 135.5v9l-151.5 -57l-178.5 -67
l-94.5 -34.5c-32.333 -11.667 -64.5 -24.334 -96.5 -38.001s-63.5 -29 -94.5 -46s-60.167 -36.833 -87.5 -59.5c-45.333 -36 -77.666 -77 -96.999 -123c-17.333 -39.333 -26 -85 -26 -137c0 -8.66699 0.333008 -17.334 1 -26.001c2 -47.333 11.833 -89.333 29.5 -126
s41 -68.834 70 -96.501s62.667 -51.167 101 -70.5s78.666 -35 120.999 -47s85.833 -20.667 130.5 -26s88.334 -8 131.001 -8h438v-123h-438c-92 0 -179.667 10 -263 30s-157.333 50.333 -222 91s-116.667 91.667 -156 153s-61 133.666 -65 216.999c-0.666992 10 -1 20 -1 30
c0 148.667 56.333 268 169 358c29.333 24 60.5 45.167 93.5 63.5s66.833 35.166 101.5 50.499s69.834 29.666 105.501 42.999l106.5 40c51.333 19.333 102.833 37.666 154.5 54.999l147.5 48.5l129 41c39.333 12.333 72.666 23.5 99.999 33.5l-140.5 59.5l-147 59.5
l-143 54.5c-46.333 17 -88.833 31.833 -127.5 44.5s-72.5 22.667 -101.5 30s-50.833 11 -65.5 11c-42 0 -79.833 -16.667 -113.5 -50s-58.167 -79.666 -73.5 -138.999l-119 31c10 36.667 23.833 71.5 41.5 104.5s39.334 62.333 65.001 88s55.167 46.334 88.5 62.001
s70.666 24.5 111.999 26.5zM673.997 -197.994l114 115l118 -117l-116 -116z" />
    <glyph glyph-name="uni062C.init" unicode="&#x62c;" horiz-adv-x="1418" arabic-form="initial" 
d="M478 853c20.667 0 47.167 -3.83203 79.5 -11.499s68.5 -17.834 108.5 -30.501s82.333 -27.167 127 -43.5l134 -51l130 -52.5l115.5 -48l90 -37.5c25 -10.333 42.833 -17.5 53.5 -21.5l17 -111l-184 -133c-56.667 -40.667 -113.334 -77.5 -170.001 -110.5
s-115.334 -62.167 -176.001 -87.5s-128 -46.5 -202 -63.5s-156.667 -29.833 -248 -38.5s-215.666 -13 -372.999 -13v123h37c122.667 0 221.5 3 296.5 9s145 15.5 210 28.5s125 29.5 180 49.5s108.833 43.667 161.5 71s105.834 58.166 159.501 92.499l173.5 114.5l-142.5 54
l-145.5 55l-140 51l-125 42.5c-38 12.333 -71.5 22 -100.5 29s-51.5 10.5 -67.5 10.5c-42 0 -79.833 -16.667 -113.5 -50s-58.167 -79.666 -73.5 -138.999l-119 31c10 38.667 24.167 75 42.5 109s40.5 63.667 66.5 89s55.5 45.5 88.5 60.5s69.5 22.5 109.5 22.5z
M559 -357.999l114 115l118 -117l-116 -116z" />
    <glyph glyph-name="uni062C.medi" unicode="&#x62c;" horiz-adv-x="1526" arabic-form="medial" 
d="M1541 0l-72.001 -0.00390625c-22 0 -46.333 1.66699 -73 5s-53.167 8.33301 -79.5 15s-51 14.834 -74 24.501s-42.167 20.5 -57.5 32.5c-30 24 -54.167 52.167 -72.5 84.5s-30.5 67.833 -36.5 106.5c-45.333 -28.667 -91.166 -55.334 -137.499 -80.001
s-94.5 -47 -144.5 -67s-102.833 -37.5 -158.5 -52.5s-116 -27.5 -181 -37.5s-135.5 -17.667 -211.5 -23s-162.667 -8 -260 -8v123c106.667 0 200.5 3 281.5 9s155.667 15.333 224 28s132 28.834 191 48.501s116.333 42.834 172 69.501s111.5 57.167 167.5 91.5
s115 72.5 177 114.5l-142.5 54.5l-145.5 55.5l-139.5 52c-45 16.667 -86.5 31.167 -124.5 43.5s-71.5 22.166 -100.5 29.499s-51.5 11 -67.5 11c-42 0 -79.833 -16.667 -113.5 -50s-58.167 -79.666 -73.5 -138.999l-119 31c10 38.667 24.167 75 42.5 109
s40.5 63.667 66.5 89s55.5 45.5 88.5 60.5s69.5 22.5 109.5 22.5c20.667 0 47.167 -3.83301 79.5 -11.5s68.5 -17.834 108.5 -30.501s82.333 -27.167 127 -43.5l134 -51l130 -52.5l115.5 -48l90 -37.5c25 -10.333 42.833 -17.5 53.5 -21.5l17 -111l-74.5 -54l-71.5 -51
c0 -35.333 7.33301 -66.666 22 -93.999s34.667 -50.166 60 -68.499s55.333 -32.166 90 -41.499s71.667 -14 111 -14h72v-123zM575.999 -358.004l114 115l118 -117l-116 -116z" />
    <glyph glyph-name="uni062D.fina" unicode="&#x62d;" horiz-adv-x="1575" arabic-form="final" 
d="M464 877l38.9971 -4.99414c10.667 -1.33301 22.834 -3.5 36.501 -6.5s30.334 -7.5 50.001 -13.5s45.667 -15.167 78 -27.5l121 -48l179.5 -74.5l133 -57l113.5 -49.5l79.5 -34.5l30 -14l-4 -114c-0.666992 -0.666992 -15.334 -6.16699 -44.001 -16.5l-123 -45.5v-54
c0 -36 6.66699 -66.333 20 -91s30.5 -44.667 51.5 -60s44.333 -26.333 70 -33s51.167 -10 76.5 -10h225v-123h-225c-44.667 0 -87 6.66699 -127 20s-75.333 32.333 -106 57c-35.333 29.333 -62.166 64.166 -80.499 104.499s-27.5 85.5 -27.5 135.5v9l-151.5 -57l-178.5 -67
l-94.5 -34.5c-32.333 -11.667 -64.5 -24.334 -96.5 -38.001s-63.5 -29 -94.5 -46s-60.167 -36.833 -87.5 -59.5c-45.333 -36 -77.666 -77 -96.999 -123c-17.333 -39.333 -26 -85 -26 -137c0 -8.66699 0.333008 -17.334 1 -26.001c2 -47.333 11.833 -89.333 29.5 -126
s41 -68.834 70 -96.501s62.667 -51.167 101 -70.5s78.666 -35 120.999 -47s85.833 -20.667 130.5 -26s88.334 -8 131.001 -8h438v-123h-438c-92 0 -179.667 10 -263 30s-157.333 50.333 -222 91s-116.667 91.667 -156 153s-61 133.666 -65 216.999c-0.666992 10 -1 20 -1 30
c0 148.667 56.333 268 169 358c29.333 24 60.5 45.167 93.5 63.5s66.833 35.166 101.5 50.499s69.834 29.666 105.501 42.999l106.5 40c51.333 19.333 102.833 37.666 154.5 54.999l147.5 48.5l129 41c39.333 12.333 72.666 23.5 99.999 33.5l-140.5 59.5l-147 59.5
l-143 54.5c-46.333 17 -88.833 31.833 -127.5 44.5s-72.5 22.667 -101.5 30s-50.833 11 -65.5 11c-42 0 -79.833 -16.667 -113.5 -50s-58.167 -79.666 -73.5 -138.999l-119 31c10 36.667 23.833 71.5 41.5 104.5s39.334 62.333 65.001 88s55.167 46.334 88.5 62.001
s70.666 24.5 111.999 26.5z" />
    <glyph glyph-name="uni062D.init" unicode="&#x62d;" horiz-adv-x="1418" arabic-form="initial" 
d="M478 853c20.667 0 47.167 -3.83203 79.5 -11.499s68.5 -17.834 108.5 -30.501s82.333 -27.167 127 -43.5l134 -51l130 -52.5l115.5 -48l90 -37.5c25 -10.333 42.833 -17.5 53.5 -21.5l17 -111l-184 -133c-56.667 -40.667 -113.334 -77.5 -170.001 -110.5
s-115.334 -62.167 -176.001 -87.5s-128 -46.5 -202 -63.5s-156.667 -29.833 -248 -38.5s-215.666 -13 -372.999 -13v123h37c122.667 0 221.5 3 296.5 9s145 15.5 210 28.5s125 29.5 180 49.5s108.833 43.667 161.5 71s105.834 58.166 159.501 92.499l173.5 114.5l-142.5 54
l-145.5 55l-140 51l-125 42.5c-38 12.333 -71.5 22 -100.5 29s-51.5 10.5 -67.5 10.5c-42 0 -79.833 -16.667 -113.5 -50s-58.167 -79.666 -73.5 -138.999l-119 31c10 38.667 24.167 75 42.5 109s40.5 63.667 66.5 89s55.5 45.5 88.5 60.5s69.5 22.5 109.5 22.5z" />
    <glyph glyph-name="uni062D.medi" unicode="&#x62d;" horiz-adv-x="1526" arabic-form="medial" 
d="M1541 0l-72.001 -0.00390625c-22 0 -46.333 1.66699 -73 5s-53.167 8.33301 -79.5 15s-51 14.834 -74 24.501s-42.167 20.5 -57.5 32.5c-30 24 -54.167 52.167 -72.5 84.5s-30.5 67.833 -36.5 106.5c-45.333 -28.667 -91.166 -55.334 -137.499 -80.001
s-94.5 -47 -144.5 -67s-102.833 -37.5 -158.5 -52.5s-116 -27.5 -181 -37.5s-135.5 -17.667 -211.5 -23s-162.667 -8 -260 -8v123c106.667 0 200.5 3 281.5 9s155.667 15.333 224 28s132 28.834 191 48.501s116.333 42.834 172 69.501s111.5 57.167 167.5 91.5
s115 72.5 177 114.5l-142.5 54.5l-145.5 55.5l-139.5 52c-45 16.667 -86.5 31.167 -124.5 43.5s-71.5 22.166 -100.5 29.499s-51.5 11 -67.5 11c-42 0 -79.833 -16.667 -113.5 -50s-58.167 -79.666 -73.5 -138.999l-119 31c10 38.667 24.167 75 42.5 109
s40.5 63.667 66.5 89s55.5 45.5 88.5 60.5s69.5 22.5 109.5 22.5c20.667 0 47.167 -3.83301 79.5 -11.5s68.5 -17.834 108.5 -30.501s82.333 -27.167 127 -43.5l134 -51l130 -52.5l115.5 -48l90 -37.5c25 -10.333 42.833 -17.5 53.5 -21.5l17 -111l-74.5 -54l-71.5 -51
c0 -35.333 7.33301 -66.666 22 -93.999s34.667 -50.166 60 -68.499s55.333 -32.166 90 -41.499s71.667 -14 111 -14h72v-123z" />
    <glyph glyph-name="uni062E.fina" unicode="&#x62e;" horiz-adv-x="1575" arabic-form="final" 
d="M464 877l38.9971 -4.99414c10.667 -1.33301 22.834 -3.5 36.501 -6.5s30.334 -7.5 50.001 -13.5s45.667 -15.167 78 -27.5l121 -48l179.5 -74.5l133 -57l113.5 -49.5l79.5 -34.5l30 -14l-4 -114c-0.666992 -0.666992 -15.334 -6.16699 -44.001 -16.5l-123 -45.5v-54
c0 -36 6.66699 -66.333 20 -91s30.5 -44.667 51.5 -60s44.333 -26.333 70 -33s51.167 -10 76.5 -10h225v-123h-225c-44.667 0 -87 6.66699 -127 20s-75.333 32.333 -106 57c-35.333 29.333 -62.166 64.166 -80.499 104.499s-27.5 85.5 -27.5 135.5v9l-151.5 -57l-178.5 -67
l-94.5 -34.5c-32.333 -11.667 -64.5 -24.334 -96.5 -38.001s-63.5 -29 -94.5 -46s-60.167 -36.833 -87.5 -59.5c-45.333 -36 -77.666 -77 -96.999 -123c-17.333 -39.333 -26 -85 -26 -137c0 -8.66699 0.333008 -17.334 1 -26.001c2 -47.333 11.833 -89.333 29.5 -126
s41 -68.834 70 -96.501s62.667 -51.167 101 -70.5s78.666 -35 120.999 -47s85.833 -20.667 130.5 -26s88.334 -8 131.001 -8h438v-123h-438c-92 0 -179.667 10 -263 30s-157.333 50.333 -222 91s-116.667 91.667 -156 153s-61 133.666 -65 216.999c-0.666992 10 -1 20 -1 30
c0 148.667 56.333 268 169 358c29.333 24 60.5 45.167 93.5 63.5s66.833 35.166 101.5 50.499s69.834 29.666 105.501 42.999l106.5 40c51.333 19.333 102.833 37.666 154.5 54.999l147.5 48.5l129 41c39.333 12.333 72.666 23.5 99.999 33.5l-140.5 59.5l-147 59.5
l-143 54.5c-46.333 17 -88.833 31.833 -127.5 44.5s-72.5 22.667 -101.5 30s-50.833 11 -65.5 11c-42 0 -79.833 -16.667 -113.5 -50s-58.167 -79.666 -73.5 -138.999l-119 31c10 36.667 23.833 71.5 41.5 104.5s39.334 62.333 65.001 88s55.167 46.334 88.5 62.001
s70.666 24.5 111.999 26.5zM384.997 1259.01l128 130l132 -132l-130 -130z" />
    <glyph glyph-name="uni062E.init" unicode="&#x62e;" horiz-adv-x="1418" arabic-form="initial" 
d="M478 853c20.667 0 47.167 -3.83203 79.5 -11.499s68.5 -17.834 108.5 -30.501s82.333 -27.167 127 -43.5l134 -51l130 -52.5l115.5 -48l90 -37.5c25 -10.333 42.833 -17.5 53.5 -21.5l17 -111l-184 -133c-56.667 -40.667 -113.334 -77.5 -170.001 -110.5
s-115.334 -62.167 -176.001 -87.5s-128 -46.5 -202 -63.5s-156.667 -29.833 -248 -38.5s-215.666 -13 -372.999 -13v123h37c122.667 0 221.5 3 296.5 9s145 15.5 210 28.5s125 29.5 180 49.5s108.833 43.667 161.5 71s105.834 58.166 159.501 92.499l173.5 114.5l-142.5 54
l-145.5 55l-140 51l-125 42.5c-38 12.333 -71.5 22 -100.5 29s-51.5 10.5 -67.5 10.5c-42 0 -79.833 -16.667 -113.5 -50s-58.167 -79.666 -73.5 -138.999l-119 31c10 38.667 24.167 75 42.5 109s40.5 63.667 66.5 89s55.5 45.5 88.5 60.5s69.5 22.5 109.5 22.5zM308 1261
l128 130l132 -132l-130 -130z" />
    <glyph glyph-name="uni062E.medi" unicode="&#x62e;" horiz-adv-x="1526" arabic-form="medial" 
d="M1541 0l-72.001 -0.00390625c-22 0 -46.333 1.66699 -73 5s-53.167 8.33301 -79.5 15s-51 14.834 -74 24.501s-42.167 20.5 -57.5 32.5c-30 24 -54.167 52.167 -72.5 84.5s-30.5 67.833 -36.5 106.5c-45.333 -28.667 -91.166 -55.334 -137.499 -80.001
s-94.5 -47 -144.5 -67s-102.833 -37.5 -158.5 -52.5s-116 -27.5 -181 -37.5s-135.5 -17.667 -211.5 -23s-162.667 -8 -260 -8v123c106.667 0 200.5 3 281.5 9s155.667 15.333 224 28s132 28.834 191 48.501s116.333 42.834 172 69.501s111.5 57.167 167.5 91.5
s115 72.5 177 114.5l-142.5 54.5l-145.5 55.5l-139.5 52c-45 16.667 -86.5 31.167 -124.5 43.5s-71.5 22.166 -100.5 29.499s-51.5 11 -67.5 11c-42 0 -79.833 -16.667 -113.5 -50s-58.167 -79.666 -73.5 -138.999l-119 31c10 38.667 24.167 75 42.5 109
s40.5 63.667 66.5 89s55.5 45.5 88.5 60.5s69.5 22.5 109.5 22.5c20.667 0 47.167 -3.83301 79.5 -11.5s68.5 -17.834 108.5 -30.501s82.333 -27.167 127 -43.5l134 -51l130 -52.5l115.5 -48l90 -37.5c25 -10.333 42.833 -17.5 53.5 -21.5l17 -111l-74.5 -54l-71.5 -51
c0 -35.333 7.33301 -66.666 22 -93.999s34.667 -50.166 60 -68.499s55.333 -32.166 90 -41.499s71.667 -14 111 -14h72v-123zM312.999 1261l128 130l132 -132l-130 -130z" />
    <glyph glyph-name="uni062F.fina" unicode="&#x62f;" horiz-adv-x="1254" arabic-form="final" 
d="M1271 123l0.00292969 -123h-16c-24.667 0 -50 4.66699 -76 14s-51.5 22.333 -76.5 39s-48.667 36 -71 58s-41.833 45.667 -58.5 71c-0.666992 -1.33301 -1 -2.33301 -1 -3s-0.333008 -1.33398 -1 -2.00098c-14.667 -34.667 -36.334 -64.167 -65.001 -88.5
s-61.167 -44.333 -97.5 -60s-75.333 -27 -117 -34s-82.834 -10.5 -123.501 -10.5c-44 0 -85.333 2.16699 -124 6.5s-76.5 11.5 -113.5 21.5s-74.667 23.333 -113 40s-78.833 37.334 -121.5 62.001l63 106l52 -32c28 -16.667 61.333 -31 100 -43s79.5 -21.167 122.5 -27.5
s86.5 -9.5 130.5 -9.5h12c38.667 0 75 3 109 9c44 7.33301 81.833 20.166 113.5 38.499s53.167 41.166 64.5 68.499c6 14.667 9 30 9 46c0 10.667 -2.5 26.334 -7.5 47.001s-17.167 46 -36.5 76l-376 570l103 66l405 -613l73.5 -109.5
c24.333 -35 48.666 -66.167 72.999 -93.5s48.833 -49.166 73.5 -65.499s49.667 -24.5 75 -24.5h16z" />
    <glyph glyph-name="uni0630.fina" unicode="&#x630;" horiz-adv-x="1254" arabic-form="final" 
d="M1271 123l0.00292969 -123h-16c-24.667 0 -50 4.66699 -76 14s-51.5 22.333 -76.5 39s-48.667 36 -71 58s-41.833 45.667 -58.5 71c-0.666992 -1.33301 -1 -2.33301 -1 -3s-0.333008 -1.33398 -1 -2.00098c-14.667 -34.667 -36.334 -64.167 -65.001 -88.5
s-61.167 -44.333 -97.5 -60s-75.333 -27 -117 -34s-82.834 -10.5 -123.501 -10.5c-44 0 -85.333 2.16699 -124 6.5s-76.5 11.5 -113.5 21.5s-74.667 23.333 -113 40s-78.833 37.334 -121.5 62.001l63 106l52 -32c28 -16.667 61.333 -31 100 -43s79.5 -21.167 122.5 -27.5
s86.5 -9.5 130.5 -9.5h12c38.667 0 75 3 109 9c44 7.33301 81.833 20.166 113.5 38.499s53.167 41.166 64.5 68.499c6 14.667 9 30 9 46c0 10.667 -2.5 26.334 -7.5 47.001s-17.167 46 -36.5 76l-376 570l103 66l405 -613l73.5 -109.5
c24.333 -35 48.666 -66.167 72.999 -93.5s48.833 -49.166 73.5 -65.499s49.667 -24.5 75 -24.5h16zM418.003 1418l128 130l132 -132l-130 -130z" />
    <glyph glyph-name="uni0631.fina" unicode="&#x631;" horiz-adv-x="955" arabic-form="final" 
d="M970 0l-46 0.000976562c-41.333 0 -80.5 5.66699 -117.5 17s-70.5 27.666 -100.5 48.999v-33c0 -193.333 -47.833 -339.333 -143.5 -438s-236.834 -148 -423.501 -148h-139v122h139c156.667 0 271.334 41 344.001 123c66.667 76 100 189.667 100 341v642h123v-358
c0 -36 6.66699 -66.333 20 -91s30.5 -44.667 51.5 -60s44.333 -26.333 70 -33s51.167 -10 76.5 -10h46v-123z" />
    <glyph glyph-name="uni0632.fina" unicode="&#x632;" horiz-adv-x="955" arabic-form="final" 
d="M970 0l-46 0.000976562c-41.333 0 -80.5 5.66699 -117.5 17s-70.5 27.666 -100.5 48.999v-33c0 -193.333 -47.833 -339.333 -143.5 -438s-236.834 -148 -423.501 -148h-139v122h139c156.667 0 271.334 41 344.001 123c66.667 76 100 189.667 100 341v642h123v-358
c0 -36 6.66699 -66.333 20 -91s30.5 -44.667 51.5 -60s44.333 -26.333 70 -33s51.167 -10 76.5 -10h46v-123zM507 1081l128 130l132 -132l-130 -130z" />
    <glyph glyph-name="uni0633.fina" unicode="&#x633;" horiz-adv-x="2927" arabic-form="final" 
d="M2890 0c-70 1.33301 -130.167 12.3379 -180.5 33.0049s-92.5 54.667 -126.5 102c-32 -44 -71.833 -77.5 -119.5 -100.5s-99.167 -34.5 -154.5 -34.5c-70 0 -130.167 11 -180.5 33s-92.5 56 -126.5 102c-30 -48.667 -69.333 -83.334 -118 -104.001s-100.667 -31 -156 -31
c-108.667 0 -193.667 28.333 -255 85v-136c0 -150.667 -35.333 -266.667 -106 -348c-44 -51.333 -100.667 -89.333 -170 -114c-71.333 -26.667 -158 -40 -260 -40h-239c-96 0 -183.167 21 -261.5 63s-141.833 101.667 -190.5 179c-16.667 26.667 -31.167 54.667 -43.5 84
s-22.166 60.666 -29.499 93.999c-13.333 58 -20 119.333 -20 184v33c8 166.667 58.667 347.334 152 542.001l111 -53c-40.667 -84 -72.5 -165 -95.5 -243s-37.167 -151.667 -42.5 -221c-2 -23.333 -3 -46 -3 -68c0 -44 5 -90.833 15 -140.5s30 -98.5 60 -146.5
c37.333 -58.667 86.166 -104 146.499 -136s127.5 -48 201.5 -48h239c160.667 0 273 37 337 111c50.667 58.667 76 148 76 268v726h123v-220c0 -130.667 25.667 -221.667 77 -273c19.333 -20 43.5 -34.833 72.5 -44.5s64.167 -14.5 105.5 -14.5c24.667 0 49.5 4 74.5 12
s47.833 20.667 68.5 38s37.5 40.166 50.5 68.499s19.5 63.166 19.5 104.499v329h123v-329c0 -73.333 20.833 -128.5 62.5 -165.5s102.5 -56.167 182.5 -57.5c24.667 0 49.5 4 74.5 12s47.833 20.667 68.5 38s37.5 40.166 50.5 68.499s19.5 63.166 19.5 104.499v329h123v-329
c0 -73.333 20.833 -128.5 62.5 -165.5s102.5 -56.167 182.5 -57.5h56v-123h-56z" />
    <glyph glyph-name="uni0633.init" unicode="&#x633;" horiz-adv-x="1778" arabic-form="initial" 
d="M-21 123l189 0.00195312c24.667 0 49.5 4 74.5 12s47.833 20.667 68.5 38s37.5 40.166 50.5 68.499s19.5 63.166 19.5 104.499v329h123v-329c0 -146.667 80 -221 240 -223c24.667 0 49.5 4 74.5 12s47.833 20.667 68.5 38s37.5 40.166 50.5 68.499
s19.5 63.166 19.5 104.499v329h123v-329c0 -146.667 80 -221 240 -223v1c24 0 48.167 3.83301 72.5 11.5s46.333 20.334 66 38.001s35.834 40.667 48.501 69s19 63.166 19 104.499c0 24 -2 50.833 -6 80.5s-9.16699 60 -15.5 91s-13 61.167 -20 90.5s-13.667 55.5 -20 78.5
l-15.5 56c-4 14.333 -6 21.833 -6 22.5l117 36c0.666992 -2 3.33398 -11 8.00098 -27l17 -61c6.66699 -24.667 13.667 -52.667 21 -84s14.166 -63.5 20.499 -96.5s11.666 -65.667 15.999 -98s6.5 -61.833 6.5 -88.5c0 -34 -3.16699 -64.833 -9.5 -92.5
s-14.666 -52.167 -24.999 -73.5s-21.666 -40 -33.999 -56s-24.5 -29.333 -36.5 -40c-29.333 -26.667 -62.666 -47.167 -99.999 -61.5s-77 -21.833 -119 -22.5v-1c-119.333 0 -212 33 -278 99c-5.33301 5.33301 -10.333 11 -15 17s-9.33398 12.333 -14.001 19
c-7.33301 -10.667 -15 -20.167 -23 -28.5s-15.667 -15.833 -23 -22.5c-30.667 -27.333 -66.334 -48.166 -107.001 -62.499s-82.667 -21.5 -126 -21.5c-120.667 0 -214 33 -280 99c-5.33301 5.33301 -10.333 11 -15 17s-9.33398 12.333 -14.001 19
c-7.33301 -10.667 -15 -20.167 -23 -28.5s-15.667 -15.833 -23 -22.5c-30.667 -27.333 -65.5 -48.166 -104.5 -62.499s-80.167 -21.5 -123.5 -21.5h-177v123z" />
    <glyph glyph-name="uni0633.medi" unicode="&#x633;" horiz-adv-x="1787" arabic-form="medial" 
d="M1753 0c-31.333 0 -61.833 2.5 -91.5 7.5s-57.5 12.833 -83.5 23.5s-49.667 24.667 -71 42s-39 38 -53 62c-7.33301 -10.667 -15 -20.167 -23 -28.5s-15.667 -15.833 -23 -22.5c-30.667 -27.333 -64.667 -48.166 -102 -62.499s-77.666 -21.5 -120.999 -21.5
c-34.667 0 -65.834 2.83301 -93.501 8.5s-52.667 14 -75 25s-43 25 -62 42s-36.833 36.833 -53.5 59.5c-32 -43.333 -71.167 -76.666 -117.5 -99.999s-97.166 -35 -152.499 -35c-60 0 -110.5 8.33301 -151.5 25s-77.833 41.334 -110.5 74.001
c-5.33301 5.33301 -10.333 11 -15 17s-9.33398 12.333 -14.001 19c-7.33301 -10.667 -15 -20.167 -23 -28.5s-15.667 -15.833 -23 -22.5c-30.667 -27.333 -65.5 -48.166 -104.5 -62.499s-80.167 -21.5 -123.5 -21.5h-86v123h98c24.667 0 49.5 4 74.5 12
s47.833 20.667 68.5 38s37.5 40.166 50.5 68.499s19.5 63.166 19.5 104.499v329h123v-329c0 -73.333 17.167 -128.666 51.5 -165.999s91.166 -56.333 170.499 -57c24.667 0 49.167 4 73.5 12s46.166 20.667 65.499 38s35 40.166 47 68.499s18 63.166 18 104.499v329h123
v-329c0 -73.333 17.333 -128.666 52 -165.999s91.667 -56.333 171 -57c24.667 0 49.334 4 74.001 12s46.834 20.667 66.501 38s35.667 40.166 48 68.499s18.5 63.166 18.5 104.499v329h123v-329c0 -146.667 79.333 -221 238 -223h53v-123h-54z" />
    </font>
</defs>
</svg>
