<?xml version="1.0" standalone="no"?>
<!DOCTYPE svg PUBLIC "-//W3C//DTD SVG 1.1//EN" "http://www.w3.org/Graphics/SVG/1.1/DTD/svg11.dtd" >
<svg>
<metadata>
Created by FontForge 20090914 at Sun Sep 22 22:57:48 2019
 By www-data
Copyright (c) 2019 by fontiran.com. All rights reserved.
</metadata>
<defs>
<font id="IRANYekan-ExtraBlack" horiz-adv-x="0" >
  <font-face 
    font-family="IRANYekan ExtraBlack"
    font-weight="950"
    font-stretch="normal"
    units-per-em="2200"
    panose-1="2 11 5 6 3 8 4 2 2 4"
    ascent="1760"
    descent="-440"
    x-height="1203"
    cap-height="1540"
    bbox="-575 -1295 3654 2833"
    underline-thickness="100"
    underline-position="-750"
    unicode-range="U+001D-U+FEFF"
  />
<missing-glyph horiz-adv-x="1229" 
d="M102 -362v1806h1024v-1806h-1024zM217 -248h795v1577h-795v-1577z" />
    <glyph glyph-name="allah" unicode="&#xfedf;&#xfee0;&#xfeea;" horiz-adv-x="2549" arabic-form="isolated" 
d="M1921 -106c-31.333 0 -68.6689 2.66699 -112.002 8c-43.333 6 -83.666 15.667 -120.999 29c-32 11.333 -61.667 25.333 -89 42c-90 -52.667 -193.333 -79 -310 -79c-94.667 0 -176 13 -244 39s-125 59.667 -171 101c-45.333 41.333 -82 85.666 -110 132.999
c-28 48 -49.667 94.667 -65 140c-14.667 45.333 -25 84.333 -31 117l-11 42l-17 69c-9.33301 34.667 -16 60.667 -20 78c-24 -8.66699 -40.333 -19.334 -49 -32.001c-6 -8.66699 -9 -21.667 -9 -39c0 -18 3.33301 -41 10 -69c13.333 -55.333 27.333 -109.666 42 -162.999
s27.334 -97.666 38.001 -132.999l16 -53l-481 -141l-14 46l-32 110l-36 124l-25 88c-17.333 68.667 -26 134 -26 196c0 112.667 28 214.334 84 305.001c89.333 135.333 216 222 380 260c56.667 12 107.667 22.333 153 31c46 9.33301 77.333 15.333 94 18l19 3l273 -179
l9 -40v-2l22 -98c7.33301 -30 14.333 -60.667 21 -92c2.66699 -10 5 -19.667 7 -29c9.33301 -40.667 18 -76 26 -106l17 -69l6 -20c5.33301 -28 13.333 -47.667 24 -59c7.33301 -7.33301 17.333 -13 30 -17s31.667 -6 57 -6c19.333 0 35.666 3 48.999 9
c14 6.66699 21 13.667 21 21v804l507 89v-893c0 -2.66699 2 -7 6 -13c4.66699 -5.33301 11.667 -10.333 21 -15c10 -4 22.333 -6 37 -6c19.333 0 36 3.33301 50 10c14.667 7.33301 22 13.333 22 18v459c0 119.333 -0.333008 225.333 -1 318v139l510 103v-1013
c0 -32 -4.66699 -74.667 -14 -128c-8.66699 -52.667 -25 -106.667 -49 -162c-23.333 -54.667 -56 -103.334 -98 -146.001c-48.667 -50.667 -102 -88 -160 -112c-57.333 -23.333 -142.666 -35 -255.999 -35zM1894 1807c0 -1.33301 0.333008 -3.00391 1 -5.00391
c6 -19.333 12 -42 18 -68s9 -52 9 -78c0 -45.333 -9.66699 -82.833 -29 -112.5s-43.333 -51.667 -72 -66s-57.334 -21.5 -86.001 -21.5c-56 0 -102.667 15.333 -140 46c-18 -15.333 -38 -26.666 -60 -33.999s-43.667 -11 -65 -11c-63.333 0 -112.833 17.667 -148.5 53
s-53.5 84 -53.5 146v109h125v-109c0 -50 22.667 -75 68 -75h9c4.66699 0 12 1.5 22 4.5s19.333 9.83301 28 20.5s13 27.334 13 50.001v109h126v-109c0 -50.667 23.667 -76 71 -76h7c4.66699 0 11.834 1.83301 21.501 5.5s18.5 10.834 26.5 21.501s12 27 12 49
c0 26.667 -7.33301 63.334 -22 110.001c-2 10 -4.33301 20.667 -7 32l118 40zM1658 2190v-287l-129 -32v288z" />
    <glyph glyph-name="riyal" unicode="&#x631;&#xfef3;&#xfe8e;&#x644;" horiz-adv-x="3705" arabic-form="isolated" 
d="M738 -636c-125.333 0 -237.165 25.1719 -335.498 75.5049s-177.833 123.166 -238.5 218.499c-26.667 41.333 -47.334 84.5 -62.001 129.5s-25.334 81.167 -32.001 108.5v1c-14 58.667 -21 117.667 -21 177c0 12 0.333008 24 1 36c5.33301 146 46.333 299 123 459l20 44
l458 -215l-20 -44c-46.667 -101.333 -71.667 -189 -75 -263v-10c0 -44 8 -78.667 24 -104c18.667 -26 44 -42.833 76 -50.5s59.333 -11.5 82 -11.5c36 0 71.333 1.66699 106 5s61.334 10.666 80.001 21.999c8.66699 5.33301 16.5 16.166 23.5 32.499
s10.5 45.166 10.5 86.499v1426h506v-1426c0 -228.667 -51 -397.334 -153 -506.001c-64.667 -68 -149.334 -118 -254.001 -150c-86.667 -27.333 -193 -41 -319 -41zM2749 -635.995l0.000976562 554h146c97.333 0 164 19 200 57c34.667 43.333 52 114.333 52 213v586h507v-586
c0 -122 -16.167 -236.5 -48.5 -343.5s-76.166 -190.833 -131.5 -251.5c-68.667 -78.667 -154 -137 -256 -175c-94.667 -36 -202.334 -54 -323.001 -54h-146zM1918 -182.995l220 -219l-220 -220l-219 220zM2387 -182.995l220 -219l-220 -220l-219 220zM2196 -97.9951
c-60.667 0 -114.832 7.33008 -162.499 21.9971s-88.834 33 -123.501 55s-63 44 -85 66c-22.667 22 -45.167 50.333 -67.5 85s-41 76.334 -56 125.001s-22.5 105.334 -22.5 170.001v231.5c0 113.667 0.166992 234.167 0.5 361.5s0.5 284.333 0.5 471h507v-1016
c0 -4.66699 1 -8.16699 3 -10.5s4.33301 -3.66602 7 -3.99902s4.33398 -0.5 5 -0.5h91v-556h-97zM2133 -96.998v556.002h263c-0.666992 0 -4 16 -10 48l-21 110l-21 110l-10 48l491 149l11 -57c6.66699 -38.667 15.167 -85.334 25.5 -140.001l29.5 -161
c10.667 -54.667 16 -105.334 16 -152.001c0 -25.333 -1.66699 -49.333 -5 -72c-4.66699 -42 -15 -87 -31 -135s-38 -89.667 -66 -125c-60.667 -73.333 -129.334 -123.333 -206 -150h-2c-62 -19.333 -133.667 -29 -215 -29h-249z" />
    <glyph glyph-name="uni06440622.isol" unicode="&#xfedf;&#xfe82;" horiz-adv-x="1478" arabic-form="isolated" 
d="M184 -97v555.001h507c57.333 0 98 3.66699 122 11c28 8 45.667 19 53 33c12.667 20 20.167 51.167 22.5 93.5s3.5 96.166 3.5 161.499v733h508v-733c0 -56.667 -1.5 -118.667 -4.5 -186s-12.5 -134.833 -28.5 -202.5s-42.667 -131.167 -80 -190.5
c-63.333 -96.667 -150.333 -168 -261 -214c-98 -40.667 -218.667 -61 -362 -61h-480zM169 1442l506 37l67 -885l-506 -39zM-132 1600l9.99902 35c12 45.333 29 89.833 51 133.5s53.667 83.167 95 118.5l1 1c70.667 59.333 176.667 89 318 89h554v-360h-554
c-32 0 -55.667 -3.66699 -71 -11s-26.166 -17 -32.499 -29s-11.5 -25.333 -15.5 -40l-9 -35z" />
    <glyph glyph-name="uni06440622.fina" unicode="&#xfee0;&#xfe82;" horiz-adv-x="1530" arabic-form="final" 
d="M772 594l-506 -39l-66 887l506 37zM1481 458l62.999 0.00195312v-556h-80c-50.667 0 -96.5 5 -137.5 15s-75.833 21.667 -104.5 35s-50.667 25 -66 35l-23 15h-1c-24 -14 -49.333 -26.667 -76 -38c-97.333 -40.667 -217.666 -61 -360.999 -61h-480v555h480
c68 0 116.667 3.83301 146 11.5s48 18.5 56 32.5c12.667 20 20.167 51.167 22.5 93.5s3.5 96.166 3.5 161.499v733h508v-733c0 -34.667 -0.5 -71.334 -1.5 -110.001s-3.16699 -78 -6.5 -118c0 -20 3.83301 -36.833 11.5 -50.5s23.167 -20.5 46.5 -20.5zM-92.001 1595
l9.99902 35c12 45.333 29 89.833 51 133.5s53.667 83.167 95 118.5l1 1c70.667 59.333 176.667 89 318 89h554v-360h-554c-32 0 -55.667 -3.66699 -71 -11s-26.166 -17 -32.499 -29s-11.5 -25.333 -15.5 -40l-9 -35z" />
    <glyph glyph-name="uni06440623.isol" unicode="&#xfedf;&#xfe84;" horiz-adv-x="1401" arabic-form="isolated" 
d="M85 -97v555.001h507c57.333 0 98 3.66699 122 11c28 8 45.667 19 53 33c12.667 20 20.167 51.167 22.5 93.5s3.5 96.166 3.5 161.499v733h508v-733c0 -56.667 -1.5 -118.667 -4.5 -186s-12.5 -134.833 -28.5 -202.5s-42.667 -131.167 -80 -190.5
c-63.333 -96.667 -150.333 -168 -261 -214c-98 -40.667 -218.667 -61 -362 -61h-480zM70 1442l506 37l67 -885l-506 -39zM568 1704l-499.003 -163.999v160l115 37c-20 20.667 -35.667 43.5 -47 68.5s-17 52.167 -17 81.5c0 45.333 15.5 88.5 46.5 129.5
s68.5 68.5 112.5 82.5c22.667 6.66699 46 10 70 10c25.333 0 48.833 -3.33301 70.5 -10s42.834 -14.334 63.501 -23.001l-32 -133c-40 11.333 -73.667 17 -101 17c-9.33301 0 -17.666 -1 -24.999 -3c-15.333 -4.66699 -29.166 -13.167 -41.499 -25.5
s-18.5 -26.5 -18.5 -42.5c0 -6 1 -12.333 3 -19c4.66699 -16.667 16.5 -30.5 35.5 -41.5s45.5 -16.5 79.5 -16.5c8.66699 0 18.5 0.833008 29.5 2.5s27.833 5.5 50.5 11.5s55 16 97 30z" />
    <glyph glyph-name="uni06440623.fina" unicode="&#xfee0;&#xfe84;" horiz-adv-x="1399" arabic-form="final" 
d="M642 594l-506 -39l-66 887l506 37zM1351 458l62.999 0.00195312v-556h-80c-50.667 0 -96.5 5 -137.5 15s-75.833 21.667 -104.5 35s-50.667 25 -66 35l-23 15h-1c-24 -14 -49.333 -26.667 -76 -38c-97.333 -40.667 -217.666 -61 -360.999 -61h-480v555h480
c68 0 116.667 3.83301 146 11.5s48 18.5 56 32.5c12.667 20 20.167 51.167 22.5 93.5s3.5 96.166 3.5 161.499v733h508v-733c0 -34.667 -0.5 -71.334 -1.5 -110.001s-3.16699 -78 -6.5 -118c0 -20 3.83301 -36.833 11.5 -50.5s23.167 -20.5 46.5 -20.5zM570.999 1706
l-499.003 -164v160l115 37c-20 20.667 -35.667 43.5 -47 68.5s-17 52.167 -17 81.5c0 45.333 15.5 88.5 46.5 129.5s68.5 68.5 112.5 82.5c22.667 6.66699 46 10 70 10c25.333 0 48.833 -3.33301 70.5 -10s42.834 -14.334 63.501 -23l-32 -133
c-40 11.333 -73.667 17 -101 17c-9.33301 0 -17.666 -1 -24.999 -3c-15.333 -4.66699 -29.166 -13.167 -41.499 -25.5s-18.5 -26.5 -18.5 -42.5c0 -6 1 -12.333 3 -19c4.66699 -16.667 16.5 -30.5 35.5 -41.5s45.5 -16.5 79.5 -16.5c8.66699 0 18.5 0.833008 29.5 2.5
s27.833 5.5 50.5 11.5s55 16 97 30z" />
    <glyph glyph-name="uni06440625.isol" unicode="&#xfedf;&#xfe88;" horiz-adv-x="1401" arabic-form="isolated" 
d="M85 -97v555.001h507c57.333 0 98 3.66699 122 11c28 8 45.667 19 53 33c12.667 20 20.167 51.167 22.5 93.5s3.5 96.166 3.5 161.499v733h508v-733c0 -56.667 -1.5 -118.667 -4.5 -186s-12.5 -134.833 -28.5 -202.5s-42.667 -131.167 -80 -190.5
c-63.333 -96.667 -150.333 -168 -261 -214c-98 -40.667 -218.667 -61 -362 -61h-480zM70 1442l506 37l67 -885l-506 -39zM655 -556.999l-499.003 -163.999v160l115 37c-20 20.667 -35.667 43.5 -47 68.5s-17 52.167 -17 81.5c0 45.333 15.5 88.5 46.5 129.5
s68.5 68.5 112.5 82.5c22.667 6.66699 46 10 70 10c25.333 0 48.833 -3.33301 70.5 -10s42.834 -14.334 63.501 -23.001l-32 -133c-40 11.333 -73.667 17 -101 17c-9.33301 0 -17.666 -1 -24.999 -3c-15.333 -4.66699 -29.166 -13.167 -41.499 -25.5
s-18.5 -26.5 -18.5 -42.5c0 -6 1 -12.333 3 -19c4.66699 -16.667 16.5 -30.5 35.5 -41.5s45.5 -16.5 79.5 -16.5c8.66699 0 18.5 0.833008 29.5 2.5s27.833 5.5 50.5 11.5s55 16 97 30z" />
    <glyph glyph-name="uni06440625.fina" unicode="&#xfee0;&#xfe88;" horiz-adv-x="1399" arabic-form="final" 
d="M642 594l-506 -39l-66 887l506 37zM1351 458l62.999 0.00195312v-556h-80c-50.667 0 -96.5 5 -137.5 15s-75.833 21.667 -104.5 35s-50.667 25 -66 35l-23 15h-1c-24 -14 -49.333 -26.667 -76 -38c-97.333 -40.667 -217.666 -61 -360.999 -61h-480v555h480
c68 0 116.667 3.83301 146 11.5s48 18.5 56 32.5c12.667 20 20.167 51.167 22.5 93.5s3.5 96.166 3.5 161.499v733h508v-733c0 -34.667 -0.5 -71.334 -1.5 -110.001s-3.16699 -78 -6.5 -118c0 -20 3.83301 -36.833 11.5 -50.5s23.167 -20.5 46.5 -20.5zM659.999 -555.998
l-499.003 -163.999v160l115 37c-20 20.667 -35.667 43.5 -47 68.5s-17 52.167 -17 81.5c0 45.333 15.5 88.5 46.5 129.5s68.5 68.5 112.5 82.5c22.667 6.66699 46 10 70 10c25.333 0 48.833 -3.33301 70.5 -10s42.834 -14.334 63.501 -23.001l-32 -133
c-40 11.333 -73.667 17 -101 17c-9.33301 0 -17.666 -1 -24.999 -3c-15.333 -4.66699 -29.166 -13.167 -41.499 -25.5s-18.5 -26.5 -18.5 -42.5c0 -6 1 -12.333 3 -19c4.66699 -16.667 16.5 -30.5 35.5 -41.5s45.5 -16.5 79.5 -16.5c8.66699 0 18.5 0.833008 29.5 2.5
s27.833 5.5 50.5 11.5s55 16 97 30z" />
    <glyph glyph-name="uni06440627.isol" unicode="&#xfedf;&#xfe8e;" horiz-adv-x="1401" arabic-form="isolated" 
d="M85 -97v555.001h507c57.333 0 98 3.66699 122 11c28 8 45.667 19 53 33c12.667 20 20.167 51.167 22.5 93.5s3.5 96.166 3.5 161.499v733h508v-733c0 -56.667 -1.5 -118.667 -4.5 -186s-12.5 -134.833 -28.5 -202.5s-42.667 -131.167 -80 -190.5
c-63.333 -96.667 -150.333 -168 -261 -214c-98 -40.667 -218.667 -61 -362 -61h-480zM70 1442l506 37l67 -885l-506 -39z" />
    <glyph glyph-name="uni06440627.fina" unicode="&#xfee0;&#xfe8e;" horiz-adv-x="1399" arabic-form="final" 
d="M642 594l-506 -39l-66 887l506 37zM1351 458l62.999 0.00195312v-556h-80c-50.667 0 -96.5 5 -137.5 15s-75.833 21.667 -104.5 35s-50.667 25 -66 35l-23 15h-1c-24 -14 -49.333 -26.667 -76 -38c-97.333 -40.667 -217.666 -61 -360.999 -61h-480v555h480
c68 0 116.667 3.83301 146 11.5s48 18.5 56 32.5c12.667 20 20.167 51.167 22.5 93.5s3.5 96.166 3.5 161.499v733h508v-733c0 -34.667 -0.5 -71.334 -1.5 -110.001s-3.16699 -78 -6.5 -118c0 -20 3.83301 -36.833 11.5 -50.5s23.167 -20.5 46.5 -20.5z" />
    <glyph glyph-name="uni06440671.isol" unicode="&#xfedf;&#xfb51;" horiz-adv-x="1318" 
d="M55 -97v555.001h507c57.333 0 98 3.66699 122 11c28 8 45.667 19 53 33c12.667 20 20.167 51.167 22.5 93.5s3.5 96.166 3.5 161.499v733h508v-733c0 -56.667 -1.5 -118.667 -4.5 -186s-12.5 -134.833 -28.5 -202.5s-42.667 -131.167 -80 -190.5
c-63.333 -96.667 -150.333 -168 -261 -214c-98 -40.667 -218.667 -61 -362 -61h-480zM40 1442l506 37l67 -885l-506 -39zM501 1565h-481l26 119h133l43 66l83 122c24 35.333 53.333 63.333 88 84s72.334 31 113.001 31c31.333 0 61.833 -8 91.5 -24s54.167 -40.5 73.5 -73.5
s29 -74.833 29 -125.5c0 -49.333 -10.333 -88.5 -31 -117.5s-46.334 -49.833 -77.001 -62.5s-61 -19 -91 -19zM506 1868c-21.333 0 -43 -9.5 -65 -28.5s-43.333 -42.5 -64 -70.5s-39.667 -56.333 -57 -85h181c22.667 0 41.5 6.33301 56.5 19s22.5 33 22.5 61
c0 68 -24.667 102.667 -74 104z" />
    <glyph glyph-name="uni06440671.fina" unicode="&#xfee0;&#xfb51;" horiz-adv-x="1399" 
d="M645 594l-506 -39l-66 887l506 37zM1354 458l62.999 0.00195312v-556h-80c-50.667 0 -96.5 5 -137.5 15s-75.833 21.667 -104.5 35s-50.667 25 -66 35l-23 15h-1c-24 -14 -49.333 -26.667 -76 -38c-97.333 -40.667 -217.666 -61 -360.999 -61h-480v555h480
c68 0 116.667 3.83301 146 11.5s48 18.5 56 32.5c12.667 20 20.167 51.167 22.5 93.5s3.5 96.166 3.5 161.499v733h508v-733c0 -34.667 -0.5 -71.334 -1.5 -110.001s-3.16699 -78 -6.5 -118c0 -20 3.83301 -36.833 11.5 -50.5s23.167 -20.5 46.5 -20.5zM500.999 1557h-481
l26 119h133l43 66l83 122c24 35.333 53.333 63.333 88 84s72.334 31 113.001 31c31.333 0 61.833 -8 91.5 -24s54.167 -40.5 73.5 -73.5s29 -74.833 29 -125.5c0 -49.333 -10.333 -88.5 -31 -117.5s-46.334 -49.833 -77.001 -62.5s-61 -19 -91 -19zM505.999 1860
c-21.333 0 -43 -9.5 -65 -28.5s-43.333 -42.5 -64 -70.5s-39.667 -56.333 -57 -85h181c22.667 0 41.5 6.33301 56.5 19s22.5 33 22.5 61c0 68 -24.667 102.667 -74 104z" />
    <glyph glyph-name="uni0621" unicode="&#x621;" horiz-adv-x="1050" arabic-form="isolated" 
d="M111 284l73.0029 22.0039c-26.667 37.333 -47.667 79.333 -63 126c-12 44 -18 86.667 -18 128c0.666992 74 21.334 145.333 62.001 214c59.333 95.333 142.333 160.666 249 195.999h1c46 13.333 92.333 20 139 20c40.667 0 80.667 -3.83301 120 -11.5
s78 -15.834 116 -24.501l7 -2h1c4 -1.33301 9 -2.66602 15 -3.99902l25 -4l-75 -327l-25 7c-0.666992 0 -9.83398 2 -27.501 6s-40.834 7.66699 -69.501 11c-10.667 0.666992 -21.334 1 -32.001 1c-60.667 0 -105.667 -17.667 -135 -53
c-8.66699 -12.667 -13.167 -23.334 -13.5 -32.001s0.166992 -15.334 1.5 -20.001c8 -24 26.167 -42.667 54.5 -56s64.166 -20 107.499 -20c55.333 0 119.333 11.333 192 34l129 39l4 -443l-18 -5l-128 -39l-255.5 -78.5l-260.5 -80l-143 -43.5
c-2 -0.666992 -3 -1.33398 -3 -2.00098l-32 -9z" />
    <glyph glyph-name="uni0622" unicode="&#x622;" horiz-adv-x="929" arabic-form="isolated" 
d="M276 -98v1378h508v-1378h-508zM-100 1396l9.99902 35c12 45.333 29 89.833 51 133.5s53.667 83.167 95 118.5l1 1c70.667 59.333 176.667 89 318 89h554v-360h-554c-32 0 -55.667 -3.66699 -71 -11s-26.166 -17 -32.499 -29s-11.5 -25.333 -15.5 -40l-9 -35z" />
    <glyph glyph-name="uni0623" unicode="&#x623;" horiz-adv-x="708" arabic-form="isolated" 
d="M100 -98v1378h508v-1378h-508zM593 1524l-499.003 -163.999v160l115 37c-20 20.667 -35.667 43.5 -47 68.5s-17 52.167 -17 81.5c0 45.333 15.5 88.5 46.5 129.5s68.5 68.5 112.5 82.5c22.667 6.66699 46 10 70 10c25.333 0 48.833 -3.33301 70.5 -10
s42.834 -14.334 63.501 -23.001l-32 -133c-40 11.333 -73.667 17 -101 17c-9.33301 0 -17.666 -1 -24.999 -3c-15.333 -4.66699 -29.166 -13.167 -41.499 -25.5s-18.5 -26.5 -18.5 -42.5c0 -6 1 -12.333 3 -19c4.66699 -16.667 16.5 -30.5 35.5 -41.5s45.5 -16.5 79.5 -16.5
c8.66699 0 18.5 0.833008 29.5 2.5s27.833 5.5 50.5 11.5s55 16 97 30z" />
    <glyph glyph-name="uni0624" unicode="&#x624;" horiz-adv-x="1209" arabic-form="isolated" 
d="M560 405l155 0.00292969v96c0 31.333 -11.333 57.666 -34 78.999c-22.667 20.667 -50.667 31 -84 31c-32.667 0 -60 -10.667 -82 -32s-33 -47.333 -33 -78c0 -16.667 1.66699 -32.334 5 -47.001c4 -14.667 11.333 -26.334 22 -35.001c11.333 -9.33301 28.333 -14 51 -14z
M594 1043c156 0 290.668 -59.0029 404.001 -177.003v-1h1c104.667 -119.333 157 -265.666 157 -438.999v-374c-0.666992 -98.667 -15.334 -184.334 -44.001 -257.001c-28 -72 -63.667 -133 -107 -183c-42 -48.667 -84.667 -89.667 -128 -123l-2 -2
c-26 -18 -61.333 -37 -106 -57c-45.333 -20 -109 -36.333 -191 -49c-70 -11.333 -159.333 -17 -268 -17h-159v552h73c48.667 0.666992 105 1 169 1h166h161c1.33301 0 3.33301 0.833008 6 2.5s4 4.16699 4 7.5s-1.33301 5.83301 -4 7.5s-4.66699 2.5 -6 2.5
c-56 0 -114 2.66699 -174 8s-117.833 16.5 -173.5 33.5s-105.5 43.333 -149.5 79s-79.167 83.334 -105.5 143.001s-39.5 134.834 -39.5 225.501c0 116.667 16.5 214.5 49.5 293.5s75.5 142.333 127.5 190s108 81.834 168 102.501s117 31 171 31zM848.001 1268
l-499.003 -163.999v160l115 37c-20 20.667 -35.667 43.5 -47 68.5s-17 52.167 -17 81.5c0 45.333 15.5 88.5 46.5 129.5s68.5 68.5 112.5 82.5c22.667 6.66699 46 10 70 10c25.333 0 48.833 -3.33301 70.5 -10s42.834 -14.334 63.501 -23.001l-32 -133
c-40 11.333 -73.667 17 -101 17c-9.33301 0 -17.666 -1 -24.999 -3c-15.333 -4.66699 -29.166 -13.167 -41.499 -25.5s-18.5 -26.5 -18.5 -42.5c0 -6 1 -12.333 3 -19c4.66699 -16.667 16.5 -30.5 35.5 -41.5s45.5 -16.5 79.5 -16.5c8.66699 0 18.5 0.833008 29.5 2.5
s27.833 5.5 50.5 11.5s55 16 97 30z" />
    <glyph glyph-name="uni0625" unicode="&#x625;" horiz-adv-x="708" arabic-form="isolated" 
d="M100 -98v1588h508v-1588h-508zM588 -593l-499.003 -163.999v160l115 37c-20 20.667 -35.667 43.5 -47 68.5s-17 52.167 -17 81.5c0 45.333 15.5 88.5 46.5 129.5s68.5 68.5 112.5 82.5c22.667 6.66699 46 10 70 10c25.333 0 48.833 -3.33301 70.5 -10
s42.834 -14.334 63.501 -23.001l-32 -133c-40 11.333 -73.667 17 -101 17c-9.33301 0 -17.666 -1 -24.999 -3c-15.333 -4.66699 -29.166 -13.167 -41.499 -25.5s-18.5 -26.5 -18.5 -42.5c0 -6 1 -12.333 3 -19c4.66699 -16.667 16.5 -30.5 35.5 -41.5s45.5 -16.5 79.5 -16.5
c8.66699 0 18.5 0.833008 29.5 2.5s27.833 5.5 50.5 11.5s55 16 97 30z" />
    <glyph glyph-name="uni0626" unicode="&#x626;" horiz-adv-x="1831" arabic-form="isolated" 
d="M750 -636c-92.667 0 -173.168 12.334 -241.501 37.001s-126.333 55.167 -174 91.5s-86.5 73.166 -116.5 110.499c-53.333 65.333 -94.666 139.833 -123.999 223.5s-44 169.167 -44 256.5c0 92 8 176.333 24 253s36.5 147.834 61.5 213.501s52.167 127.5 81.5 185.5l22 43
l454 -222l-21 -44c-76.667 -152.667 -115 -282.334 -115 -389.001c0 -57.333 8 -101 24 -131s38.667 -50.333 68 -61s64 -16 104 -16h396c31.333 0 57 2.16699 77 6.5s35.667 9.5 47 15.5c-46 12 -107.333 26.667 -184 44c-90 20.667 -170.333 40 -241 58l-26 7l-8 26
c-2.66699 4.66699 -9.33398 31 -20.001 79s-18 108.333 -22 181c-0.666992 15.333 -1 30.666 -1 45.999c0 58 6.66699 118 20 180c4 22.667 19.333 64.334 46 125.001s72 125.334 136 194.001c140.667 138.667 318 208 532 208c40 0 79.5 -3.66699 118.5 -11
s75.833 -15.333 110.5 -24l47 -13l-130 -494l-49 17c-46 16 -88.333 24 -127 24c-107.333 0 -177.666 -53.333 -210.999 -160l118 -32c78 -20 140.333 -37.333 187 -52c126 -41.333 189 -136 189 -284v-2c-2 -262.667 -81.667 -452.334 -239 -569.001
c-46 -33.333 -93.667 -58.833 -143 -76.5s-97.5 -29.5 -144.5 -35.5s-89.833 -9 -128.5 -9h-353zM747.999 1038l-499.003 -163.999v160l115 37c-20 20.667 -35.667 43.5 -47 68.5s-17 52.167 -17 81.5c0 45.333 15.5 88.5 46.5 129.5s68.5 68.5 112.5 82.5
c22.667 6.66699 46 10 70 10c25.333 0 48.833 -3.33301 70.5 -10s42.834 -14.334 63.501 -23.001l-32 -133c-40 11.333 -73.667 17 -101 17c-9.33301 0 -17.666 -1 -24.999 -3c-15.333 -4.66699 -29.166 -13.167 -41.499 -25.5s-18.5 -26.5 -18.5 -42.5
c0 -6 1 -12.333 3 -19c4.66699 -16.667 16.5 -30.5 35.5 -41.5s45.5 -16.5 79.5 -16.5c8.66699 0 18.5 0.833008 29.5 2.5s27.833 5.5 50.5 11.5s55 16 97 30z" />
    <glyph glyph-name="uni0627" unicode="&#x627;" horiz-adv-x="708" arabic-form="isolated" 
d="M100 -98v1588h508v-1588h-508z" />
    <glyph glyph-name="uni0628" unicode="&#x628;" horiz-adv-x="2163" arabic-form="isolated" 
d="M821 -103c-90.667 0 -165.001 0.665039 -223.001 1.99805c-59.333 2 -110 6.33301 -152 13c-128.667 20.667 -227 83.334 -295 188.001l-1 1l-1 2c-54 100 -81 215.333 -81 346c0 30.667 1.66699 62.667 5 96v3c16.667 104 36.667 191.667 60 263l18 55l481 -142l-9 -40
l-22.5 -94l-21.5 -94c-6 -27.333 -9.33301 -42.666 -10 -45.999h1024c0 2 -2.66699 16.5 -8 43.5l-18 92.5l-18 93l-8 41l492 143l2 -11c1.33301 -8 3 -17.333 5 -28l5.5 -30c1.66699 -9.33301 2.83398 -15.666 3.50098 -18.999l1 -1l38 -213
c10.667 -53.333 16 -103 16 -149c0 -25.333 -1.66699 -49.666 -5 -72.999c-3.33301 -110.667 -35 -202.334 -95 -275.001c-53.333 -64.667 -123.333 -110.334 -210 -137.001c-61.333 -20 -133 -30 -215 -30h-758zM1320 -386.002l-234 -233l-233 233l233 234z" />
    <glyph glyph-name="uni0629" unicode="&#x629;" horiz-adv-x="1155" arabic-form="isolated" 
d="M908 888c30.667 -33.333 61.833 -71 93.5 -113s58.5 -89.5 80.5 -142.5s33 -112.5 33 -178.5c0 -66.667 -9.5 -132.834 -28.5 -198.501s-49.5 -125.167 -91.5 -178.5s-97.333 -96.166 -166 -128.499s-152.334 -48.5 -251.001 -48.5c-88 0 -163 11.667 -225 35
s-113.5 54.166 -154.5 92.499s-73 80.333 -96 126s-39.167 91.334 -48.5 137.001s-14 87.167 -14 124.5c0 55.333 10.167 109.5 30.5 162.5s43.833 100.5 70.5 142.5s50.334 75.833 71.001 101.5s32 39.167 34 40.5l-17.5 19.5l-21 23c-7 7.66699 -12.833 14.5 -17.5 20.5
l-7 8l377 336l42 -47l101.5 -111l116 -127zM571.999 349c32.667 0 59 10.1699 79 30.5029s30 48.833 30 85.5c0 12 -5.83301 26.667 -17.5 44s-25 34.166 -40 50.499l-39.5 41.5l-17 17l-16 -16c-10.667 -10 -23 -22.833 -37 -38.5s-26.333 -32.334 -37 -50.001
s-16 -33.834 -16 -48.501c0 -36.667 10.5 -65.167 31.5 -85.5s47.5 -30.5 79.5 -30.5zM537.999 1480l-220 -219l-219 219l219 220zM1007 1480l-220 -219l-219 219l219 220z" />
    <glyph glyph-name="uni062A" unicode="&#x62a;" horiz-adv-x="2163" arabic-form="isolated" 
d="M822 -103c-90.667 0 -165 0.665039 -223 1.99805c-59.333 2 -110 6.33301 -152 13c-128.667 20.667 -227 83.334 -295 188.001l-1 1l-1 2c-54 100 -81 215.333 -81 346c0 30.667 1.66699 62.667 5 96v3c16.667 104 36.667 191.667 60 263l18 55l481 -142l-9 -40
l-22.5 -94l-21.5 -94c-6 -27.333 -9.33301 -42.666 -10 -45.999h1024c0 2 -2.66699 16.5 -8 43.5l-18 92.5l-18 93l-8 41l492 143l2 -11c1.33301 -8 3 -17.333 5 -28l5.5 -30c1.66699 -9.33301 2.83398 -15.666 3.5 -18.999l1 -1l38 -213c10.667 -53.333 16 -103 16 -149
c0 -25.333 -1.66699 -49.666 -5 -72.999c-3.33301 -110.667 -35 -202.334 -95 -275.001c-53.333 -64.667 -123.333 -110.334 -210 -137.001c-61.333 -20 -133 -30 -215 -30h-758zM1074 928.998l-220 -219l-219 219l219 220zM1543 928.998l-220 -219l-219 219l219 220z" />
    <glyph glyph-name="uni062B" unicode="&#x62b;" horiz-adv-x="2163" arabic-form="isolated" 
d="M822 -103c-90.667 0 -165 0.665039 -223 1.99805c-59.333 2 -110 6.33301 -152 13c-128.667 20.667 -227 83.334 -295 188.001l-1 1l-1 2c-54 100 -81 215.333 -81 346c0 30.667 1.66699 62.667 5 96v3c16.667 104 36.667 191.667 60 263l18 55l481 -142l-9 -40
l-22.5 -94l-21.5 -94c-6 -27.333 -9.33301 -42.666 -10 -45.999h1024c0 2 -2.66699 16.5 -8 43.5l-18 92.5l-18 93l-8 41l492 143l2 -11c1.33301 -8 3 -17.333 5 -28l5.5 -30c1.66699 -9.33301 2.83398 -15.666 3.5 -18.999l1 -1l38 -213c10.667 -53.333 16 -103 16 -149
c0 -25.333 -1.66699 -49.666 -5 -72.999c-3.33301 -110.667 -35 -202.334 -95 -275.001c-53.333 -64.667 -123.333 -110.334 -210 -137.001c-61.333 -20 -133 -30 -215 -30h-758zM1317 1191l-201 -200l-200 200l200 201zM1071 880.998l-220 -219l-219 219l219 220z
M1590 880.998l-220 -219l-219 219l219 220z" />
    <glyph glyph-name="uni062C" unicode="&#x62c;" horiz-adv-x="1610" arabic-form="isolated" 
d="M804 -636c-56 0 -111.164 2 -165.497 6s-106.333 13.167 -156 27.5s-96.5 36.5 -140.5 66.5c-44 34 -83.833 91.333 -119.5 172s-66.834 171.167 -93.501 271.5s-48.334 196.166 -65.001 287.499c-9.33301 46.667 -14 91.334 -14 134.001c0 30 2.33301 59 7 87
c12.667 66.667 48.667 126.5 108 179.5s150.666 98.833 273.999 137.5l576 178l-69 17l-163 41.5c-62 16.333 -118.667 32.5 -170 48.5l-54 -101l-450 117c36 137.333 103.333 245.333 202 324h1c88.667 66.667 185 100 289 100c25.333 0 48.333 -1.33301 69 -4
c31.333 -3.33301 86.333 -19.5 165 -48.5s195.667 -78.167 351 -147.5l147 -67.5l118 -54.5l46 -22l62 -488l-114 -43l-280 -107.5l-329 -127l-273 -105.5l95 -325h753v-554h-607zM1310 165l-234 -233l-233 233l233 234z" />
    <glyph glyph-name="uni062D" unicode="&#x62d;" horiz-adv-x="1609" arabic-form="isolated" 
d="M805 -646c-56.667 0 -111.999 1.83398 -165.999 5.50098s-106 12.667 -156 27s-96.667 36.833 -140 67.5c-133.333 97.333 -226.333 282 -279 554c-9.33301 45.333 -14 86.333 -14 123v28.5c0 18.333 2.66699 41.833 8 70.5c12 67.333 47.667 127.5 107 180.5
s150.666 97.833 273.999 134.5l331 100.5l246 78.5l-232 58.5c-62 16.333 -118.667 32.166 -170 47.499l-54 -101l-450 117c36 138 103.333 246.333 202 325c89.333 66.667 186 100 290 100c25.333 0 48.333 -1.66699 69 -5c31.333 -3.33301 86.333 -19.333 165 -48
s195.667 -78 351 -148l147 -67l164 -77l61 -487l-420.5 -154.5l-332.5 -123l-243 -92.5c10.667 -108 49.667 -162 117 -162h732v-553h-607z" />
    <glyph glyph-name="uni062E" unicode="&#x62e;" horiz-adv-x="1609" arabic-form="isolated" 
d="M805 -646c-56.667 0 -111.999 1.83398 -165.999 5.50098s-106 12.667 -156 27s-96.667 36.833 -140 67.5c-133.333 97.333 -226.333 282 -279 554c-9.33301 45.333 -14 86.333 -14 123v28.5c0 18.333 2.66699 41.833 8 70.5c12 67.333 47.667 127.5 107 180.5
s150.666 97.833 273.999 134.5l331 100.5l246 78.5l-232 58.5c-62 16.333 -118.667 32.166 -170 47.499l-54 -101l-450 117c36 138 103.333 246.333 202 325c89.333 66.667 186 100 290 100c25.333 0 48.333 -1.66699 69 -5c31.333 -3.33301 86.333 -19.333 165 -48
s195.667 -78 351 -148l147 -67l164 -77l61 -487l-420.5 -154.5l-332.5 -123l-243 -92.5c10.667 -108 49.667 -162 117 -162h732v-553h-607zM823.001 1539l-234 -233l-233 233l233 234z" />
    <glyph glyph-name="uni062F" unicode="&#x62f;" horiz-adv-x="1246" arabic-form="isolated" 
d="M689 -104c-74 0 -153.667 8.83203 -239 26.499s-161.166 36 -227.499 55s-110.833 32.5 -133.5 40.5l-39 13l155 511l63 -22c42 -15.333 93 -32.166 153 -50.499s117.667 -33.833 173 -46.5s99.666 -19 132.999 -19h10l-195 264.5l-171 221.5l-72 89l411 281l61 -87
l148.5 -211.5l172.5 -244.5c56 -80 88.667 -165.667 98 -257c2 -16.667 3 -34.667 3 -54c0 -26 -1.66699 -54.333 -5 -85c-6 -53.333 -22.333 -108.333 -49 -165v-1c-43.333 -82 -104.5 -145.667 -183.5 -191s-167.833 -68 -266.5 -68z" />
    <glyph glyph-name="uni0630" unicode="&#x630;" horiz-adv-x="1246" arabic-form="isolated" 
d="M689 -104c-74 0 -153.667 8.83203 -239 26.499s-161.166 36 -227.499 55s-110.833 32.5 -133.5 40.5l-39 13l155 511l63 -22c42 -15.333 93 -32.166 153 -50.499s117.667 -33.833 173 -46.5s99.666 -19 132.999 -19h10l-195 264.5l-171 221.5l-72 89l411 281l61 -87
l148.5 -211.5l172.5 -244.5c56 -80 88.667 -165.667 98 -257c2 -16.667 3 -34.667 3 -54c0 -26 -1.66699 -54.333 -5 -85c-6 -53.333 -22.333 -108.333 -49 -165v-1c-43.333 -82 -104.5 -145.667 -183.5 -191s-167.833 -68 -266.5 -68zM837 1559l-234 -233l-233 233l233 234
z" />
    <glyph glyph-name="uni0631" unicode="&#x631;" horiz-adv-x="956" arabic-form="isolated" 
d="M0 -636v554h146c97.333 0 164 19 200 57c34.667 43.333 52 114.333 52 213v586h507v-586c0 -122 -16.167 -236.5 -48.5 -343.5s-76.166 -190.833 -131.499 -251.5c-68.667 -78.667 -154 -137 -256 -175c-94.667 -36 -202.334 -54 -323.001 -54h-146z" />
    <glyph glyph-name="uni0632" unicode="&#x632;" horiz-adv-x="956" arabic-form="isolated" 
d="M0 -636v554h146c97.333 0 164 19 200 57c34.667 43.333 52 114.333 52 213v586h507v-586c0 -122 -16.167 -236.5 -48.5 -343.5s-76.166 -190.833 -131.499 -251.5c-68.667 -78.667 -154 -137 -256 -175c-94.667 -36 -202.334 -54 -323.001 -54h-146zM888 1132l-234 -233
l-233 233l233 234z" />
    <glyph glyph-name="uni0633" unicode="&#x633;" horiz-adv-x="2835" arabic-form="isolated" 
d="M1631 447c0 -12.667 3.5 -22.1631 10.5 -28.4961s15.833 -9.5 26.5 -9.5c8.66699 0 17 2.83301 25 8.5s12 15.5 12 29.5v325h481v-325c2.66699 -25.333 17 -38 43 -38c12 0 22.167 3.5 30.5 10.5s12.5 16.167 12.5 27.5c-16 212 -24 320 -24 324v1l466 126l10 -49
l23 -118c8.66699 -46 16.5 -90 23.5 -132s11.5 -73.333 13.5 -94c0.666992 -14 1 -28 1 -42c0 -78 -12 -153.5 -36 -226.5s-55.667 -130.5 -95 -172.5c-100 -104.667 -228.333 -159.334 -385 -164.001h-1c-58.667 0 -116.5 6.5 -173.5 19.5s-108.167 32.5 -153.5 58.5
c-84 -52 -172.333 -78 -265 -78c-20 0 -39.333 0.666992 -58 2c-28.667 -178.667 -109 -315 -241 -409c-51.333 -35.333 -105 -62.333 -161 -81s-111.167 -31.334 -165.5 -38.001s-103.5 -10 -147.5 -10h-118c-236 0 -419.333 69 -550 207
c-61.333 68 -105.333 139.5 -132 214.5s-42.667 145.167 -48 210.5c-3.33301 40 -5 74.667 -5 104c0 18 0.666992 34.333 2 49c10 158 58 332 144 522l20 45l463 -208l-20 -45c-61.333 -135.333 -95 -250.333 -101 -345v-5c-1.33301 -8.66699 -2 -18 -2 -28
c0 -12.667 1.16699 -28.834 3.5 -48.501s12.833 -40.167 31.5 -61.5c35.333 -38 100 -57 194 -57h118c63.333 0 109.833 5 139.5 15s49.5 20.667 59.5 32c15.333 17.333 23 41.666 23 72.999v735h506v-326z" />
    <glyph glyph-name="uni0634" unicode="&#x634;" horiz-adv-x="2835" arabic-form="isolated" 
d="M1631 447c0 -12.667 3.5 -22.1631 10.5 -28.4961s15.833 -9.5 26.5 -9.5c8.66699 0 17 2.83301 25 8.5s12 15.5 12 29.5v325h481v-325c2.66699 -25.333 17 -38 43 -38c12 0 22.167 3.5 30.5 10.5s12.5 16.167 12.5 27.5c-16 212 -24 320 -24 324v1l466 126l10 -49
l23 -118c8.66699 -46 16.5 -90 23.5 -132s11.5 -73.333 13.5 -94c0.666992 -14 1 -28 1 -42c0 -78 -12 -153.5 -36 -226.5s-55.667 -130.5 -95 -172.5c-100 -104.667 -228.333 -159.334 -385 -164.001h-1c-58.667 0 -116.5 6.5 -173.5 19.5s-108.167 32.5 -153.5 58.5
c-84 -52 -172.333 -78 -265 -78c-20 0 -39.333 0.666992 -58 2c-28.667 -178.667 -109 -315 -241 -409c-51.333 -35.333 -105 -62.333 -161 -81s-111.167 -31.334 -165.5 -38.001s-103.5 -10 -147.5 -10h-118c-236 0 -419.333 69 -550 207
c-61.333 68 -105.333 139.5 -132 214.5s-42.667 145.167 -48 210.5c-3.33301 40 -5 74.667 -5 104c0 18 0.666992 34.333 2 49c10 158 58 332 144 522l20 45l463 -208l-20 -45c-61.333 -135.333 -95 -250.333 -101 -345v-5c-1.33301 -8.66699 -2 -18 -2 -28
c0 -12.667 1.16699 -28.834 3.5 -48.501s12.833 -40.167 31.5 -61.5c35.333 -38 100 -57 194 -57h118c63.333 0 109.833 5 139.5 15s49.5 20.667 59.5 32c15.333 17.333 23 41.666 23 72.999v735h506v-326zM2153 1388l-201 -200l-200 200l200 201zM1907 1078l-220 -219
l-219 219l219 220zM2426 1078l-220 -219l-219 219l219 220z" />
    <glyph glyph-name="uni0635" unicode="&#x635;" horiz-adv-x="3085" arabic-form="isolated" 
d="M2166 405h283c57.333 0 97 7.33301 119 22s33 39.667 33 75c0 25.333 -4.66699 43.333 -14 54c-9.33301 10 -23.333 16.333 -42 19c-18 2 -40.333 3 -67 3c-38.667 0 -83.667 -13 -135 -39c-52 -26 -101.333 -61 -148 -105c-10 -9.33301 -19.667 -19 -29 -29zM2491 1023
c111.333 0 201.998 -13.501 271.998 -40.501s124.5 -61.167 163.5 -102.5s66.833 -84.833 83.5 -130.5s26.667 -88.5 30 -128.5c2.66699 -32.667 4 -60 4 -82v-22c0 -51.333 -4.33301 -106 -13 -164c-9.33301 -61.333 -27 -117 -53 -167c-40.667 -78 -98 -141.333 -172 -190
h-1c-42 -27.333 -84.333 -48 -127 -62c-41.333 -13.333 -80.333 -22.333 -117 -27c-34.667 -4 -63.667 -6 -87 -6h-760c-20.667 -125.333 -68.667 -231.333 -144 -318c-66 -75.333 -149 -131 -249 -167c-93.333 -34 -201.666 -51 -324.999 -51l-239 -1
c-128 0 -240 29 -336 87c-94.667 56.667 -172.334 131.334 -233.001 224.001c-60 92 -98.667 182.333 -116 271c-12 58 -18 118.333 -18 181c0 22 0.666992 44.667 2 68c13.333 172.667 69 357.667 167 555l22 43l454 -228l-23 -43c-11.333 -22.667 -21.666 -45 -30.999 -67
l-27 -68c-38 -102.667 -57 -190.334 -57 -263.001c0 -53.333 10.333 -98.666 31 -135.999c12 -18.667 26.333 -33 43 -43c18.667 -10.667 38.334 -18 59.001 -22c23.333 -4 44.333 -6 63 -6l239 1c60.667 0 105.5 4.5 134.5 13.5s48.5 19.167 58.5 30.5c6 6 12 19.333 18 40
s9 53.334 9 98.001v673h507v-39v-92c0 -34.667 -0.166992 -65.834 -0.5 -93.501s-0.5 -43.5 -0.5 -47.5c28.667 54 68.167 111 118.5 171s109.333 116.5 177 169.5s141.667 96.5 222 130.5s164.166 51 251.5 51z" />
    <glyph glyph-name="uni0636" unicode="&#x636;" horiz-adv-x="3085" arabic-form="isolated" 
d="M2166 405h283c57.333 0 97 7.33301 119 22s33 39.667 33 75c0 25.333 -4.66699 43.333 -14 54c-9.33301 10 -23.333 16.333 -42 19c-18 2 -40.333 3 -67 3c-38.667 0 -83.667 -13 -135 -39c-52 -26 -101.333 -61 -148 -105c-10 -9.33301 -19.667 -19 -29 -29zM2491 1023
c111.333 0 201.998 -13.501 271.998 -40.501s124.5 -61.167 163.5 -102.5s66.833 -84.833 83.5 -130.5s26.667 -88.5 30 -128.5c2.66699 -32.667 4 -60 4 -82v-22c0 -51.333 -4.33301 -106 -13 -164c-9.33301 -61.333 -27 -117 -53 -167c-40.667 -78 -98 -141.333 -172 -190
h-1c-42 -27.333 -84.333 -48 -127 -62c-41.333 -13.333 -80.333 -22.333 -117 -27c-34.667 -4 -63.667 -6 -87 -6h-760c-20.667 -125.333 -68.667 -231.333 -144 -318c-66 -75.333 -149 -131 -249 -167c-93.333 -34 -201.666 -51 -324.999 -51l-239 -1
c-128 0 -240 29 -336 87c-94.667 56.667 -172.334 131.334 -233.001 224.001c-60 92 -98.667 182.333 -116 271c-12 58 -18 118.333 -18 181c0 22 0.666992 44.667 2 68c13.333 172.667 69 357.667 167 555l22 43l454 -228l-23 -43c-11.333 -22.667 -21.666 -45 -30.999 -67
l-27 -68c-38 -102.667 -57 -190.334 -57 -263.001c0 -53.333 10.333 -98.666 31 -135.999c12 -18.667 26.333 -33 43 -43c18.667 -10.667 38.334 -18 59.001 -22c23.333 -4 44.333 -6 63 -6l239 1c60.667 0 105.5 4.5 134.5 13.5s48.5 19.167 58.5 30.5c6 6 12 19.333 18 40
s9 53.334 9 98.001v673h507v-39v-92c0 -34.667 -0.166992 -65.834 -0.5 -93.501s-0.5 -43.5 -0.5 -47.5c28.667 54 68.167 111 118.5 171s109.333 116.5 177 169.5s141.667 96.5 222 130.5s164.166 51 251.5 51zM2733 1329l-234 -233l-233 233l233 234z" />
    <glyph glyph-name="uni0637" unicode="&#x637;" horiz-adv-x="1649" arabic-form="isolated" 
d="M1557 764c28 -68 41.999 -149.333 41.999 -244c0 -37.333 -3.83301 -86.833 -11.5 -148.5s-25.5 -122.834 -53.5 -183.501c-40 -79.333 -97.667 -143 -173 -191c-42 -27.333 -83.833 -47.833 -125.5 -61.5s-80.5 -22.667 -116.5 -27s-65.667 -6.5 -89 -6.5h-960v556h182
c8 12.667 16.667 25.334 26 38.001v996h507v-522c89.333 36.667 177 55 263 55h20c27.333 0 58.833 -0.833008 94.5 -2.5s72.834 -7.33398 111.501 -17.001s77 -25.167 115 -46.5l1 -1c74.667 -45.333 130 -109.666 166 -192.999zM1030 409
c56.667 0 96.1689 7.16797 118.502 21.501s33.5 39.5 33.5 75.5c0 24.667 -4.83301 42.167 -14.5 52.5s-23.5 16.666 -41.5 18.999s-40.333 3.5 -67 3.5c-38.667 0 -83.834 -12.833 -135.501 -38.5s-100.834 -60.5 -147.501 -104.5l-11 -11c-6.66699 -6 -12.667 -12 -18 -18
h283z" />
    <glyph glyph-name="uni0638" unicode="&#x638;" horiz-adv-x="1649" arabic-form="isolated" 
d="M1557 764c28 -68 41.999 -149.333 41.999 -244c0 -37.333 -3.83301 -86.833 -11.5 -148.5s-25.5 -122.834 -53.5 -183.501c-40 -79.333 -97.667 -143 -173 -191c-42 -27.333 -83.833 -47.833 -125.5 -61.5s-80.5 -22.667 -116.5 -27s-65.667 -6.5 -89 -6.5h-960v556h182
c8 12.667 16.667 25.334 26 38.001v996h507v-522c89.333 36.667 177 55 263 55h20c27.333 0 58.833 -0.833008 94.5 -2.5s72.834 -7.33398 111.501 -17.001s77 -25.167 115 -46.5l1 -1c74.667 -45.333 130 -109.666 166 -192.999zM1030 409
c56.667 0 96.1689 7.16797 118.502 21.501s33.5 39.5 33.5 75.5c0 24.667 -4.83301 42.167 -14.5 52.5s-23.5 16.666 -41.5 18.999s-40.333 3.5 -67 3.5c-38.667 0 -83.834 -12.833 -135.501 -38.5s-100.834 -60.5 -147.501 -104.5l-11 -11c-6.66699 -6 -12.667 -12 -18 -18
h283zM1337 1352l-234 -233l-233 233l233 234z" />
    <glyph glyph-name="uni0639" unicode="&#x639;" horiz-adv-x="1498" arabic-form="isolated" 
d="M780 -636c-99.333 0 -193.499 17.335 -282.499 52.002s-167.5 85 -235.5 151l-3 2l-2 3c-138 184.667 -207 354.667 -207 510c0 120.667 22.667 229.667 68 327c44.667 94.667 109.667 175.667 195 243c24 19.333 49.667 37 77 53c-24 62.667 -36 128.667 -36 198
c0 80 14.5 157.5 43.5 232.5s71.833 139.833 128.5 194.5c55.333 51.333 119 90 191 116s147 39 225 39c59.333 0 117.833 -7.83301 175.5 -23.5s109.834 -33.5 156.501 -53.5s84 -37.667 112 -53l42 -24l-201 -406l-30 14c-20 8.66699 -45.167 18.667 -75.5 30
s-61.833 21.5 -94.5 30.5s-61.334 13.5 -86.001 13.5c-30.667 0 -54 -8.66699 -70 -26c-14.667 -16 -22 -32 -22 -48v-6c0 -18.667 8.16699 -37.167 24.5 -55.5s51 -33.5 104 -45.5s137.5 -18 253.5 -18h178v-554h-85c-57.333 0 -123.666 0.166992 -198.999 0.5
s-145.333 0.5 -210 0.5h-120c-44.667 0 -81.834 -3.66699 -111.501 -11s-55.834 -22.333 -78.501 -45c-14 -15.333 -24.333 -32 -31 -50s-11 -34.167 -13 -48.5s-3 -22.833 -3 -25.5c1.33301 -48.667 15.5 -84.834 42.5 -108.501s58.167 -38.834 93.5 -45.501s64 -10 86 -10
h565v-553h-565z" />
    <glyph glyph-name="uni063A" unicode="&#x63a;" horiz-adv-x="1498" arabic-form="isolated" 
d="M780 -636c-99.333 0 -193.499 17.335 -282.499 52.002s-167.5 85 -235.5 151l-3 2l-2 3c-138 184.667 -207 354.667 -207 510c0 120.667 22.667 229.667 68 327c44.667 94.667 109.667 175.667 195 243c24 19.333 49.667 37 77 53c-24 62.667 -36 128.667 -36 198
c0 80 14.5 157.5 43.5 232.5s71.833 139.833 128.5 194.5c55.333 51.333 119 90 191 116s147 39 225 39c59.333 0 117.833 -7.83301 175.5 -23.5s109.834 -33.5 156.501 -53.5s84 -37.667 112 -53l42 -24l-201 -406l-30 14c-20 8.66699 -45.167 18.667 -75.5 30
s-61.833 21.5 -94.5 30.5s-61.334 13.5 -86.001 13.5c-30.667 0 -54 -8.66699 -70 -26c-14.667 -16 -22 -32 -22 -48v-6c0 -18.667 8.16699 -37.167 24.5 -55.5s51 -33.5 104 -45.5s137.5 -18 253.5 -18h178v-554h-85c-57.333 0 -123.666 0.166992 -198.999 0.5
s-145.333 0.5 -210 0.5h-120c-44.667 0 -81.834 -3.66699 -111.501 -11s-55.834 -22.333 -78.501 -45c-14 -15.333 -24.333 -32 -31 -50s-11 -34.167 -13 -48.5s-3 -22.833 -3 -25.5c1.33301 -48.667 15.5 -84.834 42.5 -108.501s58.167 -38.834 93.5 -45.501s64 -10 86 -10
h565v-553h-565zM1167 1785l-234 -233l-233 233l233 234z" />
    <glyph glyph-name="uni0641" unicode="&#x641;" horiz-adv-x="2174" arabic-form="isolated" 
d="M1682 446v96c0 13.333 -3.33301 28.5 -10 45.5s-18.5 32 -35.5 45s-41.167 19.5 -72.5 19.5c-10.667 0 -25.167 -3 -43.5 -9s-34.833 -17 -49.5 -33s-22 -38.667 -22 -68c0 -39.333 7.5 -65 22.5 -77s37.833 -18 68.5 -18c11.333 0 32 -0.333008 62 -1h80zM941 -98
l-118.999 -0.00195312c-90.667 0 -165 0.666992 -223 2c-59.333 2 -110 6.33301 -152 13c-128.667 20.667 -227 83.334 -295 188.001l-1 1l-1 2c-54 100 -81 215.333 -81 346c0 30.667 1.66699 62.667 5 96v3c16.667 104 36.667 191.667 60 263l18 55l481 -142v-1
c-1.33301 -4.66699 -4.33301 -17.667 -9 -39l-22.5 -94l-21.5 -92.5c-6 -26.333 -9.33301 -41.166 -10 -44.499h464c-0.666992 19.333 -1 38 -1 56c0 117.333 17 216 51 296c34.667 80 79.667 144 135 192c54 46.667 112 80 174 100c60 19.333 116 29 168 29
c156.667 0 291.667 -59 405 -177v-1h1c104.667 -120 157 -266.333 157 -439v-71c0 -103.333 -25.667 -196 -77 -278c-52 -82 -126.667 -146.333 -224 -193c-96.667 -46 -212.334 -69 -347.001 -69zM1802 1435l-234 -233l-233 233l233 234z" />
    <glyph glyph-name="uni0642" unicode="&#x642;" horiz-adv-x="1843" arabic-form="isolated" 
d="M1206 405l155 0.00292969v96c0 31.333 -11.333 57.666 -34 78.999c-22.667 20.667 -50.667 31 -84 31c-32.667 0 -60 -10.667 -82 -32s-33 -47.333 -33 -78c0 -16.667 2 -32.334 6 -47.001c3.33301 -14.667 10.666 -26.334 21.999 -35.001
c10.667 -9.33301 27.334 -14 50.001 -14zM783 -635.997c-140.667 0 -264.997 25.8301 -372.997 77.4971s-193.667 126.167 -257 223.5l-1 1c-53.333 90 -85.333 174.333 -96 253c-6.66699 48.667 -10 96 -10 142c0 28.667 1.33301 57 4 85
c9.33301 156.667 57.333 331 144 523l20 44l462 -208l-20 -44c-61.333 -138 -95 -253.333 -101 -346c-0.666992 -8.66699 -1 -16.667 -1 -24c0 -46 8.33301 -81.667 25 -107c34 -46 102 -69 204 -69h15v1h73c48.667 0.666992 105 1 169 1h166h161
c1.33301 0 3.16602 0.833008 5.49902 2.5s3.5 4.16699 3.5 7.5s-1.16699 5.83301 -3.5 7.5s-4.16602 2.5 -5.49902 2.5c-56.667 0 -114.834 2.66699 -174.501 8s-117.334 16.5 -173.001 33.5s-105.667 43.333 -150 79s-79.666 83.334 -105.999 143.001
s-39.5 134.834 -39.5 225.501c0 116.667 16.667 214.5 50 293.5s76 142.333 128 190s108 81.834 168 102.501s116.667 31 170 31c156.667 0 291.667 -59 405 -177v-1h1c104.667 -119.333 157 -265.666 157 -438.999v-374
c-0.666992 -98.667 -15.334 -184.334 -44.001 -257.001c-28 -72 -63.667 -133 -107 -183c-42 -48.667 -84.667 -89.667 -128 -123l-2 -2c-26.667 -18 -62.334 -37 -107.001 -57c-45.333 -20 -109 -36.333 -191 -49c-70 -11.333 -159 -17 -267 -17h-174zM1214 1314l-220 -219
l-219 219l219 220zM1683 1314l-220 -219l-219 219l219 220z" />
    <glyph glyph-name="uni0643" unicode="&#x643;" horiz-adv-x="2180" arabic-form="isolated" 
d="M1043 1217l94.001 -158c-72.667 -44.667 -118.667 -78 -138 -100h39c13.333 0.666992 27 1 41 1c33.333 0 67 -2.33301 101 -7c62 -13.333 104.667 -44.333 128 -93c9.33301 -20 14 -40.667 14 -62c0 -31.333 -10.333 -64.333 -31 -99c-28.667 -44 -76.667 -79 -144 -105
c-63.333 -24 -143.333 -40.667 -240 -50l-17 183c72.667 7.33301 143 23.333 211 48c5.33301 2 8 4 8 6c0 0.666992 -1.5 1.5 -4.5 2.5s-11.333 1.66699 -25 2s-29.5 0.166016 -47.5 -0.500977c-20 0 -39.833 0.166992 -59.5 0.5s-35.834 1.5 -48.501 3.5
c-56 10.667 -95 36.667 -117 78c-10.667 19.333 -16 40.333 -16 63c0 24.667 6.66699 51.667 20 81c14 30 37.333 60 70 90c38.667 36.667 92.667 75.334 162 116.001zM1518 -98l-705 -0.00195312c-88 0 -162.667 1.66699 -224 5c-59.333 2 -110 6.33301 -152 13
c-128.667 20.667 -227 83.334 -295 188.001l-1 1l-1 2c-54 100 -81 215.333 -81 346c0 30.667 1.66699 62.667 5 96v1l1 2c16 104 35.667 191.667 59 263l18 55l481 -142v-2c-1.33301 -3.33301 -4 -14 -8 -32c-0.666992 -2 -1 -3.66699 -1 -5v-1l-22 -94l-21.5 -94
c-6.33301 -27.333 -9.83301 -42.666 -10.5 -45.999h1013v1032h506l1 -1052c-7.33301 -100 -20 -168.667 -38 -206v-1c-27.333 -68 -68.333 -128.333 -123 -181c-107.333 -98 -241 -147.333 -401 -148z" />
    <glyph glyph-name="uni0644" unicode="&#x644;" horiz-adv-x="1569" arabic-form="isolated" 
d="M743 -636c-125.333 0 -237.165 25.1719 -335.498 75.5049s-177.833 123.166 -238.5 218.499c-26.667 41.333 -47.334 84.5 -62.001 129.5s-25.334 81.167 -32.001 108.5v1c-14 58.667 -21 117.667 -21 177c0 12 0.333008 24 1 36c5.33301 146 46.333 299 123 459l20 44
l458 -215l-20 -44c-46.667 -101.333 -71.667 -189 -75 -263v-10c0 -44 8 -78.667 24 -104c18.667 -26 44 -42.833 76 -50.5s59.333 -11.5 82 -11.5c36 0 71.333 1.66699 106 5s61.334 10.666 80.001 21.999c8.66699 5.33301 16.5 16.166 23.5 32.499
s10.5 45.166 10.5 86.499v1426h506v-1426c0 -228.667 -51 -397.334 -153 -506.001c-64.667 -68 -149.334 -118 -254.001 -150c-86.667 -27.333 -193 -41 -319 -41z" />
    <glyph glyph-name="uni0645" unicode="&#x645;" horiz-adv-x="1611" arabic-form="isolated" 
d="M1457 786c38 -64 64.833 -129.499 80.5 -196.499s23.5 -124.833 23.5 -173.5c0 -156 -50.667 -290.333 -152 -403c-99.333 -98.667 -205.666 -148 -318.999 -148c-30.667 0 -59.334 4 -86.001 12c-72 20.667 -148 48 -228 82s-146.333 63.667 -199 89
c0 -129.333 0.333008 -335 1 -617v-67h-508v1192l304 174l24 -13h1l35 -19.5l58 -32.5c21.333 53.333 62 116.666 122 189.999c110 121.333 238.333 182 385 182c200 0 352.667 -83.667 458 -251zM1081 323.001c26 0 43.999 14.332 53.999 42.999c6 18.667 9 39 9 61
c0 12.667 -1 26 -3 40c-6 39.333 -20 71.5 -42 96.5s-49 37.5 -81 37.5c-25.333 0 -46.666 -8.16699 -63.999 -24.5s-32.833 -38.666 -46.5 -66.999s-27.167 -60.833 -40.5 -97.5l28 -13l68.5 -32l87.5 -39c10.667 -3.33301 20.667 -5 30 -5z" />
    <glyph glyph-name="uni0646" unicode="&#x646;" horiz-adv-x="1662" arabic-form="isolated" 
d="M776 -636c-236 0 -419.333 69.0029 -550 207.003c-61.333 68 -105.333 139.5 -132 214.5s-42.667 144.833 -48 209.5c-3.33301 40 -5 75 -5 105c0 18 0.666992 34.333 2 49c10 158 58 332 144 522l20 45l463 -208l-20 -45c-61.333 -135.333 -95 -250.333 -101 -345v-5
c-0.666992 -8.66699 -1 -18 -1 -28c0 -12.667 1 -28.834 3 -48.501s12.333 -40.167 31 -61.5c35.333 -38 100 -57 194 -57h118c63.333 0 109.833 5 139.5 15s49.5 20.667 59.5 32c16 17.333 24 41.666 24 72.999c0 5.33301 -0.333008 11 -1 17v718h506v-710
c0 -260 -84.667 -450 -254 -570c-51.333 -35.333 -105 -62.333 -161 -81s-111.167 -31.334 -165.5 -38.001s-103.5 -10 -147.5 -10h-118zM1083 813.003l-234 -233l-233 233l233 234z" />
    <glyph glyph-name="uni0647" unicode="&#x647;" horiz-adv-x="1155" arabic-form="isolated" 
d="M908 888c30.667 -33.333 61.833 -71 93.5 -113s58.5 -89.5 80.5 -142.5s33 -112.5 33 -178.5c0 -66.667 -9.5 -132.834 -28.5 -198.501s-49.5 -125.167 -91.5 -178.5s-97.333 -96.166 -166 -128.499s-152.334 -48.5 -251.001 -48.5c-88 0 -163 11.667 -225 35
s-113.5 54.166 -154.5 92.499s-73 80.333 -96 126s-39.167 91.334 -48.5 137.001s-14 87.167 -14 124.5c0 55.333 10.167 109.5 30.5 162.5s43.833 100.5 70.5 142.5s50.334 75.833 71.001 101.5s32 39.167 34 40.5l-17.5 19.5l-21 23c-7 7.66699 -12.833 14.5 -17.5 20.5
l-7 8l377 336l42 -47l101.5 -111l116 -127zM571.999 349c32.667 0 59 10.1699 79 30.5029s30 48.833 30 85.5c0 12 -5.83301 26.667 -17.5 44s-25 34.166 -40 50.499l-39.5 41.5l-17 17l-16 -16c-10.667 -10 -23 -22.833 -37 -38.5s-26.333 -32.334 -37 -50.001
s-16 -33.834 -16 -48.501c0 -36.667 10.5 -65.167 31.5 -85.5s47.5 -30.5 79.5 -30.5z" />
    <glyph glyph-name="uni0648" unicode="&#x648;" horiz-adv-x="1209" arabic-form="isolated" 
d="M560 405l155 0.00292969v96c0 31.333 -11.333 57.666 -34 78.999c-22.667 20.667 -50.667 31 -84 31c-32.667 0 -60 -10.667 -82 -32s-33 -47.333 -33 -78c0 -16.667 1.66699 -32.334 5 -47.001c4 -14.667 11.333 -26.334 22 -35.001c11.333 -9.33301 28.333 -14 51 -14z
M594 1043c156 0 290.668 -59.0029 404.001 -177.003v-1h1c104.667 -119.333 157 -265.666 157 -438.999v-374c-0.666992 -98.667 -15.334 -184.334 -44.001 -257.001c-28 -72 -63.667 -133 -107 -183c-42 -48.667 -84.667 -89.667 -128 -123l-2 -2
c-26 -18 -61.333 -37 -106 -57c-45.333 -20 -109 -36.333 -191 -49c-70 -11.333 -159.333 -17 -268 -17h-159v552h73c48.667 0.666992 105 1 169 1h166h161c1.33301 0 3.33301 0.833008 6 2.5s4 4.16699 4 7.5s-1.33301 5.83301 -4 7.5s-4.66699 2.5 -6 2.5
c-56 0 -114 2.66699 -174 8s-117.833 16.5 -173.5 33.5s-105.5 43.333 -149.5 79s-79.167 83.334 -105.5 143.001s-39.5 134.834 -39.5 225.501c0 116.667 16.5 214.5 49.5 293.5s75.5 142.333 127.5 190s108 81.834 168 102.501s117 31 171 31z" />
    <glyph glyph-name="uni0649" unicode="&#x649;" horiz-adv-x="1831" arabic-form="isolated" 
d="M750 -636c-92.667 0 -173.168 12.334 -241.501 37.001s-126.333 55.167 -174 91.5s-86.5 73.166 -116.5 110.499c-53.333 65.333 -94.666 139.833 -123.999 223.5s-44 169.167 -44 256.5c0 92 8 176.333 24 253s36.5 147.834 61.5 213.501s52.167 127.5 81.5 185.5l22 43
l454 -222l-21 -44c-76.667 -152.667 -115 -282.334 -115 -389.001c0 -57.333 8 -101 24 -131s38.667 -50.333 68 -61s64 -16 104 -16h396c31.333 0 57 2.16699 77 6.5s35.667 9.5 47 15.5c-46 12 -107.333 26.667 -184 44c-90 20.667 -170.333 40 -241 58l-26 7l-8 26
c-2.66699 4.66699 -9.33398 31 -20.001 79s-18 108.333 -22 181c-0.666992 15.333 -1 30.666 -1 45.999c0 58 6.66699 118 20 180c4 22.667 19.333 64.334 46 125.001s72 125.334 136 194.001c140.667 138.667 318 208 532 208c40 0 79.5 -3.66699 118.5 -11
s75.833 -15.333 110.5 -24l47 -13l-130 -494l-49 17c-46 16 -88.333 24 -127 24c-107.333 0 -177.666 -53.333 -210.999 -160l118 -32c78 -20 140.333 -37.333 187 -52c126 -41.333 189 -136 189 -284v-2c-2 -262.667 -81.667 -452.334 -239 -569.001
c-46 -33.333 -93.667 -58.833 -143 -76.5s-97.5 -29.5 -144.5 -35.5s-89.833 -9 -128.5 -9h-353z" />
    <glyph glyph-name="uni064A" unicode="&#x64a;" horiz-adv-x="1831" arabic-form="isolated" 
d="M750 -636c-92.667 0 -173.168 12.334 -241.501 37.001s-126.333 55.167 -174 91.5s-86.5 73.166 -116.5 110.499c-53.333 65.333 -94.666 139.833 -123.999 223.5s-44 169.167 -44 256.5c0 92 8 176.333 24 253s36.5 147.834 61.5 213.501s52.167 127.5 81.5 185.5l22 43
l454 -222l-21 -44c-76.667 -152.667 -115 -282.334 -115 -389.001c0 -57.333 8 -101 24 -131s38.667 -50.333 68 -61s64 -16 104 -16h396c31.333 0 57 2.16699 77 6.5s35.667 9.5 47 15.5c-46 12 -107.333 26.667 -184 44c-90 20.667 -170.333 40 -241 58l-26 7l-8 26
c-2.66699 4.66699 -9.33398 31 -20.001 79s-18 108.333 -22 181c-0.666992 15.333 -1 30.666 -1 45.999c0 58 6.66699 118 20 180c4 22.667 19.333 64.334 46 125.001s72 125.334 136 194.001c140.667 138.667 318 208 532 208c40 0 79.5 -3.66699 118.5 -11
s75.833 -15.333 110.5 -24l47 -13l-130 -494l-49 17c-46 16 -88.333 24 -127 24c-107.333 0 -177.666 -53.333 -210.999 -160l118 -32c78 -20 140.333 -37.333 187 -52c126 -41.333 189 -136 189 -284v-2c-2 -262.667 -81.667 -452.334 -239 -569.001
c-46 -33.333 -93.667 -58.833 -143 -76.5s-97.5 -29.5 -144.5 -35.5s-89.833 -9 -128.5 -9h-353zM666.999 -705.999l220 -219l-220 -220l-219 220zM1136 -705.999l220 -219l-220 -220l-219 220z" />
    <glyph glyph-name="uni066E.init" unicode="&#x66e;" horiz-adv-x="817" 
d="M-15 -98l0.000976562 556.002h263c-0.666992 0 -4 16 -10 48l-21 110l-21 110l-10 48l491 149l11 -57c6.66699 -38.667 15.167 -85.334 25.5 -140.001l29.5 -161c10.667 -54.667 16 -105.334 16 -152.001c0 -25.333 -1.66699 -49.333 -5 -72
c-4.66699 -42 -15 -87 -31 -135s-38 -89.667 -66 -125c-60.667 -73.333 -129.334 -123.333 -206.001 -150h-2c-62 -19.333 -133.667 -29 -215 -29h-249z" />
    <glyph glyph-name="uni066E.medi" unicode="&#x66e;" horiz-adv-x="838" 
d="M765 -98c-101.333 0 -194.333 23 -279 69c-22.667 -11.333 -45.667 -21.333 -69 -30c-72.667 -26 -154 -39 -244 -39h-188v556h247v315h507v-315h114v-556h-88z" />
    <glyph glyph-name="uni066E.fina" unicode="&#x66e;" horiz-adv-x="2234" 
d="M2099 458l154.998 -0.00292969v-556c-120 0 -206.333 2.83301 -259 8.5s-94.667 20.834 -126 45.501c-37.333 -19.333 -75.666 -33.166 -114.999 -41.499s-79.166 -13.333 -119.499 -15s-80.5 -2.5 -120.5 -2.5h-703c-93.333 0 -168.666 0.666992 -225.999 2
s-107.333 5.66602 -150 12.999c-128.667 20.667 -226.667 83 -294 187c-40 64 -65 137 -75 219c-6 45.333 -9 89 -9 131c0 34 2 66.667 6 98c3.33301 26.667 9 57.834 17 93.501s16.667 70.834 26 105.501s17.666 63.667 24.999 87l10 35l482 -142l-64 -274h1034v324h506
v-318z" />
    <glyph glyph-name="uni066F.init" unicode="&#x66f;" horiz-adv-x="1218" 
d="M1011 953c104.667 -120 156.999 -266.333 156.999 -439v-71c0 -103.333 -25.667 -196 -77 -278c-52 -82 -126.667 -146.333 -224 -193c-96.667 -46 -212.667 -69 -348 -69h-534v555h93c-1.33301 19.333 -2 38 -2 56c0 117.333 17.333 216 52 296s79.334 144 134.001 192
c54.667 46.667 112.667 80 174 100c60.667 19.333 117 29 169 29c156 0 290.667 -59 404 -177l1 -1h1zM725.999 446v96c0 13.333 -3.33301 28.5 -10 45.5s-18.5 32 -35.5 45s-41.167 19.5 -72.5 19.5c-10.667 0 -25.167 -3 -43.5 -9s-34.833 -17 -49.5 -33
s-22 -38.667 -22 -68c0 -39.333 7.5 -65 22.5 -77s37.5 -18 67.5 -18c12 0 33 -0.333008 63 -1h80z" />
    <glyph glyph-name="uni066F.medi" unicode="&#x66f;" horiz-adv-x="1334" 
d="M1236 458h113v-556h-265c-75.333 0 -144.333 3.66699 -207 11s-131.667 20 -207 38c-116.667 -32.667 -255.667 -49 -417 -49h-268v556h115c-3.33301 26 -5 53.333 -5 82c0 160 53.667 299 161 417c112 118.667 249.667 178 413 178c160.667 0 298 -59.333 412 -178
c107.333 -118 161 -257 161 -417c0 -28.667 -2 -56 -6 -82zM669 418c4 0.666992 13.002 3.33398 27.002 8.00098s29.333 12.167 46 22.5s31.167 24 43.5 41s18.5 37.833 18.5 62.5c0 8 -1.66699 20 -5 36s-9.83301 32.5 -19.5 49.5s-23.334 31.5 -41.001 43.5
s-40.834 18 -69.501 18c-29.333 0 -52.833 -6 -70.5 -18s-31.167 -26.5 -40.5 -43.5s-15.666 -33.5 -18.999 -49.5s-5 -28 -5 -36c0 -25.333 6.16699 -46.5 18.5 -63.5s26.666 -30.5 42.999 -40.5s31.5 -17.333 45.5 -22s23.333 -7.33398 28 -8.00098z" />
    <glyph glyph-name="uni066F.fina" unicode="&#x66f;" horiz-adv-x="1885" 
d="M1206 405l155 0.00292969v96c0 31.333 -11.333 57.666 -34 78.999c-22.667 20.667 -50.667 31 -84 31c-32.667 0 -60 -10.667 -82 -32s-33 -47.333 -33 -78c0 -16.667 2 -32.334 6 -47.001c3.33301 -14.667 10.666 -26.334 21.999 -35.001
c10.667 -9.33301 27.334 -14 50.001 -14zM1802 458.003l93.002 -0.00195312v-556h-106c-6.66699 -38.667 -16.667 -74.334 -30 -107.001c-28 -72 -63.667 -133 -107 -183c-42 -48.667 -84.667 -89.667 -128 -123l-2 -2c-26.667 -18 -62.334 -37 -107.001 -57
c-45.333 -20 -109 -36.333 -191 -49c-70 -11.333 -159 -17 -267 -17h-174c-140.667 0 -265 25.833 -373 77.5s-193.667 126.167 -257 223.5l-1 1c-53.333 90 -85.333 174.333 -96 253c-6.66699 48.667 -10 96 -10 142c0 28.667 1.33301 57 4 85
c9.33301 156.667 57.333 331 144 523l20 44l462 -208l-20 -44c-61.333 -138 -95 -253.333 -101 -346c-0.666992 -8.66699 -1 -16.667 -1 -24c0 -46 8.33301 -81.667 25 -107c34 -46 102 -69 204 -69h15v1h73c48.667 0.666992 105 1 169 1h166h161
c1.33301 0 3.16602 0.833008 5.49902 2.5s3.5 4.16699 3.5 7.5s-1.16699 5.83301 -3.5 7.5s-4.16602 2.5 -5.49902 2.5c-56.667 0 -114.834 2.66699 -174.501 8s-117.334 16.5 -173.001 33.5s-105.667 43.333 -150 79s-79.666 83.334 -105.999 143.001
s-39.5 134.834 -39.5 225.501c0 116.667 16.667 214.5 50 293.5s76 142.333 128 190s108 81.834 168 102.501s116.667 31 170 31c156.667 0 291.667 -59 405 -177v-1h1c98 -112 150 -247.667 156 -407z" />
    <glyph glyph-name="uni0671" unicode="&#x671;" horiz-adv-x="708" arabic-form="isolated" 
d="M100 -98v1378h508v-1378h-508zM495 1416h-481l26 119h133l43 66l83 122c24 35.333 53.333 63.333 88 84s72.334 31 113.001 31c31.333 0 61.833 -8 91.5 -24s54.167 -40.5 73.5 -73.5s29 -74.833 29 -125.5c0 -49.333 -10.333 -88.5 -31 -117.5
s-46.334 -49.833 -77.001 -62.5s-61 -19 -91 -19zM500 1719c-21.333 0 -43 -9.5 -65 -28.5s-43.333 -42.5 -64 -70.5s-39.667 -56.333 -57 -85h181c22.667 0 41.5 6.33301 56.5 19s22.5 33 22.5 61c0 68 -24.667 102.667 -74 104z" />
    <glyph glyph-name="uni0679" unicode="&#x679;" horiz-adv-x="2163" arabic-form="isolated" 
d="M822 -103c-90.667 0 -165 0.665039 -223 1.99805c-59.333 2 -110 6.33301 -152 13c-128.667 20.667 -227 83.334 -295 188.001l-1 1l-1 2c-54 100 -81 215.333 -81 346c0 30.667 1.66699 62.667 5 96v3c16.667 104 36.667 191.667 60 263l18 55l481 -142l-9 -40
l-22.5 -94l-21.5 -94c-6 -27.333 -9.33301 -42.666 -10 -45.999h1024c0 2 -2.66699 16.5 -8 43.5l-18 92.5l-18 93l-8 41l492 143l2 -11c1.33301 -8 3 -17.333 5 -28l5.5 -30c1.66699 -9.33301 2.83398 -15.666 3.5 -18.999l1 -1l38 -213c10.667 -53.333 16 -103 16 -149
c0 -25.333 -1.66699 -49.666 -5 -72.999c-3.33301 -110.667 -35 -202.334 -95 -275.001c-53.333 -64.667 -123.333 -110.334 -210 -137.001c-61.333 -20 -133 -30 -215 -30h-758zM1220 652.998l-422.997 -0.000976562v119h100c2 2 3.5 3.66699 4.5 5s1.66699 2.33301 2 3
s0.833008 1.33398 1.5 2.00098c0 1.33301 0.666992 3 2 5s3 4.33301 5 7c5.33301 8.66699 14 21.667 26 39v487h117v-331c23.333 24 49.166 43.333 77.499 58s59.166 22 92.499 22c31.333 0 61.833 -7.33301 91.5 -22s54.167 -38 73.5 -70s29 -73.667 29 -125
c0 -49.333 -10.333 -88.5 -31 -117.5s-46.334 -49.833 -77.001 -62.5s-61 -19 -91 -19zM1225 949.997c-21.333 0 -42.833 -8.83301 -64.5 -26.5s-42.667 -40 -63 -67s-39.833 -55.167 -58.5 -84.5h181c22.667 0 42.167 6.33301 58.5 19s24.5 33 24.5 61
c0 34 -7 58.833 -21 74.5s-33 23.5 -57 23.5z" />
    <glyph glyph-name="uni067E" unicode="&#x67e;" horiz-adv-x="2163" arabic-form="isolated" 
d="M822 -103c-90.667 0 -165 0.665039 -223 1.99805c-59.333 2 -110 6.33301 -152 13c-128.667 20.667 -227 83.334 -295 188.001l-1 1l-1 2c-54 100 -81 215.333 -81 346c0 30.667 1.66699 62.667 5 96v3c16.667 104 36.667 191.667 60 263l18 55l481 -142l-9 -40
l-22.5 -94l-21.5 -94c-6 -27.333 -9.33301 -42.666 -10 -45.999h1024c0 2 -2.66699 16.5 -8 43.5l-18 92.5l-18 93l-8 41l492 143l2 -11c1.33301 -8 3 -17.333 5 -28l5.5 -30c1.66699 -9.33301 2.83398 -15.666 3.5 -18.999l1 -1l38 -213c10.667 -53.333 16 -103 16 -149
c0 -25.333 -1.66699 -49.666 -5 -72.999c-3.33301 -110.667 -35 -202.334 -95 -275.001c-53.333 -64.667 -123.333 -110.334 -210 -137.001c-61.333 -20 -133 -30 -215 -30h-758zM1283 -682.002l-201 -201l-200 201l200 200zM1037 -372.002l-220 -220l-219 220l219 219z
M1556 -372.002l-220 -220l-219 220l219 219z" />
    <glyph glyph-name="uni0686" unicode="&#x686;" horiz-adv-x="1670" arabic-form="isolated" 
d="M814 -645c-56.667 0 -112.166 1.83398 -166.499 5.50098s-106.333 12.667 -156 27s-96.5 36.5 -140.5 66.5c-44 34 -83.833 91.333 -119.5 172s-66.834 171.167 -93.501 271.5s-48.334 196.5 -65.001 288.5c-9.33301 45.333 -14 88.666 -14 129.999
c0 31.333 4.33301 70.833 13 118.5s42.667 98 102 151s150.666 98.833 273.999 137.5l577 178l-70 18l-162.5 41c-61.667 16 -118.5 32 -170.5 48l-54 -101l-450 117c36 137.333 103.333 245.333 202 324l1 1c88.667 66.667 185.334 100 290.001 100
c24.667 0 47.334 -1.66699 68.001 -5c31.333 -3.33301 86.333 -19.333 165 -48s196 -78 352 -148l146 -67l118 -55l47 -22l61 -487l-115 -44l-279 -107.5l-329 -126.5l-273 -106l95 -325h238v-553h-91zM1396 -149.999l-201 -201l-200 201l200 200zM1185 130.001l-220 -220
l-219 220l219 219zM1656 130.001l-220 -220l-219 220l219 219z" />
    <glyph glyph-name="uni0688" unicode="&#x688;" horiz-adv-x="1246" arabic-form="isolated" 
d="M689 -104c-74 0 -153.667 8.83203 -239 26.499s-161.166 36 -227.499 55s-110.833 32.5 -133.5 40.5l-39 13l155 511l63 -22c42 -15.333 93 -32.166 153 -50.499s117.667 -33.833 173 -46.5s99.666 -19 132.999 -19h10l-195 264.5l-171 221.5l-72 89l411 281l61 -87
l148.5 -211.5l172.5 -244.5c56 -80 88.667 -165.667 98 -257c2 -16.667 3 -34.667 3 -54c0 -26 -1.66699 -54.333 -5 -85c-6 -53.333 -22.333 -108.333 -49 -165v-1c-43.333 -82 -104.5 -145.667 -183.5 -191s-167.833 -68 -266.5 -68zM752 1349l-422.997 -0.000976562v119
h100c2 2 3.5 3.66699 4.5 5s1.66699 2.33301 2 3s0.833008 1.33398 1.5 2.00098c0 1.33301 0.666992 3 2 5s3 4.33301 5 7c5.33301 8.66699 14 21.667 26 39v487h117v-331c23.333 24 49.166 43.333 77.499 58s59.166 22 92.499 22c31.333 0 61.833 -7.33301 91.5 -22
s54.167 -38 73.5 -70s29 -73.667 29 -125c0 -49.333 -10.333 -88.5 -31 -117.5s-46.334 -49.833 -77.001 -62.5s-61 -19 -91 -19zM757.003 1646c-21.333 0 -42.833 -8.83301 -64.5 -26.5s-42.667 -40 -63 -67s-39.833 -55.167 -58.5 -84.5h181
c22.667 0 42.167 6.33301 58.5 19s24.5 33 24.5 61c0 34 -7 58.833 -21 74.5s-33 23.5 -57 23.5z" />
    <glyph glyph-name="uni0691" unicode="&#x691;" horiz-adv-x="956" arabic-form="isolated" 
d="M0 -636v554h146c97.333 0 164 19 200 57c34.667 43.333 52 114.333 52 213v586h507v-586c0 -122 -16.167 -236.5 -48.5 -343.5s-76.166 -190.833 -131.499 -251.5c-68.667 -78.667 -154 -137 -256 -175c-94.667 -36 -202.334 -54 -323.001 -54h-146zM705 901
l-422.997 -0.000976562v119h100c2 2 3.5 3.66699 4.5 5s1.66699 2.33301 2 3s0.833008 1.33398 1.5 2.00098c0 1.33301 0.666992 3 2 5s3 4.33301 5 7c5.33301 8.66699 14 21.667 26 39v487h117v-331c23.333 24 49.166 43.333 77.499 58s59.166 22 92.499 22
c31.333 0 61.833 -7.33301 91.5 -22s54.167 -38 73.5 -70s29 -73.667 29 -125c0 -49.333 -10.333 -88.5 -31 -117.5s-46.334 -49.833 -77.001 -62.5s-61 -19 -91 -19zM710.003 1198c-21.333 0 -42.833 -8.83301 -64.5 -26.5s-42.667 -40 -63 -67
s-39.833 -55.167 -58.5 -84.5h181c22.667 0 42.167 6.33301 58.5 19s24.5 33 24.5 61c0 34 -7 58.833 -21 74.5s-33 23.5 -57 23.5z" />
    <glyph glyph-name="uni0692.fina" unicode="&#x692;" horiz-adv-x="972" 
d="M906 774l-0.000976562 -285.999c0 -3.33301 0.833008 -7.33301 2.5 -12s5 -8.83398 10 -12.501s12.5 -5.5 22.5 -5.5h66v-556h-76c-17.333 0 -35 1 -53 3c-14 -49.333 -33 -101.5 -57 -156.5s-55 -106.167 -93 -153.5l-1 -1c-69.333 -78.667 -155 -137 -257 -175
c-95.333 -36 -203 -54 -323 -54h-147v553h147c96.667 0 163.334 19 200.001 57c34.667 43.333 52 114.333 52 213v586h507zM943.999 1316l-231 -413h-131l-234 413h171l126 -253l130 253h169z" />
    <glyph glyph-name="uni0695.fina" unicode="&#x695;" horiz-adv-x="972" 
d="M906 774l-0.000976562 -285.999c0 -3.33301 0.833008 -7.33301 2.5 -12s5 -8.83398 10 -12.501s12.5 -5.5 22.5 -5.5h66v-556h-76c-17.333 0 -35 1 -53 3c-14 -49.333 -33 -101.5 -57 -156.5s-55 -106.167 -93 -153.5l-1 -1c-69.333 -78.667 -155 -137 -257 -175
c-95.333 -36 -203 -54 -323 -54h-147v553h147c96.667 0 163.334 19 200.001 57c34.667 43.333 52 114.333 52 213v586h507zM647.999 -678.999l-231 -413h-131l-234 413h171l126 -253l130 253h169z" />
    <glyph glyph-name="uni0698" unicode="&#x698;" horiz-adv-x="1030" arabic-form="isolated" 
d="M0 -636v554h146c97.333 0 164 19 200 57c34.667 43.333 52 114.333 52 213v586h507v-586c0 -122 -16.167 -236.5 -48.5 -343.5s-76.166 -190.833 -131.499 -251.5c-68.667 -78.667 -154 -137 -256 -175c-94.667 -36 -202.334 -54 -323.001 -54h-146zM758 1422l-201 -200
l-200 200l200 201zM512 1112l-220 -219l-219 219l219 220zM1031 1112l-220 -219l-219 219l219 220z" />
    <glyph glyph-name="uni06A4.init" unicode="&#x6a4;" horiz-adv-x="1218" arabic-form="initial" 
d="M1011 953c104.667 -120 156.999 -266.333 156.999 -439v-71c0 -103.333 -25.667 -196 -77 -278c-52 -82 -126.667 -146.333 -224 -193c-96.667 -46 -212.667 -69 -348 -69h-534v555h93c-1.33301 19.333 -2 38 -2 56c0 117.333 17.333 216 52 296s79.334 144 134.001 192
c54.667 46.667 112.667 80 174 100c60.667 19.333 117 29 169 29c156 0 290.667 -59 404 -177l1 -1h1zM725.999 446v96c0 13.333 -3.33301 28.5 -10 45.5s-18.5 32 -35.5 45s-41.167 19.5 -72.5 19.5c-10.667 0 -25.167 -3 -43.5 -9s-34.833 -17 -49.5 -33
s-22 -38.667 -22 -68c0 -39.333 7.5 -65 22.5 -77s37.5 -18 67.5 -18c12 0 33 -0.333008 63 -1h80zM802.999 1709l-201 -200l-200 200l200 201zM556.999 1399l-220 -219l-219 219l219 220zM1076 1399l-220 -219l-219 219l219 220z" />
    <glyph glyph-name="uni06A4.medi" unicode="&#x6a4;" horiz-adv-x="1334" arabic-form="medial" 
d="M1236 458h113v-556h-265c-75.333 0 -144.333 3.66699 -207 11s-131.667 20 -207 38c-116.667 -32.667 -255.667 -49 -417 -49h-268v556h115c-3.33301 26 -5 53.333 -5 82c0 160 53.667 299 161 417c112 118.667 249.667 178 413 178c160.667 0 298 -59.333 412 -178
c107.333 -118 161 -257 161 -417c0 -28.667 -2 -56 -6 -82zM669 418c4 0.666992 13.002 3.33398 27.002 8.00098s29.333 12.167 46 22.5s31.167 24 43.5 41s18.5 37.833 18.5 62.5c0 8 -1.66699 20 -5 36s-9.83301 32.5 -19.5 49.5s-23.334 31.5 -41.001 43.5
s-40.834 18 -69.501 18c-29.333 0 -52.833 -6 -70.5 -18s-31.167 -26.5 -40.5 -43.5s-15.666 -33.5 -18.999 -49.5s-5 -28 -5 -36c0 -25.333 6.16699 -46.5 18.5 -63.5s26.666 -30.5 42.999 -40.5s31.5 -17.333 45.5 -22s23.333 -7.33398 28 -8.00098zM873.002 1721
l-201 -200l-200 200l200 201zM627.002 1411l-220 -219l-219 219l219 220zM1146 1411l-220 -219l-219 219l219 220z" />
    <glyph glyph-name="uni06A4.fina" unicode="&#x6a4;" horiz-adv-x="2263" arabic-form="final" 
d="M1598 418c4 0.666992 13.002 3.33398 27.002 8.00098s29.333 12.167 46 22.5s31.167 24 43.5 41s18.5 37.833 18.5 62.5c0 8 -1.66699 20 -5 36s-9.83301 32.5 -19.5 49.5s-23.334 31.5 -41.001 43.5s-40.834 18 -69.501 18c-29.333 0 -52.833 -6 -70.5 -18
s-31.167 -26.5 -40.5 -43.5s-15.666 -33.5 -18.999 -49.5s-5 -28 -5 -36c0 -25.333 6.16699 -46.5 18.5 -63.5s26.666 -30.5 42.999 -40.5s31.5 -17.333 45.5 -22s23.333 -7.33398 28 -8.00098zM822.002 -98c-90.667 0 -165 0.665039 -223 1.99805
c-59.333 2 -110 6.33301 -152 13c-128.667 20.667 -227 83.334 -295 188.001l-1 1l-1 2c-54 100 -81 215.333 -81 346c0 30.667 1.66699 62.667 5 96v3c16.667 104 36.667 191.667 60 263l18 55l481 -142v-1c-1.33301 -4.66699 -4.33301 -17.667 -9 -39l-22.5 -94
l-21.5 -92.5c-6 -26.333 -9.33301 -41.166 -10 -44.499h459c-3.33301 26 -5 53.333 -5 82c0 160 53.333 299 160 417c112.667 118.667 250.667 178 414 178c160 0 297.333 -59.333 412 -178c107.333 -118 161 -257 161 -417c0 -28.667 -2 -56 -6 -82h113v-556h-265
c-75.333 0 -144.333 3.66699 -207 11s-131.667 20 -207 38c-116.667 -32.667 -255.667 -49 -417 -49h-360zM1803 1703l-201 -200l-200 200l200 201zM1557 1393l-220 -219l-219 219l219 220zM2076 1393l-220 -219l-219 219l219 220z" />
    <glyph glyph-name="uni06A8.fina" unicode="&#x6a8;" horiz-adv-x="1885" 
d="M1206 405l155 0.00292969v96c0 31.333 -11.333 57.666 -34 78.999c-22.667 20.667 -50.667 31 -84 31c-32.667 0 -60 -10.667 -82 -32s-33 -47.333 -33 -78c0 -16.667 2 -32.334 6 -47.001c3.33301 -14.667 10.666 -26.334 21.999 -35.001
c10.667 -9.33301 27.334 -14 50.001 -14zM1802 458.003l93.002 -0.00195312v-556h-106c-6.66699 -38.667 -16.667 -74.334 -30 -107.001c-28 -72 -63.667 -133 -107 -183c-42 -48.667 -84.667 -89.667 -128 -123l-2 -2c-26.667 -18 -62.334 -37 -107.001 -57
c-45.333 -20 -109 -36.333 -191 -49c-70 -11.333 -159 -17 -267 -17h-174c-140.667 0 -265 25.833 -373 77.5s-193.667 126.167 -257 223.5l-1 1c-53.333 90 -85.333 174.333 -96 253c-6.66699 48.667 -10 96 -10 142c0 28.667 1.33301 57 4 85
c9.33301 156.667 57.333 331 144 523l20 44l462 -208l-20 -44c-61.333 -138 -95 -253.333 -101 -346c-0.666992 -8.66699 -1 -16.667 -1 -24c0 -46 8.33301 -81.667 25 -107c34 -46 102 -69 204 -69h15v1h73c48.667 0.666992 105 1 169 1h166h161
c1.33301 0 3.16602 0.833008 5.49902 2.5s3.5 4.16699 3.5 7.5s-1.16699 5.83301 -3.5 7.5s-4.16602 2.5 -5.49902 2.5c-56.667 0 -114.834 2.66699 -174.501 8s-117.334 16.5 -173.001 33.5s-105.667 43.333 -150 79s-79.666 83.334 -105.999 143.001
s-39.5 134.834 -39.5 225.501c0 116.667 16.667 214.5 50 293.5s76 142.333 128 190s108 81.834 168 102.501s116.667 31 170 31c156.667 0 291.667 -59 405 -177v-1h1c98 -112 150 -247.667 156 -407zM1440 1598l-201 -200l-200 200l200 201zM1194 1288l-220 -219l-219 219
l219 220zM1713 1288l-220 -219l-219 219l219 220z" />
    <glyph glyph-name="uni06A9" unicode="&#x6a9;" horiz-adv-x="2061" arabic-form="isolated" 
d="M810 -97c-92.667 0 -167.836 0.666992 -225.503 2s-107.5 5.33301 -149.5 12c-124 20 -222 85.333 -294 196c-40 62 -64 124.833 -72 188.5s-12 116.5 -12 158.5c0 34 2 67 6 99c4.66699 39.333 13 83.666 25 132.999s23.667 93 35 131l16 56l483 -142l-11 -45
c0 -2.66699 -4.83301 -24 -14.5 -64s-20.167 -86.333 -31.5 -139l-1 -1c-3.33301 -14 -5 -23.667 -5 -29h807c-64 66.667 -129.667 129.167 -197 187.5l-170.5 143c-46.333 37 -70.833 56.5 -73.5 58.5l-24 16l49 403l901 409l210 -461l-537 -244l150 -152l1 -1l49 -52
c32.667 -33.333 61.334 -65 86.001 -95s45.334 -62.333 62.001 -97c36 -79.333 54 -156.666 54 -231.999c0 -58.667 -11 -116.334 -33 -173.001c-15.333 -38.667 -43 -79.167 -83 -121.5s-98 -77.166 -174 -104.499c-77.333 -26.667 -176.666 -40 -297.999 -40h-528z" />
    <glyph glyph-name="uni06AA.init" unicode="&#x6aa;" horiz-adv-x="1888" 
d="M1638 -31c-22 -14.667 -47.332 -28 -75.999 -40c-42.667 -18 -93.667 -27 -153 -27h-1424v556h514l923 1c-2.66699 3.33301 -5.33398 7.33301 -8.00098 12c-5.33301 10 -12.333 20 -21 30s-20.167 18.833 -34.5 26.5s-32.833 11.5 -55.5 11.5h-664.5
c-179.667 0 -287.5 0.333008 -323.5 1h-23l-232 513v20c37.333 82.667 102.333 158 195 226s197.5 128 314.5 180s230.5 95.833 340.5 131.5s201.667 62.834 275 81.501l109 27l150 -448l-251 -62c-168 -42 -375 -118.667 -621 -230l662 34
c152 -5.33301 274.167 -48.833 366.5 -130.5s151.333 -168.334 177 -260.001s38.5 -170.167 38.5 -235.5c0 -49.333 -5.33301 -98.333 -16 -147c-25.333 -112.667 -79.333 -203 -162 -271z" />
    <glyph glyph-name="uni06AA.medi" unicode="&#x6aa;" horiz-adv-x="2097" 
d="M2054 -98c-49.333 0 -105.332 4.66797 -167.999 14.001c-56 8.66699 -113.333 26.334 -172 53.001c-22 -14.667 -47.333 -28 -76 -40c-43.333 -18 -94.333 -27 -153 -27h-1500v556h1368c-2.66699 4 -5.33398 8.33301 -8.00098 13c-5.33301 10 -12.5 19.833 -21.5 29.5
s-20.5 18.5 -34.5 26.5s-32.333 12 -55 12c-526.667 0 -826.334 0.333008 -899.001 1h-23l-232 513v20c37.333 82.667 102.333 158 195 226s197.5 128 314.5 180s230.5 95.833 340.5 131.5s201.333 62.834 274 81.501l110 27l150 -448l-256 -63
c-170.667 -42 -378.667 -116 -624 -222l726 27c61.333 0 118.333 -15.333 171 -46s100.334 -68.5 143.001 -113.5s80 -90.833 112 -137.5s58.333 -87.334 79 -122.001c7.33301 -12.667 14 -23.667 20 -33l12.5 -18.5c3.66699 -5.66699 6.5 -9.83398 8.5 -12.501
c25.333 -22.667 48 -39.334 68 -50.001s39.333 -16.667 58 -18c23.333 -2 47.333 -3 72 -3h58v-557h-58z" />
    <glyph glyph-name="uni06AA.fina" unicode="&#x6aa;" horiz-adv-x="2713" 
d="M551 458l1418 -0.00292969c-2.66699 4 -5.33398 8.33301 -8.00098 13c-5.33301 10 -12.5 19.833 -21.5 29.5s-20.5 18.5 -34.5 26.5s-32.333 12 -55 12c-526.667 0 -826.334 0.333008 -899.001 1h-23l-232 513v20c37.333 82.667 102.333 158 195 226s197.5 128 314.5 180
s230.5 95.833 340.5 131.5s201.667 62.834 275 81.501c67.333 16.667 103.333 25.667 108 27h1l150 -448h-1c-4 -1.33301 -109.667 -24.666 -317 -69.999s-394.666 -118 -561.999 -218l726 30c61.333 0 118.333 -15.333 171 -46s100.334 -68.5 143 -113.5
c42.667 -45 80 -90.833 112 -137.5s58.333 -87.334 79 -122.001c7.33301 -12.667 14 -23.667 20 -33l12.5 -18.5c3.66699 -5.66699 6.5 -9.83398 8.5 -12.501c25.333 -22.667 48 -39.334 68 -50.001s39.333 -16.667 58 -18c23.333 -2 47.333 -3 72 -3h58v-557h-58
c-49.333 0 -105.333 4.66699 -168 14c-56 8.66699 -113.333 26.334 -172 53.001c-22 -14.667 -47.333 -28 -76 -40c-43.333 -18 -94.333 -27 -153 -27h-1411c-41.333 0.666992 -78 1.33398 -110 2.00098c-59.333 2 -110 6.33301 -152 13
c-128.667 20.667 -227 83.334 -295 188.001l-1 1l-1 2c-54 100 -81 215.333 -81 346c0 30.667 1.66699 62.667 5 96v3c16.667 104 36.667 191.667 60 263l18 55l481 -142v-1c-1.33301 -4.66699 -4.33301 -17.667 -9 -39l-22.5 -94l-21.5 -92.5
c-6 -26.333 -9.33301 -41.166 -10 -44.499z" />
    <glyph glyph-name="uni06AF" unicode="&#x6af;" horiz-adv-x="2061" arabic-form="isolated" 
d="M809 -97c-92.667 0 -167.836 0.666992 -225.503 2s-107.5 5.33301 -149.5 12c-124 20 -222 85.333 -294 196c-40 62 -64 124.833 -72 188.5s-12 116.5 -12 158.5c0 34 2 67 6 99c4.66699 39.333 13 83.666 25 132.999s23.667 93 35 131l16 56l483 -142l-11 -45
c0 -2.66699 -4.83301 -24 -14.5 -64s-20.167 -86.333 -31.5 -139l-1 -1c-3.33301 -14 -5 -23.667 -5 -29h807c-64 66.667 -129.667 129.167 -197 187.5l-170.5 143c-46.333 37 -70.833 56.5 -73.5 58.5l-24 16l49 403l901 409l210 -461l-537 -244l150 -152l1 -1l49 -52
c32.667 -33.333 61.334 -65 86.001 -95s45.334 -62.333 62.001 -97c36 -79.333 54 -156.666 54 -231.999c0 -58.667 -11 -116.334 -33 -173.001c-15.333 -38.667 -43 -79.167 -83 -121.5s-98 -77.166 -174 -104.499c-77.333 -26.667 -176.666 -40 -297.999 -40h-528z
M953.668 1342.5l13.5342 145.25l769.355 356.988l54.1357 -114.563z" />
    <glyph glyph-name="uni06B5.init" unicode="&#x6b5;" horiz-adv-x="726" 
d="M-15 -98v556h134v1032h506l1 -1052c-7.33301 -100 -20 -168.667 -38 -206v-1c-27.333 -68 -68.333 -128.333 -123 -181c-107.333 -98 -241 -147.333 -401 -148h-79zM647 2022l-231 -413h-131l-234 413h171l126 -253l130 253h169z" />
    <glyph glyph-name="uni06B5.medi" unicode="&#x6b5;" horiz-adv-x="702" 
d="M627 458h90v-556h-49c-73.333 0 -142 12 -206 36c-32 11.333 -61.667 25.333 -89 42c-90 -52 -193 -78 -309 -78h-79v556h134v1031h507zM681 2013l-231 -413h-131l-234 413h171l126 -253l130 253h169z" />
    <glyph glyph-name="uni06B5.fina" unicode="&#x6b5;" horiz-adv-x="1562" 
d="M1469 1487l0.000976562 -1029h108v-556h-49c-23.333 0 -46 1.33301 -68 4c-18.667 -151.333 -66.667 -268.333 -144 -351c-64.667 -68 -149.334 -118 -254.001 -150c-86.667 -27.333 -193 -41 -319 -41c-125.333 0 -237.166 25.167 -335.499 75.5
s-177.833 123.166 -238.5 218.499c-26.667 41.333 -47.334 84.5 -62.001 129.5s-25.334 81.167 -32.001 108.5v1c-14 58.667 -21 117.667 -21 177c0 12 0.333008 24 1 36c5.33301 146 46.333 299 123 459l20 44l458 -215l-20 -44c-46.667 -101.333 -71.667 -189 -75 -263
v-10c0 -44 8 -78.667 24 -104c18.667 -26 44 -42.833 76 -50.5s59.333 -11.5 82 -11.5c36 0 71.333 1.66699 106 5s61.334 10.666 80.001 21.999c8.66699 5.33301 16.5 16.166 23.5 32.499s10.5 45.166 10.5 86.499v1426h506zM1516 2008l-231 -413h-131l-234 413h171
l126 -253l130 253h169z" />
    <glyph glyph-name="uni06BA" unicode="&#x6ba;" horiz-adv-x="1662" arabic-form="isolated" 
d="M776 -636c-236 0 -419.333 69.0029 -550 207.003c-61.333 68 -105.333 139.5 -132 214.5s-42.667 144.833 -48 209.5c-3.33301 40 -5 75 -5 105c0 18 0.666992 34.333 2 49c10 158 58 332 144 522l20 45l463 -208l-20 -45c-61.333 -135.333 -95 -250.333 -101 -345v-5
c-0.666992 -8.66699 -1 -18 -1 -28c0 -12.667 1 -28.834 3 -48.501s12.333 -40.167 31 -61.5c35.333 -38 100 -57 194 -57h118c63.333 0 109.833 5 139.5 15s49.5 20.667 59.5 32c16 17.333 24 41.666 24 72.999c0 5.33301 -0.333008 11 -1 17v718h506v-710
c0 -260 -84.667 -450 -254 -570c-51.333 -35.333 -105 -62.333 -161 -81s-111.167 -31.334 -165.5 -38.001s-103.5 -10 -147.5 -10h-118z" />
    <glyph glyph-name="uni06BE" unicode="&#x6be;" horiz-adv-x="2181" arabic-form="isolated" 
d="M2074 551c21.333 -64.667 32.001 -125.332 32.001 -181.999c0 -42.667 -6 -83 -18 -121c-17.333 -60.667 -50.333 -118.667 -99 -174c-49.333 -56.667 -118.333 -101.667 -207 -135c-74.667 -28 -165 -42 -271 -42c-18.667 0 -38 0.333008 -58 1h-1
c-166 10 -295.333 21.667 -388 35l-126 19c-66 -18 -132.667 -30.667 -200 -38c-72 -10.667 -142.667 -16 -212 -16c-166.667 0 -325.334 30.333 -476.001 91l166 525l151 -56c-3.33301 26.667 -5.33301 54 -6 82c0 160 53.333 299 160 417c110 118.667 248 178 414 178
c109.333 0 207.333 -26.667 294 -80l218 221l26 -24l62.5 -61l72.5 -70.5l59 -56.5l158 -154c128.667 -128.667 211.667 -248.334 249 -359.001zM936.001 410.002c2 0 10 2 24 6s29.833 11.333 47.5 22s33.5 25.334 47.5 44.001s21 42.667 21 72
c0 48 -14.333 86.167 -43 114.5s-61 42.5 -97 42.5c-16 0 -35.5 -4.33301 -58.5 -13s-43.167 -24.334 -60.5 -47.001s-26 -55 -26 -97c0 -24.667 7.16699 -46 21.5 -64s30.833 -32.833 49.5 -44.5s35.167 -20.5 49.5 -26.5s22.5 -9 24.5 -9zM1640 429.002
c0.666992 2.66699 1 5 1 7c0 28 -21 62.167 -63 102.5s-91.667 83.166 -149 128.499c-2.66699 2.66699 -5.66699 5.33398 -9 8.00098c20 -49.333 30 -97 30 -143c0 -2 -0.333008 -15.167 -1 -39.5s-8.66699 -57.833 -24 -100.5c31.333 -14 63.333 -21 96 -21
c12 0 32.5 2.33301 61.5 7s48.167 21.667 57.5 51z" />
    <glyph glyph-name="uni06C0" unicode="&#x6c0;" horiz-adv-x="1155" arabic-form="isolated" 
d="M908 888c30.667 -33.333 61.833 -71 93.5 -113s58.5 -89.5 80.5 -142.5s33 -112.5 33 -178.5c0 -66.667 -9.5 -132.834 -28.5 -198.501s-49.5 -125.167 -91.5 -178.5s-97.333 -96.166 -166 -128.499s-152.334 -48.5 -251.001 -48.5c-88 0 -163 11.667 -225 35
s-113.5 54.166 -154.5 92.499s-73 80.333 -96 126s-39.167 91.334 -48.5 137.001s-14 87.167 -14 124.5c0 55.333 10.167 109.5 30.5 162.5s43.833 100.5 70.5 142.5s50.334 75.833 71.001 101.5s32 39.167 34 40.5l-17.5 19.5l-21 23c-7 7.66699 -12.833 14.5 -17.5 20.5
l-7 8l377 336l42 -47l101.5 -111l116 -127zM571.999 349c32.667 0 59 10.1699 79 30.5029s30 48.833 30 85.5c0 12 -5.83301 26.667 -17.5 44s-25 34.166 -40 50.499l-39.5 41.5l-17 17l-16 -16c-10.667 -10 -23 -22.833 -37 -38.5s-26.333 -32.334 -37 -50.001
s-16 -33.834 -16 -48.501c0 -36.667 10.5 -65.167 31.5 -85.5s47.5 -30.5 79.5 -30.5zM619.999 1891c31.333 0 63.332 -4.33301 95.999 -13l-36 -138c-19.333 5.33301 -39 8 -59 8c-14 0 -27.5 -1.83301 -40.5 -5.5s-25.167 -10.167 -36.5 -19.5
c-18 -15.333 -30.333 -37 -37 -65c62.667 -10.667 105 -18.667 127 -24c24 -5.33301 41.667 -12.333 53 -21c24.667 -17.333 37 -40.666 37 -69.999c0 -12.667 -1.66699 -31.834 -5 -57.501s-14 -52.5 -32 -80.5c-42.667 -60.667 -115 -91 -217 -91h-109v143h109
c14.667 0 32.334 1.83301 53.001 5.5s36 11.834 46 24.501c3.33301 4.66699 5.33301 9 6 13c-29.333 6 -69 13 -119 21l-36 6l-55 9l-5 56c-0.666992 9.33301 -1 18.666 -1 27.999c0 85.333 31 156.333 93 213c33.333 28 72.333 46 117 54c17.333 2.66699 34.333 4 51 4z
" />
    <glyph glyph-name="uni06C1" unicode="&#x6c1;" horiz-adv-x="1155" arabic-form="isolated" 
d="M908 888c30.667 -33.333 61.833 -71 93.5 -113s58.5 -89.5 80.5 -142.5s33 -112.5 33 -178.5c0 -66.667 -9.5 -132.834 -28.5 -198.501s-49.5 -125.167 -91.5 -178.5s-97.333 -96.166 -166 -128.499s-152.334 -48.5 -251.001 -48.5c-88 0 -163 11.667 -225 35
s-113.5 54.166 -154.5 92.499s-73 80.333 -96 126s-39.167 91.334 -48.5 137.001s-14 87.167 -14 124.5c0 55.333 10.167 109.5 30.5 162.5s43.833 100.5 70.5 142.5s50.334 75.833 71.001 101.5s32 39.167 34 40.5l-17.5 19.5l-21 23c-7 7.66699 -12.833 14.5 -17.5 20.5
l-7 8l377 336l42 -47l101.5 -111l116 -127zM571.999 349c32.667 0 59 10.1699 79 30.5029s30 48.833 30 85.5c0 12 -5.83301 26.667 -17.5 44s-25 34.166 -40 50.499l-39.5 41.5l-17 17l-16 -16c-10.667 -10 -23 -22.833 -37 -38.5s-26.333 -32.334 -37 -50.001
s-16 -33.834 -16 -48.501c0 -36.667 10.5 -65.167 31.5 -85.5s47.5 -30.5 79.5 -30.5z" />
    <glyph glyph-name="uni06C2.fina" unicode="&#x6c2;" horiz-adv-x="1359" 
d="M1299 -98c-66 0 -132.33 9.16406 -198.997 27.4971s-120.667 42.166 -162 71.499c-77.333 55.333 -134 116.666 -170 183.999c-17.333 32 -35.833 69.167 -55.5 111.5s-35.834 86.166 -48.501 131.499v2c-6 26.667 -11.667 49 -17 67
c-7.33301 26.667 -13.333 49.334 -18 68.001s-9 37 -13 55c-19.333 -7.33301 -33 -15.166 -41 -23.499s-12.833 -16.666 -14.5 -24.999s-2.5 -16.166 -2.5 -23.499c0 -17.333 3.33301 -40 10 -68c13.333 -56 27.166 -110.5 41.499 -163.5s26.833 -97.167 37.5 -132.5l16 -53
l-480 -142l-15 52l-36 120.5l-36 125l-20 71.5c-17.333 68 -26 133.333 -26 196c0 153.333 51.667 285 155 395c86 86 189 142.333 309 169l118 24l104 21l44 8l273 -203l72 -291l30 -116c4 -17.333 10.167 -33.666 18.5 -48.999s23.166 -28.166 44.499 -38.499
s54 -15.5 98 -15.5h58v-556h-75zM699.003 1296l-499.003 -163.999v160l115 37c-20 20.667 -35.667 43.5 -47 68.5s-17 52.167 -17 81.5c0 45.333 15.5 88.5 46.5 129.5s68.5 68.5 112.5 82.5c22.667 6.66699 46 10 70 10c25.333 0 48.833 -3.33301 70.5 -10
s42.834 -14.334 63.501 -23.001l-32 -133c-40 11.333 -73.667 17 -101 17c-9.33301 0 -17.666 -1 -24.999 -3c-15.333 -4.66699 -29.166 -13.167 -41.499 -25.5s-18.5 -26.5 -18.5 -42.5c0 -6 1 -12.333 3 -19c4.66699 -16.667 16.5 -30.5 35.5 -41.5s45.5 -16.5 79.5 -16.5
c8.66699 0 18.5 0.833008 29.5 2.5s27.833 5.5 50.5 11.5s55 16 97 30z" />
    <glyph glyph-name="uni06C3.fina" unicode="&#x6c3;" horiz-adv-x="1359" 
d="M1299 -98c-66 0 -132.33 9.16406 -198.997 27.4971s-120.667 42.166 -162 71.499c-77.333 55.333 -134 116.666 -170 183.999c-17.333 32 -35.833 69.167 -55.5 111.5s-35.834 86.166 -48.501 131.499v2c-6 26.667 -11.667 49 -17 67
c-7.33301 26.667 -13.333 49.334 -18 68.001s-9 37 -13 55c-19.333 -7.33301 -33 -15.166 -41 -23.499s-12.833 -16.666 -14.5 -24.999s-2.5 -16.166 -2.5 -23.499c0 -17.333 3.33301 -40 10 -68c13.333 -56 27.166 -110.5 41.499 -163.5s26.833 -97.167 37.5 -132.5l16 -53
l-480 -142l-15 52l-36 120.5l-36 125l-20 71.5c-17.333 68 -26 133.333 -26 196c0 153.333 51.667 285 155 395c86 86 189 142.333 309 169l118 24l104 21l44 8l273 -203l72 -291l30 -116c4 -17.333 10.167 -33.666 18.5 -48.999s23.166 -28.166 44.499 -38.499
s54 -15.5 98 -15.5h58v-556h-75zM564.003 1521l-220 -219l-219 219l219 220zM1033 1521l-220 -219l-219 219l219 220z" />
    <glyph glyph-name="uni06C6.fina" unicode="&#x6c6;" horiz-adv-x="1227" arabic-form="final" 
d="M560 405l155 0.00292969v96c0 31.333 -11.333 57.666 -34 78.999c-22.667 20.667 -50.667 31 -84 31c-32.667 0 -60 -10.667 -82 -32s-33 -47.333 -33 -78c0 -16.667 1.66699 -32.334 5 -47.001c4 -14.667 11.333 -26.334 22 -35.001c11.333 -9.33301 28.333 -14 51 -14z
M1155 458.003l87 -0.00195312v-556h-100c-6.66699 -38.667 -16.667 -74.334 -30 -107.001c-28 -72 -63.667 -133 -107 -183c-42 -48.667 -84.667 -89.667 -128 -123l-2 -2c-26 -18 -61.333 -37 -106 -57c-45.333 -20 -109 -36.333 -191 -49
c-70 -11.333 -159.333 -17 -268 -17h-159v552h1c4.66699 0 28.667 0.333008 72 1h496c1.33301 0 3.33301 0.833008 6 2.5s4 4.16699 4 7.5s-1.33301 5.83301 -4 7.5s-4.66699 2.5 -6 2.5c-56 0 -114 2.66699 -174 8s-117.833 16.5 -173.5 33.5s-105.5 43.333 -149.5 79
s-79.167 83.334 -105.5 143.001s-39.5 134.834 -39.5 225.501c0 116.667 16.5 214.5 49.5 293.5s75.5 142.333 127.5 190s108 81.834 168 102.501s117 31 171 31c156 0 290.667 -59 404 -177v-1h1c98 -112 150 -247.667 156 -407zM923 1536l-231 -413h-131l-234 413h171
l126 -253l130 253h169z" />
    <glyph glyph-name="uni06CC" unicode="&#x6cc;" horiz-adv-x="1831" arabic-form="isolated" 
d="M750 -636c-92.667 0 -173.168 12.334 -241.501 37.001s-126.333 55.167 -174 91.5s-86.5 73.166 -116.5 110.499c-53.333 65.333 -94.666 139.833 -123.999 223.5s-44 169.167 -44 256.5c0 92 8 176.333 24 253s36.5 147.834 61.5 213.501s52.167 127.5 81.5 185.5l22 43
l454 -222l-21 -44c-76.667 -152.667 -115 -282.334 -115 -389.001c0 -57.333 8 -101 24 -131s38.667 -50.333 68 -61s64 -16 104 -16h396c31.333 0 57 2.16699 77 6.5s35.667 9.5 47 15.5c-46 12 -107.333 26.667 -184 44c-90 20.667 -170.333 40 -241 58l-26 7l-8 26
c-2.66699 4.66699 -9.33398 31 -20.001 79s-18 108.333 -22 181c-0.666992 15.333 -1 30.666 -1 45.999c0 58 6.66699 118 20 180c4 22.667 19.333 64.334 46 125.001s72 125.334 136 194.001c140.667 138.667 318 208 532 208c40 0 79.5 -3.66699 118.5 -11
s75.833 -15.333 110.5 -24l47 -13l-130 -494l-49 17c-46 16 -88.333 24 -127 24c-107.333 0 -177.666 -53.333 -210.999 -160l118 -32c78 -20 140.333 -37.333 187 -52c126 -41.333 189 -136 189 -284v-2c-2 -262.667 -81.667 -452.334 -239 -569.001
c-46 -33.333 -93.667 -58.833 -143 -76.5s-97.5 -29.5 -144.5 -35.5s-89.833 -9 -128.5 -9h-353z" />
    <glyph glyph-name="uni06CE.init" unicode="&#x6ce;" horiz-adv-x="1007" 
d="M-20 -98v556h458c-0.666992 2.66699 -4 19.5 -10 50.5l-21 108l-21 109.5l-9 48l490 149l11 -57l26 -140l29 -161c10.667 -56 16 -107.667 16 -155c0 -24 -1.33301 -46.667 -4 -68c-5.33301 -42.667 -16 -88 -32 -136s-37.667 -89.667 -65 -125
c-61.333 -73.333 -130.333 -123 -207 -149l-1 -1c-62 -19.333 -134 -29 -216 -29h-444zM218 -125l220 -219l-220 -220l-219 220zM687 -125l220 -219l-220 -220l-219 220zM705 1437l-231 -413h-131l-234 413h171l126 -253l130 253h169z" />
    <glyph glyph-name="uni06CE.medi" unicode="&#x6ce;" horiz-adv-x="1038" 
d="M935 -98c-101.333 0 -194.333 23 -279 69c-22.667 -11.333 -45.667 -21.333 -69 -30c-72.667 -26 -154 -39 -244 -39h-358v556h417v315h507v-315h144v-556h-118zM262 -117l220 -219l-220 -220l-219 220zM731 -117l220 -219l-220 -220l-219 220zM941 1269l-231 -413h-131
l-234 413h171l126 -253l130 253h169z" />
    <glyph glyph-name="uni06CE.fina" unicode="&#x6ce;" horiz-adv-x="1939" 
d="M786 -637c-235.333 0 -422.334 82.665 -561.001 247.998c-116.667 150 -175 326.667 -175 530c0 89.333 14.5 187 43.5 293s68.5 205.333 118.5 298l22 41l453 -219l-22 -44c-70 -142.667 -105 -265.667 -105 -369c0.666992 -152 76 -228 226 -228h266
c15.333 0 39.333 0.166992 72 0.5s64.334 0.833008 95.001 1.5s52 1.33398 64 2.00098c-58.667 18.667 -114.667 32.167 -168 40.5s-96 13.833 -128 16.5l-48 4v480h1015v-556h-178v-10c0 -116 -28 -213.667 -84 -293c-48 -67.333 -115 -120.666 -201 -159.999
c-112 -50.667 -259.667 -76 -443 -76h-262zM1235 1039l-231 -413h-131l-234 413h171l126 -253l130 253h169z" />
    <glyph glyph-name="uni06D2" unicode="&#x6d2;" horiz-adv-x="1724" arabic-form="isolated" 
d="M600 -656c-150.667 0 -280.999 50.999 -390.999 152.999c-106 103.333 -159 254 -159 452c0 65.333 6.83301 121.5 20.5 168.5s32.667 88.5 57 124.5s52.833 69.333 85.5 100c110.667 100.667 239.667 151 387 151h342v-544h-407c-12 0 -19.667 -4 -23 -12
s-5 -14.667 -5 -20s1 -10.666 3 -15.999c5.33301 -10.667 13.666 -16 24.999 -16h1149v-541h-1084z" />
    <glyph glyph-name="uni06D3" unicode="&#x6d3;" horiz-adv-x="1724" arabic-form="isolated" 
d="M600 -656c-150.667 0 -280.999 50.999 -390.999 152.999c-106 103.333 -159 254 -159 452c0 65.333 6.83301 121.5 20.5 168.5s32.667 88.5 57 124.5s52.833 69.333 85.5 100c110.667 100.667 239.667 151 387 151h342v-544h-407c-12 0 -19.667 -4 -23 -12
s-5 -14.667 -5 -20s1 -10.666 3 -15.999c5.33301 -10.667 13.666 -16 24.999 -16h1149v-541h-1084zM676.001 685.999l-499.003 -163.999v160l115 37c-20 20.667 -35.667 43.5 -47 68.5s-17 52.167 -17 81.5c0 45.333 15.5 88.5 46.5 129.5s68.5 68.5 112.5 82.5
c22.667 6.66699 46 10 70 10c25.333 0 48.833 -3.33301 70.5 -10s42.834 -14.334 63.501 -23.001l-32 -133c-40 11.333 -73.667 17 -101 17c-9.33301 0 -17.666 -1 -24.999 -3c-15.333 -4.66699 -29.166 -13.167 -41.499 -25.5s-18.5 -26.5 -18.5 -42.5
c0 -6 1 -12.333 3 -19c4.66699 -16.667 16.5 -30.5 35.5 -41.5s45.5 -16.5 79.5 -16.5c8.66699 0 18.5 0.833008 29.5 2.5s27.833 5.5 50.5 11.5s55 16 97 30z" />
    <glyph glyph-name="uni0671.fina" unicode="&#x671;" horiz-adv-x="695" arabic-form="final" 
d="M625 -99c-64 0 -120.333 7.49707 -169 22.4971s-90.334 33.5 -125.001 55.5s-63 44 -85 66c-23.333 22 -46 50.333 -68 85s-40.5 76.334 -55.5 125.001s-22.5 105.334 -22.5 170.001v231.5c0 113.667 0.166992 234.167 0.5 361.5s0.5 212 0.5 254h506v-799
c0 -4.66699 1.16699 -8.16699 3.5 -10.5s4.83301 -3.66602 7.5 -3.99902s4.33398 -0.5 5.00098 -0.5h91v-557h-89zM500 1410h-481l26 119h133l43 66l83 122c24 35.333 53.333 63.333 88 84s72.334 31 113.001 31c31.333 0 61.833 -8 91.5 -24s54.167 -40.5 73.5 -73.5
s29 -74.833 29 -125.5c0 -49.333 -10.333 -88.5 -31 -117.5s-46.334 -49.833 -77.001 -62.5s-61 -19 -91 -19zM505 1713c-21.333 0 -43 -9.5 -65 -28.5s-43.333 -42.5 -64 -70.5s-39.667 -56.333 -57 -85h181c22.667 0 41.5 6.33301 56.5 19s22.5 33 22.5 61
c0 68 -24.667 102.667 -74 104z" />
    <glyph glyph-name="uni067E.fina" unicode="&#x67e;" horiz-adv-x="2234" arabic-form="final" 
d="M2099 458l154.998 -0.00292969v-556c-120 0 -206.333 2.83301 -259 8.5s-94.667 20.834 -126 45.501c-37.333 -19.333 -75.666 -33.166 -114.999 -41.499s-79.166 -13.333 -119.499 -15s-80.5 -2.5 -120.5 -2.5h-703c-93.333 0 -168.666 0.666992 -225.999 2
s-107.333 5.66602 -150 12.999c-128.667 20.667 -226.667 83 -294 187c-40 64 -65 137 -75 219c-6 45.333 -9 89 -9 131c0 34 2 66.667 6 98c3.33301 26.667 9 57.834 17 93.501s16.667 70.834 26 105.501s17.666 63.667 24.999 87l10 35l482 -142l-64 -274h1034v324h506
v-318zM1282 -681.003l-201 -201l-200 201l200 200zM1036 -371.003l-220 -220l-219 220l219 219zM1555 -371.003l-220 -220l-219 220l219 219z" />
    <glyph glyph-name="uni067E.init" unicode="&#x67e;" horiz-adv-x="1007" arabic-form="initial" 
d="M-20 -98v556h458c-0.666992 2.66699 -4 19.5 -10 50.5l-21 108l-21 109.5l-9 48l490 149l11 -57l26 -140l29 -161c10.667 -56 16 -107.667 16 -155c0 -24 -1.33301 -46.667 -4 -68c-5.33301 -42.667 -16 -88 -32 -136s-37.667 -89.667 -65 -125
c-61.333 -73.333 -130.333 -123 -207 -149l-1 -1c-62 -19.333 -134 -29 -216 -29h-444zM687 -684l-201 -201l-200 201l200 200zM441 -374l-220 -220l-219 220l219 219zM960 -374l-220 -220l-219 220l219 219z" />
    <glyph glyph-name="uni067E.medi" unicode="&#x67e;" horiz-adv-x="1038" arabic-form="medial" 
d="M935 -98c-101.333 0 -194.333 23 -279 69c-22.667 -11.333 -45.667 -21.333 -69 -30c-72.667 -26 -154 -39 -244 -39h-358v556h417v315h507v-315h144v-556h-118zM706 -689l-201 -201l-200 201l200 200zM460 -379l-220 -220l-219 220l219 219zM979 -379l-220 -220
l-219 220l219 219z" />
    <glyph glyph-name="uni0679.fina" unicode="&#x679;" horiz-adv-x="2234" arabic-form="final" 
d="M2099 458l154.998 -0.00292969v-556c-120 0 -206.333 2.83301 -259 8.5s-94.667 20.834 -126 45.501c-37.333 -19.333 -75.666 -33.166 -114.999 -41.499s-79.166 -13.333 -119.499 -15s-80.5 -2.5 -120.5 -2.5h-703c-93.333 0 -168.666 0.666992 -225.999 2
s-107.333 5.66602 -150 12.999c-128.667 20.667 -226.667 83 -294 187c-40 64 -65 137 -75 219c-6 45.333 -9 89 -9 131c0 34 2 66.667 6 98c3.33301 26.667 9 57.834 17 93.501s16.667 70.834 26 105.501s17.666 63.667 24.999 87l10 35l482 -142l-64 -274h1034v324h506
v-318zM1232 662.997l-422.997 -0.000976562v119h100c2 2 3.5 3.66699 4.5 5s1.66699 2.33301 2 3s0.833008 1.33398 1.5 2.00098c0 1.33301 0.666992 3 2 5s3 4.33301 5 7c5.33301 8.66699 14 21.667 26 39v487h117v-331c23.333 24 49.166 43.333 77.499 58
s59.166 22 92.499 22c31.333 0 61.833 -7.33301 91.5 -22s54.167 -38 73.5 -70s29 -73.667 29 -125c0 -49.333 -10.333 -88.5 -31 -117.5s-46.334 -49.833 -77.001 -62.5s-61 -19 -91 -19zM1237 959.996c-21.333 0 -42.833 -8.83301 -64.5 -26.5s-42.667 -40 -63 -67
s-39.833 -55.167 -58.5 -84.5h181c22.667 0 42.167 6.33301 58.5 19s24.5 33 24.5 61c0 34 -7 58.833 -21 74.5s-33 23.5 -57 23.5z" />
    <glyph glyph-name="uni0679.init" unicode="&#x679;" horiz-adv-x="1007" arabic-form="initial" 
d="M-20 -98v556h458c-0.666992 2.66699 -4 19.5 -10 50.5l-21 108l-21 109.5l-9 48l490 149l11 -57l26 -140l29 -161c10.667 -56 16 -107.667 16 -155c0 -24 -1.33301 -46.667 -4 -68c-5.33301 -42.667 -16 -88 -32 -136s-37.667 -89.667 -65 -125
c-61.333 -73.333 -130.333 -123 -207 -149l-1 -1c-62 -19.333 -134 -29 -216 -29h-444zM663 993l-422.997 -0.000976562v119h100c2 2 3.5 3.66699 4.5 5s1.66699 2.33301 2 3s0.833008 1.33398 1.5 2.00098c0 1.33301 0.666992 3 2 5s3 4.33301 5 7
c5.33301 8.66699 14 21.667 26 39v487h117v-331c23.333 24 49.166 43.333 77.499 58s59.166 22 92.499 22c31.333 0 61.833 -7.33301 91.5 -22s54.167 -38 73.5 -70s29 -73.667 29 -125c0 -49.333 -10.333 -88.5 -31 -117.5s-46.334 -49.833 -77.001 -62.5s-61 -19 -91 -19z
M668.003 1290c-21.333 0 -42.833 -8.83301 -64.5 -26.5s-42.667 -40 -63 -67s-39.833 -55.167 -58.5 -84.5h181c22.667 0 42.167 6.33301 58.5 19s24.5 33 24.5 61c0 34 -7 58.833 -21 74.5s-33 23.5 -57 23.5z" />
    <glyph glyph-name="uni0679.medi" unicode="&#x679;" horiz-adv-x="1038" arabic-form="medial" 
d="M935 -98c-101.333 0 -194.333 23 -279 69c-22.667 -11.333 -45.667 -21.333 -69 -30c-72.667 -26 -154 -39 -244 -39h-358v556h417v315h507v-315h144v-556h-118zM558 869l-422.997 -0.000976562v119h100c2 2 3.5 3.66699 4.5 5s1.66699 2.33301 2 3
s0.833008 1.33398 1.5 2.00098c0 1.33301 0.666992 3 2 5s3 4.33301 5 7c5.33301 8.66699 14 21.667 26 39v487h117v-331c23.333 24 49.166 43.333 77.499 58s59.166 22 92.499 22c31.333 0 61.833 -7.33301 91.5 -22s54.167 -38 73.5 -70s29 -73.667 29 -125
c0 -49.333 -10.333 -88.5 -31 -117.5s-46.334 -49.833 -77.001 -62.5s-61 -19 -91 -19zM563.003 1166c-21.333 0 -42.833 -8.83301 -64.5 -26.5s-42.667 -40 -63 -67s-39.833 -55.167 -58.5 -84.5h181c22.667 0 42.167 6.33301 58.5 19s24.5 33 24.5 61
c0 34 -7 58.833 -21 74.5s-33 23.5 -57 23.5z" />
    <glyph glyph-name="veh.isol" unicode="&#x6a4;" horiz-adv-x="2174" arabic-form="isolated" 
d="M1682 446v96c0 13.333 -3.33301 28.5 -10 45.5s-18.5 32 -35.5 45s-41.167 19.5 -72.5 19.5c-10.667 0 -25.167 -3 -43.5 -9s-34.833 -17 -49.5 -33s-22 -38.667 -22 -68c0 -39.333 7.5 -65 22.5 -77s37.833 -18 68.5 -18c11.333 0 32 -0.333008 62 -1h80zM941 -98
l-118.999 -0.00195312c-90.667 0 -165 0.666992 -223 2c-59.333 2 -110 6.33301 -152 13c-128.667 20.667 -227 83.334 -295 188.001l-1 1l-1 2c-54 100 -81 215.333 -81 346c0 30.667 1.66699 62.667 5 96v3c16.667 104 36.667 191.667 60 263l18 55l481 -142v-1
c-1.33301 -4.66699 -4.33301 -17.667 -9 -39l-22.5 -94l-21.5 -92.5c-6 -26.333 -9.33301 -41.166 -10 -44.499h464c-0.666992 19.333 -1 38 -1 56c0 117.333 17 216 51 296c34.667 80 79.667 144 135 192c54 46.667 112 80 174 100c60 19.333 116 29 168 29
c156.667 0 291.667 -59 405 -177v-1h1c104.667 -120 157 -266.333 157 -439v-71c0 -103.333 -25.667 -196 -77 -278c-52 -82 -126.667 -146.333 -224 -193c-96.667 -46 -212.334 -69 -347.001 -69zM1755 1717l-201 -200l-200 200l200 201zM1509 1407l-220 -219l-219 219
l219 220zM2028 1407l-220 -219l-219 219l219 220z" />
    <glyph glyph-name="veh.fina" unicode="&#x6a4;" horiz-adv-x="2263" arabic-form="final" 
d="M1598 418c4 0.666992 13.002 3.33398 27.002 8.00098s29.333 12.167 46 22.5s31.167 24 43.5 41s18.5 37.833 18.5 62.5c0 8 -1.66699 20 -5 36s-9.83301 32.5 -19.5 49.5s-23.334 31.5 -41.001 43.5s-40.834 18 -69.501 18c-29.333 0 -52.833 -6 -70.5 -18
s-31.167 -26.5 -40.5 -43.5s-15.666 -33.5 -18.999 -49.5s-5 -28 -5 -36c0 -25.333 6.16699 -46.5 18.5 -63.5s26.666 -30.5 42.999 -40.5s31.5 -17.333 45.5 -22s23.333 -7.33398 28 -8.00098zM822.002 -98c-90.667 0 -165 0.665039 -223 1.99805
c-59.333 2 -110 6.33301 -152 13c-128.667 20.667 -227 83.334 -295 188.001l-1 1l-1 2c-54 100 -81 215.333 -81 346c0 30.667 1.66699 62.667 5 96v3c16.667 104 36.667 191.667 60 263l18 55l481 -142v-1c-1.33301 -4.66699 -4.33301 -17.667 -9 -39l-22.5 -94
l-21.5 -92.5c-6 -26.333 -9.33301 -41.166 -10 -44.499h459c-3.33301 26 -5 53.333 -5 82c0 160 53.333 299 160 417c112.667 118.667 250.667 178 414 178c160 0 297.333 -59.333 412 -178c107.333 -118 161 -257 161 -417c0 -28.667 -2 -56 -6 -82h113v-556h-265
c-75.333 0 -144.333 3.66699 -207 11s-131.667 20 -207 38c-116.667 -32.667 -255.667 -49 -417 -49h-360zM1815 1713l-201 -200l-200 200l200 201zM1569 1403l-220 -219l-219 219l219 220zM2088 1403l-220 -219l-219 219l219 220z" />
    <glyph glyph-name="veh.init" unicode="&#x6a4;" horiz-adv-x="1218" arabic-form="initial" 
d="M1011 953c104.667 -120 156.999 -266.333 156.999 -439v-71c0 -103.333 -25.667 -196 -77 -278c-52 -82 -126.667 -146.333 -224 -193c-96.667 -46 -212.667 -69 -348 -69h-534v555h93c-1.33301 19.333 -2 38 -2 56c0 117.333 17.333 216 52 296s79.334 144 134.001 192
c54.667 46.667 112.667 80 174 100c60.667 19.333 117 29 169 29c156 0 290.667 -59 404 -177l1 -1h1zM725.999 446v96c0 13.333 -3.33301 28.5 -10 45.5s-18.5 32 -35.5 45s-41.167 19.5 -72.5 19.5c-10.667 0 -25.167 -3 -43.5 -9s-34.833 -17 -49.5 -33
s-22 -38.667 -22 -68c0 -39.333 7.5 -65 22.5 -77s37.5 -18 67.5 -18c12 0 33 -0.333008 63 -1h80zM803.999 1717l-201 -200l-200 200l200 201zM557.999 1407l-220 -219l-219 219l219 220zM1077 1407l-220 -219l-219 219l219 220z" />
    <glyph glyph-name="veh.medi" unicode="&#x6a4;" horiz-adv-x="1334" arabic-form="medial" 
d="M1236 458h113v-556h-265c-75.333 0 -144.333 3.66699 -207 11s-131.667 20 -207 38c-116.667 -32.667 -255.667 -49 -417 -49h-268v556h115c-3.33301 26 -5 53.333 -5 82c0 160 53.667 299 161 417c112 118.667 249.667 178 413 178c160.667 0 298 -59.333 412 -178
c107.333 -118 161 -257 161 -417c0 -28.667 -2 -56 -6 -82zM669 418c4 0.666992 13.002 3.33398 27.002 8.00098s29.333 12.167 46 22.5s31.167 24 43.5 41s18.5 37.833 18.5 62.5c0 8 -1.66699 20 -5 36s-9.83301 32.5 -19.5 49.5s-23.334 31.5 -41.001 43.5
s-40.834 18 -69.501 18c-29.333 0 -52.833 -6 -70.5 -18s-31.167 -26.5 -40.5 -43.5s-15.666 -33.5 -18.999 -49.5s-5 -28 -5 -36c0 -25.333 6.16699 -46.5 18.5 -63.5s26.666 -30.5 42.999 -40.5s31.5 -17.333 45.5 -22s23.333 -7.33398 28 -8.00098zM837.002 1719
l-201 -200l-200 200l200 201zM591.002 1409l-220 -219l-219 219l219 220zM1110 1409l-220 -219l-219 219l219 220z" />
    <glyph glyph-name="uni0686.fina" unicode="&#x686;" horiz-adv-x="1899" arabic-form="final" 
d="M1402 -529l-201 -201l-200 201l200 200zM1190 -249l-220 -220l-219 220l219 219zM1662 -249l-220 -220l-219 220l219 219zM1865 458l49.001 0.000976562v-556h-49c-136.667 0 -255.334 32 -356.001 96c-60.667 38.667 -108 94 -142 166l-419 -161l-385 -149l95 -325h239
v-553h-92c-56.667 0 -112.167 1.83301 -166.5 5.5s-106.333 12.667 -156 27s-96.167 36.5 -139.5 66.5c-44.667 34 -84.667 91.333 -120 172s-66.333 171.167 -93 271.5s-48.667 196.5 -66 288.5c-9.33301 45.333 -14 88.666 -14 129.999c0 31.333 4.5 70.833 13.5 118.5
s43 98 102 151s150.167 98.833 273.5 137.5l577 178l-70 17l-162.5 41.5c-61.667 16.333 -118.5 32.5 -170.5 48.5l-54 -101l-449 117c35.333 137.333 102.666 245.333 201.999 324v1c89.333 66.667 186 100 290 100c25.333 0 48.333 -1.66699 69 -5
c30.667 -3.33301 85.334 -19.5 164.001 -48.5s196 -78.167 352 -147.5l146.5 -67.5l117.5 -54.5l47 -22l26 -205c44.667 -16.667 96.5 -31.167 155.5 -43.5s120.833 -18.5 185.5 -18.5z" />
    <glyph glyph-name="uni0686.init" unicode="&#x686;" horiz-adv-x="1632" arabic-form="initial" 
d="M1582 264l-50 -36.9961c-33.333 -24.667 -86.833 -54.834 -160.5 -90.501s-170.667 -71.334 -291 -107.001s-241 -65.834 -362 -90.501s-333.833 -37 -638.5 -37h-95v556h49c96 0 182.667 0.833008 260 2.5s146.5 4 207.5 7s115 6.5 162 10.5s87.667 8.16699 122 12.5
s63.333 8.66602 87 12.999s43 8.5 58 12.5s26.5 7.5 34.5 10.5s13.333 5.5 16 7.5l5 2c-7.33301 2 -32.333 7.33301 -75 16l-144.5 29c-53.667 10.667 -101.167 19.667 -142.5 27l-62 12l-31 -73l-444 125c44.667 163.333 130 282 256 356h1c70 38.667 142 58 216 58
c42 0 83 -6 123 -18l194 -61l275 -88.5l248 -81.5l104 -34zM1005 -683.996l-201 -201l-200 201l200 200zM759 -373.996l-220 -220l-219 220l219 219zM1278 -373.996l-220 -220l-219 220l219 219z" />
    <glyph glyph-name="uni0686.medi" unicode="&#x686;" horiz-adv-x="1665" arabic-form="medial" 
d="M1553 458l125.997 -0.00195312v-556h-49c-76.667 0 -141.167 7.33301 -193.5 22s-94.333 32 -126 52s-55.5 39 -71.5 57s-25.667 30.667 -29 38c-81.333 -29.333 -178.166 -56.666 -290.499 -81.999s-226.666 -46.166 -342.999 -62.499s-282.166 -24.5 -497.499 -24.5
h-94v556h250c94 0 189.833 2 287.5 6s183.167 11 256.5 21s126 21 158 33l48 18c-7.33301 2 -32.333 7.33301 -75 16l-144.5 28.5l-142.5 27.5l-62 12l-31 -73l-444 125c44.667 163.333 130 282 256 356h1c70 38.667 142 58 216 58c42 0 83 -6 123 -18l194 -61l275 -89
l248 -81l104 -34zM963.997 -685.002l-201 -201l-200 201l200 200zM717.997 -375.002l-220 -220l-219 220l219 219zM1237 -375.002l-220 -220l-219 220l219 219z" />
    <glyph glyph-name="uni0688.fina" unicode="&#x688;" horiz-adv-x="1349" arabic-form="final" 
d="M663 -109c-72 0 -146.833 6.66504 -224.5 19.998s-147.334 28 -209.001 44s-106.167 28.333 -133.5 37l-46 14l13 46l135 485l48 -15c40.667 -12.667 104 -29 190 -49s161.667 -30 227 -30h6l-372 547l428 281l104 -156l265 -397c6 -7.33301 11.333 -15.333 16 -24
c6.66699 -10.667 18 -27.667 34 -51s34.333 -48.333 55 -75l27 -33c16.667 -22.667 30 -39.5 40 -50.5s18.833 -18.167 26.5 -21.5s17.834 -5 30.501 -5h41v-556h-97c-95.333 2.66699 -186 34.334 -272 95.001c-18 -13.333 -37.333 -25.666 -58 -36.999
c-84 -46 -175.333 -69 -274 -69zM743 1355l-422.997 -0.000976562v119h100c2 2 3.5 3.66699 4.5 5s1.66699 2.33301 2 3s0.833008 1.33398 1.5 2.00098c0 1.33301 0.666992 3 2 5s3 4.33301 5 7c5.33301 8.66699 14 21.667 26 39v487h117v-331
c23.333 24 49.166 43.333 77.499 58s59.166 22 92.499 22c31.333 0 61.833 -7.33301 91.5 -22s54.167 -38 73.5 -70s29 -73.667 29 -125c0 -49.333 -10.333 -88.5 -31 -117.5s-46.334 -49.833 -77.001 -62.5s-61 -19 -91 -19zM748.003 1652
c-21.333 0 -42.833 -8.83301 -64.5 -26.5s-42.667 -40 -63 -67s-39.833 -55.167 -58.5 -84.5h181c22.667 0 42.167 6.33301 58.5 19s24.5 33 24.5 61c0 34 -7 58.833 -21 74.5s-33 23.5 -57 23.5z" />
    <glyph glyph-name="uni0698.fina" unicode="&#x698;" horiz-adv-x="972" arabic-form="final" 
d="M906 774l-0.000976562 -285.999c0 -3.33301 0.833008 -7.33301 2.5 -12s5 -8.83398 10 -12.501s12.5 -5.5 22.5 -5.5h66v-556h-76c-17.333 0 -35 1 -53 3c-14 -49.333 -33 -101.5 -57 -156.5s-55 -106.167 -93 -153.5l-1 -1c-69.333 -78.667 -155 -137 -257 -175
c-95.333 -36 -203 -54 -323 -54h-147v553h147c96.667 0 163.334 19 200.001 57c34.667 43.333 52 114.333 52 213v586h507zM702.999 1426l-201 -200l-200 200l200 201zM456.999 1116l-220 -219l-219 219l219 220zM975.999 1116l-220 -219l-219 219l219 220z" />
    <glyph glyph-name="uni0691.fina" unicode="&#x691;" horiz-adv-x="972" arabic-form="final" 
d="M906 774l-0.000976562 -285.999c0 -3.33301 0.833008 -7.33301 2.5 -12s5 -8.83398 10 -12.501s12.5 -5.5 22.5 -5.5h66v-556h-76c-17.333 0 -35 1 -53 3c-14 -49.333 -33 -101.5 -57 -156.5s-55 -106.167 -93 -153.5l-1 -1c-69.333 -78.667 -155 -137 -257 -175
c-95.333 -36 -203 -54 -323 -54h-147v553h147c96.667 0 163.334 19 200.001 57c34.667 43.333 52 114.333 52 213v586h507zM699.999 900.001l-422.997 -0.000976562v119h100c2 2 3.5 3.66699 4.5 5s1.66699 2.33301 2 3s0.833008 1.33398 1.5 2.00098
c0 1.33301 0.666992 3 2 5s3 4.33301 5 7c5.33301 8.66699 14 21.667 26 39v487h117v-331c23.333 24 49.166 43.333 77.499 58s59.166 22 92.499 22c31.333 0 61.833 -7.33301 91.5 -22s54.167 -38 73.5 -70s29 -73.667 29 -125c0 -49.333 -10.333 -88.5 -31 -117.5
s-46.334 -49.833 -77.001 -62.5s-61 -19 -91 -19zM705.002 1197c-21.333 0 -42.833 -8.83301 -64.5 -26.5s-42.667 -40 -63 -67s-39.833 -55.167 -58.5 -84.5h181c22.667 0 42.167 6.33301 58.5 19s24.5 33 24.5 61c0 34 -7 58.833 -21 74.5s-33 23.5 -57 23.5z" />
    <glyph glyph-name="uni06A9.fina" unicode="&#x6a9;" horiz-adv-x="2067" arabic-form="final" 
d="M2033 -98c-79.333 0 -152.666 5.49805 -219.999 16.498s-131.666 33.833 -192.999 68.5c-30.667 17.333 -59.667 37.333 -87 60c-32.667 -29.333 -69.667 -54.666 -111 -75.999l-1 -1c-90.667 -45.333 -187 -68 -289 -68h-306c-92.667 0 -167.834 0.666992 -225.501 2
s-107.5 5.66602 -149.5 12.999c-128.667 20.667 -226.667 82.667 -294 186c-56 84.667 -84 194 -84 328c0 38 2.33301 77.667 7 119c3.33301 26.667 9 57.834 17 93.501s16.5 70.834 25.5 105.501s16.833 63.667 23.5 87l10 35l484 -143l-68 -270l667 1l-349 427l82 358
l885 434l221 -456l-579 -286l107 -139.5l127 -166.5c64.667 -88 111.667 -139 141 -153c14.667 -8.66699 33.667 -14 57 -16s57.666 -3 102.999 -3h48v-556h-49z" />
    <glyph glyph-name="uni06A9.init" unicode="&#x6a9;" horiz-adv-x="1239" arabic-form="initial" 
d="M-15 -98v556.002h558c-42 43.333 -86.333 86.333 -133 129c-74.667 67.333 -141.334 124.666 -200.001 171.999l-92 72l-39 29l48 404l901 410l211 -462l-537 -244c0.666992 -1.33301 1.66699 -2.33301 3 -3l147 -150l28 -29l1 -1c37.333 -38.667 70 -74.667 98 -108
c29.333 -34.667 53 -71.334 71 -110.001h1c24 -52 39 -100 45 -144c4.66699 -32.667 7 -64 7 -94c0 -9.33301 -0.333008 -19 -1 -29c-2 -40.667 -12.333 -85.334 -31 -134.001c-15.333 -39.333 -43 -79.333 -83 -120c-40 -41.333 -97.667 -75.666 -173 -102.999l-1 -1
c-79.333 -26.667 -178.666 -40 -297.999 -40h-531z" />
    <glyph glyph-name="uni06A9.medi" unicode="&#x6a9;" horiz-adv-x="1308" arabic-form="medial" 
d="M1274 -98c-78.667 0 -151.831 5.49902 -219.498 16.499s-132.5 33.5 -194.5 67.5l-1 1c-30.667 18.667 -59 38.667 -85 60c-33.333 -29.333 -70.333 -54.666 -111 -75.999c-89.333 -46 -186.333 -69 -291 -69h-387v556h357c45.333 0 88 3.66699 128 11l-85 113l-255 307
l82 357l884 434l220 -455l-577 -287l108 -140.5l125 -164.5c64 -88 111 -140 141 -156c15.333 -8.66699 34.666 -14 57.999 -16s57.666 -3 102.999 -3h49v-556h-49z" />
    <glyph glyph-name="uni06AF.fina" unicode="&#x6af;" horiz-adv-x="2067" arabic-form="final" 
d="M2042 -98c-79.333 0 -152.666 5.49805 -219.999 16.498s-131.666 33.833 -192.999 68.5c-30.667 17.333 -59.667 37.333 -87 60c-32.667 -29.333 -69.667 -54.666 -111 -75.999l-1 -1c-90.667 -45.333 -187 -68 -289 -68h-306c-92.667 0 -167.834 0.666992 -225.501 2
s-107.5 5.66602 -149.5 12.999c-128.667 20.667 -226.667 82.667 -294 186c-56 84.667 -84 194 -84 328c0 38 2.33301 77.667 7 119c3.33301 26.667 9 57.834 17 93.501s16.5 70.834 25.5 105.501s16.833 63.667 23.5 87l10 35l484 -143l-68 -270l667 1l-349 427l82 358
l885 434l221 -456l-579 -286l107 -139.5l127 -166.5c64.667 -88 111.667 -139 141 -153c14.667 -8.66699 33.667 -14 57 -16s57.666 -3 102.999 -3h48v-556h-49zM1001 1342l13 142l739 349l52 -112z" />
    <glyph glyph-name="uni06AF.init" unicode="&#x6af;" horiz-adv-x="1239" arabic-form="initial" 
d="M-15 -98v556.002h558c-42 43.333 -86.333 86.333 -133 129c-74.667 67.333 -141.334 124.666 -200.001 171.999l-92 72l-39 29l48 404l901 410l211 -462l-537 -244c0.666992 -1.33301 1.66699 -2.33301 3 -3l147 -150l28 -29l1 -1c37.333 -38.667 70 -74.667 98 -108
c29.333 -34.667 53 -71.334 71 -110.001h1c24 -52 39 -100 45 -144c4.66699 -32.667 7 -64 7 -94c0 -9.33301 -0.333008 -19 -1 -29c-2 -40.667 -12.333 -85.334 -31 -134.001c-15.333 -39.333 -43 -79.333 -83 -120c-40 -41.333 -97.667 -75.666 -173 -102.999l-1 -1
c-79.333 -26.667 -178.666 -40 -297.999 -40h-531zM126 1342l13 142l739 349l52 -112z" />
    <glyph glyph-name="uni06AF.medi" unicode="&#x6af;" horiz-adv-x="1308" arabic-form="medial" 
d="M1284 -98c-78.667 0 -151.831 5.49902 -219.498 16.499s-132.5 33.5 -194.5 67.5l-1 1c-30.667 18.667 -59 38.667 -85 60c-33.333 -29.333 -70.333 -54.666 -111 -75.999c-89.333 -46 -186.333 -69 -291 -69h-387v556h357c45.333 0 88 3.66699 128 11l-85 113l-255 307
l82 357l884 434l220 -455l-577 -287l108 -140.5l125 -164.5c64 -88 111 -140 141 -156c15.333 -8.66699 34.666 -14 57.999 -16s57.666 -3 102.999 -3h49v-556h-49zM227.003 1348l13 142l739 349l52 -112z" />
    <glyph glyph-name="uni06BA.fina" unicode="&#x6ba;" horiz-adv-x="1697" arabic-form="final" 
d="M778 -636c-118.667 0 -221.664 15.998 -308.997 47.998c-86.667 32 -159 75.667 -217 131c-57.333 54 -103 114.667 -137 182c-33.333 66.667 -55 140.334 -65 221.001c-5.33301 50 -8 96.333 -8 139c0 22.667 0.666992 44 2 64c10.667 156 58.667 330 144 522l20 45
l463 -208l-20 -45c-60.667 -134.667 -94 -249.334 -100 -344.001v-6l-1 -3c-0.666992 -7.33301 -1 -16 -1 -26s0.333008 -21.333 1 -34c2 -19.333 9 -39.333 21 -60c10.667 -18.667 31 -35 61 -49c32 -15.333 80.667 -23 146 -23h118c62 0 109.333 5.33301 142 16
c33.333 12.667 52.666 23.334 57.999 32.001c10 12.667 16 25 18 37c2 14.667 3 28.334 3 41.001v729h507v-287c0 -15.333 1.66699 -24 5 -26c2 -3.33301 9 -5 21 -5h72v-553h-72c-10.667 0 -21.334 0.333008 -32.001 1c-5.33301 -54 -19 -106.667 -41 -158
c-31.333 -76 -73.333 -139.667 -126 -191c-52 -50 -110 -89.333 -174 -118c-62.667 -27.333 -127.334 -46.333 -194.001 -57c-66 -10 -128.333 -15 -187 -15h-118z" />
    <glyph glyph-name="uni06C0.fina" unicode="&#x6c0;" horiz-adv-x="1413" arabic-form="final" 
d="M1427 458l-0.00195312 -556h-59c-206.667 0 -367.667 54.333 -483 163c-55.333 -26 -108.666 -42.667 -159.999 -50s-101 -11 -149 -11c-117.333 0 -220.333 32.333 -309 97c-101.333 76 -167.666 189 -198.999 339c-8.66699 38 -13 81.333 -13 130
c0 16 1.16699 45.5 3.5 88.5s23.5 101.5 63.5 175.5c77.333 136 213.333 235 408 297l-14 60l495 113l11 -47l80 -348l14 -64l37 -163.5c11.333 -47.667 24.333 -99.5 39 -155.5c12 -45.333 58.667 -68 140 -68h95zM651.998 456c39.333 24 58.999 57.334 58.999 100.001
c0 1.33301 -0.333008 13.5 -1 36.5s-8 58.167 -22 105.5l-10 37c-53.333 -23.333 -92.166 -40.833 -116.499 -52.5s-41.833 -22.834 -52.5 -33.501c-24.667 -26.667 -37 -56 -37 -88c0 -1.33301 0.166992 -10.5 0.5 -27.5s10.5 -36.833 30.5 -59.5
c12 -12.667 25 -21.667 39 -27s28 -8 42 -8s27 1.83301 39 5.5s21.667 7.5 29 11.5zM894.997 1935c31.333 0 63.332 -4.33301 95.999 -13l-36 -138c-19.333 5.33301 -39 8 -59 8c-14 0 -27.5 -1.83301 -40.5 -5.5s-25.167 -10.167 -36.5 -19.5
c-18 -15.333 -30.333 -37 -37 -65c62.667 -10.667 105 -18.667 127 -24c24 -5.33301 41.667 -12.333 53 -21c24.667 -17.333 37 -40.666 37 -69.999c0 -12.667 -1.66699 -31.834 -5 -57.501s-14 -52.5 -32 -80.5c-42.667 -60.667 -115 -91 -217 -91h-109v143h109
c14.667 0 32.334 1.83301 53.001 5.5s36 11.834 46 24.501c3.33301 4.66699 5.33301 9 6 13c-29.333 6 -69 13 -119 21l-36 6l-55 9l-5 56c-0.666992 9.33301 -1 18.666 -1 27.999c0 85.333 31 156.333 93 213c33.333 28 72.333 46 117 54c17.333 2.66699 34.333 4 51 4z
" />
    <glyph glyph-name="uni06C1.fina" unicode="&#x6c1;" horiz-adv-x="1359" arabic-form="final" 
d="M1299 -98c-66 0 -132.33 9.16406 -198.997 27.4971s-120.667 42.166 -162 71.499c-77.333 55.333 -134 116.666 -170 183.999c-17.333 32 -35.833 69.167 -55.5 111.5s-35.834 86.166 -48.501 131.499v2c-6 26.667 -11.667 49 -17 67
c-7.33301 26.667 -13.333 49.334 -18 68.001s-9 37 -13 55c-19.333 -7.33301 -33 -15.166 -41 -23.499s-12.833 -16.666 -14.5 -24.999s-2.5 -16.166 -2.5 -23.499c0 -17.333 3.33301 -40 10 -68c13.333 -56 27.166 -110.5 41.499 -163.5s26.833 -97.167 37.5 -132.5l16 -53
l-480 -142l-15 52l-36 120.5l-36 125l-20 71.5c-17.333 68 -26 133.333 -26 196c0 153.333 51.667 285 155 395c86 86 189 142.333 309 169l118 24l104 21l44 8l273 -203l72 -291l30 -116c4 -17.333 10.167 -33.666 18.5 -48.999s23.166 -28.166 44.499 -38.499
s54 -15.5 98 -15.5h58v-556h-75z" />
    <glyph glyph-name="uni06C1.init" unicode="&#x6c1;" horiz-adv-x="817" arabic-form="initial" 
d="M-15 -98l0.000976562 556.002h263c-0.666992 0 -4 16 -10 48l-21 110l-21 110l-10 48l491 149l11 -57c6.66699 -38.667 15.167 -85.334 25.5 -140.001l29.5 -161c10.667 -54.667 16 -105.334 16 -152.001c0 -25.333 -1.66699 -49.333 -5 -72
c-4.66699 -42 -15 -87 -31 -135s-38 -89.667 -66 -125c-60.667 -73.333 -129.334 -123.333 -206.001 -150h-2c-62 -19.333 -133.667 -29 -215 -29h-249zM349.001 -963.998c-77.333 0 -144.665 25.666 -201.998 76.999c-64.667 62.667 -97 149.334 -97 260.001
c0 56 10 108.667 30 158s44.5 94 73.5 134s58.167 74.333 87.5 103s54 51 74 67l30 23l222 -204l-25 -17c-16.667 -12 -35.334 -27.333 -56.001 -46s-38.334 -38.667 -53.001 -60c52.667 -16.667 96 -47.167 130 -91.5s51 -94.5 51 -150.5c0 -67.333 -27 -127.333 -81 -180
c-56 -48.667 -117.333 -73 -184 -73z" />
    <glyph glyph-name="uni06C1.medi" unicode="&#x6c1;" horiz-adv-x="1301" arabic-form="medial" 
d="M847 -726c-46 0 -97.3301 3.83008 -153.997 11.4971s-114.334 22.334 -173.001 44.001s-115 52.834 -169 93.501c-73.333 57.333 -129.333 128.333 -168 213c-36 78.667 -56.333 167.334 -61 266.001h-136l-1 556h391l235 -234v-31v-90.5
c0 -47.667 0.166992 -95 0.5 -142s0.5 -78.5 0.5 -94.5c9.33301 66 27.166 133.333 53.499 202s63 132.5 110 191.5s105.667 106.833 176 143.5s154.166 55 251.499 55h113v-556h-166c-32 0 -58.167 -11.833 -78.5 -35.5s-30.5 -55.167 -30.5 -94.5
c0 -42 12.333 -88 37 -138l12 -25l-217 -335h-26z" />
    <glyph glyph-name="uni06BE.fina" unicode="&#x6be;" horiz-adv-x="2065" arabic-form="final" 
d="M804 410c2 0 10.001 2.16895 24.001 6.50195s29.833 11.666 47.5 21.999s33.5 24.833 47.5 43.5s21 42.667 21 72c0 48 -14.333 86.333 -43 115s-61 43 -97 43c-16 0 -35.5 -4.5 -58.5 -13.5s-43.167 -24.833 -60.5 -47.5s-26 -55 -26 -97
c0 -24.667 7.16699 -45.834 21.5 -63.501s30.666 -32.5 48.999 -44.5s34.833 -21 49.5 -27s23 -9 25 -9zM1508 429.002l1 7c0 28 -21 62.167 -63 102.5s-91.667 83.166 -149 128.499c-3.33301 2.66699 -6.33301 5.33398 -9 8.00098c19.333 -47.333 29 -93.666 29 -138.999
c0 -2.66699 -0.166992 -16.667 -0.5 -42s-8.16602 -59.333 -23.499 -102c31.333 -13.333 63.666 -20 96.999 -20c11.333 0 31.333 2.16699 60 6.5s48 21.166 58 50.499zM1492 -96.998c-35.333 -4 -72.999 -5.99902 -112.999 -5.99902c-19.333 0 -39 0.333008 -59 1
c-166.667 10 -296 21.667 -388 35l-127 19c-66 -18 -132.333 -30.667 -199 -38c-70 -8 -143.333 -12 -220 -12l-336 52v556l185 -52c-4 26.667 -6 54 -6 82c0 160 53 299 159 417h1c110 118.667 247.667 178 413 178c109.333 0 207.666 -26.667 294.999 -80l218 221l26 -24
l62 -61l73 -70.5l59 -56.5l158 -154c128 -128.667 211 -248.334 249 -359.001c10.667 -31.333 18.667 -62 24 -92h114v-556h-588z" />
    <glyph glyph-name="uni06BE.init" unicode="&#x6be;" horiz-adv-x="1915" arabic-form="initial" 
d="M1808 551c21.333 -64.667 32.001 -125.332 32.001 -181.999c0 -42.667 -6 -83 -18 -121c-17.333 -60.667 -50.333 -118.667 -99 -174c-49.333 -56.667 -118.333 -101.667 -207 -135c-74.667 -28 -165 -42 -271 -42c-19.333 0 -39 0.333008 -59 1
c-166.667 10 -296 21.667 -388 35l-127 19c-66 -18 -132.333 -30.667 -199 -38c-70 -8 -143.333 -12 -220 -12h-267v556h116c-4 26.667 -6 54 -6 82c0 160 53 299 159 417h1c110 118.667 247.667 178 413 178c109.333 0 207.666 -26.667 294.999 -80l218 221l26 -24l62 -61
l73 -70.5l59 -56.5l158 -154c128 -128.667 211 -248.334 249 -359.001zM670.001 410.002c2 0 10 2 24 6s29.833 11.333 47.5 22s33.334 25.334 47.001 44.001s20.5 42.667 20.5 72c0 48 -14.167 86.167 -42.5 114.5s-60.5 42.5 -96.5 42.5c-16 0 -35.5 -4.33301 -58.5 -13
s-43.167 -24.334 -60.5 -47.001s-26 -55 -26 -97c0 -24.667 7.16699 -46 21.5 -64s30.666 -32.833 48.999 -44.5s34.833 -20.5 49.5 -26.5s23 -9 25 -9zM1374 429.002l-0.000976562 5.99902c0 28.667 -20.833 63.167 -62.5 103.5s-91.167 83.166 -148.5 128.499
c-3.33301 2.66699 -6.33301 5.33398 -9 8.00098c19.333 -47.333 29 -93.666 29 -138.999c0 -3.33301 -0.166992 -17.5 -0.5 -42.5s-8.16602 -58.833 -23.499 -101.5c31.333 -14 63.333 -21 96 -21c12 0 32.333 2.33301 61 7s48 21.667 58 51z" />
    <glyph glyph-name="uni06BE.medi" unicode="&#x6be;" horiz-adv-x="1333" arabic-form="medial" 
d="M1126 -98c-9.33301 0 -16.6641 -2.99902 -21.9971 -8.99902s-9.33301 -12.333 -12 -19c-2.66699 -8.66699 -4 -18 -4 -28c0 -8.66699 1.83301 -20.334 5.5 -35.001s15.5 -31 35.5 -49l27 -22l-146 -376l-28 -4c-110.667 0 -208.334 12.5 -293.001 37.5
s-158 57.833 -220 98.5s-114.167 85.167 -156.5 133.5s-76.333 96.333 -102 144s-44.5 90.834 -56.5 129.501c-9.33301 -0.666992 -23 -1 -41 -1h-56.5h-50.5h-21v556h138c1.33301 12.667 5.66602 35.5 12.999 68.5s19 72.167 35 117.5s37.333 92 64 140
s60 92.833 100 134.5s88 75.5 144 101.5s121.333 39 196 39c85.333 0 156.833 -12.167 214.5 -36.5s104.667 -54.5 141 -90.5s64.166 -72.333 83.499 -109c22 -40.667 38.333 -80.5 49 -119.5s17.5 -74.167 20.5 -105.5s4.5 -55.333 4.5 -72
c0 -22.667 -1.66699 -45.334 -5 -68.001h165v-556h-222zM710.002 -212.999c-12.667 29.333 -20.001 61.668 -22.001 97.001c-0.666992 12 -1 23.667 -1 35c0 22.667 1.5 47.5 4.5 74.5s6.83301 51.5 11.5 73.5l7 32c-15.333 -7.33301 -35.166 -15.5 -59.499 -24.5
s-47.5 -16.833 -69.5 -23.5s-37.333 -10.667 -46 -12c8.66699 -48.667 32.5 -96.834 71.5 -144.501s73.5 -83.5 103.5 -107.5zM535.001 425.003c52.667 0 100.665 12.668 143.998 38.001s65 55.666 65 90.999c0 31.333 -7.16699 52.833 -21.5 64.5
s-30.166 17.5 -47.499 17.5c-29.333 -0.666992 -53.666 -14.167 -72.999 -40.5s-34.333 -56 -45 -89s-18 -60.167 -22 -81.5z" />
    <glyph glyph-name="uni06D2.fina" unicode="&#x6d2;" horiz-adv-x="1320" arabic-form="final" 
d="M622 -702c-150 0 -280.333 50.666 -391 151.999c-106 103.333 -159 254 -159 452c0 66 6.83301 122.5 20.5 169.5s32.667 88.333 57 124s52.833 68.834 85.5 99.501c108 108.667 237 163 387 163h714v-556h-778c-14.667 0 -24.167 -4 -28.5 -12s-6.5 -14.667 -6.5 -20
c0 -4.66699 1.33301 -9.66699 4 -15c6 -10.667 16.333 -16 31 -16h674v-541h-610z" />
    <glyph glyph-name="uni06D3.fina" unicode="&#x6d3;" horiz-adv-x="1320" arabic-form="final" 
d="M622 -702c-150 0 -280.333 50.666 -391 151.999c-106 103.333 -159 254 -159 452c0 66 6.83301 122.5 20.5 169.5s32.667 88.333 57 124s52.833 68.834 85.5 99.501c108 108.667 237 163 387 163h714v-556h-778c-14.667 0 -24.167 -4 -28.5 -12s-6.5 -14.667 -6.5 -20
c0 -4.66699 1.33301 -9.66699 4 -15c6 -10.667 16.333 -16 31 -16h674v-541h-610zM679 621.999l-499.003 -163.999v160l115 37c-20 20.667 -35.667 43.5 -47 68.5s-17 52.167 -17 81.5c0 45.333 15.5 88.5 46.5 129.5s68.5 68.5 112.5 82.5c22.667 6.66699 46 10 70 10
c25.333 0 48.833 -3.33301 70.5 -10s42.834 -14.334 63.501 -23.001l-32 -133c-40 11.333 -73.667 17 -101 17c-9.33301 0 -17.666 -1 -24.999 -3c-15.333 -4.66699 -29.166 -13.167 -41.499 -25.5s-18.5 -26.5 -18.5 -42.5c0 -6 1 -12.333 3 -19
c4.66699 -16.667 16.5 -30.5 35.5 -41.5s45.5 -16.5 79.5 -16.5c8.66699 0 18.5 0.833008 29.5 2.5s27.833 5.5 50.5 11.5s55 16 97 30z" />
    <glyph glyph-name="uni0649.init" unicode="&#x649;" horiz-adv-x="817" arabic-form="initial" 
d="M-15 -98l0.000976562 556.002h263c-0.666992 0 -4 16 -10 48l-21 110l-21 110l-10 48l491 149l11 -57c6.66699 -38.667 15.167 -85.334 25.5 -140.001l29.5 -161c10.667 -54.667 16 -105.334 16 -152.001c0 -25.333 -1.66699 -49.333 -5 -72
c-4.66699 -42 -15 -87 -31 -135s-38 -89.667 -66 -125c-60.667 -73.333 -129.334 -123.333 -206.001 -150h-2c-62 -19.333 -133.667 -29 -215 -29h-249z" />
    <glyph glyph-name="uni0649.medi" unicode="&#x649;" horiz-adv-x="838" arabic-form="medial" 
d="M765 -98c-101.333 0 -194.333 23 -279 69c-22.667 -11.333 -45.667 -21.333 -69 -30c-72.667 -26 -154 -39 -244 -39h-188v556h247v315h507v-315h114v-556h-88z" />
    <glyph glyph-name="uni06CC.fina" unicode="&#x6cc;" horiz-adv-x="1939" arabic-form="final" 
d="M786 -637c-235.333 0 -422.334 82.665 -561.001 247.998c-116.667 150 -175 326.667 -175 530c0 89.333 14.5 187 43.5 293s68.5 205.333 118.5 298l22 41l453 -219l-22 -44c-70 -142.667 -105 -265.667 -105 -369c0.666992 -152 76 -228 226 -228h266
c15.333 0 39.333 0.166992 72 0.5s64.334 0.833008 95.001 1.5s52 1.33398 64 2.00098c-58.667 18.667 -114.667 32.167 -168 40.5s-96 13.833 -128 16.5l-48 4v480h1015v-556h-178v-10c0 -116 -28 -213.667 -84 -293c-48 -67.333 -115 -120.666 -201 -159.999
c-112 -50.667 -259.667 -76 -443 -76h-262z" />
    <glyph glyph-name="uni06CC.init" unicode="&#x6cc;" horiz-adv-x="1007" arabic-form="initial" 
d="M-20 -98v556h458c-0.666992 2.66699 -4 19.5 -10 50.5l-21 108l-21 109.5l-9 48l490 149l11 -57l26 -140l29 -161c10.667 -56 16 -107.667 16 -155c0 -24 -1.33301 -46.667 -4 -68c-5.33301 -42.667 -16 -88 -32 -136s-37.667 -89.667 -65 -125
c-61.333 -73.333 -130.333 -123 -207 -149l-1 -1c-62 -19.333 -134 -29 -216 -29h-444zM246 -162l220 -219l-220 -220l-219 220zM715 -162l220 -219l-220 -220l-219 220z" />
    <glyph glyph-name="uni06CC.medi" unicode="&#x6cc;" horiz-adv-x="1038" arabic-form="medial" 
d="M935 -98c-101.333 0 -194.333 23 -279 69c-22.667 -11.333 -45.667 -21.333 -69 -30c-72.667 -26 -154 -39 -244 -39h-358v556h417v315h507v-315h144v-556h-118zM253 -158l220 -219l-220 -220l-219 220zM722 -158l220 -219l-220 -220l-219 220z" />
    <glyph glyph-name="uni0651064C" unicode="&#xfc5e;" arabic-form="isolated" 
d="M-130 1604c-62.667 0 -111.998 17.668 -147.998 53.001s-54 84 -54 146v109h125v-109c0 -52.667 25.667 -77.667 77 -75c5.33301 0 13 1.5 23 4.5s19.167 9.83301 27.5 20.5s12.5 27.334 12.5 50.001v109h126v-109c0 -52.667 26 -78 78 -76
c5.33301 0 12.666 1.83301 21.999 5.5s18 11 26 22s12 27.167 12 48.5c0 26.667 -7 63.334 -21 110.001c-2.66699 10 -5.33398 20.667 -8.00098 32l118 40l8 -31c0.666992 -1.33301 1 -3 1 -5c6 -19.333 12 -42 18 -68s9 -52 9 -78c0 -44.667 -9.5 -81.834 -28.5 -111.501
s-42.833 -51.834 -71.5 -66.501s-57.667 -22 -87 -22c-56 0 -102.667 15.333 -140 46c-18 -14.667 -38 -25.834 -60 -33.501s-43.667 -11.5 -65 -11.5zM-212.998 2043l-62.0029 84.999l8 16c8 16 15 31.5 21 46.5s9 29.167 9 42.5c0 10 -2.33301 19.333 -7 28
c-12.667 11.333 -26.334 17 -41.001 17c-12 0 -24.167 -2.66699 -36.5 -8s-23.5 -11.666 -33.5 -19l-79 77c3.33301 4.66699 11.333 12.834 24 24.5c12.667 11.667 29.667 22.667 51 33s46.333 15.5 75 15.5h6c52.667 -5.33301 92.667 -30.666 120 -76
c15.333 -33.333 23 -65.666 23 -96.999c0 -7.33301 -0.333008 -15.5 -1 -24.5s-1.66699 -16.833 -3 -23.5c28.667 6 57.5 15.5 86.5 28.5s52.167 27.5 69.5 43.5c-42.667 20.667 -77.667 48.5 -105 83.5s-41 71.5 -41 109.5c0 20 4.66699 40 14 60
c18 36 44.333 65.833 79 89.5s70.334 35.5 107.001 35.5c24 0 45.667 -4.66699 65 -14c37.333 -18.667 64 -44.667 80 -78s24 -69.333 24 -108c0 -64.667 -21 -127 -63 -187c-41.333 -51.333 -90.166 -91.333 -146.499 -120s-107.666 -49 -153.999 -61
s-76.166 -18.333 -89.499 -19zM70.999 2504c-12.667 0 -27.835 -4 -45.502 -12s-31.5 -18.667 -41.5 -32c6.66699 -25.333 22.334 -46.666 47.001 -64c24.667 -17.333 49.334 -31 74.001 -41c6.66699 10.667 11.5 21.334 14.5 32c3 10.667 4.5 24.667 4.5 42
c0 20.667 -4.83301 38.334 -14.5 53c-9.66699 14.667 -22.5 22 -38.5 22z" />
    <glyph glyph-name="uni0651064D" unicode="&#xfc5f;" arabic-form="isolated" 
d="M-139 2186c-62.667 0 -111.998 17.667 -147.998 53s-54 84 -54 146v109h125v-109c0 -52.667 25.667 -77.667 77 -75c5.33301 0 13 1.5 23 4.5s19.167 9.83301 27.5 20.5s12.5 27.334 12.5 50v109h126v-109c0 -52.667 26 -78 78 -76c5.33301 0 12.666 1.83301 21.999 5.5
s18 11 26 22s12 27.167 12 48.5c0 26.667 -7 63.334 -21 110c-2.66699 10 -5.33398 20.667 -8.00098 32l118 40l8 -31c0.666992 -1.33301 1 -3 1 -5c6 -19.333 12 -42 18 -68s9 -52 9 -78c0 -44.667 -9.5 -81.834 -28.5 -111.5c-19 -29.667 -42.833 -51.834 -71.5 -66.5
c-28.667 -14.667 -57.667 -22 -87 -22c-56 0 -102.667 15.333 -140 46c-18 -14.667 -38 -25.834 -60 -33.5c-22 -7.66699 -43.667 -11.5 -65 -11.5zM-268.998 1600v150l504 187v-147zM-268.998 1842v149l504 188v-148z" />
    <glyph glyph-name="uni0651064E" unicode="&#xfc60;" arabic-form="isolated" 
d="M-130 1604c-62.667 0 -111.998 17.668 -147.998 53.001s-54 84 -54 146v109h125v-109c0 -52.667 25.667 -77.667 77 -75c5.33301 0 13 1.5 23 4.5s19.167 9.83301 27.5 20.5s12.5 27.334 12.5 50.001v109h126v-109c0 -52.667 26 -78 78 -76
c5.33301 0 12.666 1.83301 21.999 5.5s18 11 26 22s12 27.167 12 48.5c0 26.667 -7 63.334 -21 110.001c-2.66699 10 -5.33398 20.667 -8.00098 32l118 40l8 -31c0.666992 -1.33301 1 -3 1 -5c6 -19.333 12 -42 18 -68s9 -52 9 -78c0 -44.667 -9.5 -81.834 -28.5 -111.501
s-42.833 -51.834 -71.5 -66.501s-57.667 -22 -87 -22c-56 0 -102.667 15.333 -140 46c-18 -14.667 -38 -25.834 -60 -33.501s-43.667 -11.5 -65 -11.5zM-292.998 2008v150l504 187v-148z" />
    <glyph glyph-name="uni0651064F" unicode="&#xfc61;" arabic-form="isolated" 
d="M-130 1594c-62.667 0 -111.998 17.668 -147.998 53.001s-54 84 -54 146v109h125v-109c0 -52.667 25.667 -77.667 77 -75c5.33301 0 13 1.5 23 4.5s19.167 9.83301 27.5 20.5s12.5 27.334 12.5 50.001v109h126v-109c0 -52.667 26 -78 78 -76
c5.33301 0 12.666 1.83301 21.999 5.5s18 11 26 22s12 27.167 12 48.5c0 26.667 -7 63.334 -21 110.001c-2.66699 10 -5.33398 20.667 -8.00098 32l118 40l8 -31c0.666992 -1.33301 1 -3 1 -5c6 -19.333 12 -42 18 -68s9 -52 9 -78c0 -44.667 -9.5 -81.834 -28.5 -111.501
s-42.833 -51.834 -71.5 -66.501s-57.667 -22 -87 -22c-56 0 -102.667 15.333 -140 46c-18 -14.667 -38 -25.834 -60 -33.501s-43.667 -11.5 -65 -11.5zM-227.998 1969l-35.998 126.001c44.667 13.333 92.167 29.5 142.5 48.5s94.833 41.5 133.5 67.5
c-46.667 17.333 -85.5 43.833 -116.5 79.5s-46.5 74.5 -46.5 116.5c0 21.333 5 43 15 65c17.333 36 43.833 65.833 79.5 89.5s73.167 35.5 112.5 35.5c22.667 0 45 -5 67 -15c39.333 -20 67.5 -46 84.5 -78s25.5 -66.667 25.5 -104c0 -38.667 -7 -77.334 -21 -116.001
s-32.333 -73.667 -55 -105c-30.667 -40.667 -70.334 -75 -119.001 -103s-96.834 -50.5 -144.501 -67.5s-85.5 -29.5 -113.5 -37.5zM55.0039 2475c-14.667 0 -30.832 -4.16699 -48.499 -12.5s-30.834 -20.166 -39.501 -35.5c-1.33301 -2.66699 -2 -5.33398 -2 -8
c0 -15.333 12.833 -35 38.5 -59s56.167 -39.667 91.5 -47c10.667 22 16 48 16 78c0 19.333 -4.33301 37.5 -13 54.5s-23 26.833 -43 29.5z" />
    <glyph glyph-name="uni06510650" unicode="&#xfc62;" arabic-form="isolated" 
d="M-126 1947c-62.667 0 -111.998 17.6689 -147.998 53.002s-54 84 -54 146v109h125v-109c0 -52.667 25.667 -77.667 77 -75c5.33301 0 13 1.5 23 4.5s19.167 9.83301 27.5 20.5s12.5 27.334 12.5 50v109h126v-109c0 -52.667 26 -78 78 -76
c5.33301 0 12.666 1.83301 21.999 5.5s18 11 26 22s12 27.167 12 48.5c0 26.667 -7 63.334 -21 110c-2.66699 10 -5.33398 20.667 -8.00098 32l118 40l8 -31c0.666992 -1.33301 1 -3 1 -5c6 -19.333 12 -42 18 -68s9 -52 9 -78c0 -44.667 -9.5 -81.834 -28.5 -111.5
c-19 -29.667 -42.833 -51.834 -71.5 -66.501s-57.667 -22 -87 -22c-56 0 -102.667 15.333 -140 46c-18 -14.667 -38 -25.834 -60 -33.501s-43.667 -11.5 -65 -11.5zM-248.998 1599v149l504 188v-148z" />
    <glyph glyph-name="uniFC63" unicode="&#xfc63;" arabic-form="isolated" 
d="M-130 1614c-62.667 0 -111.998 17.668 -147.998 53.001s-54 84 -54 146v109h125v-109c0 -52.667 25.667 -77.667 77 -75c5.33301 0 13 1.5 23 4.5s19.167 9.83301 27.5 20.5s12.5 27.334 12.5 50.001v109h126v-109c0 -52.667 26 -78 78 -76
c5.33301 0 12.666 1.83301 21.999 5.5s18 11 26 22s12 27.167 12 48.5c0 26.667 -7 63.334 -21 110.001c-2.66699 10 -5.33398 20.667 -8.00098 32l118 40l8 -31c0.666992 -1.33301 1 -3 1 -5c6 -19.333 12 -42 18 -68s9 -52 9 -78c0 -44.667 -9.5 -81.834 -28.5 -111.501
s-42.833 -51.834 -71.5 -66.501s-57.667 -22 -87 -22c-56 0 -102.667 15.333 -140 46c-18 -14.667 -38 -25.834 -60 -33.501s-43.667 -11.5 -65 -11.5zM-75.998 2054v408h150v-408h-150z" />
    <glyph glyph-name="fathatan_01" unicode="&#xfe70;" arabic-form="isolated" 
d="M-262 1596v150l504 187v-148zM-262 1838v149l504 187v-147z" />
    <glyph glyph-name="dammatan_01" unicode="&#xfe72;" arabic-form="isolated" 
d="M-213 1594l-62.0029 84.9961l8 16c8 16 15 31.5 21 46.5s9 29.167 9 42.5c0 10 -2.33301 19.333 -7 28c-12.667 11.333 -26.334 17 -41.001 17c-12 0 -24.167 -2.66699 -36.5 -8s-23.5 -11.666 -33.5 -18.999l-79 77c3.33301 4.66699 11.333 12.834 24 24.501
s29.667 22.667 51 33s46.333 15.5 75 15.5h6c52.667 -5.33301 92.667 -30.666 120 -75.999c15.333 -33.333 23 -65.666 23 -96.999c0 -7.33301 -0.333008 -15.5 -1 -24.5s-1.66699 -16.833 -3 -23.5c28.667 6 57.5 15.5 86.5 28.5s52.167 27.5 69.5 43.5
c-42.667 20.667 -77.667 48.5 -105 83.5s-41 71.5 -41 109.5c0 20 4.66699 40 14 60c18 36 44.333 65.833 79 89.5s70.334 35.5 107.001 35.5c24 0 45.667 -4.66699 65 -14c37.333 -18.667 64 -44.667 80 -78s24 -69.333 24 -108c0 -64.667 -21 -127 -63 -187
c-41.333 -51.333 -90.166 -91.333 -146.499 -120s-107.666 -49 -153.999 -61s-76.166 -18.333 -89.499 -19zM70.9971 2055c-12.667 0 -27.835 -4.00293 -45.502 -12.0029s-31.5 -18.667 -41.5 -32c6.66699 -25.333 22.334 -46.666 47.001 -63.999s49.334 -31 74.001 -41
c6.66699 10.667 11.5 21.334 14.5 32.001s4.5 24.667 4.5 42c0 20.667 -4.83301 38.334 -14.5 53.001s-22.5 22 -38.5 22z" />
    <glyph glyph-name="kasratan_01" unicode="&#xfe74;" arabic-form="isolated" 
d="M-252 -826v150l504 187v-147zM-252 -584v149l504 188v-148z" />
    <glyph glyph-name="fatha_01" unicode="&#xfe76;" arabic-form="isolated" 
d="M-251 1596v150l504 187v-148z" />
    <glyph glyph-name="damma_01" unicode="&#xfe78;" arabic-form="isolated" 
d="M-268 1592l-35.998 126.001c44.667 13.333 92.167 29.5 142.5 48.5s94.833 41.5 133.5 67.5c-46.667 17.333 -85.5 43.833 -116.5 79.5s-46.5 74.5 -46.5 116.5c0 21.333 5 43 15 65c17.333 36 43.833 65.833 79.5 89.5s73.167 35.5 112.5 35.5c22.667 0 45 -5 67 -15
c39.333 -20 67.5 -46 84.5 -78s25.5 -66.667 25.5 -104c0 -38.667 -7 -77.334 -21 -116.001s-32.333 -73.667 -55 -105c-30.667 -40.667 -70.334 -75 -119.001 -103s-96.834 -50.5 -144.501 -67.5s-85.5 -29.5 -113.5 -37.5zM15.002 2098
c-14.667 0 -30.832 -4.16602 -48.499 -12.499s-30.834 -20.166 -39.501 -35.5c-1.33301 -2.66699 -2 -5.33398 -2 -8.00098c0 -15.333 12.833 -35 38.5 -59s56.167 -39.667 91.5 -47c10.667 22 16 48 16 78c0 19.333 -4.33301 37.5 -13 54.5s-23 26.833 -43 29.5z" />
    <glyph glyph-name="kasra_01" unicode="&#xfe7a;" arabic-form="isolated" 
d="M-252 -584v149l504 188v-148z" />
    <glyph glyph-name="shadda_01" unicode="&#xfe7c;" arabic-form="isolated" 
d="M-130 1594c-62.667 0 -111.998 17.668 -147.998 53.001s-54 84 -54 146v109h125v-109c0 -52.667 25.667 -77.667 77 -75c5.33301 0 13 1.5 23 4.5s19.167 9.83301 27.5 20.5s12.5 27.334 12.5 50.001v109h126v-109c0 -52.667 26 -78 78 -76
c5.33301 0 12.666 1.83301 21.999 5.5s18 11 26 22s12 27.167 12 48.5c0 26.667 -7 63.334 -21 110.001c-2.66699 10 -5.33398 20.667 -8.00098 32l118 40l8 -31c0.666992 -1.33301 1 -3 1 -5c6 -19.333 12 -42 18 -68s9 -52 9 -78c0 -44.667 -9.5 -81.834 -28.5 -111.501
s-42.833 -51.834 -71.5 -66.501s-57.667 -22 -87 -22c-56 0 -102.667 15.333 -140 46c-18 -14.667 -38 -25.834 -60 -33.501s-43.667 -11.5 -65 -11.5z" />
    <glyph glyph-name="sukun_01" unicode="&#xfe7e;" arabic-form="isolated" 
d="M-2 1594c-72.667 0 -130.834 20.833 -174.501 62.5s-65.5 98.167 -65.5 169.5c0 72.667 21.833 130.167 65.5 172.5s101.834 63.5 174.501 63.5c70 0 128.5 -21.167 175.5 -63.5s70.5 -99.166 70.5 -170.499c0 -70.667 -22.5 -127.334 -67.5 -170.001
s-102.167 -64 -171.5 -64h-7zM-2 1731c28 0 52.167 8.16699 72.5 24.5s30.5 39.833 30.5 70.5s-10.167 55 -30.5 73s-44.5 27 -72.5 27c-28.667 0 -53.334 -8.83301 -74.001 -26.5s-31 -42.167 -31 -73.5c0 -32.667 9.33301 -56.667 28 -72s44.334 -23 77.001 -23z" />
    <glyph glyph-name="uni0622.fina" unicode="&#x622;" horiz-adv-x="849" arabic-form="final" 
d="M771 -99c-64 0 -120.333 7.49707 -169 22.4971s-90.334 33.5 -125.001 55.5s-63 44 -85 66c-23.333 22 -46 50.333 -68 85s-40.5 76.334 -55.5 125.001s-22.5 105.334 -22.5 170.001v231.5c0 113.667 0.166992 234.167 0.5 361.5s0.5 212 0.5 254h506v-799
c0 -4.66699 1.16699 -8.16699 3.5 -10.5s4.83301 -3.66602 7.5 -3.99902s4.33398 -0.5 5.00098 -0.5h91v-557h-89zM-100 1395l9.99902 35c12 45.333 29 89.833 51 133.5s53.667 83.167 95 118.5l1 1c70.667 59.333 176.667 89 318 89h554v-360h-554
c-32 0 -55.667 -3.66699 -71 -11s-26.166 -17 -32.499 -29s-11.5 -25.333 -15.5 -40l-9 -35z" />
    <glyph glyph-name="uni0623.fina" unicode="&#x623;" horiz-adv-x="697" arabic-form="final" 
d="M625 -99c-64 0 -120.333 7.49707 -169 22.4971s-90.334 33.5 -125.001 55.5s-63 44 -85 66c-23.333 22 -46 50.333 -68 85s-40.5 76.334 -55.5 125.001s-22.5 105.334 -22.5 170.001v231.5c0 113.667 0.166992 234.167 0.5 361.5s0.5 212 0.5 254h506v-799
c0 -4.66699 1.16699 -8.16699 3.5 -10.5s4.83301 -3.66602 7.5 -3.99902s4.33398 -0.5 5.00098 -0.5h91v-557h-89zM600 1505l-499.003 -163.999v160l115 37c-20 20.667 -35.667 43.5 -47 68.5s-17 52.167 -17 81.5c0 45.333 15.5 88.5 46.5 129.5s68.5 68.5 112.5 82.5
c22.667 6.66699 46 10 70 10c25.333 0 48.833 -3.33301 70.5 -10s42.834 -14.334 63.501 -23.001l-32 -133c-40 11.333 -73.667 17 -101 17c-9.33301 0 -17.666 -1 -24.999 -3c-15.333 -4.66699 -29.166 -13.167 -41.499 -25.5s-18.5 -26.5 -18.5 -42.5
c0 -6 1 -12.333 3 -19c4.66699 -16.667 16.5 -30.5 35.5 -41.5s45.5 -16.5 79.5 -16.5c8.66699 0 18.5 0.833008 29.5 2.5s27.833 5.5 50.5 11.5s55 16 97 30z" />
    <glyph glyph-name="uni0624.fina" unicode="&#x624;" horiz-adv-x="1227" arabic-form="final" 
d="M560 405l155 0.00292969v96c0 31.333 -11.333 57.666 -34 78.999c-22.667 20.667 -50.667 31 -84 31c-32.667 0 -60 -10.667 -82 -32s-33 -47.333 -33 -78c0 -16.667 1.66699 -32.334 5 -47.001c4 -14.667 11.333 -26.334 22 -35.001c11.333 -9.33301 28.333 -14 51 -14z
M1155 458.003l87 -0.00195312v-556h-100c-6.66699 -38.667 -16.667 -74.334 -30 -107.001c-28 -72 -63.667 -133 -107 -183c-42 -48.667 -84.667 -89.667 -128 -123l-2 -2c-26 -18 -61.333 -37 -106 -57c-45.333 -20 -109 -36.333 -191 -49
c-70 -11.333 -159.333 -17 -268 -17h-159v552h1c4.66699 0 28.667 0.333008 72 1h496c1.33301 0 3.33301 0.833008 6 2.5s4 4.16699 4 7.5s-1.33301 5.83301 -4 7.5s-4.66699 2.5 -6 2.5c-56 0 -114 2.66699 -174 8s-117.833 16.5 -173.5 33.5s-105.5 43.333 -149.5 79
s-79.167 83.334 -105.5 143.001s-39.5 134.834 -39.5 225.501c0 116.667 16.5 214.5 49.5 293.5s75.5 142.333 127.5 190s108 81.834 168 102.501s117 31 171 31c156 0 290.667 -59 404 -177v-1h1c98 -112 150 -247.667 156 -407zM841 1265l-499.003 -163.999v160l115 37
c-20 20.667 -35.667 43.5 -47 68.5s-17 52.167 -17 81.5c0 45.333 15.5 88.5 46.5 129.5s68.5 68.5 112.5 82.5c22.667 6.66699 46 10 70 10c25.333 0 48.833 -3.33301 70.5 -10s42.834 -14.334 63.501 -23.001l-32 -133c-40 11.333 -73.667 17 -101 17
c-9.33301 0 -17.666 -1 -24.999 -3c-15.333 -4.66699 -29.166 -13.167 -41.499 -25.5s-18.5 -26.5 -18.5 -42.5c0 -6 1 -12.333 3 -19c4.66699 -16.667 16.5 -30.5 35.5 -41.5s45.5 -16.5 79.5 -16.5c8.66699 0 18.5 0.833008 29.5 2.5s27.833 5.5 50.5 11.5s55 16 97 30z
" />
    <glyph glyph-name="uni0625.fina" unicode="&#x625;" horiz-adv-x="699" arabic-form="final" 
d="M617 -98c-60.667 0 -114.833 7.33008 -162.5 21.9971s-88.834 33 -123.501 55s-63 44 -85 66c-22.667 22 -45.167 50.333 -67.5 85s-41 76.334 -56 125.001s-22.5 105.334 -22.5 170.001v231.5c0 113.667 0.166992 234.167 0.5 361.5s0.5 284.333 0.5 471h507v-1016
c0 -4.66699 1 -8.16699 3 -10.5s4.33301 -3.66602 7 -3.99902s4.33398 -0.5 5.00098 -0.5h91v-556h-97zM621.001 -567.003l-499.003 -163.999v160l115 37c-20 20.667 -35.667 43.5 -47 68.5s-17 52.167 -17 81.5c0 45.333 15.5 88.5 46.5 129.5s68.5 68.5 112.5 82.5
c22.667 6.66699 46 10 70 10c25.333 0 48.833 -3.33301 70.5 -10s42.834 -14.334 63.501 -23.001l-32 -133c-40 11.333 -73.667 17 -101 17c-9.33301 0 -17.666 -1 -24.999 -3c-15.333 -4.66699 -29.166 -13.167 -41.499 -25.5s-18.5 -26.5 -18.5 -42.5
c0 -6 1 -12.333 3 -19c4.66699 -16.667 16.5 -30.5 35.5 -41.5s45.5 -16.5 79.5 -16.5c8.66699 0 18.5 0.833008 29.5 2.5s27.833 5.5 50.5 11.5s55 16 97 30z" />
    <glyph glyph-name="uni0626.fina" unicode="&#x626;" horiz-adv-x="1939" arabic-form="final" 
d="M786 -637c-235.333 0 -422.334 82.665 -561.001 247.998c-116.667 150 -175 326.667 -175 530c0 89.333 14.5 187 43.5 293s68.5 205.333 118.5 298l22 41l453 -219l-22 -44c-70 -142.667 -105 -265.667 -105 -369c0.666992 -152 76 -228 226 -228h266
c15.333 0 39.333 0.166992 72 0.5s64.334 0.833008 95.001 1.5s52 1.33398 64 2.00098c-58.667 18.667 -114.667 32.167 -168 40.5s-96 13.833 -128 16.5l-48 4v480h1015v-556h-178v-10c0 -116 -28 -213.667 -84 -293c-48 -67.333 -115 -120.666 -201 -159.999
c-112 -50.667 -259.667 -76 -443 -76h-262zM804.999 1007l-499.003 -163.999v160l115 37c-20 20.667 -35.667 43.5 -47 68.5s-17 52.167 -17 81.5c0 45.333 15.5 88.5 46.5 129.5s68.5 68.5 112.5 82.5c22.667 6.66699 46 10 70 10c25.333 0 48.833 -3.33301 70.5 -10
s42.834 -14.334 63.501 -23.001l-32 -133c-40 11.333 -73.667 17 -101 17c-9.33301 0 -17.666 -1 -24.999 -3c-15.333 -4.66699 -29.166 -13.167 -41.499 -25.5s-18.5 -26.5 -18.5 -42.5c0 -6 1 -12.333 3 -19c4.66699 -16.667 16.5 -30.5 35.5 -41.5s45.5 -16.5 79.5 -16.5
c8.66699 0 18.5 0.833008 29.5 2.5s27.833 5.5 50.5 11.5s55 16 97 30z" />
    <glyph glyph-name="uni0626.init" unicode="&#x626;" horiz-adv-x="1007" arabic-form="initial" 
d="M-20 -98v556h458c-0.666992 2.66699 -4 19.5 -10 50.5l-21 108l-21 109.5l-9 48l490 149l11 -57l26 -140l29 -161c10.667 -56 16 -107.667 16 -155c0 -24 -1.33301 -46.667 -4 -68c-5.33301 -42.667 -16 -88 -32 -136s-37.667 -89.667 -65 -125
c-61.333 -73.333 -130.333 -123 -207 -149l-1 -1c-62 -19.333 -134 -29 -216 -29h-444zM600 1030l-499.003 -163.999v160l115 37c-20 20.667 -35.667 43.5 -47 68.5s-17 52.167 -17 81.5c0 45.333 15.5 88.5 46.5 129.5s68.5 68.5 112.5 82.5c22.667 6.66699 46 10 70 10
c25.333 0 48.833 -3.33301 70.5 -10s42.834 -14.334 63.501 -23.001l-32 -133c-40 11.333 -73.667 17 -101 17c-9.33301 0 -17.666 -1 -24.999 -3c-15.333 -4.66699 -29.166 -13.167 -41.499 -25.5s-18.5 -26.5 -18.5 -42.5c0 -6 1 -12.333 3 -19
c4.66699 -16.667 16.5 -30.5 35.5 -41.5s45.5 -16.5 79.5 -16.5c8.66699 0 18.5 0.833008 29.5 2.5s27.833 5.5 50.5 11.5s55 16 97 30z" />
    <glyph glyph-name="uni0626.medi" unicode="&#x626;" horiz-adv-x="1038" arabic-form="medial" 
d="M935 -98c-101.333 0 -194.333 23 -279 69c-22.667 -11.333 -45.667 -21.333 -69 -30c-72.667 -26 -154 -39 -244 -39h-358v556h417v315h507v-315h144v-556h-118zM799 1051l-499.003 -163.999v160l115 37c-20 20.667 -35.667 43.5 -47 68.5s-17 52.167 -17 81.5
c0 45.333 15.5 88.5 46.5 129.5s68.5 68.5 112.5 82.5c22.667 6.66699 46 10 70 10c25.333 0 48.833 -3.33301 70.5 -10s42.834 -14.334 63.501 -23.001l-32 -133c-40 11.333 -73.667 17 -101 17c-9.33301 0 -17.666 -1 -24.999 -3
c-15.333 -4.66699 -29.166 -13.167 -41.499 -25.5s-18.5 -26.5 -18.5 -42.5c0 -6 1 -12.333 3 -19c4.66699 -16.667 16.5 -30.5 35.5 -41.5s45.5 -16.5 79.5 -16.5c8.66699 0 18.5 0.833008 29.5 2.5s27.833 5.5 50.5 11.5s55 16 97 30z" />
    <glyph glyph-name="uni0627.fina" unicode="&#x627;" horiz-adv-x="699" arabic-form="final" 
d="M617 -98c-60.667 0 -114.833 7.33008 -162.5 21.9971s-88.834 33 -123.501 55s-63 44 -85 66c-22.667 22 -45.167 50.333 -67.5 85s-41 76.334 -56 125.001s-22.5 105.334 -22.5 170.001v231.5c0 113.667 0.166992 234.167 0.5 361.5s0.5 284.333 0.5 471h507v-1016
c0 -4.66699 1 -8.16699 3 -10.5s4.33301 -3.66602 7 -3.99902s4.33398 -0.5 5.00098 -0.5h91v-556h-97z" />
    <glyph glyph-name="uni0628.fina" unicode="&#x628;" horiz-adv-x="2234" arabic-form="final" 
d="M2099 458l154.998 -0.00292969v-556c-120 0 -206.333 2.83301 -259 8.5s-94.667 20.834 -126 45.501c-37.333 -19.333 -75.666 -33.166 -114.999 -41.499s-79.166 -13.333 -119.499 -15s-80.5 -2.5 -120.5 -2.5h-703c-93.333 0 -168.666 0.666992 -225.999 2
s-107.333 5.66602 -150 12.999c-128.667 20.667 -226.667 83 -294 187c-40 64 -65 137 -75 219c-6 45.333 -9 89 -9 131c0 34 2 66.667 6 98c3.33301 26.667 9 57.834 17 93.501s16.667 70.834 26 105.501s17.666 63.667 24.999 87l10 35l482 -142l-64 -274h1034v324h506
v-318zM1332 -389.003l-234 -233l-233 233l233 234z" />
    <glyph glyph-name="uni0628.init" unicode="&#x628;" horiz-adv-x="817" arabic-form="initial" 
d="M-15 -98l0.000976562 556.002h263c-0.666992 0 -4 16 -10 48l-21 110l-21 110l-10 48l491 149l11 -57c6.66699 -38.667 15.167 -85.334 25.5 -140.001l29.5 -161c10.667 -54.667 16 -105.334 16 -152.001c0 -25.333 -1.66699 -49.333 -5 -72
c-4.66699 -42 -15 -87 -31 -135s-38 -89.667 -66 -125c-60.667 -73.333 -129.334 -123.333 -206.001 -150h-2c-62 -19.333 -133.667 -29 -215 -29h-249zM535.001 -389.998l-234 -233l-233 233l233 234z" />
    <glyph glyph-name="uni0628.medi" unicode="&#x628;" horiz-adv-x="838" arabic-form="medial" 
d="M765 -98c-101.333 0 -194.333 23 -279 69c-22.667 -11.333 -45.667 -21.333 -69 -30c-72.667 -26 -154 -39 -244 -39h-188v556h247v315h507v-315h114v-556h-88zM608 -381l-234 -233l-233 233l233 234z" />
    <glyph glyph-name="uni0629.fina" unicode="&#x629;" horiz-adv-x="1413" arabic-form="final" 
d="M1427 458l-0.00195312 -556h-59c-206.667 0 -367.667 54.333 -483 163c-55.333 -26 -108.666 -42.667 -159.999 -50s-101 -11 -149 -11c-117.333 0 -220.333 32.333 -309 97c-101.333 76 -167.666 189 -198.999 339c-8.66699 38 -13 81.333 -13 130
c0 16 1.16699 45.5 3.5 88.5s23.5 101.5 63.5 175.5c77.333 136 213.333 235 408 297l-14 60l495 113l11 -47l80 -348l14 -64l37 -163.5c11.333 -47.667 24.333 -99.5 39 -155.5c12 -45.333 58.667 -68 140 -68h95zM651.998 456c39.333 24 58.999 57.334 58.999 100.001
c0 1.33301 -0.333008 13.5 -1 36.5s-8 58.167 -22 105.5l-10 37c-53.333 -23.333 -92.166 -40.833 -116.499 -52.5s-41.833 -22.834 -52.5 -33.501c-24.667 -26.667 -37 -56 -37 -88c0 -1.33301 0.166992 -10.5 0.5 -27.5s10.5 -36.833 30.5 -59.5
c12 -12.667 25 -21.667 39 -27s28 -8 42 -8s27 1.83301 39 5.5s21.667 7.5 29 11.5zM623.997 1609l-220 -219l-219 219l219 220zM1093 1609l-220 -219l-219 219l219 220z" />
    <glyph glyph-name="uni062A.fina" unicode="&#x62a;" horiz-adv-x="2234" arabic-form="final" 
d="M2099 458l154.998 -0.00292969v-556c-120 0 -206.333 2.83301 -259 8.5s-94.667 20.834 -126 45.501c-37.333 -19.333 -75.666 -33.166 -114.999 -41.499s-79.166 -13.333 -119.499 -15s-80.5 -2.5 -120.5 -2.5h-703c-93.333 0 -168.666 0.666992 -225.999 2
s-107.333 5.66602 -150 12.999c-128.667 20.667 -226.667 83 -294 187c-40 64 -65 137 -75 219c-6 45.333 -9 89 -9 131c0 34 2 66.667 6 98c3.33301 26.667 9 57.834 17 93.501s16.667 70.834 26 105.501s17.666 63.667 24.999 87l10 35l482 -142l-64 -274h1034v324h506
v-318zM1074 928.997l-220 -219l-219 219l219 220zM1543 928.997l-220 -219l-219 219l219 220z" />
    <glyph glyph-name="uni062A.init" unicode="&#x62a;" horiz-adv-x="1007" arabic-form="initial" 
d="M-20 -98v556h458c-0.666992 2.66699 -4 19.5 -10 50.5l-21 108l-21 109.5l-9 48l490 149l11 -57l26 -140l29 -161c10.667 -56 16 -107.667 16 -155c0 -24 -1.33301 -46.667 -4 -68c-5.33301 -42.667 -16 -88 -32 -136s-37.667 -89.667 -65 -125
c-61.333 -73.333 -130.333 -123 -207 -149l-1 -1c-62 -19.333 -134 -29 -216 -29h-444zM500 1189l-220 -219l-219 219l219 220zM969 1189l-220 -219l-219 219l219 220z" />
    <glyph glyph-name="uni062A.medi" unicode="&#x62a;" horiz-adv-x="1024" arabic-form="medial" 
d="M493 1112l-220 -219l-219 219l219 220zM962 1112l-220 -219l-219 219l219 220zM935 -98c-101.333 0 -194.333 23 -279 69c-22.667 -11.333 -45.667 -21.333 -69 -30c-72.667 -26 -154 -39 -244 -39h-358v556h417v315h507v-315h144v-556h-118z" />
    <glyph glyph-name="uni062B.fina" unicode="&#x62b;" horiz-adv-x="2234" arabic-form="final" 
d="M2099 458l154.998 -0.00292969v-556c-120 0 -206.333 2.83301 -259 8.5s-94.667 20.834 -126 45.501c-37.333 -19.333 -75.666 -33.166 -114.999 -41.499s-79.166 -13.333 -119.499 -15s-80.5 -2.5 -120.5 -2.5h-703c-93.333 0 -168.666 0.666992 -225.999 2
s-107.333 5.66602 -150 12.999c-128.667 20.667 -226.667 83 -294 187c-40 64 -65 137 -75 219c-6 45.333 -9 89 -9 131c0 34 2 66.667 6 98c3.33301 26.667 9 57.834 17 93.501s16.667 70.834 26 105.501s17.666 63.667 24.999 87l10 35l482 -142l-64 -274h1034v324h506
v-318zM1317 1191l-201 -200l-200 200l200 201zM1071 880.997l-220 -219l-219 219l219 220zM1590 880.997l-220 -219l-219 219l219 220z" />
    <glyph glyph-name="uni062B.init" unicode="&#x62b;" horiz-adv-x="1007" arabic-form="initial" 
d="M-20 -98v556h458c-0.666992 2.66699 -4 19.5 -10 50.5l-21 108l-21 109.5l-9 48l490 149l11 -57l26 -140l29 -161c10.667 -56 16 -107.667 16 -155c0 -24 -1.33301 -46.667 -4 -68c-5.33301 -42.667 -16 -88 -32 -136s-37.667 -89.667 -65 -125
c-61.333 -73.333 -130.333 -123 -207 -149l-1 -1c-62 -19.333 -134 -29 -216 -29h-444zM701 1467l-201 -200l-200 200l200 201zM455 1157l-220 -219l-219 219l219 220zM974 1157l-220 -219l-219 219l219 220z" />
    <glyph glyph-name="uni062B.medi" unicode="&#x62b;" horiz-adv-x="1038" arabic-form="medial" 
d="M935 -98c-101.333 0 -194.333 23 -279 69c-22.667 -11.333 -45.667 -21.333 -69 -30c-72.667 -26 -154 -39 -244 -39h-358v556h417v315h507v-315h144v-556h-118zM710 1405l-201 -200l-200 200l200 201zM464 1095l-220 -219l-219 219l219 220zM983 1095l-220 -219
l-219 219l219 220z" />
    <glyph glyph-name="uni062C.fina" unicode="&#x62c;" horiz-adv-x="1749" arabic-form="final" 
d="M782 -807c-77.333 0 -146.997 4.3291 -208.997 12.9961c-68 8 -129 28.333 -183 61c-54.667 34 -102.667 86 -144 156l-1 1c-14.667 25.333 -34.667 73 -60 143c-26 68.667 -50.667 142.334 -74 221.001c-24.667 80.667 -41.334 151.334 -50.001 212.001
c-7.33301 43.333 -11 84 -11 122c0 97.333 22.667 177 68 239c60 84.667 175 155.334 345 212.001c96 30.667 202.333 58.334 319 83.001c83.333 18 149.666 34.333 198.999 49c-14.667 3.33301 -43 8.83301 -85 16.5l-136.5 24.5c-49 8.66699 -92.167 16 -129.5 22
s-58.666 9.33301 -63.999 10c-0.666992 -0.666992 -2.83398 -4.5 -6.50098 -11.5l-12.5 -24c-4.66699 -9 -9 -16.833 -13 -23.5l-5 -11l-476 120c36.667 138.667 103.667 246.667 201 324l2 1c89.333 66.667 185.666 100 288.999 100c64 0 143.667 -12.667 239 -38
c92.667 -25.333 189 -55.333 289 -90l286 -102v-1l131 -48l28 -10l64 -492l-2 -1c32 -9.33301 80.667 -14 146 -14h39v-555h-118c-137.333 0 -256.333 32 -357 96c-90.667 58 -151 152.667 -181 284l-30 -12l-269 -108l-250 -101l46 -158.5l46 -154.5h786v-555h-656z
M1237 -7.00391l-234 -233l-233 233l233 234z" />
    <glyph glyph-name="uni062C.init" unicode="&#x62c;" horiz-adv-x="1632" arabic-form="initial" 
d="M1582 264l-50 -36.9961c-33.333 -24.667 -86.833 -54.834 -160.5 -90.501s-170.667 -71.334 -291 -107.001s-241 -65.834 -362 -90.501s-333.833 -37 -638.5 -37h-95v556h49c96 0 182.667 0.833008 260 2.5s146.5 4 207.5 7s115 6.5 162 10.5s87.667 8.16699 122 12.5
s63.333 8.66602 87 12.999s43 8.5 58 12.5s26.5 7.5 34.5 10.5s13.333 5.5 16 7.5l5 2c-7.33301 2 -32.333 7.33301 -75 16l-144.5 29c-53.667 10.667 -101.167 19.667 -142.5 27l-62 12l-31 -73l-444 125c44.667 163.333 130 282 256 356h1c70 38.667 142 58 216 58
c42 0 83 -6 123 -18l194 -61l275 -88.5l248 -81.5l104 -34zM976 -384.996l-234 -233l-233 233l233 234z" />
    <glyph glyph-name="uni062C.medi" unicode="&#x62c;" horiz-adv-x="1665" arabic-form="medial" 
d="M1553 458l125.997 -0.00195312v-556h-49c-76.667 0 -141.167 7.33301 -193.5 22s-94.333 32 -126 52s-55.5 39 -71.5 57s-25.667 30.667 -29 38c-81.333 -29.333 -178.166 -56.666 -290.499 -81.999s-226.666 -46.166 -342.999 -62.499s-282.166 -24.5 -497.499 -24.5
h-94v556h250c94 0 189.833 2 287.5 6s183.167 11 256.5 21s126 21 158 33l48 18c-7.33301 2 -32.333 7.33301 -75 16l-144.5 28.5l-142.5 27.5l-62 12l-31 -73l-444 125c44.667 163.333 130 282 256 356h1c70 38.667 142 58 216 58c42 0 83 -6 123 -18l194 -61l275 -89
l248 -81l104 -34zM982.997 -385.002l-234 -233l-233 233l233 234z" />
    <glyph glyph-name="uni062D.fina" unicode="&#x62d;" horiz-adv-x="1844" arabic-form="final" 
d="M1746 458l117.998 0.00292969v-556h-118c-136.667 0 -255.334 32 -356.001 96c-74 48 -127.667 120.333 -161 217l-380 -140l-285 -109c10.667 -108 49.334 -162 116.001 -162h732v-553h-607c-56 0 -111.167 2 -165.5 6s-106.5 13 -156.5 27s-96.667 36.333 -140 67
c-133.333 97.333 -226 282 -278 554c-10 46.667 -15 91 -15 133c0 30.667 4.5 70 13.5 118s43 98.5 102 151.5s150.167 97.833 273.5 134.5l331 100.5l246 78.5l-69 17l-163 41.5c-62 16.333 -118.667 32.166 -170 47.499l-54 -100l-450 116c36 138 103.333 246.333 202 325
h1c88.667 66.667 185 100 289 100c25.333 0 48.333 -1.33301 69 -4c31.333 -4 86.333 -20.333 165 -49s195.667 -78 351 -148l147 -67l118 -55l46 -22l43 -342c2.66699 -0.666992 15.834 -2.83398 39.501 -6.50098s51.334 -7.33398 83.001 -11.001s59.167 -5.5 82.5 -5.5z
" />
    <glyph glyph-name="uni062D.init" unicode="&#x62d;" horiz-adv-x="1632" arabic-form="initial" 
d="M1582 264l-50 -36.9961c-33.333 -24.667 -86.833 -54.834 -160.5 -90.501s-170.667 -71.334 -291 -107.001s-241 -65.834 -362 -90.501s-333.833 -37 -638.5 -37h-95v556h49c96 0 182.667 0.833008 260 2.5s146.5 4 207.5 7s115 6.5 162 10.5s87.667 8.16699 122 12.5
s63.333 8.66602 87 12.999s43 8.5 58 12.5s26.5 7.5 34.5 10.5s13.333 5.5 16 7.5l5 2c-7.33301 2 -32.333 7.33301 -75 16l-144.5 29c-53.667 10.667 -101.167 19.667 -142.5 27l-62 12l-31 -73l-444 125c44.667 163.333 130 282 256 356h1c70 38.667 142 58 216 58
c42 0 83 -6 123 -18l194 -61l275 -88.5l248 -81.5l104 -34z" />
    <glyph glyph-name="uni062D.medi" unicode="&#x62d;" horiz-adv-x="1665" arabic-form="medial" 
d="M1553 458l125.997 -0.00195312v-556h-49c-76.667 0 -141.167 7.33301 -193.5 22s-94.333 32 -126 52s-55.5 39 -71.5 57s-25.667 30.667 -29 38c-81.333 -29.333 -178.166 -56.666 -290.499 -81.999s-226.666 -46.166 -342.999 -62.499s-282.166 -24.5 -497.499 -24.5
h-94v556h250c94 0 189.833 2 287.5 6s183.167 11 256.5 21s126 21 158 33l48 18c-7.33301 2 -32.333 7.33301 -75 16l-144.5 28.5l-142.5 27.5l-62 12l-31 -73l-444 125c44.667 163.333 130 282 256 356h1c70 38.667 142 58 216 58c42 0 83 -6 123 -18l194 -61l275 -89
l248 -81l104 -34z" />
    <glyph glyph-name="uni062E.fina" unicode="&#x62e;" horiz-adv-x="1844" arabic-form="final" 
d="M1746 458l117.998 0.00292969v-556h-118c-136.667 0 -255.334 32 -356.001 96c-74 48 -127.667 120.333 -161 217l-380 -140l-285 -109c10.667 -108 49.334 -162 116.001 -162h732v-553h-607c-56 0 -111.167 2 -165.5 6s-106.5 13 -156.5 27s-96.667 36.333 -140 67
c-133.333 97.333 -226 282 -278 554c-10 46.667 -15 91 -15 133c0 30.667 4.5 70 13.5 118s43 98.5 102 151.5s150.167 97.833 273.5 134.5l331 100.5l246 78.5l-69 17l-163 41.5c-62 16.333 -118.667 32.166 -170 47.499l-54 -100l-450 116c36 138 103.333 246.333 202 325
h1c88.667 66.667 185 100 289 100c25.333 0 48.333 -1.33301 69 -4c31.333 -4 86.333 -20.333 165 -49s195.667 -78 351 -148l147 -67l118 -55l46 -22l43 -342c2.66699 -0.666992 15.834 -2.83398 39.501 -6.50098s51.334 -7.33398 83.001 -11.001s59.167 -5.5 82.5 -5.5z
M811.998 1492l-234 -233l-233 233l233 234z" />
    <glyph glyph-name="uni062E.init" unicode="&#x62e;" horiz-adv-x="1632" arabic-form="initial" 
d="M1582 264l-50 -36.9961c-33.333 -24.667 -86.833 -54.834 -160.5 -90.501s-170.667 -71.334 -291 -107.001s-241 -65.834 -362 -90.501s-333.833 -37 -638.5 -37h-95v556h49c96 0 182.667 0.833008 260 2.5s146.5 4 207.5 7s115 6.5 162 10.5s87.667 8.16699 122 12.5
s63.333 8.66602 87 12.999s43 8.5 58 12.5s26.5 7.5 34.5 10.5s13.333 5.5 16 7.5l5 2c-7.33301 2 -32.333 7.33301 -75 16l-144.5 29c-53.667 10.667 -101.167 19.667 -142.5 27l-62 12l-31 -73l-444 125c44.667 163.333 130 282 256 356h1c70 38.667 142 58 216 58
c42 0 83 -6 123 -18l194 -61l275 -88.5l248 -81.5l104 -34zM764 1404l-234 -233l-233 233l233 234z" />
    <glyph glyph-name="uni062E.medi" unicode="&#x62e;" horiz-adv-x="1665" arabic-form="medial" 
d="M1553 458l125.997 -0.00195312v-556h-49c-76.667 0 -141.167 7.33301 -193.5 22s-94.333 32 -126 52s-55.5 39 -71.5 57s-25.667 30.667 -29 38c-81.333 -29.333 -178.166 -56.666 -290.499 -81.999s-226.666 -46.166 -342.999 -62.499s-282.166 -24.5 -497.499 -24.5
h-94v556h250c94 0 189.833 2 287.5 6s183.167 11 256.5 21s126 21 158 33l48 18c-7.33301 2 -32.333 7.33301 -75 16l-144.5 28.5l-142.5 27.5l-62 12l-31 -73l-444 125c44.667 163.333 130 282 256 356h1c70 38.667 142 58 216 58c42 0 83 -6 123 -18l194 -61l275 -89
l248 -81l104 -34zM765.997 1410l-234 -233l-233 233l233 234z" />
    <glyph glyph-name="uni062F.fina" unicode="&#x62f;" horiz-adv-x="1349" arabic-form="final" 
d="M663 -109c-72 0 -146.833 6.66504 -224.5 19.998s-147.334 28 -209.001 44s-106.167 28.333 -133.5 37l-46 14l13 46l135 485l48 -15c40.667 -12.667 104 -29 190 -49s161.667 -30 227 -30h6l-372 547l428 281l104 -156l265 -397c6 -7.33301 11.333 -15.333 16 -24
c6.66699 -10.667 18 -27.667 34 -51s34.333 -48.333 55 -75l27 -33c16.667 -22.667 30 -39.5 40 -50.5s18.833 -18.167 26.5 -21.5s17.834 -5 30.501 -5h41v-556h-97c-95.333 2.66699 -186 34.334 -272 95.001c-18 -13.333 -37.333 -25.666 -58 -36.999
c-84 -46 -175.333 -69 -274 -69z" />
    <glyph glyph-name="uni0630.fina" unicode="&#x630;" horiz-adv-x="1349" arabic-form="final" 
d="M663 -109c-72 0 -146.833 6.66504 -224.5 19.998s-147.334 28 -209.001 44s-106.167 28.333 -133.5 37l-46 14l13 46l135 485l48 -15c40.667 -12.667 104 -29 190 -49s161.667 -30 227 -30h6l-372 547l428 281l104 -156l265 -397c6 -7.33301 11.333 -15.333 16 -24
c6.66699 -10.667 18 -27.667 34 -51s34.333 -48.333 55 -75l27 -33c16.667 -22.667 30 -39.5 40 -50.5s18.833 -18.167 26.5 -21.5s17.834 -5 30.501 -5h41v-556h-97c-95.333 2.66699 -186 34.334 -272 95.001c-18 -13.333 -37.333 -25.666 -58 -36.999
c-84 -46 -175.333 -69 -274 -69zM853 1558l-234 -233l-233 233l233 234z" />
    <glyph glyph-name="uni0631.fina" unicode="&#x631;" horiz-adv-x="972" arabic-form="final" 
d="M906 774l-0.000976562 -285.999c0 -3.33301 0.833008 -7.33301 2.5 -12s5 -8.83398 10 -12.501s12.5 -5.5 22.5 -5.5h66v-556h-76c-17.333 0 -35 1 -53 3c-14 -49.333 -33 -101.5 -57 -156.5s-55 -106.167 -93 -153.5l-1 -1c-69.333 -78.667 -155 -137 -257 -175
c-95.333 -36 -203 -54 -323 -54h-147v553h147c96.667 0 163.334 19 200.001 57c34.667 43.333 52 114.333 52 213v586h507z" />
    <glyph glyph-name="uni0632.fina" unicode="&#x632;" horiz-adv-x="972" arabic-form="final" 
d="M906 774l-0.000976562 -285.999c0 -3.33301 0.833008 -7.33301 2.5 -12s5 -8.83398 10 -12.501s12.5 -5.5 22.5 -5.5h66v-556h-76c-17.333 0 -35 1 -53 3c-14 -49.333 -33 -101.5 -57 -156.5s-55 -106.167 -93 -153.5l-1 -1c-69.333 -78.667 -155 -137 -257 -175
c-95.333 -36 -203 -54 -323 -54h-147v553h147c96.667 0 163.334 19 200.001 57c34.667 43.333 52 114.333 52 213v586h507zM887.999 1128l-234 -233l-233 233l233 234z" />
    <glyph glyph-name="uni0633.fina" unicode="&#x633;" horiz-adv-x="2883" arabic-form="final" 
d="M1631 447c0 -8 2.66699 -15.9971 8 -23.9971s14 -12 26 -12c8.66699 0 16.667 2.16699 24 6.5s11 14.166 11 29.499v326h480v-326c0 -8.66699 2.66699 -16.834 8 -24.501s13.333 -11.5 24 -11.5c8.66699 0 16.334 3.33301 23 10c6.66699 6.66699 10 15.334 10 26.001v326
h481v-283c0 -14 6 -22.833 18 -26.5s28.667 -5.5 50 -5.5h109v-557c-137.333 0 -232.666 3.83301 -286 11.5c-53.333 7.66699 -97.666 28.5 -133 62.5c-56 -32.667 -113 -54.667 -171 -66c-28.667 -5.33301 -57.667 -8 -87 -8h-5c-128 0 -224.667 25 -290 75
c-33.333 -21.333 -70.666 -39.166 -111.999 -53.499s-89 -21.5 -143 -21.5c-20 0 -39 0.666992 -57 2c-28.667 -179.333 -109.334 -316 -242.001 -410c-51.333 -35.333 -105 -62.333 -161 -81s-111.167 -31.334 -165.5 -38.001s-103.5 -10 -147.5 -10h-118
c-236 0 -419.333 69 -550 207c-61.333 68 -105.333 139.5 -132 214.5s-42.667 145.167 -48 210.5c-3.33301 40 -5 74.667 -5 104c0 18 0.666992 34.333 2 49c10 158 58 332 144 522l20 45l463 -208l-20 -45c-61.333 -135.333 -95 -250.333 -101 -345v-5
c-0.666992 -8.66699 -1 -18 -1 -28c0 -12.667 1 -28.834 3 -48.501s12.333 -40.167 31 -61.5c35.333 -38 100 -57 194 -57h118c63.333 0 109.833 5 139.5 15s49.5 20.667 59.5 32c16 17.333 24 41.666 24 72.999c0 5.33301 -0.333008 11 -1 17v718h506v-326z" />
    <glyph glyph-name="uni0633.init" unicode="&#x633;" horiz-adv-x="1879" arabic-form="initial" 
d="M1312 -98c-58 0 -115.667 6.50098 -173 19.501s-108.666 32.5 -153.999 58.5c-84 -52 -172.333 -78 -265 -78c-66 0 -121.667 7.16699 -167 21.5s-84.666 31.833 -117.999 52.5c-26 -23.333 -54.333 -40.333 -85 -51s-62.334 -17.167 -95.001 -19.5
s-123.334 -3.5 -272.001 -3.5v556h158c24 0 38.667 4.33301 44 13s8 21 8 37v266h482v-325c0 -12.667 3.66699 -22.167 11 -28.5s16 -9.5 26 -9.5c9.33301 0 17.833 2.83301 25.5 8.5s11.5 15.5 11.5 29.5v325h481v-325c2.66699 -25.333 17 -38 43 -38
c12.667 0 23 3.5 31 10.5s12.333 16.167 13 27.5c-9.33301 104 -15.666 184.333 -18.999 241l-6 84l466 126l10 -49l23 -118c8.66699 -46 16.5 -90 23.5 -132s11.5 -73.333 13.5 -94c0.666992 -14 1 -28 1 -42c0 -78 -12 -153.5 -36 -226.5s-55.333 -130.5 -94 -172.5
c-100.667 -104.667 -229.334 -159.334 -386.001 -164.001h-1z" />
    <glyph glyph-name="uni0633.medi" unicode="&#x633;" horiz-adv-x="1886" arabic-form="medial" 
d="M1803 458l107.996 0.00195312v-557c-137.333 0 -232.666 3.83301 -285.999 11.5s-97.666 28.5 -132.999 62.5c-56 -32.667 -113 -54.667 -171 -66c-28.667 -5.33301 -57.667 -8 -87 -8h-5c-128 0 -224.667 25 -290 75c-33.333 -21.333 -70.666 -39.166 -111.999 -53.499
s-89 -21.5 -143 -21.5c-65.333 0 -120.5 7 -165.5 21s-84.167 31.333 -117.5 52c-21.333 -22.667 -44.833 -39.334 -70.5 -50.001s-64.5 -17.167 -116.5 -19.5s-131.667 -3.5 -239 -3.5v557h128c24 0 39.167 4.16699 45.5 12.5s9.5 18.166 9.5 29.499v273h481v-326
c0 -8 2.83301 -16 8.5 -24s14.167 -12 25.5 -12c8.66699 0 16.667 2.16699 24 6.5s11 14.166 11 29.499v326h480v-326c0 -8.66699 2.66699 -16.834 8 -24.501s13.333 -11.5 24 -11.5c8.66699 0 16.334 3.33301 23.001 10s10 15.334 10 26.001v326h481v-283
c0 -14 6 -22.833 18 -26.5s29 -5.5 51 -5.5z" />
    <glyph glyph-name="uni0634.fina" unicode="&#x634;" horiz-adv-x="2883" arabic-form="final" 
d="M1631 447c0 -8 2.66699 -15.9971 8 -23.9971s14 -12 26 -12c8.66699 0 16.667 2.16699 24 6.5s11 14.166 11 29.499v326h480v-326c0 -8.66699 2.66699 -16.834 8 -24.501s13.333 -11.5 24 -11.5c8.66699 0 16.334 3.33301 23 10c6.66699 6.66699 10 15.334 10 26.001v326
h481v-283c0 -14 6 -22.833 18 -26.5s28.667 -5.5 50 -5.5h109v-557c-137.333 0 -232.666 3.83301 -286 11.5c-53.333 7.66699 -97.666 28.5 -133 62.5c-56 -32.667 -113 -54.667 -171 -66c-28.667 -5.33301 -57.667 -8 -87 -8h-5c-128 0 -224.667 25 -290 75
c-33.333 -21.333 -70.666 -39.166 -111.999 -53.499s-89 -21.5 -143 -21.5c-20 0 -39 0.666992 -57 2c-28.667 -179.333 -109.334 -316 -242.001 -410c-51.333 -35.333 -105 -62.333 -161 -81s-111.167 -31.334 -165.5 -38.001s-103.5 -10 -147.5 -10h-118
c-236 0 -419.333 69 -550 207c-61.333 68 -105.333 139.5 -132 214.5s-42.667 145.167 -48 210.5c-3.33301 40 -5 74.667 -5 104c0 18 0.666992 34.333 2 49c10 158 58 332 144 522l20 45l463 -208l-20 -45c-61.333 -135.333 -95 -250.333 -101 -345v-5
c-0.666992 -8.66699 -1 -18 -1 -28c0 -12.667 1 -28.834 3 -48.501s12.333 -40.167 31 -61.5c35.333 -38 100 -57 194 -57h118c63.333 0 109.833 5 139.5 15s49.5 20.667 59.5 32c16 17.333 24 41.666 24 72.999c0 5.33301 -0.333008 11 -1 17v718h506v-326zM2160 1358
l-201 -200l-200 200l200 201zM1914 1048l-220 -219l-219 219l219 220zM2433 1048l-220 -219l-219 219l219 220z" />
    <glyph glyph-name="uni0634.init" unicode="&#x634;" horiz-adv-x="1879" arabic-form="initial" 
d="M1312 -98c-58 0 -115.667 6.50098 -173 19.501s-108.666 32.5 -153.999 58.5c-84 -52 -172.333 -78 -265 -78c-66 0 -121.667 7.16699 -167 21.5s-84.666 31.833 -117.999 52.5c-26 -23.333 -54.333 -40.333 -85 -51s-62.334 -17.167 -95.001 -19.5
s-123.334 -3.5 -272.001 -3.5v556h158c24 0 38.667 4.33301 44 13s8 21 8 37v266h482v-325c0 -12.667 3.66699 -22.167 11 -28.5s16 -9.5 26 -9.5c9.33301 0 17.833 2.83301 25.5 8.5s11.5 15.5 11.5 29.5v325h481v-325c2.66699 -25.333 17 -38 43 -38
c12.667 0 23 3.5 31 10.5s12.333 16.167 13 27.5c-9.33301 104 -15.666 184.333 -18.999 241l-6 84l466 126l10 -49l23 -118c8.66699 -46 16.5 -90 23.5 -132s11.5 -73.333 13.5 -94c0.666992 -14 1 -28 1 -42c0 -78 -12 -153.5 -36 -226.5s-55.333 -130.5 -94 -172.5
c-100.667 -104.667 -229.334 -159.334 -386.001 -164.001h-1zM1193 1392l-201 -200l-200 200l200 201zM947 1082l-220 -219l-219 219l219 220zM1466 1082l-220 -219l-219 219l219 220z" />
    <glyph glyph-name="uni0634.medi" unicode="&#x634;" horiz-adv-x="1886" arabic-form="medial" 
d="M1803 458l107.996 0.00195312v-557c-137.333 0 -232.666 3.83301 -285.999 11.5s-97.666 28.5 -132.999 62.5c-56 -32.667 -113 -54.667 -171 -66c-28.667 -5.33301 -57.667 -8 -87 -8h-5c-128 0 -224.667 25 -290 75c-33.333 -21.333 -70.666 -39.166 -111.999 -53.499
s-89 -21.5 -143 -21.5c-65.333 0 -120.5 7 -165.5 21s-84.167 31.333 -117.5 52c-21.333 -22.667 -44.833 -39.334 -70.5 -50.001s-64.5 -17.167 -116.5 -19.5s-131.667 -3.5 -239 -3.5v557h128c24 0 39.167 4.16699 45.5 12.5s9.5 18.166 9.5 29.499v273h481v-326
c0 -8 2.83301 -16 8.5 -24s14.167 -12 25.5 -12c8.66699 0 16.667 2.16699 24 6.5s11 14.166 11 29.499v326h480v-326c0 -8.66699 2.66699 -16.834 8 -24.501s13.333 -11.5 24 -11.5c8.66699 0 16.334 3.33301 23.001 10s10 15.334 10 26.001v326h481v-283
c0 -14 6 -22.833 18 -26.5s29 -5.5 51 -5.5zM1153 1394l-201 -200l-200 200l200 201zM906.996 1084l-220 -219l-219 219l219 220zM1426 1084l-220 -219l-219 219l219 220z" />
    <glyph glyph-name="uni0635.fina" unicode="&#x635;" horiz-adv-x="3135" arabic-form="final" 
d="M2166 405h283c57.333 0 97 7.33301 119 22s33 39.667 33 75c0 25.333 -4.66699 43.333 -14 54c-9.33301 10 -23.333 16.333 -42 19c-18 2 -40.333 3 -67 3c-38.667 0 -83.667 -13 -135 -39c-52 -26 -101.333 -61 -148 -105c-10 -9.33301 -19.667 -19 -29 -29zM3042 458
l107.998 -0.000976562v-556l-633 1c-16 -1.33301 -30.333 -2 -43 -2h-760c-20.667 -125.333 -68.667 -231.333 -144 -318c-66 -75.333 -149 -131 -249 -167c-93.333 -34 -201.666 -51 -324.999 -51l-239 -1c-128 0 -240 29 -336 87
c-94.667 56.667 -172.334 131.334 -233.001 224.001c-60 92 -98.667 182.333 -116 271c-12 58 -18 118.333 -18 181c0 22 0.666992 44.667 2 68c13.333 172.667 69 357.667 167 555l22 43l454 -228l-23 -43c-11.333 -22.667 -21.666 -45 -30.999 -67l-27 -68
c-38 -102.667 -57 -190.334 -57 -263.001c0 -53.333 10.333 -98.666 31 -135.999c12 -18.667 26.333 -33 43 -43c18.667 -10.667 38.334 -18 59.001 -22c23.333 -4 44.333 -6 63 -6l239 1c60.667 0 105.5 4.5 134.5 13.5s48.5 19.167 58.5 30.5c6 6 12 19.333 18 40
s9 53.334 9 98.001v673h507v-39v-92c0 -34.667 -0.166992 -65.834 -0.5 -93.501s-0.5 -43.5 -0.5 -47.5c28.667 54 68.167 111 118.5 171s109.333 116.5 177 169.5s141.667 96.5 222 130.5s164.166 51 251.5 51c111.333 0 202 -13.5 272 -40.5s124.5 -61.167 163.5 -102.5
s66.833 -84.833 83.5 -130.5s26.667 -88.167 30 -127.5c2.66699 -33.333 4 -61 4 -83v-22c0 -19.333 -0.666992 -39 -2 -59z" />
    <glyph glyph-name="uni0635.init" unicode="&#x635;" horiz-adv-x="2023" arabic-form="initial" 
d="M1429 1024c111.333 0 201.997 -13.332 271.997 -39.999s124.5 -60.5 163.5 -101.5s66.833 -84.333 83.5 -130s26.667 -88.5 30 -128.5c2.66699 -32.667 4 -60 4 -82v-24c0 -48 -4.33301 -102.333 -13 -163s-26.334 -116.667 -53.001 -168
c-41.333 -78.667 -98.666 -142 -171.999 -190c-42 -27.333 -84 -47.833 -126 -61.5s-81 -22.667 -117 -27s-65.667 -6.5 -89 -6.5h-692c-100.667 0 -193.334 23.333 -278.001 70c-23.333 -12 -46.666 -22.333 -69.999 -31c-72 -26 -153.333 -39 -244 -39h-143v556h205v316
h471v-272c11.333 21.333 31 52.5 59 93.5s63.833 85.833 107.5 134.5s95.334 95.167 155.001 139.5s126.834 81.166 201.501 110.499s156.334 44 245.001 44zM1387 406.001c57.333 0 97.001 7.33301 119.001 22s33 39.667 33 75c0 25.333 -4.66699 43.333 -14 54
s-23.166 17 -41.499 19s-40.833 3 -67.5 3c-38.667 0 -83.834 -13 -135.501 -39s-100.834 -61 -147.501 -105c-10 -9.33301 -19.667 -19 -29 -29h283z" />
    <glyph glyph-name="uni0635.medi" unicode="&#x635;" horiz-adv-x="2085" arabic-form="medial" 
d="M1387 406c57.333 0 96.999 7.33301 118.999 22s33 39.667 33 75c0 25.333 -4.66699 43.333 -14 54s-23.166 17 -41.499 19s-40.833 3 -67.5 3c-38 0 -82.833 -13 -134.5 -39s-101.167 -61 -148.5 -105c-10 -9.33301 -19.667 -19 -29 -29h283zM1980 458
l119.998 0.00195312v-556l-660 1c-10 -0.666992 -19.333 -1 -28 -1h-691c-101.333 0 -194.333 23.333 -279 70c-23.333 -12 -46.666 -22.333 -69.999 -31c-72 -26 -153 -39 -243 -39h-144v556h206v316h470v-272c11.333 21.333 31 52.5 59 93.5s64 85.833 108 134.5
s95.667 95.167 155 139.5s126.333 81.166 201 110.499s156.334 44 245.001 44c111.333 0 202 -13.333 272 -40s124.5 -60.5 163.5 -101.5s66.833 -84.333 83.5 -130s27 -88.167 31 -127.5c2.66699 -28.667 4 -53 4 -73c0 -8.66699 -0.333008 -16.334 -1 -23.001v-11
c0 -19.333 -0.666992 -39.333 -2 -60z" />
    <glyph glyph-name="uni0636.fina" unicode="&#x636;" horiz-adv-x="3135" arabic-form="final" 
d="M2166 405h283c57.333 0 97 7.33301 119 22s33 39.667 33 75c0 25.333 -4.66699 43.333 -14 54c-9.33301 10 -23.333 16.333 -42 19c-18 2 -40.333 3 -67 3c-38.667 0 -83.667 -13 -135 -39c-52 -26 -101.333 -61 -148 -105c-10 -9.33301 -19.667 -19 -29 -29zM3042 458
l107.998 -0.000976562v-556l-633 1c-16 -1.33301 -30.333 -2 -43 -2h-760c-20.667 -125.333 -68.667 -231.333 -144 -318c-66 -75.333 -149 -131 -249 -167c-93.333 -34 -201.666 -51 -324.999 -51l-239 -1c-128 0 -240 29 -336 87
c-94.667 56.667 -172.334 131.334 -233.001 224.001c-60 92 -98.667 182.333 -116 271c-12 58 -18 118.333 -18 181c0 22 0.666992 44.667 2 68c13.333 172.667 69 357.667 167 555l22 43l454 -228l-23 -43c-11.333 -22.667 -21.666 -45 -30.999 -67l-27 -68
c-38 -102.667 -57 -190.334 -57 -263.001c0 -53.333 10.333 -98.666 31 -135.999c12 -18.667 26.333 -33 43 -43c18.667 -10.667 38.334 -18 59.001 -22c23.333 -4 44.333 -6 63 -6l239 1c60.667 0 105.5 4.5 134.5 13.5s48.5 19.167 58.5 30.5c6 6 12 19.333 18 40
s9 53.334 9 98.001v673h507v-39v-92c0 -34.667 -0.166992 -65.834 -0.5 -93.501s-0.5 -43.5 -0.5 -47.5c28.667 54 68.167 111 118.5 171s109.333 116.5 177 169.5s141.667 96.5 222 130.5s164.166 51 251.5 51c111.333 0 202 -13.5 272 -40.5s124.5 -61.167 163.5 -102.5
s66.833 -84.833 83.5 -130.5s26.667 -88.167 30 -127.5c2.66699 -33.333 4 -61 4 -83v-22c0 -19.333 -0.666992 -39 -2 -59zM2751 1331l-234 -233l-233 233l233 234z" />
    <glyph glyph-name="uni0636.init" unicode="&#x636;" horiz-adv-x="2023" arabic-form="initial" 
d="M1429 1024c111.333 0 201.997 -13.332 271.997 -39.999s124.5 -60.5 163.5 -101.5s66.833 -84.333 83.5 -130s26.667 -88.5 30 -128.5c2.66699 -32.667 4 -60 4 -82v-24c0 -48 -4.33301 -102.333 -13 -163s-26.334 -116.667 -53.001 -168
c-41.333 -78.667 -98.666 -142 -171.999 -190c-42 -27.333 -84 -47.833 -126 -61.5s-81 -22.667 -117 -27s-65.667 -6.5 -89 -6.5h-692c-100.667 0 -193.334 23.333 -278.001 70c-23.333 -12 -46.666 -22.333 -69.999 -31c-72 -26 -153.333 -39 -244 -39h-143v556h205v316
h471v-272c11.333 21.333 31 52.5 59 93.5s63.833 85.833 107.5 134.5s95.334 95.167 155.001 139.5s126.834 81.166 201.501 110.499s156.334 44 245.001 44zM1387 406.001c57.333 0 97.001 7.33301 119.001 22s33 39.667 33 75c0 25.333 -4.66699 43.333 -14 54
s-23.166 17 -41.499 19s-40.833 3 -67.5 3c-38.667 0 -83.834 -13 -135.501 -39s-100.834 -61 -147.501 -105c-10 -9.33301 -19.667 -19 -29 -29h283zM1652 1329l-234 -233l-233 233l233 234z" />
    <glyph glyph-name="uni0636.medi" unicode="&#x636;" horiz-adv-x="2085" arabic-form="medial" 
d="M1387 406c57.333 0 96.999 7.33301 118.999 22s33 39.667 33 75c0 25.333 -4.66699 43.333 -14 54s-23.166 17 -41.499 19s-40.833 3 -67.5 3c-38 0 -82.833 -13 -134.5 -39s-101.167 -61 -148.5 -105c-10 -9.33301 -19.667 -19 -29 -29h283zM1980 458
l119.998 0.00195312v-556l-660 1c-10 -0.666992 -19.333 -1 -28 -1h-691c-101.333 0 -194.333 23.333 -279 70c-23.333 -12 -46.666 -22.333 -69.999 -31c-72 -26 -153 -39 -243 -39h-144v556h206v316h470v-272c11.333 21.333 31 52.5 59 93.5s64 85.833 108 134.5
s95.667 95.167 155 139.5s126.333 81.166 201 110.499s156.334 44 245.001 44c111.333 0 202 -13.333 272 -40s124.5 -60.5 163.5 -101.5s66.833 -84.333 83.5 -130s27 -88.167 31 -127.5c2.66699 -28.667 4 -53 4 -73c0 -8.66699 -0.333008 -16.334 -1 -23.001v-11
c0 -19.333 -0.666992 -39.333 -2 -60zM1675 1330l-234 -233l-233 233l233 234z" />
    <glyph glyph-name="uni0637.fina" unicode="&#x637;" horiz-adv-x="1723" arabic-form="final" 
d="M1030 409c56.667 0 96.1689 7.16797 118.502 21.501s33.5 39.5 33.5 75.5c0 24.667 -4.83301 42.167 -14.5 52.5s-23.5 16.666 -41.5 18.999s-40.333 3.5 -67 3.5c-38.667 0 -83.834 -12.833 -135.501 -38.5s-100.834 -60.5 -147.501 -104.5l-11 -11
c-6.66699 -6 -12.667 -12 -18 -18h283zM70.002 -97.999l-0.000976562 555.999h182c8 12.667 16.667 25.334 26 38.001v996h507v-522c89.333 36.667 177 55 263 55h20c27.333 0 58.833 -0.833008 94.5 -2.5s72.834 -7.33398 111.501 -17.001s77 -25.167 115 -46.5l1 -1
c74.667 -45.333 130 -109.666 166 -192.999l1 -1c28 -68 42 -149.333 42 -244c0 -18 -1 -38.667 -3 -62h142v-556h-1668z" />
    <glyph glyph-name="uni0637.init" unicode="&#x637;" horiz-adv-x="1544" arabic-form="initial" 
d="M1452 764c28 -68 41.999 -149.333 41.999 -244c0 -37.333 -3.83301 -86.833 -11.5 -148.5s-25.5 -122.834 -53.5 -183.501c-40 -79.333 -97.667 -143 -173 -191c-42 -27.333 -83.833 -47.833 -125.5 -61.5s-80.5 -22.667 -116.5 -27s-65.667 -6.5 -89 -6.5h-940v556h162
c8 12.667 16.667 25.334 26 38.001v996h507v-522c89.333 36.667 177 55 263 55h20c27.333 0 58.833 -0.833008 94.5 -2.5s72.834 -7.33398 111.501 -17.001s77 -25.167 115 -46.5l1 -1c74.667 -45.333 130 -109.666 166 -192.999zM924.999 409
c56.667 0 96.1689 7.16797 118.502 21.501s33.5 39.5 33.5 75.5c0 24.667 -4.83301 42.167 -14.5 52.5s-23.5 16.666 -41.5 18.999s-40.333 3.5 -67 3.5c-38.667 0 -83.834 -12.833 -135.501 -38.5s-100.834 -60.5 -147.501 -104.5l-11 -11c-6.66699 -6 -12.667 -12 -18 -18
h283z" />
    <glyph glyph-name="uni0637.medi" unicode="&#x637;" horiz-adv-x="1608" arabic-form="medial" 
d="M915 409c56.667 0 96.1689 7.16797 118.502 21.501s33.5 39.5 33.5 75.5c0 24.667 -4.83301 42.167 -14.5 52.5s-23.5 16.666 -41.5 18.999s-40.333 3.5 -67 3.5c-38.667 0 -83.834 -12.833 -135.501 -38.5s-100.834 -60.5 -147.501 -104.5l-11 -11
c-6.66699 -6 -12.667 -12 -18 -18h283zM-14.998 -97.999l-0.000976562 555.999h152c8 12.667 16.667 25.334 26 38.001v996h507v-522c89.333 36.667 177 55 263 55h20c27.333 0 58.833 -0.833008 94.5 -2.5s72.834 -7.33398 111.501 -17.001s77 -25.167 115 -46.5l1 -1
c74.667 -45.333 130 -109.666 166 -192.999l1 -1c28 -68 42 -149.333 42 -244c0 -18 -1 -38.667 -3 -62h142v-556h-1638z" />
    <glyph glyph-name="uni0638.fina" unicode="&#x638;" horiz-adv-x="1723" arabic-form="final" 
d="M1030 409c56.667 0 96.1689 7.16797 118.502 21.501s33.5 39.5 33.5 75.5c0 24.667 -4.83301 42.167 -14.5 52.5s-23.5 16.666 -41.5 18.999s-40.333 3.5 -67 3.5c-38.667 0 -83.834 -12.833 -135.501 -38.5s-100.834 -60.5 -147.501 -104.5l-11 -11
c-6.66699 -6 -12.667 -12 -18 -18h283zM70.002 -97.999l-0.000976562 555.999h182c8 12.667 16.667 25.334 26 38.001v996h507v-522c89.333 36.667 177 55 263 55h20c27.333 0 58.833 -0.833008 94.5 -2.5s72.834 -7.33398 111.501 -17.001s77 -25.167 115 -46.5l1 -1
c74.667 -45.333 130 -109.666 166 -192.999l1 -1c28 -68 42 -149.333 42 -244c0 -18 -1 -38.667 -3 -62h142v-556h-1668zM1327 1352l-234 -233l-233 233l233 234z" />
    <glyph glyph-name="uni0638.init" unicode="&#x638;" horiz-adv-x="1544" arabic-form="initial" 
d="M1452 764c28 -68 41.999 -149.333 41.999 -244c0 -37.333 -3.83301 -86.833 -11.5 -148.5s-25.5 -122.834 -53.5 -183.501c-40 -79.333 -97.667 -143 -173 -191c-42 -27.333 -83.833 -47.833 -125.5 -61.5s-80.5 -22.667 -116.5 -27s-65.667 -6.5 -89 -6.5h-940v556h162
c8 12.667 16.667 25.334 26 38.001v996h507v-522c89.333 36.667 177 55 263 55h20c27.333 0 58.833 -0.833008 94.5 -2.5s72.834 -7.33398 111.501 -17.001s77 -25.167 115 -46.5l1 -1c74.667 -45.333 130 -109.666 166 -192.999zM924.999 409
c56.667 0 96.1689 7.16797 118.502 21.501s33.5 39.5 33.5 75.5c0 24.667 -4.83301 42.167 -14.5 52.5s-23.5 16.666 -41.5 18.999s-40.333 3.5 -67 3.5c-38.667 0 -83.834 -12.833 -135.501 -38.5s-100.834 -60.5 -147.501 -104.5l-11 -11c-6.66699 -6 -12.667 -12 -18 -18
h283zM1240 1350l-234 -233l-233 233l233 234z" />
    <glyph glyph-name="uni0638.medi" unicode="&#x638;" horiz-adv-x="1608" arabic-form="medial" 
d="M915 409c56.667 0 96.1689 7.16797 118.502 21.501s33.5 39.5 33.5 75.5c0 24.667 -4.83301 42.167 -14.5 52.5s-23.5 16.666 -41.5 18.999s-40.333 3.5 -67 3.5c-38.667 0 -83.834 -12.833 -135.501 -38.5s-100.834 -60.5 -147.501 -104.5l-11 -11
c-6.66699 -6 -12.667 -12 -18 -18h283zM-14.998 -97.999l-0.000976562 555.999h152c8 12.667 16.667 25.334 26 38.001v996h507v-522c89.333 36.667 177 55 263 55h20c27.333 0 58.833 -0.833008 94.5 -2.5s72.834 -7.33398 111.501 -17.001s77 -25.167 115 -46.5l1 -1
c74.667 -45.333 130 -109.666 166 -192.999l1 -1c28 -68 42 -149.333 42 -244c0 -18 -1 -38.667 -3 -62h142v-556h-1638zM1236 1352l-234 -233l-233 233l233 234z" />
    <glyph glyph-name="uni0639.fina" unicode="&#x639;" horiz-adv-x="1509" arabic-form="final" 
d="M610 -23c-19.333 -16 -32.833 -31.501 -40.5 -46.501s-11.5 -32.833 -11.5 -53.5c0 -43.333 15.167 -81 45.5 -113s66.5 -48 108.5 -48h641l3 -551h-642c-90 0 -176.667 18 -260 54c-78.667 34.667 -148.334 83 -209.001 145c-61.333 62 -108 132.333 -140 211l-1 1
c-36 91.333 -54 191.666 -54 300.999c0 149.333 48.667 279.666 146 390.999c54 57.333 103 99 147 125c-44.667 38 -98.334 90.333 -161.001 157v97c0 38.667 5.83301 84.834 17.5 138.501s35.167 107.167 70.5 160.5c43.333 64 99 112.833 167 146.5
s144.333 50.5 229 50.5h308c84.667 0 165 -22 241 -66v-1c72.667 -45.333 128.334 -103.666 167.001 -174.999c33.333 -68 50 -135 50 -201c0 -80.667 -25 -160 -75 -238c-0.666992 -1.33301 -1.66699 -2.66602 -3 -3.99902h171v-556h-413
c-147.333 0 -268.666 53 -363.999 159c-52 -24.667 -98 -52.667 -138 -84zM1012 722.999l-384.001 -0.000976562c4.66699 -8 16.334 -22 35.001 -42l62.5 -64.5l62 -61c18.333 -17.667 29.5 -28.167 33.5 -31.5c16 12 37.167 30.833 63.5 56.5s51.5 51.834 75.5 78.501
s41.333 48 52 64z" />
    <glyph glyph-name="uni0639.init" unicode="&#x639;" horiz-adv-x="1264" arabic-form="initial" 
d="M879 458c7.33301 -0.666992 19.001 -1 35.001 -1h47.5h28.5h185v-555h-1190v556h142c-6 32 -9 64.667 -9 98c0 71.333 12.667 140.5 38 207.5s61.333 126.833 108 179.5c25.333 28.667 58 57 98 85s88.5 51.667 145.5 71s123.833 29 200.5 29
c54.667 0 110.667 -7.83301 168 -23.5s109.833 -33.5 157.5 -53.5s86.5 -37.667 116.5 -53l44 -24l-201 -406l-29 14c-20 8.66699 -44.667 18.667 -74 30s-59.833 21.5 -91.5 30.5s-59.167 13.5 -82.5 13.5c-34.667 0 -60.667 -9.33301 -78 -28
c-14.667 -15.333 -22 -31.333 -22 -48c0 -4 0.333008 -8 1 -12c12.667 -44.667 45.667 -74 99 -88s107.666 -21.333 162.999 -22z" />
    <glyph glyph-name="uni0639.medi" unicode="&#x639;" horiz-adv-x="1408" arabic-form="medial" 
d="M1250 457l172.996 -0.00292969v-555h-478c-42.667 0 -84.667 7 -126 21c-33.333 10.667 -68 28 -104 52c-47.333 -24 -105.666 -41.667 -174.999 -53c-82 -13.333 -166.667 -20 -254 -20h-301v555h189c-2.66699 2.66699 -5 5.33398 -7 8.00098l-22.5 28.5
c-5 6.33301 -8.16699 10.833 -9.5 13.5l-52 66v85c0 57.333 6.33301 108 19 152c12.667 43.333 28.334 81 47.001 113c18 30.667 36.667 56 56 76c20.667 24 47.334 47 80.001 69c34 22.667 74.333 41.334 121 56.001c48 15.333 103.333 23 166 23h292
c88.667 0 172.334 -23.667 251.001 -71l1 -1c77.333 -49.333 135 -113.333 173 -192v-2c26.667 -61.333 40 -121.666 40 -180.999c0 -83.333 -26.333 -164.333 -79 -243zM860.996 658.997c24 27.333 41.332 49 51.999 65h-384c4.66699 -8 16.334 -22 35.001 -42l62 -65
l62 -61c18.667 -18 30 -28.667 34 -32c16 12 37 31 63 57c26.667 25.333 52 51.333 76 78z" />
    <glyph glyph-name="uni063A.fina" unicode="&#x63a;" horiz-adv-x="1509" arabic-form="final" 
d="M610 -23c-19.333 -16 -32.833 -31.501 -40.5 -46.501s-11.5 -32.833 -11.5 -53.5c0 -43.333 15.167 -81 45.5 -113s66.5 -48 108.5 -48h641l3 -551h-642c-90 0 -176.667 18 -260 54c-78.667 34.667 -148.334 83 -209.001 145c-61.333 62 -108 132.333 -140 211l-1 1
c-36 91.333 -54 191.666 -54 300.999c0 149.333 48.667 279.666 146 390.999c54 57.333 103 99 147 125c-44.667 38 -98.334 90.333 -161.001 157v97c0 38.667 5.83301 84.834 17.5 138.501s35.167 107.167 70.5 160.5c43.333 64 99 112.833 167 146.5
s144.333 50.5 229 50.5h308c84.667 0 165 -22 241 -66v-1c72.667 -45.333 128.334 -103.666 167.001 -174.999c33.333 -68 50 -135 50 -201c0 -80.667 -25 -160 -75 -238c-0.666992 -1.33301 -1.66699 -2.66602 -3 -3.99902h171v-556h-413
c-147.333 0 -268.666 53 -363.999 159c-52 -24.667 -98 -52.667 -138 -84zM1012 722.999l-384.001 -0.000976562c4.66699 -8 16.334 -22 35.001 -42l62.5 -64.5l62 -61c18.333 -17.667 29.5 -28.167 33.5 -31.5c16 12 37.167 30.833 63.5 56.5s51.5 51.834 75.5 78.501
s41.333 48 52 64zM1041 1429l-234 -233l-233 233l233 234z" />
    <glyph glyph-name="uni063A.init" unicode="&#x63a;" horiz-adv-x="1264" arabic-form="initial" 
d="M879 458c7.33301 -0.666992 19.001 -1 35.001 -1h47.5h28.5h185v-555h-1190v556h142c-6 32 -9 64.667 -9 98c0 71.333 12.667 140.5 38 207.5s61.333 126.833 108 179.5c25.333 28.667 58 57 98 85s88.5 51.667 145.5 71s123.833 29 200.5 29
c54.667 0 110.667 -7.83301 168 -23.5s109.833 -33.5 157.5 -53.5s86.5 -37.667 116.5 -53l44 -24l-201 -406l-29 14c-20 8.66699 -44.667 18.667 -74 30s-59.833 21.5 -91.5 30.5s-59.167 13.5 -82.5 13.5c-34.667 0 -60.667 -9.33301 -78 -28
c-14.667 -15.333 -22 -31.333 -22 -48c0 -4 0.333008 -8 1 -12c12.667 -44.667 45.667 -74 99 -88s107.666 -21.333 162.999 -22zM928.001 1424l-234 -233l-233 233l233 234z" />
    <glyph glyph-name="uni063A.medi" unicode="&#x63a;" horiz-adv-x="1408" arabic-form="medial" 
d="M1250 457l172.996 -0.00292969v-555h-478c-42.667 0 -84.667 7 -126 21c-33.333 10.667 -68 28 -104 52c-47.333 -24 -105.666 -41.667 -174.999 -53c-82 -13.333 -166.667 -20 -254 -20h-301v555h189c-2.66699 2.66699 -5 5.33398 -7 8.00098l-22.5 28.5
c-5 6.33301 -8.16699 10.833 -9.5 13.5l-52 66v85c0 57.333 6.33301 108 19 152c12.667 43.333 28.334 81 47.001 113c18 30.667 36.667 56 56 76c20.667 24 47.334 47 80.001 69c34 22.667 74.333 41.334 121 56.001c48 15.333 103.333 23 166 23h292
c88.667 0 172.334 -23.667 251.001 -71l1 -1c77.333 -49.333 135 -113.333 173 -192v-2c26.667 -61.333 40 -121.666 40 -180.999c0 -83.333 -26.333 -164.333 -79 -243zM860.996 658.997c24 27.333 41.332 49 51.999 65h-384c4.66699 -8 16.334 -22 35.001 -42l62 -65
l62 -61c18.667 -18 30 -28.667 34 -32c16 12 37 31 63 57c26.667 25.333 52 51.333 76 78zM954.995 1442l-234 -233l-233 233l233 234z" />
    <glyph glyph-name="uni0641.fina" unicode="&#x641;" horiz-adv-x="2263" arabic-form="final" 
d="M1598 418c4 0.666992 13.002 3.33398 27.002 8.00098s29.333 12.167 46 22.5s31.167 24 43.5 41s18.5 37.833 18.5 62.5c0 8 -1.66699 20 -5 36s-9.83301 32.5 -19.5 49.5s-23.334 31.5 -41.001 43.5s-40.834 18 -69.501 18c-29.333 0 -52.833 -6 -70.5 -18
s-31.167 -26.5 -40.5 -43.5s-15.666 -33.5 -18.999 -49.5s-5 -28 -5 -36c0 -25.333 6.16699 -46.5 18.5 -63.5s26.666 -30.5 42.999 -40.5s31.5 -17.333 45.5 -22s23.333 -7.33398 28 -8.00098zM822.002 -98c-90.667 0 -165 0.665039 -223 1.99805
c-59.333 2 -110 6.33301 -152 13c-128.667 20.667 -227 83.334 -295 188.001l-1 1l-1 2c-54 100 -81 215.333 -81 346c0 30.667 1.66699 62.667 5 96v3c16.667 104 36.667 191.667 60 263l18 55l481 -142v-1c-1.33301 -4.66699 -4.33301 -17.667 -9 -39l-22.5 -94
l-21.5 -92.5c-6 -26.333 -9.33301 -41.166 -10 -44.499h459c-3.33301 26 -5 53.333 -5 82c0 160 53.333 299 160 417c112.667 118.667 250.667 178 414 178c160 0 297.333 -59.333 412 -178c107.333 -118 161 -257 161 -417c0 -28.667 -2 -56 -6 -82h113v-556h-265
c-75.333 0 -144.333 3.66699 -207 11s-131.667 20 -207 38c-116.667 -32.667 -255.667 -49 -417 -49h-360zM1820 1427l-234 -233l-233 233l233 234z" />
    <glyph glyph-name="uni0641.init" unicode="&#x641;" horiz-adv-x="1218" arabic-form="initial" 
d="M1020 953c104.667 -120 156.999 -266.333 156.999 -439v-71c0 -103.333 -25.667 -196 -77 -278c-52 -82 -126.667 -146.333 -224 -193c-96.667 -46 -212.667 -69 -348 -69h-534v555h93c-1.33301 19.333 -2 38 -2 56c0 117.333 17.333 216 52 296s79.334 144 134.001 192
c54.667 46.667 112.667 80 174 100c60.667 19.333 117 29 169 29c156 0 290.667 -59 404 -177l1 -1h1zM734.999 446v96c0 13.333 -3.33301 28.5 -10 45.5s-18.5 32 -35.5 45s-41.167 19.5 -72.5 19.5c-10.667 0 -25.167 -3 -43.5 -9s-34.833 -17 -49.5 -33
s-22 -38.667 -22 -68c0 -39.333 7.5 -65 22.5 -77s37.5 -18 67.5 -18c12 0 33 -0.333008 63 -1h80zM849.999 1436l-234 -233l-233 233l233 234z" />
    <glyph glyph-name="uni0641.medi" unicode="&#x641;" horiz-adv-x="1334" arabic-form="medial" 
d="M1236 458h113v-556h-265c-75.333 0 -144.333 3.66699 -207 11s-131.667 20 -207 38c-116.667 -32.667 -255.667 -49 -417 -49h-268v556h115c-3.33301 26 -5 53.333 -5 82c0 160 53.667 299 161 417c112 118.667 249.667 178 413 178c160.667 0 298 -59.333 412 -178
c107.333 -118 161 -257 161 -417c0 -28.667 -2 -56 -6 -82zM669 418c4 0.666992 13.002 3.33398 27.002 8.00098s29.333 12.167 46 22.5s31.167 24 43.5 41s18.5 37.833 18.5 62.5c0 8 -1.66699 20 -5 36s-9.83301 32.5 -19.5 49.5s-23.334 31.5 -41.001 43.5
s-40.834 18 -69.501 18c-29.333 0 -52.833 -6 -70.5 -18s-31.167 -26.5 -40.5 -43.5s-15.666 -33.5 -18.999 -49.5s-5 -28 -5 -36c0 -25.333 6.16699 -46.5 18.5 -63.5s26.666 -30.5 42.999 -40.5s31.5 -17.333 45.5 -22s23.333 -7.33398 28 -8.00098zM908.002 1432
l-234 -233l-233 233l233 234z" />
    <glyph glyph-name="uni0642.fina" unicode="&#x642;" horiz-adv-x="1885" arabic-form="final" 
d="M1206 405l155 0.00292969v96c0 31.333 -11.333 57.666 -34 78.999c-22.667 20.667 -50.667 31 -84 31c-32.667 0 -60 -10.667 -82 -32s-33 -47.333 -33 -78c0 -16.667 2 -32.334 6 -47.001c3.33301 -14.667 10.666 -26.334 21.999 -35.001
c10.667 -9.33301 27.334 -14 50.001 -14zM1802 458.003l93.002 -0.00195312v-556h-106c-6.66699 -38.667 -16.667 -74.334 -30 -107.001c-28 -72 -63.667 -133 -107 -183c-42 -48.667 -84.667 -89.667 -128 -123l-2 -2c-26.667 -18 -62.334 -37 -107.001 -57
c-45.333 -20 -109 -36.333 -191 -49c-70 -11.333 -159 -17 -267 -17h-174c-140.667 0 -265 25.833 -373 77.5s-193.667 126.167 -257 223.5l-1 1c-53.333 90 -85.333 174.333 -96 253c-6.66699 48.667 -10 96 -10 142c0 28.667 1.33301 57 4 85
c9.33301 156.667 57.333 331 144 523l20 44l462 -208l-20 -44c-61.333 -138 -95 -253.333 -101 -346c-0.666992 -8.66699 -1 -16.667 -1 -24c0 -46 8.33301 -81.667 25 -107c34 -46 102 -69 204 -69h15v1h73c48.667 0.666992 105 1 169 1h166h161
c1.33301 0 3.16602 0.833008 5.49902 2.5s3.5 4.16699 3.5 7.5s-1.16699 5.83301 -3.5 7.5s-4.16602 2.5 -5.49902 2.5c-56.667 0 -114.834 2.66699 -174.501 8s-117.334 16.5 -173.001 33.5s-105.667 43.333 -150 79s-79.666 83.334 -105.999 143.001
s-39.5 134.834 -39.5 225.501c0 116.667 16.667 214.5 50 293.5s76 142.333 128 190s108 81.834 168 102.501s116.667 31 170 31c156.667 0 291.667 -59 405 -177v-1h1c98 -112 150 -247.667 156 -407zM1213 1310l-220 -219l-219 219l219 220zM1682 1310l-220 -219l-219 219
l219 220z" />
    <glyph glyph-name="uni0642.init" unicode="&#x642;" horiz-adv-x="1218" arabic-form="initial" 
d="M1011 953c104.667 -120 156.999 -266.333 156.999 -439v-71c0 -103.333 -25.667 -196 -77 -278c-52 -82 -126.667 -146.333 -224 -193c-96.667 -46 -212.667 -69 -348 -69h-534v555h93c-1.33301 19.333 -2 38 -2 56c0 117.333 17.333 216 52 296s79.334 144 134.001 192
c54.667 46.667 112.667 80 174 100c60.667 19.333 117 29 169 29c156 0 290.667 -59 404 -177l1 -1h1zM725.999 446v96c0 13.333 -3.33301 28.5 -10 45.5s-18.5 32 -35.5 45s-41.167 19.5 -72.5 19.5c-10.667 0 -25.167 -3 -43.5 -9s-34.833 -17 -49.5 -33
s-22 -38.667 -22 -68c0 -39.333 7.5 -65 22.5 -77s37.5 -18 67.5 -18c12 0 33 -0.333008 63 -1h80zM594.999 1413l-220 -219l-219 219l219 220zM1064 1413l-220 -219l-219 219l219 220z" />
    <glyph glyph-name="uni0642.medi" unicode="&#x642;" horiz-adv-x="1334" arabic-form="medial" 
d="M1236 458h113v-556h-265c-75.333 0 -144.333 3.66699 -207 11s-131.667 20 -207 38c-116.667 -32.667 -255.667 -49 -417 -49h-268v556h115c-3.33301 26 -5 53.333 -5 82c0 160 53.667 299 161 417c112 118.667 249.667 178 413 178c160.667 0 298 -59.333 412 -178
c107.333 -118 161 -257 161 -417c0 -28.667 -2 -56 -6 -82zM669 418c4 0.666992 13.002 3.33398 27.002 8.00098s29.333 12.167 46 22.5s31.167 24 43.5 41s18.5 37.833 18.5 62.5c0 8 -1.66699 20 -5 36s-9.83301 32.5 -19.5 49.5s-23.334 31.5 -41.001 43.5
s-40.834 18 -69.501 18c-29.333 0 -52.833 -6 -70.5 -18s-31.167 -26.5 -40.5 -43.5s-15.666 -33.5 -18.999 -49.5s-5 -28 -5 -36c0 -25.333 6.16699 -46.5 18.5 -63.5s26.666 -30.5 42.999 -40.5s31.5 -17.333 45.5 -22s23.333 -7.33398 28 -8.00098zM653.002 1412
l-220 -219l-219 219l219 220zM1122 1412l-220 -219l-219 219l219 220z" />
    <glyph glyph-name="uni0643.fina" unicode="&#x643;" horiz-adv-x="2156" arabic-form="final" 
d="M1519 -98l-705 -0.00195312c-88 0 -162.667 1.66699 -224 5c-59.333 2 -110 6.33301 -152 13c-128.667 20.667 -227 83.334 -295 188.001l-1 1l-1 2c-54 100 -81 215.333 -81 346c0 30.667 1.66699 62.667 5 96v1l1 2c16 104 35.667 191.667 59 263l18 55l481 -142v-2
c-1.33301 -3.33301 -4 -14 -8 -32c-0.666992 -2 -1 -3.66699 -1 -5v-1l-22 -94l-21.5 -94c-6.33301 -27.333 -9.83301 -42.666 -10.5 -45.999h1013v1031h507l1 -1031h90v-556h-49c-73.333 0 -142 12 -206 36c-32 11.333 -61.667 25.333 -89 42c-90 -52 -193 -78 -309 -78z
M1044 1217l94.001 -158c-72.667 -44.667 -118.667 -78 -138 -100h39c13.333 0.666992 27 1 41 1c33.333 0 67 -2.33301 101 -7c62 -13.333 104.667 -44.333 128 -93c9.33301 -20 14 -40.667 14 -62c0 -31.333 -10.333 -64.333 -31 -99c-28.667 -44 -76.667 -79 -144 -105
c-63.333 -24 -143.333 -40.667 -240 -50l-17 183c72.667 7.33301 143 23.333 211 48c5.33301 2 8 4 8 6c0 0.666992 -1.5 1.5 -4.5 2.5s-11.333 1.66699 -25 2s-29.5 0.166016 -47.5 -0.500977c-20 0 -39.833 0.166992 -59.5 0.5s-35.834 1.5 -48.501 3.5
c-56 10.667 -95 36.667 -117 78c-10.667 19.333 -16 40.333 -16 63c0 24.667 6.66699 51.667 20 81c14 30 37.333 60 70 90c38.667 36.667 92.667 75.334 162 116.001z" />
    <glyph glyph-name="uni0643.init" unicode="&#x643;" horiz-adv-x="1239" arabic-form="initial" 
d="M-15 -98v556.002h558c-42 43.333 -86.333 86.333 -133 129c-74.667 67.333 -141.334 124.666 -200.001 171.999l-92 72l-39 29l48 404l901 410l211 -462l-537 -244c0.666992 -1.33301 1.66699 -2.33301 3 -3l147 -150l28 -29l1 -1c37.333 -38.667 70 -74.667 98 -108
c29.333 -34.667 53 -71.334 71 -110.001h1c24 -52 39 -100 45 -144c4.66699 -32.667 7 -64 7 -94c0 -9.33301 -0.333008 -19 -1 -29c-2 -40.667 -12.333 -85.334 -31 -134.001c-15.333 -39.333 -43 -79.333 -83 -120c-40 -41.333 -97.667 -75.666 -173 -102.999l-1 -1
c-79.333 -26.667 -178.666 -40 -297.999 -40h-531z" />
    <glyph glyph-name="uni0643.medi" unicode="&#x643;" horiz-adv-x="1308" arabic-form="medial" 
d="M1274 -98c-78.667 0 -151.831 5.49902 -219.498 16.499s-132.5 33.5 -194.5 67.5l-1 1c-30.667 18.667 -59 38.667 -85 60c-33.333 -29.333 -70.333 -54.666 -111 -75.999c-89.333 -46 -186.333 -69 -291 -69h-387v556h357c45.333 0 88 3.66699 128 11l-85 113l-255 307
l82 357l884 434l220 -455l-577 -287l108 -140.5l125 -164.5c64 -88 111 -140 141 -156c15.333 -8.66699 34.666 -14 57.999 -16s57.666 -3 102.999 -3h49v-556h-49z" />
    <glyph glyph-name="uni0644.fina" unicode="&#x644;" horiz-adv-x="1562" arabic-form="final" 
d="M1469 1487l0.000976562 -1029h108v-556h-49c-23.333 0 -46 1.33301 -68 4c-18.667 -151.333 -66.667 -268.333 -144 -351c-64.667 -68 -149.334 -118 -254.001 -150c-86.667 -27.333 -193 -41 -319 -41c-125.333 0 -237.166 25.167 -335.499 75.5
s-177.833 123.166 -238.5 218.499c-26.667 41.333 -47.334 84.5 -62.001 129.5s-25.334 81.167 -32.001 108.5v1c-14 58.667 -21 117.667 -21 177c0 12 0.333008 24 1 36c5.33301 146 46.333 299 123 459l20 44l458 -215l-20 -44c-46.667 -101.333 -71.667 -189 -75 -263
v-10c0 -44 8 -78.667 24 -104c18.667 -26 44 -42.833 76 -50.5s59.333 -11.5 82 -11.5c36 0 71.333 1.66699 106 5s61.334 10.666 80.001 21.999c8.66699 5.33301 16.5 16.166 23.5 32.499s10.5 45.166 10.5 86.499v1426h506z" />
    <glyph glyph-name="uni0644.init" unicode="&#x644;" horiz-adv-x="726" arabic-form="initial" 
d="M-15 -98v556h134v1032h506l1 -1052c-7.33301 -100 -20 -168.667 -38 -206v-1c-27.333 -68 -68.333 -128.333 -123 -181c-107.333 -98 -241 -147.333 -401 -148h-79z" />
    <glyph glyph-name="uni0644.medi" unicode="&#x644;" horiz-adv-x="702" arabic-form="medial" 
d="M627 458h90v-556h-49c-73.333 0 -142 12 -206 36c-32 11.333 -61.667 25.333 -89 42c-90 -52 -193 -78 -309 -78h-79v556h134v1031h507z" />
    <glyph glyph-name="uni0645.fina" unicode="&#x645;" horiz-adv-x="1620" arabic-form="final" 
d="M1584 458l51 0.000976562v-556h-80c-83.333 0 -144 26 -182 78c-88.667 -76.667 -183 -115 -283 -115c-30.667 0 -59.334 3.66699 -86.001 11c-72.667 21.333 -148.667 49 -228 83c-80 34 -146.667 63.667 -200 89c0 -129.333 0.333008 -335 1 -617v-67h-507v1192
l304 174l24 -13c0.666992 0 1 -0.333008 1 -1c4.66699 -2 16.334 -8.33301 35.001 -19c6.66699 -3.33301 13.334 -7 20.001 -11l38 -21c21.333 53.333 62 116.666 122 189.999c110 121.333 238.333 182 385 182c200 0 352.667 -83.667 458 -251
c37.333 -64.667 64 -130.334 80 -197.001c9.33301 -39.333 15.666 -75.666 18.999 -108.999c0 0.666992 0.333008 1 1 1c2.66699 -15.333 11.667 -23 27 -23zM1134 366.001c6.66699 19.333 9.99902 40.334 9.99902 63.001c0 12 -1 24.667 -3 38c-6 39.333 -20 71.333 -42 96
c-22 25.333 -49.333 38 -82 38c-24.667 0 -45.667 -8 -63 -24c-17.333 -16.667 -33 -39 -47 -67c-13.333 -28.667 -26.666 -61.334 -39.999 -98.001l27 -13l69 -32l87 -39c11.333 -4 21.333 -6 30 -6c26 0 44 14.667 54 44z" />
    <glyph glyph-name="uni0645.init" unicode="&#x645;" horiz-adv-x="1324" arabic-form="initial" 
d="M1260 472c0.666992 -16.667 1.00195 -33 1.00195 -49c0 -183.333 -49.667 -324.333 -149 -423c-55.333 -51.333 -108.5 -84.666 -159.5 -99.999s-87.167 -23 -108.5 -23c-10.667 -0.666992 -21.334 -1 -32.001 -1c-60.667 0 -118.334 6 -173.001 18
s-104.334 26.5 -149.001 43.5s-82.667 33.5 -114 49.5c-38.667 -26.667 -84.667 -47.5 -138 -62.5s-102.333 -22.5 -147 -22.5h-106v556h76c32.667 0 55.167 1.66699 67.5 5s20.166 7.66602 23.499 12.999c14.667 17.333 30 54.333 46 111
c4.66699 16.667 10.334 35 17.001 55c4 16.667 16.333 46.667 37 90s52.334 89.333 95.001 138c104 110.667 230.667 166 380 166c168.667 0 305.334 -72 410.001 -216c41.333 -60.667 71.666 -122.167 90.999 -184.5s30 -116.833 32 -163.5zM819.002 304
c12.667 6.66699 23.667 24.001 33 52.001c6 19.333 9 39.666 9 60.999c0 10 -0.666992 20 -2 30c-3.33301 21.333 -11 42.833 -23 64.5s-27.5 40.167 -46.5 55.5s-40.5 23 -64.5 23s-44.5 -12 -61.5 -36s-30.667 -50.5 -41 -79.5s-17.833 -52.833 -22.5 -71.5
c16.667 -14 39 -28.833 67 -44.5s55.667 -29 83 -40s47.333 -16.5 60 -16.5c4 0 7 0.666992 9 2z" />
    <glyph glyph-name="uni0645.medi" unicode="&#x645;" horiz-adv-x="1278" arabic-form="medial" 
d="M1239 458l54 0.00195312v-556h-80c-33.333 0 -65.333 7.5 -96 22.5s-57.667 31.5 -81 49.5c-50.667 -39.333 -98.334 -65 -143.001 -77c-42.667 -12 -73.334 -18 -92.001 -18h-3c-11.333 -1.33301 -22 -2 -32 -2c-61.333 0 -119.333 8.33301 -174 25s-104 36 -148 58
s-81 41.667 -111 59c-40 -38 -88.333 -67 -145 -87s-108.667 -30 -156 -30h-47v556h30c32 0 54.167 1.83301 66.5 5.5s20.5 7.83398 24.5 12.501c14.667 17.333 29.667 54.666 45 111.999l17 55c4.66699 16.667 17.334 46.5 38.001 89.5s52.334 88.833 95.001 137.5
c104 110.667 230.667 166 380 166c75.333 0 142 -12.833 200 -38.5s108 -59.334 150 -101.001s76.5 -87.334 103.5 -137.001s47 -99 60 -148s19.5 -92.833 19.5 -131.5c0 -4 0.333008 -7.66699 1 -11s2.66699 -6 6 -8s9.33301 -3 18 -3zM773 305.002
c12 7.33301 22.667 25.001 32 53.001c6.66699 19.333 10 40 10 62c0 9.33301 -0.666992 18.666 -2 27.999c-3.33301 21.333 -11 42.833 -23 64.5s-27.5 40.167 -46.5 55.5s-40.5 23 -64.5 23c-24.667 0 -45.5 -12 -62.5 -36s-30.667 -50.5 -41 -79.5
s-17.5 -52.833 -21.5 -71.5c16.667 -14.667 38.834 -29.667 66.501 -45s55.167 -28.5 82.5 -39.5s47.666 -16.5 60.999 -16.5c4 0 7 0.666992 9 2z" />
    <glyph glyph-name="uni0646.fina" unicode="&#x646;" horiz-adv-x="1697" arabic-form="final" 
d="M778 -636c-118.667 0 -221.664 15.998 -308.997 47.998c-86.667 32 -159 75.667 -217 131c-57.333 54 -103 114.667 -137 182c-33.333 66.667 -55 140.334 -65 221.001c-5.33301 50 -8 96.333 -8 139c0 22.667 0.666992 44 2 64c10.667 156 58.667 330 144 522l20 45
l463 -208l-20 -45c-60.667 -134.667 -94 -249.334 -100 -344.001v-6l-1 -3c-0.666992 -7.33301 -1 -16 -1 -26s0.333008 -21.333 1 -34c2 -19.333 9 -39.333 21 -60c10.667 -18.667 31 -35 61 -49c32 -15.333 80.667 -23 146 -23h118c62 0 109.333 5.33301 142 16
c33.333 12.667 52.666 23.334 57.999 32.001c10 12.667 16 25 18 37c2 14.667 3 28.334 3 41.001v729h507v-287c0 -15.333 1.66699 -24 5 -26c2 -3.33301 9 -5 21 -5h72v-553h-72c-10.667 0 -21.334 0.333008 -32.001 1c-5.33301 -54 -19 -106.667 -41 -158
c-31.333 -76 -73.333 -139.667 -126 -191c-52 -50 -110 -89.333 -174 -118c-62.667 -27.333 -127.334 -46.333 -194.001 -57c-66 -10 -128.333 -15 -187 -15h-118zM1082 818.998l-234 -233l-233 233l233 234z" />
    <glyph glyph-name="uni0646.init" unicode="&#x646;" horiz-adv-x="817" arabic-form="initial" 
d="M-15 -98l0.000976562 556.002h263c-0.666992 0 -4 16 -10 48l-21 110l-21 110l-10 48l491 149l11 -57c6.66699 -38.667 15.167 -85.334 25.5 -140.001l29.5 -161c10.667 -54.667 16 -105.334 16 -152.001c0 -25.333 -1.66699 -49.333 -5 -72
c-4.66699 -42 -15 -87 -31 -135s-38 -89.667 -66 -125c-60.667 -73.333 -129.334 -123.333 -206.001 -150h-2c-62 -19.333 -133.667 -29 -215 -29h-249zM594.001 1223l-234 -233l-233 233l233 234z" />
    <glyph glyph-name="uni0646.medi" unicode="&#x646;" horiz-adv-x="838" arabic-form="medial" 
d="M765 -98c-101.333 0 -194.333 23 -279 69c-22.667 -11.333 -45.667 -21.333 -69 -30c-72.667 -26 -154 -39 -244 -39h-188v556h247v315h507v-315h114v-556h-88zM638 1155l-234 -233l-233 233l233 234z" />
    <glyph glyph-name="uni0647.fina" unicode="&#x647;" horiz-adv-x="1413" arabic-form="final" 
d="M1427 458l-0.00195312 -556h-59c-206.667 0 -367.667 54.333 -483 163c-55.333 -26 -108.666 -42.667 -159.999 -50s-101 -11 -149 -11c-117.333 0 -220.333 32.333 -309 97c-101.333 76 -167.666 189 -198.999 339c-8.66699 38 -13 81.333 -13 130
c0 16 1.16699 45.5 3.5 88.5s23.5 101.5 63.5 175.5c77.333 136 213.333 235 408 297l-14 60l495 113l11 -47l80 -348l14 -64l37 -163.5c11.333 -47.667 24.333 -99.5 39 -155.5c12 -45.333 58.667 -68 140 -68h95zM651.998 456c39.333 24 58.999 57.334 58.999 100.001
c0 1.33301 -0.333008 13.5 -1 36.5s-8 58.167 -22 105.5l-10 37c-53.333 -23.333 -92.166 -40.833 -116.499 -52.5s-41.833 -22.834 -52.5 -33.501c-24.667 -26.667 -37 -56 -37 -88c0 -1.33301 0.166992 -10.5 0.5 -27.5s10.5 -36.833 30.5 -59.5
c12 -12.667 25 -21.667 39 -27s28 -8 42 -8s27 1.83301 39 5.5s21.667 7.5 29 11.5z" />
    <glyph glyph-name="uni0647.init" unicode="&#x647;" horiz-adv-x="1915" arabic-form="initial" 
d="M1808 551c21.333 -64.667 32.001 -125.332 32.001 -181.999c0 -42.667 -6 -83 -18 -121c-17.333 -60.667 -50.333 -118.667 -99 -174c-49.333 -56.667 -118.333 -101.667 -207 -135c-74.667 -28 -165 -42 -271 -42c-19.333 0 -39 0.333008 -59 1
c-166.667 10 -296 21.667 -388 35l-127 19c-66 -18 -132.333 -30.667 -199 -38c-70 -8 -143.333 -12 -220 -12h-267v556h116c-4 26.667 -6 54 -6 82c0 160 53 299 159 417h1c110 118.667 247.667 178 413 178c109.333 0 207.666 -26.667 294.999 -80l218 221l26 -24l62 -61
l73 -70.5l59 -56.5l158 -154c128 -128.667 211 -248.334 249 -359.001zM670.001 410.002c2 0 10 2 24 6s29.833 11.333 47.5 22s33.334 25.334 47.001 44.001s20.5 42.667 20.5 72c0 48 -14.167 86.167 -42.5 114.5s-60.5 42.5 -96.5 42.5c-16 0 -35.5 -4.33301 -58.5 -13
s-43.167 -24.334 -60.5 -47.001s-26 -55 -26 -97c0 -24.667 7.16699 -46 21.5 -64s30.666 -32.833 48.999 -44.5s34.833 -20.5 49.5 -26.5s23 -9 25 -9zM1374 429.002l-0.000976562 5.99902c0 28.667 -20.833 63.167 -62.5 103.5s-91.167 83.166 -148.5 128.499
c-3.33301 2.66699 -6.33301 5.33398 -9 8.00098c19.333 -47.333 29 -93.666 29 -138.999c0 -3.33301 -0.166992 -17.5 -0.5 -42.5s-8.16602 -58.833 -23.499 -101.5c31.333 -14 63.333 -21 96 -21c12 0 32.333 2.33301 61 7s48 21.667 58 51z" />
    <glyph glyph-name="uni0647.medi" unicode="&#x647;" horiz-adv-x="1333" arabic-form="medial" 
d="M1126 -98c-9.33301 0 -16.6641 -2.99902 -21.9971 -8.99902s-9.33301 -12.333 -12 -19c-2.66699 -8.66699 -4 -18 -4 -28c0 -8.66699 1.83301 -20.334 5.5 -35.001s15.5 -31 35.5 -49l27 -22l-146 -376l-28 -4c-110.667 0 -208.334 12.5 -293.001 37.5
s-158 57.833 -220 98.5s-114.167 85.167 -156.5 133.5s-76.333 96.333 -102 144s-44.5 90.834 -56.5 129.501c-9.33301 -0.666992 -23 -1 -41 -1h-56.5h-50.5h-21v556h138c1.33301 12.667 5.66602 35.5 12.999 68.5s19 72.167 35 117.5s37.333 92 64 140
s60 92.833 100 134.5s88 75.5 144 101.5s121.333 39 196 39c85.333 0 156.833 -12.167 214.5 -36.5s104.667 -54.5 141 -90.5s64.166 -72.333 83.499 -109c22 -40.667 38.333 -80.5 49 -119.5s17.5 -74.167 20.5 -105.5s4.5 -55.333 4.5 -72
c0 -22.667 -1.66699 -45.334 -5 -68.001h165v-556h-222zM710.002 -212.999c-12.667 29.333 -20.001 61.668 -22.001 97.001c-0.666992 12 -1 23.667 -1 35c0 22.667 1.5 47.5 4.5 74.5s6.83301 51.5 11.5 73.5l7 32c-15.333 -7.33301 -35.166 -15.5 -59.499 -24.5
s-47.5 -16.833 -69.5 -23.5s-37.333 -10.667 -46 -12c8.66699 -48.667 32.5 -96.834 71.5 -144.501s73.5 -83.5 103.5 -107.5zM535.001 425.003c52.667 0 100.665 12.668 143.998 38.001s65 55.666 65 90.999c0 31.333 -7.16699 52.833 -21.5 64.5
s-30.166 17.5 -47.499 17.5c-29.333 -0.666992 -53.666 -14.167 -72.999 -40.5s-34.333 -56 -45 -89s-18 -60.167 -22 -81.5z" />
    <glyph glyph-name="uni0648.fina" unicode="&#x648;" horiz-adv-x="1227" arabic-form="final" 
d="M560 405l155 0.00292969v96c0 31.333 -11.333 57.666 -34 78.999c-22.667 20.667 -50.667 31 -84 31c-32.667 0 -60 -10.667 -82 -32s-33 -47.333 -33 -78c0 -16.667 1.66699 -32.334 5 -47.001c4 -14.667 11.333 -26.334 22 -35.001c11.333 -9.33301 28.333 -14 51 -14z
M1155 458.003l87 -0.00195312v-556h-100c-6.66699 -38.667 -16.667 -74.334 -30 -107.001c-28 -72 -63.667 -133 -107 -183c-42 -48.667 -84.667 -89.667 -128 -123l-2 -2c-26 -18 -61.333 -37 -106 -57c-45.333 -20 -109 -36.333 -191 -49
c-70 -11.333 -159.333 -17 -268 -17h-159v552h1c4.66699 0 28.667 0.333008 72 1h496c1.33301 0 3.33301 0.833008 6 2.5s4 4.16699 4 7.5s-1.33301 5.83301 -4 7.5s-4.66699 2.5 -6 2.5c-56 0 -114 2.66699 -174 8s-117.833 16.5 -173.5 33.5s-105.5 43.333 -149.5 79
s-79.167 83.334 -105.5 143.001s-39.5 134.834 -39.5 225.501c0 116.667 16.5 214.5 49.5 293.5s75.5 142.333 127.5 190s108 81.834 168 102.501s117 31 171 31c156 0 290.667 -59 404 -177v-1h1c98 -112 150 -247.667 156 -407z" />
    <glyph glyph-name="uni0649.fina" unicode="&#x649;" horiz-adv-x="1939" arabic-form="final" 
d="M786 -637c-235.333 0 -422.334 82.665 -561.001 247.998c-116.667 150 -175 326.667 -175 530c0 89.333 14.5 187 43.5 293s68.5 205.333 118.5 298l22 41l453 -219l-22 -44c-70 -142.667 -105 -265.667 -105 -369c0.666992 -152 76 -228 226 -228h266
c15.333 0 39.333 0.166992 72 0.5s64.334 0.833008 95.001 1.5s52 1.33398 64 2.00098c-58.667 18.667 -114.667 32.167 -168 40.5s-96 13.833 -128 16.5l-48 4v480h1015v-556h-178v-10c0 -116 -28 -213.667 -84 -293c-48 -67.333 -115 -120.666 -201 -159.999
c-112 -50.667 -259.667 -76 -443 -76h-262z" />
    <glyph glyph-name="uni064A.fina" unicode="&#x64a;" horiz-adv-x="1939" arabic-form="final" 
d="M786 -637c-235.333 0 -422.334 82.665 -561.001 247.998c-116.667 150 -175 326.667 -175 530c0 89.333 14.5 187 43.5 293s68.5 205.333 118.5 298l22 41l453 -219l-22 -44c-70 -142.667 -105 -265.667 -105 -369c0.666992 -152 76 -228 226 -228h266
c15.333 0 39.333 0.166992 72 0.5s64.334 0.833008 95.001 1.5s52 1.33398 64 2.00098c-58.667 18.667 -114.667 32.167 -168 40.5s-96 13.833 -128 16.5l-48 4v480h1015v-556h-178v-10c0 -116 -28 -213.667 -84 -293c-48 -67.333 -115 -120.666 -201 -159.999
c-112 -50.667 -259.667 -76 -443 -76h-262zM697.999 -711.002l220 -219l-220 -220l-219 220zM1167 -711.002l220 -219l-220 -220l-219 220z" />
    <glyph glyph-name="uni064A.init" unicode="&#x64a;" horiz-adv-x="1007" arabic-form="initial" 
d="M-20 -98v556h458c-0.666992 2.66699 -4 19.5 -10 50.5l-21 108l-21 109.5l-9 48l490 149l11 -57l26 -140l29 -161c10.667 -56 16 -107.667 16 -155c0 -24 -1.33301 -46.667 -4 -68c-5.33301 -42.667 -16 -88 -32 -136s-37.667 -89.667 -65 -125
c-61.333 -73.333 -130.333 -123 -207 -149l-1 -1c-62 -19.333 -134 -29 -216 -29h-444zM257 -159l220 -219l-220 -220l-219 220zM726 -159l220 -219l-220 -220l-219 220z" />
    <glyph glyph-name="uni064A.medi" unicode="&#x64a;" horiz-adv-x="1038" arabic-form="medial" 
d="M935 -98c-101.333 0 -194.333 23 -279 69c-22.667 -11.333 -45.667 -21.333 -69 -30c-72.667 -26 -154 -39 -244 -39h-358v556h417v315h507v-315h144v-556h-118zM265 -153l220 -219l-220 -220l-219 220zM734 -153l220 -219l-220 -220l-219 220z" />
    <glyph glyph-name=".notdef" horiz-adv-x="1229" 
d="M102 -362v1806h1024v-1806h-1024zM217 -248h795v1577h-795v-1577z" />
    <glyph glyph-name="NULL" unicode="&#xfeff;" 
 />
    <glyph glyph-name="NULL" 
 />
    <glyph glyph-name="space" unicode=" " horiz-adv-x="696" 
 />
    <glyph glyph-name="space" unicode="&#xa0;" horiz-adv-x="696" 
 />
    <glyph glyph-name="exclam" unicode="!" horiz-adv-x="687" 
d="M601 -101l-258 -257l-257 257l257 258zM112 280l-62 1278h587l-63 -1278h-462z" />
    <glyph glyph-name="quotedbl" unicode="&#x22;" horiz-adv-x="1076" 
d="M103 880l-33 660h418l-33 -660h-352zM620 880l-33 660h418l-33 -660h-352z" />
    <glyph glyph-name="numbersign" unicode="#" horiz-adv-x="1628" 
d="M1599 909h-308l-33 -278h267v-330h-308l-38 -301h-352l38 301h-218l-38 -301h-352l38 301h-266v330h308l33 278h-267v330h308l38 301h352l-38 -301h218l38 301h352l-38 -301h266v-330zM906 631l33 278h-217l-33 -278h217z" />
    <glyph glyph-name="dollar" unicode="$" horiz-adv-x="1445" 
d="M1417 484c0 -79.333 -19.0029 -153.5 -57.0029 -222.5s-95 -128 -171 -177s-171 -83.833 -285 -104.5v-244h-310v233c-232.667 17.333 -421 68.666 -565 153.999l167 379c169.333 -94 338.666 -141 507.999 -141c74 0 125.833 7.33301 155.5 22s44.5 35 44.5 61
c0 24 -11.5 43.333 -34.5 58s-54.167 27.167 -93.5 37.5s-83.333 20.5 -132 30.5c-50.667 10 -103.167 21.833 -157.5 35.5s-107.166 31.334 -158.499 53.001s-97.666 49.667 -138.999 84s-74.333 77 -99 128s-37 112.833 -37 185.5c0 82.667 20 159.5 60 230.5
s100.167 130.667 180.5 179s180.5 81.166 300.5 98.499v240h310v-235c168 -15.333 317 -58 447 -128l-156 -376c-152 76 -295 114 -429 114c-50.667 0 -90.667 -4.33301 -120 -13s-50.166 -20.334 -62.499 -35.001s-18.5 -31 -18.5 -49c0 -22 11.5 -40 34.5 -54
s53.667 -25.833 92 -35.5s81.5 -19.167 129.5 -28.5c50.667 -9.33301 103.334 -20.666 158.001 -33.999s108 -30.666 160 -51.999s98.833 -49 140.5 -83s75 -76.333 100 -127s37.5 -112 37.5 -184z" />
    <glyph glyph-name="percent" unicode="%" horiz-adv-x="2017" 
d="M444 704c-77.333 0 -146.833 16.667 -208.5 50s-110.5 82 -146.5 146s-54 141.667 -54 233c0 90.667 18 168 54 232s84.833 112.833 146.5 146.5s131.167 50.5 208.5 50.5c78 0 147.833 -16.833 209.5 -50.5s110.5 -82.5 146.5 -146.5s54 -141.333 54 -232
c0 -91.333 -18 -169 -54 -233s-84.833 -112.667 -146.5 -146s-131.5 -50 -209.5 -50zM297 0l1052 1540h371l-1051 -1540h-372zM444 942c16.667 0 32.334 5.66699 47.001 17s26.667 30.833 36 58.5s14 66.167 14 115.5s-4.66699 87.833 -14 115.5s-21.333 47.167 -36 58.5
s-30.334 17 -47.001 17c-16 0 -31.333 -5.66699 -46 -17s-26.667 -30.833 -36 -58.5s-14 -66.167 -14 -115.5s4.66699 -87.833 14 -115.5s21.333 -47.167 36 -58.5s30 -17 46 -17zM1573 -22c-78 0 -147.833 16.667 -209.5 50s-110.334 82 -146.001 146
s-53.5 141.667 -53.5 233c0 90.667 17.833 168 53.5 232s84.334 112.833 146.001 146.5s131.5 50.5 209.5 50.5s147.833 -16.833 209.5 -50.5s110.334 -82.5 146.001 -146.5s53.5 -141.333 53.5 -232c0 -91.333 -17.833 -169 -53.5 -233s-84.334 -112.667 -146.001 -146
s-131.5 -50 -209.5 -50zM1573 216c16 0 31.5 5.66699 46.5 17s27.167 30.833 36.5 58.5s14 66.167 14 115.5s-4.66699 87.833 -14 115.5s-21.5 47.167 -36.5 58.5s-30.5 17 -46.5 17s-31.5 -5.66699 -46.5 -17s-27.167 -30.833 -36.5 -58.5s-14 -66.167 -14 -115.5
s4.66699 -87.833 14 -115.5s21.5 -47.167 36.5 -58.5s30.5 -17 46.5 -17z" />
    <glyph glyph-name="ampersand" unicode="&#x26;" horiz-adv-x="1709" 
d="M1643 744c-28 -128 -76.334 -243.998 -145.001 -347.998l145 -123l-266 -302l-163 141c-73.333 -47.333 -153.166 -83.666 -239.499 -108.999s-177.833 -38 -274.5 -38c-123.333 0 -233.5 19.333 -330.5 58s-173.333 91.667 -229 159s-83.5 143.666 -83.5 228.999
c0 97.333 24.333 181.666 73 252.999s124 135.333 226 192c-88 95.333 -132 193.666 -132 294.999c0 122.667 50.667 222.5 152 299.5s235.666 115.5 402.999 115.5c152.667 0 275.834 -35.167 369.501 -105.5s140.5 -164.833 140.5 -283.5
c0 -78 -21.833 -147.667 -65.5 -209s-110.5 -117 -200.5 -167l163 -139c26 60 45.667 126.667 59 200zM780.999 1245c-34 0 -60.167 -8.33301 -78.5 -25s-27.5 -37.667 -27.5 -63c0 -18.667 5.33301 -36.834 16 -54.501s31 -40.5 61 -68.5c44.667 24 76 46.833 94 68.5
s27 42.834 27 63.501c0 23.333 -7.66699 42.333 -23 57s-38.333 22 -69 22zM736.999 334.002c59.333 0 117.333 12.666 174 37.999l-282 242c-57.333 -41.333 -86 -90.666 -86 -147.999c0 -36 17 -67 51 -93s81.667 -39 143 -39z" />
    <glyph glyph-name="quotesingle" unicode="'" horiz-adv-x="559" 
d="M103 880l-33 660h418l-33 -660h-352z" />
    <glyph glyph-name="parenleft" unicode="(" horiz-adv-x="1014" 
d="M595 -767c-4.66699 4 -20.834 21.6699 -48.501 53.0029s-62 75 -103 131s-84.167 123.167 -129.5 201.5s-88 166.166 -128 263.499s-72.667 203 -98 317s-38 234.667 -38 362c0 123.333 13 239.333 39 348s59.167 209 99.5 301s83.5 174.667 129.5 248
s89.833 136 131.5 188s76.5 92.5 104.5 121.5s44.333 45.167 49 48.5l302 -329c-2 -0.666992 -23.833 -24.334 -65.5 -71.001s-89.5 -112 -143.5 -196c-132.667 -216.667 -199 -436.334 -199 -659.001c0 -100.667 10.833 -196.167 32.5 -286.5s48.5 -172.833 80.5 -247.5
s64.333 -140 97 -196c54 -89.333 101.333 -158.833 142 -208.5s62.334 -75.167 65.001 -76.5z" />
    <glyph glyph-name="parenright" unicode=")" horiz-adv-x="1014" 
d="M419 -767l-319 312.997c2.66699 1.33301 24.334 26.833 65.001 76.5s88 119.167 142 208.5c32.667 56 65 121.333 97 196s58.833 157.167 80.5 247.5s32.5 185.833 32.5 286.5c0 222.667 -66.333 442.334 -199 659.001c-54 84 -101.833 149.333 -143.5 196
s-63.5 70.334 -65.5 71.001l302 329c4.66699 -3.33301 21 -19.5 49 -48.5s62.833 -69.5 104.5 -121.5s85.5 -114.667 131.5 -188s89.167 -156 129.5 -248s73.5 -192.333 99.5 -301s39 -224.667 39 -348c0 -127.333 -12.667 -248 -38 -362s-58 -219.667 -98 -317
s-82.667 -185.166 -128 -263.499s-88.5 -145.5 -129.5 -201.5s-75.333 -99.667 -103 -131s-43.834 -49 -48.501 -53z" />
    <glyph glyph-name="asterisk" unicode="*" horiz-adv-x="1041" 
d="M1027 1283l-211 -113l211 -112l-151 -246l-216 132l7 -236h-295l6 236l-215 -132l-150 246l211 112l-211 113l150 246l215 -132l-6 235h295l-7 -235l216 132z" />
    <glyph glyph-name="plus" unicode="+" horiz-adv-x="1364" 
d="M1243 957v-374h-363v-352h-396v352h-363v374h363v352h396v-352h363z" />
    <glyph glyph-name="comma" unicode="," horiz-adv-x="669" 
d="M334 546c84 0 153.5 -25.5 208.5 -76.5s82.5 -119.5 82.5 -205.5c0 -35.333 -5 -72.333 -15 -111s-33.667 -97.667 -71 -177l-154 -328h-308l110 372c-44.667 21.333 -79.667 52.833 -105 94.5s-38 91.5 -38 149.5c0 86 27.5 154.5 82.5 205.5s124.167 76.5 207.5 76.5z
" />
    <glyph glyph-name="hyphen" unicode="-" horiz-adv-x="858" 
d="M99 449v374h660v-374h-660z" />
    <glyph glyph-name="period" unicode="." horiz-adv-x="669" 
d="M50 183c0 78.667 27.5 146 82.5 202s121.833 84 200.5 84s146 -28 202 -84s84 -123.333 84 -202c0 -78 -28 -144.667 -84 -200s-123.333 -83 -202 -83s-145.5 27.667 -200.5 83s-82.5 122 -82.5 200z" />
    <glyph glyph-name="slash" unicode="/" horiz-adv-x="968" 
d="M-88 -220l726 2072h440l-726 -2072h-440z" />
    <glyph glyph-name="zero" unicode="0" horiz-adv-x="1522" 
d="M761 -35c-135.333 0 -255.5 31.667 -360.5 95s-187.333 155 -247 275s-89.5 265 -89.5 435s29.833 315 89.5 435s142 211.667 247 275s225.167 95 360.5 95c136 0 256.333 -31.667 361 -95s187 -155 247 -275s90 -265 90 -435s-30 -315 -90 -435
s-142.333 -211.667 -247 -275s-225 -95 -361 -95zM761 381c34 0 64.167 11.833 90.5 35.5s47.166 63.834 62.499 120.501s23 134.334 23 233.001c0 99.333 -7.66699 177.166 -23 233.499s-36.166 96.333 -62.499 120s-56.5 35.5 -90.5 35.5
c-33.333 0 -63.333 -11.833 -90 -35.5s-47.667 -63.667 -63 -120s-23 -134.166 -23 -233.499c0 -98.667 7.66699 -176.334 23 -233.001s36.333 -96.834 63 -120.501s56.667 -35.5 90 -35.5z" />
    <glyph glyph-name="one" unicode="1" horiz-adv-x="920" 
d="M11 1540h783v-1540h-519v1148h-264v392z" />
    <glyph glyph-name="two" unicode="2" horiz-adv-x="1338" 
d="M777 403h518.999v-403h-1234v319l556 515c34.667 32.667 60.834 61.667 78.501 87s29.167 48 34.5 68s8 38.667 8 56c0 37.333 -12.5 66.833 -37.5 88.5s-62.167 32.5 -111.5 32.5c-46.667 0 -90.167 -12.167 -130.5 -36.5s-72.5 -59.833 -96.5 -106.5l-392 196
c38 70.667 87.833 132.667 149.5 186s135.667 95 222 125s184.833 45 295.5 45c122 0 229.667 -19.833 323 -59.5s166.666 -95.5 219.999 -167.5s80 -157 80 -255c0 -50 -6.5 -99.833 -19.5 -149.5s-38.667 -102.167 -77 -157.5s-94.166 -116.333 -167.499 -183z" />
    <glyph glyph-name="three" unicode="3" horiz-adv-x="1351" 
d="M928 931c121.333 -31.333 213.332 -85.501 275.999 -162.501s94 -168.833 94 -275.5c0 -66 -13.667 -130.5 -41 -193.5s-69.5 -119.5 -126.5 -169.5s-129.833 -90 -218.5 -120s-194.667 -45 -318 -45c-105.333 0 -211.833 11.5 -319.5 34.5s-203.5 57.5 -287.5 103.5
l176 383c66.667 -38 136 -66.167 208 -84.5s140.333 -27.5 205 -27.5c58.667 0 106.834 9.83301 144.501 29.5s56.5 49.5 56.5 89.5c0 32.667 -14 58.334 -42 77.001s-75 28 -141 28h-205v319l227 231h-550v392h1148v-319z" />
    <glyph glyph-name="four" unicode="4" horiz-adv-x="1566" 
d="M1558 667v-403h-205v-264h-504v264h-798v330l653 946h532l-580 -873h209v235h488v-235h205z" />
    <glyph glyph-name="five" unicode="5" horiz-adv-x="1362" 
d="M693 997c114 0 211 -12.665 291 -37.998s144.833 -60.333 194.5 -105s86 -96.834 109 -156.501s34.5 -123.5 34.5 -191.5c0 -68.667 -13.5 -135.334 -40.5 -200.001s-69.167 -122.5 -126.5 -173.5s-130.333 -91.667 -219 -122s-194.667 -45.5 -318 -45.5
c-105.333 0 -211.833 11.5 -319.5 34.5s-203.5 57.5 -287.5 103.5l176 383c66.667 -38 135.667 -66.167 207 -84.5s139.333 -27.5 204 -27.5c58.667 0 107.167 10.333 145.5 31s57.5 50.667 57.5 90c0 22 -6.5 41.333 -19.5 58s-36.333 29.5 -70 38.5
s-81.5 13.5 -143.5 13.5h-447l77 935h1023v-392h-596l-11 -151h79z" />
    <glyph glyph-name="six" unicode="6" horiz-adv-x="1454" 
d="M900 997c94 0 181 -20.1641 261 -60.4971s144.5 -97.333 193.5 -171s73.5 -160.834 73.5 -261.501c0 -110 -28 -205.333 -84 -286s-131.167 -143 -225.5 -187s-199.5 -66 -315.5 -66c-146.667 0 -275.5 28 -386.5 84s-197.5 140.167 -259.5 252.5s-93 252.5 -93 420.5
c0 179.333 35.833 332.666 107.5 459.999s171.5 224.666 299.5 291.999s276.667 101 446 101c91.333 0 179 -10.5 263 -31.5s155.667 -50.833 215 -89.5l-187 -363c-45.333 31.333 -91.166 52.833 -137.499 64.5s-93.833 17.5 -142.5 17.5c-88 0 -161 -22.167 -219 -66.5
s-96.333 -109.5 -115 -195.5c38 27.333 82.167 48.5 132.5 63.5s108.166 22.5 173.499 22.5zM768 323.003c46 0 83.833 14 113.5 42s44.5 66.333 44.5 115c0 48 -14.833 86.333 -44.5 115s-67.5 43 -113.5 43s-84 -14.333 -114 -43s-45 -67 -45 -115
c0 -48.667 15 -87 45 -115s68 -42 114 -42z" />
    <glyph glyph-name="seven" unicode="7" horiz-adv-x="1419" 
d="M46 1540h1318v-319l-513 -1221h-567l488 1137h-297v-224h-429v627z" />
    </font>
</defs>
</svg>
