<?xml version="1.0" standalone="no"?>
<!DOCTYPE svg PUBLIC "-//W3C//DTD SVG 1.1//EN" "http://www.w3.org/Graphics/SVG/1.1/DTD/svg11.dtd" >
<svg>
<metadata>
Created by FontForge 20090914 at Sun Sep 22 22:56:19 2019
 By www-data
Copyright (c) 2019 by fontiran.com. All rights reserved.
</metadata>
<defs>
<font id="IRANYekan-Black" horiz-adv-x="0" >
  <font-face 
    font-family="IRANYekan Black"
    font-weight="900"
    font-stretch="normal"
    units-per-em="2200"
    panose-1="2 11 5 6 3 8 4 2 2 4"
    ascent="1760"
    descent="-440"
    x-height="1192"
    cap-height="1540"
    bbox="-523 -1295 3383 2833"
    underline-thickness="100"
    underline-position="-750"
    unicode-range="U+001D-U+FEFF"
  />
<missing-glyph horiz-adv-x="1229" 
d="M102 -362v1806h1024v-1806h-1024zM217 -248h795v1577h-795v-1577z" />
    <glyph glyph-name="allah" unicode="&#xfedf;&#xfee0;&#xfeea;" horiz-adv-x="2479" arabic-form="isolated" 
d="M1470 1445c-62.667 0 -111.998 17.668 -147.998 53.001s-54 84 -54 146v109h125v-109c0 -52.667 25.667 -77.667 77 -75c5.33301 0 13 1.5 23 4.5s19.167 9.83301 27.5 20.5s12.5 27.334 12.5 50.001v109h126v-109c0 -52.667 26 -78 78 -76
c5.33301 0 12.666 1.83301 21.999 5.5s18 11 26 22s12 27.167 12 48.5c0 26.667 -7 63.334 -21 110.001c-2.66699 10 -5.33398 20.667 -8.00098 32l118 40l8 -31c0.666992 -1.33301 1 -3 1 -5c6 -19.333 12 -42 18 -68s9 -52 9 -78c0 -44.667 -9.5 -81.834 -28.5 -111.501
s-42.833 -51.834 -71.5 -66.501s-57.667 -22 -87 -22c-56 0 -102.667 15.333 -140 46c-18 -14.667 -38 -25.834 -60 -33.501s-43.667 -11.5 -65 -11.5zM1529 1859v288l129 31v-287zM2444 1427l-0.00195312 -953.005c0 -22.667 -3.66699 -58.167 -11 -106.5
s-21.5 -99.166 -42.5 -152.499s-51.833 -100.666 -92.5 -141.999c-42 -44.667 -88.5 -78 -139.5 -100s-131.833 -33 -242.5 -33c-34 0 -70.833 2.83301 -110.5 8.5s-74.834 13.834 -105.501 24.501c-38 14 -73.333 32 -106 54c-87.333 -58 -190.666 -87 -309.999 -87
c-138.667 0 -260.334 42.333 -365.001 127s-174.334 206 -209.001 364c-4 20.667 -8.33301 39.334 -13 56.001c-1.33301 4.66699 -2.66602 9 -3.99902 13l-23 88c-6 22.667 -12.667 50 -20 82c-53.333 -11.333 -90.333 -28 -111 -50s-31 -49.333 -31 -82
c0 -23.333 3.66699 -49.666 11 -78.999c50.667 -203.333 77.667 -305 81 -305l-393 -116c-2 2.66699 -30.333 110 -85 322c-16 66 -24 127.333 -24 184c0 78 13 147 39 207s59.833 111.333 101.5 154s87.334 76.834 137.001 102.501s98.834 43.5 147.501 53.5l152 31.5
c45.333 9 76.333 14.833 93 17.5l235 -154v-3l40.5 -168l22.5 -91l23 -91l18 -69c2 -6.66699 3.66699 -13.334 5 -20.001c4 -20.667 10.333 -40 19 -58s24.334 -32.667 47.001 -44s58 -17 106 -17c36 0 62.5 5.16699 79.5 15.5s25.5 31.5 25.5 63.5v763l410 72v-851
c0 -18 9.16699 -33 27.5 -45s46.833 -18 85.5 -18c20 0 39.667 1 59 3s35 8.33301 47 19c6.66699 6.66699 11.167 15.5 13.5 26.5s3.5 21.167 3.5 30.5l-3 870z" />
    <glyph glyph-name="riyal" unicode="&#x631;&#xfef3;&#xfe8e;&#x644;" horiz-adv-x="3478" arabic-form="isolated" 
d="M734 -598c-117.333 0 -221.499 23.167 -312.499 69.5s-164.5 113.5 -220.5 201.5c-22.667 35.333 -40.834 73.333 -54.501 114s-24.5 77.334 -32.5 110.001c-13.333 53.333 -20 109.333 -20 168c0 10.667 0.333008 21.334 1 32.001c4.66699 138 44 284.667 118 440
l370 -174c-48.667 -105.333 -75 -199 -79 -281v-14c0 -52.667 10.333 -95.334 31 -128.001c16 -24.667 36.167 -43 60.5 -55s49 -20 74 -24s46.5 -6 64.5 -6c70.667 0 125.5 5 164.5 15s66.167 29 81.5 57s23 69 23 123v1377h409v-1377c0 -43.333 -3 -93.5 -9 -150.5
s-19.167 -113.833 -39.5 -170.5s-50.833 -107.334 -91.5 -152.001c-59.333 -62 -137 -107.667 -233 -137c-83.333 -25.333 -185 -38 -305 -38zM3383 713v-537.001c0 -108.667 -14.333 -214.667 -43 -318s-70 -185 -124 -245c-63.333 -72.667 -142.333 -126.667 -237 -162
c-90 -34 -192 -51 -306 -51h-98v457h98c114 0 192.667 24.333 236 73c26 32 43.167 71.333 51.5 118s12.5 89.334 12.5 128.001v537h410zM1794 -103.001l220 -219l-220 -220l-219 220zM2263 -103.001l220 -219l-220 -220l-219 220zM2090 394.999l0.000976562 -457.999h-89
c-58.667 0 -110.167 6.66699 -154.5 20s-82.166 30 -113.499 50s-57 40 -77 60c-20.667 20 -40.834 45.667 -60.501 77s-36.334 69.166 -50.001 113.499s-20.5 95.833 -20.5 154.5v271c0 126 0.166992 252.833 0.5 380.5s0.5 227.167 0.5 298.5v65h409v-968
c0 -23.333 7.66699 -39.833 23 -49.5s29 -14.5 41 -14.5h91zM2671 849l17 -91.4961l39 -212.5c10 -52 15 -100 15 -144c0 -22.667 -1.33301 -44.334 -4 -65.001c-5.33301 -40.667 -15.166 -82.834 -29.5 -126.501c-14.333 -43.667 -33.166 -79.834 -56.5 -108.501
c-46.667 -60.667 -108.334 -105.667 -185 -135c-56.667 -18 -123.667 -27 -201 -27h-249v456h249c24.667 0 41.334 3.16699 50 9.5c8.66699 6.33301 13 16.166 13 29.499c0 10 -1.33301 21.667 -4 35l-50 260z" />
    <glyph glyph-name="uni06440622.isol" unicode="&#xfedf;&#xfe82;" horiz-adv-x="1478" arabic-form="isolated" 
d="M1377 1428l-0.00195312 -684.998c0 -57.333 -1.5 -118.5 -4.5 -183.5s-12 -129 -27 -192s-39.5 -121.833 -73.5 -176.5c-57.333 -87.333 -137 -152.333 -239 -195c-91.333 -38.667 -205.666 -58 -342.999 -58h-431v456h431c69.333 0 122.833 5 160.5 15
s64.834 27.667 81.501 53s26.667 60.666 30 105.999s5 103.666 5 174.999v685h410zM655.998 1413l68 -907l-409 -31l-68 908zM946.998 1835v-287.001h-517c-40 0 -70.167 -5.5 -90.5 -16.5s-35 -24.5 -44 -40.5s-15.5 -32.667 -19.5 -50l-276 78
c11.333 42.667 27 84.334 47 125.001s49 77 87 109c63.333 54.667 162 82 296 82h517z" />
    <glyph glyph-name="uni06440622.fina" unicode="&#xfee0;&#xfe82;" horiz-adv-x="1530" arabic-form="final" 
d="M712 1413l68 -907l-408 -31l-68 908zM1433 1428l-0.000976562 -918.999c0 -39.333 5.33301 -68.166 16 -86.499s35 -27.5 73 -27.5h32v-458h-32c-74.667 0 -143.667 13 -207 39c-45.333 19.333 -86 44.333 -122 75c-31.333 -22 -65.666 -40.667 -102.999 -56
c-92 -38.667 -206.667 -58 -344 -58h-431v457h431c69.333 0 123 5 161 15s65.333 27.667 82 53s26.667 60.666 30 105.999s5 103.666 5 174.999v685h409zM946.999 1840v-287.001h-517c-40 0 -70.167 -5.5 -90.5 -16.5s-35 -24.5 -44 -40.5s-15.5 -32.667 -19.5 -50l-276 78
c11.333 42.667 27 84.334 47 125.001s49 77 87 109c63.333 54.667 162 82 296 82h517z" />
    <glyph glyph-name="uni06440623.isol" unicode="&#xfedf;&#xfe84;" horiz-adv-x="1339" arabic-form="isolated" 
d="M1238 1428l-0.00195312 -684.998c0 -57.333 -1.5 -118.5 -4.5 -183.5s-12 -129 -27 -192s-39.5 -121.833 -73.5 -176.5c-57.333 -87.333 -137 -152.333 -239 -195c-91.333 -38.667 -205.666 -58 -342.999 -58h-431v456h431c69.333 0 122.833 5 160.5 15
s64.834 27.667 81.501 53s26.667 60.666 30 105.999s5 103.666 5 174.999v685h410zM516.998 1413l68 -907l-409 -31l-68 908zM507.998 1634l-499.003 -163.999v160l115 37c-20 20.667 -35.667 43.5 -47 68.5s-17 52.167 -17 81.5c0 45.333 15.5 88.5 46.5 129.5
s68.5 68.5 112.5 82.5c22.667 6.66699 46 10 70 10c25.333 0 48.833 -3.33301 70.5 -10s42.834 -14.334 63.501 -23.001l-32 -133c-40 11.333 -73.667 17 -101 17c-9.33301 0 -17.666 -1 -24.999 -3c-15.333 -4.66699 -29.166 -13.167 -41.499 -25.5
s-18.5 -26.5 -18.5 -42.5c0 -6 1 -12.333 3 -19c4.66699 -16.667 16.5 -30.5 35.5 -41.5s45.5 -16.5 79.5 -16.5c8.66699 0 18.5 0.833008 29.5 2.5s27.833 5.5 50.5 11.5s55 16 97 30z" />
    <glyph glyph-name="uni06440623.fina" unicode="&#xfee0;&#xfe84;" horiz-adv-x="1340" arabic-form="final" 
d="M522 1413l68 -907l-408 -31l-68 908zM1243 1428l-0.000976562 -918.999c0 -39.333 5.33301 -68.166 16 -86.499s35 -27.5 73 -27.5h32v-458h-32c-74.667 0 -143.667 13 -207 39c-45.333 19.333 -86 44.333 -122 75c-31.333 -22 -65.666 -40.667 -102.999 -56
c-92 -38.667 -206.667 -58 -344 -58h-431v457h431c69.333 0 123 5 161 15s65.333 27.667 82 53s26.667 60.666 30 105.999s5 103.666 5 174.999v685h409zM510.999 1636l-499.003 -163.999v160l115 37c-20 20.667 -35.667 43.5 -47 68.5s-17 52.167 -17 81.5
c0 45.333 15.5 88.5 46.5 129.5s68.5 68.5 112.5 82.5c22.667 6.66699 46 10 70 10c25.333 0 48.833 -3.33301 70.5 -10s42.834 -14.334 63.501 -23.001l-32 -133c-40 11.333 -73.667 17 -101 17c-9.33301 0 -17.666 -1 -24.999 -3
c-15.333 -4.66699 -29.166 -13.167 -41.499 -25.5s-18.5 -26.5 -18.5 -42.5c0 -6 1 -12.333 3 -19c4.66699 -16.667 16.5 -30.5 35.5 -41.5s45.5 -16.5 79.5 -16.5c8.66699 0 18.5 0.833008 29.5 2.5s27.833 5.5 50.5 11.5s55 16 97 30z" />
    <glyph glyph-name="uni06440625.isol" unicode="&#xfedf;&#xfe88;" horiz-adv-x="1339" arabic-form="isolated" 
d="M1238 1428l-0.00195312 -684.998c0 -57.333 -1.5 -118.5 -4.5 -183.5s-12 -129 -27 -192s-39.5 -121.833 -73.5 -176.5c-57.333 -87.333 -137 -152.333 -239 -195c-91.333 -38.667 -205.666 -58 -342.999 -58h-431v456h431c69.333 0 122.833 5 160.5 15
s64.834 27.667 81.501 53s26.667 60.666 30 105.999s5 103.666 5 174.999v685h410zM516.998 1413l68 -907l-409 -31l-68 908zM694.998 -516.998l-499.003 -163.999v160l115 37c-20 20.667 -35.667 43.5 -47 68.5s-17 52.167 -17 81.5c0 45.333 15.5 88.5 46.5 129.5
s68.5 68.5 112.5 82.5c22.667 6.66699 46 10 70 10c25.333 0 48.833 -3.33301 70.5 -10s42.834 -14.334 63.501 -23.001l-32 -133c-40 11.333 -73.667 17 -101 17c-9.33301 0 -17.666 -1 -24.999 -3c-15.333 -4.66699 -29.166 -13.167 -41.499 -25.5
s-18.5 -26.5 -18.5 -42.5c0 -6 1 -12.333 3 -19c4.66699 -16.667 16.5 -30.5 35.5 -41.5s45.5 -16.5 79.5 -16.5c8.66699 0 18.5 0.833008 29.5 2.5s27.833 5.5 50.5 11.5s55 16 97 30z" />
    <glyph glyph-name="uni06440625.fina" unicode="&#xfee0;&#xfe88;" horiz-adv-x="1340" arabic-form="final" 
d="M522 1413l68 -907l-408 -31l-68 908zM1243 1428l-0.000976562 -918.999c0 -39.333 5.33301 -68.166 16 -86.499s35 -27.5 73 -27.5h32v-458h-32c-74.667 0 -143.667 13 -207 39c-45.333 19.333 -86 44.333 -122 75c-31.333 -22 -65.666 -40.667 -102.999 -56
c-92 -38.667 -206.667 -58 -344 -58h-431v457h431c69.333 0 123 5 161 15s65.333 27.667 82 53s26.667 60.666 30 105.999s5 103.666 5 174.999v685h409zM699.999 -525.999l-499.003 -163.999v160l115 37c-20 20.667 -35.667 43.5 -47 68.5s-17 52.167 -17 81.5
c0 45.333 15.5 88.5 46.5 129.5s68.5 68.5 112.5 82.5c22.667 6.66699 46 10 70 10c25.333 0 48.833 -3.33301 70.5 -10s42.834 -14.334 63.501 -23.001l-32 -133c-40 11.333 -73.667 17 -101 17c-9.33301 0 -17.666 -1 -24.999 -3
c-15.333 -4.66699 -29.166 -13.167 -41.499 -25.5s-18.5 -26.5 -18.5 -42.5c0 -6 1 -12.333 3 -19c4.66699 -16.667 16.5 -30.5 35.5 -41.5s45.5 -16.5 79.5 -16.5c8.66699 0 18.5 0.833008 29.5 2.5s27.833 5.5 50.5 11.5s55 16 97 30z" />
    <glyph glyph-name="uni06440627.isol" unicode="&#xfedf;&#xfe8e;" horiz-adv-x="1339" arabic-form="isolated" 
d="M1238 1428l-0.00195312 -684.998c0 -57.333 -1.5 -118.5 -4.5 -183.5s-12 -129 -27 -192s-39.5 -121.833 -73.5 -176.5c-57.333 -87.333 -137 -152.333 -239 -195c-91.333 -38.667 -205.666 -58 -342.999 -58h-431v456h431c69.333 0 122.833 5 160.5 15
s64.834 27.667 81.501 53s26.667 60.666 30 105.999s5 103.666 5 174.999v685h410zM516.998 1413l68 -907l-409 -31l-68 908z" />
    <glyph glyph-name="uni06440627.fina" unicode="&#xfee0;&#xfe8e;" horiz-adv-x="1340" arabic-form="final" 
d="M522 1413l68 -907l-408 -31l-68 908zM1243 1428l-0.000976562 -918.999c0 -39.333 5.33301 -68.166 16 -86.499s35 -27.5 73 -27.5h32v-458h-32c-74.667 0 -143.667 13 -207 39c-45.333 19.333 -86 44.333 -122 75c-31.333 -22 -65.666 -40.667 -102.999 -56
c-92 -38.667 -206.667 -58 -344 -58h-431v457h431c69.333 0 123 5 161 15s65.333 27.667 82 53s26.667 60.666 30 105.999s5 103.666 5 174.999v685h409z" />
    <glyph glyph-name="uni06440671.isol" unicode="&#xfedf;&#xfb51;" horiz-adv-x="1318" 
d="M1268 1428l-0.00195312 -684.998c0 -57.333 -1.5 -118.5 -4.5 -183.5s-12 -129 -27 -192s-39.5 -121.833 -73.5 -176.5c-57.333 -87.333 -137 -152.333 -239 -195c-91.333 -38.667 -205.666 -58 -342.999 -58h-431v456h431c69.333 0 122.833 5 160.5 15
s64.834 27.667 81.501 53s26.667 60.666 30 105.999s5 103.666 5 174.999v685h410zM546.998 1413l68 -907l-409 -31l-68 908zM480.998 1515h-481l26 119h133l43 66l83 122c24 35.333 53.333 63.333 88 84s72.334 31 113.001 31c31.333 0 61.833 -8 91.5 -24
s54.167 -40.5 73.5 -73.5s29 -74.833 29 -125.5c0 -49.333 -10.333 -88.5 -31 -117.5s-46.334 -49.833 -77.001 -62.5s-61 -19 -91 -19zM485.998 1818c-21.333 0 -43 -9.5 -65 -28.5s-43.333 -42.5 -64 -70.5s-39.667 -56.333 -57 -85h181c22.667 0 41.5 6.33301 56.5 19
s22.5 33 22.5 61c0 68 -24.667 102.667 -74 104z" />
    <glyph glyph-name="uni06440671.fina" unicode="&#xfee0;&#xfb51;" horiz-adv-x="1392" 
d="M575 1413l68 -907l-408 -31l-68 908zM1296 1428l-0.000976562 -918.999c0 -39.333 5.33301 -68.166 16 -86.499s35 -27.5 73 -27.5h32v-458h-32c-74.667 0 -143.667 13 -207 39c-45.333 19.333 -86 44.333 -122 75c-31.333 -22 -65.666 -40.667 -102.999 -56
c-92 -38.667 -206.667 -58 -344 -58h-431v457h431c69.333 0 123 5 161 15s65.333 27.667 82 53s26.667 60.666 30 105.999s5 103.666 5 174.999v685h409zM480.999 1517h-481l26 119h133l43 66l83 122c24 35.333 53.333 63.333 88 84s72.334 31 113.001 31
c31.333 0 61.833 -8 91.5 -24s54.167 -40.5 73.5 -73.5s29 -74.833 29 -125.5c0 -49.333 -10.333 -88.5 -31 -117.5s-46.334 -49.833 -77.001 -62.5s-61 -19 -91 -19zM485.999 1820c-21.333 0 -43 -9.5 -65 -28.5s-43.333 -42.5 -64 -70.5s-39.667 -56.333 -57 -85h181
c22.667 0 41.5 6.33301 56.5 19s22.5 33 22.5 61c0 68 -24.667 102.667 -74 104z" />
    <glyph glyph-name="uni0621" unicode="&#x621;" horiz-adv-x="1004" arabic-form="isolated" 
d="M512 954c39.333 0 78.334 -3.66699 117.001 -11s76.667 -15.666 114 -24.999c2 0 4 -0.333008 6 -1c6 -2 12 -3.33301 18 -4l-64 -277l-28 6c-18.667 4 -43 8 -73 12c-12 0.666992 -23.667 1 -35 1c-38.667 0 -70.834 -6 -96.501 -18s-44.834 -27 -57.501 -45
s-19 -36 -19 -54c0 -6.66699 1 -13.334 3 -20.001c8 -26 27.167 -48 57.5 -66s72.833 -27 127.5 -27c54 0 120.667 11.667 200 35l97 30l4 -366l-138 -42.5l-270 -83l-267 -82l-116 -35.5l2 373l90 27c-36.667 44 -63.667 93 -81 147c-11.333 39.333 -17 78.333 -17 117
c0 71.333 19.333 139.666 58 204.999c56.667 90.667 135.334 152.334 236.001 185.001c45.333 12.667 89.333 19 132 19z" />
    <glyph glyph-name="uni0622" unicode="&#x622;" horiz-adv-x="847" arabic-form="isolated" 
d="M634 1280v-1342h-410v1342h410zM847 1711v-287.001h-517c-40 0 -70.167 -5.5 -90.5 -16.5s-35 -24.5 -44 -40.5s-15.5 -32.667 -19.5 -50l-276 78c11.333 42.667 27 84.334 47 125.001s49 77 87 109c63.333 54.667 162 82 296 82h517z" />
    <glyph glyph-name="uni0623" unicode="&#x623;" horiz-adv-x="610" arabic-form="isolated" 
d="M510 1280v-1342h-410v1342h410zM508 1508l-499.003 -163.999v160l115 37c-20 20.667 -35.667 43.5 -47 68.5s-17 52.167 -17 81.5c0 45.333 15.5 88.5 46.5 129.5s68.5 68.5 112.5 82.5c22.667 6.66699 46 10 70 10c25.333 0 48.833 -3.33301 70.5 -10
s42.834 -14.334 63.501 -23.001l-32 -133c-40 11.333 -73.667 17 -101 17c-9.33301 0 -17.666 -1 -24.999 -3c-15.333 -4.66699 -29.166 -13.167 -41.499 -25.5s-18.5 -26.5 -18.5 -42.5c0 -6 1 -12.333 3 -19c4.66699 -16.667 16.5 -30.5 35.5 -41.5s45.5 -16.5 79.5 -16.5
c8.66699 0 18.5 0.833008 29.5 2.5s27.833 5.5 50.5 11.5s55 16 97 30z" />
    <glyph glyph-name="uni0624" unicode="&#x624;" horiz-adv-x="1124" arabic-form="isolated" 
d="M526 394l155 0.000976562v96c0 31.333 -11.333 57.5 -34 78.5s-50.667 31.5 -84 31.5c-32.667 0 -60 -10.667 -82 -32s-33 -47.333 -33 -78c0 -16.667 1.83301 -32.334 5.5 -47.001s11 -26.5 22 -35.5s27.833 -13.5 50.5 -13.5zM287 -143.999
c82 0 150.001 2.33008 204.001 6.99707s92.667 13.334 116 26.001s36.333 28.667 39 48h-86c-88.667 2.66699 -169.167 22.834 -241.5 60.501s-130.166 91.667 -173.499 162s-65 155.5 -65 255.5c0 111.333 15.833 203.5 47.5 276.5s72.167 131 121.5 174
s101.666 73.333 156.999 91s106.666 26.5 153.999 26.5c143.333 0 266.333 -54 369 -162c96.667 -109.333 145 -244.666 145 -405.999v-374c-0.666992 -92.667 -14.167 -172.5 -40.5 -239.5s-59.333 -123.5 -99 -169.5s-79.834 -84.667 -120.501 -116
c-24 -16.667 -56.833 -34.167 -98.5 -52.5s-101.167 -33.5 -178.5 -45.5c-67.333 -10.667 -154.666 -16 -261.999 -16h-109v454h121zM762.001 1215l-499.003 -163.999v160l115 37c-20 20.667 -35.667 43.5 -47 68.5s-17 52.167 -17 81.5c0 45.333 15.5 88.5 46.5 129.5
s68.5 68.5 112.5 82.5c22.667 6.66699 46 10 70 10c25.333 0 48.833 -3.33301 70.5 -10s42.834 -14.334 63.501 -23.001l-32 -133c-40 11.333 -73.667 17 -101 17c-9.33301 0 -17.666 -1 -24.999 -3c-15.333 -4.66699 -29.166 -13.167 -41.499 -25.5
s-18.5 -26.5 -18.5 -42.5c0 -6 1 -12.333 3 -19c4.66699 -16.667 16.5 -30.5 35.5 -41.5s45.5 -16.5 79.5 -16.5c8.66699 0 18.5 0.833008 29.5 2.5s27.833 5.5 50.5 11.5s55 16 97 30z" />
    <glyph glyph-name="uni0625" unicode="&#x625;" horiz-adv-x="610" arabic-form="isolated" 
d="M510 1427v-1491h-410v1491h410zM546 -542l-499.003 -163.999v160l115 37c-20 20.667 -35.667 43.5 -47 68.5s-17 52.167 -17 81.5c0 45.333 15.5 88.5 46.5 129.5s68.5 68.5 112.5 82.5c22.667 6.66699 46 10 70 10c25.333 0 48.833 -3.33301 70.5 -10
s42.834 -14.334 63.501 -23.001l-32 -133c-40 11.333 -73.667 17 -101 17c-9.33301 0 -17.666 -1 -24.999 -3c-15.333 -4.66699 -29.166 -13.167 -41.499 -25.5s-18.5 -26.5 -18.5 -42.5c0 -6 1 -12.333 3 -19c4.66699 -16.667 16.5 -30.5 35.5 -41.5s45.5 -16.5 79.5 -16.5
c8.66699 0 18.5 0.833008 29.5 2.5s27.833 5.5 50.5 11.5s55 16 97 30z" />
    <glyph glyph-name="uni0626" unicode="&#x626;" horiz-adv-x="1695" arabic-form="isolated" 
d="M1429 1027c35.333 0 70.9961 -3.16602 106.996 -9.49902s72.333 -14.5 109 -24.5l-104 -396c-45.333 17.333 -92.666 26 -141.999 26c-39.333 0 -77.5 -7.5 -114.5 -22.5s-69.167 -40.333 -96.5 -76s-47 -83.834 -59 -144.501l163 -44
c78.667 -20 140.334 -37.333 185.001 -52c56 -18.667 96 -48.334 120 -89.001s36 -89.334 36 -146.001v-4c-1.33301 -111.333 -15.5 -205.166 -42.5 -281.499s-62.667 -138.333 -107 -186s-93.166 -84.167 -146.499 -109.5s-107 -42.5 -161 -51.5s-103.667 -13.5 -149 -13.5
h-306c-112.667 0 -210 20.333 -292 61s-149.5 94 -202.5 160s-92.333 138.5 -118 217.5s-38.5 156.5 -38.5 232.5c0 124.667 15 237.167 45 337.5s69 197.833 117 292.5l367 -180c-36 -72.667 -65 -143 -87 -211s-33 -134.333 -33 -199c0 -71.333 11.333 -125.5 34 -162.5
s52.667 -62 90 -75s77.666 -19.5 120.999 -19.5h306c54 0 95.5 5.83301 124.5 17.5s49.333 25.167 61 40.5s17.5 29.333 17.5 42c-4.66699 1.33301 -29.5 8 -74.5 20l-154 41l-153.5 41l-67 18l-10 39.5c-6.66699 26.333 -13.5 61.333 -20.5 105s-10.5 91.5 -10.5 143.5
c0 56 6.33301 113.333 19 172c6 28 18.167 62.333 36.5 103s43.833 83.334 76.5 128.001s74.334 86.5 125.001 125.5s111.334 71 182.001 96s153 37.5 247 37.5zM751.996 924.001l-499.003 -163.999v160l115 37c-20 20.667 -35.667 43.5 -47 68.5s-17 52.167 -17 81.5
c0 45.333 15.5 88.5 46.5 129.5s68.5 68.5 112.5 82.5c22.667 6.66699 46 10 70 10c25.333 0 48.833 -3.33301 70.5 -10s42.834 -14.334 63.501 -23.001l-32 -133c-40 11.333 -73.667 17 -101 17c-9.33301 0 -17.666 -1 -24.999 -3
c-15.333 -4.66699 -29.166 -13.167 -41.499 -25.5s-18.5 -26.5 -18.5 -42.5c0 -6 1 -12.333 3 -19c4.66699 -16.667 16.5 -30.5 35.5 -41.5s45.5 -16.5 79.5 -16.5c8.66699 0 18.5 0.833008 29.5 2.5s27.833 5.5 50.5 11.5s55 16 97 30z" />
    <glyph glyph-name="uni0627" unicode="&#x627;" horiz-adv-x="610" arabic-form="isolated" 
d="M510 1427v-1491h-410v1491h410z" />
    <glyph glyph-name="uni0628" unicode="&#x628;" horiz-adv-x="2076" arabic-form="isolated" 
d="M785 -61c-91.333 0 -165.334 0.669922 -222.001 2.00293s-105 5.33301 -145 12c-114.667 18 -202 73.333 -262 166c-50 92.667 -75 199.667 -75 321c0 30 1.66699 61 5 93c16 104 35.667 190.667 59 260c0 1.33301 0.333008 2.66602 1 3.99902v2l393 -116v-1
c-1.33301 -4.66699 -6 -24.334 -14 -59.001c-10 -40 -21 -86.333 -33 -139c-4.66699 -16.667 -7 -31.667 -7 -45v-3c0 -12 3.83301 -22 11.5 -30s22.167 -12 43.5 -12l807 1h196c34 0 54 6 60 18c2.66699 5.33301 4 12.333 4 21c0 9.33301 -1.66699 21 -5 35l-40 209
l397 116l7 -36l38 -213c10 -51.333 15 -99 15 -143c0 -22.667 -1.33301 -44.667 -4 -66c-2.66699 -100.667 -30.667 -183.334 -84 -248.001c-47.333 -57.333 -109.666 -98 -186.999 -122c-56.667 -18 -123.667 -27 -201 -27h-758zM1290 -355.997l-234 -233l-233 233l233 234
z" />
    <glyph glyph-name="uni0629" unicode="&#x629;" horiz-adv-x="1098" arabic-form="isolated" 
d="M553 352c12 0 26.167 3.33301 42.5 10s30.833 17.5 43.5 32.5s19 34.5 19 58.5c0 12 -5.66699 26.5 -17 43.5s-24 33.667 -38 50s-26.667 30 -38 41l-17 16.5l-15.5 -15.5c-10.333 -10.333 -22 -23.5 -35 -39.5s-24.667 -32.833 -35 -50.5s-15.5 -33.834 -15.5 -48.501
c0 -24 6.5 -43.167 19.5 -57.5s27.833 -24.666 44.5 -30.999s30.667 -9.5 42 -9.5zM539 1188l6 -7l308 -340c45.333 -46 87 -99.5 125 -160.5s61.333 -140.167 70 -237.5c1.33301 -16 2 -31.333 2 -46c0 -57.333 -7 -108 -21 -152s-32 -82.333 -54 -115s-45.333 -60 -70 -82
c-46 -41.333 -97.5 -70.5 -154.5 -87.5s-121.833 -25.5 -194.5 -25.5s-137 8.33301 -193 25s-107.333 46.667 -154 90c-38 36 -70.667 86.5 -98 151.5s-41 136.167 -41 213.5v23c6 93.333 24.833 171.5 56.5 234.5s65.5 113.167 101.5 150.5c16 16.667 30.333 33 43 49
l-20 22c-12 13.333 -18 20.333 -18 21zM511 1377l-220 -219l-219 219l219 220zM980 1377l-220 -219l-219 219l219 220z" />
    <glyph glyph-name="uni062A" unicode="&#x62a;" horiz-adv-x="2076" arabic-form="isolated" 
d="M786 -61c-91.333 0 -165.334 0.669922 -222.001 2.00293s-105 5.33301 -145 12c-114.667 18 -202 73.333 -262 166c-50 92.667 -75 199.667 -75 321c0 30 1.66699 61 5 93c16 104 35.667 190.667 59 260c0 1.33301 0.333008 2.66602 1 3.99902v2l393 -116v-1
c-1.33301 -4.66699 -6 -24.334 -14 -59.001c-10 -40 -21 -86.333 -33 -139c-4.66699 -16.667 -7 -31.667 -7 -45v-3c0 -12 3.83301 -22 11.5 -30s22.167 -12 43.5 -12l807 1h196c34 0 54 6 60 18c2.66699 5.33301 4 12.333 4 21c0 9.33301 -1.66699 21 -5 35l-40 209
l397 116l7 -36l38 -213c10 -51.333 15 -99 15 -143c0 -22.667 -1.33301 -44.667 -4 -66c-2.66699 -100.667 -30.667 -183.334 -84 -248.001c-47.333 -57.333 -109.666 -98 -186.999 -122c-56.667 -18 -123.667 -27 -201 -27h-758zM1054 929.003l-220 -219l-219 219l219 220z
M1523 929.003l-220 -219l-219 219l219 220z" />
    <glyph glyph-name="uni062B" unicode="&#x62b;" horiz-adv-x="2076" arabic-form="isolated" 
d="M786 -61c-91.333 0 -165.334 0.669922 -222.001 2.00293s-105 5.33301 -145 12c-114.667 18 -202 73.333 -262 166c-50 92.667 -75 199.667 -75 321c0 30 1.66699 61 5 93c16 104 35.667 190.667 59 260c0 1.33301 0.333008 2.66602 1 3.99902v2l393 -116v-1
c-1.33301 -4.66699 -6 -24.334 -14 -59.001c-10 -40 -21 -86.333 -33 -139c-4.66699 -16.667 -7 -31.667 -7 -45v-3c0 -12 3.83301 -22 11.5 -30s22.167 -12 43.5 -12l807 1h196c34 0 54 6 60 18c2.66699 5.33301 4 12.333 4 21c0 9.33301 -1.66699 21 -5 35l-40 209
l397 116l7 -36l38 -213c10 -51.333 15 -99 15 -143c0 -22.667 -1.33301 -44.667 -4 -66c-2.66699 -100.667 -30.667 -183.334 -84 -248.001c-47.333 -57.333 -109.666 -98 -186.999 -122c-56.667 -18 -123.667 -27 -201 -27h-758zM1267 1191l-201 -200l-200 200l200 201z
M1051 881.003l-220 -219l-219 219l219 220zM1520 881.003l-220 -219l-219 219l219 220z" />
    <glyph glyph-name="uni062C" unicode="&#x62c;" horiz-adv-x="1606" arabic-form="isolated" 
d="M624 1211c20 0 40.6592 -1.33496 61.9922 -4.00195c23.333 -2 68.833 -15.167 136.5 -39.5s181.834 -72.5 342.501 -144.5l169.5 -77.5l93.5 -43.5l23 -11l53 -422l-159 -58l-304 -111.5l-321 -120c-99.333 -37.667 -169.666 -65.167 -210.999 -82.5
c0.666992 -3.33301 1.33398 -8.33301 2.00098 -15c0.666992 -15.333 3 -35.333 7 -60s11.667 -49.667 23 -75s27.833 -46.833 49.5 -64.5s50.834 -26.5 87.501 -26.5h683v-456h-558c-70 0 -135.167 3 -195.5 9s-115.666 19.667 -165.999 41s-96.166 54.333 -137.499 99
s-78.166 104.834 -110.499 180.501s-60.166 170.834 -83.499 285.501c-9.33301 49.333 -14 94.333 -14 135c0 98.667 28.333 177.167 85 235.5s146.334 107.833 269.001 148.5l396.5 132l167.5 55c-114.667 30.667 -199.167 52.667 -253.5 66l-110.5 27
c-0.666992 0 -1.33398 0.333008 -2.00098 1c-2.66699 0.666992 -5.33398 1 -8.00098 1c-14.667 0 -28.167 -8 -40.5 -24s-24.5 -38.333 -36.5 -67l-384 98c34 128 95.667 227.333 185 298c80.667 60 167.334 90 260.001 90zM1380.99 98.998l-234 -233l-233 233l233 234z" />
    <glyph glyph-name="uni062D" unicode="&#x62d;" horiz-adv-x="1606" arabic-form="isolated" 
d="M624 1211c20 0 40.6592 -1.33496 61.9922 -4.00195c23.333 -2 68.833 -15.167 136.5 -39.5s181.834 -72.5 342.501 -144.5l169.5 -77.5l93.5 -43.5l23 -11l53 -422l-159 -58l-304 -111.5l-321 -120c-99.333 -37.667 -169.666 -65.167 -210.999 -82.5
c0.666992 -3.33301 1.33398 -8.33301 2.00098 -15c0.666992 -15.333 3 -35.333 7 -60s11.667 -49.667 23 -75s27.833 -46.833 49.5 -64.5s50.834 -26.5 87.501 -26.5h683v-456h-558c-70 0 -135.167 3 -195.5 9s-115.666 19.667 -165.999 41s-96.166 54.333 -137.499 99
s-78.166 104.834 -110.499 180.501s-60.166 170.834 -83.499 285.501c-9.33301 49.333 -14 94.333 -14 135c0 98.667 28.333 177.167 85 235.5s146.334 107.833 269.001 148.5l396.5 132l167.5 55c-114.667 30.667 -199.167 52.667 -253.5 66l-110.5 27
c-0.666992 0 -1.33398 0.333008 -2.00098 1c-2.66699 0.666992 -5.33398 1 -8.00098 1c-14.667 0 -28.167 -8 -40.5 -24s-24.5 -38.333 -36.5 -67l-384 98c34 128 95.667 227.333 185 298c80.667 60 167.334 90 260.001 90z" />
    <glyph glyph-name="uni062E" unicode="&#x62e;" horiz-adv-x="1606" arabic-form="isolated" 
d="M624 1211c20 0 40.6592 -1.33496 61.9922 -4.00195c23.333 -2 68.833 -15.167 136.5 -39.5s181.834 -72.5 342.501 -144.5l169.5 -77.5l93.5 -43.5l23 -11l53 -422l-159 -58l-304 -111.5l-321 -120c-99.333 -37.667 -169.666 -65.167 -210.999 -82.5
c0.666992 -3.33301 1.33398 -8.33301 2.00098 -15c0.666992 -15.333 3 -35.333 7 -60s11.667 -49.667 23 -75s27.833 -46.833 49.5 -64.5s50.834 -26.5 87.501 -26.5h683v-456h-558c-70 0 -135.167 3 -195.5 9s-115.666 19.667 -165.999 41s-96.166 54.333 -137.499 99
s-78.166 104.834 -110.499 180.501s-60.166 170.834 -83.499 285.501c-9.33301 49.333 -14 94.333 -14 135c0 98.667 28.333 177.167 85 235.5s146.334 107.833 269.001 148.5l396.5 132l167.5 55c-114.667 30.667 -199.167 52.667 -253.5 66l-110.5 27
c-0.666992 0 -1.33398 0.333008 -2.00098 1c-2.66699 0.666992 -5.33398 1 -8.00098 1c-14.667 0 -28.167 -8 -40.5 -24s-24.5 -38.333 -36.5 -67l-384 98c34 128 95.667 227.333 185 298c80.667 60 167.334 90 260.001 90zM822.992 1539l-234 -233l-233 233l233 234z" />
    <glyph glyph-name="uni062F" unicode="&#x62f;" horiz-adv-x="1162" arabic-form="isolated" 
d="M329 972l337.998 231c0 0.666992 15.333 -21 46 -65l311 -444c51.333 -73.333 81.333 -152 90 -236c2 -18.667 3 -37.667 3 -57c0 -36 -3.66699 -73 -11 -111s-20 -75.667 -38 -113c-39.333 -74.667 -95.166 -132.667 -167.499 -174s-153.833 -62 -244.5 -62
c-74.667 0 -155.167 9.16699 -241.5 27.5s-161.666 37 -225.999 56s-103.833 31.167 -118.5 36.5l130 428c61.333 -20.667 138 -42.167 230 -64.5s167.333 -33.5 226 -33.5c28 0 44 5 48 15c1.33301 2.66699 2 6 2 10c0 10 -5.66699 24 -17 42l-327 466
c-21.333 31.333 -32.333 47.333 -33 48z" />
    <glyph glyph-name="uni0630" unicode="&#x630;" horiz-adv-x="1162" arabic-form="isolated" 
d="M329 972l337.998 231c0 0.666992 15.333 -21 46 -65l311 -444c51.333 -73.333 81.333 -152 90 -236c2 -18.667 3 -37.667 3 -57c0 -36 -3.66699 -73 -11 -111s-20 -75.667 -38 -113c-39.333 -74.667 -95.166 -132.667 -167.499 -174s-153.833 -62 -244.5 -62
c-74.667 0 -155.167 9.16699 -241.5 27.5s-161.666 37 -225.999 56s-103.833 31.167 -118.5 36.5l130 428c61.333 -20.667 138 -42.167 230 -64.5s167.333 -33.5 226 -33.5c28 0 44 5 48 15c1.33301 2.66699 2 6 2 10c0 10 -5.66699 24 -17 42l-327 466
c-21.333 31.333 -32.333 47.333 -33 48zM836.998 1559l-234 -233l-233 233l233 234z" />
    <glyph glyph-name="uni0631" unicode="&#x631;" horiz-adv-x="876" arabic-form="isolated" 
d="M808 713v-537.001c0 -108.667 -14.333 -214.667 -43 -318s-70 -185 -124 -245c-63.333 -72.667 -142.333 -126.667 -237 -162c-90 -34 -192 -51 -306 -51h-98v457h98c114 0 192.667 24.333 236 73c26 32 43.167 71.333 51.5 118s12.5 89.334 12.5 128.001v537h410z" />
    <glyph glyph-name="uni0632" unicode="&#x632;" horiz-adv-x="876" arabic-form="isolated" 
d="M808 713v-537.001c0 -108.667 -14.333 -214.667 -43 -318s-70 -185 -124 -245c-63.333 -72.667 -142.333 -126.667 -237 -162c-90 -34 -192 -51 -306 -51h-98v457h98c114 0 192.667 24.333 236 73c26 32 43.167 71.333 51.5 118s12.5 89.334 12.5 128.001v537h410z
M840 1067l-234 -233l-233 233l233 234z" />
    <glyph glyph-name="uni0633" unicode="&#x633;" horiz-adv-x="2873" arabic-form="isolated" 
d="M2751 832l8.50098 -41.499l19.5 -99.5c7.33301 -38.667 14 -76.334 20 -113.001s10 -65 12 -85c1.33301 -16.667 2 -33 2 -49c0 -78 -11.167 -147.5 -33.5 -208.5s-50.5 -111.833 -84.5 -152.5c-91.333 -94 -208.333 -142.667 -351 -146v-1
c-70.667 0 -131.5 8.33301 -182.5 25s-93.833 36.667 -128.5 60c-88 -56.667 -182.667 -85 -284 -85c-38.667 0 -74.667 2.66699 -108 8c-10 -99.333 -46 -195.333 -108 -288s-148.333 -161.334 -259 -206.001c-86.667 -32.667 -189.667 -49 -309 -49h-236
c-120 0 -228.167 27.333 -324.5 82s-173.5 139 -231.5 253l-4 8c-34 61.333 -60 128 -78 200c-11.333 52 -17 106.333 -17 163c0 24 1 48.333 3 73c11.333 166 65.333 344.667 162 536l366 -184c-80.667 -165.333 -121 -305.666 -121 -420.999
c0 -64 12.667 -117.333 38 -160c16.667 -26 36.667 -45.833 60 -59.5s48 -23 74 -28s50.333 -7.5 73 -7.5h236c39.333 0 81.166 4 125.499 12s78.5 24.333 102.5 49c27.333 32.667 41 91 41 175v621h409v-235c0 -22.667 6.33301 -42.667 19 -60s39 -26 79 -26
c28.667 0 51.167 7.16699 67.5 21.5s24.5 35.833 24.5 64.5v235h410v-235c0 -24.667 7.16699 -45 21.5 -61s32.166 -24 53.5 -24c26.667 0 47.5 7.33301 62.5 22s22.5 29 22.5 43c0 2 -0.333008 4 -1 6l-21 119l-21.5 116l-9.5 50z" />
    <glyph glyph-name="uni0634" unicode="&#x634;" horiz-adv-x="2873" arabic-form="isolated" 
d="M2751 832l8.50098 -41.499l19.5 -99.5c7.33301 -38.667 14 -76.334 20 -113.001s10 -65 12 -85c1.33301 -16.667 2 -33 2 -49c0 -78 -11.167 -147.5 -33.5 -208.5s-50.5 -111.833 -84.5 -152.5c-91.333 -94 -208.333 -142.667 -351 -146v-1
c-70.667 0 -131.5 8.33301 -182.5 25s-93.833 36.667 -128.5 60c-88 -56.667 -182.667 -85 -284 -85c-38.667 0 -74.667 2.66699 -108 8c-10 -99.333 -46 -195.333 -108 -288s-148.333 -161.334 -259 -206.001c-86.667 -32.667 -189.667 -49 -309 -49h-236
c-120 0 -228.167 27.333 -324.5 82s-173.5 139 -231.5 253l-4 8c-34 61.333 -60 128 -78 200c-11.333 52 -17 106.333 -17 163c0 24 1 48.333 3 73c11.333 166 65.333 344.667 162 536l366 -184c-80.667 -165.333 -121 -305.666 -121 -420.999
c0 -64 12.667 -117.333 38 -160c16.667 -26 36.667 -45.833 60 -59.5s48 -23 74 -28s50.333 -7.5 73 -7.5h236c39.333 0 81.166 4 125.499 12s78.5 24.333 102.5 49c27.333 32.667 41 91 41 175v621h409v-235c0 -22.667 6.33301 -42.667 19 -60s39 -26 79 -26
c28.667 0 51.167 7.16699 67.5 21.5s24.5 35.833 24.5 64.5v235h410v-235c0 -24.667 7.16699 -45 21.5 -61s32.166 -24 53.5 -24c26.667 0 47.5 7.33301 62.5 22s22.5 29 22.5 43c0 2 -0.333008 4 -1 6l-21 119l-21.5 116l-9.5 50zM2225 1431l-201 -200l-200 200l200 201z
M2009 1121l-220 -219l-219 219l219 220zM2478 1121l-220 -219l-219 219l219 220z" />
    <glyph glyph-name="uni0635" unicode="&#x635;" horiz-adv-x="2955" arabic-form="isolated" 
d="M2865 731c26.667 -61.333 40 -136.668 40 -226.001c0 -48.667 -4 -100.834 -12 -156.501s-24 -106.167 -48 -151.5c-36.667 -70 -88.667 -127.333 -156 -172c-38.667 -24.667 -77.167 -43.334 -115.5 -56.001s-74.166 -21 -107.5 -25c-33.333 -4 -60.666 -6 -82 -6h-679
c-20 0 -39.667 1 -59 3c-14 -135.333 -60 -248 -138 -338c-60 -68.667 -136.333 -119.667 -229 -153c-87.333 -32 -190 -48 -308 -48l-239 -1c-119.333 0 -223 26.667 -311 80c-88 52.667 -160.333 122.334 -217 209.001s-93 171.334 -109 254.001
c-11.333 54 -17 110.333 -17 169c0 22 0.666992 44.333 2 67c12.667 166 66.667 344.667 162 536l366 -184c-12 -23.333 -23 -46.666 -33 -69.999l-28 -70c-40 -108 -60 -201.667 -60 -281c0 -62.667 12.667 -116 38 -160c16.667 -26 36.667 -45.667 60 -59
c24 -14 49 -23.333 75 -28c26 -5.33301 50 -8 72 -8l239 1c113.333 0 189.666 20 228.999 60c26.667 31.333 40 88.333 40 171v625h409v-82c-0.666992 -54.667 -1 -121.334 -1 -200.001c63.333 115.333 136.333 211.333 219 288c76.667 72.667 154.334 128.667 233.001 168
c98.667 50 199 75 301 75h20c30 0 61.667 -1 95 -3s67.166 -7.16699 101.5 -15.5c34.333 -8.33301 67.833 -22.166 100.5 -41.499c66.667 -40 115.667 -97 147 -171zM2359 392.998c57.333 0 97 7.33398 119 22.001s33 39.667 33 75c0 25.333 -4.66699 43.333 -14 54
s-23.166 17 -41.5 19c-18.333 2 -40.833 3 -67.5 3c-38.667 0 -83.834 -13 -135.5 -39c-51.667 -26 -100.834 -61 -147.5 -105c-10 -8.66699 -19.667 -18.334 -29 -29.001h283z" />
    <glyph glyph-name="uni0636" unicode="&#x636;" horiz-adv-x="2955" arabic-form="isolated" 
d="M2865 731c26.667 -61.333 40 -136.668 40 -226.001c0 -48.667 -4 -100.834 -12 -156.501s-24 -106.167 -48 -151.5c-36.667 -70 -88.667 -127.333 -156 -172c-38.667 -24.667 -77.167 -43.334 -115.5 -56.001s-74.166 -21 -107.5 -25c-33.333 -4 -60.666 -6 -82 -6h-679
c-20 0 -39.667 1 -59 3c-14 -135.333 -60 -248 -138 -338c-60 -68.667 -136.333 -119.667 -229 -153c-87.333 -32 -190 -48 -308 -48l-239 -1c-119.333 0 -223 26.667 -311 80c-88 52.667 -160.333 122.334 -217 209.001s-93 171.334 -109 254.001
c-11.333 54 -17 110.333 -17 169c0 22 0.666992 44.333 2 67c12.667 166 66.667 344.667 162 536l366 -184c-12 -23.333 -23 -46.666 -33 -69.999l-28 -70c-40 -108 -60 -201.667 -60 -281c0 -62.667 12.667 -116 38 -160c16.667 -26 36.667 -45.667 60 -59
c24 -14 49 -23.333 75 -28c26 -5.33301 50 -8 72 -8l239 1c113.333 0 189.666 20 228.999 60c26.667 31.333 40 88.333 40 171v625h409v-82c-0.666992 -54.667 -1 -121.334 -1 -200.001c63.333 115.333 136.333 211.333 219 288c76.667 72.667 154.334 128.667 233.001 168
c98.667 50 199 75 301 75h20c30 0 61.667 -1 95 -3s67.166 -7.16699 101.5 -15.5c34.333 -8.33301 67.833 -22.166 100.5 -41.499c66.667 -40 115.667 -97 147 -171zM2359 392.998c57.333 0 97 7.33398 119 22.001s33 39.667 33 75c0 25.333 -4.66699 43.333 -14 54
s-23.166 17 -41.5 19c-18.333 2 -40.833 3 -67.5 3c-38.667 0 -83.834 -13 -135.5 -39c-51.667 -26 -100.834 -61 -147.5 -105c-10 -8.66699 -19.667 -18.334 -29 -29.001h283zM2636 1326l-234 -233l-233 233l233 234z" />
    <glyph glyph-name="uni0637" unicode="&#x637;" horiz-adv-x="1552" arabic-form="isolated" 
d="M698 395l283.001 0.000976562c57.333 0 97 7.16699 119 21.5s33 39.5 33 75.5c0 25.333 -4.66699 43.166 -14 53.499s-23.166 16.5 -41.499 18.5s-40.833 3 -67.5 3c-38.667 0 -83.834 -12.833 -135.501 -38.5s-100.834 -60.5 -147.501 -104.5l-10 -10
c-6.66699 -6 -13 -12.333 -19 -19zM688.001 1430l0.000976562 -539.003l-2 -13l11 6c99.333 52.667 200 79 302 79h20c30 0 61.667 -1 95 -3s67.166 -7.16699 101.499 -15.5s67.833 -22.166 100.5 -41.499c66 -40 115 -97 147 -171c26 -61.333 39 -136.666 39 -225.999
c0 -48.667 -4.5 -100.667 -13.5 -156s-24.5 -106.666 -46.5 -153.999c-36.667 -71.333 -88.667 -128.666 -156 -171.999c-38.667 -24.667 -77.167 -43.334 -115.5 -56.001s-74 -21 -107 -25s-60.5 -6 -82.5 -6h-911v458h159l49 72v963h410z" />
    <glyph glyph-name="uni0638" unicode="&#x638;" horiz-adv-x="1552" arabic-form="isolated" 
d="M698 395l283.001 0.000976562c57.333 0 97 7.16699 119 21.5s33 39.5 33 75.5c0 25.333 -4.66699 43.166 -14 53.499s-23.166 16.5 -41.499 18.5s-40.833 3 -67.5 3c-38.667 0 -83.834 -12.833 -135.501 -38.5s-100.834 -60.5 -147.501 -104.5l-10 -10
c-6.66699 -6 -13 -12.333 -19 -19zM688.001 1430l0.000976562 -539.003l-2 -13l11 6c99.333 52.667 200 79 302 79h20c30 0 61.667 -1 95 -3s67.166 -7.16699 101.499 -15.5s67.833 -22.166 100.5 -41.499c66 -40 115 -97 147 -171c26 -61.333 39 -136.666 39 -225.999
c0 -48.667 -4.5 -100.667 -13.5 -156s-24.5 -106.666 -46.5 -153.999c-36.667 -71.333 -88.667 -128.666 -156 -171.999c-38.667 -24.667 -77.167 -43.334 -115.5 -56.001s-74 -21 -107 -25s-60.5 -6 -82.5 -6h-911v458h159l49 72v963h410zM1282 1285l-234 -233l-233 233
l233 234z" />
    <glyph glyph-name="uni0639" unicode="&#x639;" horiz-adv-x="1417" arabic-form="isolated" 
d="M784 892c6.66699 -47.333 48 -82.165 124 -104.498s174 -33.5 294 -33.5h129v-456h-159h-11c-30.667 0 -87.167 0.166992 -169.5 0.5s-157.5 0.5 -225.5 0.5c-45.333 0 -86.5 -4.16699 -123.5 -12.5s-70.833 -27.833 -101.5 -58.5c-19.333 -20.667 -33.333 -43 -42 -67
s-14 -45 -16 -63l-3 -27c0 -46.667 11.667 -86 35 -118s55.5 -56 96.5 -72s87.5 -24 139.5 -24h516v-455h-516c-92.667 0 -180.5 16.167 -263.5 48.5s-156.5 79.166 -220.5 140.499c-131.333 172 -197 332 -197 480c0 115.333 21 217.5 63 306.5s102.333 164.167 181 225.5
c34 26.667 70.333 50 109 70c-32.667 67.333 -49 140.333 -49 219c0 146 53.667 272.333 161 379c108 97.333 234 146 378 146c54.667 0 105.667 -7.16699 153 -21.5s92.833 -32.5 136.5 -54.5s86.167 -45.333 127.5 -70l37 -21l-202 -356l-39 22
c-2.66699 1.33301 -5 2.66602 -7 3.99902c-43.333 25.333 -83 47 -119 65s-67 27 -93 27c-30 0 -58.167 -9 -84.5 -27s-39.5 -44.667 -39.5 -80c0 -4 0.333008 -8.33301 1 -13z" />
    <glyph glyph-name="uni063A" unicode="&#x63a;" horiz-adv-x="1417" arabic-form="isolated" 
d="M784 892c6.66699 -47.333 48 -82.165 124 -104.498s174 -33.5 294 -33.5h129v-456h-159h-11c-30.667 0 -87.167 0.166992 -169.5 0.5s-157.5 0.5 -225.5 0.5c-45.333 0 -86.5 -4.16699 -123.5 -12.5s-70.833 -27.833 -101.5 -58.5c-19.333 -20.667 -33.333 -43 -42 -67
s-14 -45 -16 -63l-3 -27c0 -46.667 11.667 -86 35 -118s55.5 -56 96.5 -72s87.5 -24 139.5 -24h516v-455h-516c-92.667 0 -180.5 16.167 -263.5 48.5s-156.5 79.166 -220.5 140.499c-131.333 172 -197 332 -197 480c0 115.333 21 217.5 63 306.5s102.333 164.167 181 225.5
c34 26.667 70.333 50 109 70c-32.667 67.333 -49 140.333 -49 219c0 146 53.667 272.333 161 379c108 97.333 234 146 378 146c54.667 0 105.667 -7.16699 153 -21.5s92.833 -32.5 136.5 -54.5s86.167 -45.333 127.5 -70l37 -21l-202 -356l-39 22
c-2.66699 1.33301 -5 2.66602 -7 3.99902c-43.333 25.333 -83 47 -119 65s-67 27 -93 27c-30 0 -58.167 -9 -84.5 -27s-39.5 -44.667 -39.5 -80c0 -4 0.333008 -8.33301 1 -13zM1137 1775l-234 -233l-233 233l233 234z" />
    <glyph glyph-name="uni0641" unicode="&#x641;" horiz-adv-x="2111" arabic-form="isolated" 
d="M2022 427c0 -94.667 -23.166 -179 -69.499 -253s-114.166 -132.167 -203.499 -174.5s-198.333 -63.5 -327 -63.5h-632c-91.333 0 -165.333 0.666992 -222 2s-105 5.33301 -145 12c-114.667 18 -202 73.333 -262 166c-50 92.667 -75 199.667 -75 321c0 30 1.66699 61 5 93
c16 104 35.667 190.667 59 260c0 1.33301 0.333008 2.66602 1 3.99902v2l393 -117l-5 -21c-2.66699 -9.33301 -5.66699 -22 -9 -38c-10 -40 -21 -86.333 -33 -139c-4.66699 -16.667 -7 -31.667 -7 -45v-3c0 -12 3.66699 -22 11 -30c8 -8 22.667 -12 44 -12h392v2h95
c-2.66699 37.333 -4 72.333 -4 105c0 111.333 15.833 203.5 47.5 276.5s72.167 131 121.5 174s101.666 73.333 156.999 91s106.666 26.5 153.999 26.5c143.333 0 266.333 -54 369 -162c96.667 -109.333 145 -244.666 145 -405.999v-71zM1629 430v95.999
c0 31.333 -11.333 57.5 -34 78.5s-50.667 31.5 -84 31.5c-32.667 0 -60 -10.667 -82 -32s-33 -47.333 -33 -78c0 -17.333 1.83301 -33.166 5.5 -47.499s11 -26 22 -35s27.833 -13.5 50.5 -13.5h155zM1772 1425l-234 -233l-233 233l233 234z" />
    <glyph glyph-name="uni0642" unicode="&#x642;" horiz-adv-x="1691" arabic-form="isolated" 
d="M1127 983c143.333 0 266.329 -54.0029 368.996 -162.003c96.667 -109.333 145 -244.666 145 -405.999l-1 -363c0 -41.333 -1.66699 -85.5 -5 -132.5s-10.666 -90.167 -21.999 -129.5c-24.667 -83.333 -65.667 -154.333 -123 -213
c-111.333 -115.333 -287.666 -173 -528.999 -173h-196c-132.667 0 -249.5 23.833 -350.5 71.5s-180.833 116.834 -239.5 207.501c-38 62.667 -63.833 122.834 -77.5 180.501s-20.5 116.5 -20.5 176.5c0 30.667 1 62 3 94c9.33301 150 56 318.667 140 506l373 -168
c-63.333 -141.333 -98.333 -262.333 -105 -363c-0.666992 -9.33301 -1 -18.333 -1 -27c0 -56 10.667 -100.333 32 -133c18 -26 41.667 -45.667 71 -59s60 -22 92 -26s59.667 -6 83 -6h196c178 0 266.333 27 265 81h-79c-87.333 0 -168.166 18.833 -242.499 56.5
s-133.833 92 -178.5 163s-67 156.5 -67 256.5c0 111.333 15.333 203.5 46 276.5s69.834 131 117.501 174s98.5 73.333 152.5 91s104.667 26.5 152 26.5zM1092 394.997l153.999 0.00195312v95c0 31.333 -11.167 57.5 -33.5 78.5s-50.166 31.5 -83.499 31.5
s-60.833 -10.667 -82.5 -32s-32.5 -47.333 -32.5 -78c0 -16.667 1.83301 -32.334 5.5 -47.001s11 -26.334 22 -35.001s27.833 -13 50.5 -13zM1104 1314l-220 -219l-219 219l219 220zM1573 1314l-220 -219l-219 219l219 220z" />
    <glyph glyph-name="uni0643" unicode="&#x643;" horiz-adv-x="2053" arabic-form="isolated" 
d="M1032 1155l94 -158.002c-72.667 -44.667 -118.667 -78 -138 -100h39c13.333 0.666992 27 1 41 1c33.333 0 67 -2.33301 101 -7c43.333 -8.66699 77.833 -27.5 103.5 -56.5s38.5 -62.5 38.5 -100.5c0 -31.333 -10.333 -63.666 -31 -96.999
c-28.667 -44 -76.667 -79 -144 -105c-63.333 -24 -143.333 -40.667 -240 -50l-17 183c72.667 7.33301 143 23.333 211 48c6 2 9 4 9 6s-5 3.16699 -15 3.5s-22.333 0.5 -37 0.5h-55c-30.667 0 -57 1.33301 -79 4c-41.333 7.33301 -73.833 23.833 -97.5 49.5
s-35.5 56.167 -35.5 91.5c0 25.333 6.66699 52.333 20 81c14 30 37.333 60 70 90c38.667 36.667 92.667 75.334 162 116.001zM2003 1418l0.000976562 -936.999c0 -44 -3.83301 -96.5 -11.5 -157.5s-24.334 -120 -50.001 -177s-64.5 -103.5 -116.5 -139.5
c-35.333 -22.667 -72.5 -38.834 -111.5 -48.501s-79.167 -15.5 -120.5 -17.5s-84 -3 -128 -3h-691c-91.333 0 -163.5 0.666992 -216.5 2s-99.5 5.33301 -139.5 12c-114.667 18 -202 73.333 -262 166c-49.333 105.333 -74 213.333 -74 324c0 30 1.66699 60.667 5 92
c16 104 35.667 190.667 59 260c0 1.33301 0.333008 2.66602 1 3.99902v2l393 -116l-14.5 -60l-32.5 -139c-4.66699 -17.333 -7 -32.666 -7 -45.999s3.83301 -24 11.5 -32s22.167 -12 43.5 -12h936c46 0 77 9.33301 93 28s24 47 24 85v910h409z" />
    <glyph glyph-name="uni0644" unicode="&#x644;" horiz-adv-x="1490" arabic-form="isolated" 
d="M712 -598c-117.333 0 -221.499 23.167 -312.499 69.5s-164.5 113.5 -220.5 201.5c-22.667 35.333 -40.834 73.333 -54.501 114s-24.5 77.334 -32.5 110.001c-13.333 53.333 -20 109.333 -20 168c0 10.667 0.333008 21.334 1 32.001c4.66699 138 44 284.667 118 440
l370 -174c-48.667 -105.333 -75 -199 -79 -281v-14c0 -52.667 10.333 -95.334 31 -128.001c16 -24.667 36.167 -43 60.5 -55s49 -20 74 -24s46.5 -6 64.5 -6c70.667 0 125.5 5 164.5 15s66.167 29 81.5 57s23 69 23 123v1377h409v-1377c0 -43.333 -3 -93.5 -9 -150.5
s-19.167 -113.833 -39.5 -170.5s-50.833 -107.334 -91.5 -152.001c-59.333 -62 -137 -107.667 -233 -137c-83.333 -25.333 -185 -38 -305 -38z" />
    <glyph glyph-name="uni0645" unicode="&#x645;" horiz-adv-x="1513" arabic-form="isolated" 
d="M1032 311c21.333 0 37.1689 10.332 47.502 30.999s15.5 45.334 15.5 74.001c0 13.333 -1 26.666 -3 39.999c-6 38.667 -20 70.667 -42 96s-49 38 -81 38c-24.667 0 -45.834 -8.16699 -63.501 -24.5s-33.334 -38.666 -47.001 -66.999s-27.167 -60.833 -40.5 -97.5
l27.5 -13l69.5 -32l87 -39c11.333 -4 21.333 -6 30 -6zM950.003 976.999c85.333 0 157.831 -14.668 217.498 -44.001s108.834 -66.833 147.501 -112.5s68.834 -94.5 90.501 -146.5s36.667 -102 45 -150s12.5 -87.667 12.5 -119c0 -78.667 -12.833 -149.167 -38.5 -211.5
s-59.167 -115.166 -100.5 -158.499s-86.833 -76.333 -136.5 -99s-98.5 -34 -146.5 -34c-24 0 -48 3.33301 -72 10c-66.667 19.333 -137.5 44.833 -212.5 76.5s-140 60.667 -195 87l-82.5 39.5c0 -137.333 0.166992 -275.666 0.5 -414.999s0.5 -232.666 0.5 -279.999v-19
h-410v1115l256 147l19.5 -11l46 -25.5l48.5 -26.5c14.667 -8 24 -13.333 28 -16c5.33301 17.333 15.5 41.666 30.5 72.999s35.167 65.166 60.5 101.499s56.5 71 93.5 104s80.167 60.333 129.5 82s105.333 32.5 168 32.5z" />
    <glyph glyph-name="uni0646" unicode="&#x646;" horiz-adv-x="1622" arabic-form="isolated" 
d="M1572 713l0.00390625 -661c0 -109.333 -14.333 -202.166 -43 -278.499s-66.834 -138.833 -114.501 -187.5s-101 -86.5 -160 -113.5s-119.833 -45.667 -182.5 -56s-122.334 -15.5 -179.001 -15.5h-118c-106.667 0 -198.834 13.667 -276.501 41s-143 64.166 -196 110.499
s-95.167 98.5 -126.5 156.5s-53.833 118.833 -67.5 182.5s-20.5 125.5 -20.5 185.5c0 19.333 0.666992 38.333 2 57c10 150 56.667 318.667 140 506l374 -168c-64 -141.333 -99 -262.333 -105 -363v-5c-1.33301 -10.667 -2 -22.667 -2 -36c0 -20 3 -42.167 9 -66.5
s18.167 -47.333 36.5 -69s46 -39.5 83 -53.5s86.833 -21 149.5 -21h118c65.333 0 116.166 5.66699 152.499 17s63 26 80 44s27.5 37.167 31.5 57.5s6 39.833 6 58.5v678h409zM1083 803l-234 -233l-233 233l233 234z" />
    <glyph glyph-name="uni0647" unicode="&#x647;" horiz-adv-x="1098" arabic-form="isolated" 
d="M553 352c12 0 26.167 3.33301 42.5 10s30.833 17.5 43.5 32.5s19 34.5 19 58.5c0 12 -5.66699 26.5 -17 43.5s-24 33.667 -38 50s-26.667 30 -38 41l-17 16.5l-15.5 -15.5c-10.333 -10.333 -22 -23.5 -35 -39.5s-24.667 -32.833 -35 -50.5s-15.5 -33.834 -15.5 -48.501
c0 -24 6.5 -43.167 19.5 -57.5s27.833 -24.666 44.5 -30.999s30.667 -9.5 42 -9.5zM539 1188l6 -7l308 -340c45.333 -46 87 -99.5 125 -160.5s61.333 -140.167 70 -237.5c1.33301 -16 2 -31.333 2 -46c0 -57.333 -7 -108 -21 -152s-32 -82.333 -54 -115s-45.333 -60 -70 -82
c-46 -41.333 -97.5 -70.5 -154.5 -87.5s-121.833 -25.5 -194.5 -25.5s-137 8.33301 -193 25s-107.333 46.667 -154 90c-38 36 -70.667 86.5 -98 151.5s-41 136.167 -41 213.5v23c6 93.333 24.833 171.5 56.5 234.5s65.5 113.167 101.5 150.5c16 16.667 30.333 33 43 49
l-20 22c-12 13.333 -18 20.333 -18 21z" />
    <glyph glyph-name="uni0648" unicode="&#x648;" horiz-adv-x="1124" arabic-form="isolated" 
d="M526 394l155 0.000976562v96c0 31.333 -11.333 57.5 -34 78.5s-50.667 31.5 -84 31.5c-32.667 0 -60 -10.667 -82 -32s-33 -47.333 -33 -78c0 -16.667 1.83301 -32.334 5.5 -47.001s11 -26.5 22 -35.5s27.833 -13.5 50.5 -13.5zM287 -143.999
c82 0 150.001 2.33008 204.001 6.99707s92.667 13.334 116 26.001s36.333 28.667 39 48h-86c-88.667 2.66699 -169.167 22.834 -241.5 60.501s-130.166 91.667 -173.499 162s-65 155.5 -65 255.5c0 111.333 15.833 203.5 47.5 276.5s72.167 131 121.5 174
s101.666 73.333 156.999 91s106.666 26.5 153.999 26.5c143.333 0 266.333 -54 369 -162c96.667 -109.333 145 -244.666 145 -405.999v-374c-0.666992 -92.667 -14.167 -172.5 -40.5 -239.5s-59.333 -123.5 -99 -169.5s-79.834 -84.667 -120.501 -116
c-24 -16.667 -56.833 -34.167 -98.5 -52.5s-101.167 -33.5 -178.5 -45.5c-67.333 -10.667 -154.666 -16 -261.999 -16h-109v454h121z" />
    <glyph glyph-name="uni0649" unicode="&#x649;" horiz-adv-x="1695" arabic-form="isolated" 
d="M1429 1027c35.333 0 70.9961 -3.16602 106.996 -9.49902s72.333 -14.5 109 -24.5l-104 -396c-45.333 17.333 -92.666 26 -141.999 26c-39.333 0 -77.5 -7.5 -114.5 -22.5s-69.167 -40.333 -96.5 -76s-47 -83.834 -59 -144.501l163 -44
c78.667 -20 140.334 -37.333 185.001 -52c56 -18.667 96 -48.334 120 -89.001s36 -89.334 36 -146.001v-4c-1.33301 -111.333 -15.5 -205.166 -42.5 -281.499s-62.667 -138.333 -107 -186s-93.166 -84.167 -146.499 -109.5s-107 -42.5 -161 -51.5s-103.667 -13.5 -149 -13.5
h-306c-112.667 0 -210 20.333 -292 61s-149.5 94 -202.5 160s-92.333 138.5 -118 217.5s-38.5 156.5 -38.5 232.5c0 124.667 15 237.167 45 337.5s69 197.833 117 292.5l367 -180c-36 -72.667 -65 -143 -87 -211s-33 -134.333 -33 -199c0 -71.333 11.333 -125.5 34 -162.5
s52.667 -62 90 -75s77.666 -19.5 120.999 -19.5h306c54 0 95.5 5.83301 124.5 17.5s49.333 25.167 61 40.5s17.5 29.333 17.5 42c-4.66699 1.33301 -29.5 8 -74.5 20l-154 41l-153.5 41l-67 18l-10 39.5c-6.66699 26.333 -13.5 61.333 -20.5 105s-10.5 91.5 -10.5 143.5
c0 56 6.33301 113.333 19 172c6 28 18.167 62.333 36.5 103s43.833 83.334 76.5 128.001s74.334 86.5 125.001 125.5s111.334 71 182.001 96s153 37.5 247 37.5z" />
    <glyph glyph-name="uni064A" unicode="&#x64a;" horiz-adv-x="1695" arabic-form="isolated" 
d="M1429 1027c35.333 0 70.9961 -3.16602 106.996 -9.49902s72.333 -14.5 109 -24.5l-104 -396c-45.333 17.333 -92.666 26 -141.999 26c-39.333 0 -77.5 -7.5 -114.5 -22.5s-69.167 -40.333 -96.5 -76s-47 -83.834 -59 -144.501l163 -44
c78.667 -20 140.334 -37.333 185.001 -52c56 -18.667 96 -48.334 120 -89.001s36 -89.334 36 -146.001v-4c-1.33301 -111.333 -15.5 -205.166 -42.5 -281.499s-62.667 -138.333 -107 -186s-93.166 -84.167 -146.499 -109.5s-107 -42.5 -161 -51.5s-103.667 -13.5 -149 -13.5
h-306c-112.667 0 -210 20.333 -292 61s-149.5 94 -202.5 160s-92.333 138.5 -118 217.5s-38.5 156.5 -38.5 232.5c0 124.667 15 237.167 45 337.5s69 197.833 117 292.5l367 -180c-36 -72.667 -65 -143 -87 -211s-33 -134.333 -33 -199c0 -71.333 11.333 -125.5 34 -162.5
s52.667 -62 90 -75s77.666 -19.5 120.999 -19.5h306c54 0 95.5 5.83301 124.5 17.5s49.333 25.167 61 40.5s17.5 29.333 17.5 42c-4.66699 1.33301 -29.5 8 -74.5 20l-154 41l-153.5 41l-67 18l-10 39.5c-6.66699 26.333 -13.5 61.333 -20.5 105s-10.5 91.5 -10.5 143.5
c0 56 6.33301 113.333 19 172c6 28 18.167 62.333 36.5 103s43.833 83.334 76.5 128.001s74.334 86.5 125.001 125.5s111.334 71 182.001 96s153 37.5 247 37.5zM628.996 -640.999l220 -219l-220 -220l-219 220zM1098 -640.999l220 -219l-220 -220l-219 220z" />
    <glyph glyph-name="uni066E.init" unicode="&#x66e;" horiz-adv-x="754" 
d="M629 849l16.998 -91.4961l39 -212.5c10 -52 15 -100 15 -144c0 -22.667 -1.33301 -44.334 -4 -65.001c-5.33301 -40.667 -15.166 -82.834 -29.499 -126.501s-33.166 -79.834 -56.499 -108.501c-46.667 -60.667 -108.334 -105.667 -185.001 -135
c-56.667 -18 -123.667 -27 -201 -27h-249v456h249c24.667 0 41.334 3.16699 50.001 9.5s13 16.166 13 29.499c0 10 -1.33301 21.667 -4 35l-50 260z" />
    <glyph glyph-name="uni066E.medi" unicode="&#x66e;" horiz-adv-x="770" 
d="M681 713l0.000976562 -269.999c0 -16.667 3.66699 -28.834 11 -36.501s25.666 -11.5 54.999 -11.5h48v-456h-40c-102 0 -194.667 25.667 -278 77c-27.333 -16 -56 -29.667 -86 -41c-66.667 -24 -142.667 -36 -228 -36h-188v456h217c32.667 0 54 3.5 64 10.5
s15 19.5 15 37.5v270h410z" />
    <glyph glyph-name="uni066E.fina" unicode="&#x66e;" horiz-adv-x="2204" 
d="M147 794l393 -115.997l-14.5 -60l-32.5 -139c-4.66699 -17.333 -7 -32.666 -7 -45.999s3.83301 -24 11.5 -32s22.167 -12 43.5 -12h959c46 0 77 9.33301 93 28s24 47 24 85v211h409v-245c1.33301 -24.667 11 -43 29 -55s47.333 -18 88 -18h86v-458
c-91.333 0 -160.333 1.16699 -207 3.5s-82.167 8.16602 -106.5 17.499s-46.5 23.666 -66.5 42.999c-35.333 -22.667 -72.5 -38.834 -111.5 -48.501s-79.333 -15.5 -121 -17.5s-84.167 -3 -127.5 -3h-703c-91.333 0 -165.333 0.666992 -222 2s-105 5.33301 -145 12
c-114.667 18 -202 73.333 -262 166c-26 40 -45.167 87.833 -57.5 143.5s-18.5 113.167 -18.5 172.5c0 34 2 67.333 6 100c16 104 35.667 190.667 59 260c0 1.33301 0.333008 2.66602 1 3.99902v2z" />
    <glyph glyph-name="uni066F.init" unicode="&#x66f;" horiz-adv-x="1159" 
d="M1067 429c0 -94 -23.167 -178.001 -69.5 -252.001s-114.166 -132.333 -203.499 -175s-198 -64 -326 -64h-486v457h95c-2.66699 37.333 -4 72.333 -4 105c0 111.333 16 203.666 48 276.999s72.5 131.333 121.5 174s101.167 72.834 156.5 90.501s106.666 26.5 153.999 26.5
c143.333 0 266.333 -54 369 -162c96.667 -109.333 145 -244.666 145 -405.999v-71zM556 637.999c-32.667 0 -60 -10.666 -82 -31.999s-33 -47.333 -33 -78c0 -16.667 1.83301 -32.334 5.5 -47.001s11 -26.5 22 -35.5s27.833 -13.5 50.5 -13.5h155v96
c0 31.333 -11.167 57.5 -33.5 78.5s-50.5 31.5 -84.5 31.5z" />
    <glyph glyph-name="uni066F.medi" unicode="&#x66f;" horiz-adv-x="1222" 
d="M1124 395h122.003v-457h-216c-74.667 0 -143.334 3.83301 -206.001 11.5s-132.334 20.5 -209.001 38.5c-66.667 -18 -133.834 -30.833 -201.501 -38.5s-139.167 -11.5 -214.5 -11.5h-219v457h125c-10 42 -15 86 -15 132c0 148 49 276 147 384c100 108 226 162 378 162
c151.333 0 277 -54 377 -162c98 -108 147 -236 147 -384c0 -46 -5 -90 -15 -132zM615.003 405c4.66699 0.666992 13.834 3.50098 27.501 8.50098s28.834 12.5 45.501 22.5s31.167 23.5 43.5 40.5s18.5 37.833 18.5 62.5c0 8 -1.66699 20.167 -5 36.5
s-9.83301 32.833 -19.5 49.5s-23.334 31 -41.001 43s-40.834 18 -69.501 18s-52 -6 -70 -18s-31.667 -26.333 -41 -43s-15.666 -33.167 -18.999 -49.5s-5 -28.5 -5 -36.5c0 -25.333 6.16699 -46.5 18.5 -63.5s26.666 -30.5 42.999 -40.5s31.5 -17.333 45.5 -22
s23.333 -7.33398 28 -8.00098z" />
    <glyph glyph-name="uni066F.fina" unicode="&#x66f;" horiz-adv-x="1692" 
d="M1127 983c143.333 0 266.33 -54.002 368.997 -162.002c96.667 -109.333 145 -244.666 145 -405.999v-20h76v-457h-79c-1.33301 -26 -3.5 -49 -6.5 -69s-9.16699 -47.333 -18.5 -82c-24.667 -83.333 -65.667 -154.333 -123 -213
c-111.333 -115.333 -287.666 -173 -528.999 -173h-196c-132.667 0 -249.5 23.833 -350.5 71.5s-180.833 116.834 -239.5 207.501c-32 52 -56.167 113.333 -72.5 184s-24.5 141.667 -24.5 213c0 19.333 0.666992 38.333 2 57c9.33301 150 56 318.667 140 506l373 -168
c-63.333 -141.333 -98.333 -262.333 -105 -363c-0.666992 -9.33301 -1 -18.333 -1 -27c0 -56 10.667 -100.333 32 -133c18 -26 41.667 -45.667 71 -59s60 -22 92 -26s59.667 -6 83 -6h196c77.333 0 134.5 3.5 171.5 10.5s61.667 16.5 74 28.5s18.833 25.667 19.5 41h-79
c-87.333 0 -168.166 19 -242.499 57s-133.833 92.5 -178.5 163.5s-67 156.5 -67 256.5c0 111.333 15.333 203.5 46 276.5s69.834 131 117.501 174s98.5 73.333 152.5 91s104.667 26.5 152 26.5zM1093 394.998l153.999 0.00195312v95c0 31.333 -11.167 57.5 -33.5 78.5
s-50.166 31.5 -83.499 31.5s-60.833 -10.667 -82.5 -32s-32.5 -47.333 -32.5 -78c0 -16.667 1.83301 -32.334 5.5 -47.001s11 -26.334 22 -35.001s27.833 -13 50.5 -13z" />
    <glyph glyph-name="uni0671" unicode="&#x671;" horiz-adv-x="610" arabic-form="isolated" 
d="M510 1280v-1342h-410v1342h410zM446 1416h-481l26 119h133l43 66l83 122c24 35.333 53.333 63.333 88 84s72.334 31 113.001 31c31.333 0 61.833 -8 91.5 -24s54.167 -40.5 73.5 -73.5s29 -74.833 29 -125.5c0 -49.333 -10.333 -88.5 -31 -117.5
s-46.334 -49.833 -77.001 -62.5s-61 -19 -91 -19zM451 1719c-21.333 0 -43 -9.5 -65 -28.5s-43.333 -42.5 -64 -70.5s-39.667 -56.333 -57 -85h181c22.667 0 41.5 6.33301 56.5 19s22.5 33 22.5 61c0 68 -24.667 102.667 -74 104z" />
    <glyph glyph-name="uni0679" unicode="&#x679;" horiz-adv-x="2076" arabic-form="isolated" 
d="M786 -61c-91.333 0 -165.334 0.669922 -222.001 2.00293s-105 5.33301 -145 12c-114.667 18 -202 73.333 -262 166c-50 92.667 -75 199.667 -75 321c0 30 1.66699 61 5 93c16 104 35.667 190.667 59 260c0 1.33301 0.333008 2.66602 1 3.99902v2l393 -116v-1
c-1.33301 -4.66699 -6 -24.334 -14 -59.001c-10 -40 -21 -86.333 -33 -139c-4.66699 -16.667 -7 -31.667 -7 -45v-3c0 -12 3.83301 -22 11.5 -30s22.167 -12 43.5 -12l807 1h196c34 0 54 6 60 18c2.66699 5.33301 4 12.333 4 21c0 9.33301 -1.66699 21 -5 35l-40 209
l397 116l7 -36l38 -213c10 -51.333 15 -99 15 -143c0 -22.667 -1.33301 -44.667 -4 -66c-2.66699 -100.667 -30.667 -183.334 -84 -248.001c-47.333 -57.333 -109.666 -98 -186.999 -122c-56.667 -18 -123.667 -27 -201 -27h-758zM1220 653.003l-422.997 -0.000976562v119
h100c2 2 3.5 3.66699 4.5 5s1.66699 2.33301 2 3s0.833008 1.33398 1.5 2.00098c0 1.33301 0.666992 3 2 5s3 4.33301 5 7c5.33301 8.66699 14 21.667 26 39v487h117v-331c23.333 24 49.166 43.333 77.499 58s59.166 22 92.499 22c31.333 0 61.833 -7.33301 91.5 -22
s54.167 -38 73.5 -70s29 -73.667 29 -125c0 -49.333 -10.333 -88.5 -31 -117.5s-46.334 -49.833 -77.001 -62.5s-61 -19 -91 -19zM1225 950.002c-21.333 0 -42.833 -8.83301 -64.5 -26.5s-42.667 -40 -63 -67s-39.833 -55.167 -58.5 -84.5h181
c22.667 0 42.167 6.33301 58.5 19s24.5 33 24.5 61c0 34 -7 58.833 -21 74.5s-33 23.5 -57 23.5z" />
    <glyph glyph-name="uni067E" unicode="&#x67e;" horiz-adv-x="2076" arabic-form="isolated" 
d="M786 -61c-91.333 0 -165.334 0.669922 -222.001 2.00293s-105 5.33301 -145 12c-114.667 18 -202 73.333 -262 166c-50 92.667 -75 199.667 -75 321c0 30 1.66699 61 5 93c16 104 35.667 190.667 59 260c0 1.33301 0.333008 2.66602 1 3.99902v2l393 -116v-1
c-1.33301 -4.66699 -6 -24.334 -14 -59.001c-10 -40 -21 -86.333 -33 -139c-4.66699 -16.667 -7 -31.667 -7 -45v-3c0 -12 3.83301 -22 11.5 -30s22.167 -12 43.5 -12l807 1h196c34 0 54 6 60 18c2.66699 5.33301 4 12.333 4 21c0 9.33301 -1.66699 21 -5 35l-40 209
l397 116l7 -36l38 -213c10 -51.333 15 -99 15 -143c0 -22.667 -1.33301 -44.667 -4 -66c-2.66699 -100.667 -30.667 -183.334 -84 -248.001c-47.333 -57.333 -109.666 -98 -186.999 -122c-56.667 -18 -123.667 -27 -201 -27h-758zM1062 -492.997l201 -200l-201 -201
l-200 201zM826.999 -163.997l220 -219l-220 -220l-219 220zM1296 -163.997l220 -219l-220 -220l-219 220z" />
    <glyph glyph-name="uni0686" unicode="&#x686;" horiz-adv-x="1602" arabic-form="isolated" 
d="M559 1461c60 0 135.33 -12 225.997 -36s185.834 -53.333 285.501 -88l285.5 -103l131 -48l56 -425l-168 -68l-447.5 -179.5l-412.5 -166.5c8 -40 18.167 -88 30.5 -144l38 -165.5l32.5 -137.5l13 -56h775v-456h-608c-75.333 0 -143.166 3.83301 -203.499 11.5
s-114.5 26.167 -162.5 55.5s-90.667 75.5 -128 138.5s-70.666 149 -99.999 258s-55.666 246.833 -78.999 413.5c-6.66699 41.333 -10 80 -10 116c0 86 23.333 161.333 70 226s150 123.667 310 177c157.333 55.333 290.666 100.333 399.999 135l164 52
c-128 29.333 -233.667 52.5 -317 69.5s-138.333 25.5 -165 25.5c-15.333 0 -29 -8 -41 -24s-24 -38.333 -36 -67l-384 98c33.333 128 95 227.333 185 298c80 60 166.667 90 260 90zM1020 183l161 -160l-161 -160l-160 160zM831.997 447l176 -176l-176 -176l-176 176z
M1207 447l176 -176l-176 -176l-175 176z" />
    <glyph glyph-name="uni0688" unicode="&#x688;" horiz-adv-x="1162" arabic-form="isolated" 
d="M329 972l337.998 231c0 0.666992 15.333 -21 46 -65l311 -444c51.333 -73.333 81.333 -152 90 -236c2 -18.667 3 -37.667 3 -57c0 -36 -3.66699 -73 -11 -111s-20 -75.667 -38 -113c-39.333 -74.667 -95.166 -132.667 -167.499 -174s-153.833 -62 -244.5 -62
c-74.667 0 -155.167 9.16699 -241.5 27.5s-161.666 37 -225.999 56s-103.833 31.167 -118.5 36.5l130 428c61.333 -20.667 138 -42.167 230 -64.5s167.333 -33.5 226 -33.5c28 0 44 5 48 15c1.33301 2.66699 2 6 2 10c0 10 -5.66699 24 -17 42l-327 466
c-21.333 31.333 -32.333 47.333 -33 48zM730.998 1285l-422.997 -0.000976562v119h100c2 2 3.5 3.66699 4.5 5s1.66699 2.33301 2 3s0.833008 1.33398 1.5 2.00098c0 1.33301 0.666992 3 2 5s3 4.33301 5 7c5.33301 8.66699 14 21.667 26 39v487h117v-331
c23.333 24 49.166 43.333 77.499 58s59.166 22 92.499 22c31.333 0 61.833 -7.33301 91.5 -22s54.167 -38 73.5 -70s29 -73.667 29 -125c0 -49.333 -10.333 -88.5 -31 -117.5s-46.334 -49.833 -77.001 -62.5s-61 -19 -91 -19zM736.001 1582
c-21.333 0 -42.833 -8.83301 -64.5 -26.5s-42.667 -40 -63 -67s-39.833 -55.167 -58.5 -84.5h181c22.667 0 42.167 6.33301 58.5 19s24.5 33 24.5 61c0 34 -7 58.833 -21 74.5s-33 23.5 -57 23.5z" />
    <glyph glyph-name="uni0691" unicode="&#x691;" horiz-adv-x="876" arabic-form="isolated" 
d="M808 713v-537.001c0 -108.667 -14.333 -214.667 -43 -318s-70 -185 -124 -245c-63.333 -72.667 -142.333 -126.667 -237 -162c-90 -34 -192 -51 -306 -51h-98v457h98c114 0 192.667 24.333 236 73c26 32 43.167 71.333 51.5 118s12.5 89.334 12.5 128.001v537h410z
M613 875.999l-422.997 -0.000976562v119h100c2 2 3.5 3.66699 4.5 5s1.66699 2.33301 2 3s0.833008 1.33398 1.5 2.00098c0 1.33301 0.666992 3 2 5s3 4.33301 5 7c5.33301 8.66699 14 21.667 26 39v487h117v-331c23.333 24 49.166 43.333 77.499 58s59.166 22 92.499 22
c31.333 0 61.833 -7.33301 91.5 -22s54.167 -38 73.5 -70s29 -73.667 29 -125c0 -49.333 -10.333 -88.5 -31 -117.5s-46.334 -49.833 -77.001 -62.5s-61 -19 -91 -19zM618.003 1173c-21.333 0 -42.833 -8.83301 -64.5 -26.5s-42.667 -40 -63 -67
s-39.833 -55.167 -58.5 -84.5h181c22.667 0 42.167 6.33301 58.5 19s24.5 33 24.5 61c0 34 -7 58.833 -21 74.5s-33 23.5 -57 23.5z" />
    <glyph glyph-name="uni0692.fina" unicode="&#x692;" horiz-adv-x="904" 
d="M893 395l36.002 -0.000976562v-457h-46c-30.667 0 -60.334 3.33301 -89.001 10c-11.333 -45.333 -28.833 -99 -52.5 -161s-56.834 -119.667 -99.501 -173c-63.333 -72.667 -142.666 -126.667 -237.999 -162c-90 -34 -191.667 -51 -305 -51h-99v456h99
c113.333 0 192 24.333 236 73c26 32 43.167 71.333 51.5 118s12.5 89.334 12.5 128.001v537h410v-239c0 -20.667 7.16699 -39 21.5 -55s35.166 -24 62.499 -24zM890.002 1311l-231 -413h-131l-234 413h171l126 -253l130 253h169z" />
    <glyph glyph-name="uni0695.fina" unicode="&#x695;" horiz-adv-x="904" 
d="M893 395l36.002 -0.000976562v-457h-46c-30.667 0 -60.334 3.33301 -89.001 10c-11.333 -45.333 -28.833 -99 -52.5 -161s-56.834 -119.667 -99.501 -173c-63.333 -72.667 -142.666 -126.667 -237.999 -162c-90 -34 -191.667 -51 -305 -51h-99v456h99
c113.333 0 192 24.333 236 73c26 32 43.167 71.333 51.5 118s12.5 89.334 12.5 128.001v537h410v-239c0 -20.667 7.16699 -39 21.5 -55s35.166 -24 62.499 -24zM648.002 -679.001l-231 -413h-131l-234 413h171l126 -253l130 253h169z" />
    <glyph glyph-name="uni0698" unicode="&#x698;" horiz-adv-x="985" arabic-form="isolated" 
d="M808 713v-537.001c0 -108.667 -14.333 -214.667 -43 -318s-70 -185 -124 -245c-63.333 -72.667 -142.333 -126.667 -237 -162c-90 -34 -192 -51 -306 -51h-98v457h98c114 0 192.667 24.333 236 73c26 32 43.167 71.333 51.5 118s12.5 89.334 12.5 128.001v537h410z
M728 1392l-201 -200l-200 200l200 201zM512 1082l-220 -219l-219 219l219 220zM981 1082l-220 -219l-219 219l219 220z" />
    <glyph glyph-name="uni06A4.init" unicode="&#x6a4;" horiz-adv-x="1159" arabic-form="initial" 
d="M1067 429c0 -94 -23.167 -178.001 -69.5 -252.001s-114.166 -132.333 -203.499 -175s-198 -64 -326 -64h-486v457h95c-2.66699 37.333 -4 72.333 -4 105c0 111.333 16 203.666 48 276.999s72.5 131.333 121.5 174s101.167 72.834 156.5 90.501s106.666 26.5 153.999 26.5
c143.333 0 266.333 -54 369 -162c96.667 -109.333 145 -244.666 145 -405.999v-71zM556 637.999c-32.667 0 -60 -10.666 -82 -31.999s-33 -47.333 -33 -78c0 -16.667 1.83301 -32.334 5.5 -47.001s11 -26.5 22 -35.5s27.833 -13.5 50.5 -13.5h155v96
c0 31.333 -11.167 57.5 -33.5 78.5s-50.5 31.5 -84.5 31.5zM765 1709l-201 -200l-200 200l200 201zM549 1399l-220 -219l-219 219l219 220zM1018 1399l-220 -219l-219 219l219 220z" />
    <glyph glyph-name="uni06A4.medi" unicode="&#x6a4;" horiz-adv-x="1222" arabic-form="medial" 
d="M1124 395h122.003v-457h-216c-74.667 0 -143.334 3.83301 -206.001 11.5s-132.334 20.5 -209.001 38.5c-66.667 -18 -133.834 -30.833 -201.501 -38.5s-139.167 -11.5 -214.5 -11.5h-219v457h125c-10 42 -15 86 -15 132c0 148 49 276 147 384c100 108 226 162 378 162
c151.333 0 277 -54 377 -162c98 -108 147 -236 147 -384c0 -46 -5 -90 -15 -132zM615.003 405c4.66699 0.666992 13.834 3.50098 27.501 8.50098s28.834 12.5 45.501 22.5s31.167 23.5 43.5 40.5s18.5 37.833 18.5 62.5c0 8 -1.66699 20.167 -5 36.5
s-9.83301 32.833 -19.5 49.5s-23.334 31 -41.001 43s-40.834 18 -69.501 18s-52 -6 -70 -18s-31.667 -26.333 -41 -43s-15.666 -33.167 -18.999 -49.5s-5 -28.5 -5 -36.5c0 -25.333 6.16699 -46.5 18.5 -63.5s26.666 -30.5 42.999 -40.5s31.5 -17.333 45.5 -22
s23.333 -7.33398 28 -8.00098zM846.003 1721l-201 -200l-200 200l200 201zM630.003 1411l-220 -219l-219 219l219 220zM1099 1411l-220 -219l-219 219l219 220z" />
    <glyph glyph-name="uni06A4.fina" unicode="&#x6a4;" horiz-adv-x="2198" arabic-form="final" 
d="M147 800l393.001 -116l-14.5 -60l-32.5 -139c-4.66699 -17.333 -7 -32.666 -7 -45.999s3.83301 -24 11.5 -32s22.167 -12 43.5 -12h556c-10 42 -15 86 -15 132c0 148 49 276 147 384c100 108 226 162 378 162c151.333 0 277 -54 377 -162c98 -108 147 -236 147 -384
c0 -46 -5 -90 -15 -132h107v-457h-201c-74.667 0 -143.334 3.83301 -206.001 11.5s-132.334 20.5 -209.001 38.5c-62.667 -18 -136.667 -30.833 -222 -38.5s-212 -11.5 -380 -11.5c-91.333 0 -199.666 0.666992 -324.999 2s-212.333 5.33301 -261 12
c-114.667 18 -202 73.667 -262 167c-26 38 -45.167 84.833 -57.5 140.5s-18.5 113.834 -18.5 174.501c0 33.333 2 66.666 6 99.999c16 104 35.667 190.667 59 260c0 1.33301 0.333008 2.66602 1 3.99902v2zM1607 405c4.66699 0.666992 13.834 3.50098 27.501 8.50098
s28.834 12.5 45.501 22.5s31.167 23.5 43.5 40.5s18.5 37.833 18.5 62.5c0 8 -1.66699 20.167 -5 36.5s-9.83301 32.833 -19.5 49.5s-23.334 31 -41.001 43s-40.834 18 -69.501 18s-52 -6 -70 -18s-31.667 -26.333 -41 -43s-15.666 -33.167 -18.999 -49.5s-5 -28.5 -5 -36.5
c0 -25.333 6.16699 -46.5 18.5 -63.5s26.666 -30.5 42.999 -40.5s31.5 -17.333 45.5 -22s23.333 -7.33398 28 -8.00098zM1803 1703l-201 -200l-200 200l200 201zM1587 1393l-220 -219l-219 219l219 220zM2056 1393l-220 -219l-219 219l219 220z" />
    <glyph glyph-name="uni06A8.fina" unicode="&#x6a8;" horiz-adv-x="1692" 
d="M1127 983c143.333 0 266.33 -54.002 368.997 -162.002c96.667 -109.333 145 -244.666 145 -405.999v-20h76v-457h-79c-1.33301 -26 -3.5 -49 -6.5 -69s-9.16699 -47.333 -18.5 -82c-24.667 -83.333 -65.667 -154.333 -123 -213
c-111.333 -115.333 -287.666 -173 -528.999 -173h-196c-132.667 0 -249.5 23.833 -350.5 71.5s-180.833 116.834 -239.5 207.501c-32 52 -56.167 113.333 -72.5 184s-24.5 141.667 -24.5 213c0 19.333 0.666992 38.333 2 57c9.33301 150 56 318.667 140 506l373 -168
c-63.333 -141.333 -98.333 -262.333 -105 -363c-0.666992 -9.33301 -1 -18.333 -1 -27c0 -56 10.667 -100.333 32 -133c18 -26 41.667 -45.667 71 -59s60 -22 92 -26s59.667 -6 83 -6h196c77.333 0 134.5 3.5 171.5 10.5s61.667 16.5 74 28.5s18.833 25.667 19.5 41h-79
c-87.333 0 -168.166 19 -242.499 57s-133.833 92.5 -178.5 163.5s-67 156.5 -67 256.5c0 111.333 15.333 203.5 46 276.5s69.834 131 117.501 174s98.5 73.333 152.5 91s104.667 26.5 152 26.5zM1093 394.998l153.999 0.00195312v95c0 31.333 -11.167 57.5 -33.5 78.5
s-50.166 31.5 -83.499 31.5s-60.833 -10.667 -82.5 -32s-32.5 -47.333 -32.5 -78c0 -16.667 1.83301 -32.334 5.5 -47.001s11 -26.334 22 -35.001s27.833 -13 50.5 -13zM1306 1604l-201 -200l-200 200l200 201zM1090 1294l-220 -219l-219 219l219 220zM1559 1294l-220 -219
l-219 219l219 220z" />
    <glyph glyph-name="uni06A9" unicode="&#x6a9;" horiz-adv-x="2016" arabic-form="isolated" 
d="M1846 1613l170.002 -371.998l-600 -275l41 -41l158 -160l50 -53c31.333 -32.667 58.666 -62.834 81.999 -90.501s42.333 -57.167 57 -88.5c17.333 -36.667 29.833 -72.667 37.5 -108s11.5 -69 11.5 -101c0 -58.667 -9.66699 -109.334 -29 -152.001
c-12.667 -32.667 -36.667 -67.167 -72 -103.5s-87.333 -66.5 -156 -90.5c-74 -25.333 -168 -38 -282 -38h-528c-91.333 0 -165.333 0.666992 -222 2s-105 5.33301 -145 12c-114.667 18 -202 73.333 -262 166c-26 38.667 -45.167 85.5 -57.5 140.5s-18.5 112.167 -18.5 171.5
c0 34 2 67.667 6 101c16 104 35.667 190.667 59 260c0 1.33301 0.333008 2.66602 1 3.99902v2l393 -116l-14.5 -60l-32.5 -139c-4.66699 -17.333 -7 -32.666 -7 -45.999s3.83301 -24 11.5 -32s22.167 -12 43.5 -12h773c20.667 0 44.667 0.5 72 1.5
s47.666 2.16699 60.999 3.5c-64 74 -134.667 145.667 -212 215s-145.5 127.333 -204.5 174s-92.833 73 -101.5 79l42 347z" />
    <glyph glyph-name="uni06AA.init" unicode="&#x6aa;" horiz-adv-x="1764" 
d="M1009 1479l129.997 -389h-1c-6 0 -29.167 -8.16699 -69.5 -24.5s-90.833 -38.666 -151.5 -66.999s-118.334 -57.833 -173.001 -88.5s-94.667 -58 -120 -82h166c72 -0.666992 151 -1 237 -1c54.667 0 113.834 -3 177.501 -9s124.834 -18.833 183.501 -38.5
s108.667 -49.167 150 -88.5c55.333 -55.333 98.5 -116.333 129.5 -183s46.5 -132 46.5 -196c0 -90 -30.333 -182.667 -91 -278c-14 -14.667 -32.333 -29.167 -55 -43.5s-49.667 -26.333 -81 -36s-67.666 -14.5 -108.999 -14.5h-127l-836 -2h-440v457h439l903 1l-9 9
c-15.333 15.333 -35.5 29.666 -60.5 42.999s-54.5 20 -88.5 20c-512.667 0 -801 0.333008 -865 1h-3l-204 205c0 136 60.667 265 182 387c78.667 79.333 183.334 155.333 314.001 228c109.333 58.667 205.5 104.5 288.5 137.5s128.833 50.5 137.5 52.5z" />
    <glyph glyph-name="uni06AA.medi" unicode="&#x6aa;" horiz-adv-x="2017" 
d="M1044 1479l129.999 -389.001h-1c-6 0 -29.167 -8.16699 -69.5 -24.5s-90.833 -38.666 -151.5 -66.999s-118.334 -57.833 -173.001 -88.5s-94.667 -58 -120 -82h166c72 -0.666992 151 -1 237 -1c54.667 0 113.834 -3 177.501 -9s124.834 -18.833 183.501 -38.5
s108.667 -49.167 150 -88.5c0 -0.666992 0.333008 -1 1 -1v-1l1 2l40 -42c12.667 -14.667 25.667 -28.667 39 -42c35.333 -52.667 67.5 -93.5 96.5 -122.5s56.167 -50 81.5 -63s50.333 -20.667 75 -23s50.334 -3.5 77.001 -3.5h58v-456h-58c-47.333 0 -101 4.5 -161 13.5
s-121.667 29.5 -185 61.5c-22.667 -19.333 -52.334 -36.666 -89.001 -51.999s-81.334 -23 -134.001 -23h-1440v456h474l903 1l-9 9c-15.333 15.333 -35.5 29.666 -60.5 42.999s-54.5 20 -88.5 20c-512.667 0 -801 0.333008 -865 1h-3l-204 205c0 136 60.667 265 182 387
c78.667 79.333 183.334 155.333 314.001 228c109.333 58.667 205.5 104.5 288.5 137.5s128.833 50.5 137.5 52.5z" />
    <glyph glyph-name="uni06AA.fina" unicode="&#x6aa;" horiz-adv-x="2586" 
d="M1612 1479l129.997 -389.001h-1c-6 0 -29.167 -8.16699 -69.5 -24.5s-90.833 -38.666 -151.5 -66.999s-118.334 -57.833 -173.001 -88.5s-94.667 -58 -120 -82h166c72 -0.666992 151 -1 237 -1c54.667 0 113.834 -3 177.501 -9s124.834 -18.833 183.501 -38.5
s108.667 -49.167 150 -88.5c0 -0.666992 0.333008 -1 1 -1v-1l1 2l40 -42c12.667 -14.667 25.667 -28.667 39 -42c35.333 -52.667 67.5 -93.5 96.5 -122.5s56.167 -50 81.5 -63s50.333 -20.667 75 -23s50.334 -3.5 77 -3.5h58v-457h-58c-47.333 0 -101 4.5 -161 13.5
s-121.667 29.5 -185 61.5c-22.667 -19.333 -52.334 -36.666 -89 -51.999c-36.667 -15.333 -81.334 -23 -134.001 -23h-1120c-121.333 0 -222.666 2 -303.999 6s-150.333 13.333 -207 28c-96.667 26.667 -169.334 75.667 -218.001 147c-27.333 74 -44.833 132.5 -52.5 175.5
s-11.5 79.833 -11.5 110.5c0 62 14.333 147.667 43 257c10 38 18.833 69.833 26.5 95.5s11.834 39.5 12.501 41.5l197 -62l193 -61c-14.667 -48 -28.167 -97.833 -40.5 -149.5s-19.5 -90.5 -21.5 -116.5c19.333 -4 52.333 -7.66699 99 -11
c72.667 -2.66699 167.334 -4 284.001 -4h154l903 1l-9 9c-15.333 15.333 -35.5 29.666 -60.5 42.999s-54.5 20 -88.5 20c-512.667 0 -801 0.333008 -865 1h-3l-204 205c0 136 60.667 265 182 387c78.667 79.333 183.334 155.333 314.001 228
c109.333 58.667 205.5 104.5 288.5 137.5s128.833 50.5 137.5 52.5z" />
    <glyph glyph-name="uni06AF" unicode="&#x6af;" horiz-adv-x="2016" arabic-form="isolated" 
d="M1845 1613l170.002 -371.998l-600 -275l41 -41l158 -160l50 -53c31.333 -32.667 58.666 -62.834 81.999 -90.501s42.333 -57.167 57 -88.5c17.333 -36.667 29.833 -72.667 37.5 -108s11.5 -69 11.5 -101c0 -58.667 -9.66699 -109.334 -29 -152.001
c-12.667 -32.667 -36.667 -67.167 -72 -103.5s-87.333 -66.5 -156 -90.5c-74 -25.333 -168 -38 -282 -38h-528c-91.333 0 -165.333 0.666992 -222 2s-105 5.33301 -145 12c-114.667 18 -202 73.333 -262 166c-26 38.667 -45.167 85.5 -57.5 140.5s-18.5 112.167 -18.5 171.5
c0 34 2 67.667 6 101c16 104 35.667 190.667 59 260c0 1.33301 0.333008 2.66602 1 3.99902v2l393 -116l-14.5 -60l-32.5 -139c-4.66699 -17.333 -7 -32.666 -7 -45.999s3.83301 -24 11.5 -32s22.167 -12 43.5 -12h773c20.667 0 44.667 0.5 72 1.5
s47.666 2.16699 60.999 3.5c-64 74 -134.667 145.667 -212 215s-145.5 127.333 -204.5 174s-92.833 73 -101.5 79l42 347zM972.411 1306.81l13.5342 145.251l778.726 333.461l54.1357 -114.563z" />
    <glyph glyph-name="uni06B5.init" unicode="&#x6b5;" horiz-adv-x="647" 
d="M568 1427l1 -1000v-1c0 -13.333 -2.33301 -38.5 -7 -75.5s-14 -75.5 -28 -115.5c-25.333 -63.333 -62.333 -118 -111 -164c-98 -88.667 -220.667 -133 -368 -133h-79l-1 457h79c40 0 69.333 7.33301 88 22c6.66699 6.66699 11.167 15.5 13.5 26.5s3.5 21.167 3.5 30.5
v953h409zM647 2022l-231 -413h-131l-234 413h171l126 -253l130 253h169z" />
    <glyph glyph-name="uni06B5.medi" unicode="&#x6b5;" horiz-adv-x="642" 
d="M569 458c0 -10 2.33105 -19.833 6.99805 -29.5s13.334 -17.667 26.001 -24s31.667 -9.5 57 -9.5v-458c-68 0 -131 11 -189 33c-38 14 -73.333 32 -106 54c-87.333 -58 -190.666 -87 -309.999 -87h-79v458h79c36 0 62.5 5.16699 79.5 15.5s25.5 31.5 25.5 63.5v953h410
v-969zM660.998 2013l-231 -413h-131l-234 413h171l126 -253l130 253h169z" />
    <glyph glyph-name="uni06B5.fina" unicode="&#x6b5;" horiz-adv-x="1518" 
d="M1464 395h62v-459h-62c-26 0 -51 1.66699 -75 5c0 -56 -10.167 -117.167 -30.5 -183.5s-56.5 -126.5 -108.5 -180.5c-60 -62 -137.667 -107.667 -233 -137c-84 -25.333 -186 -38 -306 -38c-117.333 0 -222.5 24.333 -315.5 73s-169.167 116 -228.5 202
c-28.667 40.667 -52.334 90.5 -71.001 149.5s-28 124.5 -28 196.5c0 24 1.33301 48.667 4 74c6.66699 68 19 139 37 213s45 149.667 81 227l371 -174c-49.333 -105.333 -75.666 -199 -78.999 -281v-15c0 -52 10 -94.333 30 -127c16 -24.667 36.167 -43 60.5 -55
s49 -20 74 -24s46.5 -6 64.5 -6c72 0 127.5 5.16699 166.5 15.5s65.833 29.5 80.5 57.5s22 68.667 22 122v1377h410v-953c0 -52 24.667 -78.333 74 -79zM1487 2013l-231 -413h-131l-234 413h171l126 -253l130 253h169z" />
    <glyph glyph-name="uni06BA" unicode="&#x6ba;" horiz-adv-x="1622" arabic-form="isolated" 
d="M1572 713l0.00390625 -661c0 -109.333 -14.333 -202.166 -43 -278.499s-66.834 -138.833 -114.501 -187.5s-101 -86.5 -160 -113.5s-119.833 -45.667 -182.5 -56s-122.334 -15.5 -179.001 -15.5h-118c-106.667 0 -198.834 13.667 -276.501 41s-143 64.166 -196 110.499
s-95.167 98.5 -126.5 156.5s-53.833 118.833 -67.5 182.5s-20.5 125.5 -20.5 185.5c0 19.333 0.666992 38.333 2 57c10 150 56.667 318.667 140 506l374 -168c-64 -141.333 -99 -262.333 -105 -363v-5c-1.33301 -10.667 -2 -22.667 -2 -36c0 -20 3 -42.167 9 -66.5
s18.167 -47.333 36.5 -69s46 -39.5 83 -53.5s86.833 -21 149.5 -21h118c65.333 0 116.166 5.66699 152.499 17s63 26 80 44s27.5 37.167 31.5 57.5s6 39.833 6 58.5v678h409z" />
    <glyph glyph-name="uni06BE" unicode="&#x6be;" horiz-adv-x="2058" arabic-form="isolated" 
d="M1385 239c33.333 0 61.498 4.83301 84.498 14.5s41.5 21.167 55.5 34.5s23.333 26.333 28 39c4.66699 11.333 7 23.666 7 36.999c0 26.667 -11.167 61.667 -33.5 105s-64.5 105 -126.5 185c2 -8 3 -23.667 3 -47c0 -11.333 -0.666992 -32.333 -2 -63
s-10.5 -74.667 -27.5 -132s-46.5 -108.666 -88.5 -153.999c18.667 -5.33301 36.334 -9.83301 53.001 -13.5s32.334 -5.5 47.001 -5.5zM870.998 378c46 12 81.002 29.498 105.002 52.498s38 54.833 42 95.5v11c0 34.667 -12 64.334 -36 89.001s-53.667 37 -89 37
c-26.667 0 -49.834 -6.66699 -69.501 -20s-34.834 -29.666 -45.501 -48.999s-16 -38 -16 -56c0 -34 11.167 -65.833 33.5 -95.5s47.5 -51.167 75.5 -64.5zM819 11.998c-80 -30.667 -163.667 -46.3311 -251 -46.998h-23c-78.667 0 -154.5 6.5 -227.5 19.5
s-133.5 27.167 -181.5 42.5h-2l-1 1h-1c-0.666992 0 -1.33398 0.333008 -2.00098 1h-1c-0.666992 0 -1.33398 0.333008 -2.00098 1l-8 2c-1.33301 0.666992 -2.33301 1 -3 1h-1v1h-3v1h-2c-0.666992 0 -1 0.333008 -1 1h-3v1h-3l-1 1h-2l-4 2h-3l-1 1h-2
c0 0.666992 -0.333008 1 -1 1c-12.667 4 -20.667 6.33301 -24 7l-1 1h-1l113 394c63.333 -19.333 115 -33.333 155 -42h1c0.666992 0 1.33398 -0.333008 2.00098 -1h1l24 -5h2c0.666992 -0.666992 1.33398 -1 2.00098 -1h1c0.666992 0 1.33398 -0.333008 2.00098 -1h3
l18.999 -4l2 -1h1c-6 20.667 -11.333 43.334 -16 68.001s-7 48 -7 70c0 100.667 23.667 190.167 71 268.5s112.5 140 195.5 185s177.5 67.5 283.5 67.5c86 0 169 -23.667 249 -71l270 223c195.333 -199.333 334 -374 416 -524c69.333 -126.667 104 -240.334 104 -341.001
c0 -18.667 -4.5 -60.834 -13.5 -126.501s-61.5 -142.834 -157.5 -231.501c-40.667 -38.667 -92.167 -69.167 -154.5 -91.5s-136.5 -33.5 -222.5 -33.5c-78.667 0 -167 11.833 -265 35.5s-206.333 65.167 -325 124.5z" />
    <glyph glyph-name="uni06C0" unicode="&#x6c0;" horiz-adv-x="1098" arabic-form="isolated" 
d="M553 352c12 0 26.167 3.33301 42.5 10s30.833 17.5 43.5 32.5s19 34.5 19 58.5c0 12 -5.66699 26.5 -17 43.5s-24 33.667 -38 50s-26.667 30 -38 41l-17 16.5l-15.5 -15.5c-10.333 -10.333 -22 -23.5 -35 -39.5s-24.667 -32.833 -35 -50.5s-15.5 -33.834 -15.5 -48.501
c0 -24 6.5 -43.167 19.5 -57.5s27.833 -24.666 44.5 -30.999s30.667 -9.5 42 -9.5zM539 1188l6 -7l308 -340c45.333 -46 87 -99.5 125 -160.5s61.333 -140.167 70 -237.5c1.33301 -16 2 -31.333 2 -46c0 -57.333 -7 -108 -21 -152s-32 -82.333 -54 -115s-45.333 -60 -70 -82
c-46 -41.333 -97.5 -70.5 -154.5 -87.5s-121.833 -25.5 -194.5 -25.5s-137 8.33301 -193 25s-107.333 46.667 -154 90c-38 36 -70.667 86.5 -98 151.5s-41 136.167 -41 213.5v23c6 93.333 24.833 171.5 56.5 234.5s65.5 113.167 101.5 150.5c16 16.667 30.333 33 43 49
l-20 22c-12 13.333 -18 20.333 -18 21zM620 1861c31.333 0 63.332 -4.33301 95.999 -13l-36 -138c-19.333 5.33301 -39 8 -59 8c-14 0 -27.5 -1.83301 -40.5 -5.5s-25.167 -10.167 -36.5 -19.5c-18 -15.333 -30.333 -37 -37 -65c62.667 -10.667 105 -18.667 127 -24
c24 -5.33301 41.667 -12.333 53 -21c24.667 -17.333 37 -40.666 37 -69.999c0 -12.667 -1.66699 -31.834 -5 -57.501s-14 -52.5 -32 -80.5c-42.667 -60.667 -115 -91 -217 -91h-109v143h109c14.667 0 32.334 1.83301 53.001 5.5s36 11.834 46 24.501
c3.33301 4.66699 5.33301 9 6 13c-29.333 6 -69 13 -119 21l-36 6l-55 9l-5 56c-0.666992 9.33301 -1 18.666 -1 27.999c0 85.333 31 156.333 93 213c33.333 28 72.333 46 117 54c17.333 2.66699 34.333 4 51 4z" />
    <glyph glyph-name="uni06C1" unicode="&#x6c1;" horiz-adv-x="1098" arabic-form="isolated" 
d="M553 352c12 0 26.167 3.33301 42.5 10s30.833 17.5 43.5 32.5s19 34.5 19 58.5c0 12 -5.66699 26.5 -17 43.5s-24 33.667 -38 50s-26.667 30 -38 41l-17 16.5l-15.5 -15.5c-10.333 -10.333 -22 -23.5 -35 -39.5s-24.667 -32.833 -35 -50.5s-15.5 -33.834 -15.5 -48.501
c0 -24 6.5 -43.167 19.5 -57.5s27.833 -24.666 44.5 -30.999s30.667 -9.5 42 -9.5zM539 1188l6 -7l308 -340c45.333 -46 87 -99.5 125 -160.5s61.333 -140.167 70 -237.5c1.33301 -16 2 -31.333 2 -46c0 -57.333 -7 -108 -21 -152s-32 -82.333 -54 -115s-45.333 -60 -70 -82
c-46 -41.333 -97.5 -70.5 -154.5 -87.5s-121.833 -25.5 -194.5 -25.5s-137 8.33301 -193 25s-107.333 46.667 -154 90c-38 36 -70.667 86.5 -98 151.5s-41 136.167 -41 213.5v23c6 93.333 24.833 171.5 56.5 234.5s65.5 113.167 101.5 150.5c16 16.667 30.333 33 43 49
l-20 22c-12 13.333 -18 20.333 -18 21z" />
    <glyph glyph-name="uni06C2.fina" unicode="&#x6c2;" horiz-adv-x="1336" 
d="M756 1110l235 -154.001v-3l40.5 -168l22.5 -91l23 -91l18 -69c5.33301 -22.667 14.166 -44.5 26.499 -65.5s32.5 -38.5 60.5 -52.5s68.333 -21 121 -21h58v-454h-75c-58.667 0 -119.167 8.16699 -181.5 24.5s-112.833 38.166 -151.5 65.499
c-70.667 50 -122.334 106 -155.001 168c-40.667 70.667 -74 148 -100 232c-6 27.333 -11.667 50.333 -17 69l-23 88c-6 22.667 -12.667 50 -20 82c-53.333 -11.333 -90.333 -28 -111 -50s-31 -49.333 -31 -82c0 -23.333 3.66699 -49.666 11 -78.999
c50.667 -203.333 77.667 -305 81 -305l-393 -116c-2 2.66699 -30.333 110 -85 322c-16 66 -24 127.333 -24 184c0 78 13 147 39 207s59.833 111.333 101.5 154s87.334 76.834 137.001 102.501s98.834 43.5 147.501 53.5l152 31.5c45.333 9 76.333 14.833 93 17.5zM629 1285
l-499.003 -163.999v160l115 37c-20 20.667 -35.667 43.5 -47 68.5s-17 52.167 -17 81.5c0 45.333 15.5 88.5 46.5 129.5s68.5 68.5 112.5 82.5c22.667 6.66699 46 10 70 10c25.333 0 48.833 -3.33301 70.5 -10s42.834 -14.334 63.501 -23.001l-32 -133
c-40 11.333 -73.667 17 -101 17c-9.33301 0 -17.666 -1 -24.999 -3c-15.333 -4.66699 -29.166 -13.167 -41.499 -25.5s-18.5 -26.5 -18.5 -42.5c0 -6 1 -12.333 3 -19c4.66699 -16.667 16.5 -30.5 35.5 -41.5s45.5 -16.5 79.5 -16.5c8.66699 0 18.5 0.833008 29.5 2.5
s27.833 5.5 50.5 11.5s55 16 97 30z" />
    <glyph glyph-name="uni06C3.fina" unicode="&#x6c3;" horiz-adv-x="1336" 
d="M756 1110l235 -154.001v-3l40.5 -168l22.5 -91l23 -91l18 -69c5.33301 -22.667 14.166 -44.5 26.499 -65.5s32.5 -38.5 60.5 -52.5s68.333 -21 121 -21h58v-454h-75c-58.667 0 -119.167 8.16699 -181.5 24.5s-112.833 38.166 -151.5 65.499
c-70.667 50 -122.334 106 -155.001 168c-40.667 70.667 -74 148 -100 232c-6 27.333 -11.667 50.333 -17 69l-23 88c-6 22.667 -12.667 50 -20 82c-53.333 -11.333 -90.333 -28 -111 -50s-31 -49.333 -31 -82c0 -23.333 3.66699 -49.666 11 -78.999
c50.667 -203.333 77.667 -305 81 -305l-393 -116c-2 2.66699 -30.333 110 -85 322c-16 66 -24 127.333 -24 184c0 78 13 147 39 207s59.833 111.333 101.5 154s87.334 76.834 137.001 102.501s98.834 43.5 147.501 53.5l152 31.5c45.333 9 76.333 14.833 93 17.5zM515 1408
l-220 -219l-219 219l219 220zM984 1408l-220 -219l-219 219l219 220z" />
    <glyph glyph-name="uni06C6.fina" unicode="&#x6c6;" horiz-adv-x="1102" arabic-form="final" 
d="M526 394l155 0.000976562v96c0 31.333 -11.333 57.5 -34 78.5s-50.667 31.5 -84 31.5c-32.667 0 -60 -10.667 -82 -32s-33 -47.333 -33 -78c0 -16.667 1.83301 -32.334 5.5 -47.001s11 -26.5 22 -35.5s27.833 -13.5 50.5 -13.5zM1074 395.001l53.002 -0.00292969v-457
h-60c-6 -50 -17 -95.333 -33 -136c-26.667 -67.333 -59.834 -124 -99.501 -170s-79.834 -84.667 -120.501 -116c-24 -16.667 -56.833 -34.167 -98.5 -52.5s-101.167 -33.5 -178.5 -45.5c-67.333 -10.667 -154.666 -16 -261.999 -16h-109v454h121c82 0 150 2.33301 204 7
s92.667 13.334 116 26.001s36.333 28.667 39 48h-86c-88.667 2.66699 -169.167 22.834 -241.5 60.501s-130.166 91.667 -173.499 162s-65 155.5 -65 255.5c0 111.333 15.833 203.5 47.5 276.5s72.167 131 121.5 174s101.666 73.333 156.999 91s106.666 26.5 153.999 26.5
c143.333 0 266.333 -54 369 -162c96.667 -109.333 145 -244.666 145 -405.999v-20zM831.002 1473l-231 -413h-131l-234 413h171l126 -253l130 253h169z" />
    <glyph glyph-name="uni06CC" unicode="&#x6cc;" horiz-adv-x="1695" arabic-form="isolated" 
d="M1429 1027c35.333 0 70.9961 -3.16602 106.996 -9.49902s72.333 -14.5 109 -24.5l-104 -396c-45.333 17.333 -92.666 26 -141.999 26c-39.333 0 -77.5 -7.5 -114.5 -22.5s-69.167 -40.333 -96.5 -76s-47 -83.834 -59 -144.501l163 -44
c78.667 -20 140.334 -37.333 185.001 -52c56 -18.667 96 -48.334 120 -89.001s36 -89.334 36 -146.001v-4c-1.33301 -111.333 -15.5 -205.166 -42.5 -281.499s-62.667 -138.333 -107 -186s-93.166 -84.167 -146.499 -109.5s-107 -42.5 -161 -51.5s-103.667 -13.5 -149 -13.5
h-306c-112.667 0 -210 20.333 -292 61s-149.5 94 -202.5 160s-92.333 138.5 -118 217.5s-38.5 156.5 -38.5 232.5c0 124.667 15 237.167 45 337.5s69 197.833 117 292.5l367 -180c-36 -72.667 -65 -143 -87 -211s-33 -134.333 -33 -199c0 -71.333 11.333 -125.5 34 -162.5
s52.667 -62 90 -75s77.666 -19.5 120.999 -19.5h306c54 0 95.5 5.83301 124.5 17.5s49.333 25.167 61 40.5s17.5 29.333 17.5 42c-4.66699 1.33301 -29.5 8 -74.5 20l-154 41l-153.5 41l-67 18l-10 39.5c-6.66699 26.333 -13.5 61.333 -20.5 105s-10.5 91.5 -10.5 143.5
c0 56 6.33301 113.333 19 172c6 28 18.167 62.333 36.5 103s43.833 83.334 76.5 128.001s74.334 86.5 125.001 125.5s111.334 71 182.001 96s153 37.5 247 37.5z" />
    <glyph glyph-name="uni06CE.init" unicode="&#x6ce;" horiz-adv-x="923" 
d="M794 849l16.998 -91.4961l39 -212.5c10 -52 15 -100 15 -144c0 -22.667 -1.33301 -44.334 -4 -65.001c-5.33301 -40.667 -15.166 -82.834 -29.499 -126.501s-33.166 -79.834 -56.499 -108.501c-46.667 -60.667 -108.334 -105.667 -185.001 -135
c-56.667 -18 -123.667 -27 -201 -27h-444v456h444c24.667 0 41.334 3.16699 50.001 9.5s13 16.166 13 29.499c0 10 -1.33301 21.667 -4 35l-50 260zM217.998 -124.996l220 -219l-220 -220l-219 220zM686.998 -124.996l220 -219l-220 -220l-219 220zM667.998 1437l-231 -413
h-131l-234 413h171l126 -253l130 253h169z" />
    <glyph glyph-name="uni06CE.medi" unicode="&#x6ce;" horiz-adv-x="1024" 
d="M828 713l0.00195312 -269.999c0 -16.667 3.66699 -28.834 11 -36.501s25.666 -11.5 54.999 -11.5h155v-456h-147c-50.667 0 -99.667 7.33301 -147 22s-91 34.667 -131 60c-38.667 -30.667 -81.834 -52 -129.501 -64s-109.167 -18 -184.5 -18h-335v456h364
c32.667 0 54 3.5 64 10.5s15 19.5 15 37.5v270h410zM262.002 -116.999l220 -219l-220 -220l-219 220zM731.002 -116.999l220 -219l-220 -220l-219 220zM941.002 1269l-231 -413h-131l-234 413h171l126 -253l130 253h169z" />
    <glyph glyph-name="uni06CE.fina" unicode="&#x6ce;" horiz-adv-x="1856" 
d="M226 700l366.998 -177.002c-73.333 -152 -110 -282 -110 -390c0 -86.667 23 -154.5 69 -203.5s114.667 -73.5 206 -73.5h266c50.667 0 93.334 1.66699 128.001 5s63.334 7.5 86.001 12.5s40.167 10 52.5 15s20.833 9.16699 25.5 12.5l7 5
c-39.333 18.667 -83.833 33 -133.5 43s-103.5 18.667 -161.5 26c-20 2.66699 -40.333 5.66699 -61 9v410h914v-456h-183c3.33301 -19.333 5 -38.666 5 -57.999c0 -88.667 -16.167 -162 -48.5 -220s-74.5 -104.333 -126.5 -139s-108.333 -60.5 -169 -77.5
s-120.5 -28 -179.5 -33s-110.833 -7.5 -155.5 -7.5h-266c-120 0 -223.333 21 -310 63s-158 97.833 -214 167.5s-97.333 147.834 -124 234.501s-40 175 -40 265c0 80.667 13.5 172 40.5 274s65.5 199.667 115.5 293zM1176 1039l-231 -413h-131l-234 413h171l126 -253l130 253
h169z" />
    <glyph glyph-name="uni06D2" unicode="&#x6d2;" horiz-adv-x="1705" arabic-form="isolated" 
d="M913 395v-456.001h-342c-26.667 0 -48.5 -5.16699 -65.5 -15.5s-25.5 -26.166 -25.5 -47.499c0 -22.667 8 -39.167 24 -49.5s38.333 -15.5 67 -15.5h1084v-448h-1084c-138 0 -257 46.333 -357 139c-46.667 44.667 -82.334 100 -107.001 166s-37 143 -37 231
s12.667 158.667 38 212s62 102 110 146c100.667 92 218.334 138 353.001 138h342z" />
    <glyph glyph-name="uni06D3" unicode="&#x6d3;" horiz-adv-x="1705" arabic-form="isolated" 
d="M913 395v-456.001h-342c-26.667 0 -48.5 -5.16699 -65.5 -15.5s-25.5 -26.166 -25.5 -47.499c0 -22.667 8 -39.167 24 -49.5s38.333 -15.5 67 -15.5h1084v-448h-1084c-138 0 -257 46.333 -357 139c-46.667 44.667 -82.334 100 -107.001 166s-37 143 -37 231
s12.667 158.667 38 212s62 102 110 146c100.667 92 218.334 138 353.001 138h342zM671 577.999l-499.003 -163.999v160l115 37c-20 20.667 -35.667 43.5 -47 68.5s-17 52.167 -17 81.5c0 45.333 15.5 88.5 46.5 129.5s68.5 68.5 112.5 82.5c22.667 6.66699 46 10 70 10
c25.333 0 48.833 -3.33301 70.5 -10s42.834 -14.334 63.501 -23.001l-32 -133c-40 11.333 -73.667 17 -101 17c-9.33301 0 -17.666 -1 -24.999 -3c-15.333 -4.66699 -29.166 -13.167 -41.499 -25.5s-18.5 -26.5 -18.5 -42.5c0 -6 1 -12.333 3 -19
c4.66699 -16.667 16.5 -30.5 35.5 -41.5s45.5 -16.5 79.5 -16.5c8.66699 0 18.5 0.833008 29.5 2.5s27.833 5.5 50.5 11.5s55 16 97 30z" />
    <glyph glyph-name="uni0671.fina" unicode="&#x671;" horiz-adv-x="646" arabic-form="final" 
d="M665 395l0.000976562 -455.998h-89c-58.667 0 -110.167 6.66699 -154.5 20s-82.166 30 -113.499 50s-57 40 -77 60c-20.667 20 -40.834 45.667 -60.501 77s-36.334 69.166 -50.001 113.499s-20.5 95.833 -20.5 154.5c0 80.667 0.166992 212.167 0.5 394.5
s0.5 321.166 0.5 416.499v55h409v-821c0 -23.333 7.66699 -39.833 23 -49.5s29 -14.5 41 -14.5h91zM446.001 1416h-481l26 119h133l43 66l83 122c24 35.333 53.333 63.333 88 84s72.334 31 113.001 31c31.333 0 61.833 -8 91.5 -24s54.167 -40.5 73.5 -73.5
s29 -74.833 29 -125.5c0 -49.333 -10.333 -88.5 -31 -117.5s-46.334 -49.833 -77.001 -62.5s-61 -19 -91 -19zM451.001 1719c-21.333 0 -43 -9.5 -65 -28.5s-43.333 -42.5 -64 -70.5s-39.667 -56.333 -57 -85h181c22.667 0 41.5 6.33301 56.5 19s22.5 33 22.5 61
c0 68 -24.667 102.667 -74 104z" />
    <glyph glyph-name="uni067E.fina" unicode="&#x67e;" horiz-adv-x="2204" arabic-form="final" 
d="M147 794l393 -115.997l-14.5 -60l-32.5 -139c-4.66699 -17.333 -7 -32.666 -7 -45.999s3.83301 -24 11.5 -32s22.167 -12 43.5 -12h959c46 0 77 9.33301 93 28s24 47 24 85v211h409v-245c1.33301 -24.667 11 -43 29 -55s47.333 -18 88 -18h86v-458
c-91.333 0 -160.333 1.16699 -207 3.5s-82.167 8.16602 -106.5 17.499s-46.5 23.666 -66.5 42.999c-35.333 -22.667 -72.5 -38.834 -111.5 -48.501s-79.333 -15.5 -121 -17.5s-84.167 -3 -127.5 -3h-703c-91.333 0 -165.333 0.666992 -222 2s-105 5.33301 -145 12
c-114.667 18 -202 73.333 -262 166c-26 40 -45.167 87.833 -57.5 143.5s-18.5 113.167 -18.5 172.5c0 34 2 67.333 6 100c16 104 35.667 190.667 59 260c0 1.33301 0.333008 2.66602 1 3.99902v2zM1061 -491.997l201 -200l-201 -201l-200 201zM826 -162.997l220 -219
l-220 -220l-219 220zM1295 -162.997l220 -219l-220 -220l-219 220z" />
    <glyph glyph-name="uni067E.init" unicode="&#x67e;" horiz-adv-x="923" arabic-form="initial" 
d="M794 849l16.998 -91.4961l39 -212.5c10 -52 15 -100 15 -144c0 -22.667 -1.33301 -44.334 -4 -65.001c-5.33301 -40.667 -15.166 -82.834 -29.499 -126.501s-33.166 -79.834 -56.499 -108.501c-46.667 -60.667 -108.334 -105.667 -185.001 -135
c-56.667 -18 -123.667 -27 -201 -27h-444v456h444c24.667 0 41.334 3.16699 50.001 9.5s13 16.166 13 29.499c0 10 -1.33301 21.667 -4 35l-50 260zM465.998 -494.996l201 -200l-201 -201l-200 201zM230.998 -165.996l220 -219l-220 -220l-219 220zM699.998 -165.996
l220 -219l-220 -220l-219 220z" />
    <glyph glyph-name="uni067E.medi" unicode="&#x67e;" horiz-adv-x="1024" arabic-form="medial" 
d="M828 713l0.00195312 -269.999c0 -16.667 3.66699 -28.834 11 -36.501s25.666 -11.5 54.999 -11.5h155v-456h-147c-50.667 0 -99.667 7.33301 -147 22s-91 34.667 -131 60c-38.667 -30.667 -81.834 -52 -129.501 -64s-109.167 -18 -184.5 -18h-335v456h364
c32.667 0 54 3.5 64 10.5s15 19.5 15 37.5v270h410zM505.002 -489.999l201 -200l-201 -201l-200 201zM270.002 -160.999l220 -219l-220 -220l-219 220zM739.002 -160.999l220 -219l-220 -220l-219 220z" />
    <glyph glyph-name="uni0679.fina" unicode="&#x679;" horiz-adv-x="2204" arabic-form="final" 
d="M147 794l393 -115.997l-14.5 -60l-32.5 -139c-4.66699 -17.333 -7 -32.666 -7 -45.999s3.83301 -24 11.5 -32s22.167 -12 43.5 -12h959c46 0 77 9.33301 93 28s24 47 24 85v211h409v-245c1.33301 -24.667 11 -43 29 -55s47.333 -18 88 -18h86v-458
c-91.333 0 -160.333 1.16699 -207 3.5s-82.167 8.16602 -106.5 17.499s-46.5 23.666 -66.5 42.999c-35.333 -22.667 -72.5 -38.834 -111.5 -48.501s-79.333 -15.5 -121 -17.5s-84.167 -3 -127.5 -3h-703c-91.333 0 -165.333 0.666992 -222 2s-105 5.33301 -145 12
c-114.667 18 -202 73.333 -262 166c-26 40 -45.167 87.833 -57.5 143.5s-18.5 113.167 -18.5 172.5c0 34 2 67.333 6 100c16 104 35.667 190.667 59 260c0 1.33301 0.333008 2.66602 1 3.99902v2zM1232 663.003l-422.997 -0.000976562v119h100c2 2 3.5 3.66699 4.5 5
s1.66699 2.33301 2 3s0.833008 1.33398 1.5 2.00098c0 1.33301 0.666992 3 2 5s3 4.33301 5 7c5.33301 8.66699 14 21.667 26 39v487h117v-331c23.333 24 49.166 43.333 77.499 58s59.166 22 92.499 22c31.333 0 61.833 -7.33301 91.5 -22s54.167 -38 73.5 -70
s29 -73.667 29 -125c0 -49.333 -10.333 -88.5 -31 -117.5s-46.334 -49.833 -77.001 -62.5s-61 -19 -91 -19zM1237 960.002c-21.333 0 -42.833 -8.83301 -64.5 -26.5s-42.667 -40 -63 -67s-39.833 -55.167 -58.5 -84.5h181c22.667 0 42.167 6.33301 58.5 19s24.5 33 24.5 61
c0 34 -7 58.833 -21 74.5s-33 23.5 -57 23.5z" />
    <glyph glyph-name="uni0679.init" unicode="&#x679;" horiz-adv-x="923" arabic-form="initial" 
d="M794 849l16.998 -91.4961l39 -212.5c10 -52 15 -100 15 -144c0 -22.667 -1.33301 -44.334 -4 -65.001c-5.33301 -40.667 -15.166 -82.834 -29.499 -126.501s-33.166 -79.834 -56.499 -108.501c-46.667 -60.667 -108.334 -105.667 -185.001 -135
c-56.667 -18 -123.667 -27 -201 -27h-444v456h444c24.667 0 41.334 3.16699 50.001 9.5s13 16.166 13 29.499c0 10 -1.33301 21.667 -4 35l-50 260zM662.998 993.004l-422.997 -0.000976562v119h100c2 2 3.5 3.66699 4.5 5s1.66699 2.33301 2 3
s0.833008 1.33398 1.5 2.00098c0 1.33301 0.666992 3 2 5s3 4.33301 5 7c5.33301 8.66699 14 21.667 26 39v487h117v-331c23.333 24 49.166 43.333 77.499 58s59.166 22 92.499 22c31.333 0 61.833 -7.33301 91.5 -22s54.167 -38 73.5 -70s29 -73.667 29 -125
c0 -49.333 -10.333 -88.5 -31 -117.5s-46.334 -49.833 -77.001 -62.5s-61 -19 -91 -19zM668.001 1290c-21.333 0 -42.833 -8.83301 -64.5 -26.5s-42.667 -40 -63 -67s-39.833 -55.167 -58.5 -84.5h181c22.667 0 42.167 6.33301 58.5 19s24.5 33 24.5 61
c0 34 -7 58.833 -21 74.5s-33 23.5 -57 23.5z" />
    <glyph glyph-name="uni0679.medi" unicode="&#x679;" horiz-adv-x="1024" arabic-form="medial" 
d="M828 713l0.00195312 -269.999c0 -16.667 3.66699 -28.834 11 -36.501s25.666 -11.5 54.999 -11.5h155v-456h-147c-50.667 0 -99.667 7.33301 -147 22s-91 34.667 -131 60c-38.667 -30.667 -81.834 -52 -129.501 -64s-109.167 -18 -184.5 -18h-335v456h364
c32.667 0 54 3.5 64 10.5s15 19.5 15 37.5v270h410zM558.002 839.001l-422.997 -0.000976562v119h100c2 2 3.5 3.66699 4.5 5s1.66699 2.33301 2 3s0.833008 1.33398 1.5 2.00098c0 1.33301 0.666992 3 2 5s3 4.33301 5 7c5.33301 8.66699 14 21.667 26 39v487h117v-331
c23.333 24 49.166 43.333 77.499 58s59.166 22 92.499 22c31.333 0 61.833 -7.33301 91.5 -22s54.167 -38 73.5 -70s29 -73.667 29 -125c0 -49.333 -10.333 -88.5 -31 -117.5s-46.334 -49.833 -77.001 -62.5s-61 -19 -91 -19zM563.005 1136
c-21.333 0 -42.833 -8.83301 -64.5 -26.5s-42.667 -40 -63 -67s-39.833 -55.167 -58.5 -84.5h181c22.667 0 42.167 6.33301 58.5 19s24.5 33 24.5 61c0 34 -7 58.833 -21 74.5s-33 23.5 -57 23.5z" />
    <glyph glyph-name="veh.isol" unicode="&#x6a4;" horiz-adv-x="2111" arabic-form="isolated" 
d="M2022 427c0 -94.667 -23.166 -179 -69.499 -253s-114.166 -132.167 -203.499 -174.5s-198.333 -63.5 -327 -63.5h-632c-91.333 0 -165.333 0.666992 -222 2s-105 5.33301 -145 12c-114.667 18 -202 73.333 -262 166c-50 92.667 -75 199.667 -75 321c0 30 1.66699 61 5 93
c16 104 35.667 190.667 59 260c0 1.33301 0.333008 2.66602 1 3.99902v2l393 -117l-5 -21c-2.66699 -9.33301 -5.66699 -22 -9 -38c-10 -40 -21 -86.333 -33 -139c-4.66699 -16.667 -7 -31.667 -7 -45v-3c0 -12 3.66699 -22 11 -30c8 -8 22.667 -12 44 -12h392v2h95
c-2.66699 37.333 -4 72.333 -4 105c0 111.333 15.833 203.5 47.5 276.5s72.167 131 121.5 174s101.666 73.333 156.999 91s106.666 26.5 153.999 26.5c143.333 0 266.333 -54 369 -162c96.667 -109.333 145 -244.666 145 -405.999v-71zM1629 430v95.999
c0 31.333 -11.333 57.5 -34 78.5s-50.667 31.5 -84 31.5c-32.667 0 -60 -10.667 -82 -32s-33 -47.333 -33 -78c0 -17.333 1.83301 -33.166 5.5 -47.499s11 -26 22 -35s27.833 -13.5 50.5 -13.5h155zM1725 1717l-201 -200l-200 200l200 201zM1509 1407l-220 -219l-219 219
l219 220zM1978 1407l-220 -219l-219 219l219 220z" />
    <glyph glyph-name="veh.fina" unicode="&#x6a4;" horiz-adv-x="2198" arabic-form="final" 
d="M147 800l393.001 -116l-14.5 -60l-32.5 -139c-4.66699 -17.333 -7 -32.666 -7 -45.999s3.83301 -24 11.5 -32s22.167 -12 43.5 -12h556c-10 42 -15 86 -15 132c0 148 49 276 147 384c100 108 226 162 378 162c151.333 0 277 -54 377 -162c98 -108 147 -236 147 -384
c0 -46 -5 -90 -15 -132h107v-457h-201c-74.667 0 -143.334 3.83301 -206.001 11.5s-132.334 20.5 -209.001 38.5c-62.667 -18 -136.667 -30.833 -222 -38.5s-212 -11.5 -380 -11.5c-91.333 0 -199.666 0.666992 -324.999 2s-212.333 5.33301 -261 12
c-114.667 18 -202 73.667 -262 167c-26 38 -45.167 84.833 -57.5 140.5s-18.5 113.834 -18.5 174.501c0 33.333 2 66.666 6 99.999c16 104 35.667 190.667 59 260c0 1.33301 0.333008 2.66602 1 3.99902v2zM1607 405c4.66699 0.666992 13.834 3.50098 27.501 8.50098
s28.834 12.5 45.501 22.5s31.167 23.5 43.5 40.5s18.5 37.833 18.5 62.5c0 8 -1.66699 20.167 -5 36.5s-9.83301 32.833 -19.5 49.5s-23.334 31 -41.001 43s-40.834 18 -69.501 18s-52 -6 -70 -18s-31.667 -26.333 -41 -43s-15.666 -33.167 -18.999 -49.5s-5 -28.5 -5 -36.5
c0 -25.333 6.16699 -46.5 18.5 -63.5s26.666 -30.5 42.999 -40.5s31.5 -17.333 45.5 -22s23.333 -7.33398 28 -8.00098zM1815 1713l-201 -200l-200 200l200 201zM1599 1403l-220 -219l-219 219l219 220zM2068 1403l-220 -219l-219 219l219 220z" />
    <glyph glyph-name="veh.init" unicode="&#x6a4;" horiz-adv-x="1159" arabic-form="initial" 
d="M1067 429c0 -94 -23.167 -178.001 -69.5 -252.001s-114.166 -132.333 -203.499 -175s-198 -64 -326 -64h-486v457h95c-2.66699 37.333 -4 72.333 -4 105c0 111.333 16 203.666 48 276.999s72.5 131.333 121.5 174s101.167 72.834 156.5 90.501s106.666 26.5 153.999 26.5
c143.333 0 266.333 -54 369 -162c96.667 -109.333 145 -244.666 145 -405.999v-71zM556 637.999c-32.667 0 -60 -10.666 -82 -31.999s-33 -47.333 -33 -78c0 -16.667 1.83301 -32.334 5.5 -47.001s11 -26.5 22 -35.5s27.833 -13.5 50.5 -13.5h155v96
c0 31.333 -11.167 57.5 -33.5 78.5s-50.5 31.5 -84.5 31.5zM754 1717l-201 -200l-200 200l200 201zM538 1407l-220 -219l-219 219l219 220zM1007 1407l-220 -219l-219 219l219 220z" />
    <glyph glyph-name="veh.medi" unicode="&#x6a4;" horiz-adv-x="1222" arabic-form="medial" 
d="M1124 395h122.003v-457h-216c-74.667 0 -143.334 3.83301 -206.001 11.5s-132.334 20.5 -209.001 38.5c-66.667 -18 -133.834 -30.833 -201.501 -38.5s-139.167 -11.5 -214.5 -11.5h-219v457h125c-10 42 -15 86 -15 132c0 148 49 276 147 384c100 108 226 162 378 162
c151.333 0 277 -54 377 -162c98 -108 147 -236 147 -384c0 -46 -5 -90 -15 -132zM615.003 405c4.66699 0.666992 13.834 3.50098 27.501 8.50098s28.834 12.5 45.501 22.5s31.167 23.5 43.5 40.5s18.5 37.833 18.5 62.5c0 8 -1.66699 20.167 -5 36.5
s-9.83301 32.833 -19.5 49.5s-23.334 31 -41.001 43s-40.834 18 -69.501 18s-52 -6 -70 -18s-31.667 -26.333 -41 -43s-15.666 -33.167 -18.999 -49.5s-5 -28.5 -5 -36.5c0 -25.333 6.16699 -46.5 18.5 -63.5s26.666 -30.5 42.999 -40.5s31.5 -17.333 45.5 -22
s23.333 -7.33398 28 -8.00098zM817.003 1719l-201 -200l-200 200l200 201zM601.003 1409l-220 -219l-219 219l219 220zM1070 1409l-220 -219l-219 219l219 220z" />
    <glyph glyph-name="uni0686.fina" unicode="&#x686;" horiz-adv-x="1729" arabic-form="final" 
d="M1131 337l-234.003 -92.999l-412 -167c7.33301 -40 17.333 -88 30 -144l38 -166c12.667 -54.667 23.667 -100.334 33 -137.001l13 -56h775v-456h-608c-75.333 0 -143.333 4 -204 12c-60 7.33301 -114 25.666 -162 54.999s-90.667 75.666 -128 138.999
c-38 62.667 -71.333 148.334 -100 257.001c-29.333 109.333 -55.666 247.333 -78.999 414c-6.66699 41.333 -10 80 -10 116c0 86 19.333 155.667 58 209c54.667 76 162 140.667 322 194l400 135l164 52c-128 29.333 -233.667 52.333 -317 69
c-83.333 17.333 -138.333 26 -165 26c-15.333 0 -29 -8 -41 -24c-12.667 -16 -24.667 -38.333 -36 -67l-384 98c33.333 128 95 227.333 185 298c80 60 166.667 90 260 90c60 0 135.333 -12 226 -36s186 -53.333 286 -88l285 -103l131 -48l56 -426
c-18.667 -6.66699 -40 -15 -64 -25c0 -0.666992 0.333008 -1.33398 1 -2.00098c2 -3.33301 5.83301 -7.83301 11.5 -13.5s14.334 -11.5 26.001 -17.5s27.167 -11.833 46.5 -17.5s43.333 -10.167 72 -13.5s63.334 -5 104.001 -5h38v-457h-23
c-119.333 0 -223.5 12.833 -312.5 38.5s-158.167 69.834 -207.5 132.501c-45.333 56.667 -70 132.334 -74 227.001zM906.997 -101.999l161 -160l-161 -160l-160 160zM718.997 162.001l176 -176l-176 -176l-176 176zM1094 162.001l176 -176l-176 -176l-175 176z" />
    <glyph glyph-name="uni0686.init" unicode="&#x686;" horiz-adv-x="1506" arabic-form="initial" 
d="M495 973c37.333 0 73.665 -5.33398 108.998 -16.001c156 -46.667 303.5 -93 442.5 -139l303.5 -102c26.667 -8.66699 41.667 -13.667 45 -15l51 -408c-106.667 -75.333 -214.334 -139.333 -323.001 -192s-249.167 -93 -421.5 -121s-414.166 -42 -725.499 -42l-1 457
c207.333 0 403.5 3.66699 588.5 11s323.833 25.333 416.5 54l-76.5 24l-176 54.5l-177.5 53.5c-8 2 -15.667 3 -23 3c-18.667 0 -33.167 -8.5 -43.5 -25.5s-21.166 -41.167 -32.499 -72.5l-382 98c40.667 150.667 118.334 259.334 233.001 326.001
c62.667 34.667 127 52 193 52zM683.999 -505.001l201 -200l-201 -201l-200 201zM448.999 -176.001l220 -219l-220 -220l-219 220zM917.999 -176.001l220 -219l-220 -220l-219 220z" />
    <glyph glyph-name="uni0686.medi" unicode="&#x686;" horiz-adv-x="1547" arabic-form="medial" 
d="M1440 397l22.999 -1c15.333 0 33.333 -0.166992 54 -0.5s38.667 -0.5 54 -0.5v-458c-75.333 0 -137.5 7.16699 -186.5 21.5s-87.667 30.833 -116 49.5s-48.166 35.334 -59.499 50.001l-17 22c-144 -54 -321 -91.333 -531 -112s-439 -31 -687 -31v458
c125.333 0 254.833 1.16699 388.5 3.5s255.667 8.16602 366 17.499s195.833 23.666 256.5 42.999l-76 24l-176 54.5l-178 53.5c-8 2 -15.667 3 -23 3c-18 0 -32.333 -8.5 -43 -25.5s-21.667 -41.167 -33 -72.5l-382 98c40.667 150.667 118.334 259.334 233.001 326.001
c62.667 34.667 127 52 193 52c37.333 0 73.666 -5.33301 108.999 -16c155.333 -46.667 302.5 -93 441.5 -139l304.5 -102c26.667 -9.33301 41.667 -14.333 45 -15l43 -303h-3zM692.999 -506l201 -200l-201 -201l-200 201zM457.999 -177l220 -219l-220 -220l-219 220z
M926.999 -177l220 -219l-220 -220l-219 220z" />
    <glyph glyph-name="uni0688.fina" unicode="&#x688;" horiz-adv-x="1281" arabic-form="final" 
d="M1253 394h53.002v-456h-97c-95.333 0.666992 -187 36 -275 106c-24 -22 -50.667 -41 -80 -57c-76.667 -42 -160 -63 -250 -63c-75.333 0 -153.833 7.5 -235.5 22.5s-151.834 30.333 -210.501 46s-94.667 25.834 -108 30.501l122 437c25.333 -8 63 -18.333 113 -31
s104 -24.167 162 -34.5s110.333 -15.5 157 -15.5c17.333 0 31.333 2.33301 42 7s17.667 10 21 16c1.33301 2.66699 2 5.66699 2 9c0 6 -1.5 12.333 -4.5 19s-5.5 11.667 -7.5 15l-1 1l-270.5 400.5c-52.333 78.333 -78.166 117.5 -77.499 117.5l343 224
c0 -0.666992 25.667 -39.5 77 -116.5l267 -396.5c4.66699 -6.66699 9 -13.667 13 -21c3.33301 -6 14.166 -22.167 32.499 -48.5s40.333 -55.833 66 -88.5s51.667 -61.334 78 -86.001s49.166 -37 68.499 -37zM743.002 1285l-422.997 -0.000976562v119h100
c2 2 3.5 3.66699 4.5 5s1.66699 2.33301 2 3s0.833008 1.33398 1.5 2.00098c0 1.33301 0.666992 3 2 5s3 4.33301 5 7c5.33301 8.66699 14 21.667 26 39v487h117v-331c23.333 24 49.166 43.333 77.499 58s59.166 22 92.499 22c31.333 0 61.833 -7.33301 91.5 -22
s54.167 -38 73.5 -70s29 -73.667 29 -125c0 -49.333 -10.333 -88.5 -31 -117.5s-46.334 -49.833 -77.001 -62.5s-61 -19 -91 -19zM748.005 1582c-21.333 0 -42.833 -8.83301 -64.5 -26.5s-42.667 -40 -63 -67s-39.833 -55.167 -58.5 -84.5h181
c22.667 0 42.167 6.33301 58.5 19s24.5 33 24.5 61c0 34 -7 58.833 -21 74.5s-33 23.5 -57 23.5z" />
    <glyph glyph-name="uni0698.fina" unicode="&#x698;" horiz-adv-x="913" arabic-form="final" 
d="M893 395l36.002 -0.000976562v-457h-46c-30.667 0 -60.334 3.33301 -89.001 10c-11.333 -45.333 -28.833 -99 -52.5 -161s-56.834 -119.667 -99.501 -173c-63.333 -72.667 -142.666 -126.667 -237.999 -162c-90 -34 -191.667 -51 -305 -51h-99v456h99
c113.333 0 192 24.333 236 73c26 32 43.167 71.333 51.5 118s12.5 89.334 12.5 128.001v537h410v-239c0 -20.667 7.16699 -39 21.5 -55s35.166 -24 62.499 -24zM713.002 1386l-201 -200l-200 200l200 201zM497.002 1076l-220 -219l-219 219l219 220zM966.002 1076l-220 -219
l-219 219l219 220z" />
    <glyph glyph-name="uni0691.fina" unicode="&#x691;" horiz-adv-x="904" arabic-form="final" 
d="M893 395l36.002 -0.000976562v-457h-46c-30.667 0 -60.334 3.33301 -89.001 10c-11.333 -45.333 -28.833 -99 -52.5 -161s-56.834 -119.667 -99.501 -173c-63.333 -72.667 -142.666 -126.667 -237.999 -162c-90 -34 -191.667 -51 -305 -51h-99v456h99
c113.333 0 192 24.333 236 73c26 32 43.167 71.333 51.5 118s12.5 89.334 12.5 128.001v537h410v-239c0 -20.667 7.16699 -39 21.5 -55s35.166 -24 62.499 -24zM650.002 869.999l-422.997 -0.000976562v119h100c2 2 3.5 3.66699 4.5 5s1.66699 2.33301 2 3
s0.833008 1.33398 1.5 2.00098c0 1.33301 0.666992 3 2 5s3 4.33301 5 7c5.33301 8.66699 14 21.667 26 39v487h117v-331c23.333 24 49.166 43.333 77.499 58s59.166 22 92.499 22c31.333 0 61.833 -7.33301 91.5 -22s54.167 -38 73.5 -70s29 -73.667 29 -125
c0 -49.333 -10.333 -88.5 -31 -117.5s-46.334 -49.833 -77.001 -62.5s-61 -19 -91 -19zM655.005 1167c-21.333 0 -42.833 -8.83301 -64.5 -26.5s-42.667 -40 -63 -67s-39.833 -55.167 -58.5 -84.5h181c22.667 0 42.167 6.33301 58.5 19s24.5 33 24.5 61
c0 34 -7 58.833 -21 74.5s-33 23.5 -57 23.5z" />
    <glyph glyph-name="uni06A9.fina" unicode="&#x6a9;" horiz-adv-x="2008" arabic-form="final" 
d="M1982 -61c-74.667 0 -143.833 5.16602 -207.5 15.499s-124.167 31.5 -181.5 63.5c-40 22.667 -77.667 50.667 -113 84c-36.667 -40 -80.667 -73.333 -132 -100c-82.667 -42 -171.667 -63 -267 -63h-306c-91.333 0 -165.333 0.666992 -222 2s-105 5.33301 -145 12
c-114.667 18 -202 73.333 -262 166c-26.667 39.333 -45.834 85.5 -57.501 138.5s-17.5 108.167 -17.5 165.5c0 36.667 2 73.334 6 110.001c16 104 35.667 190.667 59 260c0 1.33301 0.333008 2.66602 1 3.99902v2l393 -116l-14.5 -60l-32.5 -139
c-4.66699 -17.333 -7 -32.666 -7 -45.999s3.83301 -24 11.5 -32s22.167 -12 43.5 -12h520c28.667 0 58.334 1.66699 89.001 5s57 7.66602 79 12.999s34.667 11 38 17l-37.5 51.5l-87.5 118.5l-240 288l71 312l865 419l179 -369l-635 -307l102 -131.5l169 -221.5
c47.333 -63.333 85 -108.666 113 -135.999s57.5 -43.833 88.5 -49.5s77.167 -8.5 138.5 -8.5h44l-1 -456h-44z" />
    <glyph glyph-name="uni06A9.init" unicode="&#x6a9;" horiz-adv-x="1207" arabic-form="initial" 
d="M120 872l42 347.001l875 399l170 -373l-599 -274l52 -53l146 -149l29 -30c37.333 -38.667 69.333 -73.834 96 -105.501s48.334 -64.834 65.001 -99.501c22 -47.333 36 -90.666 42 -129.999c4 -29.333 6 -57.333 6 -84c0 -10 -0.666992 -26.333 -2 -49
s-10.333 -56 -27 -100c-12.667 -32.667 -36.667 -67.167 -72 -103.5s-87 -66.833 -155 -91.5c-74 -25.333 -168 -38 -282 -38h-531v457h531c20 0 43.667 0.5 71 1.5s47.666 2.16699 60.999 3.5c-62 72 -130.667 142.167 -206 210.5s-142.5 126.333 -201.5 174
s-94.833 76.167 -107.5 85.5z" />
    <glyph glyph-name="uni06A9.medi" unicode="&#x6a9;" horiz-adv-x="1252" arabic-form="medial" 
d="M923 589c47.333 -63.333 84.999 -108.832 112.999 -136.499s57.667 -44.167 89 -49.5s77.666 -8 138.999 -8v-458c-75.333 0 -144.833 5 -208.5 15s-124.167 31 -181.5 63c-40 23.333 -77.333 51.333 -112 84c-36.667 -38.667 -80.667 -71.667 -132 -99
c-83.333 -42 -172.666 -63 -267.999 -63h-387v458h357c28.667 0 58.334 1.66699 89.001 5s57 7.5 79 12.5s34.667 10.5 38 16.5l-37.5 51.5l-87.5 117.5l-240 289l71 311l865 419l178 -368l-634 -308c7.33301 -8.66699 25.5 -31.834 54.5 -69.501l102 -133z" />
    <glyph glyph-name="uni06AF.fina" unicode="&#x6af;" horiz-adv-x="2008" arabic-form="final" 
d="M1991 -61c-74.667 0 -143.833 5.16602 -207.5 15.499s-124.167 31.5 -181.5 63.5c-40 22.667 -77.667 50.667 -113 84c-36.667 -40 -80.667 -73.333 -132 -100c-82.667 -42 -171.667 -63 -267 -63h-306c-91.333 0 -165.333 0.666992 -222 2s-105 5.33301 -145 12
c-114.667 18 -202 73.333 -262 166c-26.667 39.333 -45.834 85.5 -57.501 138.5s-17.5 108.167 -17.5 165.5c0 36.667 2 73.334 6 110.001c16 104 35.667 190.667 59 260c0 1.33301 0.333008 2.66602 1 3.99902v2l393 -116l-14.5 -60l-32.5 -139
c-4.66699 -17.333 -7 -32.666 -7 -45.999s3.83301 -24 11.5 -32s22.167 -12 43.5 -12h520c28.667 0 58.334 1.66699 89.001 5s57 7.66602 79 12.999s34.667 11 38 17l-37.5 51.5l-87.5 118.5l-240 288l71 312l865 419l179 -369l-635 -307l102 -131.5l169 -221.5
c47.333 -63.333 85 -108.666 113 -135.999s57.5 -43.833 88.5 -49.5s77.167 -8.5 138.5 -8.5h44l-1 -456h-44zM989.001 1318l13 142l748 326l52 -112z" />
    <glyph glyph-name="uni06AF.init" unicode="&#x6af;" horiz-adv-x="1207" arabic-form="initial" 
d="M120 872l42 347.001l875 399l170 -373l-599 -274l52 -53l146 -149l29 -30c37.333 -38.667 69.333 -73.834 96 -105.501s48.334 -64.834 65.001 -99.501c22 -47.333 36 -90.666 42 -129.999c4 -29.333 6 -57.333 6 -84c0 -10 -0.666992 -26.333 -2 -49
s-10.333 -56 -27 -100c-12.667 -32.667 -36.667 -67.167 -72 -103.5s-87 -66.833 -155 -91.5c-74 -25.333 -168 -38 -282 -38h-531v457h531c20 0 43.667 0.5 71 1.5s47.666 2.16699 60.999 3.5c-62 72 -130.667 142.167 -206 210.5s-142.5 126.333 -201.5 174
s-94.833 76.167 -107.5 85.5zM177 1316l13 142l748 326l52 -112z" />
    <glyph glyph-name="uni06AF.medi" unicode="&#x6af;" horiz-adv-x="1252" arabic-form="medial" 
d="M933 589c47.333 -63.333 84.999 -108.832 112.999 -136.499s57.667 -44.167 89 -49.5s77.666 -8 138.999 -8v-458c-75.333 0 -144.833 5 -208.5 15s-124.167 31 -181.5 63c-40 23.333 -77.333 51.333 -112 84c-36.667 -38.667 -80.667 -71.667 -132 -99
c-83.333 -42 -172.666 -63 -267.999 -63h-387v458h357c28.667 0 58.334 1.66699 89.001 5s57 7.5 79 12.5s34.667 10.5 38 16.5l-37.5 51.5l-87.5 117.5l-240 289l71 311l865 419l178 -368l-634 -308c7.33301 -8.66699 25.5 -31.834 54.5 -69.501l102 -133zM267.999 1317
l13 142l748 326l52 -112z" />
    <glyph glyph-name="uni06BA.fina" unicode="&#x6ba;" horiz-adv-x="1697" arabic-form="final" 
d="M1572 474c0 -52.667 25.0029 -79 75.0029 -79h75v-456h-75c-26.667 0 -52.334 1.66699 -77.001 5c-0.666992 -65.333 -14.334 -129 -41.001 -191c-28.667 -70.667 -66.834 -129.167 -114.501 -175.5s-101 -82.333 -160 -108s-119.833 -43.5 -182.5 -53.5
s-122.334 -15 -179.001 -15h-118c-113.333 0 -210.5 15 -291.5 45s-148 70.167 -201 120.5s-95.167 106.5 -126.5 168.5s-51.333 130.333 -60 205c-5.33301 48.667 -8 93 -8 133c0 21.333 0.666992 41.666 2 60.999c10 150 56.667 318.667 140 506l374 -168
c-64 -141.333 -99 -262.333 -105 -363v-5c-0.666992 -9.33301 -1 -19.666 -1 -30.999s0.666992 -27.333 2 -48s10 -44.5 26 -71.5s43.333 -49.667 82 -68s94.334 -27.5 167.001 -27.5h118c68 0 120.5 6.16699 157.5 18.5s63.5 28 79.5 47s25.667 39.167 29 60.5
c2.66699 17.333 4 34 4 50v679h409v-239z" />
    <glyph glyph-name="uni06C0.fina" unicode="&#x6c0;" horiz-adv-x="1389" arabic-form="final" 
d="M571 435c14 0 26.999 1.83105 38.999 5.49805s21.667 7.5 29 11.5c22.667 12.667 38.5 28.334 47.5 47.001s13.5 39 13.5 61c0 18.667 -2.16699 38.334 -6.5 59.001s-9.16602 41 -14.499 61c-3.33301 12 -6.33301 23.667 -9 35c-54 -22.667 -93.167 -40 -117.5 -52
s-41.5 -23.333 -51.5 -34c-26.667 -28 -40 -56.667 -40 -86c0 -26.667 9.66699 -51 29 -73c12 -12.667 25 -21.667 39 -27s28 -8 42 -8zM960.999 1233l80.9971 -351l13 -60c12.667 -59.333 24.667 -112.833 36 -160.5l41 -166.5c4.66699 -22 12.667 -40.333 24 -55
s31.833 -25.834 61.5 -33.501s75.5 -11.5 137.5 -11.5h59v-457h-59c-74.667 0 -139.167 6.5 -193.5 19.5s-100.166 29 -137.499 48s-67.5 38.167 -90.5 57.5s-40.167 36 -51.5 50c-52.667 -29.333 -104.667 -48.833 -156 -58.5s-105.666 -14.5 -162.999 -14.5
c-64.667 0 -128.5 12.5 -191.5 37.5s-118.333 66.5 -166 124.5s-82.167 136.333 -103.5 235c-8 38.667 -12 78.334 -12 119.001c0 50 7.66699 100.667 23 152s41.333 100.833 78 148.5s86.334 91 149.001 130s140.667 71.833 234 98.5l-13 57zM894.996 1915
c31.333 0 63.332 -4.33301 95.999 -13l-36 -138c-19.333 5.33301 -39 8 -59 8c-14 0 -27.5 -1.83301 -40.5 -5.5s-25.167 -10.167 -36.5 -19.5c-18 -15.333 -30.333 -37 -37 -65c62.667 -10.667 105 -18.667 127 -24c24 -5.33301 41.667 -12.333 53 -21
c24.667 -17.333 37 -40.666 37 -69.999c0 -12.667 -1.66699 -31.834 -5 -57.501s-14 -52.5 -32 -80.5c-42.667 -60.667 -115 -91 -217 -91h-109v143h109c14.667 0 32.334 1.83301 53.001 5.5s36 11.834 46 24.501c3.33301 4.66699 5.33301 9 6 13c-29.333 6 -69 13 -119 21
l-36 6l-55 9l-5 56c-0.666992 9.33301 -1 18.666 -1 27.999c0 85.333 31 156.333 93 213c33.333 28 72.333 46 117 54c17.333 2.66699 34.333 4 51 4z" />
    <glyph glyph-name="uni06C1.fina" unicode="&#x6c1;" horiz-adv-x="1336" arabic-form="final" 
d="M756 1110l235 -154.001v-3l40.5 -168l22.5 -91l23 -91l18 -69c5.33301 -22.667 14.166 -44.5 26.499 -65.5s32.5 -38.5 60.5 -52.5s68.333 -21 121 -21h58v-454h-75c-58.667 0 -119.167 8.16699 -181.5 24.5s-112.833 38.166 -151.5 65.499
c-70.667 50 -122.334 106 -155.001 168c-40.667 70.667 -74 148 -100 232c-6 27.333 -11.667 50.333 -17 69l-23 88c-6 22.667 -12.667 50 -20 82c-53.333 -11.333 -90.333 -28 -111 -50s-31 -49.333 -31 -82c0 -23.333 3.66699 -49.666 11 -78.999
c50.667 -203.333 77.667 -305 81 -305l-393 -116c-2 2.66699 -30.333 110 -85 322c-16 66 -24 127.333 -24 184c0 78 13 147 39 207s59.833 111.333 101.5 154s87.334 76.834 137.001 102.501s98.834 43.5 147.501 53.5l152 31.5c45.333 9 76.333 14.833 93 17.5z" />
    <glyph glyph-name="uni06C1.init" unicode="&#x6c1;" horiz-adv-x="754" arabic-form="initial" 
d="M629 849l16.998 -91.4961l39 -212.5c10 -52 15 -100 15 -144c0 -22.667 -1.33301 -44.334 -4 -65.001c-5.33301 -40.667 -15.166 -82.834 -29.499 -126.501s-33.166 -79.834 -56.499 -108.501c-46.667 -60.667 -108.334 -105.667 -185.001 -135
c-56.667 -18 -123.667 -27 -201 -27h-249v456h249c24.667 0 41.334 3.16699 50.001 9.5s13 16.166 13 29.499c0 10 -1.33301 21.667 -4 35l-50 260zM280.998 -143.996l168.003 -154.002l-15 -12c-10 -8 -21.833 -18.333 -35.5 -31s-26.834 -26.334 -39.501 -41.001
s-22.334 -29 -29.001 -43c58.667 -3.33301 108 -25.666 148 -66.999s60 -91 60 -149c0 -59.333 -23.167 -110.166 -69.5 -152.499s-99.166 -63.5 -158.499 -63.5c-40.667 0 -81.334 9.66699 -122.001 29s-74.334 51 -101.001 95s-40 102.667 -40 176
c0 67.333 19 138.333 57 213s97 141.334 177 200.001z" />
    <glyph glyph-name="uni06C1.medi" unicode="&#x6c1;" horiz-adv-x="1179" arabic-form="medial" 
d="M1204 395l0.000976562 -455h-116c-42.667 0 -79.667 -16 -111 -48s-47 -76 -47 -132c0 -46.667 14 -100 42 -160l-187 -288c-84 0 -166.167 10.833 -246.5 32.5s-152.833 57 -217.5 106s-116.167 113.667 -154.5 194s-57.5 178.833 -57.5 295.5h-134v455h321l205 -205
v-11c0 -46.667 1.16699 -95.334 3.5 -146.001s9 -100.334 20 -149.001s28.833 -93.667 53.5 -135c-8.66699 34.667 -13 71.334 -13 110.001c0 60.667 11 122.334 33 185.001s55.5 120.5 100.5 173.5s102.167 95.833 171.5 128.5s151.666 49 246.999 49h87z" />
    <glyph glyph-name="uni06BE.fina" unicode="&#x6be;" horiz-adv-x="1811" arabic-form="final" 
d="M1139 233c32.667 0 60.665 4.66992 83.998 14.0029s42 20.666 56 33.999s23.333 26.666 28 39.999c4.66699 11.333 7 23.666 7 36.999c0 26.667 -11.167 61.5 -33.5 104.5s-64.5 104.833 -126.5 185.5c2 -8.66699 3 -24.667 3 -48c0 -11.333 -0.666992 -32.333 -2 -63
s-10.5 -74.5 -27.5 -131.5s-46.5 -108.167 -88.5 -153.5c18.667 -5.33301 36.334 -9.83301 53.001 -13.5s32.334 -5.5 47.001 -5.5zM624.998 372.003c46 11.333 80.999 28.498 104.999 51.498s38 55.167 42 96.5v11c0 34.667 -12.167 64.334 -36.5 89.001
s-53.833 37 -88.5 37c-27.333 0 -50.666 -6.83301 -69.999 -20.5s-34.333 -30.167 -45 -49.5s-16 -37.666 -16 -54.999c0 -34 11.167 -65.833 33.5 -95.5s47.5 -51.167 75.5 -64.5zM1555 -14.999c-4.66699 -4.66699 -9.66699 -9.33398 -15 -14.001
c-40.667 -38.667 -92.167 -69.167 -154.5 -91.5s-136.5 -33.5 -222.5 -33.5c-78.667 0 -167 11.667 -265 35s-206.333 65 -325 125c-4 0 -16.333 -1.33301 -37 -4c-33.333 -2.66699 -79.333 -6.16699 -138 -10.5s-118.334 -6.5 -179.001 -6.5h-177v410h97
c-11.333 40 -17 82 -17 126c0 100.667 23.667 190.167 71 268.5s112.333 140 195 185s177.334 67.5 284.001 67.5c86 0 169 -23.667 249 -71l270 223c195.333 -199.333 334 -374.333 416 -525c54 -99.333 87 -190.666 99 -273.999h135v-410h-286z" />
    <glyph glyph-name="uni06BE.init" unicode="&#x6be;" horiz-adv-x="1811" arabic-form="initial" 
d="M1471 862c122.667 -123.333 201.667 -237.002 237 -341.002c20 -60 30 -115.667 30 -167c0 -37.333 -5.33301 -72.666 -16 -105.999c-15.333 -54 -45 -106.167 -89 -156.5s-106.667 -90.5 -188 -120.5c-68.667 -26 -153.667 -39 -255 -39c-18 0 -36.333 0.333008 -55 1
c-165.333 10 -293.333 21.667 -384 35l-136 19c-66.667 -18 -134 -30.833 -202 -38.5s-139.333 -11.5 -214 -11.5h-219l1 458h125c-10 42 -15.333 85.667 -16 131c0 148 49 276 147 384c100 108 226 162 378 162c114 0 214 -31.333 300 -94l213 214
c2 -1.33301 20.333 -18.666 55 -51.999l130 -125.5zM615 403.998c4 0.666992 13.001 3.5 27.001 8.5s29.333 12.667 46 23s31.167 23.833 43.5 40.5s18.5 37.334 18.5 62.001c0 8.66699 -1.66699 21 -5 37s-9.83301 32.333 -19.5 49s-23.334 31 -41.001 43
s-40.834 18 -69.501 18c-29.333 0 -52.833 -6 -70.5 -18s-31.167 -26.333 -40.5 -43s-15.666 -33 -18.999 -49s-5 -28.333 -5 -37c0 -25.333 6 -46.5 18 -63.5s26.333 -30.5 43 -40.5s32 -17.333 46 -22s23.333 -7.33398 28 -8.00098zM1315 416.998
c0.666992 2 1.00098 3.66602 1.00098 4.99902c0 12 -8.16699 28.333 -24.5 49s-37 42.334 -62 65.001s-47.5 42 -67.5 58l-30 24c4.66699 -30 7 -60.667 7 -92c0 -46 -5 -90 -15 -132l-4 -12c28 -9.33301 55 -14 81 -14c14 0 34.167 2.33301 60.5 7s44.166 18.667 53.499 42
z" />
    <glyph glyph-name="uni06BE.medi" unicode="&#x6be;" horiz-adv-x="1264" arabic-form="medial" 
d="M679 -197c-8.66699 18.667 -14.668 38.3311 -18.001 58.998s-5 40.667 -5 60c0 26.667 2 51 6 73s7.83301 39.833 11.5 53.5l5.5 20.5c-7.33301 -2 -21.666 -5.33301 -42.999 -10s-43 -9.16699 -65 -13.5s-37.333 -7.16602 -46 -8.49902
c7.33301 -48 27.5 -93.167 60.5 -135.5s64.167 -75.166 93.5 -98.499zM524.999 411.997c53.333 7.33301 100.168 22.668 140.501 46.001s61.833 46.666 64.5 69.999v5c0 29.333 -6.66699 50.166 -20 62.499s-28.333 18.5 -45 18.5h-3c-21.333 0 -40 -7.66699 -56 -23
s-29.333 -34 -40 -56s-19.334 -44.167 -26.001 -66.5s-11.667 -41.166 -15 -56.499zM665.001 996.999c88 0 160.499 -13.8301 217.499 -41.4971s102.167 -62.5 135.5 -104.5s58 -85.667 74 -131s26.167 -87 30.5 -125s6.5 -65.333 6.5 -82c0 -40.667 -5.33301 -80 -16 -118
h176v-457h-173c-26.667 0 -47.834 -10.333 -63.501 -31s-23.5 -45.334 -23.5 -74.001c0 -20.667 4.66699 -41.667 14 -63s24.333 -40.666 45 -57.999l-123 -317c-35.333 -4.66699 -70.666 -7 -105.999 -7c-74 0 -145.667 11 -215 33c-91.333 32.667 -176.333 81 -255 145
c-110 82.667 -197.333 207 -262 373c-24.667 -0.666992 -46.5 -1 -65.5 -1h-61.5h-25v457h133c0 11.333 3 33.833 9 67.5s16.333 73.167 31 118.5s35.334 92.166 62.001 140.499s60.5 93.166 101.5 134.499s90.667 75.166 149 101.499s126.5 39.5 204.5 39.5z" />
    <glyph glyph-name="uni06D2.fina" unicode="&#x6d2;" horiz-adv-x="1320" arabic-form="final" 
d="M1345 395v-457.001h-779c-25.333 0 -46 -4.5 -62 -13.5s-24 -23.833 -24 -44.5c0 -44.667 30.333 -67.667 91 -69h727v-447h-727c-138 0 -257 46.333 -357 139c-46.667 44.667 -82.334 98.834 -107.001 162.501s-37 141.167 -37 232.5c0 80 12.667 148.667 38 206
s62 108.333 110 153c100.667 92 218.334 138 353.001 138h774z" />
    <glyph glyph-name="uni06D3.fina" unicode="&#x6d3;" horiz-adv-x="1320" arabic-form="final" 
d="M1345 395v-457.001h-779c-25.333 0 -46 -4.5 -62 -13.5s-24 -23.833 -24 -44.5c0 -44.667 30.333 -67.667 91 -69h727v-447h-727c-138 0 -257 46.333 -357 139c-46.667 44.667 -82.334 98.834 -107.001 162.501s-37 141.167 -37 232.5c0 80 12.667 148.667 38 206
s62 108.333 110 153c100.667 92 218.334 138 353.001 138h774zM673 586.999l-499.003 -163.999v160l115 37c-20 20.667 -35.667 43.5 -47 68.5s-17 52.167 -17 81.5c0 45.333 15.5 88.5 46.5 129.5s68.5 68.5 112.5 82.5c22.667 6.66699 46 10 70 10
c25.333 0 48.833 -3.33301 70.5 -10s42.834 -14.334 63.501 -23.001l-32 -133c-40 11.333 -73.667 17 -101 17c-9.33301 0 -17.666 -1 -24.999 -3c-15.333 -4.66699 -29.166 -13.167 -41.499 -25.5s-18.5 -26.5 -18.5 -42.5c0 -6 1 -12.333 3 -19
c4.66699 -16.667 16.5 -30.5 35.5 -41.5s45.5 -16.5 79.5 -16.5c8.66699 0 18.5 0.833008 29.5 2.5s27.833 5.5 50.5 11.5s55 16 97 30z" />
    <glyph glyph-name="uni0649.init" unicode="&#x649;" horiz-adv-x="754" arabic-form="initial" 
d="M629 849l16.998 -91.4961l39 -212.5c10 -52 15 -100 15 -144c0 -22.667 -1.33301 -44.334 -4 -65.001c-5.33301 -40.667 -15.166 -82.834 -29.499 -126.501s-33.166 -79.834 -56.499 -108.501c-46.667 -60.667 -108.334 -105.667 -185.001 -135
c-56.667 -18 -123.667 -27 -201 -27h-249v456h249c24.667 0 41.334 3.16699 50.001 9.5s13 16.166 13 29.499c0 10 -1.33301 21.667 -4 35l-50 260z" />
    <glyph glyph-name="uni0649.medi" unicode="&#x649;" horiz-adv-x="770" arabic-form="medial" 
d="M681 713l0.000976562 -269.999c0 -16.667 3.66699 -28.834 11 -36.501s25.666 -11.5 54.999 -11.5h48v-456h-40c-102 0 -194.667 25.667 -278 77c-27.333 -16 -56 -29.667 -86 -41c-66.667 -24 -142.667 -36 -228 -36h-188v456h217c32.667 0 54 3.5 64 10.5
s15 19.5 15 37.5v270h410z" />
    <glyph glyph-name="uni06CC.fina" unicode="&#x6cc;" horiz-adv-x="1856" arabic-form="final" 
d="M226 700l366.998 -177.002c-73.333 -152 -110 -282 -110 -390c0 -86.667 23 -154.5 69 -203.5s114.667 -73.5 206 -73.5h266c50.667 0 93.334 1.66699 128.001 5s63.334 7.5 86.001 12.5s40.167 10 52.5 15s20.833 9.16699 25.5 12.5l7 5
c-39.333 18.667 -83.833 33 -133.5 43s-103.5 18.667 -161.5 26c-20 2.66699 -40.333 5.66699 -61 9v410h914v-456h-183c3.33301 -19.333 5 -38.666 5 -57.999c0 -88.667 -16.167 -162 -48.5 -220s-74.5 -104.333 -126.5 -139s-108.333 -60.5 -169 -77.5
s-120.5 -28 -179.5 -33s-110.833 -7.5 -155.5 -7.5h-266c-120 0 -223.333 21 -310 63s-158 97.833 -214 167.5s-97.333 147.834 -124 234.501s-40 175 -40 265c0 80.667 13.5 172 40.5 274s65.5 199.667 115.5 293z" />
    <glyph glyph-name="uni06CC.init" unicode="&#x6cc;" horiz-adv-x="923" arabic-form="initial" 
d="M794 849l16.998 -91.4961l39 -212.5c10 -52 15 -100 15 -144c0 -22.667 -1.33301 -44.334 -4 -65.001c-5.33301 -40.667 -15.166 -82.834 -29.499 -126.501s-33.166 -79.834 -56.499 -108.501c-46.667 -60.667 -108.334 -105.667 -185.001 -135
c-56.667 -18 -123.667 -27 -201 -27h-444v456h444c24.667 0 41.334 3.16699 50.001 9.5s13 16.166 13 29.499c0 10 -1.33301 21.667 -4 35l-50 260zM245.998 -171.996l220 -219l-220 -220l-219 220zM714.998 -171.996l220 -219l-220 -220l-219 220z" />
    <glyph glyph-name="uni06CC.medi" unicode="&#x6cc;" horiz-adv-x="1024" arabic-form="medial" 
d="M828 713l0.00195312 -269.999c0 -16.667 3.66699 -28.834 11 -36.501s25.666 -11.5 54.999 -11.5h155v-456h-147c-50.667 0 -99.667 7.33301 -147 22s-91 34.667 -131 60c-38.667 -30.667 -81.834 -52 -129.501 -64s-109.167 -18 -184.5 -18h-335v456h364
c32.667 0 54 3.5 64 10.5s15 19.5 15 37.5v270h410zM253.002 -177.999l220 -219l-220 -220l-219 220zM722.002 -177.999l220 -219l-220 -220l-219 220z" />
    <glyph glyph-name="uni0651064C" unicode="&#xfc5e;" arabic-form="isolated" 
d="M-130 1604c-62.667 0 -111.998 17.668 -147.998 53.001s-54 84 -54 146v109h125v-109c0 -52.667 25.667 -77.667 77 -75c5.33301 0 13 1.5 23 4.5s19.167 9.83301 27.5 20.5s12.5 27.334 12.5 50.001v109h126v-109c0 -52.667 26 -78 78 -76
c5.33301 0 12.666 1.83301 21.999 5.5s18 11 26 22s12 27.167 12 48.5c0 26.667 -7 63.334 -21 110.001c-2.66699 10 -5.33398 20.667 -8.00098 32l118 40l8 -31c0.666992 -1.33301 1 -3 1 -5c6 -19.333 12 -42 18 -68s9 -52 9 -78c0 -44.667 -9.5 -81.834 -28.5 -111.501
s-42.833 -51.834 -71.5 -66.501s-57.667 -22 -87 -22c-56 0 -102.667 15.333 -140 46c-18 -14.667 -38 -25.834 -60 -33.501s-43.667 -11.5 -65 -11.5zM-212.998 2043l-62.0029 84.999l8 16c8 16 15 31.5 21 46.5s9 29.167 9 42.5c0 10 -2.33301 19.333 -7 28
c-12.667 11.333 -26.334 17 -41.001 17c-12 0 -24.167 -2.66699 -36.5 -8s-23.5 -11.666 -33.5 -19l-79 77c3.33301 4.66699 11.333 12.834 24 24.5c12.667 11.667 29.667 22.667 51 33s46.333 15.5 75 15.5h6c52.667 -5.33301 92.667 -30.666 120 -76
c15.333 -33.333 23 -65.666 23 -96.999c0 -7.33301 -0.333008 -15.5 -1 -24.5s-1.66699 -16.833 -3 -23.5c28.667 6 57.5 15.5 86.5 28.5s52.167 27.5 69.5 43.5c-42.667 20.667 -77.667 48.5 -105 83.5s-41 71.5 -41 109.5c0 20 4.66699 40 14 60
c18 36 44.333 65.833 79 89.5s70.334 35.5 107.001 35.5c24 0 45.667 -4.66699 65 -14c37.333 -18.667 64 -44.667 80 -78s24 -69.333 24 -108c0 -64.667 -21 -127 -63 -187c-41.333 -51.333 -90.166 -91.333 -146.499 -120s-107.666 -49 -153.999 -61
s-76.166 -18.333 -89.499 -19zM70.999 2504c-12.667 0 -27.835 -4 -45.502 -12s-31.5 -18.667 -41.5 -32c6.66699 -25.333 22.334 -46.666 47.001 -64c24.667 -17.333 49.334 -31 74.001 -41c6.66699 10.667 11.5 21.334 14.5 32c3 10.667 4.5 24.667 4.5 42
c0 20.667 -4.83301 38.334 -14.5 53c-9.66699 14.667 -22.5 22 -38.5 22z" />
    <glyph glyph-name="uni0651064D" unicode="&#xfc5f;" arabic-form="isolated" 
d="M-139 2186c-62.667 0 -111.998 17.667 -147.998 53s-54 84 -54 146v109h125v-109c0 -52.667 25.667 -77.667 77 -75c5.33301 0 13 1.5 23 4.5s19.167 9.83301 27.5 20.5s12.5 27.334 12.5 50v109h126v-109c0 -52.667 26 -78 78 -76c5.33301 0 12.666 1.83301 21.999 5.5
s18 11 26 22s12 27.167 12 48.5c0 26.667 -7 63.334 -21 110c-2.66699 10 -5.33398 20.667 -8.00098 32l118 40l8 -31c0.666992 -1.33301 1 -3 1 -5c6 -19.333 12 -42 18 -68s9 -52 9 -78c0 -44.667 -9.5 -81.834 -28.5 -111.5c-19 -29.667 -42.833 -51.834 -71.5 -66.5
c-28.667 -14.667 -57.667 -22 -87 -22c-56 0 -102.667 15.333 -140 46c-18 -14.667 -38 -25.834 -60 -33.5c-22 -7.66699 -43.667 -11.5 -65 -11.5zM-268.998 1600v150l504 187v-147zM-268.998 1842v149l504 188v-148z" />
    <glyph glyph-name="uni0651064E" unicode="&#xfc60;" arabic-form="isolated" 
d="M-130 1604c-62.667 0 -111.998 17.668 -147.998 53.001s-54 84 -54 146v109h125v-109c0 -52.667 25.667 -77.667 77 -75c5.33301 0 13 1.5 23 4.5s19.167 9.83301 27.5 20.5s12.5 27.334 12.5 50.001v109h126v-109c0 -52.667 26 -78 78 -76
c5.33301 0 12.666 1.83301 21.999 5.5s18 11 26 22s12 27.167 12 48.5c0 26.667 -7 63.334 -21 110.001c-2.66699 10 -5.33398 20.667 -8.00098 32l118 40l8 -31c0.666992 -1.33301 1 -3 1 -5c6 -19.333 12 -42 18 -68s9 -52 9 -78c0 -44.667 -9.5 -81.834 -28.5 -111.501
s-42.833 -51.834 -71.5 -66.501s-57.667 -22 -87 -22c-56 0 -102.667 15.333 -140 46c-18 -14.667 -38 -25.834 -60 -33.501s-43.667 -11.5 -65 -11.5zM-292.998 2008v150l504 187v-148z" />
    <glyph glyph-name="uni0651064F" unicode="&#xfc61;" arabic-form="isolated" 
d="M-130 1594c-62.667 0 -111.998 17.668 -147.998 53.001s-54 84 -54 146v109h125v-109c0 -52.667 25.667 -77.667 77 -75c5.33301 0 13 1.5 23 4.5s19.167 9.83301 27.5 20.5s12.5 27.334 12.5 50.001v109h126v-109c0 -52.667 26 -78 78 -76
c5.33301 0 12.666 1.83301 21.999 5.5s18 11 26 22s12 27.167 12 48.5c0 26.667 -7 63.334 -21 110.001c-2.66699 10 -5.33398 20.667 -8.00098 32l118 40l8 -31c0.666992 -1.33301 1 -3 1 -5c6 -19.333 12 -42 18 -68s9 -52 9 -78c0 -44.667 -9.5 -81.834 -28.5 -111.501
s-42.833 -51.834 -71.5 -66.501s-57.667 -22 -87 -22c-56 0 -102.667 15.333 -140 46c-18 -14.667 -38 -25.834 -60 -33.501s-43.667 -11.5 -65 -11.5zM-227.998 1969l-35.998 126.001c44.667 13.333 92.167 29.5 142.5 48.5s94.833 41.5 133.5 67.5
c-46.667 17.333 -85.5 43.833 -116.5 79.5s-46.5 74.5 -46.5 116.5c0 21.333 5 43 15 65c17.333 36 43.833 65.833 79.5 89.5s73.167 35.5 112.5 35.5c22.667 0 45 -5 67 -15c39.333 -20 67.5 -46 84.5 -78s25.5 -66.667 25.5 -104c0 -38.667 -7 -77.334 -21 -116.001
s-32.333 -73.667 -55 -105c-30.667 -40.667 -70.334 -75 -119.001 -103s-96.834 -50.5 -144.501 -67.5s-85.5 -29.5 -113.5 -37.5zM55.0039 2475c-14.667 0 -30.832 -4.16699 -48.499 -12.5s-30.834 -20.166 -39.501 -35.5c-1.33301 -2.66699 -2 -5.33398 -2 -8
c0 -15.333 12.833 -35 38.5 -59s56.167 -39.667 91.5 -47c10.667 22 16 48 16 78c0 19.333 -4.33301 37.5 -13 54.5s-23 26.833 -43 29.5z" />
    <glyph glyph-name="uni06510650" unicode="&#xfc62;" arabic-form="isolated" 
d="M-126 1947c-62.667 0 -111.998 17.6689 -147.998 53.002s-54 84 -54 146v109h125v-109c0 -52.667 25.667 -77.667 77 -75c5.33301 0 13 1.5 23 4.5s19.167 9.83301 27.5 20.5s12.5 27.334 12.5 50v109h126v-109c0 -52.667 26 -78 78 -76
c5.33301 0 12.666 1.83301 21.999 5.5s18 11 26 22s12 27.167 12 48.5c0 26.667 -7 63.334 -21 110c-2.66699 10 -5.33398 20.667 -8.00098 32l118 40l8 -31c0.666992 -1.33301 1 -3 1 -5c6 -19.333 12 -42 18 -68s9 -52 9 -78c0 -44.667 -9.5 -81.834 -28.5 -111.5
c-19 -29.667 -42.833 -51.834 -71.5 -66.501s-57.667 -22 -87 -22c-56 0 -102.667 15.333 -140 46c-18 -14.667 -38 -25.834 -60 -33.501s-43.667 -11.5 -65 -11.5zM-248.998 1599v149l504 188v-148z" />
    <glyph glyph-name="uniFC63" unicode="&#xfc63;" arabic-form="isolated" 
d="M-130 1614c-62.667 0 -111.998 17.668 -147.998 53.001s-54 84 -54 146v109h125v-109c0 -52.667 25.667 -77.667 77 -75c5.33301 0 13 1.5 23 4.5s19.167 9.83301 27.5 20.5s12.5 27.334 12.5 50.001v109h126v-109c0 -52.667 26 -78 78 -76
c5.33301 0 12.666 1.83301 21.999 5.5s18 11 26 22s12 27.167 12 48.5c0 26.667 -7 63.334 -21 110.001c-2.66699 10 -5.33398 20.667 -8.00098 32l118 40l8 -31c0.666992 -1.33301 1 -3 1 -5c6 -19.333 12 -42 18 -68s9 -52 9 -78c0 -44.667 -9.5 -81.834 -28.5 -111.501
s-42.833 -51.834 -71.5 -66.501s-57.667 -22 -87 -22c-56 0 -102.667 15.333 -140 46c-18 -14.667 -38 -25.834 -60 -33.501s-43.667 -11.5 -65 -11.5zM-75.998 2054v408h150v-408h-150z" />
    <glyph glyph-name="fathatan_01" unicode="&#xfe70;" arabic-form="isolated" 
d="M-262 1596v150l504 187v-148zM-262 1838v149l504 187v-147z" />
    <glyph glyph-name="dammatan_01" unicode="&#xfe72;" arabic-form="isolated" 
d="M-213 1594l-62.0029 84.9961l8 16c8 16 15 31.5 21 46.5s9 29.167 9 42.5c0 10 -2.33301 19.333 -7 28c-12.667 11.333 -26.334 17 -41.001 17c-12 0 -24.167 -2.66699 -36.5 -8s-23.5 -11.666 -33.5 -18.999l-79 77c3.33301 4.66699 11.333 12.834 24 24.501
s29.667 22.667 51 33s46.333 15.5 75 15.5h6c52.667 -5.33301 92.667 -30.666 120 -75.999c15.333 -33.333 23 -65.666 23 -96.999c0 -7.33301 -0.333008 -15.5 -1 -24.5s-1.66699 -16.833 -3 -23.5c28.667 6 57.5 15.5 86.5 28.5s52.167 27.5 69.5 43.5
c-42.667 20.667 -77.667 48.5 -105 83.5s-41 71.5 -41 109.5c0 20 4.66699 40 14 60c18 36 44.333 65.833 79 89.5s70.334 35.5 107.001 35.5c24 0 45.667 -4.66699 65 -14c37.333 -18.667 64 -44.667 80 -78s24 -69.333 24 -108c0 -64.667 -21 -127 -63 -187
c-41.333 -51.333 -90.166 -91.333 -146.499 -120s-107.666 -49 -153.999 -61s-76.166 -18.333 -89.499 -19zM70.9971 2055c-12.667 0 -27.835 -4.00293 -45.502 -12.0029s-31.5 -18.667 -41.5 -32c6.66699 -25.333 22.334 -46.666 47.001 -63.999s49.334 -31 74.001 -41
c6.66699 10.667 11.5 21.334 14.5 32.001s4.5 24.667 4.5 42c0 20.667 -4.83301 38.334 -14.5 53.001s-22.5 22 -38.5 22z" />
    <glyph glyph-name="kasratan_01" unicode="&#xfe74;" arabic-form="isolated" 
d="M-252 -826v150l504 187v-147zM-252 -584v149l504 188v-148z" />
    <glyph glyph-name="fatha_01" unicode="&#xfe76;" arabic-form="isolated" 
d="M-251 1596v150l504 187v-148z" />
    <glyph glyph-name="damma_01" unicode="&#xfe78;" arabic-form="isolated" 
d="M-268 1592l-35.998 126.001c44.667 13.333 92.167 29.5 142.5 48.5s94.833 41.5 133.5 67.5c-46.667 17.333 -85.5 43.833 -116.5 79.5s-46.5 74.5 -46.5 116.5c0 21.333 5 43 15 65c17.333 36 43.833 65.833 79.5 89.5s73.167 35.5 112.5 35.5c22.667 0 45 -5 67 -15
c39.333 -20 67.5 -46 84.5 -78s25.5 -66.667 25.5 -104c0 -38.667 -7 -77.334 -21 -116.001s-32.333 -73.667 -55 -105c-30.667 -40.667 -70.334 -75 -119.001 -103s-96.834 -50.5 -144.501 -67.5s-85.5 -29.5 -113.5 -37.5zM15.002 2098
c-14.667 0 -30.832 -4.16602 -48.499 -12.499s-30.834 -20.166 -39.501 -35.5c-1.33301 -2.66699 -2 -5.33398 -2 -8.00098c0 -15.333 12.833 -35 38.5 -59s56.167 -39.667 91.5 -47c10.667 22 16 48 16 78c0 19.333 -4.33301 37.5 -13 54.5s-23 26.833 -43 29.5z" />
    <glyph glyph-name="kasra_01" unicode="&#xfe7a;" arabic-form="isolated" 
d="M-252 -584v149l504 188v-148z" />
    <glyph glyph-name="shadda_01" unicode="&#xfe7c;" arabic-form="isolated" 
d="M-130 1594c-62.667 0 -111.998 17.668 -147.998 53.001s-54 84 -54 146v109h125v-109c0 -52.667 25.667 -77.667 77 -75c5.33301 0 13 1.5 23 4.5s19.167 9.83301 27.5 20.5s12.5 27.334 12.5 50.001v109h126v-109c0 -52.667 26 -78 78 -76
c5.33301 0 12.666 1.83301 21.999 5.5s18 11 26 22s12 27.167 12 48.5c0 26.667 -7 63.334 -21 110.001c-2.66699 10 -5.33398 20.667 -8.00098 32l118 40l8 -31c0.666992 -1.33301 1 -3 1 -5c6 -19.333 12 -42 18 -68s9 -52 9 -78c0 -44.667 -9.5 -81.834 -28.5 -111.501
s-42.833 -51.834 -71.5 -66.501s-57.667 -22 -87 -22c-56 0 -102.667 15.333 -140 46c-18 -14.667 -38 -25.834 -60 -33.501s-43.667 -11.5 -65 -11.5z" />
    <glyph glyph-name="sukun_01" unicode="&#xfe7e;" arabic-form="isolated" 
d="M-2 1594c-72.667 0 -130.834 20.833 -174.501 62.5s-65.5 98.167 -65.5 169.5c0 72.667 21.833 130.167 65.5 172.5s101.834 63.5 174.501 63.5c70 0 128.5 -21.167 175.5 -63.5s70.5 -99.166 70.5 -170.499c0 -70.667 -22.5 -127.334 -67.5 -170.001
s-102.167 -64 -171.5 -64h-7zM-2 1731c28 0 52.167 8.16699 72.5 24.5s30.5 39.833 30.5 70.5s-10.167 55 -30.5 73s-44.5 27 -72.5 27c-28.667 0 -53.334 -8.83301 -74.001 -26.5s-31 -42.167 -31 -73.5c0 -32.667 9.33301 -56.667 28 -72s44.334 -23 77.001 -23z" />
    <glyph glyph-name="uni0622.fina" unicode="&#x622;" horiz-adv-x="747" arabic-form="final" 
d="M759 395l0.000976562 -455.998h-89c-58.667 0 -110.167 6.66699 -154.5 20s-82.166 30 -113.499 50s-57 40 -77 60c-20.667 20 -40.834 45.667 -60.501 77s-36.334 69.166 -50.001 113.499s-20.5 95.833 -20.5 154.5c0 80.667 0.166992 212.167 0.5 394.5
s0.5 321.166 0.5 416.499v55h409v-821c0 -23.333 7.66699 -39.833 23 -49.5s29 -14.5 41 -14.5h91zM847.001 1710v-287.001h-517c-40 0 -70.167 -5.5 -90.5 -16.5s-35 -24.5 -44 -40.5s-15.5 -32.667 -19.5 -50l-276 78c11.333 42.667 27 84.334 47 125.001s49 77 87 109
c63.333 54.667 162 82 296 82h517z" />
    <glyph glyph-name="uni0623.fina" unicode="&#x623;" horiz-adv-x="641" arabic-form="final" 
d="M665 395l0.000976562 -455.998h-89c-58.667 0 -110.167 6.66699 -154.5 20s-82.166 30 -113.499 50s-57 40 -77 60c-20.667 20 -40.834 45.667 -60.501 77s-36.334 69.166 -50.001 113.499s-20.5 95.833 -20.5 154.5c0 80.667 0.166992 212.167 0.5 394.5
s0.5 321.166 0.5 416.499v55h409v-821c0 -23.333 7.66699 -39.833 23 -49.5s29 -14.5 41 -14.5h91zM516.001 1514l-499.003 -163.999v160l115 37c-20 20.667 -35.667 43.5 -47 68.5s-17 52.167 -17 81.5c0 45.333 15.5 88.5 46.5 129.5s68.5 68.5 112.5 82.5
c22.667 6.66699 46 10 70 10c25.333 0 48.833 -3.33301 70.5 -10s42.834 -14.334 63.501 -23.001l-32 -133c-40 11.333 -73.667 17 -101 17c-9.33301 0 -17.666 -1 -24.999 -3c-15.333 -4.66699 -29.166 -13.167 -41.499 -25.5s-18.5 -26.5 -18.5 -42.5
c0 -6 1 -12.333 3 -19c4.66699 -16.667 16.5 -30.5 35.5 -41.5s45.5 -16.5 79.5 -16.5c8.66699 0 18.5 0.833008 29.5 2.5s27.833 5.5 50.5 11.5s55 16 97 30z" />
    <glyph glyph-name="uni0624.fina" unicode="&#x624;" horiz-adv-x="1102" arabic-form="final" 
d="M526 394l155 0.000976562v96c0 31.333 -11.333 57.5 -34 78.5s-50.667 31.5 -84 31.5c-32.667 0 -60 -10.667 -82 -32s-33 -47.333 -33 -78c0 -16.667 1.83301 -32.334 5.5 -47.001s11 -26.5 22 -35.5s27.833 -13.5 50.5 -13.5zM1074 395.001l53.002 -0.00292969v-457
h-60c-6 -50 -17 -95.333 -33 -136c-26.667 -67.333 -59.834 -124 -99.501 -170s-79.834 -84.667 -120.501 -116c-24 -16.667 -56.833 -34.167 -98.5 -52.5s-101.167 -33.5 -178.5 -45.5c-67.333 -10.667 -154.666 -16 -261.999 -16h-109v454h121c82 0 150 2.33301 204 7
s92.667 13.334 116 26.001s36.333 28.667 39 48h-86c-88.667 2.66699 -169.167 22.834 -241.5 60.501s-130.166 91.667 -173.499 162s-65 155.5 -65 255.5c0 111.333 15.833 203.5 47.5 276.5s72.167 131 121.5 174s101.666 73.333 156.999 91s106.666 26.5 153.999 26.5
c143.333 0 266.333 -54 369 -162c96.667 -109.333 145 -244.666 145 -405.999v-20zM755.002 1211l-499.003 -163.999v160l115 37c-20 20.667 -35.667 43.5 -47 68.5s-17 52.167 -17 81.5c0 45.333 15.5 88.5 46.5 129.5s68.5 68.5 112.5 82.5c22.667 6.66699 46 10 70 10
c25.333 0 48.833 -3.33301 70.5 -10s42.834 -14.334 63.501 -23.001l-32 -133c-40 11.333 -73.667 17 -101 17c-9.33301 0 -17.666 -1 -24.999 -3c-15.333 -4.66699 -29.166 -13.167 -41.499 -25.5s-18.5 -26.5 -18.5 -42.5c0 -6 1 -12.333 3 -19
c4.66699 -16.667 16.5 -30.5 35.5 -41.5s45.5 -16.5 79.5 -16.5c8.66699 0 18.5 0.833008 29.5 2.5s27.833 5.5 50.5 11.5s55 16 97 30z" />
    <glyph glyph-name="uni0625.fina" unicode="&#x625;" horiz-adv-x="638" arabic-form="final" 
d="M665 395l0.000976562 -457.999h-89c-58.667 0 -110.167 6.66699 -154.5 20s-82.166 30 -113.499 50s-57 40 -77 60c-20.667 20 -40.834 45.667 -60.501 77s-36.334 69.166 -50.001 113.499s-20.5 95.833 -20.5 154.5v271c0 126 0.166992 252.833 0.5 380.5
s0.5 227.167 0.5 298.5v65h409v-968c0 -23.333 7.66699 -39.833 23 -49.5s29 -14.5 41 -14.5h91zM570.001 -532.999l-499.003 -163.999v160l115 37c-20 20.667 -35.667 43.5 -47 68.5s-17 52.167 -17 81.5c0 45.333 15.5 88.5 46.5 129.5s68.5 68.5 112.5 82.5
c22.667 6.66699 46 10 70 10c25.333 0 48.833 -3.33301 70.5 -10s42.834 -14.334 63.501 -23.001l-32 -133c-40 11.333 -73.667 17 -101 17c-9.33301 0 -17.666 -1 -24.999 -3c-15.333 -4.66699 -29.166 -13.167 -41.499 -25.5s-18.5 -26.5 -18.5 -42.5
c0 -6 1 -12.333 3 -19c4.66699 -16.667 16.5 -30.5 35.5 -41.5s45.5 -16.5 79.5 -16.5c8.66699 0 18.5 0.833008 29.5 2.5s27.833 5.5 50.5 11.5s55 16 97 30z" />
    <glyph glyph-name="uni0626.fina" unicode="&#x626;" horiz-adv-x="1856" arabic-form="final" 
d="M226 700l366.998 -177.002c-73.333 -152 -110 -282 -110 -390c0 -86.667 23 -154.5 69 -203.5s114.667 -73.5 206 -73.5h266c50.667 0 93.334 1.66699 128.001 5s63.334 7.5 86.001 12.5s40.167 10 52.5 15s20.833 9.16699 25.5 12.5l7 5
c-39.333 18.667 -83.833 33 -133.5 43s-103.5 18.667 -161.5 26c-20 2.66699 -40.333 5.66699 -61 9v410h914v-456h-183c3.33301 -19.333 5 -38.666 5 -57.999c0 -88.667 -16.167 -162 -48.5 -220s-74.5 -104.333 -126.5 -139s-108.333 -60.5 -169 -77.5
s-120.5 -28 -179.5 -33s-110.833 -7.5 -155.5 -7.5h-266c-120 0 -223.333 21 -310 63s-158 97.833 -214 167.5s-97.333 147.834 -124 234.501s-40 175 -40 265c0 80.667 13.5 172 40.5 274s65.5 199.667 115.5 293zM756.998 927.998l-499.003 -163.999v160l115 37
c-20 20.667 -35.667 43.5 -47 68.5s-17 52.167 -17 81.5c0 45.333 15.5 88.5 46.5 129.5s68.5 68.5 112.5 82.5c22.667 6.66699 46 10 70 10c25.333 0 48.833 -3.33301 70.5 -10s42.834 -14.334 63.501 -23.001l-32 -133c-40 11.333 -73.667 17 -101 17
c-9.33301 0 -17.666 -1 -24.999 -3c-15.333 -4.66699 -29.166 -13.167 -41.499 -25.5s-18.5 -26.5 -18.5 -42.5c0 -6 1 -12.333 3 -19c4.66699 -16.667 16.5 -30.5 35.5 -41.5s45.5 -16.5 79.5 -16.5c8.66699 0 18.5 0.833008 29.5 2.5s27.833 5.5 50.5 11.5s55 16 97 30z
" />
    <glyph glyph-name="uni0626.init" unicode="&#x626;" horiz-adv-x="923" arabic-form="initial" 
d="M794 849l16.998 -91.4961l39 -212.5c10 -52 15 -100 15 -144c0 -22.667 -1.33301 -44.334 -4 -65.001c-5.33301 -40.667 -15.166 -82.834 -29.499 -126.501s-33.166 -79.834 -56.499 -108.501c-46.667 -60.667 -108.334 -105.667 -185.001 -135
c-56.667 -18 -123.667 -27 -201 -27h-444v456h444c24.667 0 41.334 3.16699 50.001 9.5s13 16.166 13 29.499c0 10 -1.33301 21.667 -4 35l-50 260zM609.998 1000l-499.003 -163.999v160l115 37c-20 20.667 -35.667 43.5 -47 68.5s-17 52.167 -17 81.5
c0 45.333 15.5 88.5 46.5 129.5s68.5 68.5 112.5 82.5c22.667 6.66699 46 10 70 10c25.333 0 48.833 -3.33301 70.5 -10s42.834 -14.334 63.501 -23.001l-32 -133c-40 11.333 -73.667 17 -101 17c-9.33301 0 -17.666 -1 -24.999 -3
c-15.333 -4.66699 -29.166 -13.167 -41.499 -25.5s-18.5 -26.5 -18.5 -42.5c0 -6 1 -12.333 3 -19c4.66699 -16.667 16.5 -30.5 35.5 -41.5s45.5 -16.5 79.5 -16.5c8.66699 0 18.5 0.833008 29.5 2.5s27.833 5.5 50.5 11.5s55 16 97 30z" />
    <glyph glyph-name="uni0626.medi" unicode="&#x626;" horiz-adv-x="1024" arabic-form="medial" 
d="M828 713l0.00195312 -269.999c0 -16.667 3.66699 -28.834 11 -36.501s25.666 -11.5 54.999 -11.5h155v-456h-147c-50.667 0 -99.667 7.33301 -147 22s-91 34.667 -131 60c-38.667 -30.667 -81.834 -52 -129.501 -64s-109.167 -18 -184.5 -18h-335v456h364
c32.667 0 54 3.5 64 10.5s15 19.5 15 37.5v270h410zM799.002 961.001l-499.003 -163.999v160l115 37c-20 20.667 -35.667 43.5 -47 68.5s-17 52.167 -17 81.5c0 45.333 15.5 88.5 46.5 129.5s68.5 68.5 112.5 82.5c22.667 6.66699 46 10 70 10
c25.333 0 48.833 -3.33301 70.5 -10s42.834 -14.334 63.501 -23.001l-32 -133c-40 11.333 -73.667 17 -101 17c-9.33301 0 -17.666 -1 -24.999 -3c-15.333 -4.66699 -29.166 -13.167 -41.499 -25.5s-18.5 -26.5 -18.5 -42.5c0 -6 1 -12.333 3 -19
c4.66699 -16.667 16.5 -30.5 35.5 -41.5s45.5 -16.5 79.5 -16.5c8.66699 0 18.5 0.833008 29.5 2.5s27.833 5.5 50.5 11.5s55 16 97 30z" />
    <glyph glyph-name="uni0627.fina" unicode="&#x627;" horiz-adv-x="638" arabic-form="final" 
d="M665 395l0.000976562 -457.999h-89c-58.667 0 -110.167 6.66699 -154.5 20s-82.166 30 -113.499 50s-57 40 -77 60c-20.667 20 -40.834 45.667 -60.501 77s-36.334 69.166 -50.001 113.499s-20.5 95.833 -20.5 154.5v271c0 126 0.166992 252.833 0.5 380.5
s0.5 227.167 0.5 298.5v65h409v-968c0 -23.333 7.66699 -39.833 23 -49.5s29 -14.5 41 -14.5h91z" />
    <glyph glyph-name="uni0628.fina" unicode="&#x628;" horiz-adv-x="2204" arabic-form="final" 
d="M147 794l393 -115.997l-14.5 -60l-32.5 -139c-4.66699 -17.333 -7 -32.666 -7 -45.999s3.83301 -24 11.5 -32s22.167 -12 43.5 -12h959c46 0 77 9.33301 93 28s24 47 24 85v211h409v-245c1.33301 -24.667 11 -43 29 -55s47.333 -18 88 -18h86v-458
c-91.333 0 -160.333 1.16699 -207 3.5s-82.167 8.16602 -106.5 17.499s-46.5 23.666 -66.5 42.999c-35.333 -22.667 -72.5 -38.834 -111.5 -48.501s-79.333 -15.5 -121 -17.5s-84.167 -3 -127.5 -3h-703c-91.333 0 -165.333 0.666992 -222 2s-105 5.33301 -145 12
c-114.667 18 -202 73.333 -262 166c-26 40 -45.167 87.833 -57.5 143.5s-18.5 113.167 -18.5 172.5c0 34 2 67.333 6 100c16 104 35.667 190.667 59 260c0 1.33301 0.333008 2.66602 1 3.99902v2zM1312 -368.997l-234 -233l-233 233l233 234z" />
    <glyph glyph-name="uni0628.init" unicode="&#x628;" horiz-adv-x="754" arabic-form="initial" 
d="M629 849l16.998 -91.4961l39 -212.5c10 -52 15 -100 15 -144c0 -22.667 -1.33301 -44.334 -4 -65.001c-5.33301 -40.667 -15.166 -82.834 -29.499 -126.501s-33.166 -79.834 -56.499 -108.501c-46.667 -60.667 -108.334 -105.667 -185.001 -135
c-56.667 -18 -123.667 -27 -201 -27h-249v456h249c24.667 0 41.334 3.16699 50.001 9.5s13 16.166 13 29.499c0 10 -1.33301 21.667 -4 35l-50 260zM534.998 -369.996l-234 -233l-233 233l233 234z" />
    <glyph glyph-name="uni0628.medi" unicode="&#x628;" horiz-adv-x="770" arabic-form="medial" 
d="M681 713l0.000976562 -269.999c0 -16.667 3.66699 -28.834 11 -36.501s25.666 -11.5 54.999 -11.5h48v-456h-40c-102 0 -194.667 25.667 -278 77c-27.333 -16 -56 -29.667 -86 -41c-66.667 -24 -142.667 -36 -228 -36h-188v456h217c32.667 0 54 3.5 64 10.5
s15 19.5 15 37.5v270h410zM608.001 -380.999l-234 -233l-233 233l233 234z" />
    <glyph glyph-name="uni0629.fina" unicode="&#x629;" horiz-adv-x="1389" arabic-form="final" 
d="M571 435c14 0 26.999 1.83105 38.999 5.49805s21.667 7.5 29 11.5c22.667 12.667 38.5 28.334 47.5 47.001s13.5 39 13.5 61c0 18.667 -2.16699 38.334 -6.5 59.001s-9.16602 41 -14.499 61c-3.33301 12 -6.33301 23.667 -9 35c-54 -22.667 -93.167 -40 -117.5 -52
s-41.5 -23.333 -51.5 -34c-26.667 -28 -40 -56.667 -40 -86c0 -26.667 9.66699 -51 29 -73c12 -12.667 25 -21.667 39 -27s28 -8 42 -8zM960.999 1233l80.9971 -351l13 -60c12.667 -59.333 24.667 -112.833 36 -160.5l41 -166.5c4.66699 -22 12.667 -40.333 24 -55
s31.833 -25.834 61.5 -33.501s75.5 -11.5 137.5 -11.5h59v-457h-59c-74.667 0 -139.167 6.5 -193.5 19.5s-100.166 29 -137.499 48s-67.5 38.167 -90.5 57.5s-40.167 36 -51.5 50c-52.667 -29.333 -104.667 -48.833 -156 -58.5s-105.666 -14.5 -162.999 -14.5
c-64.667 0 -128.5 12.5 -191.5 37.5s-118.333 66.5 -166 124.5s-82.167 136.333 -103.5 235c-8 38.667 -12 78.334 -12 119.001c0 50 7.66699 100.667 23 152s41.333 100.833 78 148.5s86.334 91 149.001 130s140.667 71.833 234 98.5l-13 57zM646.996 1507l-220 -219
l-219 219l219 220zM1116 1507l-220 -219l-219 219l219 220z" />
    <glyph glyph-name="uni062A.fina" unicode="&#x62a;" horiz-adv-x="2204" arabic-form="final" 
d="M147 794l393 -115.997l-14.5 -60l-32.5 -139c-4.66699 -17.333 -7 -32.666 -7 -45.999s3.83301 -24 11.5 -32s22.167 -12 43.5 -12h959c46 0 77 9.33301 93 28s24 47 24 85v211h409v-245c1.33301 -24.667 11 -43 29 -55s47.333 -18 88 -18h86v-458
c-91.333 0 -160.333 1.16699 -207 3.5s-82.167 8.16602 -106.5 17.499s-46.5 23.666 -66.5 42.999c-35.333 -22.667 -72.5 -38.834 -111.5 -48.501s-79.333 -15.5 -121 -17.5s-84.167 -3 -127.5 -3h-703c-91.333 0 -165.333 0.666992 -222 2s-105 5.33301 -145 12
c-114.667 18 -202 73.333 -262 166c-26 40 -45.167 87.833 -57.5 143.5s-18.5 113.167 -18.5 172.5c0 34 2 67.333 6 100c16 104 35.667 190.667 59 260c0 1.33301 0.333008 2.66602 1 3.99902v2zM1054 929.003l-220 -219l-219 219l219 220zM1523 929.003l-220 -219
l-219 219l219 220z" />
    <glyph glyph-name="uni062A.init" unicode="&#x62a;" horiz-adv-x="923" arabic-form="initial" 
d="M794 849l16.998 -91.4961l39 -212.5c10 -52 15 -100 15 -144c0 -22.667 -1.33301 -44.334 -4 -65.001c-5.33301 -40.667 -15.166 -82.834 -29.499 -126.501s-33.166 -79.834 -56.499 -108.501c-46.667 -60.667 -108.334 -105.667 -185.001 -135
c-56.667 -18 -123.667 -27 -201 -27h-444v456h444c24.667 0 41.334 3.16699 50.001 9.5s13 16.166 13 29.499c0 10 -1.33301 21.667 -4 35l-50 260zM449.998 1189l-220 -219l-219 219l219 220zM918.998 1189l-220 -219l-219 219l219 220z" />
    <glyph glyph-name="uni062A.medi" unicode="&#x62a;" horiz-adv-x="1024" arabic-form="medial" 
d="M503 1112l-220 -219l-219 219l219 220zM972 1112l-220 -219l-219 219l219 220zM828 713l0.00195312 -269.999c0 -16.667 3.66699 -28.834 11 -36.501s25.666 -11.5 54.999 -11.5h155v-456h-147c-50.667 0 -99.667 7.33301 -147 22s-91 34.667 -131 60
c-38.667 -30.667 -81.834 -52 -129.501 -64s-109.167 -18 -184.5 -18h-335v456h364c32.667 0 54 3.5 64 10.5s15 19.5 15 37.5v270h410z" />
    <glyph glyph-name="uni062B.fina" unicode="&#x62b;" horiz-adv-x="2204" arabic-form="final" 
d="M147 794l393 -115.997l-14.5 -60l-32.5 -139c-4.66699 -17.333 -7 -32.666 -7 -45.999s3.83301 -24 11.5 -32s22.167 -12 43.5 -12h959c46 0 77 9.33301 93 28s24 47 24 85v211h409v-245c1.33301 -24.667 11 -43 29 -55s47.333 -18 88 -18h86v-458
c-91.333 0 -160.333 1.16699 -207 3.5s-82.167 8.16602 -106.5 17.499s-46.5 23.666 -66.5 42.999c-35.333 -22.667 -72.5 -38.834 -111.5 -48.501s-79.333 -15.5 -121 -17.5s-84.167 -3 -127.5 -3h-703c-91.333 0 -165.333 0.666992 -222 2s-105 5.33301 -145 12
c-114.667 18 -202 73.333 -262 166c-26 40 -45.167 87.833 -57.5 143.5s-18.5 113.167 -18.5 172.5c0 34 2 67.333 6 100c16 104 35.667 190.667 59 260c0 1.33301 0.333008 2.66602 1 3.99902v2zM1287 1191l-201 -200l-200 200l200 201zM1071 881.003l-220 -219l-219 219
l219 220zM1540 881.003l-220 -219l-219 219l219 220z" />
    <glyph glyph-name="uni062B.init" unicode="&#x62b;" horiz-adv-x="923" arabic-form="initial" 
d="M794 849l16.998 -91.4961l39 -212.5c10 -52 15 -100 15 -144c0 -22.667 -1.33301 -44.334 -4 -65.001c-5.33301 -40.667 -15.166 -82.834 -29.499 -126.501s-33.166 -79.834 -56.499 -108.501c-46.667 -60.667 -108.334 -105.667 -185.001 -135
c-56.667 -18 -123.667 -27 -201 -27h-444v456h444c24.667 0 41.334 3.16699 50.001 9.5s13 16.166 13 29.499c0 10 -1.33301 21.667 -4 35l-50 260zM670.998 1467l-201 -200l-200 200l200 201zM454.998 1157l-220 -219l-219 219l219 220zM923.998 1157l-220 -219l-219 219
l219 220z" />
    <glyph glyph-name="uni062B.medi" unicode="&#x62b;" horiz-adv-x="1024" arabic-form="medial" 
d="M828 713l0.00195312 -269.999c0 -16.667 3.66699 -28.834 11 -36.501s25.666 -11.5 54.999 -11.5h155v-456h-147c-50.667 0 -99.667 7.33301 -147 22s-91 34.667 -131 60c-38.667 -30.667 -81.834 -52 -129.501 -64s-109.167 -18 -184.5 -18h-335v456h364
c32.667 0 54 3.5 64 10.5s15 19.5 15 37.5v270h410zM710.002 1405l-201 -200l-200 200l200 201zM494.002 1095l-220 -219l-219 219l219 220zM963.002 1095l-220 -219l-219 219l219 220z" />
    <glyph glyph-name="uni062C.fina" unicode="&#x62c;" horiz-adv-x="1719" arabic-form="final" 
d="M1121 338l-232.999 -93.9971l-413 -166c2.66699 -12 9.83398 -38.167 21.501 -78.5l39 -132.5l38.5 -126v-2c0 -0.666992 0.333008 -1 1 -1v-3l2 -6c0 -0.666992 0.333008 -1 1 -1v-3h1v-3c0 -0.666992 0.333008 -1 1 -1v-3c0.666992 -0.666992 1 -1.33398 1 -2.00098
s0.333008 -1.33398 1 -2.00098c4 -13.333 6.33301 -21.666 7 -24.999c0.666992 -0.666992 1 -1.33398 1 -2.00098h774v-457h-608c-75.333 0 -143 4 -203 12c-60.667 7.33301 -115 25.666 -163 54.999s-90.667 75.666 -128 138.999
c-13.333 23.333 -32.5 68.666 -57.5 135.999s-49.333 140.166 -73 218.499s-39.834 146.833 -48.501 205.5c-6.66699 40.667 -10 78.667 -10 114c0 86.667 19.667 157 59 211c54 76 161 140.667 321 194c157.333 54.667 290.666 99.334 399.999 134.001l164 53l-317 69
c-83.333 17.333 -138.333 26 -165 26c-14.667 0 -28.334 -8 -41.001 -24c-12 -16 -24 -38.333 -36 -67l-384 98c34 128 95.667 227.333 185 298c80.667 60 167.334 90 260.001 90c60 0 135.667 -12 227 -36c90.667 -24.667 185.667 -54.334 285 -89.001l285 -102l132 -49
l55 -425l-64 -26l1 -2c2 -3.33301 6 -7.66602 12 -12.999s14.667 -11 26 -17c12 -6.66699 27.667 -12.667 47 -18s43.333 -9.66602 72 -12.999c28.667 -4 63 -6 103 -6h39v-457h-118c-128 0 -238 29.333 -330 88s-148.667 162.334 -170 311.001zM1195 -28.9971l-234 -233
l-233 233l233 234z" />
    <glyph glyph-name="uni062C.init" unicode="&#x62c;" horiz-adv-x="1506" arabic-form="initial" 
d="M495 973c37.333 0 73.665 -5.33398 108.998 -16.001c156 -46.667 303.5 -93 442.5 -139l303.5 -102c26.667 -8.66699 41.667 -13.667 45 -15l51 -408c-106.667 -75.333 -214.334 -139.333 -323.001 -192s-249.167 -93 -421.5 -121s-414.166 -42 -725.499 -42l-1 457
c207.333 0 403.5 3.66699 588.5 11s323.833 25.333 416.5 54l-76.5 24l-176 54.5l-177.5 53.5c-8 2 -15.667 3 -23 3c-18.667 0 -33.167 -8.5 -43.5 -25.5s-21.166 -41.167 -32.499 -72.5l-382 98c40.667 150.667 118.334 259.334 233.001 326.001
c62.667 34.667 127 52 193 52zM905.999 -365.001l-234 -233l-233 233l233 234z" />
    <glyph glyph-name="uni062C.medi" unicode="&#x62c;" horiz-adv-x="1547" arabic-form="medial" 
d="M1440 397l22.999 -1c15.333 0 33.333 -0.166992 54 -0.5s38.667 -0.5 54 -0.5v-458c-75.333 0 -137.5 7.16699 -186.5 21.5s-87.667 30.833 -116 49.5s-48.166 35.334 -59.499 50.001l-17 22c-144 -54 -321 -91.333 -531 -112s-439 -31 -687 -31v458
c125.333 0 254.833 1.16699 388.5 3.5s255.667 8.16602 366 17.499s195.833 23.666 256.5 42.999l-76 24l-176 54.5l-178 53.5c-8 2 -15.667 3 -23 3c-18 0 -32.333 -8.5 -43 -25.5s-21.667 -41.167 -33 -72.5l-382 98c40.667 150.667 118.334 259.334 233.001 326.001
c62.667 34.667 127 52 193 52c37.333 0 73.666 -5.33301 108.999 -16c155.333 -46.667 302.5 -93 441.5 -139l304.5 -102c26.667 -9.33301 41.667 -14.333 45 -15l43 -303h-3zM922.999 -365l-234 -233l-233 233l233 234z" />
    <glyph glyph-name="uni062D.fina" unicode="&#x62d;" horiz-adv-x="1719" arabic-form="final" 
d="M1121 338l-232.999 -93.9971l-413 -166c2.66699 -12 9.83398 -38.167 21.501 -78.5l39 -132.5l38.5 -126v-2c0 -0.666992 0.333008 -1 1 -1v-3l2 -6c0 -0.666992 0.333008 -1 1 -1v-3h1v-3c0 -0.666992 0.333008 -1 1 -1v-3c0.666992 -0.666992 1 -1.33398 1 -2.00098
s0.333008 -1.33398 1 -2.00098c4 -13.333 6.33301 -21.666 7 -24.999c0.666992 -0.666992 1 -1.33398 1 -2.00098h774v-457h-608c-75.333 0 -143 4 -203 12c-60.667 7.33301 -115 25.666 -163 54.999s-90.667 75.666 -128 138.999
c-13.333 23.333 -32.5 68.666 -57.5 135.999s-49.333 140.166 -73 218.499s-39.834 146.833 -48.501 205.5c-6.66699 40.667 -10 78.667 -10 114c0 86.667 19.667 157 59 211c54 76 161 140.667 321 194c157.333 54.667 290.666 99.334 399.999 134.001l164 53l-317 69
c-83.333 17.333 -138.333 26 -165 26c-14.667 0 -28.334 -8 -41.001 -24c-12 -16 -24 -38.333 -36 -67l-384 98c34 128 95.667 227.333 185 298c80.667 60 167.334 90 260.001 90c60 0 135.667 -12 227 -36c90.667 -24.667 185.667 -54.334 285 -89.001l285 -102l132 -49
l55 -425l-64 -26l1 -2c2 -3.33301 6 -7.66602 12 -12.999s14.667 -11 26 -17c12 -6.66699 27.667 -12.667 47 -18s43.333 -9.66602 72 -12.999c28.667 -4 63 -6 103 -6h39v-457h-118c-128 0 -238 29.333 -330 88s-148.667 162.334 -170 311.001z" />
    <glyph glyph-name="uni062D.init" unicode="&#x62d;" horiz-adv-x="1506" arabic-form="initial" 
d="M495 973c37.333 0 73.665 -5.33398 108.998 -16.001c156 -46.667 303.5 -93 442.5 -139l303.5 -102c26.667 -8.66699 41.667 -13.667 45 -15l51 -408c-106.667 -75.333 -214.334 -139.333 -323.001 -192s-249.167 -93 -421.5 -121s-414.166 -42 -725.499 -42l-1 457
c207.333 0 403.5 3.66699 588.5 11s323.833 25.333 416.5 54l-76.5 24l-176 54.5l-177.5 53.5c-8 2 -15.667 3 -23 3c-18.667 0 -33.167 -8.5 -43.5 -25.5s-21.166 -41.167 -32.499 -72.5l-382 98c40.667 150.667 118.334 259.334 233.001 326.001
c62.667 34.667 127 52 193 52z" />
    <glyph glyph-name="uni062D.medi" unicode="&#x62d;" horiz-adv-x="1547" arabic-form="medial" 
d="M1440 397l22.999 -1c15.333 0 33.333 -0.166992 54 -0.5s38.667 -0.5 54 -0.5v-458c-75.333 0 -137.5 7.16699 -186.5 21.5s-87.667 30.833 -116 49.5s-48.166 35.334 -59.499 50.001l-17 22c-144 -54 -321 -91.333 -531 -112s-439 -31 -687 -31v458
c125.333 0 254.833 1.16699 388.5 3.5s255.667 8.16602 366 17.499s195.833 23.666 256.5 42.999l-76 24l-176 54.5l-178 53.5c-8 2 -15.667 3 -23 3c-18 0 -32.333 -8.5 -43 -25.5s-21.667 -41.167 -33 -72.5l-382 98c40.667 150.667 118.334 259.334 233.001 326.001
c62.667 34.667 127 52 193 52c37.333 0 73.666 -5.33301 108.999 -16c155.333 -46.667 302.5 -93 441.5 -139l304.5 -102c26.667 -9.33301 41.667 -14.333 45 -15l43 -303h-3z" />
    <glyph glyph-name="uni062E.fina" unicode="&#x62e;" horiz-adv-x="1719" arabic-form="final" 
d="M1121 338l-232.999 -93.9971l-413 -166c2.66699 -12 9.83398 -38.167 21.501 -78.5l39 -132.5l38.5 -126v-2c0 -0.666992 0.333008 -1 1 -1v-3l2 -6c0 -0.666992 0.333008 -1 1 -1v-3h1v-3c0 -0.666992 0.333008 -1 1 -1v-3c0.666992 -0.666992 1 -1.33398 1 -2.00098
s0.333008 -1.33398 1 -2.00098c4 -13.333 6.33301 -21.666 7 -24.999c0.666992 -0.666992 1 -1.33398 1 -2.00098h774v-457h-608c-75.333 0 -143 4 -203 12c-60.667 7.33301 -115 25.666 -163 54.999s-90.667 75.666 -128 138.999
c-13.333 23.333 -32.5 68.666 -57.5 135.999s-49.333 140.166 -73 218.499s-39.834 146.833 -48.501 205.5c-6.66699 40.667 -10 78.667 -10 114c0 86.667 19.667 157 59 211c54 76 161 140.667 321 194c157.333 54.667 290.666 99.334 399.999 134.001l164 53l-317 69
c-83.333 17.333 -138.333 26 -165 26c-14.667 0 -28.334 -8 -41.001 -24c-12 -16 -24 -38.333 -36 -67l-384 98c34 128 95.667 227.333 185 298c80.667 60 167.334 90 260.001 90c60 0 135.667 -12 227 -36c90.667 -24.667 185.667 -54.334 285 -89.001l285 -102l132 -49
l55 -425l-64 -26l1 -2c2 -3.33301 6 -7.66602 12 -12.999s14.667 -11 26 -17c12 -6.66699 27.667 -12.667 47 -18s43.333 -9.66602 72 -12.999c28.667 -4 63 -6 103 -6h39v-457h-118c-128 0 -238 29.333 -330 88s-148.667 162.334 -170 311.001zM844.001 1551l-234 -233
l-233 233l233 234z" />
    <glyph glyph-name="uni062E.init" unicode="&#x62e;" horiz-adv-x="1506" arabic-form="initial" 
d="M495 973c37.333 0 73.665 -5.33398 108.998 -16.001c156 -46.667 303.5 -93 442.5 -139l303.5 -102c26.667 -8.66699 41.667 -13.667 45 -15l51 -408c-106.667 -75.333 -214.334 -139.333 -323.001 -192s-249.167 -93 -421.5 -121s-414.166 -42 -725.499 -42l-1 457
c207.333 0 403.5 3.66699 588.5 11s323.833 25.333 416.5 54l-76.5 24l-176 54.5l-177.5 53.5c-8 2 -15.667 3 -23 3c-18.667 0 -33.167 -8.5 -43.5 -25.5s-21.166 -41.167 -32.499 -72.5l-382 98c40.667 150.667 118.334 259.334 233.001 326.001
c62.667 34.667 127 52 193 52zM677.999 1313l-234 -233l-233 233l233 234z" />
    <glyph glyph-name="uni062E.medi" unicode="&#x62e;" horiz-adv-x="1547" arabic-form="medial" 
d="M1440 397l22.999 -1c15.333 0 33.333 -0.166992 54 -0.5s38.667 -0.5 54 -0.5v-458c-75.333 0 -137.5 7.16699 -186.5 21.5s-87.667 30.833 -116 49.5s-48.166 35.334 -59.499 50.001l-17 22c-144 -54 -321 -91.333 -531 -112s-439 -31 -687 -31v458
c125.333 0 254.833 1.16699 388.5 3.5s255.667 8.16602 366 17.499s195.833 23.666 256.5 42.999l-76 24l-176 54.5l-178 53.5c-8 2 -15.667 3 -23 3c-18 0 -32.333 -8.5 -43 -25.5s-21.667 -41.167 -33 -72.5l-382 98c40.667 150.667 118.334 259.334 233.001 326.001
c62.667 34.667 127 52 193 52c37.333 0 73.666 -5.33301 108.999 -16c155.333 -46.667 302.5 -93 441.5 -139l304.5 -102c26.667 -9.33301 41.667 -14.333 45 -15l43 -303h-3zM727.999 1314l-234 -233l-233 233l233 234z" />
    <glyph glyph-name="uni062F.fina" unicode="&#x62f;" horiz-adv-x="1281" arabic-form="final" 
d="M1253 394h53.002v-456h-97c-95.333 0.666992 -187 36 -275 106c-24 -22 -50.667 -41 -80 -57c-76.667 -42 -160 -63 -250 -63c-75.333 0 -153.833 7.5 -235.5 22.5s-151.834 30.333 -210.501 46s-94.667 25.834 -108 30.501l122 437c25.333 -8 63 -18.333 113 -31
s104 -24.167 162 -34.5s110.333 -15.5 157 -15.5c17.333 0 31.333 2.33301 42 7s17.667 10 21 16c1.33301 2.66699 2 5.66699 2 9c0 6 -1.5 12.333 -4.5 19s-5.5 11.667 -7.5 15l-1 1l-270.5 400.5c-52.333 78.333 -78.166 117.5 -77.499 117.5l343 224
c0 -0.666992 25.667 -39.5 77 -116.5l267 -396.5c4.66699 -6.66699 9 -13.667 13 -21c3.33301 -6 14.166 -22.167 32.499 -48.5s40.333 -55.833 66 -88.5s51.667 -61.334 78 -86.001s49.166 -37 68.499 -37z" />
    <glyph glyph-name="uni0630.fina" unicode="&#x630;" horiz-adv-x="1281" arabic-form="final" 
d="M1253 394h53.002v-456h-97c-95.333 0.666992 -187 36 -275 106c-24 -22 -50.667 -41 -80 -57c-76.667 -42 -160 -63 -250 -63c-75.333 0 -153.833 7.5 -235.5 22.5s-151.834 30.333 -210.501 46s-94.667 25.834 -108 30.501l122 437c25.333 -8 63 -18.333 113 -31
s104 -24.167 162 -34.5s110.333 -15.5 157 -15.5c17.333 0 31.333 2.33301 42 7s17.667 10 21 16c1.33301 2.66699 2 5.66699 2 9c0 6 -1.5 12.333 -4.5 19s-5.5 11.667 -7.5 15l-1 1l-270.5 400.5c-52.333 78.333 -78.166 117.5 -77.499 117.5l343 224
c0 -0.666992 25.667 -39.5 77 -116.5l267 -396.5c4.66699 -6.66699 9 -13.667 13 -21c3.33301 -6 14.166 -22.167 32.499 -48.5s40.333 -55.833 66 -88.5s51.667 -61.334 78 -86.001s49.166 -37 68.499 -37zM853.002 1558l-234 -233l-233 233l233 234z" />
    <glyph glyph-name="uni0631.fina" unicode="&#x631;" horiz-adv-x="904" arabic-form="final" 
d="M893 395l36.002 -0.000976562v-457h-46c-30.667 0 -60.334 3.33301 -89.001 10c-11.333 -45.333 -28.833 -99 -52.5 -161s-56.834 -119.667 -99.501 -173c-63.333 -72.667 -142.666 -126.667 -237.999 -162c-90 -34 -191.667 -51 -305 -51h-99v456h99
c113.333 0 192 24.333 236 73c26 32 43.167 71.333 51.5 118s12.5 89.334 12.5 128.001v537h410v-239c0 -20.667 7.16699 -39 21.5 -55s35.166 -24 62.499 -24z" />
    <glyph glyph-name="uni0632.fina" unicode="&#x632;" horiz-adv-x="904" arabic-form="final" 
d="M893 395l36.002 -0.000976562v-457h-46c-30.667 0 -60.334 3.33301 -89.001 10c-11.333 -45.333 -28.833 -99 -52.5 -161s-56.834 -119.667 -99.501 -173c-63.333 -72.667 -142.666 -126.667 -237.999 -162c-90 -34 -191.667 -51 -305 -51h-99v456h99
c113.333 0 192 24.333 236 73c26 32 43.167 71.333 51.5 118s12.5 89.334 12.5 128.001v537h410v-239c0 -20.667 7.16699 -39 21.5 -55s35.166 -24 62.499 -24zM839.002 1069l-234 -233l-233 233l233 234z" />
    <glyph glyph-name="uni0633.fina" unicode="&#x633;" horiz-adv-x="2966" arabic-form="final" 
d="M238 716l365.999 -183.999c-80.667 -166 -121 -306.667 -121 -422c0 -63.333 12.667 -116.333 38 -159c16.667 -26 36.834 -45.833 60.501 -59.5s48.5 -23 74.5 -28s50 -7.5 72 -7.5h236c40 0 82 4 126 12s78 24.333 102 49c27.333 32.667 41 91 41 175v621h410v-237
c0 -22.667 6.33301 -42.667 19 -60s39 -26 79 -26c28.667 0 51.167 7.16699 67.5 21.5s24.5 35.833 24.5 64.5v237h409v-237c0 -24.667 6.33301 -45 19 -61s29.667 -24 51 -24s38 8 50 24s18 36.333 18 61v237h410v-232c0 -27.333 8.83301 -48.5 26.5 -63.5
s47.834 -22.5 90.5 -22.5h84v-457c-74.667 0 -136 1.66699 -184 5s-88.167 11.166 -120.5 23.499s-61.833 31.833 -88.5 58.5c-31.333 -21.333 -71 -41.166 -119 -59.499s-101 -27.5 -159 -27.5c-70.667 0 -127.834 8.5 -171.5 25.5c-43.667 17 -82.167 37.5 -115.5 61.5
c-88 -56.667 -182.667 -85 -284 -85c-38.667 0 -75 2.66699 -109 8c-10 -100.667 -46 -197.667 -108 -291s-148.333 -162 -259 -206c-86.667 -32.667 -189.667 -49 -309 -49h-236c-119.333 0 -227.333 27.333 -324 82s-173.667 138.667 -231 252
c-36 64.667 -63.333 134 -82 208c-11.333 53.333 -17 109.666 -17 168.999c0 22 0.666992 44.333 2 67c12.667 166 66.667 344.667 162 536z" />
    <glyph glyph-name="uni0633.init" unicode="&#x633;" horiz-adv-x="1844" arabic-form="initial" 
d="M1722 830l8.50488 -41.499l19.5 -99.5c7.33301 -38.667 14 -76.334 20 -113.001s9.66699 -65 11 -85c1.33301 -14.667 2 -29.334 2 -44.001c0 -54 -6 -104.667 -18 -152s-27 -88.833 -45 -124.5s-36.333 -63.5 -55 -83.5
c-90.667 -94.667 -207.667 -144.334 -351 -149.001c-70.667 0 -131.5 8.5 -182.5 25.5s-93.5 37.5 -127.5 61.5c-40.667 -27.333 -82.334 -48.666 -125.001 -63.999s-89.334 -23 -140.001 -23c-70.667 0 -128.5 8.5 -173.5 25.5s-84.167 37.5 -117.5 61.5
c-24.667 -26.667 -50.834 -46.167 -78.501 -58.5s-70.167 -20.166 -127.5 -23.499s-146.333 -5 -267 -5v457h155c43.333 0 73.833 7.5 91.5 22.5s26.5 36.167 26.5 63.5v232h410v-237c0 -24.667 6.16699 -45 18.5 -61s29.166 -24.333 50.499 -25c52 0 77.667 28.667 77 86
v237h409v-237c0 -24.667 7.33301 -45 22 -61s32.667 -24 54 -24c27.333 0 48.166 7.5 62.499 22.5s21.5 29.5 21.5 43.5v5l-21 119l-21.5 116l-9.5 50z" />
    <glyph glyph-name="uni0633.medi" unicode="&#x633;" horiz-adv-x="1886" arabic-form="medial" 
d="M1698 713l0.000976562 -237c0 -27.333 8.83301 -47.666 26.5 -60.999s47.834 -20 90.501 -20h96v-457c-102 0 -177.5 1.66699 -226.5 5s-86.167 11.166 -111.5 23.499s-50.666 31.833 -75.999 58.5c-46 -34.667 -107.667 -61 -185 -79
c-24.667 -4.66699 -51 -7.33398 -79 -8.00098h-4c-139.333 1.33301 -234.666 30.333 -285.999 87c-40.667 -27.333 -81.334 -48.666 -122.001 -63.999s-86.334 -23 -137.001 -23c-70.667 0 -128.5 8.5 -173.5 25.5s-84.167 37.5 -117.5 61.5l-17 -17
c-18.667 -21.333 -38 -37 -58 -47s-54.333 -16.333 -103 -19s-128.667 -4 -240 -4v457h101c43.333 0 73.666 7 90.999 21s26 34.667 26 62v235h410v-237c0 -24.667 5.66699 -45 17 -61s27.666 -24.333 48.999 -25c51.333 0 76 28.667 74 86v237h409v-237
c0 -24.667 7 -45 21 -61s31.667 -24 53 -24s37 8 47 24s15 36.333 15 61v237h410z" />
    <glyph glyph-name="uni0634.fina" unicode="&#x634;" horiz-adv-x="2966" arabic-form="final" 
d="M238 716l365.999 -183.999c-80.667 -166 -121 -306.667 -121 -422c0 -63.333 12.667 -116.333 38 -159c16.667 -26 36.834 -45.833 60.501 -59.5s48.5 -23 74.5 -28s50 -7.5 72 -7.5h236c40 0 82 4 126 12s78 24.333 102 49c27.333 32.667 41 91 41 175v621h410v-237
c0 -22.667 6.33301 -42.667 19 -60s39 -26 79 -26c28.667 0 51.167 7.16699 67.5 21.5s24.5 35.833 24.5 64.5v237h409v-237c0 -24.667 6.33301 -45 19 -61s29.667 -24 51 -24s38 8 50 24s18 36.333 18 61v237h410v-232c0 -27.333 8.83301 -48.5 26.5 -63.5
s47.834 -22.5 90.5 -22.5h84v-457c-74.667 0 -136 1.66699 -184 5s-88.167 11.166 -120.5 23.499s-61.833 31.833 -88.5 58.5c-31.333 -21.333 -71 -41.166 -119 -59.499s-101 -27.5 -159 -27.5c-70.667 0 -127.834 8.5 -171.5 25.5c-43.667 17 -82.167 37.5 -115.5 61.5
c-88 -56.667 -182.667 -85 -284 -85c-38.667 0 -75 2.66699 -109 8c-10 -100.667 -46 -197.667 -108 -291s-148.333 -162 -259 -206c-86.667 -32.667 -189.667 -49 -309 -49h-236c-119.333 0 -227.333 27.333 -324 82s-173.667 138.667 -231 252
c-36 64.667 -63.333 134 -82 208c-11.333 53.333 -17 109.666 -17 168.999c0 22 0.666992 44.333 2 67c12.667 166 66.667 344.667 162 536zM2224 1410l-201 -200l-200 200l200 201zM2008 1100l-220 -219l-219 219l219 220zM2477 1100l-220 -219l-219 219l219 220z" />
    <glyph glyph-name="uni0634.init" unicode="&#x634;" horiz-adv-x="1844" arabic-form="initial" 
d="M1722 830l8.50488 -41.499l19.5 -99.5c7.33301 -38.667 14 -76.334 20 -113.001s9.66699 -65 11 -85c1.33301 -14.667 2 -29.334 2 -44.001c0 -54 -6 -104.667 -18 -152s-27 -88.833 -45 -124.5s-36.333 -63.5 -55 -83.5
c-90.667 -94.667 -207.667 -144.334 -351 -149.001c-70.667 0 -131.5 8.5 -182.5 25.5s-93.5 37.5 -127.5 61.5c-40.667 -27.333 -82.334 -48.666 -125.001 -63.999s-89.334 -23 -140.001 -23c-70.667 0 -128.5 8.5 -173.5 25.5s-84.167 37.5 -117.5 61.5
c-24.667 -26.667 -50.834 -46.167 -78.501 -58.5s-70.167 -20.166 -127.5 -23.499s-146.333 -5 -267 -5v457h155c43.333 0 73.833 7.5 91.5 22.5s26.5 36.167 26.5 63.5v232h410v-237c0 -24.667 6.16699 -45 18.5 -61s29.166 -24.333 50.499 -25c52 0 77.667 28.667 77 86
v237h409v-237c0 -24.667 7.33301 -45 22 -61s32.667 -24 54 -24c27.333 0 48.166 7.5 62.499 22.5s21.5 29.5 21.5 43.5v5l-21 119l-21.5 116l-9.5 50zM1213 1432l-201 -200l-200 200l200 201zM997.005 1122l-220 -219l-219 219l219 220zM1466 1122l-220 -219l-219 219
l219 220z" />
    <glyph glyph-name="uni0634.medi" unicode="&#x634;" horiz-adv-x="1886" arabic-form="medial" 
d="M1698 713l0.000976562 -237c0 -27.333 8.83301 -47.666 26.5 -60.999s47.834 -20 90.501 -20h96v-457c-102 0 -177.5 1.66699 -226.5 5s-86.167 11.166 -111.5 23.499s-50.666 31.833 -75.999 58.5c-46 -34.667 -107.667 -61 -185 -79
c-24.667 -4.66699 -51 -7.33398 -79 -8.00098h-4c-139.333 1.33301 -234.666 30.333 -285.999 87c-40.667 -27.333 -81.334 -48.666 -122.001 -63.999s-86.334 -23 -137.001 -23c-70.667 0 -128.5 8.5 -173.5 25.5s-84.167 37.5 -117.5 61.5l-17 -17
c-18.667 -21.333 -38 -37 -58 -47s-54.333 -16.333 -103 -19s-128.667 -4 -240 -4v457h101c43.333 0 73.666 7 90.999 21s26 34.667 26 62v235h410v-237c0 -24.667 5.66699 -45 17 -61s27.666 -24.333 48.999 -25c51.333 0 76 28.667 74 86v237h409v-237
c0 -24.667 7 -45 21 -61s31.667 -24 53 -24s37 8 47 24s15 36.333 15 61v237h410zM1153 1394l-201 -200l-200 200l200 201zM937.001 1084l-220 -219l-219 219l219 220zM1406 1084l-220 -219l-219 219l219 220z" />
    <glyph glyph-name="uni0635.fina" unicode="&#x635;" horiz-adv-x="2994" arabic-form="final" 
d="M2359 393c57.333 0 97 7.33398 119 22.001s33 39.667 33 75c0 25.333 -4.66699 43.333 -14 54s-23.166 17 -41.5 19c-18.333 2 -40.833 3 -67.5 3c-38.667 0 -83.834 -13 -135.5 -39c-51.667 -26 -100.834 -61 -147.5 -105c-10 -8.66699 -19.667 -18.334 -29 -29.001h283
zM2899 395.001l115 -0.00292969v-457l-604 1c-9.33301 -0.666992 -18 -1 -26 -1h-679c-20 0 -39.667 1 -59 3c-14 -135.333 -60 -248 -138 -338c-60 -68.667 -136.333 -119.667 -229 -153c-87.333 -32 -190 -48 -308 -48l-239 -1c-119.333 0 -223 26.667 -311 80
c-88 52.667 -160.333 122.334 -217 209.001s-93 171.334 -109 254.001c-11.333 54 -17 110.333 -17 169c0 22 0.666992 44.333 2 67c12.667 166 66.667 344.667 162 536l366 -184c-12 -23.333 -23 -46.666 -33 -69.999l-28 -70c-40 -108 -60 -201.667 -60 -281
c0 -62.667 12.667 -116 38 -160c16.667 -26 36.667 -45.667 60 -59c24 -14 49 -23.333 75 -28c26 -5.33301 50 -8 72 -8l239 1c113.333 0 189.666 20 228.999 60c26.667 31.333 40 88.333 40 171v625h409v-82c-0.666992 -54.667 -1 -121.334 -1 -200.001
c63.333 115.333 136.333 211.333 219 288c76.667 72.667 154.334 128.667 233.001 168c98.667 50 199 75 301 75h20c30 0 61.667 -1 95 -3s67.166 -7.16699 101.5 -15.5c34.333 -8.33301 67.833 -22.166 100.5 -41.499c66.667 -40 115.667 -97 147 -171
c26.667 -61.333 40 -136.666 40 -225.999c0 -34.667 -2 -71.334 -6 -110.001z" />
    <glyph glyph-name="uni0635.init" unicode="&#x635;" horiz-adv-x="1973" arabic-form="initial" 
d="M1439 963c30 0 61.667 -1 95 -3s67.166 -7.16699 101.499 -15.5s67.833 -22.166 100.5 -41.499c66.667 -40 115.667 -97 147 -171c26.667 -61.333 40 -136.666 40 -225.999c0 -48.667 -4.16699 -100.834 -12.5 -156.501s-24.166 -106.167 -47.499 -151.5
c-36.667 -70 -88.667 -127.333 -156 -172c-38.667 -24.667 -77.334 -43.334 -116.001 -56.001s-74.5 -21 -107.5 -25s-60.167 -6 -81.5 -6h-679c-102 0 -194.667 25.667 -278 77c-26.667 -16 -55.667 -29.667 -87 -41c-66 -24 -141.667 -36 -227 -36h-156v456h179
c12 0 24.667 0.833008 38 2.5s24.5 5.66699 33.5 12s13.5 16.5 13.5 30.5v273h410v-314c66.667 130 145.334 237 236.001 321c76 72.667 153.667 128.667 233 168c98.667 50 199 75 301 75h20zM1094 394h283.001c57.333 0 97 7.33301 119 22s33 39.667 33 75
c0 25.333 -4.66699 43.333 -14 54s-23.166 17 -41.499 19s-40.833 3 -67.5 3c-38.667 0 -83.834 -13 -135.501 -39s-100.834 -61 -147.501 -105c-10 -9.33301 -19.667 -19 -29 -29z" />
    <glyph glyph-name="uni0635.medi" unicode="&#x635;" horiz-adv-x="2008" arabic-form="medial" 
d="M1439 963c30 0 61.667 -1.00195 95 -3.00195s67.166 -7.16699 101.499 -15.5s67.833 -22.166 100.5 -41.499c66.667 -40 115.667 -97 147 -171c26.667 -61.333 40 -136.666 40 -225.999c0 -38.667 -3.33301 -75.667 -10 -111h120v-458h-1310
c-102 0 -194.667 25.667 -278 77c-26.667 -16 -55.667 -29.667 -87 -41c-66 -24 -141.667 -36 -227 -36h-156v458h179c12 0 24.667 0.833008 38 2.5s24.5 5.66699 33.5 12s13.5 16.5 13.5 30.5v273h410v-314c66.667 130 145.334 237 236.001 321
c76 72.667 153.667 128.667 233 168c98.667 50 199 75 301 75h20zM1094 393.998h283.001c57.333 0 97 7.33301 119 22s33 39.667 33 75c0 25.333 -4.66699 43.333 -14 54s-23.166 17 -41.499 19s-40.833 3 -67.5 3c-38.667 0 -83.834 -13 -135.501 -39
s-100.834 -61 -147.501 -105c-10 -9.33301 -19.667 -19 -29 -29z" />
    <glyph glyph-name="uni0636.fina" unicode="&#x636;" horiz-adv-x="2994" arabic-form="final" 
d="M2359 393c57.333 0 97 7.33398 119 22.001s33 39.667 33 75c0 25.333 -4.66699 43.333 -14 54s-23.166 17 -41.5 19c-18.333 2 -40.833 3 -67.5 3c-38.667 0 -83.834 -13 -135.5 -39c-51.667 -26 -100.834 -61 -147.5 -105c-10 -8.66699 -19.667 -18.334 -29 -29.001h283
zM2899 395.001l115 -0.00292969v-457l-604 1c-9.33301 -0.666992 -18 -1 -26 -1h-679c-20 0 -39.667 1 -59 3c-14 -135.333 -60 -248 -138 -338c-60 -68.667 -136.333 -119.667 -229 -153c-87.333 -32 -190 -48 -308 -48l-239 -1c-119.333 0 -223 26.667 -311 80
c-88 52.667 -160.333 122.334 -217 209.001s-93 171.334 -109 254.001c-11.333 54 -17 110.333 -17 169c0 22 0.666992 44.333 2 67c12.667 166 66.667 344.667 162 536l366 -184c-12 -23.333 -23 -46.666 -33 -69.999l-28 -70c-40 -108 -60 -201.667 -60 -281
c0 -62.667 12.667 -116 38 -160c16.667 -26 36.667 -45.667 60 -59c24 -14 49 -23.333 75 -28c26 -5.33301 50 -8 72 -8l239 1c113.333 0 189.666 20 228.999 60c26.667 31.333 40 88.333 40 171v625h409v-82c-0.666992 -54.667 -1 -121.334 -1 -200.001
c63.333 115.333 136.333 211.333 219 288c76.667 72.667 154.334 128.667 233.001 168c98.667 50 199 75 301 75h20c30 0 61.667 -1 95 -3s67.166 -7.16699 101.5 -15.5c34.333 -8.33301 67.833 -22.166 100.5 -41.499c66.667 -40 115.667 -97 147 -171
c26.667 -61.333 40 -136.666 40 -225.999c0 -34.667 -2 -71.334 -6 -110.001zM2641 1321l-234 -233l-233 233l233 234z" />
    <glyph glyph-name="uni0636.init" unicode="&#x636;" horiz-adv-x="1973" arabic-form="initial" 
d="M1439 963c30 0 61.667 -1 95 -3s67.166 -7.16699 101.499 -15.5s67.833 -22.166 100.5 -41.499c66.667 -40 115.667 -97 147 -171c26.667 -61.333 40 -136.666 40 -225.999c0 -48.667 -4.16699 -100.834 -12.5 -156.501s-24.166 -106.167 -47.499 -151.5
c-36.667 -70 -88.667 -127.333 -156 -172c-38.667 -24.667 -77.334 -43.334 -116.001 -56.001s-74.5 -21 -107.5 -25s-60.167 -6 -81.5 -6h-679c-102 0 -194.667 25.667 -278 77c-26.667 -16 -55.667 -29.667 -87 -41c-66 -24 -141.667 -36 -227 -36h-156v456h179
c12 0 24.667 0.833008 38 2.5s24.5 5.66699 33.5 12s13.5 16.5 13.5 30.5v273h410v-314c66.667 130 145.334 237 236.001 321c76 72.667 153.667 128.667 233 168c98.667 50 199 75 301 75h20zM1094 394h283.001c57.333 0 97 7.33301 119 22s33 39.667 33 75
c0 25.333 -4.66699 43.333 -14 54s-23.166 17 -41.499 19s-40.833 3 -67.5 3c-38.667 0 -83.834 -13 -135.501 -39s-100.834 -61 -147.501 -105c-10 -9.33301 -19.667 -19 -29 -29zM1642 1299l-234 -233l-233 233l233 234z" />
    <glyph glyph-name="uni0636.medi" unicode="&#x636;" horiz-adv-x="2008" arabic-form="medial" 
d="M1439 963c30 0 61.667 -1.00195 95 -3.00195s67.166 -7.16699 101.499 -15.5s67.833 -22.166 100.5 -41.499c66.667 -40 115.667 -97 147 -171c26.667 -61.333 40 -136.666 40 -225.999c0 -38.667 -3.33301 -75.667 -10 -111h120v-458h-1310
c-102 0 -194.667 25.667 -278 77c-26.667 -16 -55.667 -29.667 -87 -41c-66 -24 -141.667 -36 -227 -36h-156v458h179c12 0 24.667 0.833008 38 2.5s24.5 5.66699 33.5 12s13.5 16.5 13.5 30.5v273h410v-314c66.667 130 145.334 237 236.001 321
c76 72.667 153.667 128.667 233 168c98.667 50 199 75 301 75h20zM1094 393.998h283.001c57.333 0 97 7.33301 119 22s33 39.667 33 75c0 25.333 -4.66699 43.333 -14 54s-23.166 17 -41.499 19s-40.833 3 -67.5 3c-38.667 0 -83.834 -13 -135.501 -39
s-100.834 -61 -147.501 -105c-10 -9.33301 -19.667 -19 -29 -29zM1635 1300l-234 -233l-233 233l233 234z" />
    <glyph glyph-name="uni0637.fina" unicode="&#x637;" horiz-adv-x="1572" arabic-form="final" 
d="M1597 395l0.000976562 -458.002h-1527v458h118l49 72v963h410v-539l-2 -13l11 6c99.333 52.667 200 79 302 79h20c30 0 61.667 -1 95 -3s67.166 -7.16699 101.499 -15.5s67.833 -22.166 100.5 -41.499c66 -40 115 -97 147 -171c26 -61.333 39 -136.666 39 -225.999
c0 -38.667 -3 -75.667 -9 -111h145zM657.001 394.998l283.001 0.000976562c57.333 0 97 7.16699 119 21.5s33 39.5 33 75.5c0 25.333 -4.66699 43.166 -14 53.499s-23.166 16.5 -41.499 18.5s-40.833 3 -67.5 3c-38.667 0 -83.834 -12.833 -135.501 -38.5
s-100.834 -60.5 -147.501 -104.5l-10 -10c-6.66699 -6 -13 -12.333 -19 -19z" />
    <glyph glyph-name="uni0637.init" unicode="&#x637;" horiz-adv-x="1416" arabic-form="initial" 
d="M562 395l283.001 0.000976562c57.333 0 97 7.16699 119 21.5s33 39.5 33 75.5c0 25.333 -4.66699 43.166 -14 53.499s-23.166 16.5 -41.499 18.5s-40.833 3 -67.5 3c-38.667 0 -83.834 -12.833 -135.501 -38.5s-100.834 -60.5 -147.501 -104.5l-10 -10
c-6.66699 -6 -13 -12.333 -19 -19zM552.001 1430l0.000976562 -539.003l-2 -13l11 6c99.333 52.667 200 79 302 79h20c30 0 61.667 -1 95 -3s67.166 -7.16699 101.499 -15.5s67.833 -22.166 100.5 -41.499c66 -40 115 -97 147 -171c26 -61.333 39 -136.666 39 -225.999
c0 -48.667 -5 -102.667 -15 -162s-25 -108.666 -45 -147.999c-36.667 -71.333 -88.667 -128.666 -156 -171.999c-38.667 -24.667 -77.167 -43.334 -115.5 -56.001s-74 -21 -107 -25s-60.5 -6 -82.5 -6h-870v458h118l49 72v963h410z" />
    <glyph glyph-name="uni0637.medi" unicode="&#x637;" horiz-adv-x="1477" arabic-form="medial" 
d="M1502 395l0.000976562 -458.002h-1527v458h118l49 72v963h410v-539l-2 -13l11 6c99.333 52.667 200 79 302 79h20c30 0 61.667 -1 95 -3s67.166 -7.16699 101.499 -15.5s67.833 -22.166 100.5 -41.499c66 -40 115 -97 147 -171c26 -61.333 39 -136.666 39 -225.999
c0 -38.667 -3 -75.667 -9 -111h145zM562.001 394.998l283.001 0.000976562c57.333 0 97 7.16699 119 21.5s33 39.5 33 75.5c0 25.333 -4.66699 43.166 -14 53.499s-23.166 16.5 -41.499 18.5s-40.833 3 -67.5 3c-38.667 0 -83.834 -12.833 -135.501 -38.5
s-100.834 -60.5 -147.501 -104.5l-10 -10c-6.66699 -6 -13 -12.333 -19 -19z" />
    <glyph glyph-name="uni0638.fina" unicode="&#x638;" horiz-adv-x="1572" arabic-form="final" 
d="M1597 395l0.000976562 -458.002h-1527v458h118l49 72v963h410v-539l-2 -13l11 6c99.333 52.667 200 79 302 79h20c30 0 61.667 -1 95 -3s67.166 -7.16699 101.499 -15.5s67.833 -22.166 100.5 -41.499c66 -40 115 -97 147 -171c26 -61.333 39 -136.666 39 -225.999
c0 -38.667 -3 -75.667 -9 -111h145zM657.001 394.998l283.001 0.000976562c57.333 0 97 7.16699 119 21.5s33 39.5 33 75.5c0 25.333 -4.66699 43.166 -14 53.499s-23.166 16.5 -41.499 18.5s-40.833 3 -67.5 3c-38.667 0 -83.834 -12.833 -135.501 -38.5
s-100.834 -60.5 -147.501 -104.5l-10 -10c-6.66699 -6 -13 -12.333 -19 -19zM1242 1282l-234 -233l-233 233l233 234z" />
    <glyph glyph-name="uni0638.init" unicode="&#x638;" horiz-adv-x="1416" arabic-form="initial" 
d="M562 395l283.001 0.000976562c57.333 0 97 7.16699 119 21.5s33 39.5 33 75.5c0 25.333 -4.66699 43.166 -14 53.499s-23.166 16.5 -41.499 18.5s-40.833 3 -67.5 3c-38.667 0 -83.834 -12.833 -135.501 -38.5s-100.834 -60.5 -147.501 -104.5l-10 -10
c-6.66699 -6 -13 -12.333 -19 -19zM552.001 1430l0.000976562 -539.003l-2 -13l11 6c99.333 52.667 200 79 302 79h20c30 0 61.667 -1 95 -3s67.166 -7.16699 101.499 -15.5s67.833 -22.166 100.5 -41.499c66 -40 115 -97 147 -171c26 -61.333 39 -136.666 39 -225.999
c0 -48.667 -5 -102.667 -15 -162s-25 -108.666 -45 -147.999c-36.667 -71.333 -88.667 -128.666 -156 -171.999c-38.667 -24.667 -77.167 -43.334 -115.5 -56.001s-74 -21 -107 -25s-60.5 -6 -82.5 -6h-870v458h118l49 72v963h410zM1150 1280l-234 -233l-233 233l233 234z
" />
    <glyph glyph-name="uni0638.medi" unicode="&#x638;" horiz-adv-x="1477" arabic-form="medial" 
d="M1502 395l0.000976562 -458.002h-1527v458h118l49 72v963h410v-539l-2 -13l11 6c99.333 52.667 200 79 302 79h20c30 0 61.667 -1 95 -3s67.166 -7.16699 101.499 -15.5s67.833 -22.166 100.5 -41.499c66 -40 115 -97 147 -171c26 -61.333 39 -136.666 39 -225.999
c0 -38.667 -3 -75.667 -9 -111h145zM562.001 394.998l283.001 0.000976562c57.333 0 97 7.16699 119 21.5s33 39.5 33 75.5c0 25.333 -4.66699 43.166 -14 53.499s-23.166 16.5 -41.499 18.5s-40.833 3 -67.5 3c-38.667 0 -83.834 -12.833 -135.501 -38.5
s-100.834 -60.5 -147.501 -104.5l-10 -10c-6.66699 -6 -13 -12.333 -19 -19zM1131 1281l-234 -233l-233 233l233 234z" />
    <glyph glyph-name="uni0639.fina" unicode="&#x639;" horiz-adv-x="1422" arabic-form="final" 
d="M945 1082c76 0 147.997 -19.998 215.997 -59.998c64 -40 113.667 -92.333 149 -157c29.333 -57.333 44 -116.333 44 -177c0 -74 -22 -145 -66 -213c-18.667 -28 -40.667 -54.667 -66 -80h225v-457h-364c-75.333 0 -142.833 15.167 -202.5 45.5
s-108.834 72.166 -147.501 125.499c-73.333 -33.333 -134.333 -69 -183 -107c-46.667 -34.667 -70 -80.667 -70 -138c0 -56.667 20.167 -105.667 60.5 -147s87.833 -62 142.5 -62h593l2 -454h-593c-82.667 0 -162.667 16.667 -240 50c-73.333 32 -138 76.667 -194 134
s-99.333 122.666 -130 195.999c-19.333 51.333 -32.666 101 -39.999 149s-11 92.667 -11 134c0 64.667 8.83301 122.334 26.5 173.001s39.834 95 66.501 133s54.667 70.333 84 97s56.5 48.167 81.5 64.5s44.167 27.833 57.5 34.5
c4.66699 3.33301 8.33398 5.66602 11.001 6.99902l-37 32l-86 73l-72 156c0 36 5.16699 78.167 15.5 126.5s31.5 96.833 63.5 145.5c84.667 117.333 203.334 176 356.001 176h308zM791.997 511.002c16.667 12 37.999 30.832 63.999 56.499s51.167 51.834 75.5 78.501
s41.5 48 51.5 64h-384c4.66699 -8 16.334 -21.833 35.001 -41.5l62.5 -64.5l62 -61.5c18.333 -17.667 29.5 -28.167 33.5 -31.5z" />
    <glyph glyph-name="uni0639.init" unicode="&#x639;" horiz-adv-x="1200" arabic-form="initial" 
d="M649 1065c52 0 104.167 -6.66797 156.5 -20.001s99.833 -28.666 142.5 -45.999s77 -32.666 103 -45.999l39 -20l-177 -351l-42.5 18.5c-28.333 12.333 -62 24.666 -101 36.999s-75.833 19.5 -110.5 21.5h-5c-37.333 0 -69.333 -11.333 -96 -34s-40 -50.334 -40 -83.001
c0 -36 16 -64.167 48 -84.5s74 -35.166 126 -44.499s109.333 -15.333 172 -18h10c6.66699 0 14.5 -0.166992 23.5 -0.5s17.5 -0.5 25.5 -0.5h16h128v-457h-1092v458h155c-14.667 47.333 -22 96.333 -22 147c0 62 11 124 33 186s55.333 118.167 100 168.5s101 91 169 122
s147.667 46.5 239 46.5z" />
    <glyph glyph-name="uni0639.medi" unicode="&#x639;" horiz-adv-x="1290" arabic-form="medial" 
d="M663 511c16 12 37.166 30.832 63.499 56.499s51.5 51.834 75.5 78.501s41.333 48 52 64h-384c4.66699 -8 16.334 -21.833 35.001 -41.5l62.5 -64.5l62 -61.5c18.333 -17.667 29.5 -28.167 33.5 -31.5zM804.999 1084c80 0 155.331 -21.332 225.998 -63.999
c69.333 -44 121 -101.333 155 -172c24 -54.667 36 -108.334 36 -161.001c0 -84 -30.667 -165.333 -92 -244c-9.33301 -10.667 -18 -21.334 -26 -32.001c-4.66699 -5.33301 -9 -10.666 -13 -15.999h224v-457h-429c-37.333 0 -74.166 6 -110.499 18s-75.5 33.333 -117.5 64
c-44.667 -29.333 -106.334 -50.333 -185.001 -63s-160.667 -19 -246 -19h-252v457h247c-32 35.333 -57.333 64.5 -76 87.5s-28.667 35.833 -30 38.5l-43 55v69c0 52.667 5.66699 98.667 17 138s25.333 73 42 101s33.334 51 50.001 69c18 20.667 41.833 41 71.5 61
s65.834 36.667 108.501 50s93 20 151 20h292z" />
    <glyph glyph-name="uni063A.fina" unicode="&#x63a;" horiz-adv-x="1422" arabic-form="final" 
d="M945 1082c76 0 147.997 -19.998 215.997 -59.998c64 -40 113.667 -92.333 149 -157c29.333 -57.333 44 -116.333 44 -177c0 -74 -22 -145 -66 -213c-18.667 -28 -40.667 -54.667 -66 -80h225v-457h-364c-75.333 0 -142.833 15.167 -202.5 45.5
s-108.834 72.166 -147.501 125.499c-73.333 -33.333 -134.333 -69 -183 -107c-46.667 -34.667 -70 -80.667 -70 -138c0 -56.667 20.167 -105.667 60.5 -147s87.833 -62 142.5 -62h593l2 -454h-593c-82.667 0 -162.667 16.667 -240 50c-73.333 32 -138 76.667 -194 134
s-99.333 122.666 -130 195.999c-19.333 51.333 -32.666 101 -39.999 149s-11 92.667 -11 134c0 64.667 8.83301 122.334 26.5 173.001s39.834 95 66.501 133s54.667 70.333 84 97s56.5 48.167 81.5 64.5s44.167 27.833 57.5 34.5
c4.66699 3.33301 8.33398 5.66602 11.001 6.99902l-37 32l-86 73l-72 156c0 36 5.16699 78.167 15.5 126.5s31.5 96.833 63.5 145.5c84.667 117.333 203.334 176 356.001 176h308zM791.997 511.002c16.667 12 37.999 30.832 63.999 56.499s51.167 51.834 75.5 78.501
s41.5 48 51.5 64h-384c4.66699 -8 16.334 -21.833 35.001 -41.5l62.5 -64.5l62 -61.5c18.333 -17.667 29.5 -28.167 33.5 -31.5zM1011 1419l-234 -233l-233 233l233 234z" />
    <glyph glyph-name="uni063A.init" unicode="&#x63a;" horiz-adv-x="1200" arabic-form="initial" 
d="M649 1065c52 0 104.167 -6.66797 156.5 -20.001s99.833 -28.666 142.5 -45.999s77 -32.666 103 -45.999l39 -20l-177 -351l-42.5 18.5c-28.333 12.333 -62 24.666 -101 36.999s-75.833 19.5 -110.5 21.5h-5c-37.333 0 -69.333 -11.333 -96 -34s-40 -50.334 -40 -83.001
c0 -36 16 -64.167 48 -84.5s74 -35.166 126 -44.499s109.333 -15.333 172 -18h10c6.66699 0 14.5 -0.166992 23.5 -0.5s17.5 -0.5 25.5 -0.5h16h128v-457h-1092v458h155c-14.667 47.333 -22 96.333 -22 147c0 62 11 124 33 186s55.333 118.167 100 168.5s101 91 169 122
s147.667 46.5 239 46.5zM858 1424l-234 -233l-233 233l233 234z" />
    <glyph glyph-name="uni063A.medi" unicode="&#x63a;" horiz-adv-x="1290" arabic-form="medial" 
d="M663 511c16 12 37.166 30.832 63.499 56.499s51.5 51.834 75.5 78.501s41.333 48 52 64h-384c4.66699 -8 16.334 -21.833 35.001 -41.5l62.5 -64.5l62 -61.5c18.333 -17.667 29.5 -28.167 33.5 -31.5zM804.999 1084c80 0 155.331 -21.332 225.998 -63.999
c69.333 -44 121 -101.333 155 -172c24 -54.667 36 -108.334 36 -161.001c0 -84 -30.667 -165.333 -92 -244c-9.33301 -10.667 -18 -21.334 -26 -32.001c-4.66699 -5.33301 -9 -10.666 -13 -15.999h224v-457h-429c-37.333 0 -74.166 6 -110.499 18s-75.5 33.333 -117.5 64
c-44.667 -29.333 -106.334 -50.333 -185.001 -63s-160.667 -19 -246 -19h-252v457h247c-32 35.333 -57.333 64.5 -76 87.5s-28.667 35.833 -30 38.5l-43 55v69c0 52.667 5.66699 98.667 17 138s25.333 73 42 101s33.334 51 50.001 69c18 20.667 41.833 41 71.5 61
s65.834 36.667 108.501 50s93 20 151 20h292zM904.997 1422l-234 -233l-233 233l233 234z" />
    <glyph glyph-name="uni0641.fina" unicode="&#x641;" horiz-adv-x="2198" arabic-form="final" 
d="M147 800l393.001 -116l-14.5 -60l-32.5 -139c-4.66699 -17.333 -7 -32.666 -7 -45.999s3.83301 -24 11.5 -32s22.167 -12 43.5 -12h556c-10 42 -15 86 -15 132c0 148 49 276 147 384c100 108 226 162 378 162c151.333 0 277 -54 377 -162c98 -108 147 -236 147 -384
c0 -46 -5 -90 -15 -132h107v-457h-201c-74.667 0 -143.334 3.83301 -206.001 11.5s-132.334 20.5 -209.001 38.5c-62.667 -18 -136.667 -30.833 -222 -38.5s-212 -11.5 -380 -11.5c-91.333 0 -199.666 0.666992 -324.999 2s-212.333 5.33301 -261 12
c-114.667 18 -202 73.667 -262 167c-26 38 -45.167 84.833 -57.5 140.5s-18.5 113.834 -18.5 174.501c0 33.333 2 66.666 6 99.999c16 104 35.667 190.667 59 260c0 1.33301 0.333008 2.66602 1 3.99902v2zM1607 405c4.66699 0.666992 13.834 3.50098 27.501 8.50098
s28.834 12.5 45.501 22.5s31.167 23.5 43.5 40.5s18.5 37.833 18.5 62.5c0 8 -1.66699 20.167 -5 36.5s-9.83301 32.833 -19.5 49.5s-23.334 31 -41.001 43s-40.834 18 -69.501 18s-52 -6 -70 -18s-31.667 -26.333 -41 -43s-15.666 -33.167 -18.999 -49.5s-5 -28.5 -5 -36.5
c0 -25.333 6.16699 -46.5 18.5 -63.5s26.666 -30.5 42.999 -40.5s31.5 -17.333 45.5 -22s23.333 -7.33398 28 -8.00098zM1840 1417l-234 -233l-233 233l233 234z" />
    <glyph glyph-name="uni0641.init" unicode="&#x641;" horiz-adv-x="1159" arabic-form="initial" 
d="M1076 429c0 -94 -23.167 -178.001 -69.5 -252.001s-114.166 -132.333 -203.499 -175s-198 -64 -326 -64h-486v457h95c-2.66699 37.333 -4 72.333 -4 105c0 111.333 16 203.666 48 276.999s72.5 131.333 121.5 174s101.167 72.834 156.5 90.501s106.666 26.5 153.999 26.5
c143.333 0 266.333 -54 369 -162c96.667 -109.333 145 -244.666 145 -405.999v-71zM565 637.999c-32.667 0 -60 -10.666 -82 -31.999s-33 -47.333 -33 -78c0 -16.667 1.83301 -32.334 5.5 -47.001s11 -26.5 22 -35.5s27.833 -13.5 50.5 -13.5h155v96
c0 31.333 -11.167 57.5 -33.5 78.5s-50.5 31.5 -84.5 31.5zM800 1426l-234 -233l-233 233l233 234z" />
    <glyph glyph-name="uni0641.medi" unicode="&#x641;" horiz-adv-x="1222" arabic-form="medial" 
d="M1124 395h122.003v-457h-216c-74.667 0 -143.334 3.83301 -206.001 11.5s-132.334 20.5 -209.001 38.5c-66.667 -18 -133.834 -30.833 -201.501 -38.5s-139.167 -11.5 -214.5 -11.5h-219v457h125c-10 42 -15 86 -15 132c0 148 49 276 147 384c100 108 226 162 378 162
c151.333 0 277 -54 377 -162c98 -108 147 -236 147 -384c0 -46 -5 -90 -15 -132zM615.003 405c4.66699 0.666992 13.834 3.50098 27.501 8.50098s28.834 12.5 45.501 22.5s31.167 23.5 43.5 40.5s18.5 37.833 18.5 62.5c0 8 -1.66699 20.167 -5 36.5
s-9.83301 32.833 -19.5 49.5s-23.334 31 -41.001 43s-40.834 18 -69.501 18s-52 -6 -70 -18s-31.667 -26.333 -41 -43s-15.666 -33.167 -18.999 -49.5s-5 -28.5 -5 -36.5c0 -25.333 6.16699 -46.5 18.5 -63.5s26.666 -30.5 42.999 -40.5s31.5 -17.333 45.5 -22
s23.333 -7.33398 28 -8.00098zM848.003 1422l-234 -233l-233 233l233 234z" />
    <glyph glyph-name="uni0642.fina" unicode="&#x642;" horiz-adv-x="1692" arabic-form="final" 
d="M1127 983c143.333 0 266.33 -54.002 368.997 -162.002c96.667 -109.333 145 -244.666 145 -405.999v-20h76v-457h-79c-1.33301 -26 -3.5 -49 -6.5 -69s-9.16699 -47.333 -18.5 -82c-24.667 -83.333 -65.667 -154.333 -123 -213
c-111.333 -115.333 -287.666 -173 -528.999 -173h-196c-132.667 0 -249.5 23.833 -350.5 71.5s-180.833 116.834 -239.5 207.501c-32 52 -56.167 113.333 -72.5 184s-24.5 141.667 -24.5 213c0 19.333 0.666992 38.333 2 57c9.33301 150 56 318.667 140 506l373 -168
c-63.333 -141.333 -98.333 -262.333 -105 -363c-0.666992 -9.33301 -1 -18.333 -1 -27c0 -56 10.667 -100.333 32 -133c18 -26 41.667 -45.667 71 -59s60 -22 92 -26s59.667 -6 83 -6h196c77.333 0 134.5 3.5 171.5 10.5s61.667 16.5 74 28.5s18.833 25.667 19.5 41h-79
c-87.333 0 -168.166 19 -242.499 57s-133.833 92.5 -178.5 163.5s-67 156.5 -67 256.5c0 111.333 15.333 203.5 46 276.5s69.834 131 117.501 174s98.5 73.333 152.5 91s104.667 26.5 152 26.5zM1093 394.998l153.999 0.00195312v95c0 31.333 -11.167 57.5 -33.5 78.5
s-50.166 31.5 -83.499 31.5s-60.833 -10.667 -82.5 -32s-32.5 -47.333 -32.5 -78c0 -16.667 1.83301 -32.334 5.5 -47.001s11 -26.334 22 -35.001s27.833 -13 50.5 -13zM1103 1310l-220 -219l-219 219l219 220zM1572 1310l-220 -219l-219 219l219 220z" />
    <glyph glyph-name="uni0642.init" unicode="&#x642;" horiz-adv-x="1159" arabic-form="initial" 
d="M1067 429c0 -94 -23.167 -178.001 -69.5 -252.001s-114.166 -132.333 -203.499 -175s-198 -64 -326 -64h-486v457h95c-2.66699 37.333 -4 72.333 -4 105c0 111.333 16 203.666 48 276.999s72.5 131.333 121.5 174s101.167 72.834 156.5 90.501s106.666 26.5 153.999 26.5
c143.333 0 266.333 -54 369 -162c96.667 -109.333 145 -244.666 145 -405.999v-71zM556 637.999c-32.667 0 -60 -10.666 -82 -31.999s-33 -47.333 -33 -78c0 -16.667 1.83301 -32.334 5.5 -47.001s11 -26.5 22 -35.5s27.833 -13.5 50.5 -13.5h155v96
c0 31.333 -11.167 57.5 -33.5 78.5s-50.5 31.5 -84.5 31.5zM545 1413l-220 -219l-219 219l219 220zM1014 1413l-220 -219l-219 219l219 220z" />
    <glyph glyph-name="uni0642.medi" unicode="&#x642;" horiz-adv-x="1222" arabic-form="medial" 
d="M1124 395h122.003v-457h-216c-74.667 0 -143.334 3.83301 -206.001 11.5s-132.334 20.5 -209.001 38.5c-66.667 -18 -133.834 -30.833 -201.501 -38.5s-139.167 -11.5 -214.5 -11.5h-219v457h125c-10 42 -15 86 -15 132c0 148 49 276 147 384c100 108 226 162 378 162
c151.333 0 277 -54 377 -162c98 -108 147 -236 147 -384c0 -46 -5 -90 -15 -132zM615.003 405c4.66699 0.666992 13.834 3.50098 27.501 8.50098s28.834 12.5 45.501 22.5s31.167 23.5 43.5 40.5s18.5 37.833 18.5 62.5c0 8 -1.66699 20.167 -5 36.5
s-9.83301 32.833 -19.5 49.5s-23.334 31 -41.001 43s-40.834 18 -69.501 18s-52 -6 -70 -18s-31.667 -26.333 -41 -43s-15.666 -33.167 -18.999 -49.5s-5 -28.5 -5 -36.5c0 -25.333 6.16699 -46.5 18.5 -63.5s26.666 -30.5 42.999 -40.5s31.5 -17.333 45.5 -22
s23.333 -7.33398 28 -8.00098zM593.003 1412l-220 -219l-219 219l219 220zM1062 1412l-220 -219l-219 219l219 220z" />
    <glyph glyph-name="uni0643.fina" unicode="&#x643;" horiz-adv-x="2157" arabic-form="final" 
d="M1979 1428l-0.000976562 -960.002c1.33301 -24.667 11 -43 29 -55s47.333 -18 88 -18h86v-458c-136.667 0 -232 3.5 -286 10.5s-95 24.5 -123 52.5c-49.333 -24.667 -102 -39.5 -158 -44.5s-113.667 -7.5 -173 -7.5h-656c-91.333 0 -165.333 0.666992 -222 2
s-105 5.33301 -145 12c-114.667 18 -202 73.333 -262 166c-25.333 38.667 -44.166 86.334 -56.499 143.001s-18.5 115.334 -18.5 176.001c0 32.667 1.66699 65 5 97c16 104 35.667 190.667 59 260c0 1.33301 0.333008 2.66602 1 3.99902v2l393 -116l-14.5 -60l-32.5 -139
c-4.66699 -17.333 -7 -32.666 -7 -45.999s3.83301 -24 11.5 -32s22.167 -12 43.5 -12h912c46 0 77 9.33301 93 28s24 47 24 85v910h409zM1026 1165l94 -158.002c-72.667 -44.667 -118.667 -78 -138 -100h39c13.333 0.666992 27 1 41 1c33.333 0 67 -2.33301 101 -7
c43.333 -8.66699 77.833 -27.5 103.5 -56.5s38.5 -62.5 38.5 -100.5c0 -31.333 -10.333 -63.666 -31 -96.999c-28.667 -44 -76.667 -79 -144 -105c-63.333 -24 -143.333 -40.667 -240 -50l-17 183c72.667 7.33301 143 23.333 211 48c6 2 9 4 9 6s-5 3.16699 -15 3.5
s-22.333 0.5 -37 0.5h-55c-30.667 0 -57 1.33301 -79 4c-41.333 7.33301 -73.833 23.833 -97.5 49.5s-35.5 56.167 -35.5 91.5c0 25.333 6.66699 52.333 20 81c14 30 37.333 60 70 90c38.667 36.667 92.667 75.334 162 116.001z" />
    <glyph glyph-name="uni0643.init" unicode="&#x643;" horiz-adv-x="1207" arabic-form="initial" 
d="M120 872l42 347.001l875 399l170 -373l-599 -274l52 -53l146 -149l29 -30c37.333 -38.667 69.333 -73.834 96 -105.501s48.334 -64.834 65.001 -99.501c22 -47.333 36 -90.666 42 -129.999c4 -29.333 6 -57.333 6 -84c0 -10 -0.666992 -26.333 -2 -49
s-10.333 -56 -27 -100c-12.667 -32.667 -36.667 -67.167 -72 -103.5s-87 -66.833 -155 -91.5c-74 -25.333 -168 -38 -282 -38h-531v457h531c20 0 43.667 0.5 71 1.5s47.666 2.16699 60.999 3.5c-62 72 -130.667 142.167 -206 210.5s-142.5 126.333 -201.5 174
s-94.833 76.167 -107.5 85.5z" />
    <glyph glyph-name="uni0643.medi" unicode="&#x643;" horiz-adv-x="1252" arabic-form="medial" 
d="M923 589c47.333 -63.333 84.999 -108.832 112.999 -136.499s57.667 -44.167 89 -49.5s77.666 -8 138.999 -8v-458c-75.333 0 -144.833 5 -208.5 15s-124.167 31 -181.5 63c-40 23.333 -77.333 51.333 -112 84c-36.667 -38.667 -80.667 -71.667 -132 -99
c-83.333 -42 -172.666 -63 -267.999 -63h-387v458h357c28.667 0 58.334 1.66699 89.001 5s57 7.5 79 12.5s34.667 10.5 38 16.5l-37.5 51.5l-87.5 117.5l-240 289l71 311l865 419l178 -368l-634 -308c7.33301 -8.66699 25.5 -31.834 54.5 -69.501l102 -133z" />
    <glyph glyph-name="uni0644.fina" unicode="&#x644;" horiz-adv-x="1501" arabic-form="final" 
d="M1464 395h62v-459h-62c-26 0 -51 1.66699 -75 5c0 -56 -10.167 -117.167 -30.5 -183.5s-56.5 -126.5 -108.5 -180.5c-60 -62 -137.667 -107.667 -233 -137c-84 -25.333 -186 -38 -306 -38c-117.333 0 -222.5 24.333 -315.5 73s-169.167 116 -228.5 202
c-28.667 40.667 -52.334 90.5 -71.001 149.5s-28 124.5 -28 196.5c0 24 1.33301 48.667 4 74c6.66699 68 19 139 37 213s45 149.667 81 227l371 -174c-49.333 -105.333 -75.666 -199 -78.999 -281v-15c0 -52 10 -94.333 30 -127c16 -24.667 36.167 -43 60.5 -55
s49 -20 74 -24s46.5 -6 64.5 -6c72 0 127.5 5.16699 166.5 15.5s65.833 29.5 80.5 57.5s22 68.667 22 122v1377h410v-953c0 -52 24.667 -78.333 74 -79z" />
    <glyph glyph-name="uni0644.init" unicode="&#x644;" horiz-adv-x="669" arabic-form="initial" 
d="M568 1427l1 -1000v-1c0 -13.333 -2.33301 -38.5 -7 -75.5s-14 -75.5 -28 -115.5c-25.333 -63.333 -62.333 -118 -111 -164c-98 -88.667 -220.667 -133 -368 -133h-79l-1 457h79c40 0 69.333 7.33301 88 22c6.66699 6.66699 11.167 15.5 13.5 26.5s3.5 21.167 3.5 30.5
v953h409z" />
    <glyph glyph-name="uni0644.medi" unicode="&#x644;" horiz-adv-x="634" arabic-form="medial" 
d="M569 458c0 -10 2.33105 -19.833 6.99805 -29.5s13.334 -17.667 26.001 -24s31.667 -9.5 57 -9.5v-458c-68 0 -131 11 -189 33c-38 14 -73.333 32 -106 54c-87.333 -58 -190.666 -87 -309.999 -87h-79v458h79c36 0 62.5 5.16699 79.5 15.5s25.5 31.5 25.5 63.5v953h410
v-969z" />
    <glyph glyph-name="uni0645.fina" unicode="&#x645;" horiz-adv-x="1542" arabic-form="final" 
d="M1541 395l25.9971 0.000976562v-458h-26c-43.333 0 -84.5 6.16699 -123.5 18.5s-71.833 37.166 -98.5 74.499c-40.667 -41.333 -85.167 -73 -133.5 -95s-96.166 -33 -143.499 -33c-25.333 0 -49.666 3.33301 -72.999 10c-66.667 19.333 -137.5 44.833 -212.5 76.5
s-140 60.667 -195 87l-82.5 39.5c0 -137.333 0.166992 -275.666 0.5 -414.999s0.5 -232.666 0.5 -279.999v-19h-410v1115l256 147l20 -11l46 -25.5l48 -26.5c14.667 -8 24 -13.333 28 -16c5.33301 17.333 15.5 41.666 30.5 72.999s35.167 65.166 60.5 101.499
s56.5 71 93.5 104s80.167 60.333 129.5 82s105.333 32.5 168 32.5c88 0 162.333 -15.5 223 -46.5s110.334 -70.5 149.001 -118.5s68.334 -99 89.001 -153s34.667 -104.667 42 -152c8.66699 -33.333 21.167 -60.333 37.5 -81s33.166 -31 50.499 -31zM1002 317.001
c10.667 -4.66699 20.6709 -7.00098 30.0039 -7.00098c21.333 0 37.166 10.333 47.499 31s15.5 45.667 15.5 75c0 12.667 -1 26 -3 40c-6 38.667 -19.833 70.667 -41.5 96s-48.834 38 -81.501 38c-24.667 0 -45.834 -8.16699 -63.501 -24.5s-33.334 -38.666 -47.001 -66.999
s-27.167 -60.833 -40.5 -97.5l27.5 -13l69.5 -32z" />
    <glyph glyph-name="uni0645.init" unicode="&#x645;" horiz-adv-x="1236" arabic-form="initial" 
d="M764 289c4 0 6.99609 0.668945 8.99609 2.00195c10.667 5.33301 20.334 19.166 29.001 41.499s13 46.833 13 73.5c0 9.33301 -0.666992 18.666 -2 27.999c-3.33301 21.333 -11 42.833 -23 64.5s-27.5 40.167 -46.5 55.5s-40.5 23 -64.5 23s-44.5 -12 -61.5 -36
s-30.833 -50.5 -41.5 -79.5s-18 -52.833 -22 -71.5c16.667 -14 38.834 -28.833 66.501 -44.5s55.334 -29 83.001 -40s47.834 -16.5 60.501 -16.5zM680.996 974.002c70 0 131.334 -12.335 184.001 -37.002s97.667 -56.667 135 -96s67.833 -82.166 91.5 -128.499
s41.5 -91.833 53.5 -136.5s18.667 -84.334 20 -119.001c0.666992 -16 1 -31.667 1 -47c0 -80.667 -9.16699 -149.334 -27.5 -206.001s-42 -103.667 -71 -141s-60.167 -66.833 -93.5 -88.5s-65.833 -37.167 -97.5 -46.5s-59.167 -14.333 -82.5 -15
c-8.66699 -0.666992 -18 -1 -28 -1c-65.333 0 -126.833 7.16699 -184.5 21.5s-108.667 30.833 -153 49.5s-79.5 35.334 -105.5 50.001c-28 -27.333 -69 -50 -123 -68s-105.667 -27 -155 -27h-70v457h40c66 0 108.667 11.333 128 34s37.666 66.334 54.999 131.001
c5.33301 16 11 34 17 54c4.66699 16.667 13.667 39.334 27 68.001s31.833 59.667 55.5 93s53 65 88 95s77 54.833 126 74.5s105.5 29.5 169.5 29.5z" />
    <glyph glyph-name="uni0645.medi" unicode="&#x645;" horiz-adv-x="1209" arabic-form="medial" 
d="M1203 -63c-27.333 0 -56.666 8 -87.999 24s-61.333 37 -90 63c-42 -40 -84.833 -68.333 -128.5 -85s-81.167 -25.334 -112.5 -26.001c-8.66699 -0.666992 -18 -1 -28 -1c-57.333 0 -111.833 8 -163.5 24s-98.5 34.5 -140.5 55.5s-77.667 40.167 -107 57.5l-32 18
c-30 -39.333 -73 -70.833 -129 -94.5s-110 -35.5 -162 -35.5h-47v458h30c66 0 108.667 11.333 128 34s37.666 66.334 54.999 131.001c5.33301 16 11 34 17 54c4.66699 16.667 13.667 39.334 27 68.001s31.833 59.5 55.5 92.5s53 64.5 88 94.5s77 54.833 126 74.5
s105.5 29.5 169.5 29.5c68.667 0 129.334 -11.833 182.001 -35.5s98.167 -54.667 136.5 -93s69.666 -80 93.999 -125s42.333 -89.833 54 -134.5s17.5 -84.334 17.5 -119.001c0 -25.333 7.5 -43.5 22.5 -54.5s32.167 -16.5 51.5 -16.5h5v-458h-31zM754 289
c4 0 6.99609 0.668945 8.99609 2.00195c10.667 5.33301 20.334 19.166 29.001 41.499s13 46.833 13 73.5c0 9.33301 -0.666992 18.666 -2 27.999c-3.33301 21.333 -11 42.833 -23 64.5s-27.5 40.167 -46.5 55.5s-40.5 23 -64.5 23s-44.5 -12 -61.5 -36
s-30.833 -50.5 -41.5 -79.5s-18 -52.833 -22 -71.5c16.667 -14.667 38.834 -29.667 66.501 -45s55.334 -28.5 83.001 -39.5s47.834 -16.5 60.501 -16.5z" />
    <glyph glyph-name="uni0646.fina" unicode="&#x646;" horiz-adv-x="1697" arabic-form="final" 
d="M1572 474c0 -52.667 25.0029 -79 75.0029 -79h75v-456h-75c-26.667 0 -52.334 1.66699 -77.001 5c-0.666992 -65.333 -14.334 -129 -41.001 -191c-28.667 -70.667 -66.834 -129.167 -114.501 -175.5s-101 -82.333 -160 -108s-119.833 -43.5 -182.5 -53.5
s-122.334 -15 -179.001 -15h-118c-113.333 0 -210.5 15 -291.5 45s-148 70.167 -201 120.5s-95.167 106.5 -126.5 168.5s-51.333 130.333 -60 205c-5.33301 48.667 -8 93 -8 133c0 21.333 0.666992 41.666 2 60.999c10 150 56.667 318.667 140 506l374 -168
c-64 -141.333 -99 -262.333 -105 -363v-5c-0.666992 -9.33301 -1 -19.666 -1 -30.999s0.666992 -27.333 2 -48s10 -44.5 26 -71.5s43.333 -49.667 82 -68s94.334 -27.5 167.001 -27.5h118c68 0 120.5 6.16699 157.5 18.5s63.5 28 79.5 47s25.667 39.167 29 60.5
c2.66699 17.333 4 34 4 50v679h409v-239zM1082 799l-234 -233l-233 233l233 234z" />
    <glyph glyph-name="uni0646.init" unicode="&#x646;" horiz-adv-x="754" arabic-form="initial" 
d="M629 849l16.998 -91.4961l39 -212.5c10 -52 15 -100 15 -144c0 -22.667 -1.33301 -44.334 -4 -65.001c-5.33301 -40.667 -15.166 -82.834 -29.499 -126.501s-33.166 -79.834 -56.499 -108.501c-46.667 -60.667 -108.334 -105.667 -185.001 -135
c-56.667 -18 -123.667 -27 -201 -27h-249v456h249c24.667 0 41.334 3.16699 50.001 9.5s13 16.166 13 29.499c0 10 -1.33301 21.667 -4 35l-50 260zM593.998 1223l-234 -233l-233 233l233 234z" />
    <glyph glyph-name="uni0646.medi" unicode="&#x646;" horiz-adv-x="770" arabic-form="medial" 
d="M681 713l0.000976562 -269.999c0 -16.667 3.66699 -28.834 11 -36.501s25.666 -11.5 54.999 -11.5h48v-456h-40c-102 0 -194.667 25.667 -278 77c-27.333 -16 -56 -29.667 -86 -41c-66.667 -24 -142.667 -36 -228 -36h-188v456h217c32.667 0 54 3.5 64 10.5
s15 19.5 15 37.5v270h410zM638.001 1155l-234 -233l-233 233l233 234z" />
    <glyph glyph-name="uni0647.fina" unicode="&#x647;" horiz-adv-x="1389" arabic-form="final" 
d="M571 435c14 0 26.999 1.83105 38.999 5.49805s21.667 7.5 29 11.5c22.667 12.667 38.5 28.334 47.5 47.001s13.5 39 13.5 61c0 18.667 -2.16699 38.334 -6.5 59.001s-9.16602 41 -14.499 61c-3.33301 12 -6.33301 23.667 -9 35c-54 -22.667 -93.167 -40 -117.5 -52
s-41.5 -23.333 -51.5 -34c-26.667 -28 -40 -56.667 -40 -86c0 -26.667 9.66699 -51 29 -73c12 -12.667 25 -21.667 39 -27s28 -8 42 -8zM960.999 1233l80.9971 -351l13 -60c12.667 -59.333 24.667 -112.833 36 -160.5l41 -166.5c4.66699 -22 12.667 -40.333 24 -55
s31.833 -25.834 61.5 -33.501s75.5 -11.5 137.5 -11.5h59v-457h-59c-74.667 0 -139.167 6.5 -193.5 19.5s-100.166 29 -137.499 48s-67.5 38.167 -90.5 57.5s-40.167 36 -51.5 50c-52.667 -29.333 -104.667 -48.833 -156 -58.5s-105.666 -14.5 -162.999 -14.5
c-64.667 0 -128.5 12.5 -191.5 37.5s-118.333 66.5 -166 124.5s-82.167 136.333 -103.5 235c-8 38.667 -12 78.334 -12 119.001c0 50 7.66699 100.667 23 152s41.333 100.833 78 148.5s86.334 91 149.001 130s140.667 71.833 234 98.5l-13 57z" />
    <glyph glyph-name="uni0647.init" unicode="&#x647;" horiz-adv-x="1811" arabic-form="initial" 
d="M1471 862c122.667 -123.333 201.667 -237.002 237 -341.002c20 -60 30 -115.667 30 -167c0 -37.333 -5.33301 -72.666 -16 -105.999c-15.333 -54 -45 -106.167 -89 -156.5s-106.667 -90.5 -188 -120.5c-68.667 -26 -153.667 -39 -255 -39c-18 0 -36.333 0.333008 -55 1
c-165.333 10 -293.333 21.667 -384 35l-136 19c-66.667 -18 -134 -30.833 -202 -38.5s-139.333 -11.5 -214 -11.5h-219l1 458h125c-10 42 -15.333 85.667 -16 131c0 148 49 276 147 384c100 108 226 162 378 162c114 0 214 -31.333 300 -94l213 214
c2 -1.33301 20.333 -18.666 55 -51.999l130 -125.5zM615 403.998c4 0.666992 13.001 3.5 27.001 8.5s29.333 12.667 46 23s31.167 23.833 43.5 40.5s18.5 37.334 18.5 62.001c0 8.66699 -1.66699 21 -5 37s-9.83301 32.333 -19.5 49s-23.334 31 -41.001 43
s-40.834 18 -69.501 18c-29.333 0 -52.833 -6 -70.5 -18s-31.167 -26.333 -40.5 -43s-15.666 -33 -18.999 -49s-5 -28.333 -5 -37c0 -25.333 6 -46.5 18 -63.5s26.333 -30.5 43 -40.5s32 -17.333 46 -22s23.333 -7.33398 28 -8.00098zM1315 416.998
c0.666992 2 1.00098 3.66602 1.00098 4.99902c0 12 -8.16699 28.333 -24.5 49s-37 42.334 -62 65.001s-47.5 42 -67.5 58l-30 24c4.66699 -30 7 -60.667 7 -92c0 -46 -5 -90 -15 -132l-4 -12c28 -9.33301 55 -14 81 -14c14 0 34.167 2.33301 60.5 7s44.166 18.667 53.499 42
z" />
    <glyph glyph-name="uni0647.medi" unicode="&#x647;" horiz-adv-x="1264" arabic-form="medial" 
d="M679 -197c-8.66699 18.667 -14.668 38.3311 -18.001 58.998s-5 40.667 -5 60c0 26.667 2 51 6 73s7.83301 39.833 11.5 53.5l5.5 20.5c-7.33301 -2 -21.666 -5.33301 -42.999 -10s-43 -9.16699 -65 -13.5s-37.333 -7.16602 -46 -8.49902
c7.33301 -48 27.5 -93.167 60.5 -135.5s64.167 -75.166 93.5 -98.499zM524.999 411.997c53.333 7.33301 100.168 22.668 140.501 46.001s61.833 46.666 64.5 69.999v5c0 29.333 -6.66699 50.166 -20 62.499s-28.333 18.5 -45 18.5h-3c-21.333 0 -40 -7.66699 -56 -23
s-29.333 -34 -40 -56s-19.334 -44.167 -26.001 -66.5s-11.667 -41.166 -15 -56.499zM665.001 996.999c88 0 160.499 -13.8301 217.499 -41.4971s102.167 -62.5 135.5 -104.5s58 -85.667 74 -131s26.167 -87 30.5 -125s6.5 -65.333 6.5 -82c0 -40.667 -5.33301 -80 -16 -118
h176v-457h-173c-26.667 0 -47.834 -10.333 -63.501 -31s-23.5 -45.334 -23.5 -74.001c0 -20.667 4.66699 -41.667 14 -63s24.333 -40.666 45 -57.999l-123 -317c-35.333 -4.66699 -70.666 -7 -105.999 -7c-74 0 -145.667 11 -215 33c-91.333 32.667 -176.333 81 -255 145
c-110 82.667 -197.333 207 -262 373c-24.667 -0.666992 -46.5 -1 -65.5 -1h-61.5h-25v457h133c0 11.333 3 33.833 9 67.5s16.333 73.167 31 118.5s35.334 92.166 62.001 140.499s60.5 93.166 101.5 134.499s90.667 75.166 149 101.499s126.5 39.5 204.5 39.5z" />
    <glyph glyph-name="uni0648.fina" unicode="&#x648;" horiz-adv-x="1102" arabic-form="final" 
d="M526 394l155 0.000976562v96c0 31.333 -11.333 57.5 -34 78.5s-50.667 31.5 -84 31.5c-32.667 0 -60 -10.667 -82 -32s-33 -47.333 -33 -78c0 -16.667 1.83301 -32.334 5.5 -47.001s11 -26.5 22 -35.5s27.833 -13.5 50.5 -13.5zM1074 395.001l53.002 -0.00292969v-457
h-60c-6 -50 -17 -95.333 -33 -136c-26.667 -67.333 -59.834 -124 -99.501 -170s-79.834 -84.667 -120.501 -116c-24 -16.667 -56.833 -34.167 -98.5 -52.5s-101.167 -33.5 -178.5 -45.5c-67.333 -10.667 -154.666 -16 -261.999 -16h-109v454h121c82 0 150 2.33301 204 7
s92.667 13.334 116 26.001s36.333 28.667 39 48h-86c-88.667 2.66699 -169.167 22.834 -241.5 60.501s-130.166 91.667 -173.499 162s-65 155.5 -65 255.5c0 111.333 15.833 203.5 47.5 276.5s72.167 131 121.5 174s101.666 73.333 156.999 91s106.666 26.5 153.999 26.5
c143.333 0 266.333 -54 369 -162c96.667 -109.333 145 -244.666 145 -405.999v-20z" />
    <glyph glyph-name="uni0649.fina" unicode="&#x649;" horiz-adv-x="1856" arabic-form="final" 
d="M226 700l366.998 -177.002c-73.333 -152 -110 -282 -110 -390c0 -86.667 23 -154.5 69 -203.5s114.667 -73.5 206 -73.5h266c50.667 0 93.334 1.66699 128.001 5s63.334 7.5 86.001 12.5s40.167 10 52.5 15s20.833 9.16699 25.5 12.5l7 5
c-39.333 18.667 -83.833 33 -133.5 43s-103.5 18.667 -161.5 26c-20 2.66699 -40.333 5.66699 -61 9v410h914v-456h-183c3.33301 -19.333 5 -38.666 5 -57.999c0 -88.667 -16.167 -162 -48.5 -220s-74.5 -104.333 -126.5 -139s-108.333 -60.5 -169 -77.5
s-120.5 -28 -179.5 -33s-110.833 -7.5 -155.5 -7.5h-266c-120 0 -223.333 21 -310 63s-158 97.833 -214 167.5s-97.333 147.834 -124 234.501s-40 175 -40 265c0 80.667 13.5 172 40.5 274s65.5 199.667 115.5 293z" />
    <glyph glyph-name="uni064A.fina" unicode="&#x64a;" horiz-adv-x="1856" arabic-form="final" 
d="M226 700l366.998 -177.002c-73.333 -152 -110 -282 -110 -390c0 -86.667 23 -154.5 69 -203.5s114.667 -73.5 206 -73.5h266c50.667 0 93.334 1.66699 128.001 5s63.334 7.5 86.001 12.5s40.167 10 52.5 15s20.833 9.16699 25.5 12.5l7 5
c-39.333 18.667 -83.833 33 -133.5 43s-103.5 18.667 -161.5 26c-20 2.66699 -40.333 5.66699 -61 9v410h914v-456h-183c3.33301 -19.333 5 -38.666 5 -57.999c0 -88.667 -16.167 -162 -48.5 -220s-74.5 -104.333 -126.5 -139s-108.333 -60.5 -169 -77.5
s-120.5 -28 -179.5 -33s-110.833 -7.5 -155.5 -7.5h-266c-120 0 -223.333 21 -310 63s-158 97.833 -214 167.5s-97.333 147.834 -124 234.501s-40 175 -40 265c0 80.667 13.5 172 40.5 274s65.5 199.667 115.5 293zM692.998 -635.002l220 -219l-220 -220l-219 220z
M1162 -635.002l220 -219l-220 -220l-219 220z" />
    <glyph glyph-name="uni064A.init" unicode="&#x64a;" horiz-adv-x="923" arabic-form="initial" 
d="M794 849l16.998 -91.4961l39 -212.5c10 -52 15 -100 15 -144c0 -22.667 -1.33301 -44.334 -4 -65.001c-5.33301 -40.667 -15.166 -82.834 -29.499 -126.501s-33.166 -79.834 -56.499 -108.501c-46.667 -60.667 -108.334 -105.667 -185.001 -135
c-56.667 -18 -123.667 -27 -201 -27h-444v456h444c24.667 0 41.334 3.16699 50.001 9.5s13 16.166 13 29.499c0 10 -1.33301 21.667 -4 35l-50 260zM246.998 -178.996l220 -219l-220 -220l-219 220zM715.998 -178.996l220 -219l-220 -220l-219 220z" />
    <glyph glyph-name="uni064A.medi" unicode="&#x64a;" horiz-adv-x="1024" arabic-form="medial" 
d="M828 713l0.00195312 -269.999c0 -16.667 3.66699 -28.834 11 -36.501s25.666 -11.5 54.999 -11.5h155v-456h-147c-50.667 0 -99.667 7.33301 -147 22s-91 34.667 -131 60c-38.667 -30.667 -81.834 -52 -129.501 -64s-109.167 -18 -184.5 -18h-335v456h364
c32.667 0 54 3.5 64 10.5s15 19.5 15 37.5v270h410zM255.002 -182.999l220 -219l-220 -220l-219 220zM724.002 -182.999l220 -219l-220 -220l-219 220z" />
    <glyph glyph-name=".notdef" horiz-adv-x="1229" 
d="M102 -362v1806h1024v-1806h-1024zM217 -248h795v1577h-795v-1577z" />
    <glyph glyph-name="NULL" unicode="&#xfeff;" 
 />
    <glyph glyph-name="NULL" 
 />
    <glyph glyph-name="space" unicode=" " horiz-adv-x="696" 
 />
    <glyph glyph-name="space" unicode="&#xa0;" horiz-adv-x="696" 
 />
    <glyph glyph-name="exclam" unicode="!" horiz-adv-x="641" 
d="M504 286h-369l-58 1278h485zM564 -64l-234 -233l-233 233l233 234z" />
    <glyph glyph-name="quotedbl" unicode="&#x22;" horiz-adv-x="1016" 
d="M117 898l-27 642h352l-28 -642h-297zM601 898l-27 642h352l-28 -642h-297z" />
    <glyph glyph-name="numbersign" unicode="#" horiz-adv-x="1606" 
d="M1569 928h-313l-37 -316h275v-284h-310l-42 -328h-299l41 328h-270l-42 -328h-299l42 328h-278v284h313l37 316h-277v284h312l42 328h299l-41 -328h270l42 328h299l-42 -328h278v-284zM920 612l37 316h-271l-37 -316h271z" />
    <glyph glyph-name="dollar" unicode="$" horiz-adv-x="1423" 
d="M1377 466c0 -77.333 -18.6729 -149.829 -56.0059 -217.496s-93.833 -124.834 -169.5 -171.501s-170.5 -79 -284.5 -97v-244h-264v235c-232 20 -417.667 76 -557 168l143 321c70 -46 150 -82.833 240 -110.5s179.333 -41.5 268 -41.5c90.667 0 155.167 11.5 193.5 34.5
s57.5 53.167 57.5 90.5c0 32.667 -13.667 58.667 -41 78s-63.666 35.666 -108.999 48.999s-96 25.666 -152 36.999c-51.333 11.333 -103.666 24.166 -156.999 38.499s-104.666 32.333 -153.999 54s-93.833 49 -133.5 82s-71 74 -94 123s-34.5 107.833 -34.5 176.5
c0 80.667 19.333 155.5 58 224.5s97.334 126.833 176.001 173.5s177.334 77.667 296.001 93v242h264v-238c168.667 -13.333 317.334 -56.333 446.001 -129l-134 -324c-150 79.333 -292.333 119 -427 119c-60.667 0 -109.167 -6.16699 -145.5 -18.5s-62.5 -29 -78.5 -50
s-24 -44.5 -24 -70.5c0 -30.667 13.333 -55.334 40 -74.001s62.334 -34.167 107.001 -46.5s94.667 -24.166 150 -35.499c51.333 -10.667 103.666 -23 156.999 -37s105 -31.667 155 -53s94.833 -48.5 134.5 -81.5s71.167 -73.833 94.5 -122.5s35 -107.667 35 -177z" />
    <glyph glyph-name="percent" unicode="%" horiz-adv-x="1973" 
d="M442 706c-75.333 0 -142.666 17 -201.999 51s-106.166 82.833 -140.499 146.5s-51.5 140.167 -51.5 229.5c0 88.667 17.167 164.834 51.5 228.501s81.166 112.667 140.499 147s126.666 51.5 201.999 51.5c76.667 0 144.834 -17.167 204.501 -51.5
s106.5 -83.333 140.5 -147s51 -139.834 51 -228.501c0 -89.333 -17 -165.833 -51 -229.5s-80.833 -112.5 -140.5 -146.5s-127.834 -51 -204.501 -51zM301 0l1052 1540h317l-1052 -1540h-317zM442 915c37.333 0 68.333 16.833 93 50.5s37 89.5 37 167.5
s-12.333 133.833 -37 167.5s-55.667 50.5 -93 50.5c-23.333 0 -44.833 -7.33301 -64.5 -22s-35.5 -38 -47.5 -70s-18 -74 -18 -126s6 -94 18 -126s27.833 -55.333 47.5 -70s41.167 -22 64.5 -22zM1529 -20c-76 0 -143.667 17 -203 51s-106 82.833 -140 146.5
s-51 140.167 -51 229.5c0 88.667 17 164.834 51 228.501s80.667 112.667 140 147s127 51.5 203 51.5s143.833 -17.167 203.5 -51.5s106.667 -83.333 141 -147s51.5 -139.834 51.5 -228.501c0 -89.333 -17.167 -165.833 -51.5 -229.5s-81.333 -112.5 -141 -146.5
s-127.5 -51 -203.5 -51zM1529 189c36 0 66.667 16.833 92 50.5s38 89.5 38 167.5s-12.667 133.833 -38 167.5s-56 50.5 -92 50.5s-66.667 -16.833 -92 -50.5s-38 -89.5 -38 -167.5s12.667 -133.833 38 -167.5s56 -50.5 92 -50.5z" />
    </font>
</defs>
</svg>
