<?xml version="1.0" standalone="no"?>
<!DOCTYPE svg PUBLIC "-//W3C//DTD SVG 1.1//EN" "http://www.w3.org/Graphics/SVG/1.1/DTD/svg11.dtd" >
<svg>
<metadata>
Created by FontForge 20090914 at Sun Sep 22 22:59:05 2019
 By www-data
Copyright (c) 2019 by fontiran.com. All rights reserved.
</metadata>
<defs>
<font id="IRANYekan-Thin" horiz-adv-x="0" >
  <font-face 
    font-family="IRANYekan Thin"
    font-weight="100"
    font-stretch="normal"
    units-per-em="2200"
    panose-1="2 11 5 6 3 8 4 2 2 4"
    ascent="1760"
    descent="-440"
    x-height="1162"
    cap-height="1564"
    bbox="-442 -1087 3066 2690"
    underline-thickness="100"
    underline-position="-750"
    unicode-range="U+001D-U+FEFF"
  />
<missing-glyph horiz-adv-x="1229" 
d="M102 -362v1806h1024v-1806h-1024zM167 -298h895v1677h-895v-1677z" />
    <glyph glyph-name="allah" unicode="&#xfedf;&#xfee0;&#xfeea;" horiz-adv-x="2187" arabic-form="isolated" 
d="M2102 332c0 -19.333 -0.834961 -39.668 -2.50195 -61.001s-5.33398 -42.5 -11.001 -63.5s-13.667 -41.5 -24 -61.5s-24.166 -38.333 -41.499 -55c-16 -15.333 -33.333 -28.833 -52 -40.5s-40 -21.167 -64 -28.5s-51.333 -12.833 -82 -16.5s-66.334 -5.5 -107.001 -5.5
h-21c-27.333 0 -54.333 2.83301 -81 8.5s-51.667 14.334 -75 26.001s-44.166 26.667 -62.499 45s-32.833 40.166 -43.5 65.499c-12 -25.333 -26.167 -47 -42.5 -65s-36.833 -33 -61.5 -45s-54.167 -20.833 -88.5 -26.5s-75.166 -8.5 -122.499 -8.5
c-32 0 -64.833 2.16699 -98.5 6.5s-65.834 16.666 -96.501 36.999s-58.667 51.666 -84 93.999s-45.666 101.5 -60.999 177.5l-47.5 190.5l-37.5 149l-32 134c-10 43.667 -20.333 92.167 -31 145.5c-12.667 -2.66699 -28.167 -5.66699 -46.5 -9s-36.833 -7 -55.5 -11
l-53.5 -11c-17 -3.33301 -30.5 -6.33301 -40.5 -9c-86.667 -20 -149 -63.333 -187 -130c-18 -32 -30.333 -68 -37 -108c-5.33301 -30.667 -8 -62.667 -8 -96c0 -10 0.5 -28.667 1.5 -56s5.5 -64.166 13.5 -110.499s17.5 -91.666 28.5 -135.999s22.667 -86.666 35 -126.999
l34.5 -108.5l-59 -18c-19.333 60.667 -38.666 125.167 -57.999 193.5s-34.333 137.166 -45 206.499c-8.66699 55.333 -13 106 -13 152c0 25.333 2.33301 59.666 7 102.999s20.334 88.666 47.001 135.999c46.667 82 122 135 226 159c13.333 3.33301 32.333 7.5 57 12.5
l74 14.5l65 12.5c18.667 3.66699 29 5.5 31 5.5l36 -23l59 -251l25 -106.5l23.5 -98.5l23 -95l23.5 -95c14.667 -57.333 31.167 -103.666 49.5 -138.999s38.666 -62.666 60.999 -81.999s47.5 -32.166 75.5 -38.499s59.667 -9.5 95 -9.5c43.333 0 80.333 3.16699 111 9.5
s56.167 15.166 76.5 26.499s36.5 24.833 48.5 40.5s21.167 33.167 27.5 52.5s10.333 40 12 62s2.83398 45 3.50098 69v791l61 8v-797c0 -93.333 20.667 -160.333 62 -201s99.666 -61 174.999 -61h21c71.333 0 128.333 7.16699 171 21.5s75.167 33.833 97.5 58.5
s37 53.334 44 86.001s10.5 67.667 10.5 105l-35 944l62 12zM1399 1660v312l61 8v-306zM1692 1605c0.666992 -3.33301 2.99805 -12.501 6.99805 -27.501s8 -32.167 12 -51.5s7.33301 -39 10 -59c1.33301 -12 2 -22.667 2 -32c0 -8 -0.333008 -15 -1 -21
c-4 -34.667 -17.667 -64.667 -41 -90c-28.667 -30.667 -65 -46 -109 -46c-36 0 -65.5 5.66699 -88.5 17s-41.167 25.666 -54.5 42.999c-15.333 -19.333 -35.166 -34.166 -59.499 -44.499s-53.166 -15.5 -86.499 -15.5c-22 0 -42.5 3.83301 -61.5 11.5
s-35.167 18.334 -48.5 32.001s-23.833 30 -31.5 49s-11.5 39.833 -11.5 62.5v110h61v-110c0 -28 8.33301 -50.5 25 -67.5s39 -25.5 67 -25.5c13.333 0 26.833 1.16699 40.5 3.5s26 7 37 14s20 16.5 27 28.5s10.5 27.667 10.5 47v110h62v-110c0 -10.667 1.5 -21.5 4.5 -32.5
s8.5 -21 16.5 -30s19.333 -16.333 34 -22s33.667 -8.5 57 -8.5c18.667 0 33.834 3.83301 45.501 11.5s20.667 16.334 27 26.001s10.666 19 12.999 28s3.5 14.5 3.5 16.5c0.666992 4.66699 1 9.66699 1 15c0 6 -0.5 14.167 -1.5 24.5s-3 23.333 -6 39
s-6.33301 31.167 -10 46.5s-7.16699 28.666 -10.5 39.999z" />
    <glyph glyph-name="riyal" unicode="&#x631;&#xfef3;&#xfe8e;&#x644;" horiz-adv-x="3220" arabic-form="isolated" 
d="M1299 -80c0 -72.667 -8.16699 -136.002 -24.5 -190.002s-41.166 -100.333 -74.499 -139c-19.333 -23.333 -42.333 -43.666 -69 -60.999s-56 -32 -88 -44c-68.667 -25.333 -151.667 -38 -249 -38h-72c-78 0 -149.167 17.333 -213.5 52s-116.5 83.667 -156.5 147
c-28 44 -48.333 93 -61 147c-10.667 44.667 -16 91.667 -16 141c0 10.667 0.333008 21.334 1 32.001c5.33301 136.667 46.333 285 123 445l56 -27c-69.333 -144.667 -108.333 -277 -117 -397c-1.33301 -17.333 -2 -34 -2 -50c0 -99.333 22.667 -185.333 68 -258
c34 -54 78.667 -95.833 134 -125.5s116.666 -44.5 183.999 -44.5h72c170 0 290 40.333 360 121c55.333 64 83 160.333 83 289v1508h62v-1508zM2530 -581.002h-140v62h140c159.333 0 278.166 40.667 356.5 122c78.333 81.333 117.5 205.333 117.5 372v649h62v-649
c0 -174 -41 -308 -123 -402c-90.667 -102.667 -228.334 -154 -413 -154zM2054 -392.002l89 89l88 -89l-88 -88zM1718 -392.002l89 89l88 -89l-88 -88zM1667 1428l60.999 0.000976562v-1096c0 -43.333 5.16699 -81.833 15.5 -115.5s26.833 -62 49.5 -85
s51.834 -40.5 87.501 -52.5s78.5 -18 128.5 -18h15v-61h-30c-56 0 -104.333 8.5 -145 25.5s-75 38.833 -103 65.5c-17.333 16.667 -31.333 35 -42 55s-18.667 40.5 -24 61.5s-8.83301 42.167 -10.5 63.5s-2.5 41.666 -2.5 60.999v1096zM2488 763.999l21.499 -93
c7.66699 -34 14.667 -69.333 21 -106s11.833 -73.5 16.5 -110.5s7.66699 -72.5 9 -106.5v-12c0 -48 -8 -93.833 -24 -137.5s-40 -81.834 -72 -114.501c-26.667 -27.333 -56.167 -48.166 -88.5 -62.499s-66.166 -21.5 -101.499 -21.5h-277v61h277
c26.667 0 52.5 5.66699 77.5 17s47.833 27.666 68.5 48.999c26 26.667 46 59 60 97c12 34.667 18 71.667 18 111v12c-0.666992 32.667 -3.16699 66.834 -7.5 102.501s-9.83301 71.167 -16.5 106.5s-13.667 69.5 -21 102.5l-21 91.5z" />
    <glyph glyph-name="uni06440622.isol" unicode="&#xfedf;&#xfe82;" horiz-adv-x="1302" arabic-form="isolated" 
d="M1084 584c0 -43.333 -1.16797 -84.334 -3.50098 -123.001s-6.66602 -75.167 -12.999 -109.5s-15 -66.333 -26 -96s-25.167 -57.5 -42.5 -83.5c-20 -28.667 -43.333 -53.5 -70 -74.5s-58 -38.833 -94 -53.5c-37.333 -15.333 -78.833 -26.666 -124.5 -33.999
s-97.167 -11 -154.5 -11h-400v62h400c100 0 181.833 11.833 245.5 35.5s112.5 60.5 146.5 110.5c30.667 44.667 50.667 98.5 60 161.5s14 134.833 14 215.5v844h62v-844zM417.999 262.999l-61 -4l-70 1134l61 4zM839.999 1646l-418.001 -0.00195312
c-49.333 0 -93.166 -2.16699 -131.499 -6.5s-72.166 -13.833 -101.499 -28.5c-30.667 -15.333 -56.334 -37.166 -77.001 -65.499s-37.667 -65.166 -51 -110.499l-59 17c16 54 37 98.333 63 133s58.333 61.667 97 81c34.667 17.333 73.167 28.5 115.5 33.5
s90.5 7.5 144.5 7.5h418v-61z" />
    <glyph glyph-name="uni06440622.fina" unicode="&#xfee0;&#xfe82;" horiz-adv-x="1340" arabic-form="final" 
d="M1079 350c0 -14.667 0.999023 -31.834 2.99902 -51.501s5.83301 -40.334 11.5 -62.001s14.167 -43 25.5 -64s26.166 -39.667 44.499 -56s40.833 -29.666 67.5 -39.999s58.667 -15.5 96 -15.5h28v-61h-28c-102.667 0 -182 35.667 -238 107c-28 36 -48 79.667 -60 131
l-16 -33.5c-5.33301 -11 -11.666 -21.833 -18.999 -32.5c-20 -28.667 -43.333 -53.5 -70 -74.5s-58 -38.833 -94 -53.5c-37.333 -15.333 -78.833 -26.666 -124.5 -33.999s-97.167 -11 -154.5 -11h-392v62h392c100 0 181.833 11.833 245.5 35.5s112.5 60.5 146.5 110.5
c28.667 42 47.834 91.167 57.501 147.5s15.167 120.833 16.5 193.5v880h62v-1078zM412.999 263l-61 -4l-72 1134l61 4zM838.999 1653l-418.001 -0.00195312c-49.333 0 -93.166 -2.16699 -131.499 -6.5s-72.166 -13.833 -101.499 -28.5
c-30.667 -15.333 -56.334 -37.166 -77.001 -65.499s-37.667 -65.166 -51 -110.499l-59 17c16 54 37 98.333 63 133s58.333 61.667 97 81c34.667 17.333 73.167 28.5 115.5 33.5s90.5 7.5 144.5 7.5h418v-61z" />
    <glyph glyph-name="uni06440623.isol" unicode="&#xfedf;&#xfe84;" horiz-adv-x="1302" arabic-form="isolated" 
d="M1084 584c0 -43.333 -1.16797 -84.334 -3.50098 -123.001s-6.66602 -75.167 -12.999 -109.5s-15 -66.333 -26 -96s-25.167 -57.5 -42.5 -83.5c-20 -28.667 -43.333 -53.5 -70 -74.5s-58 -38.833 -94 -53.5c-37.333 -15.333 -78.833 -26.666 -124.5 -33.999
s-97.167 -11 -154.5 -11h-400v62h400c100 0 181.833 11.833 245.5 35.5s112.5 60.5 146.5 110.5c30.667 44.667 50.667 98.5 60 161.5s14 134.833 14 215.5v844h62v-844zM417.999 262.999l-61 -4l-70 1134l61 4zM436.999 1610l-425.997 -132.999l5 66l215 67
c-11.333 4 -22.666 9 -33.999 15c-19.333 10 -35.5 21.167 -48.5 33.5s-23.833 24.666 -32.5 36.999s-15.334 23.833 -20.001 34.5s-8 19.334 -10 26.001c-5.33301 18 -8 35.333 -8 52c0 8.66699 1.33301 21.167 4 37.5s10.167 34.5 22.5 54.5s28 37.167 47 51.5
s39.167 24.833 60.5 31.5c20.667 6 41.334 9 62.001 9c10 0 25.5 -1.5 46.5 -4.5s48.167 -8.16699 81.5 -15.5l11 -3l-14 -60l-12 3c-30 7.33301 -58 13 -84 17c-10 1.33301 -19.667 2 -29 2c-15.333 0 -30 -2 -44 -6c-14.667 -4.66699 -28.334 -11.834 -41.001 -21.501
s-23.167 -21.167 -31.5 -34.5s-13.833 -28 -16.5 -44c-0.666992 -5.33301 -1 -11 -1 -17c0 -11.333 1.66699 -22.666 5 -33.999c1.33301 -4.66699 3.66602 -10.834 6.99902 -18.501s8.16602 -16 14.499 -25s14.166 -18 23.499 -27s21 -17.167 35 -24.5
c30 -15.333 64 -23 102 -23c28.667 0 60 4.33301 94 13l86 26l18 -59z" />
    <glyph glyph-name="uni06440623.fina" unicode="&#xfee0;&#xfe84;" horiz-adv-x="1340" arabic-form="final" 
d="M1079 350c0 -14.667 0.999023 -31.834 2.99902 -51.501s5.83301 -40.334 11.5 -62.001s14.167 -43 25.5 -64s26.166 -39.667 44.499 -56s40.833 -29.666 67.5 -39.999s58.667 -15.5 96 -15.5h28v-61h-28c-102.667 0 -182 35.667 -238 107c-28 36 -48 79.667 -60 131
l-16 -33.5c-5.33301 -11 -11.666 -21.833 -18.999 -32.5c-20 -28.667 -43.333 -53.5 -70 -74.5s-58 -38.833 -94 -53.5c-37.333 -15.333 -78.833 -26.666 -124.5 -33.999s-97.167 -11 -154.5 -11h-392v62h392c100 0 181.833 11.833 245.5 35.5s112.5 60.5 146.5 110.5
c28.667 42 47.834 91.167 57.501 147.5s15.167 120.833 16.5 193.5v880h62v-1078zM412.999 263l-61 -4l-72 1134l61 4zM459.999 1634l-425.997 -132.999l5 66l215 67c-11.333 4 -22.666 9 -33.999 15c-19.333 10 -35.5 21.167 -48.5 33.5s-23.833 24.666 -32.5 36.999
s-15.334 23.833 -20.001 34.5s-8 19.334 -10 26.001c-5.33301 18 -8 35.333 -8 52c0 8.66699 1.33301 21.167 4 37.5s10.167 34.5 22.5 54.5s28 37.167 47 51.5s39.167 24.833 60.5 31.5c20.667 6 41.334 9 62.001 9c10 0 25.5 -1.5 46.5 -4.5s48.167 -8.16699 81.5 -15.5
l11 -3l-14 -60l-12 3c-30 7.33301 -58 13 -84 17c-10 1.33301 -19.667 2 -29 2c-15.333 0 -30 -2 -44 -6c-14.667 -4.66699 -28.334 -11.834 -41.001 -21.501s-23.167 -21.167 -31.5 -34.5s-13.833 -28 -16.5 -44c-0.666992 -5.33301 -1 -11 -1 -17
c0 -11.333 1.66699 -22.666 5 -33.999c1.33301 -4.66699 3.66602 -10.834 6.99902 -18.501s8.16602 -16 14.499 -25s14.166 -18 23.499 -27s21 -17.167 35 -24.5c30 -15.333 64 -23 102 -23c28.667 0 60 4.33301 94 13l86 26l18 -59z" />
    <glyph glyph-name="uni06440625.isol" unicode="&#xfedf;&#xfe88;" horiz-adv-x="1302" arabic-form="isolated" 
d="M1084 584c0 -43.333 -1.16797 -84.334 -3.50098 -123.001s-6.66602 -75.167 -12.999 -109.5s-15 -66.333 -26 -96s-25.167 -57.5 -42.5 -83.5c-20 -28.667 -43.333 -53.5 -70 -74.5s-58 -38.833 -94 -53.5c-37.333 -15.333 -78.833 -26.666 -124.5 -33.999
s-97.167 -11 -154.5 -11h-400v62h400c100 0 181.833 11.833 245.5 35.5s112.5 60.5 146.5 110.5c30.667 44.667 50.667 98.5 60 161.5s14 134.833 14 215.5v844h62v-844zM417.999 262.999l-61 -4l-70 1134l61 4zM688.999 -531.001l-425.997 -132.999l5 66l215 67
c-11.333 4 -22.666 9 -33.999 15c-19.333 10 -35.5 21.167 -48.5 33.5s-23.833 24.666 -32.5 36.999s-15.334 23.833 -20.001 34.5s-8 19.334 -10 26.001c-5.33301 18 -8 35.333 -8 52c0 8.66699 1.33301 21.167 4 37.5s10.167 34.5 22.5 54.5s28 37.167 47 51.5
s39.167 24.833 60.5 31.5c20.667 6 41.334 9 62.001 9c10 0 25.5 -1.5 46.5 -4.5s48.167 -8.16699 81.5 -15.5l11 -3l-14 -60l-12 3c-30 7.33301 -58 13 -84 17c-10 1.33301 -19.667 2 -29 2c-15.333 0 -30 -2 -44 -6c-14.667 -4.66699 -28.334 -11.834 -41.001 -21.501
s-23.167 -21.167 -31.5 -34.5s-13.833 -28 -16.5 -44c-0.666992 -5.33301 -1 -11 -1 -17c0 -11.333 1.66699 -22.666 5 -33.999c1.33301 -4.66699 3.66602 -10.834 6.99902 -18.501s8.16602 -16 14.499 -25s14.166 -18 23.499 -27s21 -17.167 35 -24.5
c30 -15.333 64 -23 102 -23c28.667 0 60 4.33301 94 13l86 26l18 -59z" />
    <glyph glyph-name="uni06440625.fina" unicode="&#xfee0;&#xfe88;" horiz-adv-x="1340" arabic-form="final" 
d="M1079 350c0 -14.667 0.999023 -31.834 2.99902 -51.501s5.83301 -40.334 11.5 -62.001s14.167 -43 25.5 -64s26.166 -39.667 44.499 -56s40.833 -29.666 67.5 -39.999s58.667 -15.5 96 -15.5h28v-61h-28c-102.667 0 -182 35.667 -238 107c-28 36 -48 79.667 -60 131
l-16 -33.5c-5.33301 -11 -11.666 -21.833 -18.999 -32.5c-20 -28.667 -43.333 -53.5 -70 -74.5s-58 -38.833 -94 -53.5c-37.333 -15.333 -78.833 -26.666 -124.5 -33.999s-97.167 -11 -154.5 -11h-392v62h392c100 0 181.833 11.833 245.5 35.5s112.5 60.5 146.5 110.5
c28.667 42 47.834 91.167 57.501 147.5s15.167 120.833 16.5 193.5v880h62v-1078zM412.999 263l-61 -4l-72 1134l61 4zM683.999 -528l-425.997 -132.999l5 66l215 67c-11.333 4 -22.666 9 -33.999 15c-19.333 10 -35.5 21.167 -48.5 33.5s-23.833 24.666 -32.5 36.999
s-15.334 23.833 -20.001 34.5s-8 19.334 -10 26.001c-5.33301 18 -8 35.333 -8 52c0 8.66699 1.33301 21.167 4 37.5s10.167 34.5 22.5 54.5s28 37.167 47 51.5s39.167 24.833 60.5 31.5c20.667 6 41.334 9 62.001 9c10 0 25.5 -1.5 46.5 -4.5s48.167 -8.16699 81.5 -15.5
l11 -3l-14 -60l-12 3c-30 7.33301 -58 13 -84 17c-10 1.33301 -19.667 2 -29 2c-15.333 0 -30 -2 -44 -6c-14.667 -4.66699 -28.334 -11.834 -41.001 -21.501s-23.167 -21.167 -31.5 -34.5s-13.833 -28 -16.5 -44c-0.666992 -5.33301 -1 -11 -1 -17
c0 -11.333 1.66699 -22.666 5 -33.999c1.33301 -4.66699 3.66602 -10.834 6.99902 -18.501s8.16602 -16 14.499 -25s14.166 -18 23.499 -27s21 -17.167 35 -24.5c30 -15.333 64 -23 102 -23c28.667 0 60 4.33301 94 13l86 26l18 -59z" />
    <glyph glyph-name="uni06440627.isol" unicode="&#xfedf;&#xfe8e;" horiz-adv-x="1302" arabic-form="isolated" 
d="M1084 584c0 -43.333 -1.16797 -84.334 -3.50098 -123.001s-6.66602 -75.167 -12.999 -109.5s-15 -66.333 -26 -96s-25.167 -57.5 -42.5 -83.5c-20 -28.667 -43.333 -53.5 -70 -74.5s-58 -38.833 -94 -53.5c-37.333 -15.333 -78.833 -26.666 -124.5 -33.999
s-97.167 -11 -154.5 -11h-400v62h400c100 0 181.833 11.833 245.5 35.5s112.5 60.5 146.5 110.5c30.667 44.667 50.667 98.5 60 161.5s14 134.833 14 215.5v844h62v-844zM417.999 262.999l-61 -4l-70 1134l61 4z" />
    <glyph glyph-name="uni06440627.fina" unicode="&#xfee0;&#xfe8e;" horiz-adv-x="1340" arabic-form="final" 
d="M1079 350c0 -14.667 0.999023 -31.834 2.99902 -51.501s5.83301 -40.334 11.5 -62.001s14.167 -43 25.5 -64s26.166 -39.667 44.499 -56s40.833 -29.666 67.5 -39.999s58.667 -15.5 96 -15.5h28v-61h-28c-102.667 0 -182 35.667 -238 107c-28 36 -48 79.667 -60 131
l-16 -33.5c-5.33301 -11 -11.666 -21.833 -18.999 -32.5c-20 -28.667 -43.333 -53.5 -70 -74.5s-58 -38.833 -94 -53.5c-37.333 -15.333 -78.833 -26.666 -124.5 -33.999s-97.167 -11 -154.5 -11h-392v62h392c100 0 181.833 11.833 245.5 35.5s112.5 60.5 146.5 110.5
c28.667 42 47.834 91.167 57.501 147.5s15.167 120.833 16.5 193.5v880h62v-1078zM412.999 263l-61 -4l-72 1134l61 4z" />
    <glyph glyph-name="uni06440671.isol" unicode="&#xfedf;&#xfb51;" horiz-adv-x="1302" 
d="M1084 584c0 -43.333 -1.16797 -84.334 -3.50098 -123.001s-6.66602 -75.167 -12.999 -109.5s-15 -66.333 -26 -96s-25.167 -57.5 -42.5 -83.5c-20 -28.667 -43.333 -53.5 -70 -74.5s-58 -38.833 -94 -53.5c-37.333 -15.333 -78.833 -26.666 -124.5 -33.999
s-97.167 -11 -154.5 -11h-400v62h400c100 0 181.833 11.833 245.5 35.5s112.5 60.5 146.5 110.5c30.667 44.667 50.667 98.5 60 161.5s14 134.833 14 215.5v844h62v-844zM417.999 262.999l-61 -4l-70 1134l61 4zM581.999 1860c24.667 -38 37 -89.6641 37 -154.997
c0 -20.667 -2.5 -38.834 -7.5 -54.501s-11.333 -29.334 -19 -41.001s-16.334 -21.5 -26.001 -29.5s-19.167 -14.333 -28.5 -19c-12 -6.66699 -23.833 -11.834 -35.5 -15.501s-22.667 -6.5 -33 -8.5s-19.333 -3.16699 -27 -3.5s-13.167 -0.5 -16.5 -0.5h-417l23 61h109l19 32
l21 36c0.666992 1.33301 1.83398 3.33301 3.50098 6l9.5 15.5l21 34l38 61.5c13.333 20 27.5 38.833 42.5 56.5s31 33.167 48 46.5s34.833 23.833 53.5 31.5s38.334 11.5 59.001 11.5c27.333 0 51.666 -5.5 72.999 -16.5s39 -27.167 53 -48.5zM425.999 1594
c5.33301 0 15.165 0.833008 29.498 2.5s29 6.16699 44 13.5s28.333 18.333 40 33s17.5 35.334 17.5 62.001c0 39.333 -4.16699 69.666 -12.5 90.999s-18 37 -29 47s-22.167 15.833 -33.5 17.5s-20 2.5 -26 2.5c-22 0 -43.167 -7.16699 -63.5 -21.5
s-39.666 -32.833 -57.999 -55.5s-36 -47.667 -53 -75s-32.833 -54 -47.5 -80c-7.33301 -14 -14.666 -26.333 -21.999 -37h214z" />
    <glyph glyph-name="uni06440671.fina" unicode="&#xfee0;&#xfb51;" horiz-adv-x="1340" 
d="M1079 350c0 -14.667 0.999023 -31.834 2.99902 -51.501s5.83301 -40.334 11.5 -62.001s14.167 -43 25.5 -64s26.166 -39.667 44.499 -56s40.833 -29.666 67.5 -39.999s58.667 -15.5 96 -15.5h28v-61h-28c-102.667 0 -182 35.667 -238 107c-28 36 -48 79.667 -60 131
l-16 -33.5c-5.33301 -11 -11.666 -21.833 -18.999 -32.5c-20 -28.667 -43.333 -53.5 -70 -74.5s-58 -38.833 -94 -53.5c-37.333 -15.333 -78.833 -26.666 -124.5 -33.999s-97.167 -11 -154.5 -11h-392v62h392c100 0 181.833 11.833 245.5 35.5s112.5 60.5 146.5 110.5
c28.667 42 47.834 91.167 57.501 147.5s15.167 120.833 16.5 193.5v880h62v-1078zM412.999 263l-61 -4l-72 1134l61 4zM558.999 1874c24.667 -38 37 -89.6641 37 -154.997c0 -20.667 -2.5 -38.834 -7.5 -54.501s-11.333 -29.334 -19 -41.001s-16.334 -21.5 -26.001 -29.5
s-19.167 -14.333 -28.5 -19c-12 -6.66699 -23.833 -11.834 -35.5 -15.501s-22.667 -6.5 -33 -8.5s-19.333 -3.16699 -27 -3.5s-13.167 -0.5 -16.5 -0.5h-417l23 61h109l19 32l21 36c0.666992 1.33301 1.83398 3.33301 3.50098 6l9.5 15.5l21 34l38 61.5
c13.333 20 27.5 38.833 42.5 56.5s31 33.167 48 46.5s34.833 23.833 53.5 31.5s38.334 11.5 59.001 11.5c27.333 0 51.666 -5.5 72.999 -16.5s39 -27.167 53 -48.5zM402.999 1608c5.33301 0 15.165 0.833008 29.498 2.5s29 6.16699 44 13.5s28.333 18.333 40 33
s17.5 35.334 17.5 62.001c0 39.333 -4.16699 69.666 -12.5 90.999s-18 37 -29 47s-22.167 15.833 -33.5 17.5s-20 2.5 -26 2.5c-22 0 -43.167 -7.16699 -63.5 -21.5s-39.666 -32.833 -57.999 -55.5s-36 -47.667 -53 -75s-32.833 -54 -47.5 -80
c-7.33301 -14 -14.666 -26.333 -21.999 -37h214z" />
    <glyph glyph-name="uni0621" unicode="&#x621;" horiz-adv-x="1004" arabic-form="isolated" 
d="M90 -13l-18 59.002l428 130c-44.667 8 -84.334 21.333 -119.001 40c-30 15.333 -55.333 32.833 -76 52.5s-37.667 39.167 -51 58.5s-23.666 37.5 -30.999 54.5s-12.666 30.5 -15.999 40.5c-8 26 -12 52 -12 78c0 12 1.66699 30.5 5 55.5s15.333 54.5 36 88.5
c18.667 31.333 42.5 58.333 71.5 81s60.833 39.334 95.5 50.001c24 7.33301 48.333 11.666 73 12.999h15c20 0 41.333 -1.16699 64 -3.5s47 -6.33301 73 -12l80 -17.5l18 -4l-14 -60l-19 4l-75 17c-24 5.33301 -47 9.33301 -69 12c-18 2 -35.667 3 -53 3
c-4.66699 0 -13.334 -0.333008 -26.001 -1s-29 -4 -49 -10c-26 -8 -50.667 -20.833 -74 -38.5s-42.5 -38.667 -57.5 -63s-25.167 -51.5 -30.5 -81.5c-2 -10.667 -3 -21.334 -3 -32.001c0 -20 3.33301 -40.333 10 -61c2.66699 -8.66699 7 -19.834 13 -33.501
s14.5 -28.5 25.5 -44.5s25 -32.167 42 -48.5s37.833 -30.833 62.5 -43.5c52 -26.667 111.333 -40 178 -40c51.333 0 107.333 8 168 24l20 6v-1l19 6l100 31l18 -59l-100 -31l-31 -9z" />
    <glyph glyph-name="uni0622" unicode="&#x622;" horiz-adv-x="838" arabic-form="isolated" 
d="M455 0h-61v1277h61v-1277zM838 1491l-418.001 -0.00195312c-49.333 0 -93.166 -2.16699 -131.499 -6.5s-72.166 -13.833 -101.499 -28.5c-30.667 -15.333 -56.334 -37.166 -77.001 -65.499s-37.667 -65.166 -51 -110.499l-59 17c16 54 37 98.333 63 133
s58.333 61.667 97 81c34.667 17.333 73.167 28.5 115.5 33.5s90.5 7.5 144.5 7.5h418v-61z" />
    <glyph glyph-name="uni0623" unicode="&#x623;" horiz-adv-x="592" arabic-form="isolated" 
d="M326 0h-61v1277h61v-1277zM457 1516l-425.997 -132.999l5 66l215 67c-11.333 4 -22.666 9 -33.999 15c-19.333 10 -35.5 21.167 -48.5 33.5s-23.833 24.666 -32.5 36.999s-15.334 23.833 -20.001 34.5s-8 19.334 -10 26.001c-5.33301 18 -8 35.333 -8 52
c0 8.66699 1.33301 21.167 4 37.5s10.167 34.5 22.5 54.5s28 37.167 47 51.5s39.167 24.833 60.5 31.5c20.667 6 41.334 9 62.001 9c10 0 25.5 -1.5 46.5 -4.5s48.167 -8.16699 81.5 -15.5l11 -3l-14 -60l-12 3c-30 7.33301 -58 13 -84 17c-10 1.33301 -19.667 2 -29 2
c-15.333 0 -30 -2 -44 -6c-14.667 -4.66699 -28.334 -11.834 -41.001 -21.501s-23.167 -21.167 -31.5 -34.5s-13.833 -28 -16.5 -44c-0.666992 -5.33301 -1 -11 -1 -17c0 -11.333 1.66699 -22.666 5 -33.999c1.33301 -4.66699 3.66602 -10.834 6.99902 -18.501
s8.16602 -16 14.499 -25s14.166 -18 23.499 -27s21 -17.167 35 -24.5c30 -15.333 64 -23 102 -23c28.667 0 60 4.33301 94 13l86 26l18 -59z" />
    <glyph glyph-name="uni0624" unicode="&#x624;" horiz-adv-x="1024" arabic-form="isolated" 
d="M810 61l-0.000976562 255.001c0 159.333 -29 273 -87 341c-47.333 55.333 -116.666 83 -207.999 83c-36 0 -71.833 -6.66699 -107.5 -20s-67.5 -34.833 -95.5 -64.5s-50.833 -68.5 -68.5 -116.5s-26.5 -106.667 -26.5 -176c0 -111.333 39.667 -193 119 -245
c20 -13.333 40.167 -23.833 60.5 -31.5s39 -13.334 56 -17.001s31.667 -6 44 -7s20.5 -1.5 24.5 -1.5h289zM514.999 801.001c112 0 196.998 -34.998 254.998 -104.998c68 -80 102 -206.667 102 -380v-398c0 -82.667 -15.333 -154.667 -46 -216
c-30.667 -60.667 -75.667 -110 -135 -148c-56 -36 -124.667 -62.5 -206 -79.5s-178.666 -25.5 -291.999 -25.5v61c106.667 0 198.834 8 276.501 24s141.667 40.667 192 74s87.666 75.666 111.999 126.999s36.5 112.333 36.5 183v82h-289
c-29.333 0 -63.833 4.83301 -103.5 14.5s-78.167 27.167 -115.5 52.5c-16.667 10.667 -33.667 24.5 -51 41.5s-33 37.5 -47 61.5s-25.5 51.833 -34.5 83.5s-13.5 68.167 -13.5 109.5c0 73.333 10 138.666 30 195.999c18 54 44.667 99.667 80 137c32 34 69.333 60 112 78
s88.334 27 137.001 27zM610.997 1163l-425.997 -132.999l5 66l215 67c-11.333 4 -22.666 9 -33.999 15c-19.333 10 -35.5 21.167 -48.5 33.5s-23.833 24.666 -32.5 36.999s-15.334 23.833 -20.001 34.5s-8 19.334 -10 26.001c-5.33301 18 -8 35.333 -8 52
c0 8.66699 1.33301 21.167 4 37.5s10.167 34.5 22.5 54.5s28 37.167 47 51.5s39.167 24.833 60.5 31.5c20.667 6 41.334 9 62.001 9c10 0 25.5 -1.5 46.5 -4.5s48.167 -8.16699 81.5 -15.5l11 -3l-14 -60l-12 3c-30 7.33301 -58 13 -84 17c-10 1.33301 -19.667 2 -29 2
c-15.333 0 -30 -2 -44 -6c-14.667 -4.66699 -28.334 -11.834 -41.001 -21.501s-23.167 -21.167 -31.5 -34.5s-13.833 -28 -16.5 -44c-0.666992 -5.33301 -1 -11 -1 -17c0 -11.333 1.66699 -22.666 5 -33.999c1.33301 -4.66699 3.66602 -10.834 6.99902 -18.501
s8.16602 -16 14.499 -25s14.166 -18 23.499 -27s21 -17.167 35 -24.5c30 -15.333 64 -23 102 -23c28.667 0 60 4.33301 94 13l86 26l18 -59z" />
    <glyph glyph-name="uni0625" unicode="&#x625;" horiz-adv-x="451" arabic-form="isolated" 
d="M261 0h-61v1428h61v-1428zM480 -544l-425.997 -132.999l5 66l215 67c-11.333 4 -22.666 9 -33.999 15c-19.333 10 -35.5 21.167 -48.5 33.5s-23.833 24.666 -32.5 36.999s-15.334 23.833 -20.001 34.5s-8 19.334 -10 26.001c-5.33301 18 -8 35.333 -8 52
c0 8.66699 1.33301 21.167 4 37.5s10.167 34.5 22.5 54.5s28 37.167 47 51.5s39.167 24.833 60.5 31.5c20.667 6 41.334 9 62.001 9c10 0 25.5 -1.5 46.5 -4.5s48.167 -8.16699 81.5 -15.5l11 -3l-14 -60l-12 3c-30 7.33301 -58 13 -84 17c-10 1.33301 -19.667 2 -29 2
c-15.333 0 -30 -2 -44 -6c-14.667 -4.66699 -28.334 -11.834 -41.001 -21.501s-23.167 -21.167 -31.5 -34.5s-13.833 -28 -16.5 -44c-0.666992 -5.33301 -1 -11 -1 -17c0 -11.333 1.66699 -22.666 5 -33.999c1.33301 -4.66699 3.66602 -10.834 6.99902 -18.501
s8.16602 -16 14.499 -25s14.166 -18 23.499 -27s21 -17.167 35 -24.5c30 -15.333 64 -23 102 -23c28.667 0 60 4.33301 94 13l86 26l18 -59z" />
    <glyph glyph-name="uni0626" unicode="&#x626;" horiz-adv-x="1671" arabic-form="isolated" 
d="M1350 809c62 0 125.67 -9 191.003 -27l-17 -59c-59.333 16 -117 24 -173 24c-68.667 0 -133.334 -11.667 -194.001 -35s-114.334 -57.666 -161.001 -102.999c-29.333 -28.667 -54 -60 -74 -94s-35.5 -69.667 -46.5 -107s-16.833 -76 -17.5 -116v-15
c0 -35.333 4 -70.666 12 -105.999l54.5 -13.5l52.5 -12.5l232.5 -58c62.333 -16 112.166 -32 149.499 -48c14.667 -6 29.167 -13.167 43.5 -21.5s26.833 -18.5 37.5 -30.5s18.667 -25.667 24 -41c2.66699 -8 4 -16.667 4 -26s-1.33301 -19.333 -4 -30
c-1.33301 -5.33301 -2.33301 -10.833 -3 -16.5s-1.66699 -11.5 -3 -17.5l-14.5 -67.5c-5 -23 -11.5 -46 -19.5 -69s-17.667 -45.667 -29 -68s-25.666 -43.5 -42.999 -63.5c-78 -92.667 -208.333 -139 -391 -139h-246c-92.667 0 -177 20.5 -253 61.5
s-137.667 99.167 -185 174.5c-16 24.667 -29.833 51 -41.5 79s-21.5 57.667 -29.5 89c-7.33301 32 -12.666 65.333 -15.999 100c-2.66699 24.667 -4 50 -4 76c0 10.667 0.333008 21.334 1 32.001c5.33301 159.333 53.666 333.666 144.999 522.999l55 -27
c-41.333 -85.333 -73.5 -167.5 -96.5 -246.5s-36.833 -154.167 -41.5 -225.5c-1.33301 -20.667 -2 -40.667 -2 -60c0 -49.333 5.66699 -100.5 17 -153.5s33 -104.5 65 -154.5c41.333 -66 95.5 -117 162.5 -153s141.5 -54 223.5 -54h246c60.667 0 113 5 157 15
s81.167 23.5 111.5 40.5s55.166 37.167 74.499 60.5s35 48.166 47 74.499s21.333 53.833 28 82.5s12.667 57 18 85c1.33301 6 2.5 11.833 3.5 17.5s2.16699 11.167 3.5 16.5c1.33301 6.66699 1.83301 13.167 1.5 19.5s-2.66602 12.666 -6.99902 18.999s-11.5 13 -21.5 20
s-24 14.167 -42 21.5c-36 15.333 -84.333 30.833 -145 46.5l-228 56.5c-19.333 5.33301 -40 10.666 -62 15.999l-81 19c-13.333 52 -20.333 102.667 -21 152v8c0 46.667 5.66699 92 17 136s28.666 86 51.999 126s52 76.667 86 110c35.333 34.667 74.5 63.834 117.5 87.501
s89.167 41.5 138.5 53.5c44.667 10.667 91.667 16 141 16zM538.003 904l-425.997 -132.999l5 66l215 67c-11.333 4 -22.666 9 -33.999 15c-19.333 10 -35.5 21.167 -48.5 33.5s-23.833 24.666 -32.5 36.999s-15.334 23.833 -20.001 34.5s-8 19.334 -10 26.001
c-5.33301 18 -8 35.333 -8 52c0 8.66699 1.33301 21.167 4 37.5s10.167 34.5 22.5 54.5s28 37.167 47 51.5s39.167 24.833 60.5 31.5c20.667 6 41.334 9 62.001 9c10 0 25.5 -1.5 46.5 -4.5s48.167 -8.16699 81.5 -15.5l11 -3l-14 -60l-12 3c-30 7.33301 -58 13 -84 17
c-10 1.33301 -19.667 2 -29 2c-15.333 0 -30 -2 -44 -6c-14.667 -4.66699 -28.334 -11.834 -41.001 -21.501s-23.167 -21.167 -31.5 -34.5s-13.833 -28 -16.5 -44c-0.666992 -5.33301 -1 -11 -1 -17c0 -11.333 1.66699 -22.666 5 -33.999
c1.33301 -4.66699 3.66602 -10.834 6.99902 -18.501s8.16602 -16 14.499 -25s14.166 -18 23.499 -27s21 -17.167 35 -24.5c30 -15.333 64 -23 102 -23c28.667 0 60 4.33301 94 13l86 26l18 -59z" />
    <glyph glyph-name="uni0627" unicode="&#x627;" horiz-adv-x="451" arabic-form="isolated" 
d="M261 0h-61v1428h61v-1428z" />
    <glyph glyph-name="uni0628" unicode="&#x628;" horiz-adv-x="2103" arabic-form="isolated" 
d="M418 0c-38.667 0.666992 -75.332 7.5 -109.999 20.5s-65 31.5 -91 55.5c-62 58 -93 137.667 -93 239c0 21.333 1.66699 44.333 5 69s7.5 49.5 12.5 74.5s10.333 49.333 16 73s11 44.834 16 63.501s9.33301 34 13 46s5.83398 18.667 6.50098 20l59 -19v-1l-1 -1
c-0.666992 -2.66699 -2 -7.33398 -4 -14.001l-12.5 -44c-5 -18 -10.333 -38.333 -16 -61s-10.834 -46 -15.501 -70s-8.66699 -47.833 -12 -71.5s-5 -45.167 -5 -64.5c0 -46.667 7 -86 21 -118s32.167 -58 54.5 -78s47.166 -34.667 74.499 -44s54.666 -14 81.999 -14h1263
c26.667 0 52.5 5.66699 77.5 17s47.833 27.666 68.5 48.999c26 26.667 46 59 60 97c12 34.667 18 71.667 18 111v12c-0.666992 32.667 -3.16699 66.834 -7.5 102.501s-9.83301 71.167 -16.5 106.5l-20 99l61 9c7.33301 -32 14 -65 20 -99c6 -36.667 11.333 -73.5 16 -110.5
s7.66699 -72.5 9 -106.5v-12c0 -48 -8 -93.833 -24 -137.5s-40 -81.834 -72 -114.501c-26.667 -27.333 -56.167 -48.166 -88.5 -62.499s-66.166 -21.5 -101.499 -21.5h-1263zM968.002 -351l89 89l88 -89l-88 -88z" />
    <glyph glyph-name="uni0629" unicode="&#x629;" horiz-adv-x="1042" arabic-form="isolated" 
d="M523 0c-52.667 0 -102.001 8.49707 -148.001 25.4971s-86.167 40.167 -120.5 69.5s-61.5 63.5 -81.5 102.5s-30 80.833 -30 125.5c0 40 5.66699 77.833 17 113.5s25.5 68.667 42.5 99s35.167 57.833 54.5 82.5l52 65c3.33301 4 6.33301 7.83301 9 11.5
s5.66699 7.16699 9 10.5c11.333 14 24 28.833 38 44.5l42 46l40 42l32 33.5l-69.5 76c-18.333 20 -27.833 30.333 -28.5 31l45 41c0.666992 0 8.83398 -8.5 24.501 -25.5l59.5 -65.5l80 -89l85 -96l90 -107.5c29.333 -36.333 54.333 -72.166 75 -107.499
c21.333 -36 37 -70.167 47 -102.5s15 -65.166 15 -98.499c0 -45.333 -9.83301 -88.166 -29.5 -128.499s-48.167 -75.833 -85.5 -106.5c-36 -30 -76.5 -52.833 -121.5 -68.5s-92.5 -23.5 -142.5 -23.5zM519.999 824.997l-31.501 -32.998l-38.5 -40.5l-40 -43.5
c-13.333 -14.667 -25.333 -28.667 -36 -42l-8.5 -10.5l-9.5 -11.5l-49.5 -61c-17.667 -22.667 -34.167 -47.5 -49.5 -74.5s-28 -56 -38 -87s-15 -63.833 -15 -98.5c0 -36 8.33301 -69.833 25 -101.5s39.5 -59.334 68.5 -83.001s62.833 -42.334 101.5 -56.001
s80 -20.5 124 -20.5c44.667 0 86.334 6.83301 125.001 20.5s72.334 32.5 101.001 56.5s51.167 52 67.5 84s24.5 66.667 24.5 104c0 28 -4.5 55.667 -13.5 83s-22.333 56 -40 86s-39.834 61.833 -66.501 95.5l-92 111.5l-54 61.5zM585.998 1373l89 89l88 -89l-88 -88z
M249.998 1373l89 89l88 -89l-88 -88z" />
    <glyph glyph-name="uni062A" unicode="&#x62a;" horiz-adv-x="2103" arabic-form="isolated" 
d="M418 0c-38.667 0.666992 -75.332 7.5 -109.999 20.5s-65 31.5 -91 55.5c-62 58 -93 137.667 -93 239c0 21.333 1.66699 44.333 5 69s7.5 49.5 12.5 74.5s10.333 49.333 16 73s11 44.834 16 63.501s9.33301 34 13 46s5.83398 18.667 6.50098 20l59 -19v-1l-1 -1
c-0.666992 -2.66699 -2 -7.33398 -4 -14.001l-12.5 -44c-5 -18 -10.333 -38.333 -16 -61s-10.834 -46 -15.501 -70s-8.66699 -47.833 -12 -71.5s-5 -45.167 -5 -64.5c0 -46.667 7 -86 21 -118s32.167 -58 54.5 -78s47.166 -34.667 74.499 -44s54.666 -14 81.999 -14h1263
c26.667 0 52.5 5.66699 77.5 17s47.833 27.666 68.5 48.999c26 26.667 46 59 60 97c12 34.667 18 71.667 18 111v12c-0.666992 32.667 -3.16699 66.834 -7.5 102.501s-9.83301 71.167 -16.5 106.5l-20 99l61 9c7.33301 -32 14 -65 20 -99c6 -36.667 11.333 -73.5 16 -110.5
s7.66699 -72.5 9 -106.5v-12c0 -48 -8 -93.833 -24 -137.5s-40 -81.834 -72 -114.501c-26.667 -27.333 -56.167 -48.166 -88.5 -62.499s-66.166 -21.5 -101.499 -21.5h-1263zM1149 925l89 89l88 -89l-88 -88zM813.002 925l89 89l88 -89l-88 -88z" />
    <glyph glyph-name="uni062B" unicode="&#x62b;" horiz-adv-x="2103" arabic-form="isolated" 
d="M418 0c-38.667 0.666992 -75.332 7.5 -109.999 20.5s-65 31.5 -91 55.5c-62 58 -93 137.667 -93 239c0 21.333 1.66699 44.333 5 69s7.5 49.5 12.5 74.5s10.333 49.333 16 73s11 44.834 16 63.501s9.33301 34 13 46s5.83398 18.667 6.50098 20l59 -19v-1l-1 -1
c-0.666992 -2.66699 -2 -7.33398 -4 -14.001l-12.5 -44c-5 -18 -10.333 -38.333 -16 -61s-10.834 -46 -15.501 -70s-8.66699 -47.833 -12 -71.5s-5 -45.167 -5 -64.5c0 -46.667 7 -86 21 -118s32.167 -58 54.5 -78s47.166 -34.667 74.499 -44s54.666 -14 81.999 -14h1263
c26.667 0 52.5 5.66699 77.5 17s47.833 27.666 68.5 48.999c26 26.667 46 59 60 97c12 34.667 18 71.667 18 111v12c-0.666992 32.667 -3.16699 66.834 -7.5 102.501s-9.83301 71.167 -16.5 106.5l-20 99l61 9c7.33301 -32 14 -65 20 -99c6 -36.667 11.333 -73.5 16 -110.5
s7.66699 -72.5 9 -106.5v-12c0 -48 -8 -93.833 -24 -137.5s-40 -81.834 -72 -114.501c-26.667 -27.333 -56.167 -48.166 -88.5 -62.499s-66.166 -21.5 -101.499 -21.5h-1263zM1166 880l89 89l88 -89l-88 -88zM830.002 880l89 89l88 -89l-88 -88zM997.002 1077l89 89l88 -89
l-88 -88z" />
    <glyph glyph-name="uni062C" unicode="&#x62c;" horiz-adv-x="1449" arabic-form="isolated" 
d="M1239 -520l-438.003 0.00390625c-23.333 0 -51.333 1 -84 3s-68 6.33301 -106 13s-77.5 16.167 -118.5 28.5s-80.833 28.5 -119.5 48.5c-36 19.333 -68.333 40.666 -97 63.999s-53.334 49.333 -74.001 78c-47.333 65.333 -73 140.666 -77 225.999l-1 25
c0 71.333 13 134.333 39 189c13.333 28 29.5 54.333 48.5 79s42.5 48 70.5 70c24.667 20 51.334 38.167 80.001 54.5s58.834 31.833 90.501 46.5s64.667 28.667 99 42l104.5 40c4 1.33301 8 2.83301 12 4.5s8.33301 3.16699 13 4.5l335 126.5l214 78.5l-124.5 54.5
l-142.5 61.5l-146 61l-135 54c-41.333 16 -77.666 29.333 -108.999 40s-54.333 17 -69 19c-9.33301 1.33301 -18.666 2 -27.999 2c-18 0 -37.5 -3.33301 -58.5 -10s-42.167 -19 -63.5 -37s-40.166 -41 -56.499 -69s-29.166 -60 -38.499 -96l-59 15
c11.333 44 27.5 83.333 48.5 118s46.167 63.334 75.5 86.001c28 21.333 58 36.666 90 45.999c20.667 5.33301 42 8 64 8c11.333 0 23 -0.666992 35 -2c16 -2.66699 39.333 -9 70 -19s66 -22.667 106 -38l129 -51l138 -57l133 -57l115 -50l83.5 -36.5
c21.667 -9.66699 34.167 -15.167 37.5 -16.5l-2 -57c-0.666992 0 -15.667 -5.33301 -45 -16l-124.5 -46l-195 -72.5l-256.5 -96.5c-4 -1.33301 -8 -3 -12 -5s-8.33301 -3.66699 -13 -5c-68.667 -25.333 -133.834 -51.333 -195.501 -78s-115.5 -58.334 -161.5 -95.001
c-48.667 -39.333 -83.667 -84 -105 -134c-19.333 -44 -29 -94.667 -29 -152c0 -8.66699 0.333008 -17.334 1 -26.001c6 -140.667 77.333 -246 214 -316c53.333 -28 114.666 -49.5 183.999 -64.5s141.333 -22.5 216 -22.5h438v-61zM706.997 20.0039l89 89l88 -89l-88 -88z
" />
    <glyph glyph-name="uni062D" unicode="&#x62d;" horiz-adv-x="1449" arabic-form="isolated" 
d="M1239 -520l-438.003 0.00390625c-23.333 0 -51.333 1 -84 3s-68 6.33301 -106 13s-77.5 16.167 -118.5 28.5s-80.833 28.5 -119.5 48.5c-36 19.333 -68.333 40.666 -97 63.999s-53.334 49.333 -74.001 78c-47.333 65.333 -73 140.666 -77 225.999l-1 25
c0 71.333 13 134.333 39 189c13.333 28 29.5 54.333 48.5 79s42.5 48 70.5 70c24.667 20 51.334 38.167 80.001 54.5s58.834 31.833 90.501 46.5s64.667 28.667 99 42l104.5 40c4 1.33301 8 2.83301 12 4.5s8.33301 3.16699 13 4.5l335 126.5l214 78.5l-124.5 54.5
l-142.5 61.5l-146 61l-135 54c-41.333 16 -77.666 29.333 -108.999 40s-54.333 17 -69 19c-9.33301 1.33301 -18.666 2 -27.999 2c-18 0 -37.5 -3.33301 -58.5 -10s-42.167 -19 -63.5 -37s-40.166 -41 -56.499 -69s-29.166 -60 -38.499 -96l-59 15
c11.333 44 27.5 83.333 48.5 118s46.167 63.334 75.5 86.001c28 21.333 58 36.666 90 45.999c20.667 5.33301 42 8 64 8c11.333 0 23 -0.666992 35 -2c16 -2.66699 39.333 -9 70 -19s66 -22.667 106 -38l129 -51l138 -57l133 -57l115 -50l83.5 -36.5
c21.667 -9.66699 34.167 -15.167 37.5 -16.5l-2 -57c-0.666992 0 -15.667 -5.33301 -45 -16l-124.5 -46l-195 -72.5l-256.5 -96.5c-4 -1.33301 -8 -3 -12 -5s-8.33301 -3.66699 -13 -5c-68.667 -25.333 -133.834 -51.333 -195.501 -78s-115.5 -58.334 -161.5 -95.001
c-48.667 -39.333 -83.667 -84 -105 -134c-19.333 -44 -29 -94.667 -29 -152c0 -8.66699 0.333008 -17.334 1 -26.001c6 -140.667 77.333 -246 214 -316c53.333 -28 114.666 -49.5 183.999 -64.5s141.333 -22.5 216 -22.5h438v-61z" />
    <glyph glyph-name="uni062E" unicode="&#x62e;" horiz-adv-x="1449" arabic-form="isolated" 
d="M1239 -520l-438.003 0.00390625c-23.333 0 -51.333 1 -84 3s-68 6.33301 -106 13s-77.5 16.167 -118.5 28.5s-80.833 28.5 -119.5 48.5c-36 19.333 -68.333 40.666 -97 63.999s-53.334 49.333 -74.001 78c-47.333 65.333 -73 140.666 -77 225.999l-1 25
c0 71.333 13 134.333 39 189c13.333 28 29.5 54.333 48.5 79s42.5 48 70.5 70c24.667 20 51.334 38.167 80.001 54.5s58.834 31.833 90.501 46.5s64.667 28.667 99 42l104.5 40c4 1.33301 8 2.83301 12 4.5s8.33301 3.16699 13 4.5l335 126.5l214 78.5l-124.5 54.5
l-142.5 61.5l-146 61l-135 54c-41.333 16 -77.666 29.333 -108.999 40s-54.333 17 -69 19c-9.33301 1.33301 -18.666 2 -27.999 2c-18 0 -37.5 -3.33301 -58.5 -10s-42.167 -19 -63.5 -37s-40.166 -41 -56.499 -69s-29.166 -60 -38.499 -96l-59 15
c11.333 44 27.5 83.333 48.5 118s46.167 63.334 75.5 86.001c28 21.333 58 36.666 90 45.999c20.667 5.33301 42 8 64 8c11.333 0 23 -0.666992 35 -2c16 -2.66699 39.333 -9 70 -19s66 -22.667 106 -38l129 -51l138 -57l133 -57l115 -50l83.5 -36.5
c21.667 -9.66699 34.167 -15.167 37.5 -16.5l-2 -57c-0.666992 0 -15.667 -5.33301 -45 -16l-124.5 -46l-195 -72.5l-256.5 -96.5c-4 -1.33301 -8 -3 -12 -5s-8.33301 -3.66699 -13 -5c-68.667 -25.333 -133.834 -51.333 -195.501 -78s-115.5 -58.334 -161.5 -95.001
c-48.667 -39.333 -83.667 -84 -105 -134c-19.333 -44 -29 -94.667 -29 -152c0 -8.66699 0.333008 -17.334 1 -26.001c6 -140.667 77.333 -246 214 -316c53.333 -28 114.666 -49.5 183.999 -64.5s141.333 -22.5 216 -22.5h438v-61zM375.997 1421l89 89l88 -89l-88 -88z" />
    <glyph glyph-name="uni062F" unicode="&#x62f;" horiz-adv-x="1064" arabic-form="isolated" 
d="M544 1c-24 0 -48.499 0.833984 -73.499 2.50098s-50.167 4.5 -75.5 8.5c-50 8 -96.833 19 -140.5 33s-81.5 30.667 -113.5 50l-27 15l32 53l26 -16c30 -17.333 65.167 -32.333 105.5 -45s82.666 -22.334 126.999 -29.001s89.166 -10.334 134.499 -11.001h11
c41.333 0 80 3.33301 116 10c50 9.33301 91.833 24.666 125.5 45.999s57.167 48 70.5 80c8.66699 20.667 13 42.334 13 65.001c0 10 -1.83301 25.833 -5.5 47.5s-17.167 49.834 -40.5 84.501l-132 198.5l-92.5 141l-60.5 92.5l-35.5 54l-17 25.5
c-3 4.33301 -4.5 6.83301 -4.5 7.5l-17 25l52 33l17 -25c0 -0.666992 1.5 -3.16699 4.5 -7.5s8.66699 -13 17 -26l35.5 -54.5l61 -92.5l92.5 -140l130.5 -197.5c29.333 -44 47.333 -87.667 54 -131c2 -12.667 3 -25 3 -37c0 -30 -6 -59 -18 -87
c-18 -42 -47.667 -76.833 -89 -104.5s-92.333 -47.167 -153 -58.5c-39.333 -6.66699 -83.666 -10 -132.999 -10z" />
    <glyph glyph-name="uni0630" unicode="&#x630;" horiz-adv-x="1064" arabic-form="isolated" 
d="M544 1c-24 0 -48.499 0.833984 -73.499 2.50098s-50.167 4.5 -75.5 8.5c-50 8 -96.833 19 -140.5 33s-81.5 30.667 -113.5 50l-27 15l32 53l26 -16c30 -17.333 65.167 -32.333 105.5 -45s82.666 -22.334 126.999 -29.001s89.166 -10.334 134.499 -11.001h11
c41.333 0 80 3.33301 116 10c50 9.33301 91.833 24.666 125.5 45.999s57.167 48 70.5 80c8.66699 20.667 13 42.334 13 65.001c0 10 -1.83301 25.833 -5.5 47.5s-17.167 49.834 -40.5 84.501l-132 198.5l-92.5 141l-60.5 92.5l-35.5 54l-17 25.5
c-3 4.33301 -4.5 6.83301 -4.5 7.5l-17 25l52 33l17 -25c0 -0.666992 1.5 -3.16699 4.5 -7.5s8.66699 -13 17 -26l35.5 -54.5l61 -92.5l92.5 -140l130.5 -197.5c29.333 -44 47.333 -87.667 54 -131c2 -12.667 3 -25 3 -37c0 -30 -6 -59 -18 -87
c-18 -42 -47.667 -76.833 -89 -104.5s-92.333 -47.167 -153 -58.5c-39.333 -6.66699 -83.666 -10 -132.999 -10zM412.001 1303l89 89l88 -89l-88 -88z" />
    <glyph glyph-name="uni0631" unicode="&#x631;" horiz-adv-x="826" arabic-form="isolated" 
d="M140 -581h-139.998v62h140c159.333 0 278.166 40.667 356.499 122s117.5 205.333 117.5 372v649h62v-649c0 -174 -41 -308 -123 -402c-90.667 -102.667 -228.334 -154 -413.001 -154z" />
    <glyph glyph-name="uni0632" unicode="&#x632;" horiz-adv-x="826" arabic-form="isolated" 
d="M140 -581h-139.998v62h140c159.333 0 278.166 40.667 356.499 122s117.5 205.333 117.5 372v649h62v-649c0 -174 -41 -308 -123 -402c-90.667 -102.667 -228.334 -154 -413.001 -154zM538.002 1109l89 89l88 -89l-88 -88z" />
    <glyph glyph-name="uni0633" unicode="&#x633;" horiz-adv-x="2736" arabic-form="isolated" 
d="M1426 141l0.000976562 -221.999c0 -144 -33 -253.333 -99 -328c-38.667 -46.667 -91 -81.667 -157 -105c-34 -13.333 -71.833 -23 -113.5 -29s-86.834 -9 -135.501 -9h-239c-90.667 0 -172.834 19.667 -246.501 59s-133.5 95.333 -179.5 168
c-32 51.333 -55.333 109 -70 173c-12.667 52.667 -19 108 -19 166c0 13.333 0.333008 26.333 1 39c7.33301 162 57 338.667 149 530l55 -27c-42 -86.667 -74.833 -170.167 -98.5 -250.5s-38.167 -156.5 -43.5 -228.5c-1.33301 -20.667 -2 -40.667 -2 -60
c0 -50 5.5 -101.5 16.5 -154.5s32.167 -104.5 63.5 -154.5c40 -63.333 92.333 -112.333 157 -147s137 -52 217 -52h239c86.667 0 159.334 10 218.001 30s106 50.667 142 92c55.333 64 83 160 83 288v726h62v-221c0 -138.667 28.667 -236.667 86 -294
c44.667 -44.667 111.334 -67 200.001 -67c30 0 59.667 5 89 15s55.5 25.333 78.5 46s41.5 46.834 55.5 78.501s21 69.5 21 113.5v329h61v-329c0 -29.333 3.66699 -58.833 11 -88.5s21.166 -56.834 41.499 -81.501s48.5 -44.667 84.5 -60c34.667 -15.333 79.667 -23 135 -23
c26.667 0 54 4.66699 82 14c28 8.66699 53.333 23 76 43s41.167 46.167 55.5 78.5s21.5 71.833 21.5 118.5c0 24.667 -2 52.167 -6 82.5s-9.16699 61.333 -15.5 93s-13 62.5 -20 92.5s-13.667 56.833 -20 80.5s-11.666 42.667 -16 57c-4.33301 14.333 -6.5 21.833 -6.5 22.5
l58 18c0.666992 -2 3.33398 -10.833 8 -26.5c4.66699 -15.667 10.167 -35.667 16.5 -60l21 -82.5c7.66699 -30.667 14.667 -62.167 21 -94.5s11.5 -64.333 15.5 -96s6 -60.5 6 -86.5c0 -101.333 -31.667 -181 -95 -239c-26.667 -24.667 -57.334 -43.334 -92.001 -56.001
c-34 -12.667 -69.667 -19.334 -107 -20.001v-1c-111.333 0 -196.333 30 -255 90c-21.333 22 -38.333 47 -51 75c-18 -35.333 -40 -64.666 -66 -87.999c-29.333 -26 -62.166 -45.333 -98.499 -58s-72.833 -19 -109.5 -19c-106 0 -187.333 28.667 -244 86
c-16 16 -30 34 -42 54z" />
    <glyph glyph-name="uni0634" unicode="&#x634;" horiz-adv-x="2736" arabic-form="isolated" 
d="M1426 141l0.000976562 -221.999c0 -144 -33 -253.333 -99 -328c-38.667 -46.667 -91 -81.667 -157 -105c-34 -13.333 -71.833 -23 -113.5 -29s-86.834 -9 -135.501 -9h-239c-90.667 0 -172.834 19.667 -246.501 59s-133.5 95.333 -179.5 168
c-32 51.333 -55.333 109 -70 173c-12.667 52.667 -19 108 -19 166c0 13.333 0.333008 26.333 1 39c7.33301 162 57 338.667 149 530l55 -27c-42 -86.667 -74.833 -170.167 -98.5 -250.5s-38.167 -156.5 -43.5 -228.5c-1.33301 -20.667 -2 -40.667 -2 -60
c0 -50 5.5 -101.5 16.5 -154.5s32.167 -104.5 63.5 -154.5c40 -63.333 92.333 -112.333 157 -147s137 -52 217 -52h239c86.667 0 159.334 10 218.001 30s106 50.667 142 92c55.333 64 83 160 83 288v726h62v-221c0 -138.667 28.667 -236.667 86 -294
c44.667 -44.667 111.334 -67 200.001 -67c30 0 59.667 5 89 15s55.5 25.333 78.5 46s41.5 46.834 55.5 78.501s21 69.5 21 113.5v329h61v-329c0 -29.333 3.66699 -58.833 11 -88.5s21.166 -56.834 41.499 -81.501s48.5 -44.667 84.5 -60c34.667 -15.333 79.667 -23 135 -23
c26.667 0 54 4.66699 82 14c28 8.66699 53.333 23 76 43s41.167 46.167 55.5 78.5s21.5 71.833 21.5 118.5c0 24.667 -2 52.167 -6 82.5s-9.16699 61.333 -15.5 93s-13 62.5 -20 92.5s-13.667 56.833 -20 80.5s-11.666 42.667 -16 57c-4.33301 14.333 -6.5 21.833 -6.5 22.5
l58 18c0.666992 -2 3.33398 -10.833 8 -26.5c4.66699 -15.667 10.167 -35.667 16.5 -60l21 -82.5c7.66699 -30.667 14.667 -62.167 21 -94.5s11.5 -64.333 15.5 -96s6 -60.5 6 -86.5c0 -101.333 -31.667 -181 -95 -239c-26.667 -24.667 -57.334 -43.334 -92.001 -56.001
c-34 -12.667 -69.667 -19.334 -107 -20.001v-1c-111.333 0 -196.333 30 -255 90c-21.333 22 -38.333 47 -51 75c-18 -35.333 -40 -64.666 -66 -87.999c-29.333 -26 -62.166 -45.333 -98.499 -58s-72.833 -19 -109.5 -19c-106 0 -187.333 28.667 -244 86
c-16 16 -30 34 -42 54zM2070 1102l89 89l88 -89l-88 -88zM1734 1102l89 89l88 -89l-88 -88zM1901 1299l89 89l88 -89l-88 -88z" />
    <glyph glyph-name="uni0635" unicode="&#x635;" horiz-adv-x="2793" arabic-form="isolated" 
d="M951 -551l-239 0.00292969c-92 0 -175.5 20 -250.5 60s-135.5 97 -181.5 171c-31.333 49.333 -54.666 105.333 -69.999 168c-8 32 -13.333 65.333 -16 100c-2.66699 24.667 -4 50 -4 76c0 10.667 0.333008 21.334 1 32.001c3.33301 80 17.166 163.667 41.499 251
s59.5 178.666 105.5 273.999l55 -27c-41.333 -86 -73.666 -168.833 -96.999 -248.5s-37.333 -154.834 -42 -225.501c-1.33301 -20.667 -2 -40.667 -2 -60c0 -48.667 5.5 -99.5 16.5 -152.5s32.167 -104.5 63.5 -154.5c40 -64.667 93.167 -114.5 159.5 -149.5
s139.833 -52.5 220.5 -52.5h239c170.667 0 290.667 39.667 360 119c28.667 32.667 49.667 72.167 63 118.5s20 102.5 20 168.5v724h62v-356c0 -30 4 -56.5 12 -79.5s18.833 -43 32.5 -60s29.5 -31.167 47.5 -42.5s37.333 -20.333 58 -27l40.5 65l43.5 71l81.5 133
c28.333 45.333 57.833 89.5 88.5 132.5s62.834 83.667 96.501 122s68.667 71.833 105 100.5s74.333 51.334 114 68.001s81.167 25 124.5 25c44 0 86.667 -10.667 128 -32c41.333 -22.667 76.666 -53 106 -91c32.667 -42 57.5 -90.333 74.5 -145s25.5 -114.334 25.5 -179.001
c0 -35.333 -3.66699 -68 -11 -98s-17.666 -57.667 -31 -83c-24 -44 -57.667 -79.667 -101 -107c-20.667 -13.333 -41.834 -23.833 -63.501 -31.5s-42.167 -13.5 -61.5 -17.5s-36.833 -6.5 -52.5 -7.5s-28.167 -1.5 -37.5 -1.5h-572c-41.333 0 -80.166 6 -116.499 18
s-68.5 29.333 -96.5 52c-12.667 9.33301 -24.334 20.666 -35.001 33.999v-187c0 -143.333 -33 -252.333 -99 -327c-40.667 -46.667 -93 -81.334 -157 -104.001c-34 -12 -71.833 -21.167 -113.5 -27.5s-86.834 -9.5 -135.501 -9.5zM1704 61.0029l571.998 -0.00195312
c11.333 0 26.666 1 46 3c19.333 2 40 6.16699 62 12.5s44.167 15.666 66.5 27.999s42.5 29 60.5 50s32.667 47.167 44 78.5s17 69 17 113c0 36.667 -2.66699 69.834 -8 99.501s-12.166 56.167 -20.499 79.5s-17.5 43.833 -27.5 61.5s-20 32.834 -30 45.501
c-25.333 32 -53.833 56.5 -85.5 73.5s-65.167 25.5 -100.5 25.5c-49.333 0 -98.833 -14.667 -148.5 -44s-101.167 -74.333 -154.5 -135c-24 -27.333 -47.167 -56.166 -69.5 -86.499s-44.166 -61.5 -65.499 -93.5l-62 -97l-58 -95l-72 -117
c5.33301 -0.666992 11 -1.16699 17 -1.5s11.667 -0.5 17 -0.5z" />
    <glyph glyph-name="uni0636" unicode="&#x636;" horiz-adv-x="2793" arabic-form="isolated" 
d="M951 -551l-239 0.00292969c-92 0 -175.5 20 -250.5 60s-135.5 97 -181.5 171c-31.333 49.333 -54.666 105.333 -69.999 168c-8 32 -13.333 65.333 -16 100c-2.66699 24.667 -4 50 -4 76c0 10.667 0.333008 21.334 1 32.001c3.33301 80 17.166 163.667 41.499 251
s59.5 178.666 105.5 273.999l55 -27c-41.333 -86 -73.666 -168.833 -96.999 -248.5s-37.333 -154.834 -42 -225.501c-1.33301 -20.667 -2 -40.667 -2 -60c0 -48.667 5.5 -99.5 16.5 -152.5s32.167 -104.5 63.5 -154.5c40 -64.667 93.167 -114.5 159.5 -149.5
s139.833 -52.5 220.5 -52.5h239c170.667 0 290.667 39.667 360 119c28.667 32.667 49.667 72.167 63 118.5s20 102.5 20 168.5v724h62v-356c0 -30 4 -56.5 12 -79.5s18.833 -43 32.5 -60s29.5 -31.167 47.5 -42.5s37.333 -20.333 58 -27l40.5 65l43.5 71l81.5 133
c28.333 45.333 57.833 89.5 88.5 132.5s62.834 83.667 96.501 122s68.667 71.833 105 100.5s74.333 51.334 114 68.001s81.167 25 124.5 25c44 0 86.667 -10.667 128 -32c41.333 -22.667 76.666 -53 106 -91c32.667 -42 57.5 -90.333 74.5 -145s25.5 -114.334 25.5 -179.001
c0 -35.333 -3.66699 -68 -11 -98s-17.666 -57.667 -31 -83c-24 -44 -57.667 -79.667 -101 -107c-20.667 -13.333 -41.834 -23.833 -63.501 -31.5s-42.167 -13.5 -61.5 -17.5s-36.833 -6.5 -52.5 -7.5s-28.167 -1.5 -37.5 -1.5h-572c-41.333 0 -80.166 6 -116.499 18
s-68.5 29.333 -96.5 52c-12.667 9.33301 -24.334 20.666 -35.001 33.999v-187c0 -143.333 -33 -252.333 -99 -327c-40.667 -46.667 -93 -81.334 -157 -104.001c-34 -12 -71.833 -21.167 -113.5 -27.5s-86.834 -9.5 -135.501 -9.5zM1704 61.0029l571.998 -0.00195312
c11.333 0 26.666 1 46 3c19.333 2 40 6.16699 62 12.5s44.167 15.666 66.5 27.999s42.5 29 60.5 50s32.667 47.167 44 78.5s17 69 17 113c0 36.667 -2.66699 69.834 -8 99.501s-12.166 56.167 -20.499 79.5s-17.5 43.833 -27.5 61.5s-20 32.834 -30 45.501
c-25.333 32 -53.833 56.5 -85.5 73.5s-65.167 25.5 -100.5 25.5c-49.333 0 -98.833 -14.667 -148.5 -44s-101.167 -74.333 -154.5 -135c-24 -27.333 -47.167 -56.166 -69.5 -86.499s-44.166 -61.5 -65.499 -93.5l-62 -97l-58 -95l-72 -117
c5.33301 -0.666992 11 -1.16699 17 -1.5s11.667 -0.5 17 -0.5zM2167 1229l89 89l88 -89l-88 -88z" />
    <glyph glyph-name="uni0637" unicode="&#x637;" horiz-adv-x="1525" arabic-form="isolated" 
d="M956 0h-867.001v62h253l49.5 79.5l52.5 89.5l13.5 24c4.33301 8 9.16602 16 14.499 24v1148h61v-1045c24 39.333 49 77.833 75 115.5s53 73.167 81 106.5c110 128.667 221 193 333 193c110.667 0 194 -42 250 -126c50.667 -77.333 76 -185.333 76 -324
c0 -65.333 -13.667 -122.333 -41 -171s-67.666 -88 -120.999 -118c-23.333 -13.333 -47.166 -23.833 -71.499 -31.5s-47 -13.5 -68 -17.5s-39.5 -6.5 -55.5 -7.5s-27.667 -1.5 -35 -1.5zM414.999 62l540.998 -0.00292969c9.33301 0 23.833 0.666992 43.5 2
s41.834 5 66.501 11s50 15.167 76 27.5s49.667 29 71 50s38.833 47.333 52.5 79s20.5 70.167 20.5 115.5c0 126.667 -21.667 223.334 -65 290.001c-44 66 -110.333 99 -199 99c-36 0 -70.667 -7.66699 -104 -23s-65.666 -36.166 -96.999 -62.499
s-61.5 -57.166 -90.5 -92.499s-57 -72.833 -84 -112.5s-53 -80.5 -78 -122.5l-71.5 -123l-41.5 -71.5z" />
    <glyph glyph-name="uni0638" unicode="&#x638;" horiz-adv-x="1525" arabic-form="isolated" 
d="M956 0h-867.001v62h253l49.5 79.5l52.5 89.5l13.5 24c4.33301 8 9.16602 16 14.499 24v1148h61v-1045c24 39.333 49 77.833 75 115.5s53 73.167 81 106.5c110 128.667 221 193 333 193c110.667 0 194 -42 250 -126c50.667 -77.333 76 -185.333 76 -324
c0 -65.333 -13.667 -122.333 -41 -171s-67.666 -88 -120.999 -118c-23.333 -13.333 -47.166 -23.833 -71.499 -31.5s-47 -13.5 -68 -17.5s-39.5 -6.5 -55.5 -7.5s-27.667 -1.5 -35 -1.5zM414.999 62l540.998 -0.00292969c9.33301 0 23.833 0.666992 43.5 2
s41.834 5 66.501 11s50 15.167 76 27.5s49.667 29 71 50s38.833 47.333 52.5 79s20.5 70.167 20.5 115.5c0 126.667 -21.667 223.334 -65 290.001c-44 66 -110.333 99 -199 99c-36 0 -70.667 -7.66699 -104 -23s-65.666 -36.166 -96.999 -62.499
s-61.5 -57.166 -90.5 -92.499s-57 -72.833 -84 -112.5s-53 -80.5 -78 -122.5l-71.5 -123l-41.5 -71.5zM948.997 1287l89 89l88 -89l-88 -88z" />
    <glyph glyph-name="uni0639" unicode="&#x639;" horiz-adv-x="1384" arabic-form="isolated" 
d="M616 411c-29.333 0 -60.3369 -3.82812 -93.0039 -11.4951s-65.167 -19.334 -97.5 -35.001s-63.166 -35.334 -92.499 -59.001s-55.333 -51.334 -78 -83.001s-40.667 -67.834 -54 -108.501s-20 -85.334 -20 -134.001c0 -54 7.5 -102.5 22.5 -145.5
s35.5 -80.833 61.5 -113.5s56.667 -60.5 92 -83.5s72.833 -41.833 112.5 -56.5s80.834 -25.334 123.501 -32.001s84.667 -10 126 -10h476v-61h-476c-76 0 -148.167 9.5 -216.5 28.5s-129.166 46.5 -182.499 82.5c-66 44.667 -116 100 -150 166s-51 141 -51 225
c0 76.667 16.333 148.667 49 216c29.333 58.667 70 110 122 154c46 38.667 97.833 68.834 155.5 90.501s114.5 32.5 170.5 32.5h114c-60 24 -112.333 55.333 -157 94c-24 21.333 -45.333 44.333 -64 69s-34 51 -46 79c-22.667 49.333 -34 98.333 -34 147
c0 48 10.167 93.667 30.5 137s49.5 82 87.5 116c35.333 31.333 74.333 55.5 117 72.5s85.667 25.5 129 25.5c29.333 0 57.666 -3.33301 84.999 -10s54.5 -15.667 81.5 -27s54 -24.333 81 -39l83.5 -47l18.5 -10.5l19.5 -11.5l-30 -53c-6.66699 3.33301 -13.167 7 -19.5 11
s-12.833 7.66699 -19.5 11l-79.5 45c-25 14 -49.667 26.167 -74 36.5s-48.5 18.5 -72.5 24.5s-48.667 9 -74 9c-35.333 0 -71 -7.33301 -107 -22s-68.5 -35 -97.5 -61s-52.5 -56.667 -70.5 -92s-27 -73.666 -27 -114.999c0 -44 10.833 -87.833 32.5 -131.5
s51.834 -82.5 90.501 -116.5c53.333 -46.667 119.833 -81.834 199.5 -105.501s170.834 -35.5 273.501 -35.5h128v-62h-599z" />
    <glyph glyph-name="uni063A" unicode="&#x63a;" horiz-adv-x="1384" arabic-form="isolated" 
d="M616 411c-29.333 0 -60.3369 -3.82812 -93.0039 -11.4951s-65.167 -19.334 -97.5 -35.001s-63.166 -35.334 -92.499 -59.001s-55.333 -51.334 -78 -83.001s-40.667 -67.834 -54 -108.501s-20 -85.334 -20 -134.001c0 -54 7.5 -102.5 22.5 -145.5
s35.5 -80.833 61.5 -113.5s56.667 -60.5 92 -83.5s72.833 -41.833 112.5 -56.5s80.834 -25.334 123.501 -32.001s84.667 -10 126 -10h476v-61h-476c-76 0 -148.167 9.5 -216.5 28.5s-129.166 46.5 -182.499 82.5c-66 44.667 -116 100 -150 166s-51 141 -51 225
c0 76.667 16.333 148.667 49 216c29.333 58.667 70 110 122 154c46 38.667 97.833 68.834 155.5 90.501s114.5 32.5 170.5 32.5h114c-60 24 -112.333 55.333 -157 94c-24 21.333 -45.333 44.333 -64 69s-34 51 -46 79c-22.667 49.333 -34 98.333 -34 147
c0 48 10.167 93.667 30.5 137s49.5 82 87.5 116c35.333 31.333 74.333 55.5 117 72.5s85.667 25.5 129 25.5c29.333 0 57.666 -3.33301 84.999 -10s54.5 -15.667 81.5 -27s54 -24.333 81 -39l83.5 -47l18.5 -10.5l19.5 -11.5l-30 -53c-6.66699 3.33301 -13.167 7 -19.5 11
s-12.833 7.66699 -19.5 11l-79.5 45c-25 14 -49.667 26.167 -74 36.5s-48.5 18.5 -72.5 24.5s-48.667 9 -74 9c-35.333 0 -71 -7.33301 -107 -22s-68.5 -35 -97.5 -61s-52.5 -56.667 -70.5 -92s-27 -73.666 -27 -114.999c0 -44 10.833 -87.833 32.5 -131.5
s51.834 -82.5 90.501 -116.5c53.333 -46.667 119.833 -81.834 199.5 -105.501s170.834 -35.5 273.501 -35.5h128v-62h-599zM740.996 1590l89 89l88 -89l-88 -88z" />
    <glyph glyph-name="uni0641" unicode="&#x641;" horiz-adv-x="2127" arabic-form="isolated" 
d="M1678 411c25.333 0 50.833 1 76.5 3s50 4.5 73 7.5s43.667 6 62 9s32.5 5.5 42.5 7.5c-0.666992 78.667 -5.66699 146.167 -15 202.5s-21.666 104.166 -36.999 143.499s-33 70.833 -53 94.5s-41.167 41.834 -63.5 54.501s-45 21.167 -68 25.5s-45.167 6.5 -66.5 6.5
c-48 0 -89.333 -8.5 -124 -25.5s-63.334 -39.5 -86.001 -67.5s-39.5 -59.667 -50.5 -95s-16.5 -71.333 -16.5 -108c0 -172 108.667 -258 326 -258zM1471 61c83.333 0 153.338 6.33301 210.005 19s103 32 139 58c34.667 25.333 61 57.166 79 95.499s28.667 85.5 32 141.5
l-47 -7.5c-18.667 -3 -39.167 -5.83301 -61.5 -8.5s-45.833 -4.83398 -70.5 -6.50098s-49.334 -2.5 -74.001 -2.5c-108 0 -194.667 20.667 -260 62c-84.667 54.667 -127 140.334 -127 257.001c0 47.333 7.16699 92.166 21.5 134.499s35.5 79.5 63.5 111.5
c30.667 36.667 67.5 64.334 110.5 83.001s90.5 28 142.5 28c120 0 210.667 -49 272 -147c31.333 -50.667 54.666 -114.167 69.999 -190.5s23 -167.5 23 -273.5c0 -152 -46 -261 -138 -327c-42 -30 -94.167 -52.167 -156.5 -66.5s-138.5 -21.5 -228.5 -21.5h-1034
c-38.667 0.666992 -75.334 7.5 -110.001 20.5s-65 31.5 -91 55.5c-62 58 -93 137.667 -93 239c0 21.333 1.66699 44.333 5 69s7.5 49.5 12.5 74.5s10.333 49.333 16 73s11 44.834 16 63.501s9.33301 34 13 46s5.83398 18.667 6.50098 20l59 -19l-5 -16l-12.5 -44
c-5 -18 -10.333 -38.333 -16 -61s-10.834 -46 -15.501 -70s-8.66699 -47.833 -12 -71.5s-5 -45.167 -5 -64.5c0 -46.667 7 -86 21 -118s32.167 -58 54.5 -78s47.166 -34.667 74.499 -44s54.666 -14 81.999 -14h1034zM1512 1470l89 89l88 -89l-88 -88z" />
    <glyph glyph-name="uni0642" unicode="&#x642;" horiz-adv-x="1620" arabic-form="isolated" 
d="M764 -491c106.667 0 198.671 8.00391 276.004 24.0039s141.333 40.667 192 74s88.167 75.666 112.5 126.999s36.5 112.333 36.5 183v82h-289c-14.667 0 -30.834 1.16699 -48.501 3.5s-36.167 6.16602 -55.5 11.499s-38.833 12.166 -58.5 20.499
s-38.834 18.833 -57.501 31.5c-16.667 10.667 -33.667 24.5 -51 41.5s-33 37.5 -47 61.5s-25.5 51.833 -34.5 83.5s-13.5 68.167 -13.5 109.5c0 73.333 10 138.666 30 195.999c18.667 54 45.334 99.667 80.001 137c32 34 69.333 60 112 78s88.334 27 137.001 27
c111.333 0 196.666 -35 255.999 -105c67.333 -79.333 101 -206 101 -380v-398c0 -84 -15 -156 -45 -216s-75 -109.333 -135 -148c-56 -36 -124.833 -62.5 -206.5 -79.5s-178.834 -25.5 -291.501 -25.5h-108c-90 0 -172.167 19.833 -246.5 59.5s-134.5 96.167 -180.5 169.5
c-32.667 52 -56.334 110.333 -71.001 175c-13.333 54.667 -20 112.667 -20 174c0 10.667 0.333008 21.334 1 32.001c7.33301 162 57 338.667 149 530l55 -27c-37.333 -78 -66.5 -150.5 -87.5 -217.5s-35.833 -128.5 -44.5 -184.5c-8 -46.667 -12 -90 -12 -130
c0 -8.66699 0.5 -26.667 1.5 -54s5.5 -59.5 13.5 -96.5s18 -69.5 30 -97.5s24.333 -51.667 37 -71c40 -64.667 92.667 -114.334 158 -149.001s137.666 -52 216.999 -52h108zM1381 60.0039l-0.00195312 255.001c0 158 -29 271.667 -87 341c-47.333 55.333 -117 83 -209 83
c-36 0 -71.667 -6.66699 -107 -20s-67.166 -34.833 -95.499 -64.5s-51.166 -68.5 -68.499 -116.5s-26 -106.667 -26 -176c0 -111.333 39.667 -193 119 -245c20 -13.333 40.167 -23.833 60.5 -31.5s39 -13.334 56 -17.001s31.667 -6 44 -7s20.5 -1.5 24.5 -1.5h289z
M1170 1229l89 89l88 -89l-88 -88zM834.002 1229l89 89l88 -89l-88 -88z" />
    <glyph glyph-name="uni0643" unicode="&#x643;" horiz-adv-x="2057" arabic-form="isolated" 
d="M986 60c63.333 0 124.501 0.166016 183.501 0.499023s114.667 2 167 5s101.166 7.33301 146.499 13s86 14.167 122 25.5c35.333 10.667 65.666 24 90.999 40s46.333 35.167 63 57.5s28.834 48.166 36.501 77.499s11.5 62.666 11.5 99.999v1049h61v-1049
c0 -88.667 -20 -160.167 -60 -214.5s-102 -94.166 -186 -119.499c-36.667 -11.333 -77.5 -20.166 -122.5 -26.499s-93.167 -11 -144.5 -14s-105.833 -4.83301 -163.5 -5.5s-117.5 -1 -179.5 -1h-158h-90.5h-94.5c-31.333 0 -61.166 0.166992 -89.499 0.5
s-53.333 0.5 -75 0.5h-51.5h-20c-38.667 0 -75.167 6.5 -109.5 19.5s-64.833 31.833 -91.5 56.5c-30 28 -53 62.167 -69 102.5s-24 85.5 -24 135.5c0 20.667 1.66699 43.5 5 68.5s7.5 50.167 12.5 75.5s10.333 49.833 16 73.5s11 44.834 16 63.501s9.33301 34 13 46
s5.83398 18.667 6.50098 20l59 -19l-5 -16l-12.5 -44c-5 -18 -10.333 -38.333 -16 -61s-10.834 -46.167 -15.501 -70.5s-8.66699 -48.333 -12 -72s-5 -45.167 -5 -64.5c0 -46.667 7.16699 -86.167 21.5 -118.5s32.666 -58.5 54.999 -78.5s47.333 -34.333 75 -43
s55.167 -13 82.5 -13h551zM1149 921.999c-34 -11.333 -63.9971 -22.665 -89.9971 -33.998s-48.667 -22.666 -68 -33.999c-6.66699 -4 -14.167 -9 -22.5 -15s-16 -12.5 -23 -19.5s-12.5 -14.167 -16.5 -21.5c-2.66699 -6 -4 -12 -4 -18v-6
c1.33301 -6 6.16602 -11.167 14.499 -15.5s18.333 -8 30 -11s24.5 -5.5 38.5 -7.5s27 -4 39 -6c18.667 -2 37.167 -4.5 55.5 -7.5s35.166 -7.16699 50.499 -12.5c42.667 -15.333 65.667 -40.333 69 -75c0.666992 -4 1 -7.66699 1 -11c0 -20.667 -8 -39.334 -24 -56.001
c-14 -14.667 -32.667 -26.667 -56 -36s-49.333 -16.833 -78 -22.5s-58.834 -9.5 -90.501 -11.5s-62.5 -3 -92.5 -3h-28l1 62c4.66699 -0.666992 9.16699 -1 13.5 -1h12.5c82 0 145 5.66699 189 17s72 23.666 84 36.999c4.66699 5.33301 7 10.666 7 15.999v3
c-0.666992 6 -4.83398 11.167 -12.501 15.5s-17.5 8 -29.5 11s-25 5.66699 -39 8s-27.667 4.5 -41 6.5c-17.333 2 -34.833 4.33301 -52.5 7s-34.167 6.66699 -49.5 12c-40.667 14 -64.667 36.667 -72 68c-1.33301 6.66699 -2 13.667 -2 21c0 44 32 85.333 96 124
c42.667 26 99.334 50.667 170.001 74z" />
    <glyph glyph-name="uni0644" unicode="&#x644;" horiz-adv-x="1335" arabic-form="isolated" 
d="M1149 -80c0 -72.667 -8.16699 -136.002 -24.5 -190.002s-41.166 -100.333 -74.499 -139c-19.333 -23.333 -42.333 -43.666 -69 -60.999s-56 -32 -88 -44c-68.667 -25.333 -151.667 -38 -249 -38h-72c-78 0 -149.167 17.333 -213.5 52s-116.5 83.667 -156.5 147
c-28 44 -48.333 93 -61 147c-10.667 44.667 -16 91.667 -16 141c0 10.667 0.333008 21.334 1 32.001c5.33301 136.667 46.333 285 123 445l56 -27c-69.333 -144.667 -108.333 -277 -117 -397c-1.33301 -17.333 -2 -34 -2 -50c0 -99.333 22.667 -185.333 68 -258
c34 -54 78.667 -95.833 134 -125.5s116.666 -44.5 183.999 -44.5h72c170 0 290 40.333 360 121c55.333 64 83 160.333 83 289v1508h62v-1508z" />
    <glyph glyph-name="uni0645" unicode="&#x645;" horiz-adv-x="1352" arabic-form="isolated" 
d="M181 -725l-0.00292969 1034l83 51l16 -9l17 -9l44.5 -24l66.5 -35l82 -42c8.66699 48 17.334 91.833 26.001 131.5s17.667 75.834 27 108.501s19.333 62.167 30 88.5s22 50.5 34 72.5c62.667 113.333 153.334 170 272.001 170c53.333 0 103 -14.333 149 -43
c40.667 -24.667 76.334 -60 107.001 -106c27.333 -42 48.333 -88.5 63 -139.5s22 -103.167 22 -156.5c0 -130 -30 -227.333 -90 -292c-24 -26.667 -52.333 -47.167 -85 -61.5s-68 -21.5 -106 -21.5c-31.333 0 -87.333 16.667 -168 50c-31.333 12.667 -66 27.667 -104 45
l-124 59l-89.5 44.5l-80 41.5l-64.5 34l-43 23l-24 -15v-120.5v-149v-164c0 -56.333 0.166992 -111.333 0.5 -165s0.5 -104.667 0.5 -153v-127v-87v-33.5h-62zM547.997 211.999c3.33301 -1.33301 6.83105 -3.00195 10.498 -5.00195l11.5 -6c65.333 -32 120 -57.667 164 -77
s80.167 -34.166 108.5 -44.499s49.833 -17.166 64.5 -20.499s25.334 -5 32.001 -5c20.667 0 44.334 4 71.001 12s51.667 24.667 75 50c48.667 53.333 73 137 73 251c0 46.667 -6.66699 93 -20 139s-31.666 87 -54.999 123c-9.33301 14 -20.333 28.167 -33 42.5
s-27.334 27.333 -44.001 39s-35.5 21.167 -56.5 28.5s-44.5 11 -70.5 11c-49.333 0 -91.333 -11 -126 -33s-65.334 -57 -92.001 -105c-11.333 -20.667 -22.166 -44 -32.499 -70s-20 -55.167 -29 -87.5s-17.833 -68.5 -26.5 -108.5s-17 -84.667 -25 -134z" />
    <glyph glyph-name="uni0646" unicode="&#x646;" horiz-adv-x="1600" arabic-form="isolated" 
d="M909 -552l-235.998 -0.000976562c-90 0 -172.167 19.833 -246.5 59.5s-134.5 96.167 -180.5 169.5c-32.667 52 -56.334 110.333 -71.001 175c-13.333 54.667 -20 112.667 -20 174c0 10.667 0.333008 21.334 1 32.001c7.33301 162 57 338.667 149 530l55 -27
c-37.333 -78 -66.5 -150.5 -87.5 -217.5s-35.833 -128.5 -44.5 -184.5c-8 -46.667 -12 -90 -12 -130c0 -8.66699 0.5 -26.667 1.5 -54s5.5 -59.5 13.5 -96.5s18 -69.5 30 -97.5s24.333 -51.667 37 -71c40 -64.667 92.667 -114.334 158 -149.001s137.666 -52 216.999 -52h236
c169.333 0 289.333 40.667 360 122c55.333 64 83 160 83 288v741h61v-741c0 -143.333 -32.667 -252.666 -98 -327.999c-40.667 -47.333 -93 -82.333 -157 -105c-70 -25.333 -153 -38 -249 -38zM770.002 754.999l89 89l88 -89l-88 -88z" />
    <glyph glyph-name="uni0647" unicode="&#x647;" horiz-adv-x="1042" arabic-form="isolated" 
d="M523 0c-52.667 0 -102.001 8.49707 -148.001 25.4971s-86.167 40.167 -120.5 69.5s-61.5 63.5 -81.5 102.5s-30 80.833 -30 125.5c0 40 5.66699 77.833 17 113.5s25.5 68.667 42.5 99s35.167 57.833 54.5 82.5l52 65c3.33301 4 6.33301 7.83301 9 11.5
s5.66699 7.16699 9 10.5c11.333 14 24 28.833 38 44.5l42 46l40 42l32 33.5l-69.5 76c-18.333 20 -27.833 30.333 -28.5 31l45 41c0.666992 0 8.83398 -8.5 24.501 -25.5l59.5 -65.5l80 -89l85 -96l90 -107.5c29.333 -36.333 54.333 -72.166 75 -107.499
c21.333 -36 37 -70.167 47 -102.5s15 -65.166 15 -98.499c0 -45.333 -9.83301 -88.166 -29.5 -128.499s-48.167 -75.833 -85.5 -106.5c-36 -30 -76.5 -52.833 -121.5 -68.5s-92.5 -23.5 -142.5 -23.5zM519.999 824.997l-31.501 -32.998l-38.5 -40.5l-40 -43.5
c-13.333 -14.667 -25.333 -28.667 -36 -42l-8.5 -10.5l-9.5 -11.5l-49.5 -61c-17.667 -22.667 -34.167 -47.5 -49.5 -74.5s-28 -56 -38 -87s-15 -63.833 -15 -98.5c0 -36 8.33301 -69.833 25 -101.5s39.5 -59.334 68.5 -83.001s62.833 -42.334 101.5 -56.001
s80 -20.5 124 -20.5c44.667 0 86.334 6.83301 125.001 20.5s72.334 32.5 101.001 56.5s51.167 52 67.5 84s24.5 66.667 24.5 104c0 28 -4.5 55.667 -13.5 83s-22.333 56 -40 86s-39.834 61.833 -66.501 95.5l-92 111.5l-54 61.5z" />
    <glyph glyph-name="uni0648" unicode="&#x648;" horiz-adv-x="1024" arabic-form="isolated" 
d="M810 61l-0.000976562 255.001c0 159.333 -29 273 -87 341c-47.333 55.333 -116.666 83 -207.999 83c-36 0 -71.833 -6.66699 -107.5 -20s-67.5 -34.833 -95.5 -64.5s-50.833 -68.5 -68.5 -116.5s-26.5 -106.667 -26.5 -176c0 -111.333 39.667 -193 119 -245
c20 -13.333 40.167 -23.833 60.5 -31.5s39 -13.334 56 -17.001s31.667 -6 44 -7s20.5 -1.5 24.5 -1.5h289zM514.999 801.001c112 0 196.998 -34.998 254.998 -104.998c68 -80 102 -206.667 102 -380v-398c0 -82.667 -15.333 -154.667 -46 -216
c-30.667 -60.667 -75.667 -110 -135 -148c-56 -36 -124.667 -62.5 -206 -79.5s-178.666 -25.5 -291.999 -25.5v61c106.667 0 198.834 8 276.501 24s141.667 40.667 192 74s87.666 75.666 111.999 126.999s36.5 112.333 36.5 183v82h-289
c-29.333 0 -63.833 4.83301 -103.5 14.5s-78.167 27.167 -115.5 52.5c-16.667 10.667 -33.667 24.5 -51 41.5s-33 37.5 -47 61.5s-25.5 51.833 -34.5 83.5s-13.5 68.167 -13.5 109.5c0 73.333 10 138.666 30 195.999c18 54 44.667 99.667 80 137c32 34 69.333 60 112 78
s88.334 27 137.001 27z" />
    <glyph glyph-name="uni0649" unicode="&#x649;" horiz-adv-x="1671" arabic-form="isolated" 
d="M1350 809c62 0 125.67 -9 191.003 -27l-17 -59c-59.333 16 -117 24 -173 24c-68.667 0 -133.334 -11.667 -194.001 -35s-114.334 -57.666 -161.001 -102.999c-29.333 -28.667 -54 -60 -74 -94s-35.5 -69.667 -46.5 -107s-16.833 -76 -17.5 -116v-15
c0 -35.333 4 -70.666 12 -105.999l54.5 -13.5l52.5 -12.5l232.5 -58c62.333 -16 112.166 -32 149.499 -48c14.667 -6 29.167 -13.167 43.5 -21.5s26.833 -18.5 37.5 -30.5s18.667 -25.667 24 -41c2.66699 -8 4 -16.667 4 -26s-1.33301 -19.333 -4 -30
c-1.33301 -5.33301 -2.33301 -10.833 -3 -16.5s-1.66699 -11.5 -3 -17.5l-14.5 -67.5c-5 -23 -11.5 -46 -19.5 -69s-17.667 -45.667 -29 -68s-25.666 -43.5 -42.999 -63.5c-78 -92.667 -208.333 -139 -391 -139h-246c-92.667 0 -177 20.5 -253 61.5
s-137.667 99.167 -185 174.5c-16 24.667 -29.833 51 -41.5 79s-21.5 57.667 -29.5 89c-7.33301 32 -12.666 65.333 -15.999 100c-2.66699 24.667 -4 50 -4 76c0 10.667 0.333008 21.334 1 32.001c5.33301 159.333 53.666 333.666 144.999 522.999l55 -27
c-41.333 -85.333 -73.5 -167.5 -96.5 -246.5s-36.833 -154.167 -41.5 -225.5c-1.33301 -20.667 -2 -40.667 -2 -60c0 -49.333 5.66699 -100.5 17 -153.5s33 -104.5 65 -154.5c41.333 -66 95.5 -117 162.5 -153s141.5 -54 223.5 -54h246c60.667 0 113 5 157 15
s81.167 23.5 111.5 40.5s55.166 37.167 74.499 60.5s35 48.166 47 74.499s21.333 53.833 28 82.5s12.667 57 18 85c1.33301 6 2.5 11.833 3.5 17.5s2.16699 11.167 3.5 16.5c1.33301 6.66699 1.83301 13.167 1.5 19.5s-2.66602 12.666 -6.99902 18.999s-11.5 13 -21.5 20
s-24 14.167 -42 21.5c-36 15.333 -84.333 30.833 -145 46.5l-228 56.5c-19.333 5.33301 -40 10.666 -62 15.999l-81 19c-13.333 52 -20.333 102.667 -21 152v8c0 46.667 5.66699 92 17 136s28.666 86 51.999 126s52 76.667 86 110c35.333 34.667 74.5 63.834 117.5 87.501
s89.167 41.5 138.5 53.5c44.667 10.667 91.667 16 141 16z" />
    <glyph glyph-name="uni064A" unicode="&#x64a;" horiz-adv-x="1671" arabic-form="isolated" 
d="M1350 809c62 0 125.67 -9 191.003 -27l-17 -59c-59.333 16 -117 24 -173 24c-68.667 0 -133.334 -11.667 -194.001 -35s-114.334 -57.666 -161.001 -102.999c-29.333 -28.667 -54 -60 -74 -94s-35.5 -69.667 -46.5 -107s-16.833 -76 -17.5 -116v-15
c0 -35.333 4 -70.666 12 -105.999l54.5 -13.5l52.5 -12.5l232.5 -58c62.333 -16 112.166 -32 149.499 -48c14.667 -6 29.167 -13.167 43.5 -21.5s26.833 -18.5 37.5 -30.5s18.667 -25.667 24 -41c2.66699 -8 4 -16.667 4 -26s-1.33301 -19.333 -4 -30
c-1.33301 -5.33301 -2.33301 -10.833 -3 -16.5s-1.66699 -11.5 -3 -17.5l-14.5 -67.5c-5 -23 -11.5 -46 -19.5 -69s-17.667 -45.667 -29 -68s-25.666 -43.5 -42.999 -63.5c-78 -92.667 -208.333 -139 -391 -139h-246c-92.667 0 -177 20.5 -253 61.5
s-137.667 99.167 -185 174.5c-16 24.667 -29.833 51 -41.5 79s-21.5 57.667 -29.5 89c-7.33301 32 -12.666 65.333 -15.999 100c-2.66699 24.667 -4 50 -4 76c0 10.667 0.333008 21.334 1 32.001c5.33301 159.333 53.666 333.666 144.999 522.999l55 -27
c-41.333 -85.333 -73.5 -167.5 -96.5 -246.5s-36.833 -154.167 -41.5 -225.5c-1.33301 -20.667 -2 -40.667 -2 -60c0 -49.333 5.66699 -100.5 17 -153.5s33 -104.5 65 -154.5c41.333 -66 95.5 -117 162.5 -153s141.5 -54 223.5 -54h246c60.667 0 113 5 157 15
s81.167 23.5 111.5 40.5s55.166 37.167 74.499 60.5s35 48.166 47 74.499s21.333 53.833 28 82.5s12.667 57 18 85c1.33301 6 2.5 11.833 3.5 17.5s2.16699 11.167 3.5 16.5c1.33301 6.66699 1.83301 13.167 1.5 19.5s-2.66602 12.666 -6.99902 18.999s-11.5 13 -21.5 20
s-24 14.167 -42 21.5c-36 15.333 -84.333 30.833 -145 46.5l-228 56.5c-19.333 5.33301 -40 10.666 -62 15.999l-81 19c-13.333 52 -20.333 102.667 -21 152v8c0 46.667 5.66699 92 17 136s28.666 86 51.999 126s52 76.667 86 110c35.333 34.667 74.5 63.834 117.5 87.501
s89.167 41.5 138.5 53.5c44.667 10.667 91.667 16 141 16zM923.003 -818l89 89l88 -89l-88 -88zM587.003 -818l89 89l88 -89l-88 -88z" />
    <glyph glyph-name="uni066E.init" unicode="&#x66e;" horiz-adv-x="669" 
d="M480 764l21.499 -93c7.66699 -34 14.667 -69.333 21 -106s11.833 -73.5 16.5 -110.5s7.66699 -72.5 9 -106.5v-12c0 -48 -8 -93.833 -24 -137.5s-40 -81.834 -72 -114.501c-26.667 -27.333 -56.167 -48.166 -88.5 -62.499s-66.166 -21.5 -101.499 -21.5h-277v61h277
c26.667 0 52.5 5.66699 77.5 17s47.833 27.666 68.5 48.999c26 26.667 46 59 60 97c12 34.667 18 71.667 18 111v12c-0.666992 32.667 -3.16699 66.834 -7.5 102.501s-9.83301 71.167 -16.5 106.5s-13.667 69.5 -21 102.5l-21 91.5z" />
    <glyph glyph-name="uni066E.medi" unicode="&#x66e;" horiz-adv-x="782" 
d="M504 286c0 -41.333 7.49902 -76.332 22.499 -104.999s34.5 -51.834 58.5 -69.501s50.667 -30.5 80 -38.5s58.333 -12 87 -12h45v-61h-45c-41.333 0 -80.166 6 -116.499 18s-68.5 29.333 -96.5 52c-26.667 22 -48.334 48.333 -65.001 79
c-10.667 -20.667 -23.334 -39 -38.001 -55c-59.333 -62.667 -151.333 -94 -276 -94h-175v61h175c58 0 105.333 6.83301 142 20.5s65.334 31 86.001 52s34.834 44.5 42.501 70.5s11.5 51.667 11.5 77v365h62v-360z" />
    <glyph glyph-name="uni066E.fina" unicode="&#x66e;" horiz-adv-x="2241" 
d="M2256 61v-61h-39c-41.333 0 -80.166 6 -116.499 18s-68.5 29.333 -96.5 52c-26.667 22 -48.334 48.333 -65.001 79c-10.667 -20.667 -23.334 -39 -38.001 -55c-58.667 -62 -148.667 -93.333 -270 -94h-1214c-38.667 0 -75.167 6.5 -109.5 19.5s-64.833 31.833 -91.5 56.5
c-62 58 -93 137.667 -93 239c0 21.333 1.66699 44.333 5 69s7.5 49.5 12.5 74.5s10.333 49.333 16 73s11 44.834 16 63.501s9.33301 34 13 46s5.83398 18.667 6.50098 20l59 -19l-5 -16l-12.5 -44c-5 -18 -10.333 -38.333 -16 -61s-10.834 -46 -15.501 -70
s-8.66699 -47.833 -12 -71.5s-5 -45.167 -5 -64.5c0 -46.667 7.16699 -86.167 21.5 -118.5s32.666 -58.5 54.999 -78.5s47.333 -34.5 75 -43.5s55.167 -13.5 82.5 -13.5h1206c58 0 105.333 6.83301 142 20.5s65.334 31 86.001 52s34.834 44.5 42.501 70.5
s11.5 51.667 11.5 77v347h62v-342c0 -41.333 7.5 -76.333 22.5 -105s34.5 -51.834 58.5 -69.501s50.667 -30.5 80 -38.5s58.333 -12 87 -12h39z" />
    <glyph glyph-name="uni066F.init" unicode="&#x66f;" horiz-adv-x="1036" 
d="M572 411c25.333 0 50.833 1 76.5 3s50 4.5 73 7.5s43.667 6 62 9s32.5 5.5 42.5 7.5c-0.666992 78.667 -5.66699 146.167 -15 202.5s-21.666 104.166 -36.999 143.499s-33 70.833 -53 94.5s-41.167 41.834 -63.5 54.501s-45 21.167 -68 25.5s-45.167 6.5 -66.5 6.5
c-48 0 -89.333 -8.5 -124 -25.5s-63.334 -39.5 -86.001 -67.5s-39.5 -59.667 -50.5 -95s-16.5 -71.333 -16.5 -108c0 -172 108.667 -258 326 -258zM523 1026c120 0 210.669 -48.999 272.002 -146.999c31.333 -50.667 54.666 -114.167 69.999 -190.5s23 -167.5 23 -273.5
c0 -152 -46 -261 -138 -327c-42 -30 -94.167 -52.167 -156.5 -66.5s-138.5 -21.5 -228.5 -21.5h-380v61h380c83.333 0 153.333 6.33301 210 19s103 32 139 58c34.667 25.333 61 57.166 79 95.499s28.667 85.5 32 141.5l-47 -7.5c-18.667 -3 -39.167 -5.83301 -61.5 -8.5
s-45.833 -4.83398 -70.5 -6.50098s-49.334 -2.5 -74.001 -2.5c-108 0 -194.667 20.667 -260 62c-84.667 54.667 -127 140.334 -127 257.001c0 47.333 7.16699 92.166 21.5 134.499s35.5 79.5 63.5 111.5c30.667 36.667 67.5 64.334 110.5 83.001s90.5 28 142.5 28z" />
    <glyph glyph-name="uni066F.medi" unicode="&#x66f;" horiz-adv-x="1084" 
d="M573 136c16.667 6.66699 32.666 13.502 47.999 20.502s30.333 14.5 45 22.5c62.667 36 110 77 142 123s48 96 48 150c0 36 -6.33301 71.333 -19 106s-31 65.834 -55 93.501s-53.167 50 -87.5 67s-73.166 25.5 -116.499 25.5c-45.333 0 -86.166 -6.83301 -122.499 -20.5
s-67.5 -33.334 -93.5 -59.001s-46 -56.5 -60 -92.5s-21 -76 -21 -120c0 -36 6.66699 -68.5 20 -97.5s30.666 -55.333 51.999 -79s44.833 -44.334 70.5 -62.001s51.167 -32.834 76.5 -45.501c11.333 -6 23 -11.5 35 -16.5zM577.999 805.002
c48 0 92.9961 -9.16699 134.996 -27.5s79 -45.5 111 -81.5c30 -32.667 53.167 -70.167 69.5 -112.5s24.5 -86.166 24.5 -131.499c0 -65.333 -19 -125.833 -57 -181.5s-93 -103.834 -165 -144.501c-5.33301 -3.33301 -11 -6.5 -17 -9.5s-12 -6.16699 -18 -9.5
c54 -14.667 110.667 -26 170 -34s120.333 -12 183 -12h85v-61h-85c-80.667 0 -158.167 6 -232.5 18s-143.833 29.333 -208.5 52c-65.333 -23.333 -137.166 -40.833 -215.499 -52.5s-162.833 -17.5 -253.5 -17.5h-119v61h119c72 0 139.667 3.83301 203 11.5
s122.666 19.167 177.999 34.5c-3.33301 1.33301 -7.66602 3.33301 -12.999 6c-79.333 40.667 -139.666 87.667 -180.999 141c-48 60 -72 126 -72 198c0 52 8.5 99.667 25.5 143s41.833 81 74.5 113s70.834 56.167 114.501 72.5s91.834 24.5 144.501 24.5z" />
    <glyph glyph-name="uni066F.fina" unicode="&#x66f;" horiz-adv-x="1616" 
d="M781 -491c106.667 0 198.67 8.00195 276.003 24.002s141.333 40.833 192 74.5s88.167 76.167 112.5 127.5s36.5 112.333 36.5 183v82h-289c-14.667 0 -30.834 1.16699 -48.501 3.5s-36.167 6.16602 -55.5 11.499s-38.833 12.166 -58.5 20.499
s-38.834 18.833 -57.501 31.5c-16.667 10.667 -33.667 24.5 -51 41.5s-33 37.5 -47 61.5s-25.5 51.833 -34.5 83.5s-13.5 68.167 -13.5 109.5c0 73.333 10 138.666 30 195.999c18.667 54 45.334 99.667 80.001 137c32 34 69.333 60 112 78s88.334 27 137.001 27
c111.333 0 196.666 -35 255.999 -105c67.333 -79.333 101 -206 101 -380v-255h172v-61h-172v-82c0 -84 -15 -156 -45 -216s-75 -109.333 -135 -148c-56 -36 -124.833 -62.667 -206.5 -80s-178.834 -26 -291.501 -26h-108c-45.333 0 -88.666 5.16699 -129.999 15.5
s-80.166 25.333 -116.499 45s-69.833 43.667 -100.5 72s-57.334 60.833 -80.001 97.5c-32.667 52 -56.334 110.333 -71.001 175c-13.333 54.667 -20 112.667 -20 174c0 10.667 0.333008 21.334 1 32.001c7.33301 162 57 338.667 149 530l55 -27
c-37.333 -78 -66.5 -150.5 -87.5 -217.5s-35.833 -128.5 -44.5 -184.5c-8 -46.667 -12 -90 -12 -130c0 -8.66699 0.5 -26.667 1.5 -54s5.5 -59.5 13.5 -96.5s18 -69.5 30 -97.5s24.333 -51.667 37 -71c40 -64.667 92.667 -114.5 158 -149.5s137.666 -52.5 216.999 -52.5h108
zM1398 61.002l-0.00195312 255.001c0 158 -29 271.667 -87 341c-47.333 55.333 -117 83 -209 83c-36 0 -71.667 -6.66699 -107 -20s-67.166 -34.833 -95.499 -64.5s-51.166 -68.5 -68.499 -116.5s-26 -106.667 -26 -176c0 -111.333 39.667 -193 119 -245
c20 -13.333 40.167 -23.833 60.5 -31.5s39 -13.334 56 -17.001s31.667 -6 44 -7s20.5 -1.5 24.5 -1.5h289z" />
    <glyph glyph-name="uni0671" unicode="&#x671;" horiz-adv-x="592" arabic-form="isolated" 
d="M326 0h-61v1277h61v-1277zM577 1759c24.667 -38 37 -89.6641 37 -154.997c0 -20.667 -2.5 -38.834 -7.5 -54.501s-11.333 -29.334 -19 -41.001s-16.334 -21.5 -26.001 -29.5s-19.167 -14.333 -28.5 -19c-12 -6.66699 -23.833 -11.834 -35.5 -15.501
s-22.667 -6.5 -33 -8.5s-19.333 -3.16699 -27 -3.5s-13.167 -0.5 -16.5 -0.5h-417l23 61h109l19 32l21 36c0.666992 1.33301 1.83398 3.33301 3.50098 6l9.5 15.5l21 34l38 61.5c13.333 20 27.5 38.833 42.5 56.5s31 33.167 48 46.5s34.833 23.833 53.5 31.5
s38.334 11.5 59.001 11.5c27.333 0 51.666 -5.5 72.999 -16.5s39 -27.167 53 -48.5zM421 1493c5.33301 0 15.165 0.833008 29.498 2.5s29 6.16699 44 13.5s28.333 18.333 40 33s17.5 35.334 17.5 62.001c0 39.333 -4.16699 69.666 -12.5 90.999s-18 37 -29 47
s-22.167 15.833 -33.5 17.5s-20 2.5 -26 2.5c-22 0 -43.167 -7.16699 -63.5 -21.5s-39.666 -32.833 -57.999 -55.5s-36 -47.667 -53 -75s-32.833 -54 -47.5 -80c-7.33301 -14 -14.666 -26.333 -21.999 -37h214z" />
    <glyph glyph-name="uni0679" unicode="&#x679;" horiz-adv-x="2103" arabic-form="isolated" 
d="M418 0c-38.667 0.666992 -75.332 7.5 -109.999 20.5s-65 31.5 -91 55.5c-62 58 -93 137.667 -93 239c0 21.333 1.66699 44.333 5 69s7.5 49.5 12.5 74.5s10.333 49.333 16 73s11 44.834 16 63.501s9.33301 34 13 46s5.83398 18.667 6.50098 20l59 -19v-1l-1 -1
c-0.666992 -2.66699 -2 -7.33398 -4 -14.001l-12.5 -44c-5 -18 -10.333 -38.333 -16 -61s-10.834 -46 -15.501 -70s-8.66699 -47.833 -12 -71.5s-5 -45.167 -5 -64.5c0 -46.667 7 -86 21 -118s32.167 -58 54.5 -78s47.166 -34.667 74.499 -44s54.666 -14 81.999 -14h1263
c26.667 0 52.5 5.66699 77.5 17s47.833 27.666 68.5 48.999c26 26.667 46 59 60 97c12 34.667 18 71.667 18 111v12c-0.666992 32.667 -3.16699 66.834 -7.5 102.501s-9.83301 71.167 -16.5 106.5l-20 99l61 9c7.33301 -32 14 -65 20 -99c6 -36.667 11.333 -73.5 16 -110.5
s7.66699 -72.5 9 -106.5v-12c0 -48 -8 -93.833 -24 -137.5s-40 -81.834 -72 -114.501c-26.667 -27.333 -56.167 -48.166 -88.5 -62.499s-66.166 -21.5 -101.499 -21.5h-1263zM1368 1008c24.667 -38 37.001 -89.6641 37.001 -154.997c0 -20.667 -2.5 -38.834 -7.5 -54.501
s-11.333 -29.334 -19 -41.001s-16.334 -21.5 -26.001 -29.5s-19.167 -14.333 -28.5 -19c-12 -6.66699 -23.833 -11.834 -35.5 -15.501s-22.667 -6.5 -33 -8.5s-19.333 -3.16699 -27 -3.5s-13.167 -0.5 -16.5 -0.5h-390v61h105l19 32l21 36c1.33301 3.33301 3 6.33301 5 9
s3.66699 5.66699 5 9v495h62v-396c13.333 20 27.5 38.833 42.5 56.5s31 33.167 48 46.5s34.833 23.833 53.5 31.5s38.334 11.5 59.001 11.5c27.333 0 51.666 -5.5 72.999 -16.5s39 -27.167 53 -48.5zM1212 742.003c5.33301 0 15.165 0.833008 29.498 2.5s29 6.16699 44 13.5
s28.333 18.333 40 33s17.5 35.334 17.5 62.001c0 39.333 -4.16699 69.666 -12.5 90.999s-18 37 -29 47s-22.167 15.833 -33.5 17.5s-20 2.5 -26 2.5c-22 0 -43.167 -7.16699 -63.5 -21.5s-39.666 -32.833 -57.999 -55.5s-36 -47.667 -53 -75s-32.833 -54 -47.5 -80
c-7.33301 -14 -14.666 -26.333 -21.999 -37h214z" />
    <glyph glyph-name="uni067E" unicode="&#x67e;" horiz-adv-x="2103" arabic-form="isolated" 
d="M418 0c-38.667 0.666992 -75.332 7.5 -109.999 20.5s-65 31.5 -91 55.5c-62 58 -93 137.667 -93 239c0 21.333 1.66699 44.333 5 69s7.5 49.5 12.5 74.5s10.333 49.333 16 73s11 44.834 16 63.501s9.33301 34 13 46s5.83398 18.667 6.50098 20l59 -19v-1l-1 -1
c-0.666992 -2.66699 -2 -7.33398 -4 -14.001l-12.5 -44c-5 -18 -10.333 -38.333 -16 -61s-10.834 -46 -15.501 -70s-8.66699 -47.833 -12 -71.5s-5 -45.167 -5 -64.5c0 -46.667 7 -86 21 -118s32.167 -58 54.5 -78s47.166 -34.667 74.499 -44s54.666 -14 81.999 -14h1263
c26.667 0 52.5 5.66699 77.5 17s47.833 27.666 68.5 48.999c26 26.667 46 59 60 97c12 34.667 18 71.667 18 111v12c-0.666992 32.667 -3.16699 66.834 -7.5 102.501s-9.83301 71.167 -16.5 106.5l-20 99l61 9c7.33301 -32 14 -65 20 -99c6 -36.667 11.333 -73.5 16 -110.5
s7.66699 -72.5 9 -106.5v-12c0 -48 -8 -93.833 -24 -137.5s-40 -81.834 -72 -114.501c-26.667 -27.333 -56.167 -48.166 -88.5 -62.499s-66.166 -21.5 -101.499 -21.5h-1263zM1251 -257l88 -88l-88 -89l-89 89zM915.002 -257l88 -88l-88 -89l-89 89zM1082 -454l88 -88
l-88 -89l-89 89z" />
    <glyph glyph-name="uni0686" unicode="&#x686;" horiz-adv-x="1449" arabic-form="isolated" 
d="M1239 -520l-438.003 0.00390625c-23.333 0 -51.333 1 -84 3s-68 6.33301 -106 13s-77.5 16.167 -118.5 28.5s-80.833 28.5 -119.5 48.5c-36 19.333 -68.333 40.666 -97 63.999s-53.334 49.333 -74.001 78c-47.333 65.333 -73 140.666 -77 225.999l-1 25
c0 71.333 13 134.333 39 189c13.333 28 29.5 54.333 48.5 79s42.5 48 70.5 70c24.667 20 51.334 38.167 80.001 54.5s58.834 31.833 90.501 46.5s64.667 28.667 99 42l104.5 40c4 1.33301 8 2.83301 12 4.5s8.33301 3.16699 13 4.5l335 126.5l214 78.5l-124.5 54.5
l-142.5 61.5l-146 61l-135 54c-41.333 16 -77.666 29.333 -108.999 40s-54.333 17 -69 19c-9.33301 1.33301 -18.666 2 -27.999 2c-18 0 -37.5 -3.33301 -58.5 -10s-42.167 -19 -63.5 -37s-40.166 -41 -56.499 -69s-29.166 -60 -38.499 -96l-59 15
c11.333 44 27.5 83.333 48.5 118s46.167 63.334 75.5 86.001c28 21.333 58 36.666 90 45.999c20.667 5.33301 42 8 64 8c11.333 0 23 -0.666992 35 -2c16 -2.66699 39.333 -9 70 -19s66 -22.667 106 -38l129 -51l138 -57l133 -57l115 -50l83.5 -36.5
c21.667 -9.66699 34.167 -15.167 37.5 -16.5l-2 -57c-0.666992 0 -15.667 -5.33301 -45 -16l-124.5 -46l-195 -72.5l-256.5 -96.5c-4 -1.33301 -8 -3 -12 -5s-8.33301 -3.66699 -13 -5c-68.667 -25.333 -133.834 -51.333 -195.501 -78s-115.5 -58.334 -161.5 -95.001
c-48.667 -39.333 -83.667 -84 -105 -134c-19.333 -44 -29 -94.667 -29 -152c0 -8.66699 0.333008 -17.334 1 -26.001c6 -140.667 77.333 -246 214 -316c53.333 -28 114.666 -49.5 183.999 -64.5s141.333 -22.5 216 -22.5h438v-61zM981.997 165.004l88 -88l-88 -89l-89 89z
M645.997 165.004l88 -88l-88 -89l-89 89zM812.997 -31.9961l88 -88l-88 -89l-89 89z" />
    <glyph glyph-name="uni0688" unicode="&#x688;" horiz-adv-x="1064" arabic-form="isolated" 
d="M544 1c-24 0 -48.499 0.833984 -73.499 2.50098s-50.167 4.5 -75.5 8.5c-50 8 -96.833 19 -140.5 33s-81.5 30.667 -113.5 50l-27 15l32 53l26 -16c30 -17.333 65.167 -32.333 105.5 -45s82.666 -22.334 126.999 -29.001s89.166 -10.334 134.499 -11.001h11
c41.333 0 80 3.33301 116 10c50 9.33301 91.833 24.666 125.5 45.999s57.167 48 70.5 80c8.66699 20.667 13 42.334 13 65.001c0 10 -1.83301 25.833 -5.5 47.5s-17.167 49.834 -40.5 84.501l-132 198.5l-92.5 141l-60.5 92.5l-35.5 54l-17 25.5
c-3 4.33301 -4.5 6.83301 -4.5 7.5l-17 25l52 33l17 -25c0 -0.666992 1.5 -3.16699 4.5 -7.5s8.66699 -13 17 -26l35.5 -54.5l61 -92.5l92.5 -140l130.5 -197.5c29.333 -44 47.333 -87.667 54 -131c2 -12.667 3 -25 3 -37c0 -30 -6 -59 -18 -87
c-18 -42 -47.667 -76.833 -89 -104.5s-92.333 -47.167 -153 -58.5c-39.333 -6.66699 -83.666 -10 -132.999 -10zM772.001 1590c24.667 -38 37.001 -89.6641 37.001 -154.997c0 -20.667 -2.5 -38.834 -7.5 -54.501s-11.333 -29.334 -19 -41.001s-16.334 -21.5 -26.001 -29.5
s-19.167 -14.333 -28.5 -19c-12 -6.66699 -23.833 -11.834 -35.5 -15.501s-22.667 -6.5 -33 -8.5s-19.333 -3.16699 -27 -3.5s-13.167 -0.5 -16.5 -0.5h-390v61h105l19 32l21 36c1.33301 3.33301 3 6.33301 5 9s3.66699 5.66699 5 9v495h62v-396
c13.333 20 27.5 38.833 42.5 56.5s31 33.167 48 46.5s34.833 23.833 53.5 31.5s38.334 11.5 59.001 11.5c27.333 0 51.666 -5.5 72.999 -16.5s39 -27.167 53 -48.5zM616.002 1324c5.33301 0 15.165 0.833008 29.498 2.5s29 6.16699 44 13.5s28.333 18.333 40 33
s17.5 35.334 17.5 62.001c0 39.333 -4.16699 69.666 -12.5 90.999s-18 37 -29 47s-22.167 15.833 -33.5 17.5s-20 2.5 -26 2.5c-22 0 -43.167 -7.16699 -63.5 -21.5s-39.666 -32.833 -57.999 -55.5s-36 -47.667 -53 -75s-32.833 -54 -47.5 -80
c-7.33301 -14 -14.666 -26.333 -21.999 -37h214z" />
    <glyph glyph-name="uni0691" unicode="&#x691;" horiz-adv-x="826" arabic-form="isolated" 
d="M140 -581h-139.998v62h140c159.333 0 278.166 40.667 356.499 122s117.5 205.333 117.5 372v649h62v-649c0 -174 -41 -308 -123 -402c-90.667 -102.667 -228.334 -154 -413.001 -154zM824.002 1240c24.667 -38 37.001 -89.6641 37.001 -154.997
c0 -20.667 -2.5 -38.834 -7.5 -54.501s-11.333 -29.334 -19 -41.001s-16.334 -21.5 -26.001 -29.5s-19.167 -14.333 -28.5 -19c-12 -6.66699 -23.833 -11.834 -35.5 -15.501s-22.667 -6.5 -33 -8.5s-19.333 -3.16699 -27 -3.5s-13.167 -0.5 -16.5 -0.5h-390v61h105l19 32
l21 36c1.33301 3.33301 3 6.33301 5 9s3.66699 5.66699 5 9v495h62v-396c13.333 20 27.5 38.833 42.5 56.5s31 33.167 48 46.5s34.833 23.833 53.5 31.5s38.334 11.5 59.001 11.5c27.333 0 51.666 -5.5 72.999 -16.5s39 -27.167 53 -48.5zM668.003 974.003
c5.33301 0 15.165 0.833008 29.498 2.5s29 6.16699 44 13.5s28.333 18.333 40 33s17.5 35.334 17.5 62.001c0 39.333 -4.16699 69.666 -12.5 90.999s-18 37 -29 47s-22.167 15.833 -33.5 17.5s-20 2.5 -26 2.5c-22 0 -43.167 -7.16699 -63.5 -21.5
s-39.666 -32.833 -57.999 -55.5s-36 -47.667 -53 -75s-32.833 -54 -47.5 -80c-7.33301 -14 -14.666 -26.333 -21.999 -37h214z" />
    <glyph glyph-name="uni0692.fina" unicode="&#x692;" horiz-adv-x="955" 
d="M970 0l-45.998 0.00195312c-41.333 0 -80.166 6 -116.499 18s-68.5 29.333 -96.5 52c-12.667 9.33301 -24.334 20.666 -35.001 33.999v-129c0 -174 -41 -308 -123 -402c-90.667 -102.667 -228.334 -154 -413.001 -154h-140v62h140c159.333 0 278.166 40.667 356.499 122
s117.5 205.333 117.5 372v649h62v-338c0 -41.333 7.5 -76.333 22.5 -105s34.5 -51.834 58.5 -69.501s50.667 -30.5 80 -38.5s58.333 -12 87 -12h46v-61zM883.002 1281l-220 -408h-45l-219 408h77l164 -329l168 329h75z" />
    <glyph glyph-name="uni0695.fina" unicode="&#x695;" horiz-adv-x="955" 
d="M970 0l-45.998 0.00195312c-41.333 0 -80.166 6 -116.499 18s-68.5 29.333 -96.5 52c-12.667 9.33301 -24.334 20.666 -35.001 33.999v-129c0 -174 -41 -308 -123 -402c-90.667 -102.667 -228.334 -154 -413.001 -154h-140v62h140c159.333 0 278.166 40.667 356.499 122
s117.5 205.333 117.5 372v649h62v-338c0 -41.333 7.5 -76.333 22.5 -105s34.5 -51.834 58.5 -69.501s50.667 -30.5 80 -38.5s58.333 -12 87 -12h46v-61zM613.002 -678.998l-220 -408h-45l-219 408h77l164 -329l168 329h75z" />
    <glyph glyph-name="uni0698" unicode="&#x698;" horiz-adv-x="826" arabic-form="isolated" 
d="M140 -581h-139.998v62h140c159.333 0 278.166 40.667 356.499 122s117.5 205.333 117.5 372v649h62v-649c0 -174 -41 -308 -123 -402c-90.667 -102.667 -228.334 -154 -413.001 -154zM702.002 1071l89 89l88 -89l-88 -88zM366.002 1071l89 89l88 -89l-88 -88z
M533.002 1268l89 89l88 -89l-88 -88z" />
    <glyph glyph-name="uni06A4.init" unicode="&#x6a4;" horiz-adv-x="1036" arabic-form="initial" 
d="M572 411c25.333 0 50.833 1 76.5 3s50 4.5 73 7.5s43.667 6 62 9s32.5 5.5 42.5 7.5c-0.666992 78.667 -5.66699 146.167 -15 202.5s-21.666 104.166 -36.999 143.499s-33 70.833 -53 94.5s-41.167 41.834 -63.5 54.501s-45 21.167 -68 25.5s-45.167 6.5 -66.5 6.5
c-48 0 -89.333 -8.5 -124 -25.5s-63.334 -39.5 -86.001 -67.5s-39.5 -59.667 -50.5 -95s-16.5 -71.333 -16.5 -108c0 -172 108.667 -258 326 -258zM523 1026c120 0 210.669 -48.999 272.002 -146.999c31.333 -50.667 54.666 -114.167 69.999 -190.5s23 -167.5 23 -273.5
c0 -152 -46 -261 -138 -327c-42 -30 -94.167 -52.167 -156.5 -66.5s-138.5 -21.5 -228.5 -21.5h-380v61h380c83.333 0 153.333 6.33301 210 19s103 32 139 58c34.667 25.333 61 57.166 79 95.499s28.667 85.5 32 141.5l-47 -7.5c-18.667 -3 -39.167 -5.83301 -61.5 -8.5
s-45.833 -4.83398 -70.5 -6.50098s-49.334 -2.5 -74.001 -2.5c-108 0 -194.667 20.667 -260 62c-84.667 54.667 -127 140.334 -127 257.001c0 47.333 7.16699 92.166 21.5 134.499s35.5 79.5 63.5 111.5c30.667 36.667 67.5 64.334 110.5 83.001s90.5 28 142.5 28z
M598.002 1357l89 89l88 -89l-88 -88zM262.002 1357l89 89l88 -89l-88 -88zM429.002 1554l89 89l88 -89l-88 -88z" />
    <glyph glyph-name="uni06A4.medi" unicode="&#x6a4;" horiz-adv-x="1084" arabic-form="medial" 
d="M573 136c16.667 6.66699 32.666 13.502 47.999 20.502s30.333 14.5 45 22.5c62.667 36 110 77 142 123s48 96 48 150c0 36 -6.33301 71.333 -19 106s-31 65.834 -55 93.501s-53.167 50 -87.5 67s-73.166 25.5 -116.499 25.5c-45.333 0 -86.166 -6.83301 -122.499 -20.5
s-67.5 -33.334 -93.5 -59.001s-46 -56.5 -60 -92.5s-21 -76 -21 -120c0 -36 6.66699 -68.5 20 -97.5s30.666 -55.333 51.999 -79s44.833 -44.334 70.5 -62.001s51.167 -32.834 76.5 -45.501c11.333 -6 23 -11.5 35 -16.5zM577.999 805.002
c48 0 92.9961 -9.16699 134.996 -27.5s79 -45.5 111 -81.5c30 -32.667 53.167 -70.167 69.5 -112.5s24.5 -86.166 24.5 -131.499c0 -65.333 -19 -125.833 -57 -181.5s-93 -103.834 -165 -144.501c-5.33301 -3.33301 -11 -6.5 -17 -9.5s-12 -6.16699 -18 -9.5
c54 -14.667 110.667 -26 170 -34s120.333 -12 183 -12h85v-61h-85c-80.667 0 -158.167 6 -232.5 18s-143.833 29.333 -208.5 52c-65.333 -23.333 -137.166 -40.833 -215.499 -52.5s-162.833 -17.5 -253.5 -17.5h-119v61h119c72 0 139.667 3.83301 203 11.5
s122.666 19.167 177.999 34.5c-3.33301 1.33301 -7.66602 3.33301 -12.999 6c-79.333 40.667 -139.666 87.667 -180.999 141c-48 60 -72 126 -72 198c0 52 8.5 99.667 25.5 143s41.833 81 74.5 113s70.834 56.167 114.501 72.5s91.834 24.5 144.501 24.5zM644.995 1178
l89 89l88 -89l-88 -88zM308.995 1178l89 89l88 -89l-88 -88zM475.995 1375l89 89l88 -89l-88 -88z" />
    <glyph glyph-name="uni06A4.fina" unicode="&#x6a4;" horiz-adv-x="2128" arabic-form="final" 
d="M1622 805c48 0 93 -9.16797 135 -27.501s79 -45.5 111 -81.5c30 -32.667 53.167 -70.167 69.5 -112.5s24.5 -86.166 24.5 -131.499c0 -65.333 -19 -125.833 -57 -181.5s-93 -103.834 -165 -144.501c-5.33301 -3.33301 -11 -6.5 -17 -9.5s-12 -6.16699 -18 -9.5
c54 -14.667 110.667 -26 170 -34s120.333 -12 183 -12h85v-61h-85c-80.667 0 -158.167 6 -232.5 18s-143.833 29.333 -208.5 52c-65.333 -23.333 -137.166 -40.833 -215.499 -52.5s-162.833 -17.5 -253.5 -17.5h-711c-38.667 0.666992 -75.334 7.5 -110.001 20.5
s-65 31.5 -91 55.5c-62 58 -93 137.667 -93 239c0 21.333 1.66699 44.333 5 69s7.5 49.5 12.5 74.5s10.333 49.333 16 73s11 44.834 16 63.501s9.33301 34 13 46s5.83398 18.667 6.50098 20l59 -19l-5 -16l-12.5 -44c-5 -18 -10.333 -38.333 -16 -61
s-10.834 -46 -15.501 -70s-8.66699 -47.833 -12 -71.5s-5 -45.167 -5 -64.5c0 -46.667 7 -86 21 -118s32.167 -58 54.5 -78s47.166 -34.667 74.499 -44s54.666 -14 81.999 -14h711c72 0 139.667 3.83301 203 11.5s122.666 19.167 177.999 34.5l-13 6
c-79.333 40.667 -139.666 87.667 -180.999 141c-48 60 -72 126 -72 198c0 52 8.5 99.667 25.5 143s41.833 81 74.5 113s70.834 56.167 114.501 72.5s91.834 24.5 144.501 24.5zM1617 135.999c16.667 6.66699 32.666 13.502 47.999 20.502s30.333 14.5 45 22.5
c62.667 36 110 77 142 123s48 96 48 150c0 36 -6.33301 71.333 -19 106s-31 65.834 -55 93.501s-53.167 50 -87.5 67s-73.166 25.5 -116.499 25.5c-45.333 0 -86.166 -6.83301 -122.499 -20.5s-67.5 -33.334 -93.5 -59.001s-46 -56.5 -60 -92.5s-21 -76 -21 -120
c0 -36 6.66699 -68.5 20 -97.5s30.666 -55.333 51.999 -79s44.833 -44.334 70.5 -62.001s51.167 -32.834 76.5 -45.501c11.333 -6 23 -11.5 35 -16.5zM1709 1179l89 89l88 -89l-88 -88zM1373 1179l89 89l88 -89l-88 -88zM1540 1376l89 89l88 -89l-88 -88z" />
    <glyph glyph-name="uni06A8.fina" unicode="&#x6a8;" horiz-adv-x="1616" 
d="M781 -491c106.667 0 198.67 8.00195 276.003 24.002s141.333 40.833 192 74.5s88.167 76.167 112.5 127.5s36.5 112.333 36.5 183v82h-289c-14.667 0 -30.834 1.16699 -48.501 3.5s-36.167 6.16602 -55.5 11.499s-38.833 12.166 -58.5 20.499
s-38.834 18.833 -57.501 31.5c-16.667 10.667 -33.667 24.5 -51 41.5s-33 37.5 -47 61.5s-25.5 51.833 -34.5 83.5s-13.5 68.167 -13.5 109.5c0 73.333 10 138.666 30 195.999c18.667 54 45.334 99.667 80.001 137c32 34 69.333 60 112 78s88.334 27 137.001 27
c111.333 0 196.666 -35 255.999 -105c67.333 -79.333 101 -206 101 -380v-255h172v-61h-172v-82c0 -84 -15 -156 -45 -216s-75 -109.333 -135 -148c-56 -36 -124.833 -62.667 -206.5 -80s-178.834 -26 -291.501 -26h-108c-45.333 0 -88.666 5.16699 -129.999 15.5
s-80.166 25.333 -116.499 45s-69.833 43.667 -100.5 72s-57.334 60.833 -80.001 97.5c-32.667 52 -56.334 110.333 -71.001 175c-13.333 54.667 -20 112.667 -20 174c0 10.667 0.333008 21.334 1 32.001c7.33301 162 57 338.667 149 530l55 -27
c-37.333 -78 -66.5 -150.5 -87.5 -217.5s-35.833 -128.5 -44.5 -184.5c-8 -46.667 -12 -90 -12 -130c0 -8.66699 0.5 -26.667 1.5 -54s5.5 -59.5 13.5 -96.5s18 -69.5 30 -97.5s24.333 -51.667 37 -71c40 -64.667 92.667 -114.5 158 -149.5s137.666 -52.5 216.999 -52.5h108
zM1398 61.002l-0.00195312 255.001c0 158 -29 271.667 -87 341c-47.333 55.333 -117 83 -209 83c-36 0 -71.667 -6.66699 -107 -20s-67.166 -34.833 -95.499 -64.5s-51.166 -68.5 -68.499 -116.5s-26 -106.667 -26 -176c0 -111.333 39.667 -193 119 -245
c20 -13.333 40.167 -23.833 60.5 -31.5s39 -13.334 56 -17.001s31.667 -6 44 -7s20.5 -1.5 24.5 -1.5h289zM1194 1196l89 89l88 -89l-88 -88zM858.001 1196l89 89l88 -89l-88 -88zM1025 1393l89 89l88 -89l-88 -88z" />
    <glyph glyph-name="uni06A9" unicode="&#x6a9;" horiz-adv-x="1997" arabic-form="isolated" 
d="M1577 673c82.667 -88 139.671 -173.665 171.004 -256.998c17.333 -46 26 -89.333 26 -130c0 -32.667 -5.66699 -63.334 -17 -92.001c-19.333 -52 -54.833 -93.167 -106.5 -123.5s-116.167 -48.166 -193.5 -53.499l-94.5 -6.5c-35 -2.33301 -72 -4.16602 -111 -5.49902
s-78.833 -2.5 -119.5 -3.5s-80.334 -1.5 -119.001 -1.5h-30h-68h-93c-34.667 0 -69.667 0.166992 -105 0.5s-70 0.5 -104 0.5h-91h-64h-25c-38.667 0 -75.167 6.5 -109.5 19.5s-64.833 31.833 -91.5 56.5c-30 28 -53 62.167 -69 102.5s-24 85.5 -24 135.5
c0 21.333 1.66699 44.333 5 69s7.5 49.667 12.5 75s10.333 49.833 16 73.5s11 44.834 16 63.501s9.33301 34 13 46s5.83398 18.667 6.50098 20l59 -19l-5 -16l-12.5 -44c-5 -18 -10.333 -38.333 -16 -61s-10.834 -46.167 -15.501 -70.5s-8.66699 -48.333 -12 -72
s-5 -45.167 -5 -64.5c0 -46.667 7.16699 -86.167 21.5 -118.5s32.666 -58.5 54.999 -78.5s47.333 -34.333 75 -43s55.167 -13 82.5 -13h589c21.333 0 48.833 0.166992 82.5 0.5s72.167 1.16602 115.5 2.49902s85 3.16602 125 5.49902s75.333 4.83301 106 7.5
c64.667 5.33301 118.167 19.666 160.5 42.999s71.166 55 86.499 95c8.66699 21.333 13 44.666 13 69.999c0 33.333 -7.33301 69.666 -22 108.999c-14.667 38 -35.167 76.667 -61.5 116s-58.833 79.333 -97.5 120c-70.667 74.667 -136.834 140.834 -198.501 198.501
s-115.5 106 -161.5 145s-82.167 68.5 -108.5 88.5s-39.833 30.333 -40.5 31l5 53l931 410l24 -56l-882 -389l77.5 -62.5l109.5 -94.5l135 -126z" />
    <glyph glyph-name="uni06AA.init" unicode="&#x6aa;" horiz-adv-x="1702" 
d="M991 1182c-0.666992 0 -13.0039 -3.83105 -37.0039 -11.498s-55.667 -18.667 -95 -33s-83.833 -32.333 -133.5 -54s-100.5 -46.834 -152.5 -75.501c-44 -24.667 -89.167 -52.834 -135.5 -84.501s-88.666 -67 -126.999 -106s-70.666 -81.333 -96.999 -127
s-41.833 -94.5 -46.5 -146.5h78.5c35.667 0 86.334 -0.166992 152.001 -0.5s149 -0.5 250 -0.5h372.5c68.667 0 137.667 -15.333 207 -46c30 -13.333 59.833 -29.333 89.5 -48s57.834 -39.334 84.501 -62.001c26 -22.667 49.667 -46 71 -70s39.5 -48 54.5 -72
s26.5 -47.333 34.5 -70s12 -43.667 12 -63c0 -17.333 -3 -33 -9 -47s-15 -25.667 -27 -35c-23.333 -19.333 -56 -29 -98 -29h-127l-1338 -2l1 62l1337 1h127c27.333 0 47 5 59 15c9.33301 8 14 19.667 14 35c0 19.333 -6.33301 41.833 -19 67.5s-30.167 52.167 -52.5 79.5
s-48.833 54.333 -79.5 81s-64.167 50.5 -100.5 71.5s-75 38 -116 51s-82.5 19.5 -124.5 19.5h-349h-243c-65.333 0 -117.333 0.166992 -156 0.5s-68.167 0.5 -88.5 0.5h-39.5h-10l-30 31c0 114 47 222 141 324c36 40 79 78.667 129 116s106.667 73.333 170 108
c53.333 29.333 105.333 55.166 156 77.499s96 40.833 136 55.5s72.667 25.834 98 33.501s39 11.834 41 12.501z" />
    <glyph glyph-name="uni06AA.medi" unicode="&#x6aa;" horiz-adv-x="1953" 
d="M1975 61l-0.0078125 -61.999h-58c-33.333 0 -63.166 2.33301 -89.499 7s-51.166 12 -74.499 22s-45.666 22.833 -66.999 38.5s-43.666 34.5 -66.999 56.5v-11c0 -35.333 -11.667 -62.666 -35 -81.999c-24.667 -19.333 -57.667 -29 -99 -29h-126l-1382 -2v62l1382 1h126
c28 0 48 5 60 15c8.66699 8 13 19.667 13 35c0 22 -8.16699 48.167 -24.5 78.5s-39.166 61.5 -68.499 93.5c-25.333 25.333 -52.833 50 -82.5 74s-61.167 45.167 -94.5 63.5s-68.5 33 -105.5 44s-75.833 16.5 -116.5 16.5h-349h-243c-65.333 0 -117.333 0.166992 -156 0.5
s-68.167 0.5 -88.5 0.5h-39.5h-10l-30 31c0 112.667 47 220.667 141 324c73.333 80.667 173.333 155.334 300 224.001c52.667 29.333 104.334 55.166 155.001 77.499s96 40.833 136 55.5s72.667 25.834 98 33.501s39 11.834 41 12.501l17 -59
c-0.666992 0 -13.167 -3.83301 -37.5 -11.5s-56.166 -18.667 -95.499 -33s-83.833 -32.333 -133.5 -54s-100.5 -46.834 -152.5 -75.501c-44 -24.667 -89.167 -52.834 -135.5 -84.501s-88.666 -67 -126.999 -106s-70.666 -81.333 -96.999 -127s-41.833 -94.5 -46.5 -146.5h45
h75c30.667 0 67.667 -0.166992 111 -0.5s94.666 -0.5 153.999 -0.5h205h263c68.667 0 137.667 -15.333 207 -46c30.667 -13.333 60.667 -29.333 90 -48s57.666 -39.334 84.999 -62.001c24.667 -22 48.334 -45.667 71.001 -71l6 -6c2 -2 4 -4.33301 6 -7l110 -116.5
c30.667 -31 59.667 -55.833 87 -74.5s55.5 -31.834 84.5 -39.501s63.833 -11.5 104.5 -11.5h58z" />
    <glyph glyph-name="uni06AA.fina" unicode="&#x6aa;" horiz-adv-x="2511" 
d="M2536 61l-0.00390625 -61.998h-58c-33.333 0 -63.166 2.33301 -89.5 7c-26.333 4.66699 -51.166 12 -74.5 22c-23.333 10 -45.666 22.833 -67 38.5c-21.333 15.667 -43.666 34.5 -66.999 56.5v-11c0 -35.333 -11.667 -62.666 -35 -81.999
c-24.667 -19.333 -57.667 -29 -99 -29h-126l-975 -2c-68 0.666992 -126.333 1.66699 -175 3s-91.834 3.33301 -129.501 6s-71.834 6.16699 -102.501 10.5s-62.334 10.5 -95.001 18.5c-31.333 7.33301 -63.833 17.666 -97.5 30.999s-64.667 32 -93 56
s-51.666 54.833 -69.999 92.5s-27.5 84.5 -27.5 140.5c0 32 3.5 65.333 10.5 100s14.667 66.834 23 96.501s16.166 54.334 23.499 74.001s11.333 30.5 12 32.5l57 -23l-10 -28c-6.66699 -18.667 -14.167 -41.834 -22.5 -69.501s-15.833 -57.834 -22.5 -90.501
s-10 -63.334 -10 -92.001c0 -44.667 7 -82 21 -112s32.333 -54.833 55 -74.5s48.5 -35.167 77.5 -46.5s58.5 -20.333 88.5 -27c30.667 -7.33301 60.834 -13.166 90.501 -17.499s62.834 -7.83301 99.501 -10.5s78.834 -4.5 126.501 -5.5s104.834 -1.83301 171.501 -2.5l974 1
h126c28 0 48 5 60 15c8.66699 8 13 19.667 13 35c0 22 -8.16699 48.167 -24.5 78.5s-39.166 61.5 -68.499 93.5c-2.66699 2.66699 -4.33398 4.66699 -5.00098 6c-23.333 24.667 -49.833 48.5 -79.5 71.5s-61.334 43.5 -95.001 61.5s-69.167 32.333 -106.5 43s-75 16 -113 16
h-349h-243c-65.333 0 -117.333 0.166992 -156 0.5s-68.167 0.5 -88.5 0.5h-39.5h-10l-30 31c0 112.667 47 220.667 141 324c73.333 80.667 173.333 155.334 300 224.001c52.667 29.333 104.334 55.166 155.001 77.499s96 40.833 136 55.5s72.667 25.834 98 33.501
s39 11.834 41 12.501l17 -59c-0.666992 0 -13.167 -3.83301 -37.5 -11.5s-56.166 -18.667 -95.499 -33s-83.833 -32.333 -133.5 -54s-100.5 -46.834 -152.5 -75.501c-44 -24.667 -89.167 -52.834 -135.5 -84.501s-88.666 -67 -126.999 -106s-70.666 -81.333 -96.999 -127
s-41.833 -94.5 -46.5 -146.5h45h75c30.667 0 67.667 -0.166992 111 -0.5s94.666 -0.5 153.999 -0.5h205h263c68.667 0 137.667 -15.333 207 -46c30.667 -13.333 60.667 -29.333 90 -48s57.666 -39.334 84.999 -62.001c24.667 -22 48.334 -45.667 71.001 -71l6 -6
c2 -2 4 -4.33301 6 -7l110 -116.5c30.667 -31 59.667 -55.833 87 -74.5s55.5 -31.834 84.5 -39.501s63.833 -11.5 104.5 -11.5h58z" />
    <glyph glyph-name="uni06AF" unicode="&#x6af;" horiz-adv-x="1997" arabic-form="isolated" 
d="M1577 673c82.667 -88 139.671 -173.665 171.004 -256.998c17.333 -46 26 -89.333 26 -130c0 -32.667 -5.66699 -63.334 -17 -92.001c-19.333 -52 -54.833 -93.167 -106.5 -123.5s-116.167 -48.166 -193.5 -53.499l-94.5 -6.5c-35 -2.33301 -72 -4.16602 -111 -5.49902
s-78.833 -2.5 -119.5 -3.5s-80.334 -1.5 -119.001 -1.5h-30h-68h-93c-34.667 0 -69.667 0.166992 -105 0.5s-70 0.5 -104 0.5h-91h-64h-25c-38.667 0 -75.167 6.5 -109.5 19.5s-64.833 31.833 -91.5 56.5c-30 28 -53 62.167 -69 102.5s-24 85.5 -24 135.5
c0 21.333 1.66699 44.333 5 69s7.5 49.667 12.5 75s10.333 49.833 16 73.5s11 44.834 16 63.501s9.33301 34 13 46s5.83398 18.667 6.50098 20l59 -19l-5 -16l-12.5 -44c-5 -18 -10.333 -38.333 -16 -61s-10.834 -46.167 -15.501 -70.5s-8.66699 -48.333 -12 -72
s-5 -45.167 -5 -64.5c0 -46.667 7.16699 -86.167 21.5 -118.5s32.666 -58.5 54.999 -78.5s47.333 -34.333 75 -43s55.167 -13 82.5 -13h589c21.333 0 48.833 0.166992 82.5 0.5s72.167 1.16602 115.5 2.49902s85 3.16602 125 5.49902s75.333 4.83301 106 7.5
c64.667 5.33301 118.167 19.666 160.5 42.999s71.166 55 86.499 95c8.66699 21.333 13 44.666 13 69.999c0 33.333 -7.33301 69.666 -22 108.999c-14.667 38 -35.167 76.667 -61.5 116s-58.833 79.333 -97.5 120c-70.667 74.667 -136.834 140.834 -198.501 198.501
s-115.5 106 -161.5 145s-82.167 68.5 -108.5 88.5s-39.833 30.333 -40.5 31l5 53l931 410l24 -56l-882 -389l77.5 -62.5l109.5 -94.5l135 -126zM1017.5 1429.28l806.835 345.736l27.0674 -58.3047l-839.107 -358.011z" />
    <glyph glyph-name="uni06B5.init" unicode="&#x6b5;" horiz-adv-x="573" 
d="M399 332c0 -19.333 -0.833008 -39.668 -2.5 -61.001s-5.33398 -42.5 -11.001 -63.5s-13.667 -41.5 -24 -61.5s-24.166 -38.333 -41.499 -55c-32.667 -31.333 -76.167 -54.333 -130.5 -69s-122.5 -22 -204.5 -22v61c81.333 0 145.5 7.16699 192.5 21.5
s82.333 33.833 106 58.5s38.667 53.334 45 86.001s9.5 67.667 9.5 105v1096h61v-1096zM593 2022l-220 -408h-45l-219 408h77l164 -329l168 329h75z" />
    <glyph glyph-name="uni06B5.medi" unicode="&#x6b5;" horiz-adv-x="641" 
d="M401 323c0.666992 -38 7.00098 -73.0029 19.001 -105.003s28.333 -59.667 49 -83s45.167 -41.5 73.5 -54.5s59.166 -19.5 92.499 -19.5h21v-61h-21c-42 0 -81.333 9 -118 27s-68.667 42.667 -96 74c-9.33301 10 -17.666 20.833 -24.999 32.5s-14 23.834 -20 36.501
c-6 -14.667 -13.333 -28.667 -22 -42s-19.334 -25.666 -32.001 -36.999c-32.667 -31.333 -76 -54.333 -130 -69s-122.333 -22 -205 -22v61c79.333 0 142.333 6.83301 189 20.5s82 32.334 106 56.001s39.5 51.167 46.5 82.5s10.833 65 11.5 101v1107h61v-1105zM607.001 2013
l-220 -408h-45l-219 408h77l164 -329l168 329h75z" />
    <glyph glyph-name="uni06B5.fina" unicode="&#x6b5;" horiz-adv-x="1419" 
d="M1167 330c0 -39.333 5.66602 -75.5 16.999 -108.5s27.333 -61.333 48 -85s45.334 -42 74.001 -55s60.334 -19.5 95.001 -19.5h32v-62h-32c-42.667 0 -82.334 8.16699 -119.001 24.5s-68.667 40.166 -96 71.499c-6.66699 7.33301 -13 15.666 -19 24.999v-201
c0 -72.667 -8.16699 -136 -24.5 -190s-41.166 -100.333 -74.499 -139c-19.333 -23.333 -42.333 -43.666 -69 -60.999s-56 -32 -88 -44c-68.667 -25.333 -151.667 -38 -249 -38h-72c-78 0 -149.167 17.333 -213.5 52s-116.5 83.667 -156.5 147c-28 44 -48.333 93 -61 147
c-10.667 44.667 -16 91.667 -16 141c0 10.667 0.333008 21.334 1 32.001c5.33301 136.667 46.333 285 123 445l56 -27c-69.333 -144.667 -108.333 -277 -117 -397c-1.33301 -17.333 -2 -34 -2 -50c0 -99.333 22.667 -185.333 68 -258c34 -54 78.667 -95.833 134 -125.5
s116.666 -44.5 183.999 -44.5h72c170 0 290 40.333 360 121c55.333 64 83 160.333 83 289v1508h62v-1098zM1353 2013l-220 -408h-45l-219 408h77l164 -329l168 329h75z" />
    <glyph glyph-name="uni06BA" unicode="&#x6ba;" horiz-adv-x="1600" arabic-form="isolated" 
d="M909 -552l-235.998 -0.000976562c-90 0 -172.167 19.833 -246.5 59.5s-134.5 96.167 -180.5 169.5c-32.667 52 -56.334 110.333 -71.001 175c-13.333 54.667 -20 112.667 -20 174c0 10.667 0.333008 21.334 1 32.001c7.33301 162 57 338.667 149 530l55 -27
c-37.333 -78 -66.5 -150.5 -87.5 -217.5s-35.833 -128.5 -44.5 -184.5c-8 -46.667 -12 -90 -12 -130c0 -8.66699 0.5 -26.667 1.5 -54s5.5 -59.5 13.5 -96.5s18 -69.5 30 -97.5s24.333 -51.667 37 -71c40 -64.667 92.667 -114.334 158 -149.001s137.666 -52 216.999 -52h236
c169.333 0 289.333 40.667 360 122c55.333 64 83 160 83 288v741h61v-741c0 -143.333 -32.667 -252.666 -98 -327.999c-40.667 -47.333 -93 -82.333 -157 -105c-70 -25.333 -153 -38 -249 -38z" />
    <glyph glyph-name="uni06BE" unicode="&#x6be;" horiz-adv-x="1651" arabic-form="isolated" 
d="M672 126c30 10.667 57 22.668 81 36.001c122.667 65.333 184 161.333 184 288c0 43.333 -7.66699 82.833 -23 118.5s-35.5 66.167 -60.5 91.5s-53.167 45 -84.5 59s-63 21 -95 21c-53.333 0 -98.5 -8.33301 -135.5 -25s-67 -38.334 -90 -65.001
s-39.5 -56.167 -49.5 -88.5s-15 -64.5 -15 -96.5c0 -40 6.83301 -76 20.5 -108s33 -61.5 58 -88.5s55.333 -52 91 -75s75.167 -45.5 118.5 -67.5zM886 978.001l147.505 -156.998l125 -137c37.667 -42.667 71.167 -82.667 100.5 -120s54.333 -72.666 75 -105.999
c44 -69.333 68.667 -133 74 -191c0.666992 -8.66699 1 -17.334 1 -26.001c0 -50 -13 -100.333 -39 -151c-19.333 -36 -47.166 -66.667 -83.499 -92s-78.5 -43.333 -126.5 -54c-13.333 -3.33301 -28.333 -6 -45 -8s-34.667 -3 -54 -3c-34 0 -72 4.16699 -114 12.5
s-87.667 24.166 -137 47.499l-72.5 33.5l-70.5 33.5c-31.333 -10 -67.333 -17.333 -108 -22c-29.333 -4 -60.666 -6 -93.999 -6c-12.667 0 -34 0.666992 -64 2s-70.833 7 -122.5 17s-103.834 25 -156.501 45l20 56c57.333 -18.667 107.666 -33 150.999 -43
s82.333 -16.667 117 -20c19.333 -2 37.666 -3 54.999 -3c14 0 31.167 1 51.5 3s44.166 6.33301 71.499 13c-22.667 12.667 -44 25.5 -64 38.5s-38.667 26.5 -56 40.5c-50 40 -86.833 82.833 -110.5 128.5s-35.5 97.5 -35.5 155.5c0 45.333 7.33301 87.833 22 127.5
s36 74.5 64 104.5c32 34 70.333 59.833 115 77.5s95 26.5 151 26.5c40 0 79.333 -8.33301 118 -25s73.334 -41 104.001 -73c33.333 -33.333 58.666 -71.666 75.999 -114.999s26 -89.333 26 -138c0 -74.667 -18.333 -141.667 -55 -201
c-36.667 -57.333 -90.334 -104.333 -161.001 -141c-11.333 -6 -23.333 -12 -36 -18l90 -42c44.667 -20.667 85.834 -34.834 123.501 -42.501s71.5 -11.5 101.5 -11.5c16.667 0 32.167 0.833008 46.5 2.5s27.166 4.16699 38.499 7.5c39.333 8.66699 73.666 23 102.999 43
s51.333 44 66 72c13.333 24.667 22.666 49 27.999 73c3.33301 15.333 5 31.333 5 48c0 8 -0.833008 20.167 -2.5 36.5s-8 37.666 -19 63.999s-25.833 54.833 -44.5 85.5c-40 64 -97.333 137.167 -172 219.5l-269 289.5z" />
    <glyph glyph-name="uni06C0" unicode="&#x6c0;" horiz-adv-x="1042" arabic-form="isolated" 
d="M523 0c-52.667 0 -102.001 8.49707 -148.001 25.4971s-86.167 40.167 -120.5 69.5s-61.5 63.5 -81.5 102.5s-30 80.833 -30 125.5c0 40 5.66699 77.833 17 113.5s25.5 68.667 42.5 99s35.167 57.833 54.5 82.5l52 65c3.33301 4 6.33301 7.83301 9 11.5
s5.66699 7.16699 9 10.5c11.333 14 24 28.833 38 44.5l42 46l40 42l32 33.5l-69.5 76c-18.333 20 -27.833 30.333 -28.5 31l45 41c0.666992 0 8.83398 -8.5 24.501 -25.5l59.5 -65.5l80 -89l85 -96l90 -107.5c29.333 -36.333 54.333 -72.166 75 -107.499
c21.333 -36 37 -70.167 47 -102.5s15 -65.166 15 -98.499c0 -45.333 -9.83301 -88.166 -29.5 -128.499s-48.167 -75.833 -85.5 -106.5c-36 -30 -76.5 -52.833 -121.5 -68.5s-92.5 -23.5 -142.5 -23.5zM519.999 824.997l-31.501 -32.998l-38.5 -40.5l-40 -43.5
c-13.333 -14.667 -25.333 -28.667 -36 -42l-8.5 -10.5l-9.5 -11.5l-49.5 -61c-17.667 -22.667 -34.167 -47.5 -49.5 -74.5s-28 -56 -38 -87s-15 -63.833 -15 -98.5c0 -36 8.33301 -69.833 25 -101.5s39.5 -59.334 68.5 -83.001s62.833 -42.334 101.5 -56.001
s80 -20.5 124 -20.5c44.667 0 86.334 6.83301 125.001 20.5s72.334 32.5 101.001 56.5s51.167 52 67.5 84s24.5 66.667 24.5 104c0 28 -4.5 55.667 -13.5 83s-22.333 56 -40 86s-39.834 61.833 -66.501 95.5l-92 111.5l-54 61.5zM590.998 1703
c12.667 0 26.1689 -0.832031 40.502 -2.49902s29.166 -4.5 44.499 -8.5l-15 -60c-24 6.66699 -47.333 10 -70 10c-41.333 0 -75.333 -11.333 -102 -34c-17.333 -15.333 -31 -34.333 -41 -57s-15.333 -47.334 -16 -74.001c44 -7.33301 78.833 -13.333 104.5 -18
s45.5 -8.66699 59.5 -12c5.33301 -1.33301 11.333 -3 18 -5s13 -4.83301 19 -8.5s11 -8.5 15 -14.5s6 -13.667 6 -23c0 -6 -0.166992 -13.167 -0.5 -21.5s-1.5 -17.666 -3.5 -27.999s-5 -21 -9 -32s-9.66699 -21.833 -17 -32.5c-34 -49.333 -95 -74 -183 -74h-109v61h109
c66.667 0 111 16 133 48c7.33301 11.333 12.166 23.166 14.499 35.499s3.5 23.166 3.5 32.499c-12 3.33301 -34.833 8 -68.5 14l-125.5 22l-24 3l-2 24c-0.666992 8.66699 -1 17 -1 25c0 32.667 6 65.334 18 98.001s32 60.667 60 84c14.667 12 33.5 23 56.5 33
s51.5 15 85.5 15z" />
    <glyph glyph-name="uni06C1" unicode="&#x6c1;" horiz-adv-x="1042" arabic-form="isolated" 
d="M523 0c-52.667 0 -102.001 8.49707 -148.001 25.4971s-86.167 40.167 -120.5 69.5s-61.5 63.5 -81.5 102.5s-30 80.833 -30 125.5c0 40 5.66699 77.833 17 113.5s25.5 68.667 42.5 99s35.167 57.833 54.5 82.5l52 65c3.33301 4 6.33301 7.83301 9 11.5
s5.66699 7.16699 9 10.5c11.333 14 24 28.833 38 44.5l42 46l40 42l32 33.5l-69.5 76c-18.333 20 -27.833 30.333 -28.5 31l45 41c0.666992 0 8.83398 -8.5 24.501 -25.5l59.5 -65.5l80 -89l85 -96l90 -107.5c29.333 -36.333 54.333 -72.166 75 -107.499
c21.333 -36 37 -70.167 47 -102.5s15 -65.166 15 -98.499c0 -45.333 -9.83301 -88.166 -29.5 -128.499s-48.167 -75.833 -85.5 -106.5c-36 -30 -76.5 -52.833 -121.5 -68.5s-92.5 -23.5 -142.5 -23.5zM519.999 824.997l-31.501 -32.998l-38.5 -40.5l-40 -43.5
c-13.333 -14.667 -25.333 -28.667 -36 -42l-8.5 -10.5l-9.5 -11.5l-49.5 -61c-17.667 -22.667 -34.167 -47.5 -49.5 -74.5s-28 -56 -38 -87s-15 -63.833 -15 -98.5c0 -36 8.33301 -69.833 25 -101.5s39.5 -59.334 68.5 -83.001s62.833 -42.334 101.5 -56.001
s80 -20.5 124 -20.5c44.667 0 86.334 6.83301 125.001 20.5s72.334 32.5 101.001 56.5s51.167 52 67.5 84s24.5 66.667 24.5 104c0 28 -4.5 55.667 -13.5 83s-22.333 56 -40 86s-39.834 61.833 -66.501 95.5l-92 111.5l-54 61.5z" />
    <glyph glyph-name="uni06C2.fina" unicode="&#x6c2;" horiz-adv-x="1290" 
d="M708 1018l31.498 -132.498l27.5 -118.5l25 -106.5l23.5 -98.5l23 -95l23.5 -95c14.667 -57.333 36.5 -105.833 65.5 -145.5s61.333 -71.834 97 -96.501s72.834 -42.334 111.501 -53.001s75.667 -16 111 -16h58v-61h-58c-48 -0 -94.833 7.33301 -140.5 22
s-87.5 36 -125.5 64c-44 32 -81 70.833 -111 116.5s-52.333 97.167 -67 154.5c-8.66699 32 -16.834 63.667 -24.501 95l-23 95.5l-23.5 99l-25 106.5l-25 105l-27 118c-12.667 -2.66699 -28.167 -5.66699 -46.5 -9s-36.833 -7 -55.5 -11l-53.5 -11
c-17 -3.33301 -30.5 -6.33301 -40.5 -9c-86.667 -20 -149 -63.333 -187 -130c-18 -32 -30.333 -68 -37 -108c-5.33301 -30.667 -8 -62.667 -8 -96c0 -10 0.5 -28.667 1.5 -56s5.5 -64.166 13.5 -110.499s17.5 -91.666 28.5 -135.999s22.667 -86.666 35 -126.999l34.5 -108.5
l-59 -18c-19.333 60.667 -38.666 125.167 -57.999 193.5s-34.333 137.166 -45 206.499c-8.66699 55.333 -13 106 -13 152c0 25.333 2.33301 59.666 7 102.999s20.334 88.666 47.001 135.999c46.667 82 122 135 226 159c13.333 3.33301 32.333 7.5 57 12.5l74 14.5l65 12.5
c18.667 3.66699 29 5.5 31 5.5zM577.998 1293l-425.997 -132.999l5 66l215 67c-11.333 4 -22.666 9 -33.999 15c-19.333 10 -35.5 21.167 -48.5 33.5s-23.833 24.666 -32.5 36.999s-15.334 23.833 -20.001 34.5s-8 19.334 -10 26.001c-5.33301 18 -8 35.333 -8 52
c0 8.66699 1.33301 21.167 4 37.5s10.167 34.5 22.5 54.5s28 37.167 47 51.5s39.167 24.833 60.5 31.5c20.667 6 41.334 9 62.001 9c10 0 25.5 -1.5 46.5 -4.5s48.167 -8.16699 81.5 -15.5l11 -3l-14 -60l-12 3c-30 7.33301 -58 13 -84 17c-10 1.33301 -19.667 2 -29 2
c-15.333 0 -30 -2 -44 -6c-14.667 -4.66699 -28.334 -11.834 -41.001 -21.501s-23.167 -21.167 -31.5 -34.5s-13.833 -28 -16.5 -44c-0.666992 -5.33301 -1 -11 -1 -17c0 -11.333 1.66699 -22.666 5 -33.999c1.33301 -4.66699 3.66602 -10.834 6.99902 -18.501
s8.16602 -16 14.499 -25s14.166 -18 23.499 -27s21 -17.167 35 -24.5c30 -15.333 64 -23 102 -23c28.667 0 60 4.33301 94 13l86 26l18 -59z" />
    <glyph glyph-name="uni06C3.fina" unicode="&#x6c3;" horiz-adv-x="1290" 
d="M708 1018l31.498 -132.498l27.5 -118.5l25 -106.5l23.5 -98.5l23 -95l23.5 -95c14.667 -57.333 36.5 -105.833 65.5 -145.5s61.333 -71.834 97 -96.501s72.834 -42.334 111.501 -53.001s75.667 -16 111 -16h58v-61h-58c-48 -0 -94.833 7.33301 -140.5 22
s-87.5 36 -125.5 64c-44 32 -81 70.833 -111 116.5s-52.333 97.167 -67 154.5c-8.66699 32 -16.834 63.667 -24.501 95l-23 95.5l-23.5 99l-25 106.5l-25 105l-27 118c-12.667 -2.66699 -28.167 -5.66699 -46.5 -9s-36.833 -7 -55.5 -11l-53.5 -11
c-17 -3.33301 -30.5 -6.33301 -40.5 -9c-86.667 -20 -149 -63.333 -187 -130c-18 -32 -30.333 -68 -37 -108c-5.33301 -30.667 -8 -62.667 -8 -96c0 -10 0.5 -28.667 1.5 -56s5.5 -64.166 13.5 -110.499s17.5 -91.666 28.5 -135.999s22.667 -86.666 35 -126.999l34.5 -108.5
l-59 -18c-19.333 60.667 -38.666 125.167 -57.999 193.5s-34.333 137.166 -45 206.499c-8.66699 55.333 -13 106 -13 152c0 25.333 2.33301 59.666 7 102.999s20.334 88.666 47.001 135.999c46.667 82 122 135 226 159c13.333 3.33301 32.333 7.5 57 12.5l74 14.5l65 12.5
c18.667 3.66699 29 5.5 31 5.5zM559.998 1374l89 89l88 -89l-88 -88zM223.998 1374l89 89l88 -89l-88 -88z" />
    <glyph glyph-name="uni06C6.fina" unicode="&#x6c6;" horiz-adv-x="1044" arabic-form="final" 
d="M830 61l-0.00195312 255.001c0 158 -29 271.667 -87 341c-47.333 55.333 -117 83 -209 83c-36 0 -71.667 -6.66699 -107 -20s-67.166 -34.833 -95.499 -64.5s-51.166 -68.5 -68.499 -116.5s-26 -106.667 -26 -176c0 -111.333 39.667 -193 119 -245
c20 -13.333 40.167 -23.833 60.5 -31.5s39 -13.334 56 -17.001s31.667 -6 44 -7s20.5 -1.5 24.5 -1.5h289zM533.998 801.001c111.333 0 196.668 -34.9961 256.001 -104.996c67.333 -79.333 101 -206 101 -380v-255h168v-61h-168v-82c0 -84 -15 -156 -45 -216
s-75 -109.333 -135 -148c-56 -36 -124.833 -62.5 -206.5 -79.5s-178.834 -25.5 -291.501 -25.5v61c106.667 0 198.667 8 276 24s141.333 40.667 192 74s88.167 75.666 112.5 126.999s36.5 112.333 36.5 183v82h-289c-14.667 0 -30.834 1.16699 -48.501 3.5
s-36.167 6.16602 -55.5 11.499s-38.833 12.166 -58.5 20.499s-38.834 18.833 -57.501 31.5c-16.667 10.667 -33.667 24.5 -51 41.5s-33 37.5 -47 61.5s-25.5 51.833 -34.5 83.5s-13.5 68.167 -13.5 109.5c0 73.333 10 138.666 30 195.999
c18.667 54 45.334 99.667 80.001 137c32 34 69.333 60 112 78s88.334 27 137.001 27zM777 1473l-220 -408h-45l-219 408h77l164 -329l168 329h75z" />
    <glyph glyph-name="uni06CC" unicode="&#x6cc;" horiz-adv-x="1671" arabic-form="isolated" 
d="M1350 809c62 0 125.67 -9 191.003 -27l-17 -59c-59.333 16 -117 24 -173 24c-68.667 0 -133.334 -11.667 -194.001 -35s-114.334 -57.666 -161.001 -102.999c-29.333 -28.667 -54 -60 -74 -94s-35.5 -69.667 -46.5 -107s-16.833 -76 -17.5 -116v-15
c0 -35.333 4 -70.666 12 -105.999l54.5 -13.5l52.5 -12.5l232.5 -58c62.333 -16 112.166 -32 149.499 -48c14.667 -6 29.167 -13.167 43.5 -21.5s26.833 -18.5 37.5 -30.5s18.667 -25.667 24 -41c2.66699 -8 4 -16.667 4 -26s-1.33301 -19.333 -4 -30
c-1.33301 -5.33301 -2.33301 -10.833 -3 -16.5s-1.66699 -11.5 -3 -17.5l-14.5 -67.5c-5 -23 -11.5 -46 -19.5 -69s-17.667 -45.667 -29 -68s-25.666 -43.5 -42.999 -63.5c-78 -92.667 -208.333 -139 -391 -139h-246c-92.667 0 -177 20.5 -253 61.5
s-137.667 99.167 -185 174.5c-16 24.667 -29.833 51 -41.5 79s-21.5 57.667 -29.5 89c-7.33301 32 -12.666 65.333 -15.999 100c-2.66699 24.667 -4 50 -4 76c0 10.667 0.333008 21.334 1 32.001c5.33301 159.333 53.666 333.666 144.999 522.999l55 -27
c-41.333 -85.333 -73.5 -167.5 -96.5 -246.5s-36.833 -154.167 -41.5 -225.5c-1.33301 -20.667 -2 -40.667 -2 -60c0 -49.333 5.66699 -100.5 17 -153.5s33 -104.5 65 -154.5c41.333 -66 95.5 -117 162.5 -153s141.5 -54 223.5 -54h246c60.667 0 113 5 157 15
s81.167 23.5 111.5 40.5s55.166 37.167 74.499 60.5s35 48.166 47 74.499s21.333 53.833 28 82.5s12.667 57 18 85c1.33301 6 2.5 11.833 3.5 17.5s2.16699 11.167 3.5 16.5c1.33301 6.66699 1.83301 13.167 1.5 19.5s-2.66602 12.666 -6.99902 18.999s-11.5 13 -21.5 20
s-24 14.167 -42 21.5c-36 15.333 -84.333 30.833 -145 46.5l-228 56.5c-19.333 5.33301 -40 10.666 -62 15.999l-81 19c-13.333 52 -20.333 102.667 -21 152v8c0 46.667 5.66699 92 17 136s28.666 86 51.999 126s52 76.667 86 110c35.333 34.667 74.5 63.834 117.5 87.501
s89.167 41.5 138.5 53.5c44.667 10.667 91.667 16 141 16z" />
    <glyph glyph-name="uni06CE.init" unicode="&#x6ce;" horiz-adv-x="873" 
d="M639 764l21.499 -93c7.66699 -34 14.667 -69.333 21 -106s11.833 -73.5 16.5 -110.5s7.66699 -72.5 9 -106.5v-12c0 -48 -8 -93.833 -24 -137.5s-40 -81.834 -72 -114.501c-26.667 -27.333 -56.167 -48.166 -88.5 -62.499s-66.166 -21.5 -101.499 -21.5h-436v61h436
c26.667 0 52.5 5.66699 77.5 17s47.833 27.666 68.5 48.999c26 26.667 46 59 60 97c12 34.667 18 71.667 18 111v12c-0.666992 32.667 -3.16699 66.834 -7.5 102.501s-9.83301 71.167 -16.5 106.5s-13.667 69.5 -21 102.5l-21 91.5zM481.999 -342l89 89l88 -89l-88 -88z
M145.999 -342l89 89l88 -89l-88 -88zM613.999 1437l-220 -408h-45l-219 408h77l164 -329l168 329h75z" />
    <glyph glyph-name="uni06CE.medi" unicode="&#x6ce;" horiz-adv-x="1049" 
d="M655 286c0 -41.333 7.49902 -76.332 22.499 -104.999s34.5 -51.834 58.5 -69.501s50.667 -30.5 80 -38.5s58.333 -12 87 -12h161v-61h-161c-41.333 0 -80.166 6 -116.499 18s-68.5 29.333 -96.5 52c-26.667 22 -48.334 48.333 -65.001 79
c-10.667 -20.667 -23.334 -39 -38.001 -55c-59.333 -62.667 -151.333 -94 -276 -94h-326v61h326c58 0 105.333 6.83301 142 20.5s65.334 31 86.001 52s34.834 44.5 42.501 70.5s11.5 51.667 11.5 77v365h62v-360zM560.999 -333.999l89 89l88 -89l-88 -88zM224.999 -333.999
l89 89l88 -89l-88 -88zM886.999 1269l-220 -408h-45l-219 408h77l164 -329l168 329h75z" />
    <glyph glyph-name="uni06CE.fina" unicode="&#x6ce;" horiz-adv-x="1779" 
d="M355 557c-41.333 -86.667 -73.833 -170.173 -97.5 -250.506s-38.167 -156.166 -43.5 -227.499c-1.33301 -20.667 -2 -40.667 -2 -60c0 -50 5.5 -101.5 16.5 -154.5s32.167 -104.5 63.5 -154.5c40 -64 92.5 -113.333 157.5 -148s137.5 -52 217.5 -52h249
c144.667 0 261 16.667 349 50c114 42.667 171 112.334 171 209.001c0 43.333 -9.16699 78.5 -27.5 105.5s-47.5 49.167 -87.5 66.5c-19.333 8 -41 15.167 -65 21.5s-51.833 11.833 -83.5 16.5s-67.667 8.83398 -108 12.501s-85.833 6.5 -136.5 8.5l1 61h865v-61h-455
c2.66699 -1.33301 4.66699 -2 6 -2c50 -21.333 88 -50.666 114 -87.999c25.333 -37.333 38 -84.333 38 -141c0 -66 -20.667 -122.667 -62 -170c-34 -39.333 -83.333 -71.666 -148 -96.999c-96 -35.333 -219.667 -53 -371 -53h-249c-90.667 0 -173 19.833 -247 59.5
s-134 95.834 -180 168.501c-32 51.333 -55.333 109 -70 173c-12.667 52 -19 107.333 -19 166c0 12.667 0.333008 25.667 1 39c6 160 55.333 336.333 148 529zM1187 821.994l-220 -408h-45l-219 408h77l164 -329l168 329h75z" />
    <glyph glyph-name="uni06D2" unicode="&#x6d2;" horiz-adv-x="1651" arabic-form="isolated" 
d="M891 0l-439.001 0.000976562c-38 0 -73.167 -6.33301 -105.5 -19s-60.333 -30 -84 -52s-42.167 -48 -55.5 -78s-20 -62.667 -20 -98c0 -36 6.66699 -69 20 -99s31.666 -55.833 54.999 -77.5s51.333 -38.5 84 -50.5s68 -18 106 -18h1180v-62h-1180
c-46 0 -89.333 7.5 -130 22.5s-76 37.167 -106 66.5c-29.333 28.667 -51.666 61.667 -66.999 99s-23 77 -23 119s8 81.667 24 119s39 70.666 69 99.999c30.667 29.333 65.834 51.5 105.501 66.5s82.167 22.5 127.5 22.5h439v-61z" />
    <glyph glyph-name="uni06D3" unicode="&#x6d3;" horiz-adv-x="1651" arabic-form="isolated" 
d="M891 0l-439.001 0.000976562c-38 0 -73.167 -6.33301 -105.5 -19s-60.333 -30 -84 -52s-42.167 -48 -55.5 -78s-20 -62.667 -20 -98c0 -36 6.66699 -69 20 -99s31.666 -55.833 54.999 -77.5s51.333 -38.5 84 -50.5s68 -18 106 -18h1180v-62h-1180
c-46 0 -89.333 7.5 -130 22.5s-76 37.167 -106 66.5c-29.333 28.667 -51.666 61.667 -66.999 99s-23 77 -23 119s8 81.667 24 119s39 70.666 69 99.999c30.667 29.333 65.834 51.5 105.501 66.5s82.167 22.5 127.5 22.5h439v-61zM610.999 469.001l-425.997 -132.999l5 66
l215 67c-11.333 4 -22.666 9 -33.999 15c-19.333 10 -35.5 21.167 -48.5 33.5s-23.833 24.666 -32.5 36.999s-15.334 23.833 -20.001 34.5s-8 19.334 -10 26.001c-5.33301 18 -8 35.333 -8 52c0 8.66699 1.33301 21.167 4 37.5s10.167 34.5 22.5 54.5s28 37.167 47 51.5
s39.167 24.833 60.5 31.5c20.667 6 41.334 9 62.001 9c10 0 25.5 -1.5 46.5 -4.5s48.167 -8.16699 81.5 -15.5l11 -3l-14 -60l-12 3c-30 7.33301 -58 13 -84 17c-10 1.33301 -19.667 2 -29 2c-15.333 0 -30 -2 -44 -6c-14.667 -4.66699 -28.334 -11.834 -41.001 -21.501
s-23.167 -21.167 -31.5 -34.5s-13.833 -28 -16.5 -44c-0.666992 -5.33301 -1 -11 -1 -17c0 -11.333 1.66699 -22.666 5 -33.999c1.33301 -4.66699 3.66602 -10.834 6.99902 -18.501s8.16602 -16 14.499 -25s14.166 -18 23.499 -27s21 -17.167 35 -24.5
c30 -15.333 64 -23 102 -23c28.667 0 60 4.33301 94 13l86 26l18 -59z" />
    <glyph glyph-name="uni0671.fina" unicode="&#x671;" horiz-adv-x="647" arabic-form="final" 
d="M308 1274l60.999 0.000976562v-942c0 -43.333 5.16699 -81.833 15.5 -115.5s26.833 -62 49.5 -85s51.834 -40.5 87.501 -52.5s78.5 -18 128.5 -18h15v-61h-30c-56 0 -104.333 8.5 -145 25.5s-75 38.833 -103 65.5c-17.333 16.667 -31.333 35 -42 55
s-18.667 40.5 -24 61.5s-8.83301 42.167 -10.5 63.5s-2.5 41.666 -2.5 60.999v942zM576.999 1760c24.667 -38 37 -89.6641 37 -154.997c0 -20.667 -2.5 -38.834 -7.5 -54.501s-11.333 -29.334 -19 -41.001s-16.334 -21.5 -26.001 -29.5s-19.167 -14.333 -28.5 -19
c-12 -6.66699 -23.833 -11.834 -35.5 -15.501s-22.667 -6.5 -33 -8.5s-19.333 -3.16699 -27 -3.5s-13.167 -0.5 -16.5 -0.5h-417l23 61h109l19 32l21 36c0.666992 1.33301 1.83398 3.33301 3.50098 6l9.5 15.5l21 34l38 61.5c13.333 20 27.5 38.833 42.5 56.5
s31 33.167 48 46.5s34.833 23.833 53.5 31.5s38.334 11.5 59.001 11.5c27.333 0 51.666 -5.5 72.999 -16.5s39 -27.167 53 -48.5zM420.999 1494c5.33301 0 15.165 0.833008 29.498 2.5s29 6.16699 44 13.5s28.333 18.333 40 33s17.5 35.334 17.5 62.001
c0 39.333 -4.16699 69.666 -12.5 90.999s-18 37 -29 47s-22.167 15.833 -33.5 17.5s-20 2.5 -26 2.5c-22 0 -43.167 -7.16699 -63.5 -21.5s-39.666 -32.833 -57.999 -55.5s-36 -47.667 -53 -75s-32.833 -54 -47.5 -80c-7.33301 -14 -14.666 -26.333 -21.999 -37h214z" />
    <glyph glyph-name="uni067E.fina" unicode="&#x67e;" horiz-adv-x="2241" arabic-form="final" 
d="M2256 61v-61h-39c-41.333 0 -80.166 6 -116.499 18s-68.5 29.333 -96.5 52c-26.667 22 -48.334 48.333 -65.001 79c-10.667 -20.667 -23.334 -39 -38.001 -55c-58.667 -62 -148.667 -93.333 -270 -94h-1214c-38.667 0 -75.167 6.5 -109.5 19.5s-64.833 31.833 -91.5 56.5
c-62 58 -93 137.667 -93 239c0 21.333 1.66699 44.333 5 69s7.5 49.5 12.5 74.5s10.333 49.333 16 73s11 44.834 16 63.501s9.33301 34 13 46s5.83398 18.667 6.50098 20l59 -19l-5 -16l-12.5 -44c-5 -18 -10.333 -38.333 -16 -61s-10.834 -46 -15.501 -70
s-8.66699 -47.833 -12 -71.5s-5 -45.167 -5 -64.5c0 -46.667 7.16699 -86.167 21.5 -118.5s32.666 -58.5 54.999 -78.5s47.333 -34.5 75 -43.5s55.167 -13.5 82.5 -13.5h1206c58 0 105.333 6.83301 142 20.5s65.334 31 86.001 52s34.834 44.5 42.501 70.5
s11.5 51.667 11.5 77v347h62v-342c0 -41.333 7.5 -76.333 22.5 -105s34.5 -51.834 58.5 -69.501s50.667 -30.5 80 -38.5s58.333 -12 87 -12h39zM1250 -256l88 -88l-88 -89l-89 89zM914 -256l88 -88l-88 -89l-89 89zM1081 -453l88 -88l-88 -89l-89 89z" />
    <glyph glyph-name="uni067E.init" unicode="&#x67e;" horiz-adv-x="873" arabic-form="initial" 
d="M639 764l21.499 -93c7.66699 -34 14.667 -69.333 21 -106s11.833 -73.5 16.5 -110.5s7.66699 -72.5 9 -106.5v-12c0 -48 -8 -93.833 -24 -137.5s-40 -81.834 -72 -114.501c-26.667 -27.333 -56.167 -48.166 -88.5 -62.499s-66.166 -21.5 -101.499 -21.5h-436v61h436
c26.667 0 52.5 5.66699 77.5 17s47.833 27.666 68.5 48.999c26 26.667 46 59 60 97c12 34.667 18 71.667 18 111v12c-0.666992 32.667 -3.16699 66.834 -7.5 102.501s-9.83301 71.167 -16.5 106.5s-13.667 69.5 -21 102.5l-21 91.5zM594.999 -259l88 -88l-88 -89l-89 89z
M258.999 -259l88 -88l-88 -89l-89 89zM425.999 -456l88 -88l-88 -89l-89 89z" />
    <glyph glyph-name="uni067E.medi" unicode="&#x67e;" horiz-adv-x="1049" arabic-form="medial" 
d="M655 286c0 -41.333 7.49902 -76.332 22.499 -104.999s34.5 -51.834 58.5 -69.501s50.667 -30.5 80 -38.5s58.333 -12 87 -12h161v-61h-161c-41.333 0 -80.166 6 -116.499 18s-68.5 29.333 -96.5 52c-26.667 22 -48.334 48.333 -65.001 79
c-10.667 -20.667 -23.334 -39 -38.001 -55c-59.333 -62.667 -151.333 -94 -276 -94h-326v61h326c58 0 105.333 6.83301 142 20.5s65.334 31 86.001 52s34.834 44.5 42.501 70.5s11.5 51.667 11.5 77v365h62v-360zM653.999 -253.999l88 -88l-88 -89l-89 89zM317.999 -253.999
l88 -88l-88 -89l-89 89zM484.999 -450.999l88 -88l-88 -89l-89 89z" />
    <glyph glyph-name="uni0679.fina" unicode="&#x679;" horiz-adv-x="2241" arabic-form="final" 
d="M2256 61v-61h-39c-41.333 0 -80.166 6 -116.499 18s-68.5 29.333 -96.5 52c-26.667 22 -48.334 48.333 -65.001 79c-10.667 -20.667 -23.334 -39 -38.001 -55c-58.667 -62 -148.667 -93.333 -270 -94h-1214c-38.667 0 -75.167 6.5 -109.5 19.5s-64.833 31.833 -91.5 56.5
c-62 58 -93 137.667 -93 239c0 21.333 1.66699 44.333 5 69s7.5 49.5 12.5 74.5s10.333 49.333 16 73s11 44.834 16 63.501s9.33301 34 13 46s5.83398 18.667 6.50098 20l59 -19l-5 -16l-12.5 -44c-5 -18 -10.333 -38.333 -16 -61s-10.834 -46 -15.501 -70
s-8.66699 -47.833 -12 -71.5s-5 -45.167 -5 -64.5c0 -46.667 7.16699 -86.167 21.5 -118.5s32.666 -58.5 54.999 -78.5s47.333 -34.5 75 -43.5s55.167 -13.5 82.5 -13.5h1206c58 0 105.333 6.83301 142 20.5s65.334 31 86.001 52s34.834 44.5 42.501 70.5
s11.5 51.667 11.5 77v347h62v-342c0 -41.333 7.5 -76.333 22.5 -105s34.5 -51.834 58.5 -69.501s50.667 -30.5 80 -38.5s58.333 -12 87 -12h39zM1380 1018c24.667 -38 37.001 -89.6641 37.001 -154.997c0 -20.667 -2.5 -38.834 -7.5 -54.501s-11.333 -29.334 -19 -41.001
s-16.334 -21.5 -26.001 -29.5s-19.167 -14.333 -28.5 -19c-12 -6.66699 -23.833 -11.834 -35.5 -15.501s-22.667 -6.5 -33 -8.5s-19.333 -3.16699 -27 -3.5s-13.167 -0.5 -16.5 -0.5h-390v61h105l19 32l21 36c1.33301 3.33301 3 6.33301 5 9s3.66699 5.66699 5 9v495h62
v-396c13.333 20 27.5 38.833 42.5 56.5s31 33.167 48 46.5s34.833 23.833 53.5 31.5s38.334 11.5 59.001 11.5c27.333 0 51.666 -5.5 72.999 -16.5s39 -27.167 53 -48.5zM1224 752.003c5.33301 0 15.165 0.833008 29.498 2.5s29 6.16699 44 13.5s28.333 18.333 40 33
s17.5 35.334 17.5 62.001c0 39.333 -4.16699 69.666 -12.5 90.999s-18 37 -29 47s-22.167 15.833 -33.5 17.5s-20 2.5 -26 2.5c-22 0 -43.167 -7.16699 -63.5 -21.5s-39.666 -32.833 -57.999 -55.5s-36 -47.667 -53 -75s-32.833 -54 -47.5 -80
c-7.33301 -14 -14.666 -26.333 -21.999 -37h214z" />
    <glyph glyph-name="uni0679.init" unicode="&#x679;" horiz-adv-x="873" arabic-form="initial" 
d="M639 764l21.499 -93c7.66699 -34 14.667 -69.333 21 -106s11.833 -73.5 16.5 -110.5s7.66699 -72.5 9 -106.5v-12c0 -48 -8 -93.833 -24 -137.5s-40 -81.834 -72 -114.501c-26.667 -27.333 -56.167 -48.166 -88.5 -62.499s-66.166 -21.5 -101.499 -21.5h-436v61h436
c26.667 0 52.5 5.66699 77.5 17s47.833 27.666 68.5 48.999c26 26.667 46 59 60 97c12 34.667 18 71.667 18 111v12c-0.666992 32.667 -3.16699 66.834 -7.5 102.501s-9.83301 71.167 -16.5 106.5s-13.667 69.5 -21 102.5l-21 91.5zM730.999 1328
c24.667 -38 37.001 -89.6641 37.001 -154.997c0 -20.667 -2.5 -38.834 -7.5 -54.501s-11.333 -29.334 -19 -41.001s-16.334 -21.5 -26.001 -29.5s-19.167 -14.333 -28.5 -19c-12 -6.66699 -23.833 -11.834 -35.5 -15.501s-22.667 -6.5 -33 -8.5s-19.333 -3.16699 -27 -3.5
s-13.167 -0.5 -16.5 -0.5h-390v61h105l19 32l21 36c1.33301 3.33301 3 6.33301 5 9s3.66699 5.66699 5 9v495h62v-396c13.333 20 27.5 38.833 42.5 56.5s31 33.167 48 46.5s34.833 23.833 53.5 31.5s38.334 11.5 59.001 11.5c27.333 0 51.666 -5.5 72.999 -16.5
s39 -27.167 53 -48.5zM575 1062c5.33301 0 15.165 0.833008 29.498 2.5s29 6.16699 44 13.5s28.333 18.333 40 33s17.5 35.334 17.5 62.001c0 39.333 -4.16699 69.666 -12.5 90.999s-18 37 -29 47s-22.167 15.833 -33.5 17.5s-20 2.5 -26 2.5
c-22 0 -43.167 -7.16699 -63.5 -21.5s-39.666 -32.833 -57.999 -55.5s-36 -47.667 -53 -75s-32.833 -54 -47.5 -80c-7.33301 -14 -14.666 -26.333 -21.999 -37h214z" />
    <glyph glyph-name="uni0679.medi" unicode="&#x679;" horiz-adv-x="1049" arabic-form="medial" 
d="M655 286c0 -41.333 7.49902 -76.332 22.499 -104.999s34.5 -51.834 58.5 -69.501s50.667 -30.5 80 -38.5s58.333 -12 87 -12h161v-61h-161c-41.333 0 -80.166 6 -116.499 18s-68.5 29.333 -96.5 52c-26.667 22 -48.334 48.333 -65.001 79
c-10.667 -20.667 -23.334 -39 -38.001 -55c-59.333 -62.667 -151.333 -94 -276 -94h-326v61h326c58 0 105.333 6.83301 142 20.5s65.334 31 86.001 52s34.834 44.5 42.501 70.5s11.5 51.667 11.5 77v365h62v-360zM695.999 1194c24.667 -38 37.001 -89.6641 37.001 -154.997
c0 -20.667 -2.5 -38.834 -7.5 -54.501s-11.333 -29.334 -19 -41.001s-16.334 -21.5 -26.001 -29.5s-19.167 -14.333 -28.5 -19c-12 -6.66699 -23.833 -11.834 -35.5 -15.501s-22.667 -6.5 -33 -8.5s-19.333 -3.16699 -27 -3.5s-13.167 -0.5 -16.5 -0.5h-390v61h105l19 32
l21 36c1.33301 3.33301 3 6.33301 5 9s3.66699 5.66699 5 9v495h62v-396c13.333 20 27.5 38.833 42.5 56.5s31 33.167 48 46.5s34.833 23.833 53.5 31.5s38.334 11.5 59.001 11.5c27.333 0 51.666 -5.5 72.999 -16.5s39 -27.167 53 -48.5zM540 928.004
c5.33301 0 15.165 0.833008 29.498 2.5s29 6.16699 44 13.5s28.333 18.333 40 33s17.5 35.334 17.5 62.001c0 39.333 -4.16699 69.666 -12.5 90.999s-18 37 -29 47s-22.167 15.833 -33.5 17.5s-20 2.5 -26 2.5c-22 0 -43.167 -7.16699 -63.5 -21.5
s-39.666 -32.833 -57.999 -55.5s-36 -47.667 -53 -75s-32.833 -54 -47.5 -80c-7.33301 -14 -14.666 -26.333 -21.999 -37h214z" />
    <glyph glyph-name="veh.isol" unicode="&#x6a4;" horiz-adv-x="2127" arabic-form="isolated" 
d="M1678 411c25.333 0 50.833 1 76.5 3s50 4.5 73 7.5s43.667 6 62 9s32.5 5.5 42.5 7.5c-0.666992 78.667 -5.66699 146.167 -15 202.5s-21.666 104.166 -36.999 143.499s-33 70.833 -53 94.5s-41.167 41.834 -63.5 54.501s-45 21.167 -68 25.5s-45.167 6.5 -66.5 6.5
c-48 0 -89.333 -8.5 -124 -25.5s-63.334 -39.5 -86.001 -67.5s-39.5 -59.667 -50.5 -95s-16.5 -71.333 -16.5 -108c0 -172 108.667 -258 326 -258zM1471 61c83.333 0 153.338 6.33301 210.005 19s103 32 139 58c34.667 25.333 61 57.166 79 95.499s28.667 85.5 32 141.5
l-47 -7.5c-18.667 -3 -39.167 -5.83301 -61.5 -8.5s-45.833 -4.83398 -70.5 -6.50098s-49.334 -2.5 -74.001 -2.5c-108 0 -194.667 20.667 -260 62c-84.667 54.667 -127 140.334 -127 257.001c0 47.333 7.16699 92.166 21.5 134.499s35.5 79.5 63.5 111.5
c30.667 36.667 67.5 64.334 110.5 83.001s90.5 28 142.5 28c120 0 210.667 -49 272 -147c31.333 -50.667 54.666 -114.167 69.999 -190.5s23 -167.5 23 -273.5c0 -152 -46 -261 -138 -327c-42 -30 -94.167 -52.167 -156.5 -66.5s-138.5 -21.5 -228.5 -21.5h-1034
c-38.667 0.666992 -75.334 7.5 -110.001 20.5s-65 31.5 -91 55.5c-62 58 -93 137.667 -93 239c0 21.333 1.66699 44.333 5 69s7.5 49.5 12.5 74.5s10.333 49.333 16 73s11 44.834 16 63.501s9.33301 34 13 46s5.83398 18.667 6.50098 20l59 -19l-5 -16l-12.5 -44
c-5 -18 -10.333 -38.333 -16 -61s-10.834 -46 -15.501 -70s-8.66699 -47.833 -12 -71.5s-5 -45.167 -5 -64.5c0 -46.667 7 -86 21 -118s32.167 -58 54.5 -78s47.166 -34.667 74.499 -44s54.666 -14 81.999 -14h1034zM1711 1425l89 89l88 -89l-88 -88zM1375 1425l89 89
l88 -89l-88 -88zM1542 1622l89 89l88 -89l-88 -88z" />
    <glyph glyph-name="veh.fina" unicode="&#x6a4;" horiz-adv-x="2128" arabic-form="final" 
d="M1622 805c48 0 93 -9.16797 135 -27.501s79 -45.5 111 -81.5c30 -32.667 53.167 -70.167 69.5 -112.5s24.5 -86.166 24.5 -131.499c0 -65.333 -19 -125.833 -57 -181.5s-93 -103.834 -165 -144.501c-5.33301 -3.33301 -11 -6.5 -17 -9.5s-12 -6.16699 -18 -9.5
c54 -14.667 110.667 -26 170 -34s120.333 -12 183 -12h85v-61h-85c-80.667 0 -158.167 6 -232.5 18s-143.833 29.333 -208.5 52c-65.333 -23.333 -137.166 -40.833 -215.499 -52.5s-162.833 -17.5 -253.5 -17.5h-711c-38.667 0.666992 -75.334 7.5 -110.001 20.5
s-65 31.5 -91 55.5c-62 58 -93 137.667 -93 239c0 21.333 1.66699 44.333 5 69s7.5 49.5 12.5 74.5s10.333 49.333 16 73s11 44.834 16 63.501s9.33301 34 13 46s5.83398 18.667 6.50098 20l59 -19l-5 -16l-12.5 -44c-5 -18 -10.333 -38.333 -16 -61
s-10.834 -46 -15.501 -70s-8.66699 -47.833 -12 -71.5s-5 -45.167 -5 -64.5c0 -46.667 7 -86 21 -118s32.167 -58 54.5 -78s47.166 -34.667 74.499 -44s54.666 -14 81.999 -14h711c72 0 139.667 3.83301 203 11.5s122.666 19.167 177.999 34.5l-13 6
c-79.333 40.667 -139.666 87.667 -180.999 141c-48 60 -72 126 -72 198c0 52 8.5 99.667 25.5 143s41.833 81 74.5 113s70.834 56.167 114.501 72.5s91.834 24.5 144.501 24.5zM1617 135.999c16.667 6.66699 32.666 13.502 47.999 20.502s30.333 14.5 45 22.5
c62.667 36 110 77 142 123s48 96 48 150c0 36 -6.33301 71.333 -19 106s-31 65.834 -55 93.501s-53.167 50 -87.5 67s-73.166 25.5 -116.499 25.5c-45.333 0 -86.166 -6.83301 -122.499 -20.5s-67.5 -33.334 -93.5 -59.001s-46 -56.5 -60 -92.5s-21 -76 -21 -120
c0 -36 6.66699 -68.5 20 -97.5s30.666 -55.333 51.999 -79s44.833 -44.334 70.5 -62.001s51.167 -32.834 76.5 -45.501c11.333 -6 23 -11.5 35 -16.5zM1700 1152l89 89l88 -89l-88 -88zM1364 1152l89 89l88 -89l-88 -88zM1531 1349l89 89l88 -89l-88 -88z" />
    <glyph glyph-name="veh.init" unicode="&#x6a4;" horiz-adv-x="1036" arabic-form="initial" 
d="M572 411c25.333 0 50.833 1 76.5 3s50 4.5 73 7.5s43.667 6 62 9s32.5 5.5 42.5 7.5c-0.666992 78.667 -5.66699 146.167 -15 202.5s-21.666 104.166 -36.999 143.499s-33 70.833 -53 94.5s-41.167 41.834 -63.5 54.501s-45 21.167 -68 25.5s-45.167 6.5 -66.5 6.5
c-48 0 -89.333 -8.5 -124 -25.5s-63.334 -39.5 -86.001 -67.5s-39.5 -59.667 -50.5 -95s-16.5 -71.333 -16.5 -108c0 -172 108.667 -258 326 -258zM523 1026c120 0 210.669 -48.999 272.002 -146.999c31.333 -50.667 54.666 -114.167 69.999 -190.5s23 -167.5 23 -273.5
c0 -152 -46 -261 -138 -327c-42 -30 -94.167 -52.167 -156.5 -66.5s-138.5 -21.5 -228.5 -21.5h-380v61h380c83.333 0 153.333 6.33301 210 19s103 32 139 58c34.667 25.333 61 57.166 79 95.499s28.667 85.5 32 141.5l-47 -7.5c-18.667 -3 -39.167 -5.83301 -61.5 -8.5
s-45.833 -4.83398 -70.5 -6.50098s-49.334 -2.5 -74.001 -2.5c-108 0 -194.667 20.667 -260 62c-84.667 54.667 -127 140.334 -127 257.001c0 47.333 7.16699 92.166 21.5 134.499s35.5 79.5 63.5 111.5c30.667 36.667 67.5 64.334 110.5 83.001s90.5 28 142.5 28z
M612.002 1330l89 89l88 -89l-88 -88zM276.002 1330l89 89l88 -89l-88 -88zM443.002 1527l89 89l88 -89l-88 -88z" />
    <glyph glyph-name="veh.medi" unicode="&#x6a4;" horiz-adv-x="1084" arabic-form="medial" 
d="M573 136c16.667 6.66699 32.666 13.502 47.999 20.502s30.333 14.5 45 22.5c62.667 36 110 77 142 123s48 96 48 150c0 36 -6.33301 71.333 -19 106s-31 65.834 -55 93.501s-53.167 50 -87.5 67s-73.166 25.5 -116.499 25.5c-45.333 0 -86.166 -6.83301 -122.499 -20.5
s-67.5 -33.334 -93.5 -59.001s-46 -56.5 -60 -92.5s-21 -76 -21 -120c0 -36 6.66699 -68.5 20 -97.5s30.666 -55.333 51.999 -79s44.833 -44.334 70.5 -62.001s51.167 -32.834 76.5 -45.501c11.333 -6 23 -11.5 35 -16.5zM577.999 805.002
c48 0 92.9961 -9.16699 134.996 -27.5s79 -45.5 111 -81.5c30 -32.667 53.167 -70.167 69.5 -112.5s24.5 -86.166 24.5 -131.499c0 -65.333 -19 -125.833 -57 -181.5s-93 -103.834 -165 -144.501c-5.33301 -3.33301 -11 -6.5 -17 -9.5s-12 -6.16699 -18 -9.5
c54 -14.667 110.667 -26 170 -34s120.333 -12 183 -12h85v-61h-85c-80.667 0 -158.167 6 -232.5 18s-143.833 29.333 -208.5 52c-65.333 -23.333 -137.166 -40.833 -215.499 -52.5s-162.833 -17.5 -253.5 -17.5h-119v61h119c72 0 139.667 3.83301 203 11.5
s122.666 19.167 177.999 34.5c-3.33301 1.33301 -7.66602 3.33301 -12.999 6c-79.333 40.667 -139.666 87.667 -180.999 141c-48 60 -72 126 -72 198c0 52 8.5 99.667 25.5 143s41.833 81 74.5 113s70.834 56.167 114.501 72.5s91.834 24.5 144.501 24.5zM638.995 1160
l89 89l88 -89l-88 -88zM302.995 1160l89 89l88 -89l-88 -88zM469.995 1357l89 89l88 -89l-88 -88z" />
    <glyph glyph-name="uni0686.fina" unicode="&#x686;" horiz-adv-x="1575" arabic-form="final" 
d="M1596 0l-256.005 0.00390625c-41.333 0 -80.166 6 -116.499 18s-68.5 29.333 -96.5 52c-32 26 -56.167 57.333 -72.5 94s-24.5 77.334 -24.5 122.001v78l-343 -128c-4 -1.33301 -8 -3 -12 -5s-8.33301 -3.66699 -13 -5c-68.667 -25.333 -133.834 -51.333 -195.501 -78
s-115.5 -58.334 -161.5 -95.001c-48.667 -39.333 -83.667 -84 -105 -134c-19.333 -44 -29 -94.667 -29 -152c0 -8.66699 0.333008 -17.334 1 -26.001c6 -140.667 77.333 -246 214 -316c53.333 -28 114.666 -49.5 183.999 -64.5s141.333 -22.5 216 -22.5h438v-61h-438
c-23.333 0 -51.333 1 -84 3s-68 6.33301 -106 13s-77.5 16.167 -118.5 28.5s-80.833 28.5 -119.5 48.5c-36 19.333 -68.333 40.666 -97 63.999s-53.334 49.333 -74.001 78c-47.333 65.333 -73 140.666 -77 225.999l-1 25c0 71.333 13 134.333 39 189
c13.333 28 29.5 54.333 48.5 79s42.5 48 70.5 70c24.667 20 51.334 38.167 80.001 54.5s58.834 31.833 90.501 46.5s64.667 28.667 99 42l104.5 40l25 9l335 126.5l214 78.5l-124.5 54.5l-142.5 61.5l-146 61l-135 54c-41.333 16 -77.666 29.333 -108.999 40
s-54.333 17 -69 19c-9.33301 1.33301 -18.666 2 -27.999 2c-18 0 -37.5 -3.33301 -58.5 -10s-42.167 -19 -63.5 -37s-40.166 -41 -56.499 -69s-29.166 -60 -38.499 -96l-59 15c11.333 44 27.5 83.333 48.5 118s46.167 63.334 75.5 86.001c28 21.333 58 36.666 90 45.999
c20.667 5.33301 42 8 64 8c11.333 0 23 -0.666992 35 -2c16 -2.66699 39.333 -9 70 -19s66 -22.667 106 -38l129 -51l138 -57l133 -57l115 -50l83.5 -36.5c21.667 -9.66699 34.167 -15.167 37.5 -16.5l-2 -57l-217 -80v-101c0 -41.333 7.5 -76.333 22.5 -105
s34.5 -51.834 58.5 -69.501s50.833 -30.5 80.5 -38.5s58.834 -12 87.501 -12h256v-61zM919.995 -52.9961l88 -88l-88 -89l-89 89zM583.995 -52.9961l88 -88l-88 -89l-89 89zM750.995 -249.996l88 -88l-88 -89l-89 89z" />
    <glyph glyph-name="uni0686.init" unicode="&#x686;" horiz-adv-x="1363" arabic-form="initial" 
d="M425 792c12 0 23.668 -1 35.001 -3c16 -2.66699 39.167 -8.66699 69.5 -18s64.833 -20.833 103.5 -34.5l125 -45.5l134 -51l129 -51l111 -44.5l80.5 -32.5l36.5 -15l5 -54l-138 -92l-129 -85.5c-40 -26.333 -79 -50.5 -117 -72.5s-75.833 -42.167 -113.5 -60.5
s-76.834 -34.833 -117.501 -49.5c-41.333 -14.667 -85 -27.167 -131 -37.5s-95.5 -18.833 -148.5 -25.5s-110.333 -11.667 -172 -15s-129.167 -5 -202.5 -5v61c97.333 0 183.833 2.83301 259.5 8.5s144 14.5 205 26.5s117 27.167 168 45.5s100.833 40 149.5 65
s98.167 53.833 148.5 86.5l165.5 109l45.5 29.5l45.5 30.5l-130 52.5l-143 57l-144 55l-131 48c-40 14.333 -75.167 26.333 -105.5 36s-52.833 15.5 -67.5 17.5c-4.66699 1.33301 -9.16699 2 -13.5 2h-14.5c-24.667 0 -48.167 -4.83301 -70.5 -14.5
s-42.833 -23.667 -61.5 -42s-35.167 -40.666 -49.5 -66.999s-25.833 -55.833 -34.5 -88.5l-59 16c11.333 44 27.333 83.167 48 117.5s46 63.166 76 86.499c46 36 97 54 153 54zM853.001 -269l88 -88l-88 -89l-89 89zM517.001 -269l88 -88l-88 -89l-89 89zM684.001 -466
l88 -88l-88 -89l-89 89z" />
    <glyph glyph-name="uni0686.medi" unicode="&#x686;" horiz-adv-x="1523" arabic-form="medial" 
d="M1538 0l-256.002 -0.000976562c-41.333 0 -80.166 6 -116.499 18s-68.5 29.333 -96.5 52c-58 46.667 -90 109 -96 187c-58 -37.333 -113.5 -70.5 -166.5 -99.5s-108.833 -53.833 -167.5 -74.5c-41.333 -14.667 -85 -27.167 -131 -37.5s-95.5 -18.833 -148.5 -25.5
s-110.333 -11.667 -172 -15s-129.167 -5 -202.5 -5v61c97.333 0 183.833 2.83301 259.5 8.5s144 14.5 205 26.5s117 27.167 168 45.5s100.833 40 149.5 65s98.167 53.833 148.5 86.5l165.5 109l91 60l-130 52.5l-143 57l-144 55l-131 48
c-40 14.333 -75.167 26.333 -105.5 36s-52.833 15.5 -67.5 17.5c-4.66699 1.33301 -9.16699 2 -13.5 2h-14.5c-24.667 0 -48.167 -4.83301 -70.5 -14.5s-42.833 -23.667 -61.5 -42s-35.167 -40.666 -49.5 -66.999s-25.833 -55.833 -34.5 -88.5l-59 16
c11.333 44 27.333 83.167 48 117.5s46 63.166 76 86.499c46 36 97 54 153 54c12 0 23.667 -1 35 -3c16 -2.66699 39.167 -8.66699 69.5 -18s64.833 -20.833 103.5 -34.5l125 -45.5l134 -51l129 -51l111 -44.5l80.5 -32.5l36.5 -15l5 -54l-138 -92l-83 -55v-10
c0 -41.333 7.5 -76.166 22.5 -104.499s34.5 -51.333 58.5 -69s50.833 -30.5 80.5 -38.5s58.834 -12 87.501 -12h256v-62zM861.998 -270.001l88 -88l-88 -89l-89 89zM525.998 -270.001l88 -88l-88 -89l-89 89zM692.998 -467.001l88 -88l-88 -89l-89 89z" />
    <glyph glyph-name="uni0688.fina" unicode="&#x688;" horiz-adv-x="1254" arabic-form="final" 
d="M529 -15c-24 0 -48.5029 0.833984 -73.5029 2.50098s-50.167 4.5 -75.5 8.5c-50 8 -98 19.667 -144 35s-91.667 36.333 -137 63l32 53c36 -21.333 76 -39.5 120 -54.5s89 -26.333 135 -34s92 -11.834 138 -12.501h11c41.333 0 80 3.33301 116 10
c50 9.33301 91.833 24.666 125.5 45.999s57.167 48 70.5 80c8.66699 20 13 41.333 13 64c0 8.66699 -1.66699 23.5 -5 44.5s-15.666 48.5 -36.999 82.5c-1.33301 1.33301 -2 2.33301 -2 3c-1.33301 1.33301 -2 2.33301 -2 3l-359 544l52 33
c2.66699 -4.66699 6.5 -10.667 11.5 -18l22 -33l38.5 -58.5l62 -94.5l93 -141l131 -198c5.33301 -7.33301 10.333 -14.833 15 -22.5s9.66699 -15.167 15 -22.5l77.5 -114.5c25.667 -37 51.667 -69.833 78 -98.5s53.166 -51.5 80.499 -68.5s56 -25.5 86 -25.5h54v-61h-54
c-29.333 0 -57.166 5.66699 -83.499 17s-51.666 27 -75.999 47s-47.833 43.333 -70.5 70s-45 55.667 -67 87c-1.33301 -11.333 -3.33301 -22.166 -6 -32.499s-6 -20.5 -10 -30.5c-18 -42 -47.667 -76.833 -89 -104.5s-92.333 -47.167 -153 -58.5
c-39.333 -6.66699 -83.666 -10 -132.999 -10zM801.997 1586c24.667 -38 37.001 -89.6641 37.001 -154.997c0 -20.667 -2.5 -38.834 -7.5 -54.501s-11.333 -29.334 -19 -41.001s-16.334 -21.5 -26.001 -29.5s-19.167 -14.333 -28.5 -19
c-12 -6.66699 -23.833 -11.834 -35.5 -15.501s-22.667 -6.5 -33 -8.5s-19.333 -3.16699 -27 -3.5s-13.167 -0.5 -16.5 -0.5h-390v61h105l19 32l21 36c1.33301 3.33301 3 6.33301 5 9s3.66699 5.66699 5 9v495h62v-396c13.333 20 27.5 38.833 42.5 56.5s31 33.167 48 46.5
s34.833 23.833 53.5 31.5s38.334 11.5 59.001 11.5c27.333 0 51.666 -5.5 72.999 -16.5s39 -27.167 53 -48.5zM645.998 1320c5.33301 0 15.165 0.833008 29.498 2.5s29 6.16699 44 13.5s28.333 18.333 40 33s17.5 35.334 17.5 62.001c0 39.333 -4.16699 69.666 -12.5 90.999
s-18 37 -29 47s-22.167 15.833 -33.5 17.5s-20 2.5 -26 2.5c-22 0 -43.167 -7.16699 -63.5 -21.5s-39.666 -32.833 -57.999 -55.5s-36 -47.667 -53 -75s-32.833 -54 -47.5 -80c-7.33301 -14 -14.666 -26.333 -21.999 -37h214z" />
    <glyph glyph-name="uni0698.fina" unicode="&#x698;" horiz-adv-x="955" arabic-form="final" 
d="M970 0l-45.998 0.00195312c-41.333 0 -80.166 6 -116.499 18s-68.5 29.333 -96.5 52c-12.667 9.33301 -24.334 20.666 -35.001 33.999v-129c0 -174 -41 -308 -123 -402c-90.667 -102.667 -228.334 -154 -413.001 -154h-140v62h140c159.333 0 278.166 40.667 356.499 122
s117.5 205.333 117.5 372v649h62v-338c0 -41.333 7.5 -76.333 22.5 -105s34.5 -51.834 58.5 -69.501s50.667 -30.5 80 -38.5s58.333 -12 87 -12h46v-61zM702.002 1075l89 89l88 -89l-88 -88zM366.002 1075l89 89l88 -89l-88 -88zM533.002 1272l89 89l88 -89l-88 -88z" />
    <glyph glyph-name="uni0691.fina" unicode="&#x691;" horiz-adv-x="955" arabic-form="final" 
d="M970 0l-45.998 0.00195312c-41.333 0 -80.166 6 -116.499 18s-68.5 29.333 -96.5 52c-12.667 9.33301 -24.334 20.666 -35.001 33.999v-129c0 -174 -41 -308 -123 -402c-90.667 -102.667 -228.334 -154 -413.001 -154h-140v62h140c159.333 0 278.166 40.667 356.499 122
s117.5 205.333 117.5 372v649h62v-338c0 -41.333 7.5 -76.333 22.5 -105s34.5 -51.834 58.5 -69.501s50.667 -30.5 80 -38.5s58.333 -12 87 -12h46v-61zM807.002 1225c24.667 -38 37.001 -89.6641 37.001 -154.997c0 -20.667 -2.5 -38.834 -7.5 -54.501
s-11.333 -29.334 -19 -41.001s-16.334 -21.5 -26.001 -29.5s-19.167 -14.333 -28.5 -19c-12 -6.66699 -23.833 -11.834 -35.5 -15.501s-22.667 -6.5 -33 -8.5s-19.333 -3.16699 -27 -3.5s-13.167 -0.5 -16.5 -0.5h-390v61h105l19 32l21 36c1.33301 3.33301 3 6.33301 5 9
s3.66699 5.66699 5 9v495h62v-396c13.333 20 27.5 38.833 42.5 56.5s31 33.167 48 46.5s34.833 23.833 53.5 31.5s38.334 11.5 59.001 11.5c27.333 0 51.666 -5.5 72.999 -16.5s39 -27.167 53 -48.5zM651.003 959.005c5.33301 0 15.165 0.833008 29.498 2.5
s29 6.16699 44 13.5s28.333 18.333 40 33s17.5 35.334 17.5 62.001c0 39.333 -4.16699 69.666 -12.5 90.999s-18 37 -29 47s-22.167 15.833 -33.5 17.5s-20 2.5 -26 2.5c-22 0 -43.167 -7.16699 -63.5 -21.5s-39.666 -32.833 -57.999 -55.5s-36 -47.667 -53 -75
s-32.833 -54 -47.5 -80c-7.33301 -14 -14.666 -26.333 -21.999 -37h214z" />
    <glyph glyph-name="uni06A9.fina" unicode="&#x6a9;" horiz-adv-x="2186" arabic-form="final" 
d="M1215 61c93.333 0 173 13.999 239 41.999s111.667 67 137 117c14 27.333 21 57.333 21 90c0 69.333 -32.667 149.666 -98 240.999l-49 64l-45 59l-309 421l12 46l939 423l25 -56l-904 -408l93 -129l94.5 -128l99.5 -133c13.333 -18.667 27 -36.667 41 -54l43 -56
l4.5 -6.5c1.66699 -2.33301 3.5 -4.5 5.5 -6.5c19.333 -27.333 40 -55 62 -83l71 -92l9.5 -13c3 -4 6.16699 -8 9.5 -12l109.5 -142.5c33 -41 67.167 -75 102.5 -102s74.5 -47.333 117.5 -61s94.833 -20.5 155.5 -20.5v-61c-64.667 0 -121.834 7.5 -171.5 22.5
c-49.667 15 -95.834 38.833 -138.501 71.5c-38.667 30 -75 65.667 -109 107s-71 89 -111 143c1.33301 -12 2 -23.667 2 -35c0 -18.667 -2.16699 -38.167 -6.5 -58.5s-11.166 -39.833 -20.499 -58.5c-31.333 -63.333 -87.333 -111.666 -168 -144.999
c-36.667 -15.333 -77.167 -27 -121.5 -35s-91.5 -12 -141.5 -12h-293h-88.5h-105c-36.333 0 -72.166 0.166992 -107.499 0.5s-66.833 0.5 -94.5 0.5h-67.5h-26c-38.667 0 -75.167 6.5 -109.5 19.5s-64.833 31.833 -91.5 56.5c-30 28 -53 62.167 -69 102.5
s-24 85.5 -24 135.5c0 21.333 1.66699 44.333 5 69s7.5 49.667 12.5 75s10.333 49.833 16 73.5s11 44.834 16 63.501s9.33301 34 13 46s5.83398 18.667 6.50098 20l59 -19l-5 -16l-12.5 -44c-5 -18 -10.333 -38.333 -16 -61s-10.834 -46.167 -15.501 -70.5
s-8.66699 -48.333 -12 -72s-5 -45.167 -5 -64.5c0 -46.667 7.16699 -86.167 21.5 -118.5s32.666 -58.5 54.999 -78.5s47.333 -34.333 75 -43s55.167 -13 82.5 -13l487 -1h293z" />
    <glyph glyph-name="uni06A9.init" unicode="&#x6a9;" horiz-adv-x="1152" arabic-form="initial" 
d="M1107 1564l25.001 -56l-893 -393l79.5 -64.5c33 -27 70.667 -59.5 113 -97.5l139 -129.5c50.333 -48.333 102.833 -101.833 157.5 -160.5c82.667 -87.333 138.667 -173.333 168 -258c14.667 -42 22 -82.333 22 -121c0 -38 -7.33301 -74.333 -22 -109
c-24.667 -56 -66 -99 -124 -129c-58.667 -30.667 -131 -46 -217 -46h-570v61h570c72.667 0 133.5 11.833 182.5 35.5s83.167 57.834 102.5 102.501c11.333 25.333 17 53 17 83c0 31.333 -6.33301 65.333 -19 102c-13.333 39.333 -32.833 78.666 -58.5 117.999
s-57.5 79 -95.5 119c-72 76.667 -139.5 144.5 -202.5 203.5s-118.167 108.667 -165.5 149s-84.833 71 -112.5 92s-41.834 31.833 -42.501 32.5l6 53z" />
    <glyph glyph-name="uni06A9.medi" unicode="&#x6a9;" horiz-adv-x="1248" arabic-form="medial" 
d="M778 387l109.501 -142.5c33 -41 67.167 -75 102.5 -102s74.5 -47.333 117.5 -61s94.833 -20.5 155.5 -20.5v-61c-64.667 0 -121.834 7.5 -171.501 22.5s-95.834 38.833 -138.501 71.5c-38.667 30 -75 65.667 -109 107s-71 89 -111 143c1.33301 -12 2 -23.667 2 -35
c0 -18.667 -2.16699 -38.167 -6.5 -58.5s-11.166 -39.833 -20.499 -58.5c-31.333 -63.333 -87.333 -111.666 -168 -144.999c-36.667 -15.333 -77.167 -27 -121.5 -35s-91.5 -12 -141.5 -12h-293v61h293c93.333 0 173 14 239 42s111.667 67 137 117
c14 27.333 21 57.333 21 90c0 69.333 -32.667 149.666 -98 240.999l-49 64l-45 59l-126 171l-97.5 132.5l-63 86c-15 20.333 -22.5 30.833 -22.5 31.5l12 46l939 423l25 -56l-904 -408l47.5 -65.5l45.5 -63.5l94.5 -128l99.5 -133c13.333 -18.667 27 -36.667 41 -54l43 -56
l4.5 -6.5c1.66699 -2.33301 3.5 -4.5 5.5 -6.5c19.333 -27.333 40 -55 62 -83l71 -92l9.5 -13c3 -4 6.16699 -8 9.5 -12z" />
    <glyph glyph-name="uni06AF.fina" unicode="&#x6af;" horiz-adv-x="2186" arabic-form="final" 
d="M1215 61c93.333 0 173 13.999 239 41.999s111.667 67 137 117c14 27.333 21 57.333 21 90c0 69.333 -32.667 149.666 -98 240.999l-49 64l-45 59l-309 421l12 46l939 423l25 -56l-904 -408l93 -129l94.5 -128l99.5 -133c13.333 -18.667 27 -36.667 41 -54l43 -56
l4.5 -6.5c1.66699 -2.33301 3.5 -4.5 5.5 -6.5c19.333 -27.333 40 -55 62 -83l71 -92l9.5 -13c3 -4 6.16699 -8 9.5 -12l109.5 -142.5c33 -41 67.167 -75 102.5 -102s74.5 -47.333 117.5 -61s94.833 -20.5 155.5 -20.5v-61c-64.667 0 -121.834 7.5 -171.5 22.5
c-49.667 15 -95.834 38.833 -138.501 71.5c-38.667 30 -75 65.667 -109 107s-71 89 -111 143c1.33301 -12 2 -23.667 2 -35c0 -18.667 -2.16699 -38.167 -6.5 -58.5s-11.166 -39.833 -20.499 -58.5c-31.333 -63.333 -87.333 -111.666 -168 -144.999
c-36.667 -15.333 -77.167 -27 -121.5 -35s-91.5 -12 -141.5 -12h-293h-88.5h-105c-36.333 0 -72.166 0.166992 -107.499 0.5s-66.833 0.5 -94.5 0.5h-67.5h-26c-38.667 0 -75.167 6.5 -109.5 19.5s-64.833 31.833 -91.5 56.5c-30 28 -53 62.167 -69 102.5
s-24 85.5 -24 135.5c0 21.333 1.66699 44.333 5 69s7.5 49.667 12.5 75s10.333 49.833 16 73.5s11 44.834 16 63.501s9.33301 34 13 46s5.83398 18.667 6.50098 20l59 -19l-5 -16l-12.5 -44c-5 -18 -10.333 -38.333 -16 -61s-10.834 -46.167 -15.501 -70.5
s-8.66699 -48.333 -12 -72s-5 -45.167 -5 -64.5c0 -46.667 7.16699 -86.167 21.5 -118.5s32.666 -58.5 54.999 -78.5s47.333 -34.333 75 -43s55.167 -13 82.5 -13l487 -1h293zM1212 1422l775 338l26 -57l-806 -350z" />
    <glyph glyph-name="uni06AF.init" unicode="&#x6af;" horiz-adv-x="1152" arabic-form="initial" 
d="M1107 1564l25.001 -56l-893 -393l79.5 -64.5c33 -27 70.667 -59.5 113 -97.5l139 -129.5c50.333 -48.333 102.833 -101.833 157.5 -160.5c82.667 -87.333 138.667 -173.333 168 -258c14.667 -42 22 -82.333 22 -121c0 -38 -7.33301 -74.333 -22 -109
c-24.667 -56 -66 -99 -124 -129c-58.667 -30.667 -131 -46 -217 -46h-570v61h570c72.667 0 133.5 11.833 182.5 35.5s83.167 57.834 102.5 102.501c11.333 25.333 17 53 17 83c0 31.333 -6.33301 65.333 -19 102c-13.333 39.333 -32.833 78.666 -58.5 117.999
s-57.5 79 -95.5 119c-72 76.667 -139.5 144.5 -202.5 203.5s-118.167 108.667 -165.5 149s-84.833 71 -112.5 92s-41.834 31.833 -42.501 32.5l6 53zM191.001 1431l775 338l26 -57l-806 -350z" />
    <glyph glyph-name="uni06AF.medi" unicode="&#x6af;" horiz-adv-x="1248" arabic-form="medial" 
d="M779 387l109.501 -142.5c33 -41 67.167 -75 102.5 -102s74.5 -47.333 117.5 -61s94.833 -20.5 155.5 -20.5v-61c-64.667 0 -121.834 7.5 -171.501 22.5s-95.834 38.833 -138.501 71.5c-38.667 30 -75 65.667 -109 107s-71 89 -111 143c1.33301 -12 2 -23.667 2 -35
c0 -18.667 -2.16699 -38.167 -6.5 -58.5s-11.166 -39.833 -20.499 -58.5c-31.333 -63.333 -87.333 -111.666 -168 -144.999c-36.667 -15.333 -77.167 -27 -121.5 -35s-91.5 -12 -141.5 -12h-293v61h293c93.333 0 173 14 239 42s111.667 67 137 117
c14 27.333 21 57.333 21 90c0 69.333 -32.667 149.666 -98 240.999l-49 64l-45 59l-126 171l-97.5 132.5l-63 86c-15 20.333 -22.5 30.833 -22.5 31.5l12 46l939 423l25 -56l-904 -408l47.5 -65.5l45.5 -63.5l94.5 -128l99.5 -133c13.333 -18.667 27 -36.667 41 -54l43 -56
l4.5 -6.5c1.66699 -2.33301 3.5 -4.5 5.5 -6.5c19.333 -27.333 40 -55 62 -83l71 -92l9.5 -13c3 -4 6.16699 -8 9.5 -12zM241.001 1421l775 338l26 -57l-806 -350z" />
    <glyph glyph-name="uni06BA.fina" unicode="&#x6ba;" horiz-adv-x="1679" arabic-form="final" 
d="M911 -552l-235.997 -0.00292969c-44.667 0 -87.667 5 -129 15s-80.333 24.833 -117 44.5s-70.334 43.667 -101.001 72s-57.334 60.833 -80.001 97.5c-32.667 52 -56.667 110.333 -72 175c-12.667 52.667 -19 108.334 -19 167.001c0 12.667 0.333008 25.667 1 39
c3.33301 80.667 17.333 165.167 42 253.5s60 180.5 106 276.5l56 -27c-37.333 -78 -66.5 -150.5 -87.5 -217.5s-35.833 -128.5 -44.5 -184.5c-8 -46.667 -12 -90 -12 -130c0 -8.66699 0.5 -26.667 1.5 -54s5.5 -59.5 13.5 -96.5s18 -69.5 30 -97.5s24.333 -51.667 37 -71
c40 -64.667 92.667 -114.334 158 -149.001s137.666 -52 216.999 -52h236c170 0 289.667 40.667 359 122c56 64 84 160 84 288v741h61v-344c0 -37.333 6 -71.666 18 -102.999s29 -58.166 51 -80.499s48.333 -39.666 79 -51.999s64.334 -18.5 101.001 -18.5h30v-62h-30
c-43.333 0 -83.833 7.5 -121.5 22.5s-70.5 36.5 -98.5 64.5c-5.33301 5.33301 -10.333 10.666 -15 15.999s-9.33398 11 -14.001 17v-201c0 -143.333 -32.667 -252.666 -98 -327.999c-40.667 -47.333 -93 -82.333 -157 -105c-70 -25.333 -153 -38 -249 -38z" />
    <glyph glyph-name="uni06C0.fina" unicode="&#x6c0;" horiz-adv-x="1250" arabic-form="final" 
d="M1265 0l-41.001 0.00195312c-17.333 0 -36.5 1 -57.5 3s-43 5.66699 -66 11s-46.667 12.5 -71 21.5s-48.166 20.833 -71.499 35.5c-91.333 56.667 -152.666 142.334 -183.999 257.001c-3.33301 11.333 -6.33301 22.333 -9 33l-8 31
c-15.333 -61.333 -40.5 -114.5 -75.5 -159.5s-79.5 -80.5 -133.5 -106.5c-20.667 -10 -43.667 -17.667 -69 -23c-20 -4 -41 -6 -63 -6h-17c-60 1.33301 -115 14.666 -165 39.999c-15.333 8 -31.333 18 -48 30s-32.5 26.667 -47.5 44s-28.333 37.833 -40 61.5
s-20.167 51.167 -25.5 82.5c-3.33301 19.333 -5 38.666 -5 57.999c0 40 7 79 21 117c20.667 58 55.667 111.333 105 160c48.667 48 109.5 90.5 182.5 127.5s156.167 67.167 249.5 90.5l-30 171l60 12l50.5 -217l38.5 -166l22 -96.5l20.5 -89l21.5 -87l24 -91.5
c11.333 -42.667 26.666 -79.167 45.999 -109.5s40.833 -56 64.5 -77s48.667 -37.833 75 -50.5s52 -22.334 77 -29.001s48.667 -11.167 71 -13.5s41.5 -3.5 57.5 -3.5h41v-61zM648.999 850.002c-90 -21.333 -169.667 -49.334 -239 -84.001s-127 -74.667 -173 -120
c-42.667 -42 -72.667 -86.667 -90 -134c-12 -31.333 -18 -63.333 -18 -96c0 -16.667 1.66699 -33.667 5 -51c4 -24.667 10.667 -46.334 20 -65.001s20 -35 32 -49s24.667 -25.833 38 -35.5s26 -17.5 38 -23.5c22.667 -11.333 46 -19.666 70 -24.999s47.667 -8.33301 71 -9h8
c20 0 39.5 2 58.5 6s36.167 9.66699 51.5 17c99.333 48 160 132 182 252c4 22.667 6.33301 44.334 7 65.001c0.666992 10.667 1 20.334 1 29.001c0 9.33301 -0.5 19.833 -1.5 31.5s-2.16699 22.167 -3.5 31.5l-2 14h2l-10.5 44.5c-3.66699 15 -7.16699 30.5 -10.5 46.5
l-16.5 73c-5.66699 25.333 -12.167 52.666 -19.5 81.999zM708.999 1757c12.667 0 26.1689 -0.832031 40.502 -2.49902s29.166 -4.5 44.499 -8.5l-15 -60c-24 6.66699 -47.333 10 -70 10c-41.333 0 -75.333 -11.333 -102 -34c-17.333 -15.333 -31 -34.333 -41 -57
s-15.333 -47.334 -16 -74.001c44 -7.33301 78.833 -13.333 104.5 -18s45.5 -8.66699 59.5 -12c5.33301 -1.33301 11.333 -3 18 -5s13 -4.83301 19 -8.5s11 -8.5 15 -14.5s6 -13.667 6 -23c0 -6 -0.166992 -13.167 -0.5 -21.5s-1.5 -17.666 -3.5 -27.999s-5 -21 -9 -32
s-9.66699 -21.833 -17 -32.5c-34 -49.333 -95 -74 -183 -74h-109v61h109c66.667 0 111 16 133 48c7.33301 11.333 12.166 23.166 14.499 35.499s3.5 23.166 3.5 32.499c-12 3.33301 -34.833 8 -68.5 14l-125.5 22l-24 3l-2 24c-0.666992 8.66699 -1 17 -1 25
c0 32.667 6 65.334 18 98.001s32 60.667 60 84c14.667 12 33.5 23 56.5 33s51.5 15 85.5 15z" />
    <glyph glyph-name="uni06C1.fina" unicode="&#x6c1;" horiz-adv-x="1290" arabic-form="final" 
d="M708 1018l31.498 -132.498l27.5 -118.5l25 -106.5l23.5 -98.5l23 -95l23.5 -95c14.667 -57.333 36.5 -105.833 65.5 -145.5s61.333 -71.834 97 -96.501s72.834 -42.334 111.501 -53.001s75.667 -16 111 -16h58v-61h-58c-48 -0 -94.833 7.33301 -140.5 22
s-87.5 36 -125.5 64c-44 32 -81 70.833 -111 116.5s-52.333 97.167 -67 154.5c-8.66699 32 -16.834 63.667 -24.501 95l-23 95.5l-23.5 99l-25 106.5l-25 105l-27 118c-12.667 -2.66699 -28.167 -5.66699 -46.5 -9s-36.833 -7 -55.5 -11l-53.5 -11
c-17 -3.33301 -30.5 -6.33301 -40.5 -9c-86.667 -20 -149 -63.333 -187 -130c-18 -32 -30.333 -68 -37 -108c-5.33301 -30.667 -8 -62.667 -8 -96c0 -10 0.5 -28.667 1.5 -56s5.5 -64.166 13.5 -110.499s17.5 -91.666 28.5 -135.999s22.667 -86.666 35 -126.999l34.5 -108.5
l-59 -18c-19.333 60.667 -38.666 125.167 -57.999 193.5s-34.333 137.166 -45 206.499c-8.66699 55.333 -13 106 -13 152c0 25.333 2.33301 59.666 7 102.999s20.334 88.666 47.001 135.999c46.667 82 122 135 226 159c13.333 3.33301 32.333 7.5 57 12.5l74 14.5l65 12.5
c18.667 3.66699 29 5.5 31 5.5z" />
    <glyph glyph-name="uni06C1.init" unicode="&#x6c1;" horiz-adv-x="704" arabic-form="initial" 
d="M480 764l21.499 -93c7.66699 -34 14.667 -69.333 21 -106s11.833 -73.5 16.5 -110.5s7.66699 -72.5 9 -106.5v-12c0 -48 -8 -93.833 -24 -137.5s-40 -81.834 -72 -114.501c-26.667 -27.333 -56.167 -48.166 -88.5 -62.499s-66.166 -21.5 -101.499 -21.5h-277v61h277
c26.667 0 52.5 5.66699 77.5 17s47.833 27.666 68.5 48.999c26 26.667 46 59 60 97c12 34.667 18 71.667 18 111v12c-0.666992 32.667 -3.16699 66.834 -7.5 102.501s-9.83301 71.167 -16.5 106.5s-13.667 69.5 -21 102.5l-21 91.5zM430.999 -343
c-0.666992 0 -8.66504 -3.16602 -23.998 -9.49902s-33 -16.833 -53 -31.5c-26 -18.667 -44.667 -36.334 -56 -53.001s-20.333 -32.667 -27 -48c-4 -9.33301 -6 -17.666 -6 -24.999c0 -6.66699 2.33301 -13.834 7 -21.501s18 -11.5 40 -11.5
c23.333 0 43.166 -8.16699 59.499 -24.5s24.5 -36.166 24.5 -59.499s-8.16699 -43 -24.5 -59s-36.166 -24 -59.499 -24c-28.667 0 -51.667 6.66699 -69 20s-30.333 29.833 -39 49.5s-13.334 41.167 -14.001 64.5v15c0 16.667 1.66699 32.667 5 48
c10.667 43.333 27.167 79.5 49.5 108.5s45.166 52.167 68.499 69.5s44 29.666 62 36.999s28 11.333 30 12z" />
    <glyph glyph-name="uni06C1.medi" unicode="&#x6c1;" horiz-adv-x="1186" arabic-form="medial" 
d="M1202 0l-136 0.00195312c-36 0 -67.667 -4.83301 -95 -14.5s-51.166 -22 -71.499 -37s-37.333 -31.667 -51 -50s-24.834 -36.5 -33.501 -54.5c-17.333 -35.333 -29.333 -74 -36 -116c-5.33301 -28.667 -8 -57.667 -8 -87c0 -13.333 1.16699 -34 3.5 -62
s10 -61.5 23 -100.5s30.5 -73.167 52.5 -102.5l-25 -49c-88 0 -167.667 21.167 -239 63.5s-132.666 105.166 -183.999 188.499c-37.333 60 -66.833 126.833 -88.5 200.5s-34.167 147.167 -37.5 220.5h-291v61h321l31 -31c0 -28 2 -59 6 -93s10.667 -69.167 20 -105.5
s21.333 -73.333 36 -111s33 -73.834 55 -108.501c14 -23.333 30.833 -46.833 50.5 -70.5s42.334 -45.667 68.001 -66s54.667 -38 87 -53s68.166 -25.167 107.499 -30.5c-18 34.667 -31.833 72.5 -41.5 113.5s-14.834 82.833 -15.501 125.5v17c0 36 3.83301 73.333 11.5 112
s20.5 75.667 38.5 111c30.667 62 72.167 109.167 124.5 141.5s112.833 48.5 181.5 48.5h136v-61z" />
    <glyph glyph-name="uni06BE.fina" unicode="&#x6be;" horiz-adv-x="1651" arabic-form="final" 
d="M921 978l147.506 -156.997l125 -137c37.667 -42.667 71.167 -82.667 100.5 -120s54.333 -72.666 75 -105.999c44 -69.333 68.667 -133 74 -191c0.666992 -8.66699 1 -17.334 1 -26.001c0 -50 -13 -100.333 -39 -151l-9.5 -15c-3 -4.66699 -6.16699 -9.33398 -9.5 -14.001
h290v-61h-353c-36 -26 -78.667 -44.667 -128 -56c-13.333 -3.33301 -28.333 -6 -45 -8s-34.667 -3 -54 -3c-34 0 -72 4.16699 -114 12.5s-87.667 24.166 -137 47.499l-72.5 33.5l-70.5 33.5c-31.333 -10 -67.333 -17.333 -108 -22c-29.333 -4 -60.666 -6 -93.999 -6
c-12.667 0 -34 0.666992 -64 2s-70.833 7 -122.5 17s-103.834 25 -156.501 45l20 56c57.333 -18.667 107.666 -33 150.999 -43s82.333 -16.667 117 -20c19.333 -2 37.666 -3 54.999 -3c14 0 31.167 1 51.5 3s44.166 6.33301 71.499 13c-22.667 12.667 -44 25.5 -64 38.5
s-38.667 26.5 -56 40.5c-50 40 -86.833 82.833 -110.5 128.5s-35.5 97.5 -35.5 155.5c0 45.333 7.33301 87.833 22 127.5s36 74.5 64 104.5c32 34 70.333 59.833 115 77.5s95 26.5 151 26.5c40 0 79.333 -8.33301 118 -25s73.334 -41 104.001 -73
c33.333 -33.333 58.666 -71.666 75.999 -114.999s26 -89.333 26 -138c0 -74.667 -18.333 -141.667 -55 -201c-36.667 -57.333 -90.334 -104.333 -161.001 -141l-36 -18l90 -42c44.667 -20.667 85.834 -34.834 123.501 -42.501s71.5 -11.5 101.5 -11.5
c16.667 0 32.167 0.833008 46.5 2.5s27.166 4.16699 38.499 7.5c39.333 8.66699 73.666 23 102.999 43s51.333 44 66 72c13.333 24.667 22.666 49 27.999 73c3.33301 15.333 5 31.333 5 48c0 8 -0.833008 20.167 -2.5 36.5s-8 37.666 -19 63.999s-25.833 54.833 -44.5 85.5
c-40 64 -97.333 137.167 -172 219.5l-269 289.5zM707.006 126.003c30 10.667 57 22.668 81 36.001c122.667 65.333 184 161.333 184 288c0 43.333 -7.66699 82.833 -23 118.5s-35.5 66.167 -60.5 91.5s-53.167 45 -84.5 59s-63 21 -95 21
c-53.333 0 -98.5 -8.33301 -135.5 -25s-67 -38.334 -90 -65.001s-39.5 -56.167 -49.5 -88.5s-15 -64.5 -15 -96.5c0 -40 6.83301 -76 20.5 -108s33 -61.5 58 -88.5s55.333 -52 91 -75s75.167 -45.5 118.5 -67.5z" />
    <glyph glyph-name="uni06BE.init" unicode="&#x6be;" horiz-adv-x="1492" arabic-form="initial" 
d="M621 126c30 10.667 57 22.668 81 36.001c122.667 65.333 184 161.333 184 288c0 43.333 -7.66699 82.833 -23 118.5s-35.5 66.167 -60.5 91.5s-53.167 45 -84.5 59s-63 21 -95 21c-53.333 0 -98.5 -8.33301 -135.5 -25s-67 -38.334 -90 -65.001
s-39.5 -56.167 -49.5 -88.5s-15 -64.5 -15 -96.5c0 -40 6.83301 -76 20.5 -108s33 -61.5 58 -88.5s55.333 -52 91 -75s75.167 -45.5 118.5 -67.5zM835 978.001l147.502 -156.998l125 -137c37.667 -42.667 71.167 -82.667 100.5 -120s54.333 -72.666 75 -105.999
c44 -69.333 68.667 -133 74 -191c0.666992 -8.66699 1 -17.334 1 -26.001c0 -50 -13 -100.333 -39 -151c-19.333 -36 -47.166 -66.667 -83.499 -92s-78.5 -43.333 -126.5 -54c-13.333 -3.33301 -28.333 -6 -45 -8s-34.667 -3 -54 -3c-34 0 -72 4.16699 -114 12.5
s-87.667 24.166 -137 47.499l-72.5 33.5l-70.5 33.5c-124 -40 -282 -60 -474 -60h-157v61h157c154 0 285.667 13.667 395 41c-22.667 12.667 -44 25.5 -64 38.5s-38.667 26.5 -56 40.5c-50 40 -86.833 82.833 -110.5 128.5s-35.5 97.5 -35.5 155.5
c0 45.333 7.33301 87.833 22 127.5s36 74.5 64 104.5c32 34 70.333 59.833 115 77.5s95 26.5 151 26.5c40 0 79.333 -8.33301 118 -25s73.334 -41 104.001 -73c33.333 -33.333 58.666 -71.666 75.999 -114.999s26 -89.333 26 -138c0 -74.667 -18.333 -141.667 -55 -201
c-36.667 -57.333 -90.334 -104.333 -161.001 -141c-11.333 -6 -23.333 -12 -36 -18l90 -42c44.667 -20.667 85.834 -34.834 123.501 -42.501s71.5 -11.5 101.5 -11.5c16.667 0 32.167 0.833008 46.5 2.5s27.166 4.16699 38.499 7.5c39.333 8.66699 73.666 23 102.999 43
s51.333 44 66 72c13.333 24.667 22.666 49 27.999 73c3.33301 15.333 5 31.333 5 48c0 8 -0.833008 20.167 -2.5 36.5s-8 37.666 -19 63.999s-25.833 54.833 -44.5 85.5c-40 64 -97.333 137.167 -172 219.5l-269 289.5z" />
    <glyph glyph-name="uni06BE.medi" unicode="&#x6be;" horiz-adv-x="1260" arabic-form="medial" 
d="M301 79c45.333 5.33301 90.501 12.4971 135.501 21.4971s88.5 20.167 130.5 33.5c216 68 324 180.667 324 338c0 15.333 -1.33301 31.833 -4 49.5s-7.16699 35.334 -13.5 53.001s-14.5 34.834 -24.5 51.501s-22 31.667 -36 45c-42 40 -98 60 -168 60
c-3.33301 0 -6.83301 -0.166992 -10.5 -0.5s-7.16699 -0.5 -10.5 -0.5c-74 -4 -136 -34 -186 -90c-24 -27.333 -45.167 -60.166 -63.5 -98.499s-33.333 -81.5 -45 -129.5s-19.834 -100 -24.501 -156c-3.33301 -37.333 -5 -76 -5 -116c0 -20 0.333008 -40.333 1 -61z
M645.001 791.997c86 0 156.001 -25.335 210.001 -76.002c18 -17.333 33.167 -36.333 45.5 -57s22.333 -41.834 30 -63.501s13.167 -43.167 16.5 -64.5s5 -41 5 -59c0 -101.333 -36.333 -186.666 -109 -255.999c-60.667 -58.667 -146.334 -105.667 -257.001 -141
c-44.667 -14 -90.667 -25.667 -138 -35s-95 -16.666 -143 -21.999c4 -32.667 12 -65.667 24 -99s27.167 -65.833 45.5 -97.5s39.666 -62 63.999 -91s50.833 -55.5 79.5 -79.5c18 -15.333 38.833 -30.666 62.5 -45.999s50 -29.166 79 -41.499s60.5 -22.333 94.5 -30
s70.667 -11.5 110 -11.5h13c-49.333 63.333 -82 124.666 -98 183.999c-8.66699 30 -13 58.667 -13 86c0 36.667 7.33301 71 22 103c11.333 26 27.166 49.5 47.499 70.5s44.5 38.833 72.5 53.5c26 14 54.167 24.5 84.5 31.5s61.5 10.5 93.5 10.5h189v-61h-189
c-28 0 -54.667 -3 -80 -9s-48.5 -14.667 -69.5 -26s-39.5 -25 -55.5 -41s-28.333 -34 -37 -54c-11.333 -24.667 -17 -51 -17 -79c0 -26 7.5 -61.5 22.5 -106.5s52.5 -100.833 112.5 -167.5l-20 -51c-13.333 -1.33301 -26.333 -2.5 -39 -3.5s-25.334 -1.5 -38.001 -1.5
c-62.667 0 -122.334 9.33301 -179.001 28c-75.333 24.667 -144.666 63 -207.999 115c-34 28.667 -65.167 60.334 -93.5 95.001s-53.166 72 -74.499 112c-17.333 33.333 -31.666 66.666 -42.999 99.999s-19 66.666 -23 99.999c-47.333 -4 -92.833 -6.83301 -136.5 -8.5
s-84.5 -2.5 -122.5 -2.5v61c37.333 0 77.5 0.833008 120.5 2.5s87.5 4.83398 133.5 9.50098c-0.666992 18 -1 36 -1 54c0 41.333 1.83301 85.833 5.5 133.5s10.834 96.167 21.501 145.5c26 118 68.333 209.667 127 275c62 69.333 138 106 228 110c4.66699 0.666992 9 1 13 1
h12z" />
    <glyph glyph-name="uni06D2.fina" unicode="&#x6d2;" horiz-adv-x="1314" arabic-form="final" 
d="M1329 0l-877.001 0.00195312c-38 0 -73.167 -6.33301 -105.5 -19s-60.333 -30 -84 -52s-42.167 -48 -55.5 -78s-20 -62.667 -20 -98c0 -36 6.66699 -69 20 -99s31.666 -55.833 54.999 -77.5s51.333 -38.5 84 -50.5s68 -18 106 -18h837v-62h-837
c-46 0 -89.333 7.66699 -130 23s-76 37.666 -106 66.999c-29.333 28.667 -51.666 61.5 -66.999 98.5s-23 76.5 -23 118.5s8 81.667 24 119s39 70.666 69 99.999c30.667 29.333 65.834 51.5 105.501 66.5s82.167 22.5 127.5 22.5h877v-61z" />
    <glyph glyph-name="uni06D3.fina" unicode="&#x6d3;" horiz-adv-x="1314" arabic-form="final" 
d="M1329 0l-877.001 0.00195312c-38 0 -73.167 -6.33301 -105.5 -19s-60.333 -30 -84 -52s-42.167 -48 -55.5 -78s-20 -62.667 -20 -98c0 -36 6.66699 -69 20 -99s31.666 -55.833 54.999 -77.5s51.333 -38.5 84 -50.5s68 -18 106 -18h837v-62h-837
c-46 0 -89.333 7.66699 -130 23s-76 37.666 -106 66.999c-29.333 28.667 -51.666 61.5 -66.999 98.5s-23 76.5 -23 118.5s8 81.667 24 119s39 70.666 69 99.999c30.667 29.333 65.834 51.5 105.501 66.5s82.167 22.5 127.5 22.5h877v-61zM612.999 441.002l-425.997 -132.999
l5 66l215 67c-11.333 4 -22.666 9 -33.999 15c-19.333 10 -35.5 21.167 -48.5 33.5s-23.833 24.666 -32.5 36.999s-15.334 23.833 -20.001 34.5s-8 19.334 -10 26.001c-5.33301 18 -8 35.333 -8 52c0 8.66699 1.33301 21.167 4 37.5s10.167 34.5 22.5 54.5
s28 37.167 47 51.5s39.167 24.833 60.5 31.5c20.667 6 41.334 9 62.001 9c10 0 25.5 -1.5 46.5 -4.5s48.167 -8.16699 81.5 -15.5l11 -3l-14 -60l-12 3c-30 7.33301 -58 13 -84 17c-10 1.33301 -19.667 2 -29 2c-15.333 0 -30 -2 -44 -6
c-14.667 -4.66699 -28.334 -11.834 -41.001 -21.501s-23.167 -21.167 -31.5 -34.5s-13.833 -28 -16.5 -44c-0.666992 -5.33301 -1 -11 -1 -17c0 -11.333 1.66699 -22.666 5 -33.999c1.33301 -4.66699 3.66602 -10.834 6.99902 -18.501s8.16602 -16 14.499 -25
s14.166 -18 23.499 -27s21 -17.167 35 -24.5c30 -15.333 64 -23 102 -23c28.667 0 60 4.33301 94 13l86 26l18 -59z" />
    <glyph glyph-name="uni0649.init" unicode="&#x649;" horiz-adv-x="669" arabic-form="initial" 
d="M480 764l21.499 -93c7.66699 -34 14.667 -69.333 21 -106s11.833 -73.5 16.5 -110.5s7.66699 -72.5 9 -106.5v-12c0 -48 -8 -93.833 -24 -137.5s-40 -81.834 -72 -114.501c-26.667 -27.333 -56.167 -48.166 -88.5 -62.499s-66.166 -21.5 -101.499 -21.5h-277v61h277
c26.667 0 52.5 5.66699 77.5 17s47.833 27.666 68.5 48.999c26 26.667 46 59 60 97c12 34.667 18 71.667 18 111v12c-0.666992 32.667 -3.16699 66.834 -7.5 102.501s-9.83301 71.167 -16.5 106.5s-13.667 69.5 -21 102.5l-21 91.5z" />
    <glyph glyph-name="uni0649.medi" unicode="&#x649;" horiz-adv-x="782" arabic-form="medial" 
d="M504 286c0 -41.333 7.49902 -76.332 22.499 -104.999s34.5 -51.834 58.5 -69.501s50.667 -30.5 80 -38.5s58.333 -12 87 -12h45v-61h-45c-41.333 0 -80.166 6 -116.499 18s-68.5 29.333 -96.5 52c-26.667 22 -48.334 48.333 -65.001 79
c-10.667 -20.667 -23.334 -39 -38.001 -55c-59.333 -62.667 -151.333 -94 -276 -94h-175v61h175c58 0 105.333 6.83301 142 20.5s65.334 31 86.001 52s34.834 44.5 42.501 70.5s11.5 51.667 11.5 77v365h62v-360z" />
    <glyph glyph-name="uni06CC.fina" unicode="&#x6cc;" horiz-adv-x="1779" arabic-form="final" 
d="M355 557c-41.333 -86.667 -73.833 -170.173 -97.5 -250.506s-38.167 -156.166 -43.5 -227.499c-1.33301 -20.667 -2 -40.667 -2 -60c0 -50 5.5 -101.5 16.5 -154.5s32.167 -104.5 63.5 -154.5c40 -64 92.5 -113.333 157.5 -148s137.5 -52 217.5 -52h249
c144.667 0 261 16.667 349 50c114 42.667 171 112.334 171 209.001c0 43.333 -9.16699 78.5 -27.5 105.5s-47.5 49.167 -87.5 66.5c-19.333 8 -41 15.167 -65 21.5s-51.833 11.833 -83.5 16.5s-67.667 8.83398 -108 12.501s-85.833 6.5 -136.5 8.5l1 61h865v-61h-455
c2.66699 -1.33301 4.66699 -2 6 -2c50 -21.333 88 -50.666 114 -87.999c25.333 -37.333 38 -84.333 38 -141c0 -66 -20.667 -122.667 -62 -170c-34 -39.333 -83.333 -71.666 -148 -96.999c-96 -35.333 -219.667 -53 -371 -53h-249c-90.667 0 -173 19.833 -247 59.5
s-134 95.834 -180 168.501c-32 51.333 -55.333 109 -70 173c-12.667 52 -19 107.333 -19 166c0 12.667 0.333008 25.667 1 39c6 160 55.333 336.333 148 529z" />
    <glyph glyph-name="uni06CC.init" unicode="&#x6cc;" horiz-adv-x="873" arabic-form="initial" 
d="M639 764l21.499 -93c7.66699 -34 14.667 -69.333 21 -106s11.833 -73.5 16.5 -110.5s7.66699 -72.5 9 -106.5v-12c0 -48 -8 -93.833 -24 -137.5s-40 -81.834 -72 -114.501c-26.667 -27.333 -56.167 -48.166 -88.5 -62.499s-66.166 -21.5 -101.499 -21.5h-436v61h436
c26.667 0 52.5 5.66699 77.5 17s47.833 27.666 68.5 48.999c26 26.667 46 59 60 97c12 34.667 18 71.667 18 111v12c-0.666992 32.667 -3.16699 66.834 -7.5 102.501s-9.83301 71.167 -16.5 106.5s-13.667 69.5 -21 102.5l-21 91.5zM479.999 -389l89 89l88 -89l-88 -88z
M143.999 -389l89 89l88 -89l-88 -88z" />
    <glyph glyph-name="uni06CC.medi" unicode="&#x6cc;" horiz-adv-x="1049" arabic-form="medial" 
d="M655 286c0 -41.333 7.49902 -76.332 22.499 -104.999s34.5 -51.834 58.5 -69.501s50.667 -30.5 80 -38.5s58.333 -12 87 -12h161v-61h-161c-41.333 0 -80.166 6 -116.499 18s-68.5 29.333 -96.5 52c-26.667 22 -48.334 48.333 -65.001 79
c-10.667 -20.667 -23.334 -39 -38.001 -55c-59.333 -62.667 -151.333 -94 -276 -94h-326v61h326c58 0 105.333 6.83301 142 20.5s65.334 31 86.001 52s34.834 44.5 42.501 70.5s11.5 51.667 11.5 77v365h62v-360zM526.999 -394.999l89 89l88 -89l-88 -88zM190.999 -394.999
l89 89l88 -89l-88 -88z" />
    <glyph glyph-name="uni0651064C" unicode="&#xfc5e;" arabic-form="isolated" 
d="M262 2023c0.666992 -3.33301 2.99805 -12.501 6.99805 -27.501s8 -32.167 12 -51.5s7.33301 -39 10 -59c1.33301 -12 2 -22.667 2 -32c0 -8 -0.333008 -15 -1 -21c-4 -34.667 -17.667 -64.667 -41 -90c-28.667 -30.667 -65 -46 -109 -46c-36 0 -65.5 5.66699 -88.5 17
s-41.167 25.666 -54.5 42.999c-15.333 -19.333 -35.166 -34.166 -59.499 -44.499s-53.166 -15.5 -86.499 -15.5c-22 0 -42.5 3.83301 -61.5 11.5s-35.167 18.334 -48.5 32.001s-23.833 30 -31.5 49s-11.5 39.833 -11.5 62.5v110h61v-110c0 -28 8.33301 -50.5 25 -67.5
s39 -25.5 67 -25.5c13.333 0 26.833 1.16699 40.5 3.5s26 7 37 14s20 16.5 27 28.5s10.5 27.667 10.5 47v110h62v-110c0 -10.667 1.5 -21.5 4.5 -32.5s8.5 -21 16.5 -30s19.333 -16.333 34 -22s33.667 -8.5 57 -8.5c18.667 0 33.834 3.83301 45.501 11.5
s20.667 16.334 27 26.001s10.666 19 12.999 28s3.5 14.5 3.5 16.5c0.666992 4.66699 1 9.66699 1 15c0 6 -0.5 14.167 -1.5 24.5s-3 23.333 -6 39s-6.33301 31.167 -10 46.5s-7.16699 28.666 -10.5 39.999zM-222.002 2133l-29.0049 51.999
c0.666992 0.666992 4.83398 5.16699 12.501 13.5s14.834 19 21.501 32s11 27.833 13 44.5v8c0 14 -4.33301 28.333 -13 43c-14 24 -37.333 37 -70 39c-5.33301 0.666992 -10.666 1 -15.999 1c-7.33301 0 -15 -1 -23 -3s-12.333 -3 -13 -3l-17 59
c1.33301 0.666992 8.66602 2.33398 21.999 5c8.66699 2 19 3 31 3c5.33301 0 11.333 -0.333008 18 -1c55.333 -3.33301 95.666 -26 120.999 -68c14.667 -24.667 22 -50.334 22 -77c0 -21.333 -5 -43.333 -15 -66c32.667 10.667 61 21.167 85 31.5s44.667 20.333 62 30
s31.833 18.834 43.5 27.5c11.667 8.66699 21.834 17 30.501 25c-29.333 5.33301 -58.166 14.666 -86.499 28c-28.333 13.333 -51.833 30.666 -70.5 52c-17.333 21.333 -28.666 44.333 -33.999 69c-2 9.33301 -3 19 -3 29c0 16 2.66699 32.667 8 50
c7.33301 24.667 22.5 48.167 45.5 70.5s48.833 39.166 77.5 50.5c20.667 8 41.334 12 62.001 12c4 0 13.333 -0.666992 28 -2s32.667 -8.66602 54 -22c42 -26.667 66 -66.667 72 -120c0.666992 -8 1 -15.667 1 -23c0 -16 -1.83301 -33.667 -5.5 -53
s-9.66699 -39.5 -18 -60.5s-17.833 -40 -28.5 -57s-21 -30.5 -31 -40.5c-1.33301 -1.33301 -2.83301 -2.66602 -4.5 -4c-1.66699 -1.33301 -3.16699 -2.66602 -4.5 -3.99902c-10 -10 -22.5 -21.667 -37.5 -35s-35.5 -27.5 -61.5 -42.5s-59 -30.5 -99 -46.5
s-90 -31.667 -150 -47zM61.9932 2629c-12 0 -25.333 -2.66699 -40 -8c-21.333 -8.66699 -40 -21 -56 -37s-25.667 -30.667 -29 -44c-3.33301 -11.333 -5 -22.333 -5 -33c0 -21.333 7.33301 -40.666 22 -58c8.66699 -10 19.5 -19 32.5 -27s26.833 -14.667 41.5 -20
s29.667 -9.33301 45 -12c12 -2 23.333 -3 34 -3h8c6 10 11.833 21.167 17.5 33.5s10.5 25.166 14.5 38.5c4 13.333 7 27 9 41c0.666992 6.66699 1 13.334 1 20c0 6.66699 -0.333008 13 -1 19c-4 34.667 -18.667 59.667 -44 75c-15.333 10 -32 15 -50 15z" />
    <glyph glyph-name="uni0651064D" unicode="&#xfc5f;" arabic-form="isolated" 
d="M273 2085c0.666992 -3.33301 2.99805 -12.501 6.99805 -27.501s8 -32.167 12 -51.5s7.33301 -39 10 -59c1.33301 -12 2 -22.667 2 -32c0 -8 -0.333008 -15 -1 -21c-4 -34.667 -17.667 -64.667 -41 -90c-28.667 -30.667 -65 -46 -109 -46c-36 0 -65.5 5.66699 -88.5 17
s-41.167 25.666 -54.5 42.999c-15.333 -19.333 -35.166 -34.166 -59.499 -44.499s-53.166 -15.5 -86.499 -15.5c-22 0 -42.5 3.83301 -61.5 11.5s-35.167 18.334 -48.5 32.001s-23.833 30 -31.5 49s-11.5 39.833 -11.5 62.5v110h61v-110c0 -28 8.33301 -50.5 25 -67.5
s39 -25.5 67 -25.5c13.333 0 26.833 1.16699 40.5 3.5s26 7 37 14s20 16.5 27 28.5s10.5 27.667 10.5 47v110h62v-110c0 -10.667 1.5 -21.5 4.5 -32.5s8.5 -21 16.5 -30s19.333 -16.333 34 -22s33.667 -8.5 57 -8.5c18.667 0 33.834 3.83301 45.501 11.5
s20.667 16.334 27 26.001s10.666 19 12.999 28s3.5 14.5 3.5 16.5c0.666992 4.66699 1 9.66699 1 15c0 6 -0.5 14.167 -1.5 24.5s-3 23.333 -6 39s-6.33301 31.167 -10 46.5s-7.16699 28.666 -10.5 39.999zM-221.002 1293l504 187v-65l-503 -187zM-221.002 1485l504 187v-65
l-503 -187z" />
    <glyph glyph-name="uni0651064E" unicode="&#xfc60;" arabic-form="isolated" 
d="M262 2023c0.666992 -3.33301 2.99805 -12.501 6.99805 -27.501s8 -32.167 12 -51.5s7.33301 -39 10 -59c1.33301 -12 2 -22.667 2 -32c0 -8 -0.333008 -15 -1 -21c-4 -34.667 -17.667 -64.667 -41 -90c-28.667 -30.667 -65 -46 -109 -46c-36 0 -65.5 5.66699 -88.5 17
s-41.167 25.666 -54.5 42.999c-15.333 -19.333 -35.166 -34.166 -59.499 -44.499s-53.166 -15.5 -86.499 -15.5c-22 0 -42.5 3.83301 -61.5 11.5s-35.167 18.334 -48.5 32.001s-23.833 30 -31.5 49s-11.5 39.833 -11.5 62.5v110h61v-110c0 -28 8.33301 -50.5 25 -67.5
s39 -25.5 67 -25.5c13.333 0 26.833 1.16699 40.5 3.5s26 7 37 14s20 16.5 27 28.5s10.5 27.667 10.5 47v110h62v-110c0 -10.667 1.5 -21.5 4.5 -32.5s8.5 -21 16.5 -30s19.333 -16.333 34 -22s33.667 -8.5 57 -8.5c18.667 0 33.834 3.83301 45.501 11.5
s20.667 16.334 27 26.001s10.666 19 12.999 28s3.5 14.5 3.5 16.5c0.666992 4.66699 1 9.66699 1 15c0 6 -0.5 14.167 -1.5 24.5s-3 23.333 -6 39s-6.33301 31.167 -10 46.5s-7.16699 28.666 -10.5 39.999zM-274.002 2173l504 187v-65l-503 -187z" />
    <glyph glyph-name="uni0651064F" unicode="&#xfc61;" arabic-form="isolated" 
d="M262 2023c0.666992 -3.33301 2.99805 -12.501 6.99805 -27.501s8 -32.167 12 -51.5s7.33301 -39 10 -59c1.33301 -12 2 -22.667 2 -32c0 -8 -0.333008 -15 -1 -21c-4 -34.667 -17.667 -64.667 -41 -90c-28.667 -30.667 -65 -46 -109 -46c-36 0 -65.5 5.66699 -88.5 17
s-41.167 25.666 -54.5 42.999c-15.333 -19.333 -35.166 -34.166 -59.499 -44.499s-53.166 -15.5 -86.499 -15.5c-22 0 -42.5 3.83301 -61.5 11.5s-35.167 18.334 -48.5 32.001s-23.833 30 -31.5 49s-11.5 39.833 -11.5 62.5v110h61v-110c0 -28 8.33301 -50.5 25 -67.5
s39 -25.5 67 -25.5c13.333 0 26.833 1.16699 40.5 3.5s26 7 37 14s20 16.5 27 28.5s10.5 27.667 10.5 47v110h62v-110c0 -10.667 1.5 -21.5 4.5 -32.5s8.5 -21 16.5 -30s19.333 -16.333 34 -22s33.667 -8.5 57 -8.5c18.667 0 33.834 3.83301 45.501 11.5
s20.667 16.334 27 26.001s10.666 19 12.999 28s3.5 14.5 3.5 16.5c0.666992 4.66699 1 9.66699 1 15c0 6 -0.5 14.167 -1.5 24.5s-3 23.333 -6 39s-6.33301 31.167 -10 46.5s-7.16699 28.666 -10.5 39.999zM-268.002 2102l-16.001 58.999
c47.333 12.667 87.833 25.167 121.5 37.5s62.167 24.333 85.5 36s42.5 22.834 57.5 33.5c15 10.667 27.5 20.667 37.5 30c-29.333 5.33301 -58 14.666 -86 28c-28 13.333 -51.667 30.666 -71 52c-24 29.333 -36 62 -36 98c0 16 2.33301 32.667 7 50
c7.33301 24.667 22.5 48.167 45.5 70.5s48.833 39.166 77.5 50.5c20.667 8 41.334 12 62.001 12c4 0 13.333 -0.666992 28 -2s32.667 -8.66602 54 -21.999c42 -26.667 66 -66.667 72 -120c0.666992 -8.66699 1 -17 1 -25c0 -15.333 -1.83301 -32.5 -5.5 -51.5
s-9.66699 -39 -18 -60s-17.833 -40 -28.5 -57s-21 -30.5 -31 -40.5l-8 -8c-10 -10 -22.667 -21.667 -38 -35s-36 -27.5 -62 -42.5s-59 -30.5 -99 -46.5s-90 -31.667 -150 -47zM16.9971 2598c-12.667 0 -26.334 -2.66699 -41.001 -8c-21.333 -8.66699 -40 -21 -56 -37
s-25.667 -30.667 -29 -44c-3.33301 -11.333 -5 -22.333 -5 -33c0 -21.333 7.33301 -40.666 22 -58c8.66699 -10 19.5 -19 32.5 -27s26.833 -14.667 41.5 -20s29.667 -9.33301 45 -12c12 -2 23.333 -3 34 -3h8c6 10 11.833 21.167 17.5 33.5s10.5 25.166 14.5 38.5
c4 13.333 7 27 9 41c0.666992 6.66699 1 13.334 1 20c0 6.66699 -0.333008 13 -1 19c-4 34.667 -18.667 59.667 -44 75c-15.333 10 -31.666 15 -48.999 15z" />
    <glyph glyph-name="uni06510650" unicode="&#xfc62;" arabic-form="isolated" 
d="M256 2046c0.666992 -3.33301 2.99805 -12.501 6.99805 -27.501s8 -32.167 12 -51.5s7.33301 -39 10 -59c1.33301 -12 2 -22.667 2 -32c0 -8 -0.333008 -15 -1 -21c-4 -34.667 -17.667 -64.667 -41 -90c-28.667 -30.667 -65 -46 -109 -46c-36 0 -65.5 5.66699 -88.5 17
s-41.167 25.666 -54.5 42.999c-15.333 -19.333 -35.166 -34.166 -59.499 -44.499s-53.166 -15.5 -86.499 -15.5c-22 0 -42.5 3.83301 -61.5 11.5s-35.167 18.334 -48.5 32.001s-23.833 30 -31.5 49s-11.5 39.833 -11.5 62.5v110h61v-110c0 -28 8.33301 -50.5 25 -67.5
s39 -25.5 67 -25.5c13.333 0 26.833 1.16699 40.5 3.5s26 7 37 14s20 16.5 27 28.5s10.5 27.667 10.5 47v110h62v-110c0 -10.667 1.5 -21.5 4.5 -32.5s8.5 -21 16.5 -30s19.333 -16.333 34 -22s33.667 -8.5 57 -8.5c18.667 0 33.834 3.83301 45.501 11.5
s20.667 16.334 27 26.001s10.666 19 12.999 28s3.5 14.5 3.5 16.5c0.666992 4.66699 1 9.66699 1 15c0 6 -0.5 14.167 -1.5 24.5s-3 23.333 -6 39s-6.33301 31.167 -10 46.5s-7.16699 28.666 -10.5 39.999zM-243.002 1441l504 187v-65l-503 -187z" />
    <glyph glyph-name="uniFC63" unicode="&#xfc63;" arabic-form="isolated" 
d="M262 2023c0.666992 -3.33301 2.99805 -12.501 6.99805 -27.501s8 -32.167 12 -51.5s7.33301 -39 10 -59c1.33301 -12 2 -22.667 2 -32c0 -8 -0.333008 -15 -1 -21c-4 -34.667 -17.667 -64.667 -41 -90c-28.667 -30.667 -65 -46 -109 -46c-36 0 -65.5 5.66699 -88.5 17
s-41.167 25.666 -54.5 42.999c-15.333 -19.333 -35.166 -34.166 -59.499 -44.499s-53.166 -15.5 -86.499 -15.5c-22 0 -42.5 3.83301 -61.5 11.5s-35.167 18.334 -48.5 32.001s-23.833 30 -31.5 49s-11.5 39.833 -11.5 62.5v110h61v-110c0 -28 8.33301 -50.5 25 -67.5
s39 -25.5 67 -25.5c13.333 0 26.833 1.16699 40.5 3.5s26 7 37 14s20 16.5 27 28.5s10.5 27.667 10.5 47v110h62v-110c0 -10.667 1.5 -21.5 4.5 -32.5s8.5 -21 16.5 -30s19.333 -16.333 34 -22s33.667 -8.5 57 -8.5c18.667 0 33.834 3.83301 45.501 11.5
s20.667 16.334 27 26.001s10.666 19 12.999 28s3.5 14.5 3.5 16.5c0.666992 4.66699 1 9.66699 1 15c0 6 -0.5 14.167 -1.5 24.5s-3 23.333 -6 39s-6.33301 31.167 -10 46.5s-7.16699 28.666 -10.5 39.999zM-31.002 2174v415h61v-415h-61z" />
    <glyph glyph-name="fathatan_01" unicode="&#xfe70;" arabic-form="isolated" 
d="M-252 1661l504 187v-65l-503 -187zM-252 1853l504 187v-65l-503 -187z" />
    <glyph glyph-name="dammatan_01" unicode="&#xfe72;" arabic-form="isolated" 
d="M-222 1594l-29.0049 51.998c0.666992 0.666992 4.83398 5.16699 12.501 13.5s14.834 19 21.501 32s11 27.833 13 44.5v8c0 14 -4.33301 28.333 -13 43c-14 24 -37.333 37 -70 39c-5.33301 0.666992 -10.666 1 -15.999 1c-7.33301 0 -15 -1 -23 -3s-12.333 -3 -13 -3
l-17 59c1.33301 0.666992 8.66602 2.33398 21.999 5.00098c8.66699 2 19 3 31 3c5.33301 0 11.333 -0.333008 18 -1c55.333 -3.33301 95.666 -26 120.999 -68c14.667 -24.667 22 -50.334 22 -77.001c0 -21.333 -5 -43.333 -15 -66c32.667 10.667 61 21.167 85 31.5
s44.667 20.333 62 30s31.833 18.834 43.5 27.501s21.834 17 30.501 25c-29.333 5.33301 -58.166 14.666 -86.499 27.999s-51.833 30.666 -70.5 51.999c-17.333 21.333 -28.666 44.333 -33.999 69c-2 9.33301 -3 19 -3 29c0 16 2.66699 32.667 8 50
c7.33301 24.667 22.5 48.167 45.5 70.501c23 22.333 48.833 39.166 77.5 50.5c20.667 8 41.334 12 62.001 12c4 0 13.333 -0.666992 28 -2s32.667 -8.66602 54 -22c42 -26.667 66 -66.667 72 -120c0.666992 -8 1 -15.667 1 -23c0 -16 -1.83301 -33.667 -5.5 -53
s-9.66699 -39.5 -18 -60.5s-17.833 -40 -28.5 -57s-21 -30.5 -31 -40.5c-1.33301 -1.33301 -2.83301 -2.66602 -4.5 -3.99902s-3.16699 -2.66602 -4.5 -3.99902c-10 -10 -22.5 -21.667 -37.5 -35s-35.5 -27.5 -61.5 -42.5s-59 -30.5 -99 -46.5s-90 -31.667 -150 -47z
M61.9951 2090c-12 0 -25.333 -2.66895 -40 -8.00195c-21.333 -8.66699 -40 -21 -56 -37s-25.667 -30.667 -29 -44c-3.33301 -11.333 -5 -22.333 -5 -33c0 -21.333 7.33301 -40.666 22 -57.999c8.66699 -10 19.5 -19 32.5 -27s26.833 -14.667 41.5 -20
s29.667 -9.33301 45 -12c12 -2 23.333 -3 34 -3h8c6 10 11.833 21.167 17.5 33.5s10.5 25.166 14.5 38.499s7 27 9 41c0.666992 6.66699 1 13.334 1 20.001s-0.333008 13 -1 19c-4 34.667 -18.667 59.667 -44 75.001c-15.333 10 -32 15 -50 15z" />
    <glyph glyph-name="kasratan_01" unicode="&#xfe74;" arabic-form="isolated" 
d="M-252 -653l504 187v-65l-503 -187zM-252 -461l504 187v-65l-503 -187z" />
    <glyph glyph-name="fatha_01" unicode="&#xfe76;" arabic-form="isolated" 
d="M-252 1661l504 187v-65l-503 -187z" />
    <glyph glyph-name="damma_01" unicode="&#xfe78;" arabic-form="isolated" 
d="M-268 1555l-16.001 59.001c47.333 12.667 87.833 25.167 121.5 37.5s62.167 24.333 85.5 36s42.5 22.834 57.5 33.501s27.5 20.667 37.5 30c-29.333 5.33301 -58 14.666 -86 27.999s-51.667 30.666 -71 51.999c-24 29.333 -36 62 -36 98c0 16 2.33301 32.667 7 50
c7.33301 24.667 22.5 48.167 45.5 70.5s48.833 39.166 77.5 50.5c20.667 8 41.334 12 62.001 12c4 0 13.333 -0.666992 28 -2s32.667 -8.66602 54 -22c42 -26.667 66 -66.667 72 -120c0.666992 -8.66699 1 -17 1 -25c0 -15.333 -1.83301 -32.5 -5.5 -51.5
s-9.66699 -39 -18 -60s-17.833 -40 -28.5 -57s-21 -30.5 -31 -40.5l-8 -8c-10 -10 -22.667 -21.667 -38 -35s-36 -27.5 -62 -42.5s-59 -30.5 -99 -46.5s-90 -31.667 -150 -47zM16.999 2051c-12.667 0 -26.334 -2.66797 -41.001 -8.00098c-21.333 -8.66699 -40 -21 -56 -37
s-25.667 -30.667 -29 -44c-3.33301 -11.333 -5 -22.333 -5 -33c0 -21.333 7.33301 -40.666 22 -57.999c8.66699 -10 19.5 -19 32.5 -27s26.833 -14.667 41.5 -20s29.667 -9.33301 45 -12c12 -2 23.333 -3 34 -3h8c6 10 11.833 21.167 17.5 33.5s10.5 25.166 14.5 38.499
s7 27 9 41c0.666992 6.66699 1 13.334 1 20.001s-0.333008 13 -1 19c-4 34.667 -18.667 59.667 -44 75c-15.333 10 -31.666 15 -48.999 15z" />
    <glyph glyph-name="kasra_01" unicode="&#xfe7a;" arabic-form="isolated" 
d="M-253 -462l504 187v-65l-503 -187z" />
    <glyph glyph-name="shadda_01" unicode="&#xfe7c;" arabic-form="isolated" 
d="M262 2023c0.666992 -3.33301 2.99805 -12.501 6.99805 -27.501s8 -32.167 12 -51.5s7.33301 -39 10 -59c1.33301 -12 2 -22.667 2 -32c0 -8 -0.333008 -15 -1 -21c-4 -34.667 -17.667 -64.667 -41 -90c-28.667 -30.667 -65 -46 -109 -46c-36 0 -65.5 5.66699 -88.5 17
s-41.167 25.666 -54.5 42.999c-15.333 -19.333 -35.166 -34.166 -59.499 -44.499s-53.166 -15.5 -86.499 -15.5c-22 0 -42.5 3.83301 -61.5 11.5s-35.167 18.334 -48.5 32.001s-23.833 30 -31.5 49s-11.5 39.833 -11.5 62.5v110h61v-110c0 -28 8.33301 -50.5 25 -67.5
s39 -25.5 67 -25.5c13.333 0 26.833 1.16699 40.5 3.5s26 7 37 14s20 16.5 27 28.5s10.5 27.667 10.5 47v110h62v-110c0 -10.667 1.5 -21.5 4.5 -32.5s8.5 -21 16.5 -30s19.333 -16.333 34 -22s33.667 -8.5 57 -8.5c18.667 0 33.834 3.83301 45.501 11.5
s20.667 16.334 27 26.001s10.666 19 12.999 28s3.5 14.5 3.5 16.5c0.666992 4.66699 1 9.66699 1 15c0 6 -0.5 14.167 -1.5 24.5s-3 23.333 -6 39s-6.33301 31.167 -10 46.5s-7.16699 28.666 -10.5 39.999z" />
    <glyph glyph-name="sukun_01" unicode="&#xfe7e;" arabic-form="isolated" 
d="M-207 1884c0 27.333 5.33301 53.5 16 78.5s25.334 47 44.001 66s40.5 33.833 65.5 44.5s51.167 16 78.5 16s53.5 -5.33301 78.5 -16s47 -25.5 66 -44.5s33.833 -41 44.5 -66s16 -51.167 16 -78.5s-5.33301 -53.5 -16 -78.5s-25.5 -46.833 -44.5 -65.5
s-41 -33.334 -66 -44.001s-51.167 -16 -78.5 -16s-53.5 5.33301 -78.5 16s-46.833 25.334 -65.5 44.001s-33.334 40.5 -44.001 65.5s-16 51.167 -16 78.5zM-145 1885c0 -20 3.83301 -38.667 11.5 -56s18 -32.5 31 -45.5s28.167 -23.333 45.5 -31s36 -11.5 56 -11.5
s38.667 3.83301 56 11.5s32.5 18 45.5 31s23.333 28.167 31 45.5s11.5 36 11.5 56s-3.83301 38.667 -11.5 56s-18 32.5 -31 45.5s-28.167 23.333 -45.5 31s-36 11.5 -56 11.5s-38.667 -3.83301 -56 -11.5s-32.5 -18 -45.5 -31s-23.333 -28.167 -31 -45.5
s-11.5 -36 -11.5 -56z" />
    <glyph glyph-name="uni0622.fina" unicode="&#x622;" horiz-adv-x="763" arabic-form="final" 
d="M419 1274l60.999 0.000976562v-942c0 -43.333 5.16699 -81.833 15.5 -115.5s26.833 -62 49.5 -85s51.834 -40.5 87.501 -52.5s78.5 -18 128.5 -18h15v-61h-30c-56 0 -104.333 8.5 -145 25.5s-75 38.833 -103 65.5c-17.333 16.667 -31.333 35 -42 55
s-18.667 40.5 -24 61.5s-8.83301 42.167 -10.5 63.5s-2.5 41.666 -2.5 60.999v942zM837.999 1491l-418.001 -0.00195312c-49.333 0 -93.166 -2.16699 -131.499 -6.5s-72.166 -13.833 -101.499 -28.5c-30.667 -15.333 -56.334 -37.166 -77.001 -65.499
s-37.667 -65.166 -51 -110.499l-59 17c16 54 37 98.333 63 133s58.333 61.667 97 81c34.667 17.333 73.167 28.5 115.5 33.5s90.5 7.5 144.5 7.5h418v-61z" />
    <glyph glyph-name="uni0623.fina" unicode="&#x623;" horiz-adv-x="650" arabic-form="final" 
d="M308 1274l60.999 0.000976562v-942c0 -43.333 5.16699 -81.833 15.5 -115.5s26.833 -62 49.5 -85s51.834 -40.5 87.501 -52.5s78.5 -18 128.5 -18h15v-61h-30c-56 0 -104.333 8.5 -145 25.5s-75 38.833 -103 65.5c-17.333 16.667 -31.333 35 -42 55
s-18.667 40.5 -24 61.5s-8.83301 42.167 -10.5 63.5s-2.5 41.666 -2.5 60.999v942zM466.999 1510l-425.997 -132.999l5 66l215 67c-11.333 4 -22.666 9 -33.999 15c-19.333 10 -35.5 21.167 -48.5 33.5s-23.833 24.666 -32.5 36.999s-15.334 23.833 -20.001 34.5
s-8 19.334 -10 26.001c-5.33301 18 -8 35.333 -8 52c0 8.66699 1.33301 21.167 4 37.5s10.167 34.5 22.5 54.5s28 37.167 47 51.5s39.167 24.833 60.5 31.5c20.667 6 41.334 9 62.001 9c10 0 25.5 -1.5 46.5 -4.5s48.167 -8.16699 81.5 -15.5l11 -3l-14 -60l-12 3
c-30 7.33301 -58 13 -84 17c-10 1.33301 -19.667 2 -29 2c-15.333 0 -30 -2 -44 -6c-14.667 -4.66699 -28.334 -11.834 -41.001 -21.501s-23.167 -21.167 -31.5 -34.5s-13.833 -28 -16.5 -44c-0.666992 -5.33301 -1 -11 -1 -17c0 -11.333 1.66699 -22.666 5 -33.999
c1.33301 -4.66699 3.66602 -10.834 6.99902 -18.501s8.16602 -16 14.499 -25s14.166 -18 23.499 -27s21 -17.167 35 -24.5c30 -15.333 64 -23 102 -23c28.667 0 60 4.33301 94 13l86 26l18 -59z" />
    <glyph glyph-name="uni0624.fina" unicode="&#x624;" horiz-adv-x="1044" arabic-form="final" 
d="M830 61l-0.00195312 255.001c0 158 -29 271.667 -87 341c-47.333 55.333 -117 83 -209 83c-36 0 -71.667 -6.66699 -107 -20s-67.166 -34.833 -95.499 -64.5s-51.166 -68.5 -68.499 -116.5s-26 -106.667 -26 -176c0 -111.333 39.667 -193 119 -245
c20 -13.333 40.167 -23.833 60.5 -31.5s39 -13.334 56 -17.001s31.667 -6 44 -7s20.5 -1.5 24.5 -1.5h289zM533.998 801.001c111.333 0 196.668 -34.9961 256.001 -104.996c67.333 -79.333 101 -206 101 -380v-255h168v-61h-168v-82c0 -84 -15 -156 -45 -216
s-75 -109.333 -135 -148c-56 -36 -124.833 -62.5 -206.5 -79.5s-178.834 -25.5 -291.501 -25.5v61c106.667 0 198.667 8 276 24s141.333 40.667 192 74s88.167 75.666 112.5 126.999s36.5 112.333 36.5 183v82h-289c-14.667 0 -30.834 1.16699 -48.501 3.5
s-36.167 6.16602 -55.5 11.499s-38.833 12.166 -58.5 20.499s-38.834 18.833 -57.501 31.5c-16.667 10.667 -33.667 24.5 -51 41.5s-33 37.5 -47 61.5s-25.5 51.833 -34.5 83.5s-13.5 68.167 -13.5 109.5c0 73.333 10 138.666 30 195.999
c18.667 54 45.334 99.667 80.001 137c32 34 69.333 60 112 78s88.334 27 137.001 27zM610 1161l-425.997 -132.999l5 66l215 67c-11.333 4 -22.666 9 -33.999 15c-19.333 10 -35.5 21.167 -48.5 33.5s-23.833 24.666 -32.5 36.999s-15.334 23.833 -20.001 34.5
s-8 19.334 -10 26.001c-5.33301 18 -8 35.333 -8 52c0 8.66699 1.33301 21.167 4 37.5s10.167 34.5 22.5 54.5s28 37.167 47 51.5s39.167 24.833 60.5 31.5c20.667 6 41.334 9 62.001 9c10 0 25.5 -1.5 46.5 -4.5s48.167 -8.16699 81.5 -15.5l11 -3l-14 -60l-12 3
c-30 7.33301 -58 13 -84 17c-10 1.33301 -19.667 2 -29 2c-15.333 0 -30 -2 -44 -6c-14.667 -4.66699 -28.334 -11.834 -41.001 -21.501s-23.167 -21.167 -31.5 -34.5s-13.833 -28 -16.5 -44c-0.666992 -5.33301 -1 -11 -1 -17c0 -11.333 1.66699 -22.666 5 -33.999
c1.33301 -4.66699 3.66602 -10.834 6.99902 -18.501s8.16602 -16 14.499 -25s14.166 -18 23.499 -27s21 -17.167 35 -24.5c30 -15.333 64 -23 102 -23c28.667 0 60 4.33301 94 13l86 26l18 -59z" />
    <glyph glyph-name="uni0625.fina" unicode="&#x625;" horiz-adv-x="542" arabic-form="final" 
d="M200 1428l60.999 0.000976562v-1096c0 -43.333 5.16699 -81.833 15.5 -115.5s26.833 -62 49.5 -85s51.834 -40.5 87.501 -52.5s78.5 -18 128.5 -18h15v-61h-30c-56 0 -104.333 8.5 -145 25.5s-75 38.833 -103 65.5c-17.333 16.667 -31.333 35 -42 55
s-18.667 40.5 -24 61.5s-8.83301 42.167 -10.5 63.5s-2.5 41.666 -2.5 60.999v1096zM447.999 -526.999l-425.997 -132.999l5 66l215 67c-11.333 4 -22.666 9 -33.999 15c-19.333 10 -35.5 21.167 -48.5 33.5s-23.833 24.666 -32.5 36.999s-15.334 23.833 -20.001 34.5
s-8 19.334 -10 26.001c-5.33301 18 -8 35.333 -8 52c0 8.66699 1.33301 21.167 4 37.5s10.167 34.5 22.5 54.5s28 37.167 47 51.5s39.167 24.833 60.5 31.5c20.667 6 41.334 9 62.001 9c10 0 25.5 -1.5 46.5 -4.5s48.167 -8.16699 81.5 -15.5l11 -3l-14 -60l-12 3
c-30 7.33301 -58 13 -84 17c-10 1.33301 -19.667 2 -29 2c-15.333 0 -30 -2 -44 -6c-14.667 -4.66699 -28.334 -11.834 -41.001 -21.501s-23.167 -21.167 -31.5 -34.5s-13.833 -28 -16.5 -44c-0.666992 -5.33301 -1 -11 -1 -17c0 -11.333 1.66699 -22.666 5 -33.999
c1.33301 -4.66699 3.66602 -10.834 6.99902 -18.501s8.16602 -16 14.499 -25s14.166 -18 23.499 -27s21 -17.167 35 -24.5c30 -15.333 64 -23 102 -23c28.667 0 60 4.33301 94 13l86 26l18 -59z" />
    <glyph glyph-name="uni0626.fina" unicode="&#x626;" horiz-adv-x="1779" arabic-form="final" 
d="M355 557c-41.333 -86.667 -73.833 -170.173 -97.5 -250.506s-38.167 -156.166 -43.5 -227.499c-1.33301 -20.667 -2 -40.667 -2 -60c0 -50 5.5 -101.5 16.5 -154.5s32.167 -104.5 63.5 -154.5c40 -64 92.5 -113.333 157.5 -148s137.5 -52 217.5 -52h249
c144.667 0 261 16.667 349 50c114 42.667 171 112.334 171 209.001c0 43.333 -9.16699 78.5 -27.5 105.5s-47.5 49.167 -87.5 66.5c-19.333 8 -41 15.167 -65 21.5s-51.833 11.833 -83.5 16.5s-67.667 8.83398 -108 12.501s-85.833 6.5 -136.5 8.5l1 61h865v-61h-455
c2.66699 -1.33301 4.66699 -2 6 -2c50 -21.333 88 -50.666 114 -87.999c25.333 -37.333 38 -84.333 38 -141c0 -66 -20.667 -122.667 -62 -170c-34 -39.333 -83.333 -71.666 -148 -96.999c-96 -35.333 -219.667 -53 -371 -53h-249c-90.667 0 -173 19.833 -247 59.5
s-134 95.834 -180 168.501c-32 51.333 -55.333 109 -70 173c-12.667 52 -19 107.333 -19 166c0 12.667 0.333008 25.667 1 39c6 160 55.333 336.333 148 529zM1117 465.994l-425.997 -132.999l5 66l215 67c-11.333 4 -22.666 9 -33.999 15
c-19.333 10 -35.5 21.167 -48.5 33.5s-23.833 24.666 -32.5 36.999s-15.334 23.833 -20.001 34.5s-8 19.334 -10 26.001c-5.33301 18 -8 35.333 -8 52c0 8.66699 1.33301 21.167 4 37.5s10.167 34.5 22.5 54.5s28 37.167 47 51.5s39.167 24.833 60.5 31.5
c20.667 6 41.334 9 62.001 9c10 0 25.5 -1.5 46.5 -4.5s48.167 -8.16699 81.5 -15.5l11 -3l-14 -60l-12 3c-30 7.33301 -58 13 -84 17c-10 1.33301 -19.667 2 -29 2c-15.333 0 -30 -2 -44 -6c-14.667 -4.66699 -28.334 -11.834 -41.001 -21.501s-23.167 -21.167 -31.5 -34.5
s-13.833 -28 -16.5 -44c-0.666992 -5.33301 -1 -11 -1 -17c0 -11.333 1.66699 -22.666 5 -33.999c1.33301 -4.66699 3.66602 -10.834 6.99902 -18.501s8.16602 -16 14.499 -25s14.166 -18 23.499 -27s21 -17.167 35 -24.5c30 -15.333 64 -23 102 -23
c28.667 0 60 4.33301 94 13l86 26l18 -59z" />
    <glyph glyph-name="uni0626.init" unicode="&#x626;" horiz-adv-x="873" arabic-form="initial" 
d="M639 764l21.499 -93c7.66699 -34 14.667 -69.333 21 -106s11.833 -73.5 16.5 -110.5s7.66699 -72.5 9 -106.5v-12c0 -48 -8 -93.833 -24 -137.5s-40 -81.834 -72 -114.501c-26.667 -27.333 -56.167 -48.166 -88.5 -62.499s-66.166 -21.5 -101.499 -21.5h-436v61h436
c26.667 0 52.5 5.66699 77.5 17s47.833 27.666 68.5 48.999c26 26.667 46 59 60 97c12 34.667 18 71.667 18 111v12c-0.666992 32.667 -3.16699 66.834 -7.5 102.501s-9.83301 71.167 -16.5 106.5s-13.667 69.5 -21 102.5l-21 91.5zM558.999 1008l-425.997 -132.999l5 66
l215 67c-11.333 4 -22.666 9 -33.999 15c-19.333 10 -35.5 21.167 -48.5 33.5s-23.833 24.666 -32.5 36.999s-15.334 23.833 -20.001 34.5s-8 19.334 -10 26.001c-5.33301 18 -8 35.333 -8 52c0 8.66699 1.33301 21.167 4 37.5s10.167 34.5 22.5 54.5s28 37.167 47 51.5
s39.167 24.833 60.5 31.5c20.667 6 41.334 9 62.001 9c10 0 25.5 -1.5 46.5 -4.5s48.167 -8.16699 81.5 -15.5l11 -3l-14 -60l-12 3c-30 7.33301 -58 13 -84 17c-10 1.33301 -19.667 2 -29 2c-15.333 0 -30 -2 -44 -6c-14.667 -4.66699 -28.334 -11.834 -41.001 -21.501
s-23.167 -21.167 -31.5 -34.5s-13.833 -28 -16.5 -44c-0.666992 -5.33301 -1 -11 -1 -17c0 -11.333 1.66699 -22.666 5 -33.999c1.33301 -4.66699 3.66602 -10.834 6.99902 -18.501s8.16602 -16 14.499 -25s14.166 -18 23.499 -27s21 -17.167 35 -24.5
c30 -15.333 64 -23 102 -23c28.667 0 60 4.33301 94 13l86 26l18 -59z" />
    <glyph glyph-name="uni0626.medi" unicode="&#x626;" horiz-adv-x="1049" arabic-form="medial" 
d="M655 286c0 -41.333 7.49902 -76.332 22.499 -104.999s34.5 -51.834 58.5 -69.501s50.667 -30.5 80 -38.5s58.333 -12 87 -12h161v-61h-161c-41.333 0 -80.166 6 -116.499 18s-68.5 29.333 -96.5 52c-26.667 22 -48.334 48.333 -65.001 79
c-10.667 -20.667 -23.334 -39 -38.001 -55c-59.333 -62.667 -151.333 -94 -276 -94h-326v61h326c58 0 105.333 6.83301 142 20.5s65.334 31 86.001 52s34.834 44.5 42.501 70.5s11.5 51.667 11.5 77v365h62v-360zM621.999 951.001l-425.997 -132.999l5 66l215 67
c-11.333 4 -22.666 9 -33.999 15c-19.333 10 -35.5 21.167 -48.5 33.5s-23.833 24.666 -32.5 36.999s-15.334 23.833 -20.001 34.5s-8 19.334 -10 26.001c-5.33301 18 -8 35.333 -8 52c0 8.66699 1.33301 21.167 4 37.5s10.167 34.5 22.5 54.5s28 37.167 47 51.5
s39.167 24.833 60.5 31.5c20.667 6 41.334 9 62.001 9c10 0 25.5 -1.5 46.5 -4.5s48.167 -8.16699 81.5 -15.5l11 -3l-14 -60l-12 3c-30 7.33301 -58 13 -84 17c-10 1.33301 -19.667 2 -29 2c-15.333 0 -30 -2 -44 -6c-14.667 -4.66699 -28.334 -11.834 -41.001 -21.501
s-23.167 -21.167 -31.5 -34.5s-13.833 -28 -16.5 -44c-0.666992 -5.33301 -1 -11 -1 -17c0 -11.333 1.66699 -22.666 5 -33.999c1.33301 -4.66699 3.66602 -10.834 6.99902 -18.501s8.16602 -16 14.499 -25s14.166 -18 23.499 -27s21 -17.167 35 -24.5
c30 -15.333 64 -23 102 -23c28.667 0 60 4.33301 94 13l86 26l18 -59z" />
    <glyph glyph-name="uni0627.fina" unicode="&#x627;" horiz-adv-x="542" arabic-form="final" 
d="M200 1428l60.999 0.000976562v-1096c0 -43.333 5.16699 -81.833 15.5 -115.5s26.833 -62 49.5 -85s51.834 -40.5 87.501 -52.5s78.5 -18 128.5 -18h15v-61h-30c-56 0 -104.333 8.5 -145 25.5s-75 38.833 -103 65.5c-17.333 16.667 -31.333 35 -42 55
s-18.667 40.5 -24 61.5s-8.83301 42.167 -10.5 63.5s-2.5 41.666 -2.5 60.999v1096z" />
    <glyph glyph-name="uni0628.fina" unicode="&#x628;" horiz-adv-x="2241" arabic-form="final" 
d="M2256 61v-61h-39c-41.333 0 -80.166 6 -116.499 18s-68.5 29.333 -96.5 52c-26.667 22 -48.334 48.333 -65.001 79c-10.667 -20.667 -23.334 -39 -38.001 -55c-58.667 -62 -148.667 -93.333 -270 -94h-1214c-38.667 0 -75.167 6.5 -109.5 19.5s-64.833 31.833 -91.5 56.5
c-62 58 -93 137.667 -93 239c0 21.333 1.66699 44.333 5 69s7.5 49.5 12.5 74.5s10.333 49.333 16 73s11 44.834 16 63.501s9.33301 34 13 46s5.83398 18.667 6.50098 20l59 -19l-5 -16l-12.5 -44c-5 -18 -10.333 -38.333 -16 -61s-10.834 -46 -15.501 -70
s-8.66699 -47.833 -12 -71.5s-5 -45.167 -5 -64.5c0 -46.667 7.16699 -86.167 21.5 -118.5s32.666 -58.5 54.999 -78.5s47.333 -34.5 75 -43.5s55.167 -13.5 82.5 -13.5h1206c58 0 105.333 6.83301 142 20.5s65.334 31 86.001 52s34.834 44.5 42.501 70.5
s11.5 51.667 11.5 77v347h62v-342c0 -41.333 7.5 -76.333 22.5 -105s34.5 -51.834 58.5 -69.501s50.667 -30.5 80 -38.5s58.333 -12 87 -12h39zM989 -364l89 89l88 -89l-88 -88z" />
    <glyph glyph-name="uni0628.init" unicode="&#x628;" horiz-adv-x="669" arabic-form="initial" 
d="M480 764l21.499 -93c7.66699 -34 14.667 -69.333 21 -106s11.833 -73.5 16.5 -110.5s7.66699 -72.5 9 -106.5v-12c0 -48 -8 -93.833 -24 -137.5s-40 -81.834 -72 -114.501c-26.667 -27.333 -56.167 -48.166 -88.5 -62.499s-66.166 -21.5 -101.499 -21.5h-277v61h277
c26.667 0 52.5 5.66699 77.5 17s47.833 27.666 68.5 48.999c26 26.667 46 59 60 97c12 34.667 18 71.667 18 111v12c-0.666992 32.667 -3.16699 66.834 -7.5 102.501s-9.83301 71.167 -16.5 106.5s-13.667 69.5 -21 102.5l-21 91.5zM251.999 -365l89 89l88 -89l-88 -88z" />
    <glyph glyph-name="uni0628.medi" unicode="&#x628;" horiz-adv-x="782" arabic-form="medial" 
d="M506 286c0 -41.333 7.49902 -76.332 22.499 -104.999s34.5 -51.834 58.5 -69.501s50.667 -30.5 80 -38.5s58.333 -12 87 -12h45v-61h-45c-41.333 0 -80.166 6 -116.499 18s-68.5 29.333 -96.5 52c-26.667 22 -48.334 48.333 -65.001 79
c-10.667 -20.667 -23.334 -39 -38.001 -55c-59.333 -62.667 -151.333 -94 -276 -94h-175v61h175c58 0 105.333 6.83301 142 20.5s65.334 31 86.001 52s34.834 44.5 42.501 70.5s11.5 51.667 11.5 77v365h62v-360zM284.999 -375.999l89 89l88 -89l-88 -88z" />
    <glyph glyph-name="uni0629.fina" unicode="&#x629;" horiz-adv-x="1250" arabic-form="final" 
d="M1265 0l-41.001 0.00195312c-17.333 0 -36.5 1 -57.5 3s-43 5.66699 -66 11s-46.667 12.5 -71 21.5s-48.166 20.833 -71.499 35.5c-91.333 56.667 -152.666 142.334 -183.999 257.001c-3.33301 11.333 -6.33301 22.333 -9 33l-8 31
c-15.333 -61.333 -40.5 -114.5 -75.5 -159.5s-79.5 -80.5 -133.5 -106.5c-20.667 -10 -43.667 -17.667 -69 -23c-20 -4 -41 -6 -63 -6h-17c-60 1.33301 -115 14.666 -165 39.999c-15.333 8 -31.333 18 -48 30s-32.5 26.667 -47.5 44s-28.333 37.833 -40 61.5
s-20.167 51.167 -25.5 82.5c-3.33301 19.333 -5 38.666 -5 57.999c0 40 7 79 21 117c20.667 58 55.667 111.333 105 160c48.667 48 109.5 90.5 182.5 127.5s156.167 67.167 249.5 90.5l-30 171l60 12l50.5 -217l38.5 -166l22 -96.5l20.5 -89l21.5 -87l24 -91.5
c11.333 -42.667 26.666 -79.167 45.999 -109.5s40.833 -56 64.5 -77s48.667 -37.833 75 -50.5s52 -22.334 77 -29.001s48.667 -11.167 71 -13.5s41.5 -3.5 57.5 -3.5h41v-61zM648.999 850.002c-90 -21.333 -169.667 -49.334 -239 -84.001s-127 -74.667 -173 -120
c-42.667 -42 -72.667 -86.667 -90 -134c-12 -31.333 -18 -63.333 -18 -96c0 -16.667 1.66699 -33.667 5 -51c4 -24.667 10.667 -46.334 20 -65.001s20 -35 32 -49s24.667 -25.833 38 -35.5s26 -17.5 38 -23.5c22.667 -11.333 46 -19.666 70 -24.999s47.667 -8.33301 71 -9h8
c20 0 39.5 2 58.5 6s36.167 9.66699 51.5 17c99.333 48 160 132 182 252c4 22.667 6.33301 44.334 7 65.001c0.666992 10.667 1 20.334 1 29.001c0 9.33301 -0.5 19.833 -1.5 31.5s-2.16699 22.167 -3.5 31.5l-2 14h2l-10.5 44.5c-3.66699 15 -7.16699 30.5 -10.5 46.5
l-16.5 73c-5.66699 25.333 -12.167 52.666 -19.5 81.999zM731.999 1463l89 89l88 -89l-88 -88zM395.999 1463l89 89l88 -89l-88 -88z" />
    <glyph glyph-name="uni062A.fina" unicode="&#x62a;" horiz-adv-x="2241" arabic-form="final" 
d="M2256 61v-61h-39c-41.333 0 -80.166 6 -116.499 18s-68.5 29.333 -96.5 52c-26.667 22 -48.334 48.333 -65.001 79c-10.667 -20.667 -23.334 -39 -38.001 -55c-58.667 -62 -148.667 -93.333 -270 -94h-1214c-38.667 0 -75.167 6.5 -109.5 19.5s-64.833 31.833 -91.5 56.5
c-62 58 -93 137.667 -93 239c0 21.333 1.66699 44.333 5 69s7.5 49.5 12.5 74.5s10.333 49.333 16 73s11 44.834 16 63.501s9.33301 34 13 46s5.83398 18.667 6.50098 20l59 -19l-5 -16l-12.5 -44c-5 -18 -10.333 -38.333 -16 -61s-10.834 -46 -15.501 -70
s-8.66699 -47.833 -12 -71.5s-5 -45.167 -5 -64.5c0 -46.667 7.16699 -86.167 21.5 -118.5s32.666 -58.5 54.999 -78.5s47.333 -34.5 75 -43.5s55.167 -13.5 82.5 -13.5h1206c58 0 105.333 6.83301 142 20.5s65.334 31 86.001 52s34.834 44.5 42.501 70.5
s11.5 51.667 11.5 77v347h62v-342c0 -41.333 7.5 -76.333 22.5 -105s34.5 -51.834 58.5 -69.501s50.667 -30.5 80 -38.5s58.333 -12 87 -12h39zM1149 925l89 89l88 -89l-88 -88zM813 925l89 89l88 -89l-88 -88z" />
    <glyph glyph-name="uni062A.init" unicode="&#x62a;" horiz-adv-x="873" arabic-form="initial" 
d="M639 764l21.499 -93c7.66699 -34 14.667 -69.333 21 -106s11.833 -73.5 16.5 -110.5s7.66699 -72.5 9 -106.5v-12c0 -48 -8 -93.833 -24 -137.5s-40 -81.834 -72 -114.501c-26.667 -27.333 -56.167 -48.166 -88.5 -62.499s-66.166 -21.5 -101.499 -21.5h-436v61h436
c26.667 0 52.5 5.66699 77.5 17s47.833 27.666 68.5 48.999c26 26.667 46 59 60 97c12 34.667 18 71.667 18 111v12c-0.666992 32.667 -3.16699 66.834 -7.5 102.501s-9.83301 71.167 -16.5 106.5s-13.667 69.5 -21 102.5l-21 91.5zM508.999 1185l89 89l88 -89l-88 -88z
M172.999 1185l89 89l88 -89l-88 -88z" />
    <glyph glyph-name="uni062A.medi" unicode="&#x62a;" horiz-adv-x="1049" arabic-form="medial" 
d="M655 286c0 -41.333 7.49902 -76.332 22.499 -104.999s34.5 -51.834 58.5 -69.501s50.667 -30.5 80 -38.5s58.333 -12 87 -12h161v-61h-161c-41.333 0 -80.166 6 -116.499 18s-68.5 29.333 -96.5 52c-26.667 22 -48.334 48.333 -65.001 79
c-10.667 -20.667 -23.334 -39 -38.001 -55c-59.333 -62.667 -151.333 -94 -276 -94h-326v61h326c58 0 105.333 6.83301 142 20.5s65.334 31 86.001 52s34.834 44.5 42.501 70.5s11.5 51.667 11.5 77v365h62v-360zM612.999 1100l89 89l88 -89l-88 -88zM276.999 1100l89 89
l88 -89l-88 -88z" />
    <glyph glyph-name="uni062B.fina" unicode="&#x62b;" horiz-adv-x="2241" arabic-form="final" 
d="M2256 61v-61h-39c-41.333 0 -80.166 6 -116.499 18s-68.5 29.333 -96.5 52c-26.667 22 -48.334 48.333 -65.001 79c-10.667 -20.667 -23.334 -39 -38.001 -55c-58.667 -62 -148.667 -93.333 -270 -94h-1214c-38.667 0 -75.167 6.5 -109.5 19.5s-64.833 31.833 -91.5 56.5
c-62 58 -93 137.667 -93 239c0 21.333 1.66699 44.333 5 69s7.5 49.5 12.5 74.5s10.333 49.333 16 73s11 44.834 16 63.501s9.33301 34 13 46s5.83398 18.667 6.50098 20l59 -19l-5 -16l-12.5 -44c-5 -18 -10.333 -38.333 -16 -61s-10.834 -46 -15.501 -70
s-8.66699 -47.833 -12 -71.5s-5 -45.167 -5 -64.5c0 -46.667 7.16699 -86.167 21.5 -118.5s32.666 -58.5 54.999 -78.5s47.333 -34.5 75 -43.5s55.167 -13.5 82.5 -13.5h1206c58 0 105.333 6.83301 142 20.5s65.334 31 86.001 52s34.834 44.5 42.501 70.5
s11.5 51.667 11.5 77v347h62v-342c0 -41.333 7.5 -76.333 22.5 -105s34.5 -51.834 58.5 -69.501s50.667 -30.5 80 -38.5s58.333 -12 87 -12h39zM1166 880l89 89l88 -89l-88 -88zM830 880l89 89l88 -89l-88 -88zM997 1077l89 89l88 -89l-88 -88z" />
    <glyph glyph-name="uni062B.init" unicode="&#x62b;" horiz-adv-x="873" arabic-form="initial" 
d="M639 764l21.499 -93c7.66699 -34 14.667 -69.333 21 -106s11.833 -73.5 16.5 -110.5s7.66699 -72.5 9 -106.5v-12c0 -48 -8 -93.833 -24 -137.5s-40 -81.834 -72 -114.501c-26.667 -27.333 -56.167 -48.166 -88.5 -62.499s-66.166 -21.5 -101.499 -21.5h-436v61h436
c26.667 0 52.5 5.66699 77.5 17s47.833 27.666 68.5 48.999c26 26.667 46 59 60 97c12 34.667 18 71.667 18 111v12c-0.666992 32.667 -3.16699 66.834 -7.5 102.501s-9.83301 71.167 -16.5 106.5s-13.667 69.5 -21 102.5l-21 91.5zM489.999 1156l89 89l88 -89l-88 -88z
M153.999 1156l89 89l88 -89l-88 -88zM320.999 1353l89 89l88 -89l-88 -88z" />
    <glyph glyph-name="uni062B.medi" unicode="&#x62b;" horiz-adv-x="1049" arabic-form="medial" 
d="M655 286c0 -41.333 7.49902 -76.332 22.499 -104.999s34.5 -51.834 58.5 -69.501s50.667 -30.5 80 -38.5s58.333 -12 87 -12h161v-61h-161c-41.333 0 -80.166 6 -116.499 18s-68.5 29.333 -96.5 52c-26.667 22 -48.334 48.333 -65.001 79
c-10.667 -20.667 -23.334 -39 -38.001 -55c-59.333 -62.667 -151.333 -94 -276 -94h-326v61h326c58 0 105.333 6.83301 142 20.5s65.334 31 86.001 52s34.834 44.5 42.501 70.5s11.5 51.667 11.5 77v365h62v-360zM568.999 1077l89 89l88 -89l-88 -88zM232.999 1077l89 89
l88 -89l-88 -88zM399.999 1274l89 89l88 -89l-88 -88z" />
    <glyph glyph-name="uni062C.fina" unicode="&#x62c;" horiz-adv-x="1575" arabic-form="final" 
d="M1596 0l-256.005 0.00390625c-41.333 0 -80.166 6 -116.499 18s-68.5 29.333 -96.5 52c-32 26 -56.167 57.333 -72.5 94s-24.5 77.334 -24.5 122.001v78l-343 -128c-4 -1.33301 -8 -3 -12 -5s-8.33301 -3.66699 -13 -5c-68.667 -25.333 -133.834 -51.333 -195.501 -78
s-115.5 -58.334 -161.5 -95.001c-48.667 -39.333 -83.667 -84 -105 -134c-19.333 -44 -29 -94.667 -29 -152c0 -8.66699 0.333008 -17.334 1 -26.001c6 -140.667 77.333 -246 214 -316c53.333 -28 114.666 -49.5 183.999 -64.5s141.333 -22.5 216 -22.5h438v-61h-438
c-23.333 0 -51.333 1 -84 3s-68 6.33301 -106 13s-77.5 16.167 -118.5 28.5s-80.833 28.5 -119.5 48.5c-36 19.333 -68.333 40.666 -97 63.999s-53.334 49.333 -74.001 78c-47.333 65.333 -73 140.666 -77 225.999l-1 25c0 71.333 13 134.333 39 189
c13.333 28 29.5 54.333 48.5 79s42.5 48 70.5 70c24.667 20 51.334 38.167 80.001 54.5s58.834 31.833 90.501 46.5s64.667 28.667 99 42l104.5 40l25 9l335 126.5l214 78.5l-124.5 54.5l-142.5 61.5l-146 61l-135 54c-41.333 16 -77.666 29.333 -108.999 40
s-54.333 17 -69 19c-9.33301 1.33301 -18.666 2 -27.999 2c-18 0 -37.5 -3.33301 -58.5 -10s-42.167 -19 -63.5 -37s-40.166 -41 -56.499 -69s-29.166 -60 -38.499 -96l-59 15c11.333 44 27.5 83.333 48.5 118s46.167 63.334 75.5 86.001c28 21.333 58 36.666 90 45.999
c20.667 5.33301 42 8 64 8c11.333 0 23 -0.666992 35 -2c16 -2.66699 39.333 -9 70 -19s66 -22.667 106 -38l129 -51l138 -57l133 -57l115 -50l83.5 -36.5c21.667 -9.66699 34.167 -15.167 37.5 -16.5l-2 -57l-217 -80v-101c0 -41.333 7.5 -76.333 22.5 -105
s34.5 -51.834 58.5 -69.501s50.833 -30.5 80.5 -38.5s58.834 -12 87.501 -12h256v-61zM669.995 -199.996l89 89l88 -89l-88 -88z" />
    <glyph glyph-name="uni062C.init" unicode="&#x62c;" horiz-adv-x="1363" arabic-form="initial" 
d="M425 792c12 0 23.668 -1 35.001 -3c16 -2.66699 39.167 -8.66699 69.5 -18s64.833 -20.833 103.5 -34.5l125 -45.5l134 -51l129 -51l111 -44.5l80.5 -32.5l36.5 -15l5 -54l-138 -92l-129 -85.5c-40 -26.333 -79 -50.5 -117 -72.5s-75.833 -42.167 -113.5 -60.5
s-76.834 -34.833 -117.501 -49.5c-41.333 -14.667 -85 -27.167 -131 -37.5s-95.5 -18.833 -148.5 -25.5s-110.333 -11.667 -172 -15s-129.167 -5 -202.5 -5v61c97.333 0 183.833 2.83301 259.5 8.5s144 14.5 205 26.5s117 27.167 168 45.5s100.833 40 149.5 65
s98.167 53.833 148.5 86.5l165.5 109l45.5 29.5l45.5 30.5l-130 52.5l-143 57l-144 55l-131 48c-40 14.333 -75.167 26.333 -105.5 36s-52.833 15.5 -67.5 17.5c-4.66699 1.33301 -9.16699 2 -13.5 2h-14.5c-24.667 0 -48.167 -4.83301 -70.5 -14.5
s-42.833 -23.667 -61.5 -42s-35.167 -40.666 -49.5 -66.999s-25.833 -55.833 -34.5 -88.5l-59 16c11.333 44 27.333 83.167 48 117.5s46 63.166 76 86.499c46 36 97 54 153 54zM583.001 -360l89 89l88 -89l-88 -88z" />
    <glyph glyph-name="uni062C.medi" unicode="&#x62c;" horiz-adv-x="1523" arabic-form="medial" 
d="M1538 0l-256.002 -0.000976562c-41.333 0 -80.166 6 -116.499 18s-68.5 29.333 -96.5 52c-58 46.667 -90 109 -96 187c-58 -37.333 -113.5 -70.5 -166.5 -99.5s-108.833 -53.833 -167.5 -74.5c-41.333 -14.667 -85 -27.167 -131 -37.5s-95.5 -18.833 -148.5 -25.5
s-110.333 -11.667 -172 -15s-129.167 -5 -202.5 -5v61c97.333 0 183.833 2.83301 259.5 8.5s144 14.5 205 26.5s117 27.167 168 45.5s100.833 40 149.5 65s98.167 53.833 148.5 86.5l165.5 109l91 60l-130 52.5l-143 57l-144 55l-131 48
c-40 14.333 -75.167 26.333 -105.5 36s-52.833 15.5 -67.5 17.5c-4.66699 1.33301 -9.16699 2 -13.5 2h-14.5c-24.667 0 -48.167 -4.83301 -70.5 -14.5s-42.833 -23.667 -61.5 -42s-35.167 -40.666 -49.5 -66.999s-25.833 -55.833 -34.5 -88.5l-59 16
c11.333 44 27.333 83.167 48 117.5s46 63.166 76 86.499c46 36 97 54 153 54c12 0 23.667 -1 35 -3c16 -2.66699 39.167 -8.66699 69.5 -18s64.833 -20.833 103.5 -34.5l125 -45.5l134 -51l129 -51l111 -44.5l80.5 -32.5l36.5 -15l5 -54l-138 -92l-83 -55v-10
c0 -41.333 7.5 -76.166 22.5 -104.499s34.5 -51.333 58.5 -69s50.833 -30.5 80.5 -38.5s58.834 -12 87.501 -12h256v-62zM599.998 -360.001l89 89l88 -89l-88 -88z" />
    <glyph glyph-name="uni062D.fina" unicode="&#x62d;" horiz-adv-x="1575" arabic-form="final" 
d="M1596 0l-256.005 0.00390625c-41.333 0 -80.166 6 -116.499 18s-68.5 29.333 -96.5 52c-32 26 -56.167 57.333 -72.5 94s-24.5 77.334 -24.5 122.001v78l-343 -128c-4 -1.33301 -8 -3 -12 -5s-8.33301 -3.66699 -13 -5c-68.667 -25.333 -133.834 -51.333 -195.501 -78
s-115.5 -58.334 -161.5 -95.001c-48.667 -39.333 -83.667 -84 -105 -134c-19.333 -44 -29 -94.667 -29 -152c0 -8.66699 0.333008 -17.334 1 -26.001c6 -140.667 77.333 -246 214 -316c53.333 -28 114.666 -49.5 183.999 -64.5s141.333 -22.5 216 -22.5h438v-61h-438
c-23.333 0 -51.333 1 -84 3s-68 6.33301 -106 13s-77.5 16.167 -118.5 28.5s-80.833 28.5 -119.5 48.5c-36 19.333 -68.333 40.666 -97 63.999s-53.334 49.333 -74.001 78c-47.333 65.333 -73 140.666 -77 225.999l-1 25c0 71.333 13 134.333 39 189
c13.333 28 29.5 54.333 48.5 79s42.5 48 70.5 70c24.667 20 51.334 38.167 80.001 54.5s58.834 31.833 90.501 46.5s64.667 28.667 99 42l104.5 40l25 9l335 126.5l214 78.5l-124.5 54.5l-142.5 61.5l-146 61l-135 54c-41.333 16 -77.666 29.333 -108.999 40
s-54.333 17 -69 19c-9.33301 1.33301 -18.666 2 -27.999 2c-18 0 -37.5 -3.33301 -58.5 -10s-42.167 -19 -63.5 -37s-40.166 -41 -56.499 -69s-29.166 -60 -38.499 -96l-59 15c11.333 44 27.5 83.333 48.5 118s46.167 63.334 75.5 86.001c28 21.333 58 36.666 90 45.999
c20.667 5.33301 42 8 64 8c11.333 0 23 -0.666992 35 -2c16 -2.66699 39.333 -9 70 -19s66 -22.667 106 -38l129 -51l138 -57l133 -57l115 -50l83.5 -36.5c21.667 -9.66699 34.167 -15.167 37.5 -16.5l-2 -57l-217 -80v-101c0 -41.333 7.5 -76.333 22.5 -105
s34.5 -51.834 58.5 -69.501s50.833 -30.5 80.5 -38.5s58.834 -12 87.501 -12h256v-61z" />
    <glyph glyph-name="uni062D.init" unicode="&#x62d;" horiz-adv-x="1363" arabic-form="initial" 
d="M425 792c12 0 23.668 -1 35.001 -3c16 -2.66699 39.167 -8.66699 69.5 -18s64.833 -20.833 103.5 -34.5l125 -45.5l134 -51l129 -51l111 -44.5l80.5 -32.5l36.5 -15l5 -54l-138 -92l-129 -85.5c-40 -26.333 -79 -50.5 -117 -72.5s-75.833 -42.167 -113.5 -60.5
s-76.834 -34.833 -117.501 -49.5c-41.333 -14.667 -85 -27.167 -131 -37.5s-95.5 -18.833 -148.5 -25.5s-110.333 -11.667 -172 -15s-129.167 -5 -202.5 -5v61c97.333 0 183.833 2.83301 259.5 8.5s144 14.5 205 26.5s117 27.167 168 45.5s100.833 40 149.5 65
s98.167 53.833 148.5 86.5l165.5 109l45.5 29.5l45.5 30.5l-130 52.5l-143 57l-144 55l-131 48c-40 14.333 -75.167 26.333 -105.5 36s-52.833 15.5 -67.5 17.5c-4.66699 1.33301 -9.16699 2 -13.5 2h-14.5c-24.667 0 -48.167 -4.83301 -70.5 -14.5
s-42.833 -23.667 -61.5 -42s-35.167 -40.666 -49.5 -66.999s-25.833 -55.833 -34.5 -88.5l-59 16c11.333 44 27.333 83.167 48 117.5s46 63.166 76 86.499c46 36 97 54 153 54z" />
    <glyph glyph-name="uni062D.medi" unicode="&#x62d;" horiz-adv-x="1523" arabic-form="medial" 
d="M1538 0l-256.002 -0.000976562c-41.333 0 -80.166 6 -116.499 18s-68.5 29.333 -96.5 52c-58 46.667 -90 109 -96 187c-58 -37.333 -113.5 -70.5 -166.5 -99.5s-108.833 -53.833 -167.5 -74.5c-41.333 -14.667 -85 -27.167 -131 -37.5s-95.5 -18.833 -148.5 -25.5
s-110.333 -11.667 -172 -15s-129.167 -5 -202.5 -5v61c97.333 0 183.833 2.83301 259.5 8.5s144 14.5 205 26.5s117 27.167 168 45.5s100.833 40 149.5 65s98.167 53.833 148.5 86.5l165.5 109l91 60l-130 52.5l-143 57l-144 55l-131 48
c-40 14.333 -75.167 26.333 -105.5 36s-52.833 15.5 -67.5 17.5c-4.66699 1.33301 -9.16699 2 -13.5 2h-14.5c-24.667 0 -48.167 -4.83301 -70.5 -14.5s-42.833 -23.667 -61.5 -42s-35.167 -40.666 -49.5 -66.999s-25.833 -55.833 -34.5 -88.5l-59 16
c11.333 44 27.333 83.167 48 117.5s46 63.166 76 86.499c46 36 97 54 153 54c12 0 23.667 -1 35 -3c16 -2.66699 39.167 -8.66699 69.5 -18s64.833 -20.833 103.5 -34.5l125 -45.5l134 -51l129 -51l111 -44.5l80.5 -32.5l36.5 -15l5 -54l-138 -92l-83 -55v-10
c0 -41.333 7.5 -76.166 22.5 -104.499s34.5 -51.333 58.5 -69s50.833 -30.5 80.5 -38.5s58.834 -12 87.501 -12h256v-62z" />
    </font>
</defs>
</svg>
